/* XPM */
static const char *door_o[] = {
/* columns rows colors chars-per-pixel */
"80 80 154 2 ",
"   c #030303",
".  c #090705",
"X  c #0C0906",
"o  c #0B0B0B",
"O  c #100B07",
"+  c #120E09",
"@  c #16100A",
"#  c #1D150D",
"$  c #131313",
"%  c #1B1B1B",
"&  c #21170E",
"*  c #22190F",
"=  c #201710",
"-  c #251B12",
";  c #2A1E14",
":  c #251D18",
">  c #2D2115",
",  c #2D2319",
"<  c #312417",
"1  c #332619",
"2  c #36281B",
"3  c #3B2B1E",
"4  c #222222",
"5  c #202020",
"6  c gray14",
"7  c #252525",
"8  c gray15",
"9  c #272727",
"0  c #232323",
"q  c #282828",
"w  c gray16",
"e  c #2A2A2A",
"r  c #2A2A2A",
"t  c #3B2E22",
"y  c #3D2E21",
"u  c #3F2F20",
"i  c #3C2E22",
"p  c #3C2F22",
"a  c #3C2F23",
"s  c #3D2F23",
"d  c #3E2F23",
"f  c #3C2F22",
"g  c #3E3023",
"h  c #3F3023",
"j  c #3F3123",
"k  c #3F3124",
"l  c #3E3023",
"z  c #4D391E",
"x  c #402F20",
"c  c #413020",
"v  c #403021",
"b  c #403124",
"n  c #413224",
"m  c #423225",
"M  c #423325",
"N  c #433325",
"B  c #433326",
"V  c #443425",
"C  c #443426",
"Z  c #453426",
"A  c #453526",
"S  c #463526",
"D  c #463527",
"F  c #473527",
"G  c #473627",
"H  c #433325",
"J  c #483524",
"K  c #493726",
"L  c #483727",
"P  c #4A3726",
"I  c #4B3726",
"U  c #483727",
"Y  c #493728",
"T  c #493828",
"R  c #4A3828",
"E  c #4A3829",
"W  c #4B3829",
"Q  c #4B3929",
"!  c #4C3929",
"~  c #4C3A29",
"^  c #4D3A29",
"/  c #4D3A2A",
"(  c #4E3B2A",
")  c #4F3B2A",
"_  c #4F3C2A",
"`  c #4F3C2B",
"'  c #4C3A29",
"]  c #513D2A",
"[  c #503C2B",
"{  c #513D2B",
"}  c #553E2A",
"|  c #523D2C",
" . c #523E2C",
".. c #533E2C",
"X. c #533F2C",
"o. c #543F2D",
"O. c #523E2C",
"+. c #55402D",
"@. c #55402C",
"#. c #56412D",
"$. c #57402C",
"%. c #57412E",
"&. c #56412E",
"*. c #56402D",
"=. c #59422D",
"-. c #58422E",
";. c #59432F",
":. c #5A432F",
">. c #5A432E",
",. c #5A442F",
"<. c #5B442F",
"1. c #5C442F",
"2. c #59432F",
"3. c #5B4430",
"4. c #5C4430",
"5. c #5C4530",
"6. c #5D4530",
"7. c #5D4630",
"8. c #5E4631",
"9. c #5F4731",
"0. c #5F4631",
"q. c #5D4530",
"w. c #664F29",
"e. c #6F5420",
"r. c #715520",
"t. c #604731",
"y. c #604732",
"u. c #604732",
"i. c #604831",
"p. c #604832",
"a. c #614832",
"s. c #624932",
"d. c #634933",
"f. c #624933",
"g. c #634A33",
"h. c #644A33",
"j. c #644B33",
"k. c #654B34",
"l. c #664B34",
"z. c #664C34",
"x. c #674C34",
"c. c #674D35",
"v. c #654A33",
"b. c #684D35",
"n. c #684D36",
"m. c #926B1E",
"M. c #B27C0F",
"N. c #816123",
"B. c #886724",
"V. c #9C7422",
"C. c #9F7C33",
"Z. c #BD830D",
"A. c #D3AC5A",
"S. c #D9B15E",
/* pixels */
"s s k k B B B B s s s s s s s s s s s s k k s s s s s s s s s s s s s s s s h h h h h h h h h h B B B B B B B B k k h h h h k k k k k k B B B k k k k k B B B B ",
"s s k k B B B B s s p p s s s s s s s s k k s s s s p s s s s s s s s s s s h h h h h h h h h h B B B B k k B B k k h h h h k k k k k k B B B B k k k k B B B B ",
"x.x.b.b.b.b.b.b.b.x.x.x.b.b.x.x.<.<.] ] ! ! B B B B R R &.&.&.&.-.-.-.-.-.-.<.<.9.9.y.y.s.h.x.x.x.x.b.b.x.x.x.x.b.b.x.x.b.b.b.b.b.b.b.b.b.b.b.b.b.b.b.b.b.b.b.b.",
"x.x.b.b.b.b.b.b.b.b.x.x.b.b.x.x.<.<.] ] ! ! B B B B R R &.&.&.&.-.-.-.-.-.-.<.<.9.9.y.y.s.h.x.x.x.x.b.b.x.x.x.x.b.b.x.x.b.b.b.b.b.b.b.b.b.b.b.b.b.x.b.b.b.b.b.b.",
"b.b.k.k.h.h.s.s.1.1.I I 9.9.s.s.s.s.9.9.9.9.V V s s V V <.<.y.y.s.s.3.3.X.X.X.X.] ] ! ! &.&.9.9.9.9.s.s.x.x.x.x.b.b.b.b.b.b.x.x.h.h.h.h.k.k.h.h.h.h.h.h.s.s.b.b.",
"b.b.k.k.h.h.s.s.1.1.I I 9.9.s.s.s.s.9.9.9.9.V V s s V C <.<.y.y.s.s.3.3.X.X.X.X.] ] ! ! &.&.9.9.9.9.s.s.x.x.x.x.b.x.b.b.b.b.x.x.h.h.h.h.k.k.h.h.h.h.h.h.h.h.b.b.",
"h h s s s s B B 3 3 > > V V ! ! ] ] -.-.-.-.V V p p ] _ -.-.1 1 - - = = - - < < 1 1 < < - - * * - - -.-.9.9.9.9.9.9.-.-.-.-.! ! B B V V V V V V V V V V Y I b.b.",
"h h s s s s B B 3 3 > > V V ! ! ] ] -.-.3.-.V V p p ] _ -.-.1 1 - - = = - - < < 1 1 < < - - * * - - -.-.9.9.9.9.3.9.-.-.-.-.! ! B B V V V V V V V V V V Y Y b.b.",
"V V V V _ _ b.x.< < * * } } b.b.b.b.b.b.h.h.V V s s 2 2 ; ; 1 1 1 1 > > ; ; ; ; - - * = # # # # * * & & ; ; R R R R R R R R R R ! ! ! ! X.X.9.9.9.9.s.s.k.k.b.b.",
"V V V V _ _ b.x.< < * * } } b.b.b.b.b.b.h.h.V V s s 2 2 ; ; 1 1 1 1 > > ; ; ; ; - - = = # # # # * = & & ; ; R R R R R R R R R R ! ! ! ! X.X.9.9.9.9.s.s.k.k.b.b.",
"&.&.X.X.-.-.9.9.- - * * I I s.s.s.s.s.s.&.&.B B 1 1 - - * * # # . .                                 & & * * = = s.s.x.x.b.b.b.b.b.b.b.b.b.b.b.b.b.b.b.b.b.b.b.b.",
"&.&.X.X.-.-.9.9.- - * * I I s.s.s.s.s.s.&.&.B B 1 1 - - * * # # . .                                 * * * * = = s.s.x.x.b.b.b.b.b.b.b.b.b.b.b.b.b.b.b.b.b.b.b.b.",
"s.s.-.-.o.o.] ] * * - - 3 3 &.&.&.&.<.<.X.X.> > ; ; * * . .                                             & & * * = = k.k.b.b.b.b.b.b.b.b.b.b.b.b.b.b.b.b.b.b.b.b.",
"s.s.-.-.o.o.] ] * * - - 3 3 &.&.&.&.<.<.X.] > > ; ; * * . .                                             & & * * = = k.k.b.b.b.b.b.b.b.b.b.b.b.b.b.b.b.b.b.b.b.b.",
"! ! I I I I c c - - ; ; c c x.x.b.b.b.b., , < < * *                                                         * * ; ; 1 1 9.9.9.9.9.9.s.s.s.s.s.s.h.h.h.h.h.h.k.k.",
"! ! I I I I c c - - ; ; c c x.x.b.b.b.b., , < < * *                                                         * * ; ; 1 1 9.9.9.9.9.9.s.s.s.s.s.s.h.h.h.h.h.h.k.k.",
"b.b.h.h.h.h.2 2 - - ; ; 3 3 s.s.s.s., , 1 1 - -                                                                 - - 1 1 3 3 ! ! ! ! _ _ _ _ _ _ ] ] ! ! ! ! s.h.",
"b.b.h.h.h.h.2 2 - - ; ; 3 3 s.s.s.s., , 1 1 - -                                                                 - - 1 1 3 3 ! ! ! ! _ _ _ _ _ _ ] ] ! ! ! ! h.h.",
"<.<.&.&.-.-.< < ; ; ; ; 2 2 <.<.s s 2 2 > >                                                                     . . > > 3 3 ! ! o.o.X.X.o.o.&.&.&.&.X.X.X.X.s.s.",
"<.<.&.&.-.-.< < ; ; ; ; 2 2 <.<.s s 2 2 > >                                                                     . . > > 3 3 ! ! o.X.X.X.o.o.&.&.&.&.X.X.X.X.s.s.",
"h.h.<.<.&.&.> > > > ; ; 1 1 9.9.1 1 1 1 . .                                                                         @ @ 3 3 1 1 x.x.b.b.b.b.b.b.b.b.b.b.b.b.9.9.",
"h.h.<.<.&.&.> > > > ; ; 1 1 9.9.1 1 1 1 . .                                                                         @ @ 3 3 1 1 x.x.b.b.b.b.b.b.b.b.b.b.b.b.9.9.",
"b.b.b.b.-.-.> > 1 1 < < 1 1 > > 1 1 @ @                                 . . . .         . .                             ; ; 3 3 I I b.b.b.b.b.b.b.b.b.b.b.b.9.9.",
"b.b.b.b.-.-.> > 1 1 < < 1 1 > > 1 1 @ @                                 . . . .         . .   .                         ; ; 3 3 I I b.b.b.b.b.b.b.b.b.b.b.b.9.9.",
"s.s.s.s.I I 1 1 3 3 1 1 ; ; 1 1 - -                         . . . . . . . . . . . . . . . . . . . . . . . .             . . 3 3 1 1 -.-.&.&.9.9.9.9.-.-.X.X.V V ",
"s.s.s.s.I I 1 1 3 3 1 1 ; ; 1 1 - -                         . . . . . . . . . . . . . . . . . . . . . . . .             . . 3 3 1 1 -.-.&.&.9.9.9.9.-.-.X.X.V V ",
"s s s s 1 1 < < 3 3 < < ; ; 1 1 + +                     . . . . . o o o o o o o o o o o o o o o o o . . . . . .             # # 3 3 1 1 h h h h s s s s s s s s ",
"s s s s 1 1 < < 3 3 < < ; ; 1 1 + +                     . . . . . o o o o o o o o o o o o o o o o o . . . . . .             # # 3 3 1 1 h h h h s s s s s s s s ",
"I I V V 1 1 1 1 3 3 < < > > - -                 . . . o o o o o o o o o $ $ $ $ $ $ $ $ $ $ o o o o o o . . . . . .             1 1 1 1 9.9.9.9.s.s.s.s.B B h h ",
"I I V V 1 1 1 1 3 3 < < > > - -                 . . . . o o o o o o o o $ $ $ $ $ $ $ $ $ $ o o o o o o . . . . . .             1 1 1 1 9.9.9.9.s.s.s.s.B B h h ",
"V V V V 1 1 1 1 s s > > * * # #             . . . . o o o o $ $ $ $ $ $ $ $ $ $ $ $ $ $ $ $ $ $ $ $ $ o o o o o o o             + + 3 3 I I b.b.b.b.b.b.] ] s s ",
"V V V V 1 1 1 1 s s > > * * # #             . . . . o o o o $ $ $ $ $ $ $ $ $ $ $ $ $ $ $ $ $ $ $ $ o $ o o o o o o             + + 3 3 I I b.b.b.b.b.b.] ] s s ",
"B B V V 1 1 2 2 h c > > = = + +         . . . . o o o o $ $ $ $ $ $ $ $ % % % % % % % % $ $ $ $ $ $ $ $ $ $ o o . . . . . .     . . ; ; 1 1 -.-.&.&.X.X.I I s s ",
"B B V V 1 1 2 2 s c > > = = + +         . . . . o o o o $ $ $ $ $ $ $ $ % % % % % % % % $ $ $ $ $ $ $ $ $ $ o o . . . . . .     . . ; ; 1 1 -.-.&.&.X.X.I I s s ",
"&.&.-.-.< < 2 2 s s ; ; * * X X     . . . . o o o o $ $ $ $ $ $ % % % % % % % % % % % % % % % % $ % $ $ $ $ $ $ o o . o . . . .     # # > > ! ! B B h h s s s s ",
"&.&.-.-.< < 2 2 s s ; ; * * X X     . . . . o o o o $ $ $ $ $ $ % % % % % % % % % % % % % % % % $ % $ $ $ $ $ $ o o . . . .   .     # # > > ! ! B B h h s s s s ",
"&.&.&.&.< < 3 3 s s ; ; = = . .     . . . . o o $ $ $ $ % % % % % % % % % % 5 5 5 5 5 5 % % % % % % % % $ $ $ $ $ $ o o . . . .     # # ; ; 2 2 V V ] ] ! R s s ",
"&.&.&.&.< < 3 3 s s ; ; = = . .     . . . . o o $ $ $ $ % % % % % % % % % % 5 5 5 5 5 5 % % % % % % % % $ $ $ $ $ $ o o . . . .     # # ; ; 2 2 V V ] ] R R s s ",
"B B h h > > 2 2 x x ; ; = =     . . . . o o $ $ $ $ $ $ % % % % 5 5 5 5 5 5 6 6 6 6 6 5 5 5 5 5 % % % % % % $ $ $ $ $ $ o o . .     X X ; ; , , b.b.x.x.s.s.s s ",
"B B h h > > 2 2 x x ; ; = =     . . . . o o $ $ $ $ % % % % % % 5 5 5 5 5 5 6 6 6 6 6 5 5 5 5 5 % % % % % % $ $ $ $ $ $ o o . .     X X ; ; , , b.b.x.x.s.s.s s ",
"s s s s - - 2 2 3 3 ; ; & &     . . o o o o $ $ $ $ % % % % % % 5 5 6 6 6 6 6 6 6 6 6 6 6 6 6 5 5 5 % % % % $ % $ $ o o o o . . . .     - - > > k.k.x.x.s.s.s s ",
"s s s s - - 2 2 3 3 ; ; & &     . . o o o o $ $ $ $ % % % % % % 5 5 6 6 6 6 6 6 6 6 6 6 6 6 6 5 5 5 % % % % $ % $ $ o o o o . . . .     - - > > k.k.x.x.s.s.s s ",
"B B V V > > 1 1 3 3 ; ; # #     . . o o o o $ $ $ $ % % % % 5 5 6 6 6 6 e e e e e e e e e e 6 6 5 5 % % % % % % $ $ $ $ o o . . . .     * * ; ; R R ! ! I I s s ",
"B B V V > > 1 1 3 3 ; ; # #     . . o o o o $ $ $ $ % % % % 5 5 6 6 6 6 e e e e e e e e e e 6 6 5 5 % % % % % % $ $ $ $ o o . . . .     * * ; ; R R ! ! I I p p ",
"B B p p 3 3 > > 1 1 - - # # . . . . o o $ $ $ $ % $ % % % % 5 5 6 6 e e e e r r r r r r e e 6 6 6 6 5 5 % % % % $ $ $ $ o o o o . .     # # - - s s R R R R p p ",
"B B p p 3 3 > > 1 1 - - # # . . . . o o $ $ $ $ % % % % % % 5 5 6 6 e e e e r r r r r r e e 6 6 6 6 5 5 % % % % $ $ $ $ o o o o . .     # # - - s s R R R R p p ",
"k k w.w.C.C.< < > > - - # # . . . . o o $ $ $ $ % % % % 5 5 6 6 6 6 e e e e r r r r r r r r e e 6 6 5 5 % % % % $ $ $ $ o o o o . .     @ @ * * 3 3 x.x.] ] B B ",
"k k w.w.C.C.< < > > - - # # . . . . o . $ $ $ $ % % % % 5 5 6 6 6 6 e e e e r r r r r r r r e e 6 6 5 5 % % % % $ $ $ $ o o o o . .     @ @ * * 3 3 x.x.] ] B B ",
"&.&.A.A.S.S.r.r.- - - - # # . . . . o o $ $ $ $ % % % % 5 5 6 6 6 6 e e e e r r r r r r e e e e 6 6 5 5 % % % % $ $ $ $ $ $ . . . .     @ @ * * > > k.k.! ! B B ",
"&.&.A.A.S.S.r.r.- - - - # # . . o o o o $ $ $ $ % % % % 5 5 6 6 6 6 e e e e r r r r r r e e e e 6 6 5 5 % % % % $ $ $ $ $ $ . . . .     @ @ = - > > k.k.! ! B B ",
"3.3.V.V.Z.Z.N.N.- - * * @ @     o o o o $ $ $ $ % % % % % % 5 5 6 6 e e e e r r r r e e e e e e 6 6 5 5 % % % % $ $ $ $ o o . . . .     + + = = - - h.h.! ! B B ",
"3.3.V.V.Z.Z.N.N.- - * * @ @     o o o o $ $ $ $ $ % % % % % 5 5 6 6 e e e e r r r r e e e e e e 6 6 5 5 % % % % $ $ $ $ o o . . . .     + + = = - - h.h.! ! B B ",
"&.&.m.m.M.M.e.e.* * - - @ #     . . o o o o $ $ $ $ % % 5 5 5 5 6 6 e e e e e e e r e e e e 6 6 6 6 5 5 % % % % $ $ $ $ o o o o . .     + + ; ; - - -.-.] ] s s ",
"&.&.m.m.M.M.e.e.* - - - @ @     . . o o o o $ $ $ $ % % % 5 5 5 6 6 e e e e e e r r e e e e 6 6 6 6 5 5 % % % % $ $ $ $ o o o o . .     + + ; ; - - -.-.] ] s s ",
"h h z z B.B.< < * * - = # #     . . . . o o $ $ $ $ % % % % 5 5 5 5 6 6 6 6 e e e e e e 6 6 6 6 5 5 % % % % % $ $ $ $ $ o o o o . .     + + 1 1 - - s s s s s s ",
"h h z z B.B.< < * * - - # #     . . . . o o $ $ $ $ % % % % 5 5 5 5 6 6 6 6 e e e e e e 6 6 6 6 5 5 % % % % % $ $ $ $ $ o o . . . .     + + 1 1 - - s s s s s s ",
"! ! 3 3 < < ; ; ; ; - - # #     . . o o o o $ $ $ $ $ $ % % % % 5 5 5 5 6 6 6 6 6 6 6 6 5 5 5 5 % % % % % % $ $ $ $ o o o o . .         + + 2 2 ; ; V V V V V V ",
"! ! 3 3 < < ; ; ; ; - - # #     . . o o o o $ $ $ $ $ $ % % % % 5 5 5 5 6 6 6 6 6 6 6 6 6 6 5 5 % % % % % % $ $ $ $ o o o o . .         + + 2 2 ; ; V V V V V V ",
"s.s.c c # # # # 1 1 > > # #     . . . . o o $ o $ $ $ $ $ % % % % % 5 5 5 5 5 5 5 5 5 5 5 5 % % % % % % $ $ $ $ $ $ o o . . . .         + + 3 3 ; ; 9.9.9.9.9.9.",
"s.s.c c # # & & 1 1 > > # #     . . . . o o o o $ $ $ $ % % % % % % 5 5 5 5 5 5 5 5 5 5 5 5 % % % % % % $ $ $ $ $ $ o o . . . .         + + 3 3 ; ; 9.9.9.9.9.9.",
"h.h.c c + + # & 2 2 > > # #         . . . . o o $ $ $ $ $ $ % % % % % % % % % % % % % % % % % % % % $ $ $ $ $ $ o o o o . . . .         O O 3 3 ; ; y.y.h.h.b.b.",
"h.h.c c + + & & 2 2 > > # #         . . . . o o $ $ $ $ $ $ % % % % % % % % % % % % % % % % % % % % $ $ $ $ $ $ o o o o . . . .         O O 3 3 ; ; y.y.h.h.b.b.",
"s s 1 1 # # # # 2 2 > > # #         . . . . . . o o $ $ $ $ $ $ $ $ % % % % % % % % % % % % $ % $ $ $ $ $ $ o o o o o . . .             X X 3 3 > > &.&.b.b.9.9.",
"s s 1 1 # # # # 2 2 > > # #         . . . . . . o o o o $ $ $ $ $ $ % % % % % % % % % % % % $ $ $ $ $ $ $ $ o o o o o o . .             X X 3 3 > > &.&.b.b.9.9.",
"I I 3 2 > > # # 2 2 < < & &             . . . . o o o o o $ $ $ $ $ $ $ $ $ $ $ $ $ $ $ $ $ $ $ $ $ $ $ o o o o . . . .                 O O 3 3 ; ; V V o.o.R R ",
"I I 3 3 > > # # 2 2 < < & &                 . . o o o o o o $ $ $ $ $ $ $ $ $ $ $ $ $ $ $ $ $ $ $ $ $ $ o o o o . . . .                 O O 3 3 ; ; V V o.o.R R ",
"b.b.&.&.< < # # 1 1 < < & &                     . . o o o o o o $ $ $ $ $ $ $ $ $ $ $ $ $ $ $ $ o o o o o o . . . .                     + + 3 3 > > V V s.s.k.k.",
"b.b.&.&.< < # # 1 1 < < & &                     . . o o o o o o $ $ $ $ $ $ $ $ $ $ $ $ $ $ $ $ o o o o o o . . . .                     + + 3 3 > > V V s.s.k.k.",
"x.x.y.y.> > # # 1 1 1 1 # #                     . . . . . . . . o o o o o o o o $ $ o o o o o o o o . . . . . .                         + + 3 3 ; ; Y I b.b.h.h.",
"x.x.y.y.> > # # 1 1 1 1 # #                     . . . . . . o o o o o o o o + o o $ o o o o o o o o . . . . . .                         + + 3 3 ; ; Y I b.b.h.h.",
"B B s s - - # # ; ; > > # #                         . . . . . . . . . . o o o . . . . . o o o . . . . . . .                             # # 2 2 > > I I V V V V ",
"B B s s - - # # ; ; > > # #                         . . . . . . . . . . o o o o . . . . o o o . . . . . . .                             # # 2 2 > > I Y V V V V ",
"x.x.9.9.: : & & * * - - & & @ @ X X . . . . . . o o + + + + + + o o o o o o o o o o + + + + + + + + + + + + o o X X @ @ = = # # > ; 3 3 1 1 ; ; - - R R V V ] ] ",
"x.x.9.9.: : & & * * - - & & @ @ X X . . . . . . o o + + + + + + o + o o o o o o o o + + + + + + + + + + + + o o X X @ @ = = # # > > 3 3 1 1 ; ; - - R R V V ] ] ",
"Y Y B B - - - - # # - - * * - - ; ; ; ; ; ; - - = = * * * * * * = = = = - - - - ; ; > > > > > > > > > > ; ; 1 1 3 3 3 3 3 3 3 3 1 1 ; ; & & - - , , ! ! k.k.b.b.",
"Y Y B B - - - - # # - - * * - - ; ; ; ; ; ; - - = = * * * * * * = = = = - - - - ; ; > > > > > > > > > > ; ; 1 1 3 3 3 3 3 3 3 3 1 1 ; ; & & - - , , ! ! k.k.b.b.",
"B B s s 1 1 - - - - ; ; - - - - > > - - - - * * & & - - ; ; ; ; ; ; > > ; ; ; ; - - - - - - - - - - - - - - - - - - ; ; ; ; ; ; , , 1 1 1 1 , , B B X.X.o.o.3.3.",
"B B s s 1 1 - - - - ; ; - - - - > > - - - - * * & & - - ; ; ; ; ; ; > > ; ; ; ; - - - - - - - - - - - - = - - - - - ; ; ; ; ; ; , , 1 1 1 1 , , B B X.X.o.o.3.3.",
"-.-.s.s.k.k.b.b.b.b.b.b.b.b.b.b.b.b.b.b.b.b.b.b.b.b.b.b.b.b.b.b.b.b.b.b.n.n.b.b.b.b.b.b.b.b.y.y.k h s s 9.9.9.9.9.9.9.9.9.9.3.3.<.<.-.-.-.3.3.3.-.-.-.&.<.<.9.9.",
"-.-.s.s.k.k.b.b.b.b.b.b.b.b.b.b.b.b.b.b.b.b.b.b.b.b.b.b.b.b.b.b.b.b.b.b.b.n.b.b.b.b.b.b.b.b.y.y.k k s s 9.9.9.9.9.9.9.9.9.9.3.3.<.<.-.-.-.-.3.3.-.-.-.-.<.<.9.9."
};
