/* XPM */
static const char *door_o[] = {
/* columns rows colors chars-per-pixel */
"40 40 71 1 ",
"  c #030303",
". c #090705",
"X c #0C0906",
"o c #0B0B0B",
"O c #100B07",
"+ c #120E09",
"@ c #16100A",
"# c #1D150D",
"$ c #131313",
"% c #1B1B1B",
"& c #21170E",
"* c #22190F",
"= c #201710",
"- c #251B12",
"; c #2A1E14",
": c #251D18",
"> c #2D2115",
", c #2D2319",
"< c #312417",
"1 c #332619",
"2 c #36281B",
"3 c #3B2B1E",
"4 c #202020",
"5 c gray14",
"6 c #282828",
"7 c gray16",
"8 c #2A2A2A",
"9 c #3B2E22",
"0 c #3C2F23",
"q c #3D2F23",
"w c #3F3023",
"e c #3F3124",
"r c #4D391E",
"t c #402F20",
"y c #413020",
"u c #433326",
"i c #443425",
"p c #473627",
"a c #4B3726",
"s c #493728",
"d c #4B3929",
"f c #4C3929",
"g c #4F3C2A",
"h c #513D2A",
"j c #553E2A",
"k c #533F2C",
"l c #543F2D",
"z c #56412E",
"x c #58422E",
"c c #5B442F",
"v c #5C442F",
"b c #5B4430",
"n c #5F4731",
"m c #664F29",
"M c #6F5420",
"N c #715520",
"B c #604732",
"V c #624932",
"C c #644A33",
"Z c #654B34",
"A c #674C34",
"S c #684D35",
"D c #926B1E",
"F c #B27C0F",
"G c #816123",
"H c #886724",
"J c #9C7422",
"K c #9F7C33",
"L c #BD830D",
"P c #D3AC5A",
"I c #D9B15E",
/* pixels */
"qeuuqqqqqqeqqqqqqqqwqqqwuuuuewweeeuueeuu",
"ASSSSASAchfuudzzxxxcvnCAASSSSSSSSSSSSSSS",
"SZCVvanVVnniqicBVbkkhfznnVAAASSACCZCCCVS",
"wqqu3>ifhzxi9hx1-=-<<>-*-xnnbxxfuiiiiiiS",
"iigS<*jSSSCiq1;11>;;-*#&*&;dddddffknnVZS",
"zkxn-*aVVVzu,**#X       .&*-VASSSSSSSSSS",
"Vxlh*-3zzck>;*.           &*=ZSSSSSSSSSS",
"faay-;yASS,<*              *;1nnnVVVCCCZ",
"SCC2-;3VV,1-                -23ffggghffC",
"czx<;;2cq2>                 .>2flklzzkkV",
"Ccz>>;1n11.                  +21ASSSSSSn",
"SSx>1<1>1@          ..    .   ;3aSSSSSSn",
"VVa131;1-      ...........    .31xznnxki",
"qq1<31;1+     ...oooooo.o..    #31wwqqqq",
"ai113<>-    ..ooo$$$$$$$oo...  .11nnVVuw",
"ii11q>*#   ..oo$$$$$$$$$$$o..   +3aSSShq",
"ui12q>=+  ..oo$$$%%%%%$$$$$o..  .;1xzkaq",
"zx<2q;*X ..oo$$$%%%%%%%%$$$$o..  #>fuwqq",
"zz<3q;*  ..o$$$%%%%444%%%%$$$o.  #;2ihdq",
"uw>2t;* ..o$$$%%%4455544%%%$$$.. X;,SAVq",
"qq-2q;& .oo$$%%%455755544%%%$$o.  ->ZAVq",
"ui>13;#..o$$$%%4557777754%%%$$o.  *;dfaq",
"u93>1-#..o$$$%%45777777754%%$$oo. @-qddq",
"emK<>-#..o$$%%445777777754%%$$oo. @*3Ahu",
"zPIN--@..o$$%%455777777754%%$$$.. +*>Zfu",
"bJLG-*@ .o$$%%%45777777754%%$$oo. +*-Cfu",
"zDFM**@ .o$$%%445777777544%%$$o.. +;-bkq",
"wrH<**# .oo$$%%4455777554%%$$$o.  +1-qqq",
"f3<;;-# ..o$$$%%445555444%%$$oo.  +2;iii",
"Vy@#1># ..o$$$%%%444444%%%$$$o..  +3;nnn",
"Cy+#2>#  ..oo$$%%%%%%%%%%$$$o...  O3;BCS",
"q1##2>#   ..o$$$$%%%%%%$$$$oo..   X3>zSn",
"a3>#2<&    ..oo$$$$$$$$$$$oo..    O3;ild",
"Sz<#1<&     ..oo$$$$$$$$$oo..     +3>iVZ",
"An>#11#     ...ooooo$oooo...      +3;aSC",
"uq-#;>#      .....o.o.....       .#2>aii",
"An:&*-&@X...X@++XXXoX++++++oX@=#>31;-dih",
"su--#-*-;;;-=*===*--;>>>>>;133331>&=,fZS",
"uq1--;-->--*&-;;;>;;---------;;;,11,uklb",
"xVZSSSSSSSSSSSSSSSSSSSSBeennnnnbcxxxxxcn"
};
