/* XPM */
static const char *door_c[] = {
/* columns rows colors chars-per-pixel */
"80 80 170 2 ",
"   c #010101",
".  c #110C08",
"X  c #1E150C",
"o  c #21170D",
"O  c #23190F",
"+  c #251B12",
"@  c #291E14",
"#  c #261E18",
"$  c #2C2116",
"%  c #2E2319",
"&  c #322416",
"*  c #3F2E16",
"=  c #32261A",
"-  c #36281C",
";  c #3B2C1E",
":  c #372B20",
">  c #3D2E22",
",  c #3F3023",
"<  c #402F1E",
"1  c #493516",
"2  c #41311F",
"3  c #4D391E",
"4  c #513B1A",
"5  c #412F20",
"6  c #473525",
"7  c #463524",
"8  c #473625",
"9  c #443426",
"0  c #453426",
"q  c #453526",
"w  c #463526",
"e  c #463527",
"r  c #473526",
"t  c #473627",
"y  c #433224",
"u  c #483525",
"i  c #493625",
"p  c #4A3725",
"a  c #483626",
"s  c #493626",
"d  c #493726",
"f  c #483727",
"g  c #483627",
"h  c #4A3726",
"j  c #4B3726",
"k  c #493626",
"l  c #4A3827",
"z  c #4B3827",
"x  c #4C3927",
"c  c #4E3A27",
"v  c #4C3827",
"b  c #493728",
"n  c #493728",
"m  c #4A3828",
"M  c #4B3929",
"N  c #4B3829",
"B  c #4D3928",
"V  c #4C3929",
"C  c #4C3928",
"Z  c #4C3A29",
"A  c #4D3A29",
"S  c #4E3A28",
"D  c #4F3B28",
"F  c #4F3B29",
"G  c #4D3A2A",
"H  c #4E3B2A",
"J  c #4F3B2A",
"K  c #4F3C2A",
"L  c #4F3C2B",
"P  c #4D3A29",
"I  c #513C26",
"U  c #503B29",
"Y  c #503B2A",
"T  c #513C28",
"R  c #503C2A",
"E  c #503C2B",
"W  c #513D2B",
"Q  c #513C2A",
"!  c #523D2A",
"~  c #523D2B",
"^  c #523C2A",
"/  c #533E2B",
"(  c #533E2A",
")  c #543E2B",
"_  c #523D2C",
"`  c #523E2C",
"'  c #533E2C",
"]  c #533F2C",
"[  c #553F2C",
"{  c #543F2D",
"}  c #543F2C",
"|  c #563F2C",
" . c #533E2B",
".. c #604515",
"X. c #674A11",
"o. c #6C4E12",
"O. c #654A1A",
"+. c #7D5910",
"@. c #55402D",
"#. c #56402C",
"$. c #57402C",
"%. c #56402D",
"&. c #56412D",
"*. c #57412D",
"=. c #57412E",
"-. c #56412E",
";. c #56402D",
":. c #58412D",
">. c #59422D",
",. c #58412E",
"<. c #58422E",
"1. c #59422E",
"2. c #59432F",
"3. c #5A432E",
"4. c #5A432F",
"5. c #5B432E",
"6. c #5A442F",
"7. c #5B442F",
"8. c #5C442F",
"9. c #5D452F",
"0. c #5A432E",
"q. c #5B4430",
"w. c #5C4430",
"e. c #5C4530",
"r. c #5D4530",
"t. c #5E4530",
"y. c #5D4630",
"u. c #5E4630",
"i. c #5E4631",
"p. c #5F4631",
"a. c #5F4731",
"s. c #5F4630",
"d. c #5E4630",
"f. c #604731",
"g. c #604732",
"h. c #604731",
"j. c #604831",
"k. c #604832",
"l. c #614832",
"z. c #624832",
"x. c #624932",
"c. c #634932",
"v. c #624933",
"b. c #634933",
"n. c #634A33",
"m. c #644A33",
"M. c #644B33",
"N. c #654B34",
"B. c #664B34",
"V. c #664C34",
"C. c #674C34",
"Z. c #674D35",
"A. c #674C35",
"S. c #644A33",
"D. c #684D35",
"F. c #684D35",
"G. c #7B6039",
"H. c #86621A",
"J. c #916B1F",
"K. c #946E21",
"L. c #9C7527",
"P. c #92712C",
"I. c #9D782B",
"U. c #A77C25",
"Y. c #BE8207",
"T. c #B2852B",
"R. c #B6892D",
"E. c #B88A2D",
"W. c #D3AB5C",
"Q. c #DEB662",
/* pixels */
"> > , , 9 9 9 9 > > > > > > > > > > > > , , > > > > > > > > > > > > > > > > , , , , , , , , , , 9 9 9 9 9 9 9 9 , , , , , , , , , , , , 9 9 , , , , , , 9 9 9 9 ",
"> > , , 9 9 9 9 > > > > > > > > > > > > , , > > > > > > > > > > > > > > > > , , , , , , , , , , 9 9 9 9 , , 9 9 , , , , , , , , , , , , 9 9 9 9 , , , , 9 9 9 9 ",
"C.C.D.D.D.D.D.D.D.C.C.C.D.D.C.C.7.7.E E V V 9 9 9 9 m m =.=.=.=.<.<.<.<.<.<.7.7.a.a.g.g.m.m.C.C.C.C.D.D.C.C.C.C.D.C.C.C.D.D.D.D.D.D.D.C.D.D.D.D.D.D.D.D.D.D.D.D.",
"C.C.D.D.D.D.D.D.C.C.C.C.D.D.C.C.7.7.E E V V 9 9 9 9 m m =.=.=.=.<.<.<.<.<.<.7.7.a.a.g.g.m.m.C.C.C.C.C.D.C.C.C.C.D.D.C.C.D.D.D.D.D.D.D.C.D.D.D.D.D.D.D.D.D.D.D.D.",
"D.D.N.N.m.m.x.x.g.g.a.a.a.a.x.x.x.x.a.a.a.a.e e > > e e 7.7.g.g.x.x.q.q.] ] ] ] E E V V =.=.a.a.a.a.x.x.C.C.C.C.D.D.D.D.D.D.C.C.m.m.x.x.N.N.m.m.m.m.m.m.x.x.D.D.",
"D.D.N.N.m.m.x.x.g.g.a.a.a.a.x.x.x.x.a.a.a.a.e e > > e 9 7.7.g.g.x.x.q.q.] ] ] ] E E V V =.=.a.a.a.a.x.x.C.C.C.C.D.C.D.D.D.D.C.C.m.m.x.x.N.N.m.m.m.m.m.m.x.x.D.D.",
", , > > > > 9 9 e e e e f f V V E E =.=.<.<.e e > > E K <.<.= = # # + + # # o o X X o o X X X X $ $ <.<.a.a.a.a.a.a.<.<.<.<.V V 9 9 e e e e e e e e e e e e D.D.",
", , > > > > 9 9 e e e e f f V V E E =.=.<.<.e e > > K K <.<.= = # # + + # # o o X X o o X X X X $ $ <.<.a.a.a.a.q.a.<.<.<.<.V V 9 9 e e e e e e e e e e e e D.D.",
"e e e e K K D.D.D.D.D.D.D.D.D.D.D.D.D.D.m.m.e e > > - - + + o o # # $ $ - - ; ; O O ; ; $ $ o o X X X X % % m m m m m m m m m m V V V V ] ] a.a.a.a.x.x.N.N.D.D.",
"e e e e K K D.D.D.D.D.D.D.D.D.D.D.D.D.D.m.m.e e > > - - + + o o # # $ $ - - ; ; O O ; ; $ $ o o X X X X % % m m m m m m m m m m V V V V ] ] a.a.a.a.x.x.N.N.D.D.",
"=.=.] ] <.<.a.a.g.g.x.x.x.x.x.x.x.x.x.x.=.=.9 9 % % o o O O = = f f > > y 7 ( ( + + m.m.g.g.a.a.; ; O O X X + + x.x.C.C.D.D.D.D.D.D.D.D.D.D.D.D.D.D.D.D.D.D.D.D.",
"=.=.] ] <.<.a.a.g.g.x.x.x.x.x.x.x.x.x.x.=.=.9 9 % % o o o O = = f f > > y y ( ( + @ m.m.g.g.a.a.; ; O O X X + + x.x.C.C.D.D.D.D.D.D.D.D.D.D.D.D.D.D.D.D.D.D.D.D.",
"x.x.<.<.{ { =.=.<.<.<.<.=.=.=.=.=.=.7.7.] ] $ $ + + + + ; ; U U 7 7 ; ; y y V x $ $ m.m.a.a.x.x.V V E E + + O O + + N.N.D.D.D.D.D.D.D.D.D.D.D.D.D.D.D.D.D.D.D.D.",
"x.x.<.<.{ { =.=.<.<.<.<.=.=.=.=.=.=.7.7.] ] $ $ + + + + ; ; U U e 7 ; ; y y V V $ $ m.m.a.a.x.x.V V E E + + O O + + N.N.D.D.D.D.D.D.D.D.D.D.D.D.D.D.D.D.D.D.D.D.",
"V V f f f f E E x.x.m.m.N.N.C.C.D.D.D.D.$ $ O O + + + + 7 7 V V e e ; ; y y V V & & m.m.8.8.x.x.f f x.x.= = @ @ + + $ $ a.a.a.a.a.a.x.x.x.x.x.x.m.m.m.m.m.m.N.N.",
"V V f f f f E E x.x.m.m.N.N.C.C.C.C.D.D.$ $ O O + + + + 7 7 V V e e ; ; y y V V & & m.m.8.8.x.x.f f x.x.= = @ @ + + $ $ a.a.a.a.a.a.x.x.x.x.x.x.m.m.m.m.m.m.N.N.",
"D.D.m.m.m.m.m.m.m.m.m.m.m.m.x.x.x.x.% % X X $ $ @ @ + + U U f f f f ; ; y y E E - - x.x.8.8.x.x.7 7 x.x.- - % % ; ; + + - - V K V V K K K K K K E E V V V V x.m.",
"D.D.m.m.m.m.m.m.m.m.m.m.m.m.x.x.x.x.% % X X $ $ @ @ + + U U f f f e ; ; y y E E - - x.x.8.8.x.x.7 7 x.x.- - % % ; ; + + - - K K V V K K K K K K E E V V V V m.m.",
"7.7.=.=.<.<.<.<.7.7.7.7.q.q.7.7., , X X @ @ <.<.$ $ + + { { f f f f y y y y =.=.; ; x.x.8.8.x.x.y y <.<.y y % % x.x.+ + + + E E { { ] ] { { =.=.=.=.] ] ] ] x.x.",
"7.7.=.=.<.<.<.<.7.7.7.7.q.q.7.7., , X X @ @ <.<.$ $ + + { { f f f f y y y y =.=.; ; x.x.8.8.x.x.y y <.<.y y % % x.x.+ + + + V E { { ] ] { { =.=.=.=.] ] ] ] x.x.",
"m.m.7.7.=.=.=.=.=.=.<.<.x.x.a.a.o o + + E E m.m.$ $ + + 8.8.x x f f e e e e <.<.; ; x.x.8.8.x.x.y y <.<.f f $ $ x.x.<.<.+ + + + C.C.D.D.D.D.D.D.D.D.D.D.D.D.a.a.",
"m.m.7.7.=.=.=.=.=.=.<.<.x.x.a.a.o o + + E E m.m.$ $ + + 8.8.x x f f e e e e <.<.; ; x.x.8.8.x.x.y y <.<.f f $ $ x.x.<.<.+ + + + C.C.D.D.D.D.D.D.D.D.D.D.D.D.a.a.",
"D.D.D.D.D.D.D.D.C.D.D.D.C.C.+ + X X V V a.a.m.m.$ $ + + x.x.E E x x V V V V <.<.2 2 g.g.8.8.g.g.y y { { x V $ $ a.a.m.m.; ; + + y y D.D.D.D.D.D.D.D.D.D.D.D.a.a.",
"D.D.D.D.D.D.D.D.C.C.C.D.C.C.+ + X X V V a.a.m.m.$ $ + + x.x.E E x x V V V V <.<.y 2 g.g.8.8.g.g.y y { { x x $ $ a.a.m.m.; ; + + y y D.D.D.D.D.D.D.D.D.D.D.D.a.a.",
"x.x.x.x.x.x.x.x.x.x.x.x.> > X X $ $ 7.7.a.a.x.x.$ $ + + m.m.=.=.E E V V U U <.=.7 7 8.8.8.8.g.g.5 5 ( ( x x $ $ <.<.m.m.8.8.+ + + + <.<.=.=.a.a.a.a.<.<.] ] e e ",
"x.x.x.x.x.x.x.x.x.x.x.x.> > X X $ $ 8.8.a.a.x.x.$ $ + + m.m.=.=.E E V V U U =.=.7 7 8.8.8.8.g.g.5 5 ( E x x $ $ <.<.m.m.8.8.+ + + + <.<.=.=.a.a.a.a.<.<.] ] e e ",
"> > > > > > > > > > > > O O o o m m 8.8.a.a.g.g.$ $ + + m.m.7.7.<.<.m V U U { { ; ; <.<.8.8.a.a.y y E E f f @ @ =.=.m.m.<.<.7 7 + + $ $ , , , , > > > > > > > > ",
"> > > > > > > > > > > > O O o o m m 8.8.a.a.g.g.$ $ + + m.m.7.7.<.<.V V U U { { ; ; <.<.8.8.a.a.y y E E f f @ @ =.=.m.m.<.<.7 7 + + $ $ , , , , > > > > > > > > ",
"f f e e b b m m m m = = X X ; ; V V <.7.a.a.a.a.$ $ + + m.m.a.a.g.g.f f E E E E & & =.=.a.a.8.8.y y E E f f @ @ E E m.m.<.<.E E + + + + a.a.a.a.x.x.x.x.9 9 , , ",
"f f e e b b m m m m = = X X ; - V V <.<.a.a.a.a.$ $ + + m.m.a.a.g.g.f f E E E E & & =.=.a.a.8.8.y y E E f f @ @ E E m.m.<.<.E E + + + + a.a.a.a.x.x.x.x.9 9 , , ",
"e e e e e e e e 9 9 O O O O l l V V <.<.a.a.a.a.$ $ @ @ m.m.a.a.x.x.f f V V V V $ $ <.<.a.a.7.7.7 7 E E f f @ @ V V m.m.<.<.E E ; ; + + 7 7 D.D.D.D.D.D.E E > > ",
"e e e e e e e e 9 9 O O O O l l V V <.<.a.a.a.a.$ $ @ @ m.m.a.a.x.x.f f V V V V $ $ <.<.a.a.7.7.e 7 E E f f @ @ V V m.m.<.<.E E ; ; + + 7 7 D.D.D.D.D.D.E E > > ",
"9 9 e e e e e e > > o o $ $ l l E E <.<.8.8.a.a.$ $ $ $ m.m.g.g.x.x.f f l l f f $ $ =.=.g.g.<.<.f f E E f f @ @ V V m.m.=.=.E E l l + O + + 7.7.<.=.] ] f f > > ",
"9 9 e e e e e e > > o o $ $ l l E E <.<.8.8.a.a.$ $ $ $ m.m.g.g.x.x.f f l l f f $ $ =.=.g.g.<.<.f f E E f f @ @ V V m.m.=.=.E E l l + O + + 7.<.<.=.] ] f f > > ",
"=.=.a.a.D.D.D.D.$ $ O O - ; y y E E =.=.<.<.8.8.% % - - m.m.x.x.x.x.f f l l y y $ $ { { g.g.=.=.x l ( ( 7 7 + + l l m.m.=.=.E E f f % % + + V V 9 9 , , > > > > ",
"=.=.a.a.D.D.D.D.$ $ O O - - y y E E =.=.<.<.8.8.% % - - m.m.x.x.x.x.f f l l y y $ $ ( { g.g.=.=.x l ( ( 7 7 + + l l m.m.=.=.E E f f % % + + V V 9 9 , , > > > > ",
"=.=.a.a.D.C.g.g.+ + + + > > 9 y E E =.=.<.<.7.8.= = - - m.m.m.m.8.8.f f V V < < = = E E g.g.=.=.V V =.=.y y + + f f m.m.( ( { { e e K K + + - - e e E E m m > > ",
"=.=.a.a.D.D.g.g.+ + + + > > y y E E =.=.<.<.7.7.= = - - m.m.m.m.8.8.f e V V ; < = = E E g.g.=.=.V V =.=.y y + + f f m.m.( ( { { e e K K + + - - e e E E m m > > ",
"9 9 9 9 9 9 : : O O $ $ 7 7 e e { { =.=.<.<.<.<.- - ; ; m.m.m.m.E E f f E E ; ; - - E E g.g.{ { l l <.<.5 5 + + f f m.m.( ( E E e e a.a.+ + $ $ D.D.C.C.x.x.> > ",
"9 9 9 9 9 9 : : O O $ $ 7 7 e e { { =.=.<.<.<.<.- - ; ; m.m.m.m.E E f f E E ; ; - - E E g.g.{ { l l <.<.5 5 + + f f m.m.( ( E E e e a.a.+ + $ $ D.D.C.C.x.x.> > ",
"> > > > > > # # + + ; ; f f V V <.<.<.<.<.<.<.<.; ; ; ; m.m.m.m.x x x x <.<.2 2 ; ; E E g.g.{ { l l 8.8.; ; + + e e m.m.( ( E E 7 7 m.m.@ @ + + N.N.C.C.x.x.> > ",
"> > > > > > # # + + ; ; f f V V <.<.<.<.<.<.<.<.; ; ; ; m.m.m.m.x x x x <.<.2 2 ; ; E E g.g.{ { l l <.8.; ; + + e e m.m.( ( E E 7 7 m.m.@ @ + + N.N.C.C.x.x.> > ",
"9 9 f b a.a.+ + + + ; ; E E V V <.<.<.<.<.<.<.<.; ; > > m.m.m.m.7 7 E E g.g.f f 7 7 { { a.a.E E l l g.g.; ; @ @ f f m.m.( ( V V 9 9 m.m.- - + + m m V V f f > > ",
"9 9 f b a.a.+ + + + ; ; E E V V <.<.<.<.<.<.<.<.; ; > > m.m.m.m.7 7 E E g.g.f f 7 7 { { a.a.E E l l g.a.; ; @ @ f f m.m.( ( V V 9 9 m.m.- - + + m m V V f f > > ",
"9 9 , , > > + + $ $ ( ( E E E E <.<.<.<.<.<.<.<.> > 9 9 m.m.x.x.7 7 <.<.x.x.E E E E ( ( g.g.E E V V x.x.; ; $ $ f f D.D.G.G.9.9.y y x.x.f f + + > > m m m m > > ",
"9 9 , , > > + + $ $ ( ( E E K E <.<.<.<.<.<.<.<.> > 9 9 m.m.x.x.7 7 <.<.x.x.E E E E ( ( g.g.E E V V m.x.; ; $ $ f f D.D.G.G.9.9.y y x.x.f f + + > > m m m m > > ",
", , , , : : + + - - x.x.E E f f <.<.=.=.<.<.<.<.9 9 l l m.m.g.g.y 7 8.<.m.m.8.8.$.$.E E g.g.( E V V m.m.; ; % % I I W.W.Q.Q.P.P.I.I.9.9.{ { + + = = C.C.E E 9 9 ",
", , , , : : + + - - x.x.E E f f =.<.=.=.<.<.<.<.9 9 l l m.m.g.g.y y <.<.m.m.8.8.$.$.E E g.g.( ( V V m.m.; ; % % I I W.W.Q.Q.P.P.I.I.9.9.{ { + + = = C.C.E E 9 , ",
"=.=.7.7.9 9 + + > > g.g.E E 9 9 =.=.( ( <.<.<.<.e e V V m.m.a.a.y y a.a.m.m.x.x.<.<.E E a.a.{ { E E m.m.; ; % = O.O.K.K.E.E.E.E.L.L.4 4 8.8.+ + + + N.N.V V 9 9 ",
"=.=.7.7.9 9 + + ; > g.g.E E 7 7 =.=.( ( <.<.<.<.e e V V m.m.a.a.y y a.a.m.m.x.x.<.<.E E a.a.{ { E E m.m.; ; % % O.O.K.K.E.E.E.E.L.L.4 4 8.8.+ + + + m.N.V V 9 9 ",
"q.q.=.=.> > $ $ < y a.a.( ( y y =.=.( ( a.a.<.<.e e E E m.m.7.7.7 7 a.a.m.m.x.x.a.a.E E a.a.<.<.{ { m.m.; ; + + o.o.J.J.E.E.T.T.....1 1 g.g.+ + + + m.m.V V 9 9 ",
"q.q.<.=.> > $ $ 5 5 a.a.( ( y y =.=.( ( a.a.<.<.e e E E m.m.7.7.y 7 a.a.m.m.x.x.a.a.E E a.a.<.<.{ { m.m.; ; + + o.o.J.J.E.E.T.T.....1 1 g.g.+ + + + m.m.V V 9 9 ",
"=.=.E E U.U.K.K.& & 8.8.<.<.> > ] ] ( ( a.a.<.<.e e E E m.m.<.<.7 7 <.<.m.m.m.m.a.a.E E a.a.a.a.7.7.x.x.; ; o o * * o.o.+.+.Y.Y.* * ; ; x.x.+ + O O <.<.E E > > ",
"=.=.E E U.U.K.K.& & 8.8.<.<.> > ] ] ( ( g.a.<.<.f e E E m.m.<.<.7 7 <.<.m.m.m.m.a.a.E E a.a.a.a.7.7.x.x.; ; o o * * o.o.+.+.Y.Y.* * ; ; x.x.+ + O O <.<.E E > > ",
", , > > U.U.H.H.$ $ ( ( 8.8.; ; E E { { x.x.<.<.e e V V 8.8.( ( 7 7 <.<.m.m.m.m.a.a.E E a.a.g.g.x.x.g.g.; ; O O X X - - 3 3 3 3 & & x x m.m.$ $ o o > > > > > > ",
", , > > U.U.H.H.$ $ ( ( 8.8.; ; E E { { x.x.<.<.e e V V 8.8.( ( 7 7 <.<.m.m.m.m.a.a.E E a.a.g.g.x.x.g.g.; ; O O X X - - 3 3 3 3 & & x x m.m.$ $ o o > > > > > > ",
"V V b b +.+.X.X.; ; <.<.8.8.; ; V V { { x.x.<.<.9 9 V V 8.8.V V y y $.$.m.m.m.m.a.a.V V a.a.x.x.m.m.a.a.- - % % & & & & + + X X ; ; a.a.m.m.= = X o e e e e e e ",
"V V b b +.+.X.X.- - <.<.8.8.; ; V V { { x.x.<.<.9 9 V V 8.8.U V y y $.( m.m.m.m.a.a.V V a.a.x.x.m.m.a.a.- - % % & & & & + + X X ; - a.a.x.x.= = X o e e e e e e ",
"x.x.<.<.+ + = = ; ; <.<.8.8.= = f f ( ( x.x.8.8.y y f f <.<.f f ; ; E E m.m.m.m.a.a.m m <.<.g.g.m.m.8.8.= = - - f f < <         y y g.g.x.x.- - X X a.a.a.a.a.a.",
"x.x.<.<.+ + = = ; ; <.<.8.8.= = f f ( ( x.x.8.8.y y f f <.<.f f ; ; E E m.m.m.m.a.a.m m <.<.g.g.m.m.8.8.= = - - f f < <         y y g.g.x.x.- - X X a.a.a.a.a.a.",
"m.m.{ { O O & & f f <.<.<.<.$ $ e e x x x.x.8.8.> > e e ( ( f e ; ; E E m.m.m.m.a.a.m m <.<.a.a.m.m.8.8.= = - - V U 2 2         y y g.g.a.a.; ; X X g.g.m.m.D.D.",
"m.m.{ { O O & & f f <.8.<.<.$ $ e e x x x.x.a.8.> > e e ( ( e e ; ; E E m.m.m.m.a.a.m m <.<.a.a.m.m.8.8.= = - - V E 2 2         y y g.g.a.a.; ; X X g.g.m.m.D.D.",
"> > : : O O - - <.<.8.8.V V @ @ y y y y x.x.x.x.> > y y E E 7 7 ; ; E E m.m.m.m.a.a.f f =.=.a.a.m.m.8.8.% % - - e e 7 7 . .     ; > 8.8.x.x.- - X X =.=.D.D.a.a.",
"> > : : O O - = <.<.8.8.V V @ @ y y y y x.x.x.x.> > y y E U 7 7 ; ; E E m.m.m.m.a.a.f f =.=.a.a.m.m.8.8.% % - - e e 7 7 . .     ; ; 8.8.x.x.- - X X =.=.D.D.a.a.",
"f f 9 9 O O - - x.x.a.a.7 7 + + ; ; ; ; g.g.x.x.> > , , f f y y > > E E m.x.m.m.x.x.f f =.=.a.a.m.m.a.a.$ $ % % y y 7 7 <.<.> > ; ; =.=.m.m.- - X X e e { { m m ",
"f f 9 9 O O - - x.x.a.a.7 7 + + ; ; > > g.g.x.x.> > , , f f y y > > E E x.x.m.m.x.x.f f =.=.a.a.m.m.a.a.$ $ % % y y 7 7 <.<.> ; ; ; =.=.m.m.- - X X e e { { m m ",
"D.D.a.a.O O = = m.m.g.g.y y O O - - ; ; a.a.m.m.; ; > > 7 7 y y y y E E x.x.m.m.x.x.e e { { 7.7.m.m.a.a.$ $ % % y y f f ( ( > > > > ( { m.m.- - + + e e x.x.N.N.",
"D.D.a.a.O O & & m.m.g.g.y y O O - - ; ; a.a.m.m.; ; > > 7 7 y y y y E E x.x.m.m.x.x.e e { { 7.7.m.m.a.a.$ $ % % y y f f ( ( > > > > { { m.m.- - + + e e x.x.N.N.",
"C.C.a.a.+ + @ @ m.x.x.x.y y o o = = ; ; 8.8.m.m.- - = = 7 7 y y 7 7 ( ( g.g.m.m.m.m.e e { { <.<.m.m.x.x.$ $ % % y y f f ( ( ; ; > > ] ] m.m.$ $ + + f f D.D.m.m.",
"C.C.a.a.+ + @ @ m.m.x.x.y y o o = = ; ; 8.8.m.m.- - = = 7 7 y y 7 7 ( ( g.g.m.m.m.m.e e { { <.<.m.m.x.x.$ $ % % y y f f ( ( ; ; > > ] ] m.m.$ $ + + f f D.D.m.m.",
"9 9 > > + + + + x.x.a.a.7 7 o o $ $ > > <.8.m.m.% % & & y y f f f f =.=.g.g.m.m.m.m.f f ] ] <.<.m.m.m.m.$ $ $ $ 7 7 x x ( ( ; ; e e =.=.E E O O + + f f e e e e ",
"9 9 > > + + + + x.x.a.a.7 7 o o $ $ > > <.<.m.m.% % & & y y f f f f =.=.g.g.m.m.m.m.f f ] ] <.<.m.m.m.m.$ $ $ $ 7 7 x x ( ( ; ; e e =.=.E E O O + + f f e e e e ",
"C.C.a.a.# # + + f f a.a.e e X o @ @ y y <.<.m.m.$ $ % % > > E E E E 8.8.x.x.m.m.m.m.m m =.=.<.<.m.m.m.m.% % % % e e x x E E > > f f V V + + O O # # m m e e E E ",
"C.C.a.a.# # + + f f a.a.e e X X @ @ y y <.<.m.m.$ $ % % > > E E E E 8.8.x.x.m.m.m.m.m m =.=.<.<.m.m.m.m.% % % % e e x x E E > > f f V V + + O O # # m m e e E E ",
"b b 9 9 # # + + + + = = = = = = = = $ $ @ @ $ $ O O o o o o o o o o + + $ $ @ @ @ @ @ @ @ @ @ @ $ $ $ $ $ $ $ $ + @ @ @ + + + + + + + + O O + + $ $ V V N.N.D.D.",
"b b 9 9 # # + + + + = = = = = % = = $ $ @ @ $ $ O O o o o o o o o o + + $ $ @ @ @ @ @ @ @ @ @ @ $ $ $ $ $ $ $ $ + @ @ @ + + + + @ + + + O O + + $ $ V V N.N.D.D.",
"9 9 > > = = # # # # $ $ $ $ $ $ # # O O X X X X o o O O + + + + + + @ @ $ $ @ @ + + + + + + + + + + + + + + + + + # @ @ @ @ % % = = + + $ $ % % 9 9 ] ] ] { q.q.",
", 9 > > = = # # # # $ $ $ $ $ $ # # O O X X X X o o O O + + + + + + @ @ $ $ @ @ + + + + + + + + + + + + + + + + # # @ @ @ @ % % = = + + $ $ % % 9 9 ] ] { { q.q.",
"<.<.x.x.N.N.D.D.D.D.D.D.D.D.D.C.D.D.D.D.D.D.D.D.D.D.C.C.C.C.D.D.D.D.D.D.D.D.D.D.D.D.D.D.D.D.a.a.> > > > a.a.a.a.a.a.a.a.a.a.q.q.7.7.<.<.<.<.<.q.<.<.<.=.7.7.a.a.",
"<.<.x.x.N.N.D.D.D.D.D.D.D.D.D.C.D.D.D.D.D.D.D.D.D.D.C.C.C.D.D.D.D.D.D.D.D.D.D.D.D.D.D.D.D.C.a.a.> > > > a.a.a.a.a.a.a.a.a.a.q.q.7.7.<.<.<.<.<.<.<.<.<.<.7.7.a.a."
};
