/* XPM */
static const char *door_c[] = {
/* columns rows colors chars-per-pixel */
"40 40 73 1 ",
"  c #010101",
". c #110C08",
"X c #1E150C",
"o c #21170D",
"O c #23190F",
"+ c #251B12",
"@ c #291E14",
"# c #261E18",
"$ c #2C2116",
"% c #2E2319",
"& c #322416",
"* c #3F2E16",
"= c #32261A",
"- c #36281C",
"; c #3B2C1E",
": c #372B20",
"> c #3D2E22",
", c #3F3023",
"< c #402F1E",
"1 c #493516",
"2 c #41311F",
"3 c #4D391E",
"4 c #513B1A",
"5 c #412F20",
"6 c #433224",
"7 c #463524",
"8 c #443426",
"9 c #463527",
"0 c #483727",
"q c #4A3827",
"w c #4C3927",
"e c #493728",
"r c #4A3828",
"t c #4C3929",
"y c #4F3C2A",
"u c #503B29",
"i c #513C28",
"p c #503C2B",
"a c #543E2B",
"s c #533F2C",
"d c #543F2D",
"f c #604515",
"g c #674A11",
"h c #6C4E12",
"j c #654A1A",
"k c #7D5910",
"l c #57402C",
"z c #57412E",
"x c #58422E",
"c c #5B442F",
"v c #5C442F",
"b c #5D452F",
"n c #5B4430",
"m c #5F4731",
"M c #604732",
"N c #624932",
"B c #644A33",
"V c #654B34",
"C c #674C34",
"Z c #684D35",
"A c #7B6039",
"S c #86621A",
"D c #916B1F",
"F c #946E21",
"G c #9C7527",
"H c #92712C",
"J c #9D782B",
"K c #A77C25",
"L c #BE8207",
"P c #B2852B",
"I c #B88A2D",
"U c #D3AB5C",
"Y c #DEB662",
/* pixels */
">,88>>>>>>,>>>>>>>>,,,,,8888,,,,,,88,,88",
"CZZZZCZCcpt88rzzxxxcmMBCCZZZZZZZZZZZZZZZ",
"ZVBNMmmNNmm8>8cMNnssptzmmNCCCZCCBBVBBBNZ",
",>>8880tpzx8>px=#+#oXoXX$xmmnxxt8888888Z",
"88yZZZZZZZB8>-+o#$-;O;$oXX%rrrrrttsmmNVZ",
"zsxmMNNNNNz8%oO=0>6a+BMm;OX+NCZZZZZZZZZZ",
"Nxdzxxzzzcs$++;u8;6t$BmNtp+O+VZZZZZZZZZZ",
"t00pNBVCZZ$O++8t8;6t&NvN0N=@+$mmmNNNBBBV",
"ZBBBBBBNN%X$@+u00;6p-NvN8N-%;+-ttyyypttB",
"czxxccnc,X@x$+d0066z;NvN6x6%N++tdsdzzssN",
"BczzzxNmo+pB$+vw088x;NvN6x0$Nx++CZZZZZZm",
"ZZZZZZC+XtmB$+Npwttx6MvM6dt$mB;+6ZZZZZZm",
"NNNNNN>X$vmN$+Bzpttz8mvM>pw$xBv++xzmmxs8",
">>>>>>OorvmM$+Bcxqua;xvm6p0@zBx8+$,,>>>>",
"08err=X;txmm$+Bmm0pp&xmv6p0@pBxp++mmNN8,",
"88888OOqtxmm$@BmN0tt$xmc8p0@tBxp;+8ZZZp>",
"8888>o$qpxvm$$BMN0q0$zMx0p8@tBzpq++xzs0>",
"zmZZ$O;6pzxv%-BNN0q6$dMzqa8+rBzp0%+t8,>>",
"zmCM++>8pzxc=-BBv8t<=pMztz6+0Bad8y+-8pr>",
"888:O$88dzxx-;BBp0p;-pMdqx5+0Baa8m+$ZCN>",
">>>#+;0txxxx;;BBwwx6;pmpqx;+8Bap6B@+VCN>",
"8em++;ptxxxx;>BB8pM08dmpqm;@0Bat8B-+rt0>",
"8,>+$apyxxxx>6BN8xNppdMptN;$0ZAv6N0+>rr>",
",,:+-Np0zzxx8qBM8xBvzpMptB;%pUYHJvd+=Cp8",
"zc6+>Mp6zaxx8tBm6mBNxpmzpB;%jFIIG4v++Vt8",
"nx>$6ma6zamx8pBc8mBNmpmxdB;+hDIPf1M++Bt8",
"zyKF&vx>samx8pBx8xBBmpmmvN;o*hkL*;N+Oxp>",
",>KS$av;paNx8tva8xBBmpmMNM;OX-33&wB$o>>>",
"tekg-xv;tdNx8tvt6zBBmtmNBm-%&&+X;mB=o888",
"Nx+=;xv=0aNc60x0;pBBmrxMBv=-0<  6MB-Xmmm",
"BdO=8xx$8wNm>8a8;pBBmrxmBv=-t2  6Mm;XMBZ",
">:O=xvt@68NN>6t8;pBBm0zmBv%-88. >vN-XzZm",
"08O-Nm8+;>MN>,06>pNBN0zmBm$%68x>;zB-X8dr",
"ZmO=BM6O-;mB;>866pNBN8dcBM$%60a>>dB-+8NV",
"Cm+@BN6o=;vB-=868aMBB8dxBN$%60p;>sB$+0ZB",
"8>++Nm8o$>xB%=600zMBB0sxBB$$8wp;8zpO+088",
"Cm#+0m8o@6xB$%;ppvNBBrzxBB%%8wp>0t+O#r8p",
"e8#++====$@$Ooooo+$@@@@@$$$$@@++@+O+$tVZ",
"8>=##$$$#OXXoO+++@$@++++++++#@@%=+$%8sdn",
"xNVZZZZZZZZZZZZZZZZZZZZm>>mmmmmncxxxxxcm"
};
