/* XPM */
static const char *door_c[] = {
/* columns rows colors chars-per-pixel */
"80 80 178 2 ",
"   c black",
".  c #0C0905",
"X  c #120D09",
"o  c #16100A",
"O  c #2C1D0E",
"+  c #301F0F",
"@  c #261B14",
"#  c #2E1F10",
"$  c #211A1A",
"%  c #291F18",
"&  c #30200F",
"*  c #3D2B0E",
"=  c #2D2116",
"-  c #2E2318",
";  c #352414",
":  c #382616",
">  c #3A2916",
",  c #32251A",
"<  c #35281B",
"1  c #3C2B1A",
"2  c #362822",
"3  c #3C2F22",
"4  c #3F3024",
"5  c #402F17",
"6  c #412E1C",
"7  c #423015",
"8  c #45311F",
"9  c #49331F",
"0  c #533C16",
"q  c #583F1A",
"w  c #443324",
"e  c #4A3623",
"r  c #4E3925",
"t  c #493728",
"y  c #4F3B2A",
"u  c #4D3A29",
"i  c #4F3C2A",
"p  c #4F3C2B",
"a  c #4C3929",
"s  c #513924",
"d  c #503A25",
"f  c #523A25",
"g  c #503A26",
"h  c #513B27",
"j  c #513B26",
"k  c #523B26",
"l  c #523B27",
"z  c #513C27",
"x  c #523C27",
"c  c #533C27",
"v  c #563C25",
"b  c #543C27",
"n  c #513B26",
"m  c #5A3F25",
"M  c #503B2A",
"N  c #503B29",
"B  c #513C29",
"V  c #523C28",
"C  c #533C28",
"Z  c #533D28",
"A  c #503C2B",
"S  c #513D2B",
"D  c #533E2A",
"F  c #543D28",
"G  c #543D29",
"H  c #553E29",
"J  c #543E29",
"K  c #563F29",
"L  c #543E2B",
"P  c #563F2A",
"I  c #573F2A",
"U  c #523E2C",
"Y  c #533F2C",
"T  c #533E2C",
"R  c #543F2D",
"E  c #533D2A",
"W  c #584018",
"Q  c #644713",
"!  c #63491D",
"~  c #735315",
"^  c #5B4026",
"/  c #57402B",
"(  c #57402A",
")  c #55402D",
"_  c #56412D",
"`  c #57402C",
"'  c #57412E",
"]  c #56412E",
"[  c #56402D",
"{  c #58402B",
"}  c #58412B",
"|  c #5B4128",
" . c #59412C",
".. c #5A412C",
"X. c #59422C",
"o. c #5A422C",
"O. c #5A422D",
"+. c #5B432D",
"@. c #5B422D",
"#. c #58422E",
"$. c #59432F",
"%. c #5B432E",
"&. c #5A432F",
"*. c #5A432E",
"=. c #5D432D",
"-. c #5C432E",
";. c #5B442F",
":. c #5A442F",
">. c #5C442E",
",. c #5D442E",
"<. c #5D452F",
"1. c #5E452E",
"2. c #5E452F",
"3. c #5F452F",
"4. c #5E462F",
"5. c #5F452D",
"6. c #5B432D",
"7. c #5A4330",
"8. c #5B4430",
"9. c #5D4530",
"0. c #5C4530",
"q. c #5E4530",
"w. c #5D4630",
"e. c #5F4630",
"r. c #5E4631",
"t. c #5F4731",
"y. c #5F4731",
"u. c #5E4530",
"i. c #664B22",
"p. c #60472F",
"a. c #60462F",
"s. c #634A2F",
"d. c #735827",
"f. c #795A21",
"g. c #604730",
"h. c #604731",
"j. c #614731",
"k. c #614730",
"l. c #604732",
"z. c #604731",
"x. c #614831",
"c. c #624831",
"v. c #624830",
"b. c #604832",
"n. c #614832",
"m. c #624932",
"M. c #634932",
"N. c #624933",
"B. c #634933",
"V. c #624832",
"C. c #634A33",
"Z. c #644A33",
"A. c #644B33",
"S. c #654B33",
"D. c #654B34",
"F. c #664B34",
"G. c #674C34",
"H. c #674D35",
"J. c #664D35",
"K. c #644A33",
"L. c #684D35",
"P. c #684D35",
"I. c #835B16",
"U. c #886217",
"Y. c #8C671D",
"T. c #8F691A",
"R. c #966D17",
"E. c #8F6A21",
"W. c #856935",
"Q. c #A37E37",
"!. c #8F7146",
"~. c #B28427",
"^. c #B3862B",
"/. c #B28934",
"(. c #CE9214",
"). c #C09233",
"_. c #C29F5E",
"`. c #D1A44B",
/* pixels */
"3 3 4 4 w w w w 3 3 3 3 3 3 3 3 3 3 3 3 4 4 3 3 3 3 3 3 3 3 3 3 3 3 3 3 3 3 4 4 4 4 4 4 4 4 4 4 w w w w w w w w 4 4 4 4 4 4 4 4 4 4 4 4 w w 4 4 4 4 4 4 w w w w ",
"3 3 4 4 w w w w 3 3 3 3 3 3 3 3 3 3 3 3 4 4 3 3 3 3 3 3 3 3 3 3 3 3 3 3 3 3 4 4 4 4 4 4 4 4 4 4 w w w w w w w w 4 4 4 4 4 4 4 4 4 4 4 4 w w w w 4 4 4 4 w w w w ",
"G.G.L.L.L.L.L.L.G.G.G.G.L.L.G.G.;.;.A A a a w w w w t t ' ' A A 1 1 ; ; ; ; ; ; ; ; ; ; ; ; ; ; ; ; I I L.L.L.L.G.G.G.G.L.L.L.L.L.L.G.G.L.L.L.L.L.L.L.L.L.L.L.L.",
"G.G.L.L.L.L.L.L.G.G.G.G.L.L.G.G.;.;.A A a a w w w w t t ' ' A A 1 1 ; ; ; ; ; ; ; ; ; ; ; ; ; ; ; ; A A L.L.L.L.G.G.G.G.L.L.L.L.L.L.G.G.L.L.L.L.L.G.L.L.L.L.L.L.",
"L.L.D.D.Z.Z.m.m.l.l.t.t.t.t.m.m.m.m.t.t.t.t.t t 3 3 t t w w ; ; ; ; ; ; ; ; ; ; ; ; ; ; ; ; ; ; ; ; ; ; ; ; G.G.L.L.L.L.L.L.G.G.m.m.m.m.D.D.Z.Z.Z.Z.Z.Z.m.m.L.L.",
"L.L.D.D.Z.Z.m.m.l.l.t.t.t.t.m.m.m.m.t.t.t.t.t t 3 3 t t w w ; ; ; ; ; ; ; ; ; ; ; ; ; ; ; ; ; ; ; ; ; ; ; ; G.G.L.L.L.L.L.L.G.G.m.m.m.m.D.D.Z.Z.Z.Z.Z.Z.m.m.L.L.",
"4 4 3 3 3 3 w w t t t t t t a a A A ' ' #.#.t t 3 3 ; ; ; ; ; ; 8 8 e e 6 6 x x w w r r m.m.Z.Z.I I 1 1 ; ; 1 1 7.7.#.#.#.#.a a w w t t t t t t t t t t t t L.L.",
"4 4 3 3 3 3 w w t t t t t t a a A A ' ' #.#.t t 3 3 ; ; ; ; ; ; 8 8 e e 6 6 x x w w r r m.m.Z.Z.I I 1 1 ; ; 1 1 7.7.#.#.#.#.a a w w t t t t t t t t t t t t L.L.",
"t t t t i i L.L.G.G.G.L.L.L.L.L.L.L.L.L.Z.Z.t t # # # # : : e e A I w 8 1 1 r r w e j j Z.Z.m.m.( ( >.>.6 6 O O : : t t t t t t a a a a Y Y t.t.t.t.m.m.D.D.L.L.",
"t t t t i i L.L.L.G.G.G.L.L.L.L.L.L.L.L.Z.Z.t t # # # # : : e e A A 8 8 1 1 r r w w j j Z.Z.m.m.( ( >.>.6 6 O O : : t t t t a t a a a a Y Y t.t.t.t.m.m.D.D.L.L.",
"' ' Y Y ' #.t.t.l.l.m.l.m.m.m.m.m.m.m.m.' ' # # O O ; ; 1 1 j j r r 8 8 1 1 r r e e I I m.m.m.m.j j t.t.e e # O O O 8 8 L.L.L.L.L.L.L.L.L.L.L.L.L.L.L.L.L.L.L.L.",
"' ' Y Y #.#.t.t.l.l.m.m.m.m.m.m.m.m.m.m.' ' # # O O ; ; 1 1 j j r r 8 8 1 1 r r e e A I m.m.m.m.j j t.t.e e # # O O 8 8 L.L.L.L.L.L.L.L.L.L.L.L.L.L.L.L.L.L.L.L.",
"m.m.#.#.R R ' ' #.#.#.#.' ' ' ' ' ' ;.;.; ; O O ; ; ; ; 6 6 I I e e w w 1 1 j j r r I I m.m.m.m.j j #.#.e e ; ; 6 6 O O I I L.L.L.L.L.L.L.L.L.L.L.L.L.L.L.L.L.L.",
"m.m.#.#.R R ' ' #.#.#.#.' ' ' ' ' ' ;.;.; ; O O ; ; ; ; 6 6 I I e e w w 1 1 j j r r I I m.m.m.m.j j #.#.e e ; ; 6 6 O O I I L.L.L.L.L.L.L.L.L.L.L.L.L.L.L.L.L.L.",
"a a t t t t A A m.m.Z.Z.D.D.G.G.G.G.8 8 O O 8 8 ( ( ; ; 8 8 { { e e e e 6 6 r r r r x x m.m.m.m.r r I I A A ; ; >.>.6 6 O O t.t.t.t.m.m.m.m.m.m.Z.Z.Z.Z.Z.Z.D.D.",
"a a t t t t A A m.m.Z.Z.D.D.G.G.L.L.8 8 O O 8 8 ( ( ; ; 8 8 { #.e e e e 6 6 r r r r x x m.m.m.m.r r I I A A ; ; >.>.6 6 O O t.t.t.t.m.m.m.m.m.m.Z.Z.Z.Z.Z.Z.D.D.",
"L.L.Z.Z.Z.Z.Z.Z.Z.Z.Z.Z.Z.Z.m.m.x x O O 1 1 m.m.#.#.; ; 8 8 l.l.r r e e 6 6 j j r r A A l.l.Z.Z.r r j j I I ; ; x x Z.Z.; ; # # a a i i i i i i A A a a a a m.Z.",
"L.L.Z.Z.Z.Z.Z.Z.Z.Z.Z.Z.Z.Z.m.m.x x O O 1 1 m.m.#.#.; ; 8 8 l.l.r r e e 6 6 j j r r A A l.l.m.Z.r r j j I I ; ; x x Z.Z.; ; # # a a i i i i i i A A a a a a Z.Z.",
";.;.' ' #.#.#.#.;.;.;.;.8.8.A A O O ; ; { { l.l.( ( ; ; w w Z.Z.j j e e 8 8 A A r j A A l.l.m.m.r r r r #.#.: : e e Z.Z.x x O O 6 6 Y Y R R ' ' ' ' Y Y Y Y m.m.",
";.;.' ' #.#.#.#.;.;.;.;.8.8.A A O O ; ; { { m.l.( ( ; ; w w Z.Z.j j e e 8 8 A A j j A A l.l.m.m.r r r r #.#.: : e e Z.Z.x x O O 6 6 Y Y R R ' ' ' ' Y Y Y Y m.m.",
"Z.Z.;.;.' ' ' ' ' ' #.#.l.t.O O O O 1 1 a.l.t.t.I I ; ; 8 8 Z.Z.I I r r 6 6 A A r r j j t.t.m.m.r r r r #.#.: : 8 8 m.m.Z.Z.; ; O O D.D.L.L.L.L.L.L.L.L.L.L.t.t.",
"Z.Z.;.;.' ' ' ' ' ' #.#.l.t.O O O O 1 1 a.l.t.t.I I ; ; 8 8 Z.Z.I I r r 6 6 A A r r j j >.>.m.m.r r r r #.#.: : 8 8 m.m.Z.Z.; ; O O D.D.L.L.L.L.L.L.L.L.L.L.t.t.",
"L.L.L.L.L.L.L.L.L.L.G.G.j j O O ; ; r r >.>.t.t.I I ; ; 8 8 Z.Z.#.#.r r 6 6 I I 8 8 w w >.>.l.l.e e r r ( ( ; ; 6 6 m.m.l.l.j j O O 8 8 L.L.L.L.L.L.L.L.L.L.t.t.",
"L.L.L.L.L.L.L.L.L.L.G.G.j j O O ; ; r r >.>.t.t.I I ; ; 8 8 Z.Z.#.#.j r 6 6 I I 8 8 8 w >.>.l.l.e e r r ( ( ; ; 6 6 m.m.l.l.j j O O 8 8 L.L.L.L.L.L.L.L.L.L.t.t.",
"m.m.m.m.m.m.m.m.m.m.t.t.; ; O O 6 6 r r #.#.l.l.x x ; ; 9 9 Z.Z.>.>.j j 6 6 I I 1 1 6 6 t.t.l.l.r r r r I I ; ; : : l.l.l.l.I I ; ; O O ' ' t.t.t.t.#.#.Y Y t t ",
"m.m.m.m.m.m.m.m.m.m.t.t.; ; O O 6 6 r r #.#.l.l.x x ; ; 9 9 Z.Z.>.>.j j 6 6 I I 1 1 6 6 >.t.l.l.r r r r I I ; ; : : l.l.l.l.I I ; ; O O ' ' t.t.t.t.#.#.Y Y t t ",
"3 3 3 3 3 3 3 3 3 3 1 1 ; ; ; ; e e r r #.#.t.t.j j ; ; e e Z.Z.a.l.x x 6 6 j j 1 1 6 6 l.l.l.t.r r A A I I ; ; ; ; t.t.t.t.=.=.8 8 O O < < 3 4 3 3 3 3 3 3 3 3 ",
"3 3 3 3 3 3 3 3 3 3 1 1 ; ; ; ; r e r r #.#.t.t.j j ; ; e e Z.Z.a.l.x x 6 6 j j 1 1 8 6 l.l.l.l.r r A A I I ; ; ; ; t.t.t.t.=.=.8 8 O O < < 3 4 3 3 3 3 3 3 3 3 ",
"t t t t t t t t t t 1 1 ; ; 1 1 w w j j { { >.>.j j ; ; e e Z.Z.m.m.b b 6 1 e e : : 6 6 t.t.>.>.r r I I I I ; ; ; ; l.l.>.>.>.>.r r ; ; ; ; t.t.m.m.m.m.w w 4 4 ",
"t t t t t t t t t t 1 1 ; ; 1 1 w w j j { { >.>.j j ; ; e e Z.Z.m.m.b I 6 1 r e : : 6 6 t.t.>.>.r r I I I I ; ; ; ; l.l.>.>.>.>.r r ; ; ; ; t.t.m.m.m.m.w w 4 4 ",
"t t t t t t w w w w ; ; ; ; 8 8 6 6 j j I I >.>.s s ; ; e e Z.Z.Z.Z.A A 6 6 e e ; ; 6 6 >.>.#.#.r r ( ( I I ; ; ; ; l.l.#.#.>.>.r r 6 6 O O m.m.L.L.L.L.A A 3 3 ",
"t t t t t t w w w w ; ; ; ; 8 8 6 6 j j I I >.>.s s ; ; e e Z.Z.Z.Z.A A 6 6 e e ; ; 6 6 >.>.#.#.r r ( ( I I ; ; ; ; t.t.#.#.>.>.r r 6 6 O O m.m.L.L.L.L.A A 3 3 ",
"w w w w t t t t w w ; ; : : e e 8 8 b b I I =.=.j j ; ; e e Z.Z.m.m.r r 8 8 e e : : 8 8 >.>.#.#.r r #.#.x x ; ; ; ; t.t.#.#.#.#.I I #.#.: : : : ' ' Y Y t t 3 3 ",
"w w w w t t t t w w ; ; : : e e 8 8 b b I I =.=.j j ; ; e e Z.Z.m.m.r r 8 8 e e : : 8 8 >.>.#.#.r r #.#.x x ; ; ; ; t.t.#.#.#.#.I I #.#.: : : : ' ' Y Y t t 3 3 ",
"' ' t.t.L.L.G.G.e e ; ; 1 1 r r r t a.>.#.#.>.>.j j ; ; e e Z.Z.>.>.e e e e r r : : 8 8 >.>.#.#.r r >.>.x x ; ; ; ; l.t.#.#.I I w w Z.Z.b b O O w w 4 4 3 3 3 3 ",
"' ' t.t.L.L.D.D.e e ; ; 1 1 r r t t a.a.#.#.>.>.j j ; ; e e Z.Z.>.>.e e e e r r : : 8 8 >.>.#.#.r r >.>.x x ; ; ; ; l.t.#.#.I I w w Z.Z.b b O O w w 4 4 3 3 3 3 ",
"' ' t.t.G.G.Z.Z.; ; ; ; 8 8 A A M M l.l.#.#.a.a.j j : : e e Z.Z.#.#.8 8 A x I I 6 6 e e =.=.{ { r r a.a.I I ; ; ; ; m.m.' ' M M w w Z.Z.| | ; ; t t A A t t 3 3 ",
"' ' t.t.G.G.Z.Z.; ; ; ; 8 8 A A M M l.l.#.#.a.a.j j : : e e Z.Z.#.#.8 8 x x I I 6 6 e e =.=.{ { r r a.a.I I ; ; ; ; m.m.' ' M M w w Z.Z.| | ; ; t t A A t t 3 3 ",
"w w w w w w t t ; ; ; ; r r I I ( ( l.a.>.>.l.l.j j : : r r Z.Z.{ { w w =.=.=.=.r r j j #.#.{ { r r m.m.I I ; ; 1 1 m.m.>.>.I I 2 2 m.m.5.5.; ; { ( G.G.m.m.3 3 ",
"w w w w w w t t ; ; ; ; r r I I ( ( a.a.>.>.l.l.j j : : r r m.Z.{ { w w =.=.=.=.r r j j #.#.{ { r r m.m.I I ; ; 1 1 m.m.>.>.I I 2 2 m.m.5.5.; ; { { G.G.m.m.3 3 ",
"3 3 3 3 3 3 1 1 ; ; ; ; l.l.j j I I a.a.>.>.>.>.j j 1 1 j j Z.Z.I I e e t.t.m.m.{ { j j #.#.#.{ r r m.m.b b ; : 6 6 !.!._._.W.W.d.d.s.s.#.#.; ; 6 6 G.G.m.m.3 3 ",
"3 3 3 3 3 3 1 1 ; ; ; ; l.l.j j I I a.a.>.>.>.>.j j 1 1 j j Z.Z.I I e e t.t.m.m.{ { j j #.#.#.#.r r m.m.b b ; : 6 6 !.!._._.W.W.d.d.s.s.#.#.; ; 6 6 G.G.m.m.3 3 ",
"w w t t 8.8.t t ; ; ; ; Z.m.r r I I >.>.#.#.#.#.j j 1 1 I I Z.Z.x x e e l.l.Z.Z.t.t.j j { { #.#.j j m.m.b b 6 6 9 9 Q.Q.`.`././.^.^.i.i.>.>.; ; ; ; a a t t 3 3 ",
"w w t t 8.8.t t ; ; ; ; Z.Z.r r I I >.>.#.#.#.#.j j 1 1 I I Z.Z.x A e e l.l.Z.Z.t.t.j j { { #.#.j j m.m.b b 6 6 9 9 Q.Q.`.`././.^.^.i.i.>.>.; ; ; ; a a t t 3 3 ",
"w w 4 4 4 4 $ $ < < 1 1 l.l.I I | | >.>.{ { =.=.j j 6 6 I I Z.Z.j j e e m.m.Z.Z.m.m.A A I I >.>.I I m.m.x x s s q q U.U.~.~.).).E.E.0 0 s.s.: : ; ; t t t t 3 3 ",
"w w 4 4 4 4 $ $ < < 1 1 l.l.I I | | >.>.{ { =.=.j j 6 6 I I Z.Z.j j e e m.m.Z.Z.m.m.A A I I >.>.I I m.m.x x s s q q U.U.~.~.).).E.E.0 0 s.s.: : ; ; t t t t 3 3 ",
"4 4 4 4 t t f.f.! ! < < m.m.#.#.{ { >.>.#.#.>.>.r r 6 6 I I Z.Z.j j e e l.l.Z.Z.m.m.I I I I >.>.{ { m.m.j j m m 9 9 ~ ~ T.T.(.(.Q Q : : m.m.1 1 ; ; G.G.A A w w ",
"4 4 4 4 t t f.f.! ! < < m.m.#.#.{ { >.>.#.#.>.>.r r 6 6 I I Z.Z.j j e e l.l.Z.Z.m.m.I I I I >.>.{ { m.m.j j m m 9 9 ~ ~ T.T.(.(.Q Q : : m.m.1 1 ; ; G.G.A A w w ",
"' ' ;.;.m.m.~.~.Y.Y.@ @ >.>.>.>.I I ( ( #.=.l.l.r r 6 6 A A m.m.j j r r l.l.Z.Z.m.m.A A I I t.t.>.>.Z.Z.r r ^ ^ ; ; > > W W I.I.7 7 1 1 Z.Z.1 1 ; ; D.D.a a w w ",
"' ' ;.;.m.m.~.~.Y.Y.@ @ >.>.>.>.I I ( ( =.=.l.l.r r 6 6 A A m.m.j j r r l.l.Z.Z.m.m.A A I I t.t.>.>.Z.Z.r r ^ ^ ; ; > > W W I.I.7 7 1 1 Z.Z.1 1 ; ; D.D.a a w w ",
"8.8.' ' >.>.R.R.~ ~ , , t.t.a.a.b b I I >.>.m.m.r r 1 1 j j >.>.e e e e l.l.Z.Z.m.m.j j x x l.l.m.m.Z.Z.e e ^ ^ ; ; = = < < % % = = A A Z.Z.6 6 ; ; Z.Z.a a w w ",
"8.8.#.' >.>.R.R.~ ~ , , t.t.a.a.b b I I >.>.m.m.r r 1 1 j j >.>.e e e e l.l.Z.Z.m.m.j j x x l.l.m.m.Z.Z.e e ^ ^ ; ; = = < < % % = = A A Z.Z.6 6 ; ; Z.Z.a a w w ",
"' ' A A t t * * 5 5 1 1 l.l.a.a.8 8 j j >.>.m.m.r r 1 1 r r >.>.8 8 8 8 t.t.Z.Z.m.m.j r r r t.t.Z.Z.Z.Z.8 8 ^ ^ e e w w o o     - - >.>.Z.Z.8 8 ; ; #.#.A A 3 3 ",
"' ' A A t t * * 5 5 6 1 l.l.a.a.8 8 j j >.>.m.m.r r 1 1 r r >.>.8 8 8 8 t.t.Z.Z.m.m.r r r r t.t.Z.Z.Z.Z.8 8 ^ ^ e e w w o o     - - >.>.Z.Z.8 8 ; ; #.#.A A 3 3 ",
"4 4 3 3 3 3 9 9 b b >.>.m.m.>.>.1 1 r r #.#.Z.Z.j j ; ; e e #.#.6 6 8 8 >.>.Z.Z.m.m.r r r r >.>.m.m.Z.Z.8 8 9 9 r r A A . .     , , >.>.Z.Z.w w ; ; 3 3 3 3 3 3 ",
"4 4 3 3 3 3 9 9 b b >.>.m.m.>.>.1 1 r r #.#.Z.Z.j j ; ; e e #.#.6 6 8 8 >.>.Z.Z.m.m.r r r r >.>.m.m.Z.Z.8 8 9 9 r r A A . .     , , t.>.Z.Z.w w ; ; 3 3 3 3 3 3 ",
"a a a a t t 6 6 w w >.>.>.>.x x : : e e j j Z.Z.I I ; ; w w I I 6 6 8 8 >.>.Z.Z.Z.Z.r r e e #.#.m.m.Z.Z.6 6 ; ; 8 8 r r X X     - - #.#.Z.Z.w w ; ; t t t t t t ",
"a a a a t t 6 6 w w >.>.>.>.x x 1 1 e e j j Z.Z.A I ; ; 8 w I I 6 6 8 8 >.>.Z.Z.Z.Z.r r e e #.#.Z.m.Z.Z.6 6 ; ; 8 8 r r X X     - - #.#.Z.Z.w w ; ; t t t t t t ",
"m.m.Z.Z.#.#.1 1 8 6 Z.Z.>.>.w e : 1 8 8 r r Z.Z.I I ; ; 6 8 j j 6 6 e e >.>.Z.Z.Z.Z.r r w w { { m.m.Z.Z.1 1 ; ; 6 6 w w t t < < < < A A Z.Z.8 8 ; ; t.t.t.t.t.t.",
"m.m.Z.Z.#.#.1 1 6 6 Z.Z.>.>.e e : : 8 8 r r Z.Z.I I ; ; 8 8 j j 6 6 e e >.>.Z.Z.Z.Z.r r w w { { m.m.Z.Z.1 1 ; ; 6 6 w w t t < < < < A A Z.Z.8 8 ; ; t.t.t.t.t.t.",
"Z.Z.l.l.#.#.; ; 6 6 Z.Z.>.>.6 6 ; ; 6 6 e e Z.Z.{ { & & 6 6 r r 8 8 r r >.>.Z.Z.Z.Z.r r w w I I m.m.Z.Z.1 1 ; ; 6 6 e e #.#.t t 1 1 r r Z.Z.8 8 ; ; Z.Z.Z.Z.L.L.",
"Z.Z.l.l.#.#.; ; 6 6 Z.Z.>.>.6 6 ; ; 6 6 e e Z.Z.{ { ; & 6 6 r r 8 8 r r >.>.Z.Z.Z.Z.r r w w I I m.m.Z.Z.1 1 ; ; 6 6 e e #.#.t t 1 1 r r m.Z.8 8 ; ; Z.Z.Z.Z.L.L.",
"3 3 3 3 3 3 ; ; 1 1 Z.Z.>.>.6 6 ; ; 1 1 e e Z.Z.#.#.O O : : r r w w r r >.>.Z.Z.Z.Z.j j 8 8 I I l.l.Z.Z.6 6 ; ; 6 6 e e I I w w 1 1 e e m.Z.1 1 ; ; L.L.L.L.t.t.",
"3 3 3 3 3 3 ; ; 1 1 Z.Z.>.>.6 6 ; ; 1 1 e e Z.Z.#.#.O O : : r r w w r r >.>.Z.Z.Z.Z.j j 8 8 I I l.l.Z.Z.6 6 ; ; 6 6 e e I I w w 1 1 e e Z.Z.1 1 ; ; L.L.L.L.t.t.",
"t t t t r r ; ; ; ; Z.Z.>.>.8 8 ; ; 1 1 r r Z.Z.{ { O O ; ; r r e e j j >.>.m.m.Z.Z.j j 8 8 A A l.l.Z.Z.6 6 ; ; 6 6 r r ( ( w w 6 6 r r t.t.; ; O O ;.;.R R t t ",
"t t t t r r ; ; ; ; Z.Z.>.>.8 8 ; ; 1 1 r r Z.Z.{ { O O ; ; r r e e j j >.>.m.m.Z.Z.j j 8 8 A A l.l.Z.Z.6 6 ; ; 6 6 r r ( ( w w 6 6 r r t.t.; ; O O ;.;.R R t t ",
"L.L.L.L.Z.Z.O O O O 6 6 m.m.8 8 ; ; 1 1 j j Z.Z.#.#.O O ; ; j j #.#.#.#.Z.Z.Z.Z.Z.Z.I I e e #.#.Z.Z.Z.Z.w w ; ; 6 6 j j #.#.e e 8 8 x x : : O O O O l.l.m.m.D.D.",
"L.L.L.L.Z.Z.O O O O 6 6 m.m.8 8 ; ; 1 1 j j Z.Z.#.#.O O ; ; j j #.#.#.#.Z.Z.Z.Z.Z.Z.I I e e #.#.Z.Z.Z.Z.w w ; ; 6 6 j j #.#.e e 8 8 x x : : O O O O l.l.m.m.D.D.",
"G.G.G.G.G.G.; ; O O O O ; ; ; ; : : 1 1 1 1 6 6 6 6 O O & & : : 1 1 1 1 1 1 6 6 1 1 1 1 1 1 1 1 1 1 6 6 1 1 ; ; ; ; : 1 1 1 ; ; # # O O O O O O O O G.L.L.L.Z.Z.",
"G.G.G.G.G.G.; ; O O O O ; ; ; ; : : 1 1 1 1 6 6 6 6 O O & & : : 1 1 1 1 1 1 6 6 1 1 1 1 1 1 1 1 1 1 6 6 1 1 ; ; ; ; : 1 1 1 ; ; # O O # O O O O O O G.L.L.L.Z.Z.",
"w w 4 4 t t 8 8 O O O O O O O O ; ; ; ; ; ; ; ; ; ; + + O O ; ; ; ; ; ; ; ; ; ; ; ; ; ; ; ; ; ; ; ; ; ; ; ; : : : : 1 1 1 1 ; ; ; ; O O O O ; ; 6 6 Y Y t t t t ",
"w w 4 4 t t 8 8 O O O O O O O O ; ; ; ; ; ; ; ; ; ; + + O O ; ; ; ; ; ; ; ; ; ; ; ; ; ; ; ; ; ; ; ; ; ; ; ; : : : : : 1 1 1 ; ; ; ; O O O O ; ; 6 6 Y Y t t t t ",
"G.G.t.t.t.t.l.t.l.l.m.m.m.m.l.l.l.l.m.m.m.m.m.m.m.m.l.l.l.l.m.m.t.t.t.m.m.m.l.l.l.l.l.l.m.m.' ' w w w w #.#.' ' i i A A A A A A A A A A A A a a a a t t t t A A ",
"G.G.t.t.t.t.l.l.l.l.m.m.m.m.l.l.l.l.m.m.m.m.m.m.m.m.l.l.l.l.m.m.t.t.m.m.m.m.l.l.l.l.l.l.m.m.' ' w w w w #.#.' ' i i A A A A A A A A A A A A a a a a t t t t A A ",
"t t w w w w w w t t t t t t t t t t t t t t a a a a A A ' ' #.#.' ' A A A A a a a a t t t t t t 3 3 3 3 A A m.m.G.G.G.G.G.G.G.G.G.G.G.G.G.G.G.G.G.G.D.D.D.D.L.L.",
"t t w w w w w w t t t t t t t t t t t t t t a a a a A A ' ' #.#.' ' A A A A a a a a t t t t t t 3 3 3 3 A A m.m.G.G.G.G.G.D.G.G.G.G.G.G.G.G.G.G.G.G.D.D.D.D.L.L.",
"w w 3 3 3 3 4 4 a a a a A A A A i i a a a a t t t t t t t t t t ' ' t.t.m.m.G.G.G.G.G.G.G.G.#.#.3 3 3 3 ' ' ' ' ' ' ' ' ' ' ' ' ' ' ' ' ' ' ' ' ' ' Y Y R R 8.8.",
"4 w 3 3 3 3 4 4 a a a a A A A A i i a a a t t t t t t t t t t t ' ' t.t.m.m.G.G.G.G.G.G.G.G.#.#.3 3 3 3 ' ' ' ' ' ' ' ' ' ' ' ' ' ' ' ' ' ' ' ' ' ' Y Y R R 8.8.",
"#.#.m.m.D.D.L.L.L.L.L.L.L.L.L.L.L.L.L.L.G.G.G.G.L.L.L.L.G.G.L.L.L.L.L.L.L.L.L.L.L.L.L.L.L.L.t.t.3 3 3 3 t.t.t.t.t.t.t.t.t.t.8.8.;.;.#.#.#.#.#.#.#.#.#.#.;.;.t.t.",
"#.#.m.m.D.D.L.L.L.L.L.L.L.L.L.L.L.L.L.L.G.G.G.L.L.L.L.G.G.G.L.L.L.L.L.L.L.L.L.L.L.L.L.L.L.L.t.t.3 3 3 3 t.t.t.t.t.t.t.t.t.t.8.8.;.;.#.#.#.#.#.#.#.#.#.#.;.;.t.t."
};
