/* XPM */
static const char *door_o[] = {
/* columns rows colors chars-per-pixel */
"80 80 148 2 ",
"   c #040303",
".  c #080706",
"X  c #090807",
"o  c #0B0B0B",
"O  c #110C07",
"+  c #140F0A",
"@  c #14100C",
"#  c #1D140C",
"$  c #131313",
"%  c #1B1B1B",
"&  c #21170D",
"*  c #24190E",
"=  c #2A1C0F",
"-  c #251B11",
";  c #2C1E11",
":  c #2E2113",
">  c #342415",
",  c #382716",
"<  c #3B2817",
"1  c #342719",
"2  c #36291B",
"3  c #3D2A19",
"4  c #232323",
"5  c #2A2A2A",
"6  c #3C2F22",
"7  c #3F3023",
"8  c #412D1B",
"9  c #44311E",
"0  c #48331F",
"q  c #463321",
"w  c #473421",
"e  c #463422",
"r  c #473422",
"t  c #473423",
"y  c #403124",
"u  c #413224",
"i  c #423325",
"p  c #433325",
"a  c #423225",
"s  c #433326",
"d  c #443425",
"f  c #443426",
"g  c #453526",
"h  c #463526",
"j  c #463527",
"k  c #463627",
"l  c #473627",
"z  c #433325",
"x  c #493420",
"c  c #483421",
"v  c #483521",
"b  c #4A3521",
"n  c #493522",
"m  c #483523",
"M  c #493622",
"N  c #4B3622",
"B  c #4A3623",
"V  c #4B3623",
"C  c #4C3723",
"Z  c #4E3722",
"A  c #4D3721",
"S  c #483727",
"D  c #493624",
"F  c #4D3823",
"G  c #4D3824",
"H  c #4E3925",
"J  c #493728",
"K  c #493728",
"L  c #4A3828",
"P  c #4B3929",
"I  c #4C3928",
"U  c #4C3929",
"Y  c #4C3A29",
"T  c #4D3A29",
"R  c #4E3A28",
"E  c #4D3A2A",
"W  c #4F3B2A",
"Q  c #4F3C2A",
"!  c #4F3C2B",
"~  c #4C3A29",
"^  c #503A26",
"/  c #503A27",
"(  c #523C27",
")  c #523D24",
"_  c #513C28",
"`  c #503C2B",
"'  c #513D2B",
"]  c #523D2A",
"[  c #543D28",
"{  c #523E2C",
"}  c #533E2C",
"|  c #533F2C",
" . c #543F2D",
".. c #523E2C",
"X. c #5C441D",
"o. c #664B1F",
"O. c #55402D",
"+. c #55412D",
"@. c #56402D",
"#. c #56412D",
"$. c #56412E",
"%. c #57412E",
"&. c #56412D",
"*. c #58412D",
"=. c #58422D",
"-. c #59422D",
";. c #5B422D",
":. c #58422E",
">. c #59422E",
",. c #59432F",
"<. c #5A432F",
"1. c #5A442F",
"2. c #5B442F",
"3. c #5C442E",
"4. c #5E462F",
"5. c #5A432F",
"6. c #5C4530",
"7. c #5D4630",
"8. c #5F4731",
"9. c #5F4631",
"0. c #5D4530",
"q. c #6A522B",
"w. c #614731",
"e. c #604832",
"r. c #614832",
"t. c #624932",
"y. c #634932",
"u. c #624933",
"i. c #634933",
"p. c #634A33",
"a. c #644A33",
"s. c #644B33",
"d. c #654B34",
"f. c #664B34",
"g. c #664C34",
"h. c #674C34",
"j. c #674D35",
"k. c #654B34",
"l. c #684D35",
"z. c #684D35",
"x. c #926C1F",
"c. c #B27C0F",
"v. c #886724",
"b. c #9C7422",
"n. c #9F7C33",
"m. c #BD830D",
"M. c #D3AC5A",
"N. c #D9B15E",
/* pixels */
"6 6 7 7 s s s s 6 6 3 3 6 6 6 6 6 6 6 6 7 7 6 6 6 6 6 6 6 6 6 6 6 6 6 6 6 6 7 7 7 7 6 6 6 6 7 7 s s s s s s s s 7 7 7 7 7 7 7 7 7 7 7 7 s s s 7 7 7 7 7 s s s s ",
"6 6 7 7 s s s s 6 6 3 3 6 6 6 6 6 6 6 6 7 7 6 6 6 6 6 6 6 6 6 6 6 6 6 6 6 6 7 7 7 7 6 6 6 6 7 7 s s s s s s s s 7 7 7 7 7 7 7 7 7 7 7 7 s s s s 7 7 7 7 s s s s ",
"h.h.l.l.l.l.l.l.[ ( 3 3 t.t.h.h.2.2._ _ U U s s s s P P $.$.$.$._ _ 3 3 ; ; ; ; > > 3 3 8 9 V V G / d.d.h.h.h.h.l.h.h.h.l.l.l.l.l.l.l.l.l.l.l.l.l.l.l.l.l.l.l.l.",
"h.h.l.l.l.l.l.l.[ [ 3 3 t.t.h.h.6.6.| _ U U s s s s P P $.$.$.$._ _ 3 3 ; ; = ; > > 3 3 9 9 V V G / h.h.h.h.h.h.l.h.h.h.l.l.l.l.l.l.l.l.l.l.l.l.l.l.l.l.l.l.l.l.",
"l.l.d.d.a.a.t.t.8 8 > > _ _ t.t.t.t.8.8.e.e.S f 6 6 s f :.:.q q = = : : , , , , > > : : ; ; : : ; ; = = , , :.:.l.l.l.l.l.l.h.h.a.a.a.a.d.d.a.a.a.a.a.a.t.a.l.l.",
"l.l.d.d.a.a.t.t.8 8 > > _ _ t.t.t.t.8.8.8.t.S f 6 6 s s :.:.q q = = > : , , , , > > : : ; ; : : ; ; = = , , 2.2.l.h.l.l.l.l.h.h.a.a.a.a.d.d.a.a.a.a.a.a.a.a.l.l.",
"7 7 6 6 6 6 s s 3 3 ; ; 3 3 U U _ _ :.:.:.:.f f 6 6 U P > > ; ; & &                             : : , , , , > > _ _ :.:.:.:.U U s s f f f f f f f f f f S S l.l.",
"7 7 6 6 6 6 s s 3 3 ; ; 3 3 U U _ _ $.:.:.:.f f 6 6 U P > > ; ; & &                             : : , , , , > > _ _ :.:.:.:.U U s s f f f f f f f f f f S S l.l.",
"f f f f Q Q t.t.< < = = V V l.l.l.l.l.l.a.a.f f 2 2 , , > >                                         + + ; ; 3 3 9 9 J J P P P P U U U U | | 8.8.8.8.t.t.d.d.l.l.",
"f f f f Q Q t.t.< < = = V V l.l.l.l.l.l.a.a.f f 2 2 , , > >                                         + + ; ; 3 3 9 9 J J P P P P U U U U | | 8.8.8.8.t.t.d.d.l.l.",
"$.$.| | :.:.G G , < = = 9 9 t.t.t.t.t.t.$.$.2 2 , , , ,                                                     ; ; C C F F l.l.l.l.l.l.l.l.l.l.l.l.l.l.l.l.l.l.l.l.",
"$.$.| | :.:.G G < < = = 9 9 t.t.t.t.t.t.$.$.2 2 , , , ,                                                     ; ; C C F F l.l.l.l.l.l.l.l.l.l.l.l.l.l.l.l.l.l.l.l.",
"t.t.:.:. . .8 8 , , = = 3 3 $.$.$.$.:.:.q q , , - -                                                             q q ( ( F F l.l.l.l.l.l.l.l.l.l.l.l.l.l.l.l.l.l.",
"t.t.:.:.| | 8 8 , , = = 3 3 $.$.$.$.:.:.q q , , - -                                                             q q ( ( F F l.l.l.l.l.l.l.l.l.l.l.l.l.l.l.l.l.l.",
"U U S S S S 3 3 , , = = 8 8 h.h.h.h.:.:., , : :                                                                     V V / / :.:.8.8.t.t.t.t.t.t.a.a.a.a.a.a.d.d.",
"U U S S S S 3 3 , , = = 8 8 h.h.h.h.:.:., , : :                                                                     V V / / :.:.8.8.t.t.t.t.t.t.a.a.a.a.a.a.d.d.",
"l.l.a.a.t.t.3 3 , , = = 3 3 t.t.9 9 , , 9 9                                                                         + + G G 9 9 U U Q Q Q Q Q Q _ _ U U U U t.a.",
"l.l.a.a.t.t.3 3 , , = = 3 3 t.t.9 9 , , 9 9                                                                         + + G G 9 9 U U Q Q Q Q Q Q _ _ U U U U a.a.",
"2.2.$.$.U U 3 3 , , ; ; , , q e = = e e # #                                         o o                                 & & V V e e | |  . .$.$.$.$.| | | | t.t.",
"2.2.$.$.U U 3 3 , , ; ; , , e e = = e e # #                                         o o o o                             & & V V e V | |  . .$.$.$.$.| | | | t.t.",
"a.a.2.2.e e 3 3 3 3 : : > > : : , , 3 3                         o   o o o o o o o o o o o o o o o o o o                     9 9 8 8 l.l.l.l.l.l.l.l.l.l.l.l.8.8.",
"a.a.2.2.e e 3 3 3 3 : : > > : : , , 3 3                         o o o o o o o o o o o o o o o o o o o o                     9 9 8 8 l.l.l.l.l.l.l.l.l.l.l.l.8.8.",
"l.l.l.l.q q 3 3 3 3 : : = = ; ; , , O O                     o o o o o o o o o o o o o o o o o o o o o o o o o o             . . 3 3 0 0 l.l.l.l.l.l.l.l.l.l.8.8.",
"l.l.l.l.q q 3 3 3 3 : : ; = ; ; , , O O                     o o o o o o o o o o o o o o o o o o o o o o o o o o             . . 3 3 0 0 l.l.l.l.l.l.l.l.l.l.8.8.",
"t.t.t.t.8 8 3 3 9 9 > : = = > > : :                 o o o o o o o o o o o $ $ $ $ $ $ $ $ $ o o o o o o o o o o o o             8 8 3 3 $.$.8.8.8.8.:.:.| | f f ",
"t.t.t.t.8 8 3 3 9 9 : : = = > > : :                 o o o o o o o o o o o o $ $ $ $ $ $ $ $ o o $ o o o o o o o o o o o         8 8 3 3 $.$.8.8.8.8.:.:.| | f k ",
"6 6 6 6 3 3 3 3 9 9 : : = = , , # #             o o o o o o o o o o $ $ $ $ $ $ $ $ $ $ $ $ $ $ $ $ $ $ o o o o o o o o o           8 3 3 3 7 7 6 6 6 6 6 6 6 6 ",
"6 6 6 6 3 3 3 3 9 9 : : = = , , # #             o o o o o o o o o o $ $ $ $ $ $ $ $ $ $ $ $ $ $ $ $ $ $ o o o o o o o o o           8 3 3 3 7 7 6 6 6 6 6 6 6 6 ",
"S S f f 9 9 3 3 V V ; ; = = , , . .         o o o o o o o o $ $ $ $ $ $ $ $ % % % % % % % % $ $ $ $ $ $ $ $ $ $ o o o o o o         V V 3 3 8.8.t.t.t.t.s s 7 7 ",
"S S f f 9 9 3 3 V V ; ; ; = , , . .         o o o o o o o o $ $ $ $ $ $ $ $ % % % % % % % % $ $ $ $ $ $ $ $ $ $ o o o o o o         V V 3 3 8.8.t.t.t.t.s s 7 7 ",
"f f f f 0 0 3 3 V V ; ; = = : :             o o o o o o $ $ $ $ $ $ % % % % % % % % % % % % % % % % % $ $ $ $ $ $ $ o o o o o o     @ @ 3 3 3.3.l.l.l.l._ _ 6 6 ",
"f f f f 0 0 3 3 V V ; ; = = : :             o o o o o o $ $ $ $ $ $ % % % % % % % % % % % % % % % % $ $ $ $ $ $ $ $ o o o o o o     @ @ 3 3 3.3.l.l.l.l._ _ 6 6 ",
"s s u u V V 8 8 V V ; ; ; ; - -         o o o o o o $ $ $ $ $ $ % % % % % % 4 4 4 4 4 4 4 4 % % % % % % % % $ $ $ $ $ $ o o o o   o     9 8 , , $.$.| | S S 6 6 ",
"s s u s V V 8 8 V V ; ; ; ; - -         o o o o o o $ $ $ $ $ $ % % % % % % 4 4 4 4 4 4 4 4 % % % % % % % % $ $ $ $ $ $ o o o o         8 8 , , $.$.| | S S 6 6 ",
"$.$.:.:.C C 9 9 V V ; ; ; ; + +         o o o o $ $ $ $ $ $ % % % % % % 4 4 4 4 4 4 4 4 4 4 4 4 4 4 % % % % % % $ $ $ $ o o o o o o     , , : ; s s 7 7 6 6 6 6 ",
"$.$.:.:.C C 9 9 V V ; ; ; ; + +         o o o o $ $ $ $ $ $ % % % % % % 4 4 4 4 4 4 4 4 4 4 4 4 4 4 % % % % % % $ $ $ $ o o o o o o     , , : ; s s 7 7 6 6 6 6 ",
"$.$.8.8.C C 9 9 9 9 ; ; ; ;         o o o o o o $ $ $ $ % % % % % % 4 4 4 4 4 4 4 4 4 4 4 4 4 4 4 4 4 4 % % % % $ $ $ $ o o o o o o   o # # ; ; f f _ _ P P 6 6 ",
"$.$.8.8.C C 9 9 9 9 ; ; ; ;         o o o o o o $ $ $ $ % % % % % % 4 4 4 4 4 4 4 4 4 4 4 4 4 4 4 4 4 4 % % % % $ $ $ $ o o o o o o     # # ; ; f f _ _ P P 6 6 ",
"s s u u : : 8 8 , , = = = =         o o o o o o $ $ $ $ % % % % 4 4 4 4 4 4 5 5 5 5 5 5 5 5 5 5 4 4 4 4 % % % % % % $ $ $ $ o o o o     . . ; ; G G h.h.t.t.6 6 ",
"s s u u : : 8 8 , , = = = =         o o o o o o $ $ $ $ % % % % 4 4 4 4 4 4 5 5 5 5 5 5 5 5 5 5 4 4 4 4 % % % % % % $ $ $ $ o o o o     . . ; ; G G h.h.t.t.6 6 ",
"6 6 6 6 3 3 , , , , = = = = . .     o o o o $ $ $ $ $ $ % % % % 4 4 4 4 5 5 5 5 5 5 5 5 5 5 5 5 4 4 4 4 4 4 % % % % $ $ $ $ o o o o . o     ; ; 3 3 h.h.t.t.6 6 ",
"6 6 6 6 3 3 , , , , = = = = . .     o o o o $ $ $ $ $ $ % % % 4 4 4 4 4 5 5 5 5 5 5 5 5 5 5 5 5 4 4 4 4 4 4 % % % % $ $ $ $ o o o o o o     ; ; 3 3 h.h.t.t.6 6 ",
"s s q.q.n.n., , < < = = * * . .     o o o o $ $ $ $ % % % % 4 4 4 4 4 4 5 5 5 5 5 5 5 5 5 5 5 5 5 5 4 4 4 4 % % % % $ $ $ $ o o o o o   . . > > ; ; U U S S 6 6 ",
"s s q.q.n.n., , < < = = * * . .     o o o o $ $ $ $ % $ % % 4 4 4 4 4 4 5 5 5 5 5 5 5 5 5 5 5 5 5 5 4 4 4 4 % % % % $ $ $ $ o o o o o   . . > > ; ; U U S S 6 6 ",
"s s M.M.N.N.X.X.3 3 = = # #         o o o o $ $ $ $ % % % % 4 4 4 4 4 4 5 5 5 5 5 5 5 5 5 5 5 5 5 5 4 4 4 4 % % % % $ $ $ $ $ $ o o o X . . : : ; ; P P P P 6 6 ",
"s s M.M.N.N.X.X.3 3 = = # #         o o o o $ $ $ $ % % % % 4 4 4 4 4 4 5 5 5 5 5 5 5 5 5 5 5 5 5 5 4 4 4 4 % % % % $ $ $ $ $ $ o o o o . . : : ; ; P P P P 6 6 ",
"7 7 b.b.m.m.o.o.3 3 ; ; # #         o o o o o $ $ $ % % % % % % 4 4 4 4 5 5 5 5 5 5 5 5 5 5 5 5 5 5 4 4 4 4 % % % % $ $ $ $ o o o o o o . . ; ; ; ; h.h._ _ s s ",
"7 7 b.b.m.m.o.o.3 3 ; ; # #         o o o o $ $ $ $ % % % % % % 4 4 4 4 5 5 5 5 5 5 5 5 5 5 5 5 5 5 4 4 4 4 % % % % $ $ $ $ o o o o o o . . ; ; ; ; h.h._ _ s s ",
"$.$.x.x.c.c.X.X.3 3 ; ; # #         o o o o o o $ $ $ % % % % % 4 4 4 4 5 5 5 5 5 5 5 5 5 5 5 5 4 4 4 4 4 4 % % % % $ $ $ $ o o o o o o . . ; ; ; ; d.d.U U s s ",
"$.$.x.x.c.c.X.X.3 3 ; ; # #         o o o o o o $ $ % % % % % % 4 4 4 4 5 5 5 5 5 5 5 5 5 5 5 5 4 4 4 4 4 4 % % % % $ $ $ $ o o o o o o . . - - ; ; d.d.U U s s ",
"6.6.) ) v.v.> > 3 3 ; ; # #         o o o o o o $ $ $ $ % % % % 4 4 4 4 4 4 4 4 4 4 5 5 5 5 4 4 4 4 4 4 % % % % $ $ $ $ $ $ o o o o X X . . * * ; ; e.e.U U s s ",
"6.6.) ) v.v.> > 3 3 ; ; # #         o o o o o o $ $ $ $ % % % % 4 4 4 4 4 4 4 4 5 5 5 5 5 5 4 4 4 4 4 4 % % % % $ $ $ $ $ $ o o o o X X . . * * ; ; e.e.U U s s ",
"$.$.3 3 > > : : 3 3 = = & &         o o o o o o $ $ $ $ $ $ % % % % 4 4 4 4 4 4 4 4 4 4 4 4 4 4 4 4 % % % % % % $ $ $ $ o o o o o o     . . : : > > [ [ _ _ 6 6 ",
"$.$.3 3 > > : : 3 3 = = & &         o o o o o o $ $ $ $ $ $ % % % % 4 4 4 4 4 4 4 4 4 4 4 4 4 4 4 4 % % % % % % $ $ $ $ o o o o o o     . . : : > > @.@._ _ 6 6 ",
"7 7 , , u s 9 9 < < = = & &             o o o o o o $ $ $ $ % % % % % % % % 4 4 4 4 4 4 4 4 4 4 % % % % % % $ $ $ $ $ $ o o o o         . . , , , , 6 6 6 6 6 6 ",
"7 7 , , s s 9 9 < < = = & &             o o o o o o $ $ $ $ % % % % % % % % 4 4 4 4 4 4 4 4 4 4 % % % % % % $ $ $ $ $ $ o o o o         . . , , , , 6 6 6 6 6 6 ",
"U U 3 3 G G 3 3 G G : : * *             o o o o o o o o $ $ $ $ % % % % % % % % % % % % % % % % % % % % $ $ $ $ $ $ o o o o o o             8 8 < < S S f f f f ",
"U U 3 3 G G 3 3 G G : : * *             o o o o o o o o $ $ $ $ % % % % % % % % % % % % % % % % % % % % $ $ $ $ $ $ o o o o o o         .   8 8 < < S S f f f f ",
"t.t.u u G G 3 3 G G , , = =                 o o o o o o $ $ $ $ $ $ $ $ % % % % % % % % % % % % $ $ $ $ $ $ $ $ o o o o o o o o             9 9 3 3 8.8.8.8.8.8.",
"t.t.u u G G 3 3 G G , , = =                 o o o o o o $ $ $ $ $ $ $ $ % % % % % % % % % % % % $ $ $ $ $ $ $ $ o o o o o o o o             9 9 3 3 8.8.8.8.8.8.",
"a.d.s s V V 3 3 G F , , = =                     o o o o o o $ o $ $ $ $ $ $ $ $ $ $ $ $ $ $ $ $ $ $ $ $ $ $ o o o o o o o                   9 9 3 3 t.t.a.a.l.l.",
"a.d.u s V V 3 3 G C , , = =                     o o o o o o $ o $ $ $ $ $ $ $ $ $ $ $ $ $ $ $ $ $ $ $ $ $ $ o o o o o o o o                 9 9 3 3 t.t.a.a.l.l.",
"6 6 2 2 q q 3 3 V V > > = =                         o o o o o o o o o o $ $ $ $ $ $ $ $ $ $ $ $ $ $ o o o o o o o o o o                     3 3 3 3 h.h.l.l.8.8.",
"6 6 2 2 q q 3 3 V V > > = =                         o o o o o o o o o o $ $ $ $ $ $ $ $ $ $ $ $ $ $ $ o o o o o o o o o                     3 3 3 3 h.h.l.l.8.8.",
"S S f f q q 3 3 9 9 : : = =                             o o o o o o o o o o o o o o o o o o o o o o o o o o o o                         # # < 3 3 3 2.2. . .P P ",
"S S f f q q 3 3 9 9 : : = =                             o o o o o o o o o o o o o o o o o o o o o o o o o o o o                         # # 3 3 3 3 2.2. . .P P ",
"l.l.h.h.3.3.3 3 8 8 = = ; ;                                 . . o o o o o o o o o o o o o o o o o o o o o o             . . . .     + + 3 3 / / 3 3 e.e.t.t.d.d.",
"l.l.h.h.3.3.3 3 8 8 = = ; ;                                 . . o o o o o o o o o o o o o o o o o o o o o o             . . . .     + + 3 3 / / 3 3 e.e.t.t.d.d.",
"h.h.l.l.t.t.3 3 , , = = = = 8 8 < < > > , , , , 3 3 9 9 2 3 , , : : ; ; - - - - - - ; ; ; ; ; ; : : : : : : : : ; ; ; ; * * & & * * , , V V F F 3 3 l.l.l.l.a.a.",
"h.d.l.l.t.t.3 3 , , = = = = 8 8 < < > > , , , , 3 3 9 u 3 3 , , : : ; ; - - - - - - ; ; ; ; ; ; : : : : : : : : ; ; ; ; * * & & * * , , V V F F 3 3 l.l.l.l.a.a.",
"s s 7 7 f f > > = = = = = = ; ; ; ; : : > > > > > > , , 3 3 3 3 3 3 3 3 3 3 3 3 3 3 < < 3 3 3 3 3 3 3 3 3 3 3 3 3 3 3 3 3 3 3 3 3 3 3 3 < < , , u u | | k k f f ",
"s s 7 7 f f > > = = = = = = ; ; ; ; : : > > > > > > , , 3 3 3 3 3 3 3 3 3 3 3 3 3 3 < < 3 3 3 3 3 3 3 3 3 < 3 3 3 3 3 3 3 3 3 3 3 3 3 3 < < , , u u | | f k f f ",
"h.h.8.8.8.8.e.e.t.t.d.d.a.t.e.t.t.t.e.e.8.8.3.3.e.e.e.e.d.d.d.d.u.u.u.d.h.h.u.u.u.u.h.h.h.h.6.6.s s s s 8.8.6.6._ | | | | | | | | | | |  . .Q Q U U P P f f _ _ ",
"h.h.8.8.8.8.e.e.t.t.d.d.a.a.e.e.t.t.e.e.8.8.3.3.e.e.e.e.d.d.d.d.u.u.u.d.h.h.u.u.u.u.h.h.h.h.6.6.s s s s 8.8.6.6._ _ | | | | | | | | | |  . .Q Q U U P P f f _ _ ",
"J J s s s s s s P P P P P P P P P P P P P P U U U U | _ $.$.6.6.$.$.| | | | E E E E E E U U f f 7 7 7 7 _ _ t.t.h.h.d.d.h.h.h.h.h.h.h.h.h.h.h.h.h.h.d.d.d.d.l.l.",
"J J s s s s s s P P P P P P P P P P P P P P U U U U _ _ $.$.6.6.$.$.| | | | E E E E U Q U U f f 7 7 7 7 _ _ t.t.h.h.h.d.d.d.d.h.h.h.h.h.h.h.h.h.h.h.d.d.d.d.l.l.",
"s s 6 6 6 6 7 7 U U U U _ _ | | Q Q U U U U J J f f f f f f P P $.$.8.8.t.t.h.h.h.h.h.h.h.h.:.:.6 6 6 6 $.$.$.$.$.$.$.$.$.$.$.$.$.$.$.$.$.$.$.$.$.$.| |  . .6.6.",
"s s 6 6 6 6 7 7 U U U U _ _ | | Q Q U U U U J J f f f f f f P P $.$.8.8.t.t.h.h.h.h.h.h.h.h.:.:.6 6 6 6 $.$.$.$.$.$.$.$.$.$.$.$.$.$.$.$.$.$.$.$.$.$.| |  . .6.6.",
":.:.t.t.d.d.l.l.l.l.l.l.l.l.l.l.l.l.l.l.l.l.l.l.l.l.l.l.l.l.h.l.l.l.l.l.l.l.l.l.l.l.l.l.l.l.8.8.6 6 6 6 8.8.8.8.8.8.8.8.8.8.6.6.2.2.:.:.:.:.:.:.:.:.:.:.2.2.8.8.",
":.:.t.t.d.d.l.l.l.l.l.l.l.l.l.l.l.l.l.l.l.l.l.l.l.l.l.l.l.l.l.l.l.l.l.l.l.l.l.l.l.l.l.l.l.l.8.8.6 6 6 6 8.8.8.8.8.8.8.8.8.8.6.6.2.2.:.:.:.:.:.:.:.:.:.:.2.2.8.8."
};
