/* XPM */
static const char *enemie2[] = {
/* columns rows colors chars-per-pixel */
"80 80 88 1 ",
"  c #070303",
". c #0C0606",
"X c #160B0B",
"o c #1A0D0D",
"O c #351F19",
"+ c #3B241C",
"@ c #3C2F22",
"# c #3F3023",
"$ c #41251E",
"% c #4D251F",
"& c #452B20",
"* c #4C2A21",
"= c #522621",
"- c #443426",
"; c #483627",
": c #493728",
"> c #4D3A29",
", c #523D2C",
"< c #5C3F2F",
"1 c #762726",
"2 c #792928",
"3 c #772F31",
"4 c #693732",
"5 c #733330",
"6 c #713B30",
"7 c #56412D",
"8 c #5A432F",
"9 c #5D4631",
"0 c #604731",
"q c #644A33",
"w c #684D35",
"e c #744534",
"r c #7B4135",
"t c #714834",
"y c #764338",
"u c #832B2A",
"i c #8A2C2B",
"p c #952E2D",
"a c #9D2F2E",
"s c #94322F",
"d c #9D302F",
"f c #823B38",
"g c #953233",
"h c #9D3332",
"j c #A13635",
"k c #A43D3C",
"l c #A54443",
"z c #A74140",
"x c #A84140",
"c c #A94544",
"v c #AB4848",
"b c #AC4B4A",
"n c #AD4D4C",
"m c #AF504F",
"M c #B05151",
"N c #B35756",
"B c #B65D5C",
"V c #B8605F",
"C c #BB6565",
"Z c #BC6867",
"A c #C0706F",
"S c #C37474",
"D c #C37574",
"F c #CB8281",
"G c #CD8786",
"H c #D28F8F",
"J c #C99392",
"K c #D49493",
"L c #D59595",
"P c #D69696",
"I c #D79898",
"U c #D89A9A",
"Y c #DCA2A2",
"T c #DDA4A4",
"R c #DEA6A6",
"E c #D4A8A8",
"W c #E2ACAC",
"Q c #E4AFAF",
"! c #E6B4B4",
"~ c #E8B7B7",
"^ c #E8B8B8",
"/ c #E9BAB9",
"( c #ECBFBF",
") c #EDC1C1",
"_ c #EEC2C2",
"` c #EEC3C3",
"' c #EFC5C5",
"] c #F0C6C6",
/* pixels */
"@@##----@@@@@@@@@@@@##@@@@@@@@@@@@@@@@##########--------############--######----",
"@@##----@@@@@@@@@@@@##@@@@@@@@@@@@@@@@##########----##--###@########----####----",
"wwwwwwwwwwwwwwww88,,>>----::7777888888889900qqwwwwwwwwwwwwwwwwwwwwwwwwwwwwwwwwww",
"wwwwwwwwwwwwwwww88,,>>----::7777888888889900qqwwwwwwwwwwwwwwwwwwwwwwwwwwwwwwwwww",
"wwqqqqqq009999qqqq9999;;@@;;8800qqqqqq009999999999qqwwwwwwwwwwwwqqqqqqqqqqqqqqww",
"wwqqqqqq009999qqqq9999;;@@;-8890qqqqqq009999999999qqwwwwwwwwwwwwqqqqqqqqqqqqqqww",
"##@@@@--;;;;;;>>,,7788;;@@,>88888899qqqqqqqqqq0099999999998888>>--;;;;;;;;;;;;ww",
"##@@@@--;;;;;;>>,,7788;;@@,,88888899qqqqqqqqqq0099999999998888>>--;;;;;;;;;;;;ww",
";;;;>>wwwwwwwwwwwwwwqq;;@@>>8899qqqq00999988,,>>>>,,,,>>::::::::>>>>,,9999qqqqww",
";;;;>>wwwwwwwwwwwwwwqq;;@@>>8899qqqq00999988,,>>>:,,,,>>::::::::>>>>,,9999qqqqww",
"77,,889900qqqqqqqqqq77----88wwwwww9977,,>>>>,,88889999qqqqwwwwwwwwwwwwwwwwwwwwww",
"77,,889900qqqqqqqqqq77----88wwwwww9988,,>>>>,,88889999qqqqwwwwwwwwwwwwwwwwwwwwww",
"qq88,,77888877777788,,----77999988,,,,7799qqwwwwwwwwwwwwwwwwwwwwwwwwwwwwwwwwwwww",
"qq88,,77888877777788,,----77999988,,,,7799qqwwwwwwwwwwwwwwwwwwwwwwwwwwwwwwwwwwww",
">>;;;;,,qqqqqqqwwwww88---->>::>>,,,,,,,,77878888888888888888999999qqqqqqqqqqqqqq",
">>;;;;,,qqqqqqwwwwww88---->>::>>,,,,,,,,77878888888888888888999999qqqqqqqqqqqqqq",
"wwqqqqqqqqqqqqqqqqqq,,---->>7788777777777788778888888888,,>>>>>>>>>>,,>>,,>>>>qq",
"wwqqqqqqqqqqqqqqqqqq,,---->>7788777777777788777888888888,,>>>>>>>>>>,,>>,,>>>>qq",
"88778888888899889999,,----,,qqwwwwwwwwqqqqqqqqqqqqqqqqqq99777777,,,,,,7777,,,,qq",
"88778888888899889999,,----,,qqwwwwwwwwqqqqqqqqqqqqqqqqqq99777777,,,,,,7777,,,,qq",
"qq8877777788qqqqwwqq88;;@@,,00wwwwwwwwwwqqqqqqqqqqqqqqqqqqqqqqqqwwwwwwwwwwwwww99",
"qq8877777788qqqqwwqq88;;@@,,00wwwwwwwwwwqqqqqqqqqqqqqqqqqqqqqqqqwwwwwwwwwwwwww99",
"wwwwwwwwwwwwwwwwww9999--@@7777wwwwwwwwwwwwwwwwwwwwwwwwwwwwwwwwwwwwwwwwwwwwwwww99",
"wwwwwwwwwwwwwwwwwwqq99--@@7777wwwwwwwwwwwwwwwwwwwwwwwwwwwwwwwwwwwwwwwwwwwwwwww99",
"qqqqqqqqqqqqqqqqqq9988@@@@;;--88qqqqqqwwwwwwqqqqqqqqqqqq99999999998877999988,,;;",
"qqqqqqqqqqqqqqqqqq9988@@@@;;--88qqqqqqwwwwwwqqqqqqqqqqqq99999999998877999988,,;;",
"@@@@@@@@@@@@@@@@@@@@@@@@--@@@@@@@@@@@@@@@@@@@@@@@@@@@@@@@@@@@@@@@@@@####@@@@@@@@",
"@@@@@@@@@@@@@@@@@@@@@@@@--@@@@@@@@@@@@@@@@@@@@@@@@@@@@@@@@@@@@@@@@@@####@@@@@@@@",
";;;;::::::::>>,,,,,,,,>>qq>>>>,,,,778899999900909900qqqqqq99998888999999qqqq--##",
";;;;::::::::>>,,,,,,,,>>qq>>>>,,,,7788999999000099qqqqqqqq99998888999999qqqq--##",
";;;;;;--;;>>>>,,,,,,77889900qq0099qqqqqqqqqqqqwwwwwwwwwwwwwwwwwwwwwwwwwwwwww,,@@",
";;;;;;--;;>>>>,,,,,,77889900qq0099qqqqqqqqqqqqwwwwwwwwwwwwwwwwwwwwwwwwwwwwww,,@@",
"----;;;;;;::::::>>>>,,8800qqqwwwwwwwwwqqqqqqqqqqqqqqqqqqqqqqqq999999998877,,;;@@",
"----;;;;;;::::::>>>>,,7800qqqwwwwwwwwwqqqqqqqqqqqqqqqqqqqqqqqq999999998877,,;;@@",
"7799wwwwwwwwwwwwwwwwwwwwwwwwwwwwwwwwwwqqqq9999999999999988887777,,,,,,,,--##@@@@",
"7799wwwwwwwwwwwwwwwwwwwwwwwwwwwwwwwwwwqqqq9999999999999988887777,,,,,,,,--##@@@@",
"7799wwwwqqqqqqqqqqqqqqqqqqqqqqqq8888,,>>>>>>,,88qqwwwwwwwwwwwwww77>>>>::;;,,::@@",
"7799wwwwqqqqqqqqqqqqqqqqqqqqqqqq8888,,>>>>>>,,88qqwwwwwwwwwwwwww77>>>>::;;,,::@@",
"------;;,,77778888999999999999qqqqqqqq009999qqqqwwwwwwwwwwwwwwwwwwwwwwwwwwwwqq@@",
"------;;,,77778888999999999999qqqqqqqq009999qqqqwwwwwwwwwwwwwwwwwwwwwwwwwwwwqq@@",
"@@@@@@####;;>>>>>>>>>>>>>>,,77889900qqqqqqqqqqqqwwwwwwwwwwwwwwwwwwwwwwqqwwwwqq@@",
"@@@@@@####;;>>>>>>>>>>>>>>,,77889900qqqqqqqqqqqqwwwwwwwwwwwwwwwwwwwwwwqqwwwwqq@@",
"--::99qqwwwwwwqqqq999988,,,,>>>>>:>>>>,,99qqwwwwwwqqqqqqqqqq88887777,,,,>>>>;;@@",
"--::99qqwwwwwwqqqq999988,,,,>>>>>:>>,,,,99qqwwwwwwqqqqqqqqqq88887777,,,,>>>>;;@@",
"--####;;,,9999888877,,,,,,,,,,::;;;;;;----;;>>,,,,,,778899998877,,,,>>>>>>::::@@",
"--####;;,,9999888877,,,,,,,,,,::;;;;;;--;-;;>>,,,,,,778899998877,,,,>>>>>>::::@@",
"####;;;;>:>>,,,,,,,,,,>>>>>>>>::::::::::::::::::::>>,,8809qq00qqqqqqqqwwwwww,,--",
"####;;;;>>>>,,,,,,,,,,>>>>>>>>::::::::::::::::::::>>,,8899qq00qqqqqqqqwwwwww,,-#",
"7788qqqq99999999999999999999qqqqyyrreetttttttteeeewwwwwwwwwwwwwwwwwwwwwwwwqq>>--",
"7788qqqq099999999999999999q9qqqqyyrreetttttttteeeewwwwwwwwwwwwwwwwwwwwwwwwqq>>--",
"997700qqqqqq99999900yyaaaaaaaaaaaakkhhaaaaaaaaaaaaaaaaaaaaaayywwwqqqqqqqwwqq>>--",
"998700qqqqqq99999900yyaaaaaaaaaaaakkhhaaaaaaaaaaaaaaaaaaaaaayywwwwqqqqqqwwqq>>--",
"77,,,,,,,,>>::44aaaaaajjDDLLIIKKHHGGmmddaaaaaaaaaaaaaaaaaaaaaaaaaa,,qqqqqq88,,@@",
"77,,,,,,,,>>::44aaaaaajjDDLLIIKKHHGGmmddaaaaaaaaaaaaaaaaaaaaaaaaaa,,qqqqqq88,,@@",
"##@@@@@@@@@@aaaaaannUU////LLBBkkaaaaaaaaaaaaaaaaaaaaaaaaaaaaaaaaaaaagg##-#@@@@@@",
"##@@@@@@@@@@aaaaaannUU////LLBBkkaaaaaaaaaaaaaaaaaaaaaaaaaaaaaaaaaaaagg####@@@@@@",
">>>>::;;;;aaaakk!!''~~GGllaaaaaaaaaaaaaaaaaaaaaaaaxxaaaaaaaaaaaaaddaaadd>>::;;;;",
">>>>::;;;;aaaakk!!''~~GGllaaaaaaaaaaaaaaaaaaaaaaaaxxaaaaaaaaaaaaaadaaadd>>::;;;;",
"qqqqqqwwaaaakk((''((ZZaaJJ..aaaaaaaappppppppppppdhEEXXaaaaaaaaaaaaaaaaaaff999999",
"qqqqqqwwaaaakk((''((ZZaaJJ..aaaaaaaapppppppppppphhEEXXaaaaaaaaaaaaaaaaaaff999999",
"qq0099wwaaaaRR))))FFddaa  ..1122222222222222222222XX..iiaaaaaaaaaavvjjaaaaqqqqww",
"qq0099wwaaaaRR))))FFddaa  ..1122222222222222222222XX..iiaaaaaaaaaavvjjaaaaqqqqww",
"@@@@@@55aajj((RRMMaappiiXXXX2222222222222222222222oooo2222ppaaaaaaLLCCaaaawwww99",
"@@@@@@55aajj((RRMMaappiiXXXX2222222222222222222222oooo2222ppaaaaaaLLCCaaaawwww99",
";;::>>66aajjYYccaappuu222222222222222222222222222222222222uuaaaavv))DDaaaa00,,::",
";;::>>66aajjYYccaappuu222222222222222222222222222222222222uuaaaavv))DDaaaa00,,::",
"wwwwwwwwaahhVVaaaappuu22222222222222222222222222222222222222ppaa]]]]kkaaaa00qqqq",
"wwwwwwwwaahhVVaaaappuu22222222222222222222222222222222222222ppaa]]]]kkaaaa00qqqq",
"wwwwwwwwssaaaaaaaappuu222222222222222222222222222222222222uuaaQQ]]QQaaaaggwwwwqq",
"wwwwwwwwssaaaaaaaappuu222222222222222222222222222222222222uuaaQQ]]QQaaaaggwwwwqq",
"--##;;8888ssaaaaaaaappuu2222222222222222222222222222222222hhAAQQNNaaaaaa88,,;;;;",
"--##;;8888ssaaaaaaaappuu2222222222222222222222222222222222hhAAQQNNaaaaaa88,,;;;;",
"ww9999,,&&**iiaaaaaaaappppiiuuuuuu222222222222222222uuiippjjzzaaaaaa33++&&;;;;,,",
"ww9999,,&&**iiaaaaaaaappppiiuuuuuu222222222222222222uuiippjjzzaaaaaa33++&&;;;;,,",
"::--@@OO++++++$$iippaaaaaaaaaaaaaaaaaaaaaaaaaaaaaaaaaaaaaaaaaa55&&&&&&&&&&00qqww",
"::--@@OO++++++$$iippaaaaaaaaaaaaaaaaaaaaaaaaaaaaaaaaaaaaaaaaaa55&&&&&&&&&&00qqww",
"--@@@@++++++++++++++++++$$====%%**********&&&&$$OOOO+++$$+$$$$$$$$&&&&::,,,,,,99",
"--@@@@++++++++++++++++++$$====%%**********&&&&$$OOOO++++++$$$$$$$$&&&&:;,,,,,,99",
"88qqqqwwwwwwwwwwwwwwwwwwwwwwwwqq009988<<<<<<<<,,@@@@8899999999998888888888888899",
"88qqqqwwwwwwwwwwwwwwwwwwwwwwwwqq009988<<<<<<<<,,@@@@8899999999998888888888888899"
};
