/* XPM */
static const char *enemie6[] = {
/* columns rows colors chars-per-pixel */
"80 80 96 2 ",
"   c black",
".  c #0E0606",
"X  c #100707",
"o  c #120808",
"O  c #281313",
"+  c #39261D",
"@  c #3B2A1F",
"#  c #3C2F22",
"$  c #3F3023",
"%  c #3E3837",
"&  c #432E22",
"*  c #482F23",
"=  c #5E2F2C",
"-  c #443425",
";  c #4B3626",
":  c #493728",
">  c #4C3A29",
",  c #523728",
"<  c #523D2B",
"1  c #583E2C",
"2  c #682323",
"3  c #7B2929",
"4  c #62312F",
"5  c #6A3F30",
"6  c #793935",
"7  c #7B3E39",
"8  c #56412D",
"9  c #59432F",
"0  c #5D4530",
"q  c #614632",
"w  c #6C4534",
"e  c #644A33",
"r  c #684D35",
"t  c #734236",
"y  c #7C413A",
"u  c #544545",
"i  c #822A2A",
"p  c #8B2C2B",
"a  c #962E2D",
"s  c #9D2F2E",
"d  c #89352E",
"f  c #95332F",
"g  c #9D302F",
"h  c #843535",
"j  c #8E3434",
"k  c #833D34",
"l  c #8B3939",
"z  c #9E3131",
"x  c #A03534",
"c  c #A23837",
"v  c #A33C3B",
"b  c #A6403F",
"n  c #924746",
"m  c #A44342",
"M  c #A94444",
"N  c #AC4B4A",
"B  c #AF5150",
"V  c #B15453",
"C  c #B55A5A",
"Z  c #B36161",
"A  c #BA6463",
"S  c #BE6C6A",
"D  c #BE7170",
"F  c #C06F6E",
"G  c #C0706F",
"H  c #C87E7D",
"J  c #CB8483",
"K  c #CD8686",
"L  c #CE8887",
"P  c #D18F8F",
"I  c #D29190",
"U  c #D39191",
"Y  c #D59696",
"T  c #D79999",
"R  c #D89A9A",
"E  c #DA9F9F",
"W  c #DBA1A0",
"Q  c #DCA2A1",
"!  c #DCA2A2",
"~  c #DFA7A7",
"^  c #DFA8A7",
"/  c #DFA8A8",
"(  c #E1ABAA",
")  c #E0ABAB",
"_  c #E3AFAE",
"`  c #E4B0B0",
"'  c #E5B2B2",
"]  c #E5B3B3",
"[  c #E8B7B7",
"{  c #E8B9B9",
"}  c #E9BABA",
"|  c #EBBFBE",
" . c #ECBFBF",
".. c #EFC5C5",
"X. c #E9D4D4",
"o. c #F2E5E5",
/* pixels */
"# # $ $ - - - - # # # # # # # # # # # # $ $ # # # # # # # # # # # # # # # # $ $ $ $ $ # # # $ $ - - - - - - - - $ $ $ $ $ $ $ $ $ $ $ $ - - $ $ $ $ $ $ - - - - ",
"# # $ $ - - - - # # # # # # # # # # # # $ $ # # # # # # # # # # # # # # # # $ $ $ $ $ $ # # $ $ - - - - - - - - $ $ $ # $ $ $ $ $ $ $ $ - - - - $ $ $ $ - - - - ",
"r r r r r r r r r r r r r r r r 9 9 < < > > - - - - : : 8 8 8 8 9 9 9 9 q q q q q q w w w w w w r r r r r r r r r r r r r r r r r r r r r r r r r r r r r r r r ",
"r r r r r r r r r r r r r r r r 9 9 < < > > - - - - : : 8 8 8 8 9 9 9 9 q q q q q q w w w w w w r r r r r r r r r r r r r r r r r r r r r r r r r r r r r r r r ",
"r r e e e e e e q q 0 0 0 0 e e e q 0 0 0 0 - - 4 4 s s s s s s s s s s s s s s s s s s s s s s s s s s s s f f k k r r r r r r e e e e e e e e e e e e e e r r ",
"r r e e e e e e q q 0 0 0 0 e e e e 0 0 0 0 - - 4 4 s s s s s s s s s s s s s s s s s s s s s s s s s s s s f f k k r r r r r r e e e e e e e e e e e e e e r r ",
"$ $ # # # # - - - - - - : : > > < < 9 9 0 0 s s s s M M P P E E ! ! ! ! I I S S C C C C V V B B M M x x s s s s s s s s j j > > - - - - - - - - - - - - : : r r ",
"$ $ # # # # - - - - - - : : > > < < 9 8 0 0 s s s s M M P P E E ! ! ! ! I I S S C C C C V V B B M M x x s s s s s s s s j j > > - - - - - - - - - - - - : : r r ",
"- - - - > > r r r r r r r r r r r r y y s s N N ( (  . .' ' I I S S V V M M z z g g g g z z x x x x g g s s s s s s s s s s s s > > > > < < 0 0 0 0 e e e e r r ",
"- - - - > > r r r r r r r r r r r r y y s s N N ( (  . .' ' I I S S V V M M z z g g g g z z x x x x g g s s s s s s s s s s s s > > > > < < 0 0 0 0 e e e e r r ",
"8 8 < < 9 9 0 0 q q e e e e e e l l s s S F | | { { A A s s s s s s s s s s s s s s s s s s s s s s s s s s s s s s s s s s s s s s w w r r r r r r r r r r r r ",
"8 8 < < 9 9 0 0 q q e e e e e e l l s s F F | | { { A A s s s s s s s s s s s s s s s s s s s s s s s s s s s s s s s s s s s s s s w w r r r r r r r r r r r r ",
"e e 9 9 < < 8 8 9 9 9 9 8 8 6 6 s s C C { { ' ' v v s s X.X.O O s s p p p p i i i i 3 3 3 3 i i p p o.o.u u s s s s g g m m x x s s s s w w r r r r r r r r r r ",
"e e 9 9 < < 8 8 9 9 9 9 8 8 6 6 s s C C { { ' ' v v s s X.X.O O s s p p p p i i i i 3 3 3 3 i i p p o.o.u u s s s s g g m m x x s s s s w w r r r r r r r r r r ",
"> > : : : : < < e e e e e e s s z z W W ' ' M M s s s s % %     2 2 3 3 3 3 3 3 3 3 3 3 3 3 3 3 3 3 u u     3 3 p p s s N N A A s s s s f f e e e e e e e e e e ",
"> > : : : : < < e e e e e e s s z z W W ' ' M M s s s s % %     2 2 3 3 3 3 3 3 3 3 3 3 3 3 3 3 3 3 u u     3 3 p p s s N N A A s s s s f f e e e e e e e e e e ",
"r r e e e e e e e e e e w w s s V V _ _ H H s s s s 3 3 o o o o 3 3 3 3 3 3 3 3 3 3 3 3 3 3 3 3 3 3 X X . . 3 3 3 3 p p v v Y Y N N s s g g < < > < > > > > e e ",
"r r e e e e e e e e e e w w s s V V _ _ H H s s s s 3 3 o o o o 3 3 3 3 3 3 3 3 3 3 3 3 3 3 3 3 3 3 X X . . 3 3 3 3 p p v v Y Y N N s s g g < < > < > > > > e e ",
"9 9 8 8 9 9 9 9 9 9 9 9 5 5 s s V V / / M M s s 3 3 3 3 3 3 3 3 3 3 3 3 3 3 3 3 3 3 3 3 3 3 3 3 3 3 3 3 3 3 3 3 3 3 3 3 v v ~ ~ L L s s s s 8 8 8 8 < < < < e e ",
"9 9 8 8 9 9 9 9 9 9 9 9 5 5 s s V V / / M M s s 3 3 3 3 3 3 3 3 3 3 3 3 3 3 3 3 3 3 3 3 3 3 3 3 3 3 3 3 3 3 3 3 3 3 3 3 v v ~ ~ L L s s s s 8 8 8 8 < < < < e e ",
"e e 9 9 8 8 8 8 8 8 9 9 w w s s M M E E v v s s 3 3 3 3 3 3 3 3 3 3 3 3 3 3 3 3 3 3 3 3 3 3 3 3 3 3 3 3 3 3 3 3 3 3 3 3 m m  . .T T s s s s r r r r r r r r 0 0 ",
"e e 9 9 8 8 8 8 8 8 9 9 w w s s M M E E v v s s 3 3 3 3 3 3 3 3 3 3 3 3 3 3 3 3 3 3 3 3 3 3 3 3 3 3 3 3 3 3 3 3 3 3 3 3 m m  . .T T s s s s r r r r r r r r 0 0 ",
"r r r r r r r r r r r r r r s s s s A A v v s s 3 3 3 3 3 3 3 3 3 3 3 3 3 3 3 3 3 3 3 3 3 3 3 3 3 3 3 3 3 3 3 3 3 3 3 3 D D ....G G s s k k r r r r r r r r 0 0 ",
"r r r r r r r r r r r r r r s s s s A A v v s s 3 3 3 3 3 3 3 3 3 3 3 3 3 3 3 3 3 3 3 3 3 3 3 3 3 3 3 3 3 3 3 3 3 3 3 3 D D ....G G s s k k r r r r r r r r 0 0 ",
"e e e e e e e e e e e e e e t t s s c c b b s s 3 3 3 3 3 3 3 3 3 3 3 3 3 3 3 3 3 3 3 3 3 3 3 3 3 3 3 3 3 3 3 3 3 3 l l [ [ ^ ^ v v d d 8 8 0 0 0 0 9 9 < < - - ",
"e e e e e e e e e e e e e e t t s s c c b b s s 3 3 3 3 3 3 3 3 3 3 3 3 3 3 3 3 3 3 3 3 3 3 3 3 3 3 3 3 3 3 3 3 3 3 l l [ [ ^ ^ v v d d 8 8 0 0 0 0 9 9 < < - - ",
"# # # # # # # # # # # # # # # # = = s s s s s s s s 3 3 3 3 3 3 3 3 3 3 3 3 3 3 3 3 3 3 3 3 3 3 3 3 3 3 3 3 3 3 n n ( ( R R M M p p & & $ $ $ $ # # # # # # # # ",
"# # # # # # # # # # # # # # # # = = s s s s s s s s 3 3 3 3 3 3 3 3 3 3 3 3 3 3 3 3 3 3 3 3 3 3 3 3 3 3 3 3 3 3 n n ( ( R R M M p p & & $ $ $ $ # # # # # # # # ",
"- - - - : : : : : : : : > > < < < < < < s s s s s s s s p p 3 3 3 3 3 3 3 3 3 3 3 3 3 3 3 3 3 3 3 3 3 3 h h Z Z J J K K s s g g 0 0 0 0 0 0 0 0 e e e e - - $ $ ",
"- - - - : : : : : : : : > > < < < < < < s s s s s s s s p p 3 3 3 3 3 3 3 3 3 3 3 3 3 3 3 3 3 3 3 3 3 3 h h Z Z J J K K s s g g 0 0 0 0 0 0 0 0 e e e e - - $ $ ",
"- - - - - - - - - - > > > > < < < < < < 8 8 j j s s s s s s s s s s s s s s s s s s s s a a a a s s x x N N M M z z s s y y r r r r r r r r r r r r r r < < # # ",
"- - - - - - - - - - > > > > < < < < < < 8 8 j j s s s s s s s s s s s s s s s s s s s s a a a a s s x x N N M M z z s s y y r r r r r r r r r r r r r r < < # # ",
"- - - - - - - - - - : : : : : : > > > > < < 9 9 0 0 t t f f s s s s s s s s s s s s s s s s s s s s z z z z 7 7 e e e e e e 0 0 0 0 0 0 0 0 9 9 8 8 < < : : # # ",
"- - - - - - - - - - : : : : : : > > > > < < 8 9 q 0 t t f f s s s s s s s s s s s s s s s s s s s s z z z z 7 7 e e e e e e 0 0 0 0 0 0 0 0 9 9 8 8 < < : : # # ",
"8 8 0 0 r r r r r r r r r r r r r r r r r r r r r r r r r r r r r r r r w w w w w w q q q q 0 0 0 0 0 0 0 0 0 0 9 9 9 9 8 8 8 8 < < < < < < < < - - $ $ # # # # ",
"8 8 0 0 r r r r r r r r r r r r r r r r r r r r r r r r r r r r r r r r w w w w w w q q q q 0 0 0 0 0 0 0 0 0 0 9 9 9 9 8 8 8 8 < < < < < < < < - - $ $ # # # # ",
"8 8 0 0 r r r r e e e e e e e e e e e e e e e e e e e e e e e e 9 9 9 9 < < > > > > > > < < 9 9 e e r r r r r r r r r r r r r r 8 8 > > > > : : - - < < > : # # ",
"8 8 0 0 r r r r e e e e e e e e e e e e e e e e e e e e e e e e 9 9 9 9 < < > > > > > > < < 9 9 e e r r r r r r r r r r r r r r 8 8 > > > > : : - - < < : : # # ",
"- - - - - - - - < < 8 8 8 8 9 9 9 9 0 0 0 0 0 0 0 0 0 0 0 0 e e e e e e e e e e 0 0 0 0 e e e e r r r r r r r r r r r r r r r r r r r r r r r r r r r r e e # # ",
"- - - - - - - - < < 8 8 8 8 9 9 9 9 0 0 0 0 0 0 0 0 0 0 0 0 e e e e e e e e e e 0 0 0 0 e e e e r r r r r r r r r r r r r r r r r r r r r r r r r r r r e e # # ",
"# # # # # # $ $ $ $ - - > > > > > > > > > > > > > > < < 8 8 9 9 0 0 q q e e e e e e e e e e e e r r r r r r r r r r r r r r r r r r r r r r e e r r r r e e # # ",
"# # # # # # $ $ $ $ - - > > > > > > > > > > > > > > < < 8 8 9 9 0 0 q q e e e e e e e e e e e e r r r r r r r r r r r r r r r r r r r r r r e e r r r r e e # # ",
"- - : : 0 0 e e r r r r r r e e e e 0 0 0 0 9 9 < < < < > > > > : : > > > > < < 0 0 e e r r r r r r e e e e e e e e e e 9 9 8 9 8 8 8 8 < < < < > > > > : : # # ",
"- - : : 0 0 e e r r r r r r e e e e 0 0 0 0 9 9 < < < < > > > > > : > > > > < < 0 0 e e r r r r r r e e e e e e e e e e 9 9 9 9 8 8 8 8 < < < < > > > > : : # # ",
"- - - - $ $ - - < < 0 0 0 0 9 9 9 9 8 8 < < < < < < < < < < : : : : - - - - - - - - : : > > < < < < < < 8 8 9 9 0 0 0 0 9 9 8 8 < < < < > > > > > > : : : : # # ",
"- - - - $ $ - - < < 0 0 0 0 9 9 9 9 8 8 < < < < < < < < < > : : : : - - - - - - - - : : > > < < < < < < 8 8 9 9 0 0 0 0 9 9 8 8 < < < < > > > > > > : : : : # # ",
"$ $ $ $ - - - - > > > > < < < < < < < < < < > > > > > > > > : : : : : : > > > > : : : : : : : : : : > > < < 9 9 0 0 e e q q e e e e e e e e r r r r r r < < - - ",
"$ $ $ $ - - - - > > > > < < < < < < < < < < > > > > > > > > : : : : : : > > > > : : : : : : : : : : > > < < 9 9 0 0 e e q q e e e e e e e e r r r r r r < < - $ ",
"8 8 9 9 e e e e 0 0 0 0 0 0 0 0 0 0 0 0 0 0 0 0 0 0 0 0 e e e e e e r r r r r r r r r r r r r r r r r r r r r r r r r r r r r r r r r r r r r r r r e e > > - - ",
"8 8 9 9 e e e e 0 0 0 0 0 0 0 0 0 0 0 0 0 0 0 0 0 0 0 0 e e e e e e r r r r r r r r r r r r r r r r r r r r r r r r r r r r r r r r r r r r r r r r e e > > - - ",
"0 0 9 9 q q e e e e e e 0 0 0 0 0 0 q q e e e e e e e e e e e e e e e e e e e e e e e e e e r r r r r r r r r r r r r r r r r r r r e e e e e e r r e e > > - - ",
"0 0 9 9 q q e e e e e e 0 0 0 0 0 0 q q e e e e e e e e e e e e e e e e e e e e e e e e e e r r r r r r r r r r r r r r r r r r r r e e e e e e r r e e > > - - ",
"8 8 < < < < < < < < > > : : : : : : > > < < 8 8 9 9 9 9 9 9 9 9 8 8 8 8 < < < < < < < < 8 8 8 8 8 8 9 9 e e e e e e 9 9 < < > > - - : : e e e e e e 9 9 < < # # ",
"8 8 < < < < < < < < > > : : : : : : > > < < 8 8 9 9 9 9 9 9 9 9 8 8 8 8 < < < < < < < < 8 8 8 8 8 8 9 9 e e e e e e 9 9 < < : > - - : : e e e e e e 9 9 < < # # ",
"$ $ # # # # # # # # # # $ $ $ $ # # # # - - - - $ $ # $ $ $ $ $ # # # # $ $ # $ # # # # # # # # # # # # $ $ - - - - # # $ $ $ $ $ $ - - - - $ $ $ $ # # # # # # ",
"$ $ # # # # # # # # # # # $ $ $ # # # # - - - - $ $ # $ $ $ $ $ # # # # $ $ # $ # # # # # # # # # # # # $ $ - - - - # # $ $ $ $ $ $ - - - - $ $ $ $ # # # # # # ",
"> > > > : : - - - - - - > : < < < < < < > > > > : : - - - - $ $ # # # # - - : : > > > > - - # # # # # # # # - - : : 8 8 9 9 9 9 9 9 < < < < < < > < : : - - - - ",
"> > > > : : - - - - - - : : < < < < < < > > > > : : - - - - $ $ # # # # - - : : > > > > - - # # # # # # # # - - : : 8 8 9 9 9 9 9 9 < < < < < < > < : : - - - - ",
"e e e e e e r r r r r r r r r r e e r r e e r r r r r r e e r r r r r r r r r r r r r r 9 9 : : - - - - 8 8 e e r e r r r r r r r r e e e e e e e e 0 0 0 0 0 0 ",
"e e e e e e r r r r r r r r r r e e e r e e r r r r r r e e r r r r r r r r r r r r r r 9 9 : : - - - - 8 8 e q e e r r r r r r r r e e e e e e e e 0 0 0 0 0 0 ",
"e e q q 0 0 r r r r r r r r e e e e r r r r e e 9 9 9 9 9 9 9 9 0 0 e e r r r r r r r r e e : : - - - - 0 0 r r r r r r r r r r r r r r r r r r e e e e e e r r ",
"e e q q 0 0 r r r r r r r r e e e e r r r r e e 9 9 9 9 9 9 9 9 0 0 e e r r r r r r r r e e : : - - - - 0 0 r r r r r r r r r r r r r r r r r r e e e e e e r r ",
"# # # # # # > > : : : : : : : : : : > > < < 9 9 9 9 9 9 0 0 0 0 e e r r r r r r r r r r r r < < - - - - 0 0 e e e e r r e e e e e e e e r r r r r r r r r r 0 0 ",
"# # # # # # > > : : : : : : : : : : > > < < 9 9 9 9 9 9 0 0 0 0 e e r r r r r r r r r r r r < < - - - - 0 0 e e e e r r e e e e e e e e r r r r r r r r r r 0 0 ",
": : : : > > 8 8 9 9 9 9 9 9 9 9 9 9 9 9 9 9 9 9 9 9 9 9 9 9 0 0 0 0 0 0 e e e e q q q e e e < < - - # # - - - - - - < < < < < < < < < < 9 9 0 0 0 0 9 9 < < : : ",
": : : : > > 8 8 9 9 9 9 9 9 9 9 9 9 9 9 9 9 9 9 9 9 9 9 9 9 0 0 0 0 0 0 e e e e q q e e e e < < - - # # - - - - - - < < < < < < < < < < 9 9 0 0 0 0 9 9 < < : : ",
"r r r r r r r r r r r r r r r r e e e e e e 0 0 0 0 0 0 0 0 0 0 0 0 0 0 0 0 0 0 0 0 0 0 0 0 > > - - # # : : : : : : > > < < < < 8 8 9 9 0 0 0 0 0 0 q q e e e e ",
"r r r r r r r r r r r r r r r r e e e e e e 0 0 0 0 0 0 0 0 0 0 0 9 0 0 0 0 0 0 0 0 0 0 9 9 > > - - # # : : : : : : > > < < < < 8 8 9 9 0 0 0 0 0 0 q q e e e e ",
"r r r r r r r r r r r r r r r r r r r r r r r r r r r r r r r r r r e r e e r r r r e e r e 8 8 - - - - e e r r e e r r r r r r r r r r r r r r r r r r r r e e ",
"r r r r r r r r r r r r r r r r r r r r r r r r r r r r r r r r r r e r e e r r r r e e e e 8 8 - - - - e e r r e e r r r r r r r r r r r r r r r r r r r r e e ",
"- - $ $ - - 9 9 9 9 9 9 9 9 9 9 9 9 9 9 9 9 9 9 9 9 0 0 0 0 9 9 9 9 1 1 1 1 1 1 1 1 , , 1 1 ; ; # # - - 0 0 e e q q q q q q 0 0 0 0 0 0 0 0 0 0 9 9 < < - - - - ",
"- - $ $ - - 9 9 9 9 9 9 9 9 9 9 9 9 9 9 9 9 9 9 9 9 0 0 0 0 9 9 9 9 1 1 1 1 1 1 1 1 , , 1 1 ; ; # # - - 0 0 e e q q q q q q 0 0 0 0 0 0 0 0 0 0 9 9 < < - - - - ",
"r r 0 0 0 0 e e e e e e e e e e e e e e e e e e e e 9 9 , , ; ; ; ; ; ; , , ; ; ; , ; ; ; ; * * + + @ @ 1 1 8 8 < < < < < < < < < < < < < < > > > > : : - - < < ",
"r r 0 0 0 0 e e e e e e e e e e e e e e e e e e e e 9 9 , , ; ; ; ; ; ; , , ; , ; , , ; ; ; * * + + @ @ 1 1 8 8 < < < < < < < < < < < < < < > > > > : : - - < < ",
": : - - - - - - : : : : : : : : : : : : : : > > > > < < < < , , ; ; - - & & & & & & & & & & & & @ @ # # < < e e r r r r r r r r r r r r r r r r r r r r e e r r ",
": : - - - - - - : : : : : : : : : : : : : : > > > > < < < < , , ; ; - - & & & & & & & & & & & & @ @ @ # < < e e r r r r r r r r r r r r r r r r r r r r e e r r ",
"- - # # # # $ $ > > > > < < < < > > > > > > : : - - - - - - : : 8 8 0 0 e e r r r r r r r r 9 9 # # # # 8 8 8 8 8 8 8 8 8 8 8 8 8 8 8 8 8 8 8 8 8 8 < < < < 0 0 ",
"- - # # # # $ $ > > > > < < < < > > > > > > : : - - - - - - : : 8 8 0 0 e e r r r r r r r r 9 9 # # # # 8 8 8 8 8 8 8 8 8 8 8 8 8 8 8 8 8 8 8 8 8 8 < < < < 0 0 ",
"9 9 e e e e r r r r r r r r r r r r r r r r r r r r r r r r r r r r r r r r r r r r r r r r q q # # # # 0 0 0 0 0 0 0 0 0 0 0 0 9 9 9 9 9 9 9 9 9 9 9 9 9 9 0 0 ",
"9 9 e e e e r r r r r r r r r r r r r r r r r r r r r r r r r r r r r r r r r r r r r r r r q q # # # # 0 0 0 0 0 0 0 0 0 0 0 0 9 9 9 9 9 9 9 9 9 9 9 9 9 9 0 0 "
};
