/* XPM */
static const char *enemie4[] = {
/* columns rows colors chars-per-pixel */
"80 80 247 2 ",
"   c #3D2F23",
".  c #3F3124",
"X  c #413224",
"o  c #3C2F22",
"O  c #3C2E22",
"+  c #3F3023",
"@  c #3E3023",
"#  c #403124",
"$  c #674C34",
"%  c #684D35",
"&  c #674D35",
"*  c #5B442F",
"=  c #513D2B",
"-  c #4D3A29",
";  c #4B3929",
":  c #55402D",
">  c #56412D",
",  c #58422E",
"<  c #59432F",
"1  c #5A432F",
"2  c #5A442F",
"3  c #5D4530",
"4  c #604731",
"5  c #644B33",
"6  c #654B34",
"7  c #644A33",
"8  c #624932",
"9  c #604732",
"0  c #5E4631",
"q  c #5F4731",
"w  c #634933",
"e  c #604832",
"r  c #473627",
"t  c #3C2F23",
"y  c #453426",
"u  c #614832",
"i  c #5D4630",
"p  c #664C34",
"a  c #433326",
"s  c #463527",
"d  c #483727",
"f  c #4C3929",
"g  c #57412E",
"h  c #3B2E22",
"j  c #503C2B",
"k  c #5C4530",
"l  c #5B4430",
"z  c #4D3A2A",
"x  c #423325",
"c  c #443426",
"v  c #453526",
"b  c #463526",
"n  c #4F3C2A",
"m  c #3E2F23",
"M  c #4C3A29",
"N  c #4A3829",
"B  c #4A3828",
"V  c #533F2C",
"C  c #5C4430",
"Z  c #413225",
"A  c #4F3B2A",
"S  c #523E2C",
"D  c #634A33",
"F  c #543F2D",
"G  c #56412E",
"H  c #533E2C",
"J  c #433325",
"K  c #56402D",
"L  c #624933",
"P  c #423225",
"I  c #4E3B2A",
"U  c #59422F",
"Y  c #59422E",
"T  c #664B34",
"R  c #4F3C2B",
"E  c #543F2C",
"W  c #8E3836",
"Q  c #9D2F2E",
"!  c #843B37",
"~  c #3C2E23",
"^  c #724836",
"/  c #B25655",
"(  c #AF504F",
")  c #A94645",
"_  c #A94544",
"`  c #A03534",
"'  c #754137",
"]  c #713E33",
"[  c #AE4F4E",
"{  c #EABDBD",
"}  c #EDC2C2",
"|  c #ECC0C0",
" . c #EABCBC",
".. c #E4B1B1",
"X. c #C77C7B",
"o. c #B05251",
"O. c #A23938",
"+. c #833E38",
"@. c #55362B",
"#. c #C77C7C",
"$. c #EBBEBE",
"%. c #DCA3A3",
"&. c #C17170",
"*. c #9D302F",
"=. c #9E3130",
"-. c #BA6464",
";. c #B15352",
":. c #9E302F",
">. c #5F4631",
",. c #BA6564",
"<. c #A33A39",
"1. c #493728",
"2. c #503D2B",
"3. c #523E2B",
"4. c #953333",
"5. c #E6B5B5",
"6. c #A63F3E",
"7. c #8F3735",
"8. c #523D2C",
"9. c #B55C5B",
"0. c #493828",
"q. c #7B3B36",
"w. c #D69998",
"e. c #CD8887",
"r. c #764238",
"t. c #9F3332",
"y. c #DEA7A7",
"u. c #F4E9E9",
"i. c #1A0B0B",
"p. c #902D2C",
"a. c #7E2A29",
"s. c #7C2929",
"d. c #7F2A29",
"f. c #962E2D",
"g. c #F2E5E5",
"h. c #201212",
"j. c #9B302F",
"k. c #DA9F9F",
"l. c #1D1A1A",
"z. c black",
"x. c #7B2929",
"c. c #7A2928",
"v. c #822A2A",
"b. c #434141",
"n. c gray1",
"m. c #463627",
"M. c #B35756",
"N. c #CE8A89",
"B. c #130A0A",
"V. c #692423",
"C. c #090404",
"Z. c #B15454",
"A. c #BC6868",
"S. c #130909",
"D. c #150B0B",
"F. c #160B0B",
"G. c #090303",
"H. c #AB4948",
"J. c #792929",
"K. c #792928",
"L. c #7A2929",
"P. c #A74140",
"I. c #A84342",
"U. c #A84343",
"Y. c #9A2E2D",
"T. c #BC6867",
"R. c #A53E3D",
"E. c #4B3928",
"W. c #9F3231",
"Q. c #8C2C2B",
"!. c #7D2A29",
"~. c #CA8382",
"^. c #963232",
"/. c #8E2C2C",
"(. c #A03736",
"). c #644733",
"_. c #972E2D",
"`. c #DFA9A9",
"'. c #EEC3C3",
"]. c #7C4136",
"[. c #4D3B2A",
"{. c #802A29",
"}. c #E3B0AF",
"|. c #973131",
" X c #882B2B",
".X c #C48483",
"XX c #D89C9B",
"oX c #803531",
"OX c #914241",
"+X c #C67C7B",
"@X c #553F2D",
"#X c #443425",
"$X c #893A37",
"%X c #862B2A",
"&X c #812A2A",
"*X c #A23D3C",
"=X c #624834",
"-X c #923334",
";X c #9B2F2E",
":X c #8D2C2B",
">X c #932D2C",
",X c #5E4532",
"<X c #6B4434",
"1X c #7A3631",
"2X c #674C35",
"3X c #853B37",
"4X c #863937",
"5X c #813C38",
"6X c #664633",
"7X c #483728",
"8X c #634932",
"9X c #5D422E",
"0X c #5B402D",
"qX c #5C412E",
"wX c #604530",
"eX c #614731",
"rX c #563C2B",
"tX c #523728",
"yX c #4F3526",
"uX c #4E3325",
"iX c #4F3326",
"pX c #4E3326",
"aX c #4F3828",
"sX c #3D2C20",
"dX c #3E2D21",
"fX c #58402D",
"gX c #57402D",
"hX c #4C3728",
"jX c #493224",
"kX c #482F23",
"lX c #442C21",
"zX c #41291F",
"xX c #40281F",
"cX c #3F271E",
"vX c #3E271E",
"bX c #3B251D",
"nX c #36221B",
"mX c #37231B",
"MX c #473023",
"NX c #543C2B",
"BX c #563B2B",
"VX c #573B2A",
"CX c #563B2A",
"ZX c #5A3F2D",
"AX c #533C2B",
"SX c #3B2D21",
"DX c #3B2E21",
/* pixels */
"    . . X X X X o o o o o o o o o o o o . . O O O O o o o o                 + + @ @ @ @ @ @ @ @ X X X X # # # # . . + + + + . . . . . . # # # # . . . . X X X X ",
"    . . X X X X o o o o o o o o o o o o . . O O O O o o o o                 + + @ @ @ @ @ @ @ @ X X X X # # # # . . + + + + . . . . . . # # # # . . . . X X X X ",
"$ $ % % % % % % % % & & % % $ $ * * = = - - # # # # ; ; : : > > , , < < 1 1 2 2 3 3 4 4 5 5 $ $ & & % % % % % % % % % % % % % % % % % % % % % % % % % % % % % % ",
"$ $ % % % % % % % % & & % % $ $ * * = = - - # # # # ; ; : : > > , , < < 1 1 2 2 3 3 4 4 5 5 $ $ & & % % % % % % % % % % % % % % % % % % % % % % % % % % % % % % ",
"% % 6 6 7 7 8 8 9 9 0 0 q q w w e e q q q q r r t t y y * * 9 9 u u e e u u 9 9 0 0 i i i i 0 0 0 0 8 8 p p & & & & % % % % $ $ 7 7 7 7 6 6 5 5 7 7 7 7 w w % % ",
"% % 6 6 7 7 8 8 9 9 0 0 q q w w e e q q q q r r t t y y * * 9 9 u u e e u u 9 9 0 0 i i i i 0 0 0 0 8 8 p p & & & & % % % % $ $ 7 7 7 7 6 6 5 5 7 7 7 7 w w % % ",
"+ + o o o o a a y y s s d d f f = = g g 1 1 s s h h j j < < < < * * k k w w 5 5 5 5 5 5 w w 4 4 3 3 q q i i k k l l 1 1 1 1 z z x x c c v v r r r r r r r r % % ",
"+ + o o o o a a y y s s d d f f = = g g 1 1 s s h h j j < < < < * * k k w w 5 5 5 5 5 5 w w 4 4 3 3 q q i i k k l l 1 1 1 1 z z x x c c v v r r r r r r r r % % ",
"b b c c n n % % % % % % % % % % % % % % 7 7 v v m m n n , , q q 7 7 w w 9 9 0 0 l l , , = = M M f f = = j j f f ; ; N N B B ; ; M M - - V V C C q q 8 8 6 6 % % ",
"b b c c n n % % % % % % % % % % % % % % 7 7 v v m m n n , , q q 7 7 w w 9 9 0 0 l l , , = = M M f f = = j j f f ; ; N N B B ; ; M M - - V V C C q q 8 8 6 6 % % ",
"g g V V , , 0 0 4 4 u u u u 8 8 u u u u g g # # Z Z 1 1 $ $ % % & & 0 0 g g = = A A n n S S , , * * k k 0 0 8 8 5 5 $ $ % % % % % % % % % % % % % % % % % % % % ",
"g g V V , , 0 0 4 4 u u u u 8 8 u u u u g g # # Z Z 1 1 $ $ % % & & 0 0 g g = = A A n n S S , , * * k k 0 0 8 8 5 5 $ $ % % % % % % % % % % % % % % % % % % % % ",
"D D < < F F : : 1 1 , , g g G G g g * * H H # # J J > > 0 0 3 3 1 1 j j = = K K 3 3 7 7 $ $ & & % % % % % % % % % % % % % % % % % % % % % % % % % % % % % % % % ",
"D D < < F F : : 1 1 , , g g G G g g * * H H # # J J > > 0 0 3 3 1 1 j j = = K K 3 3 7 7 $ $ & & % % % % % % % % % % % % % % % % % % % % % % % % % % % % % % % % ",
"- - d d d d j j L L 7 7 6 6 p p % % % % * * x x P P M M ; ; I I = = F F F F F F : : g g U U < < U U Y Y , , , , , , 1 1 3 3 0 0 q q e e 8 8 w w 7 7 5 5 5 5 T T ",
"- - d d d d j j L L 7 7 6 6 p p % % % % * * x x P P M M ; ; I I = = F F F F F F : : g g U U < < U U Y Y , , , , , , 1 1 3 3 0 0 q q e e 8 8 w w 7 7 5 5 5 5 T T ",
"% % 7 7 7 7 7 7 7 7 7 7 7 7 w w 8 8 8 8 H H Z Z Z Z R R K K U U g g K K K K G G g g , , , , , , , , , , Y Y 1 1 F F M M I I I I A A n n n n R R j j - - z z 7 7 ",
"% % 7 7 7 7 7 7 7 7 7 7 7 7 w w 8 8 8 8 H H Z Z Z Z R R K K U U g g K K K K G G g g , , , , , , , , , , Y Y 1 1 F F M M I I I I A A n n n n R R j j - - z z 7 7 ",
"* * : : , , 1 1 * * * * l l * * l l l l S S Z Z x x E E L L % % % % W W Q Q Q Q Q Q Q Q Q Q ! ! 7 7 7 7 7 7 6 6 q q g g g g K K F F V V F F : : > > S S H H u u ",
"* * : : , , 1 1 * * * * l l * * l l l l S S Z Z x x E E L L % % % % W W Q Q Q Q Q Q Q Q Q Q ! ! 7 7 7 7 7 7 6 6 q q g g g g K K F F V V F F : : > > S S H H u u ",
"7 7 2 2 > > : : > > 1 1 u u 6 6 $ $ w w * * v v ~ ~ j j 4 4 ^ ^ Q Q Q Q / / ( ( ) ) _ _ ` ` Q Q Q Q ' ' 8 8 8 8 w w 5 5 6 6 6 6 p p % % % % % % % % % % % % i i ",
"7 7 2 2 > > : : > > 1 1 u u 6 6 $ $ w w * * v v ~ ~ j j 4 4 ^ ^ Q Q Q Q / / ( ( ) ) _ _ ` ` Q Q Q Q ' ' 8 8 8 8 w w 5 5 6 6 6 6 p p % % % % % % % % % % % % i i ",
"% % % % % % % % % % % % % % % % % % e e q q a a h h : : ] ] Q Q [ [ { { } } | |  . .....X.X.o.o.O.O.Q Q +.+.% % % % % % % % % % % % % % % % % % % % % % % % k k ",
"% % % % % % % % % % % % % % % % % % e e q q a a h h : : ] ] Q Q [ [ { { } } | |  . .....X.X.o.o.O.O.Q Q +.+.% % % % % % % % % % % % % % % % % % % % % % % % k k ",
"u u u u 8 8 u u 8 8 D D w w 6 6 6 6 0 0 1 1 O O O O @.@.Q Q #.#.} } $.$.%.%.&.&.O.O.*.*.Q Q =.=.-.-.;.;.:.:.8 8 q q q q q q 0 0 k k 1 1 : : >.>.q q 1 1 S S r r ",
"u u u u 8 8 u u 8 8 D D w w 6 6 6 6 0 0 1 1 O O O O @.@.Q Q #.#.} } $.$.%.%.&.&.O.O.*.*.Q Q =.=.-.-.;.;.:.:.8 8 q q q q q q 0 0 k k 1 1 : : >.>.q q 1 1 S S r r ",
"O O O O O O O O O O O O O O O O O O o o o o o o J J Q Q ) ) } }  . .,.,.Q Q Q Q Q Q Q Q Q Q Q Q Q Q <.<.Q Q Q Q o o o o o o o o o o     @ @ @ @     o o O O o o ",
"O O O O O O O O O O O O O O O O O O o o o o o o J J Q Q ) ) } }  . .,.,.Q Q Q Q Q Q Q Q Q Q Q Q Q Q <.<.Q Q Q Q o o o o o o o o o o     @ @ @ @     o o O O o o ",
"d d b b 1.1.B B B B ; ; I I 2.2.3.3.j j j j I I 4.4.Q Q ....5.5.6.6.Q Q Q Q Q Q Q Q Q Q Q Q Q Q Q Q Q Q Q Q Q Q 7.7.q q k k 1 1 * * 3 3 3 3 q q L L w w a a @ @ ",
"d d b b 1.1.B B B B ; ; I I 2.2.3.3.j j j j I I 4.4.Q Q ....5.5.6.6.Q Q Q Q Q Q Q Q Q Q Q Q Q Q Q Q Q Q Q Q Q Q 7.7.q q k k 1 1 * * 3 3 3 3 q q L L w w a a @ @ ",
"b b v v b b c c c c z z n n j j 2.2.8.8.: : 1 1 Q Q 9.9.....` ` Q Q Q Q Q Q Q Q Q Q Q Q Q Q Q Q Q Q Q Q Q Q Q Q Q Q % % % % % % % % % % % % % % % % % % = = O O ",
"b b v v b b c c c c z z n n j j 2.2.8.8.: : 1 1 Q Q 9.9.....` ` Q Q Q Q Q Q Q Q Q Q Q Q Q Q Q Q Q Q Q Q Q Q Q Q Q Q % % % % % % % % % % % % % % % % % % = = O O ",
"J J c c b b b b b b 1.1.0.0.B B f f I I H H q.q.Q Q w.w.e.e.Q Q Q Q Q Q Q Q Q Q Q Q Q Q Q Q Q Q Q Q Q Q Q Q Q Q Q Q r.r.u u 0 0 0 0 k k l l 1 1 g g S S d d O O ",
"J J c c b b b b b b 1.1.0.0.B B f f I I H H q.q.Q Q w.w.e.e.Q Q Q Q Q Q Q Q Q Q Q Q Q Q Q Q Q Q Q Q Q Q Q Q Q Q Q Q r.r.u u 0 0 0 0 k k l l 1 1 g g S S d d O O ",
"g g 3 3 % % % % % % % % % % % % % % % % % % Q Q t.t.y.y.6.6.u.u.i.i.Q Q p.p.a.a.s.s.d.d.f.f.Q Q g.g.h.h.Q Q Q Q Q Q j.j.g g K K V V S S = = = = # # @ @     O O ",
"g g 3 3 % % % % % % % % % % % % % % % % % % Q Q t.t.y.y.6.6.u.u.i.i.Q Q p.p.a.a.s.s.d.d.f.f.Q Q g.g.h.h.Q Q Q Q Q Q j.j.g g K K V V S S = = = = # # @ @     O O ",
"> > 3 3 & & $ $ T T 6 6 7 7 D D w w 8 8 8 8 Q Q _ _ k.k.Q Q l.l.z.z.x.x.c.c.c.c.c.c.x.x.x.x.v.v.b.b.n.n.Q Q Q Q Q Q Q Q & & $ $ > > M M f f ; ; r r = = ; ; O O ",
"> > 3 3 & & $ $ T T 6 6 7 7 D D w w 8 8 8 8 Q Q _ _ k.k.Q Q l.l.z.z.x.x.c.c.c.c.c.c.x.x.x.x.v.v.b.b.n.n.Q Q Q Q Q Q Q Q & & $ $ > > M M f f ; ; r r = = ; ; O O ",
"P P X X P P m.m.E E : : g g , , 1 1 l l 0 0 Q Q M.M.N.N.Q Q z.z.B.B.V.V.c.c.c.c.c.c.c.c.x.x.s.s.C.C.z.z.Q Q Q Q Q Q Q Q % % % % % % & & & & & & % % & & u u O O ",
"P P X X P P m.m.E E : : g g , , 1 1 l l 0 0 Q Q M.M.N.N.Q Q z.z.B.B.V.V.c.c.c.c.c.c.c.c.x.x.s.s.C.C.z.z.Q Q Q Q Q Q Q Q % % % % % % & & & & & & % % & & u u O O ",
"            @ @ + + m.m.z z z z z z - - z z Q Q Z.Z.A.A.Q Q S.S.D.D.c.c.c.c.c.c.c.c.c.c.c.c.x.x.F.F.G.G.Q Q Q Q Q Q Q Q % % % % & & $ $ $ $ T T $ $ p p w w O O ",
"            @ @ + + m.m.z z z z z z - - z z Q Q Z.Z.A.A.Q Q S.S.D.D.c.c.c.c.c.c.c.c.c.c.c.c.x.x.F.F.G.G.Q Q Q Q Q Q Q Q % % % % & & $ $ $ $ T T $ $ p p w w O O ",
"P P 1.1.k k w w % % % % % % 6 6 8 8 q q 3 3 Q Q H.H.( ( Q Q J.J.K.K.c.c.c.c.c.c.c.c.c.c.c.c.x.x.L.L.p.p.Q Q [ [ P.P.Q Q * * , , g g > > V V = = n n - - d d O O ",
"P P 1.1.k k w w % % % % % % 6 6 8 8 q q 3 3 Q Q H.H.( ( Q Q J.J.K.K.c.c.c.c.c.c.c.c.c.c.c.c.x.x.L.L.p.p.Q Q [ [ P.P.Q Q * * , , g g > > V V = = n n - - d d O O ",
"X X . . . . v v S S k k l l 1 1 , , g g F F Q Q I.I.U.U.Y.Y.c.c.c.c.c.c.c.c.c.c.c.c.c.c.c.c.x.x.s.s.d.d.Q Q T.T.R.R.Q Q 1 1 : : H H H H I I I I A A ; ; E.E.O O ",
"X X . . . . v v S S k k l l 1 1 , , g g F F Q Q I.I.U.U.Y.Y.c.c.c.c.c.c.c.c.c.c.c.c.c.c.c.c.x.x.s.s.d.d.Q Q T.T.R.R.Q Q 1 1 : : H H H H I I I I A A ; ; E.E.O O ",
". . . . c c r r f f n n 2.2.= = = = 3.3.= = Q Q t.t.W.W.Q.Q.c.c.c.c.c.c.c.c.c.c.c.c.c.c.x.x.x.x.s.s.!.!.Q Q ~.~.Q Q Q Q 4 4 u u 7 7 6 6 T T p p % % p p j j # # ",
". . . . c c r r f f n n 2.2.= = = = 3.3.= = Q Q t.t.W.W.Q.Q.c.c.c.c.c.c.c.c.c.c.c.c.c.c.x.x.x.x.s.s.!.!.Q Q ~.~.Q Q Q Q 4 4 u u 7 7 6 6 T T p p % % p p j j # # ",
": : * * w w u u 9 9 q q 0 0 3 3 3 3 3 3 3 3 ^.^.Q Q Q Q /./.c.c.c.c.c.c.c.c.c.c.c.c.x.x.x.x.x.x.s.s.!.!.(.(.y.y.=.=.Q Q % % % % % % % % % % % % % % T T I I x x ",
": : * * w w u u 9 9 q q 0 0 3 3 3 3 3 3 3 3 ^.^.Q Q Q Q /./.c.c.c.c.c.c.c.c.c.c.c.c.x.x.x.x.x.x.s.s.!.!.(.(.y.y.=.=.Q Q % % % % % % % % % % % % % % T T I I x x ",
"l l , , 4 4 u u L L 8 8 q q q q q q 9 9 u u ).).Q Q Q Q _._.c.c.c.c.c.c.c.c.c.c.c.c.x.x.x.x.x.x.s.s.!.!.`.`.'.'.Q Q ].].$ $ p p p p T T T T 6 6 % % 7 7 I I # # ",
"l l , , 4 4 u u L L 8 8 q q q q q q 9 9 u u ).).Q Q Q Q _._.c.c.c.c.c.c.c.c.c.c.c.c.x.x.x.x.x.x.s.s.!.!.`.`.'.'.Q Q ].].$ $ p p p p T T T T 6 6 % % 7 7 I I # # ",
": : = = S S 8.8.2.2.A A ; ; B B ; ; [.[.H H > > Q Q Q Q Q Q x.x.c.c.c.c.c.c.c.c.c.c.x.x.x.x.s.s.s.s.{.{.$.$.}.}.Q Q , , = = f f d d B B w w w w 7 7 1 1 = = O O ",
": : = = S S 8.8.2.2.A A ; ; B B ; ; [.[.H H > > Q Q Q Q Q Q x.x.c.c.c.c.c.c.c.c.c.c.x.x.x.x.s.s.s.s.{.{.$.$.}.}.Q Q , , = = f f d d B B w w w w 7 7 1 1 = = O O ",
"+ +     o o o o o o o o o o     o o     Z Z P P |.|.Q Q Q Q  X Xx.x.c.c.c.c.c.c.x.x.x.x.x.x.s.s.s.s..X.XXXXXQ Q oXoX    @ @ + + # # X X # # + + + +         o o ",
"+ +     o o o o o o o o o o     o o     Z Z P P |.|.Q Q Q Q  X Xx.x.c.c.c.c.c.c.x.x.x.x.x.x.s.s.s.s..X.XXXXXQ Q oXoX    @ @ + + # # X X # # + + + +         o o ",
"- - z z 1.1.s s r r r r ; ; = = 2.2.j j I I f f 1.1.Q Q Q Q Q Q v.v.x.x.x.x.x.x.x.x.x.x.s.s.s.s.OXOX+X+XO.O.Q Q 0.0.g g 1 1 * * , , 2.2.@X@XF F n n B B m.m.#X#X",
"- - z z 1.1.s s r r r r ; ; = = 2.2.j j I I f f 1.1.Q Q Q Q Q Q v.v.x.x.x.x.x.x.x.x.x.x.s.s.s.s.OXOX+X+XO.O.Q Q 0.0.g g 1 1 * * , , 2.2.@X@XF F n n B B m.m.#X#X",
"8 8 5 5 T T p p p p p p $ $ p p 6 6 6 6 T T p p $ $ $X$XQ Q Q Q Q Q %X%Xs.s.s.s.s.s.s.s.s.s.&X&X*X*X` ` Q Q =X=Xp p % % % % % % % % 7 7 w w 8 8 u u q q 3 3 3 3 ",
"8 8 5 5 T T p p p p p p $ $ p p 6 6 6 6 T T p p $ $ $X$XQ Q Q Q Q Q %X%Xs.s.s.s.s.s.s.s.s.s.&X&X*X*X` ` Q Q =X=Xp p % % % % % % % % 7 7 w w 8 8 u u q q 3 3 3 3 ",
"7 7 4 4 q q % % % % & & $ $ 6 6 6 6 $ $ % % 6 6 1 1 , , -X-XQ Q Q Q Q Q ;X;Xp.p.:X:X>X>X_._.Q Q Q Q Q Q ,X,X% % % % $ $ $ $ $ $ % % % % % % $ $ 6 6 7 7 7 7 % % ",
"7 7 4 4 q q % % % % & & $ $ 6 6 6 6 $ $ % % 6 6 1 1 , , -X-XQ Q Q Q Q Q ;X;Xp.p.:X:X>X>X_._.Q Q Q Q Q Q ,X,X% % % % $ $ $ $ $ $ % % % % % % $ $ 6 6 7 7 7 7 % % ",
"o o o o     f f ; ; N N B B B B ; ; [.[.H H * * 1 1 1 1 k k <X<XQ Q Q Q Q Q Q Q Q Q Q Q Q Q Q Q 1X1Xc c 0 0 u u L L $ $ 6 6 6 6 7 7 w w 2X2X% % % % % % % % q q ",
"o o o o     f f ; ; N N B B B B ; ; [.[.H H * * 1 1 1 1 k k <X<XQ Q Q Q Q Q Q Q Q Q Q Q Q Q Q Q 1X1Xc c 0 0 u u L L $ $ 6 6 6 6 7 7 w w 2X2X% % % % % % % % q q ",
"d d 1.1.n n g g * * * * 1 1 < < U U , , , , 1 1 1 1 1 1 * * C C 0 0 q q ' ' 3X3X4X4X5X5X6X6Xj j J J O O x x X X r r j j 8.8.= = j j S S * * 3 3 l l * * F F B B ",
"d d 1.1.n n g g * * * * 1 1 < < U U , , , , 1 1 1 1 1 1 * * C C 0 0 q q ' ' 3X3X4X4X5X5X6X6Xj j J J O O x x X X r r j j 8.8.= = j j S S * * 3 3 l l * * F F B B ",
"% % % % % % % % % % % % % % & & 6 6 w w e e q q 0 0 3 3 k k l l l l l l l l C C l l l l l l I I P P     0.0.7X7X7X7Xn n = = H H : : < < 0 0 0 0 q q 9 9 8 8 6 6 ",
"% % % % % % % % % % % % % % & & 6 6 w w e e q q 0 0 3 3 k k l l l l l l l l C C l l l l l l I I P P     0.0.7X7X7X7Xn n = = H H : : < < 0 0 0 0 q q 9 9 8 8 6 6 ",
"$ $ % % % % % % % % % % % % % % % % % % % % % % % % & & 2X2X$ $ $ $ $ $ p p p p p p T T p p K K J J a a 8 8 p p 6 6 $ $ $ $ & & % % % % % % % % % % % % % % 7 7 ",
"$ $ % % % % % % % % % % % % % % % % % % % % % % % % & & 2X2X$ $ $ $ $ $ p p p p p p T T p p K K J J a a 8 8 p p 6 6 $ $ $ $ & & % % % % % % % % % % % % % % 7 7 ",
"x x . . r r , , , , , , , , , , , , Y Y < < 1 1 * * k k q q 9 9 u u 8X8X9X9X0X0XqXqXwXwXT T < < J J x x 9 9 u u 9 9 4 4 4 4 q q 0 0 0 0 k k l l 1 1 H H m.m.m.m.",
"x x . . r r , , , , , , , , , , , , Y Y < < 1 1 * * k k q q 9 9 u u 8X8X9X9X0X0XqXqXwXwXT T < < J J x x 9 9 u u 9 9 4 4 4 4 q q 0 0 0 0 k k l l 1 1 H H m.m.m.m.",
"$ $ 3 3 0 0 u u 7 7 6 6 6 6 7 7 7 7 7 7 7 7 7 7 7 7 eXeXwXwXrXrXtXtXyXyXuXuXiXiXpXpXpXpXtXtXaXaXsXsXdXdXfXfXgXgX= = S S S S H H H H V V F F n n - - ; ; r r = = ",
"$ $ 3 3 0 0 u u 7 7 6 6 6 6 7 7 7 7 7 7 7 7 7 7 7 7 eXeXwXwXrXrXtXtXyXyXuXuXiXiXpXpXpXpXtXtXaXaXsXsXdXdXfXfXgXgX= = S S S S H H H H V V F F n n - - ; ; r r = = ",
"1.1.J J Z Z P P ; ; E.E.B B B B B B ; ; ; ; M M I I hXhXjXjXkXkXlXlXzXzXzXzXxXxXcXcXvXvXvXvXbXbXnXnXmXmXMXMX4 4 p p $ $ $ $ $ $ $ $ $ $ $ $ $ $ p p T T 6 6 % % ",
"1.1.J J Z Z P P ; ; E.E.B B B B B B ; ; ; ; M M I I hXhXjXjXkXkXlXlXzXzXzXzXxXxXcXcXvXvXvXvXbXbXnXnXmXmXMXMX4 4 p p $ $ $ $ $ $ $ $ $ $ $ $ $ $ p p T T 6 6 % % ",
"# #         + + z z I I j j j j R R I I M M 7X7Xm.m.s s v v B B H H NXNXBXBXVXVXCXCXrXrXZXZXAXAXSXSXDXDXE E g g g g g g g g g g g g g g > > : : : : V V F F l l ",
"# #         + + z z I I j j j j R R I I M M 7X7Xm.m.s s v v B B H H NXNXBXBXVXVXCXCXrXrXZXZXAXAXSXSXDXDXE E g g g g g g g g g g g g g g > > : : : : V V F F l l ",
"< < u u T T % % % % % % % % % % % % % % % % % % % % % % % % % % % % % % % % % % % % % % % % >.>.o o     q q q q 0 0 3 3 k k l l 2 2 1 1 < < < < , , , , * * 3 3 ",
"< < u u T T % % % % % % % % % % % % % % % % % % % % % % % % % % % % % % % % % % % % % % % % >.>.o o     q q q q 0 0 3 3 k k l l 2 2 1 1 < < < < , , , , * * 3 3 "
};
