/* XPM */
static const char *enemie3[] = {
/* columns rows colors chars-per-pixel */
"80 80 101 2 ",
"   c #150B0B",
".  c #210E0E",
"X  c #251B1B",
"o  c #351F19",
"O  c #3B231C",
"+  c #3E281F",
"@  c #3C2F22",
"#  c #3F3023",
"$  c #40271E",
"%  c #43281F",
"&  c #442B21",
"*  c #492D21",
"=  c #4F2F2F",
"-  c #572721",
";  c #572C26",
":  c #592D26",
">  c #433426",
",  c #4A3526",
"<  c #493728",
"1  c #4D3A29",
"2  c #523627",
"3  c #59332C",
"4  c #523E2C",
"5  c #6D2525",
"6  c #732E2B",
"7  c #792928",
"8  c #7C3230",
"9  c #7E3C36",
"0  c #56412D",
"q  c #59432F",
"w  c #5D4631",
"e  c #604732",
"r  c #644A33",
"t  c #684D35",
"y  c #734734",
"u  c #784037",
"i  c #7D4138",
"p  c #574A4A",
"a  c #776161",
"s  c #832A2A",
"d  c #8C2C2B",
"f  c #952E2D",
"g  c #9D2F2E",
"h  c #8F342F",
"j  c #9C302F",
"k  c #8E3533",
"l  c #813B36",
"z  c #9B3231",
"x  c #A23837",
"c  c #A33C3B",
"v  c #804033",
"b  c #804038",
"n  c #A74140",
"m  c #A84342",
"M  c #AB4847",
"N  c #AC4A49",
"B  c #AF504F",
"V  c #B15352",
"C  c #B35857",
"Z  c #B65D5C",
"A  c #BA6463",
"S  c #BC6867",
"D  c #BE6C6B",
"F  c #BE6B6A",
"G  c #C17171",
"H  c #C27373",
"J  c #C57978",
"K  c #C77D7C",
"L  c #9A8989",
"P  c #AB9494",
"I  c #B1A0A0",
"U  c #CA8281",
"Y  c #CC8484",
"T  c #CD8686",
"R  c #CE8888",
"E  c #CF8A8A",
"W  c #D28F8F",
"Q  c #D39292",
"!  c #D79999",
"~  c #D99C9C",
"^  c #DA9F9F",
"/  c #DBA0A0",
"(  c #DBA1A1",
")  c #DCA2A2",
"_  c #DCA3A3",
"`  c #DEA5A5",
"'  c #DEA6A6",
"]  c #E0AAAA",
"[  c #E3AFAF",
"{  c #E7B6B6",
"}  c #E8B7B7",
"|  c #E8B8B8",
" . c #E8B9B9",
".. c #E9BABA",
"X. c #EABDBD",
"o. c #EBBDBD",
"O. c #EDC2C2",
"+. c #EEC3C3",
"@. c #EEC4C4",
"#. c #EFC4C4",
"$. c #EFC5C5",
/* pixels */
"@ @ # # > > > > @ @ @ @ @ @ @ @ @ @ @ @ # # @ @ @ @ @ @ @ @ @ @ @ @ @ @ @ @ # # # # # # # # # # > > > > > > > > # # # # # # # # # # # # > > > # # # # # > > > > ",
"@ @ # # > > > > @ @ @ @ @ @ @ @ @ @ @ @ # # @ @ @ @ @ @ @ @ @ @ @ @ @ @ @ @ # # # # # # # # # # > > > > # # > > # # # # # # # # # # # # > > > > # # # # > > > > ",
"t t t t t t t t t t t t t t t t q q 4 4 1 1 > > > > < < 0 0 0 0 q q q q q q q q w w e e r r t t t t t t t t t t t t t t t t t t t t t t t t t t t t t t t t t t ",
"t t t t t t t t t t t t t t t t q q 4 4 1 1 > > > > < < 0 0 0 0 q q q q q q q q w w e e r r t t t t t t t t t t t t t t t t t t t t t t t t t t t t t t t t t t ",
"t t r r r r r r e e w w w w r r r r w w w w > > @ @ > > q q e e r r r r r r e e w w w w w w w w w w r r t t t t t t t t t t t t r r r r r r r r r r r r r r t t ",
"t t r r r r r r e e w w w w r r r r w w w w > > @ @ > > q q e e r r r r r r e e w w w w w w w w w w r r t t t t t t t t t t t t r r r r r r r r r r r r r r t t ",
"# # @ @ @ @ > > > > > > < < 1 1 4 4 q q q q > > @ @ 4 1 q q q q q q w w r r r r r r r r r r e e w w w w w w w w w w q q q q 1 1 > > > > > > > > > > > > < < t t ",
"# # @ @ @ @ > > > > > > < < 1 1 4 4 q q q q > > @ @ 4 4 q q q q q q w w r r r r r r r r r r e e w w w w w w w w w w q q q q 1 1 > > > > > > > > > > > > < < t t ",
"> > > > 1 1 t t t t t t t t t t t t t t r r > > @ @ 1 1 q q w w r r r r e e w w w w q q 4 4 1 1 1 1 4 4 4 4 1 1 < < < < < < < < 1 1 1 1 4 4 w w w w r r r r t t ",
"> > > > 1 1 t t t t t t t t t t t t t t r r > > @ @ 1 1 q q w w r r r r e e w w w w q q 4 4 1 1 1 < 4 4 4 4 1 1 < < < < < < < < 1 1 1 1 4 4 w w w w r r r r t t ",
"0 0 4 4 q q w w e e r r r r r r r r r r 0 0 > > > > q q t t t t t t w w 0 0 4 4 1 1 1 1 4 4 q q q q w w w w r r r r t t t t t t t t t t t t t t t t t t t t t t ",
"0 0 4 4 q q w w e e r r r r r r r r r r 0 0 > > > > q q t t t t t t w w q q 4 4 1 1 1 1 4 4 q q q q w w w w r r r r t t t t t t t t t t t t t t t t t t t t t t ",
"r r q q 4 4 0 0 q q q q 0 0 0 0 0 0 q q 4 4 > > > > 0 0 w w w w q q 4 4 4 4 0 0 w w r r t t t t t t t t t t t t t t t t t t t t t t t t t t t t t t t t t t t t ",
"r r q q 4 4 0 0 q q q q 0 0 0 0 0 0 q q 4 4 > > > > 0 0 w w w w q q 4 4 4 4 0 0 w w r r t t t t t t t t t t t t t t t t t t t t t t t t t t t t t t t t t t t t ",
"1 1 < < < < 4 4 r r r r r r r t t t t t q q > > > > 1 1 < < 1 1 4 4 4 4 4 4 4 4 0 0 q 0 q q q q q q q q q q q q q q q q w w w w w w r r r r r r r r r r r r r r ",
"1 1 < < < < 4 4 r r r r r r t t t t t t q q > > > > 1 1 < < 1 1 4 4 4 4 4 4 4 4 0 0 0 0 q q q q q q q q q q q q q q q q w w w w w w r r r r r r r r r r r r r r ",
"t t r r r r r r r r r r r r r r r r r r 4 4 > > > > 1 1 0 0 q q 0 0 0 0 0 0 0 0 0 0 q q 0 0 q q q q q q q q q q 4 4 1 1 1 1 1 1 1 1 1 1 1 4 1 1 4 4 1 1 1 1 r r ",
"t t r r r r r r r r r r r r r r r r r r 4 4 > > > > 1 1 0 0 q q 0 0 0 0 0 0 0 0 0 0 q q 0 0 0 q q q q q q q q q 4 4 1 1 1 1 1 1 1 1 1 1 4 4 1 4 4 4 1 1 1 1 r r ",
"q q 0 0 q q q q q q q q w w q q w w w w 4 4 > > > > 4 4 r r t t t t t t t t r r r r r r r r r r r r r r r r r r w w 0 0 0 0 0 0 4 4 4 4 4 4 0 0 0 0 4 4 4 4 r r ",
"q q 0 0 q q q q q q q q w w q q w w w w 4 4 > > > > 4 4 r r t t t t t t t t r r r r r r r r r r r r r r r r r r w w 0 0 0 0 0 0 4 4 4 4 4 4 0 0 0 0 4 4 4 4 r r ",
"r r q q 0 0 0 0 0 0 q q r r r r t t r r q q > > @ @ 4 4 e e t t t t t t t t t t r r r r r r r r r r r r r r r r r r r r r r r r t t t t t t t t t t t t t t w w ",
"r r q q 0 0 0 0 0 0 q q r r r r t t r r q q > > @ @ 4 4 e e t t t t t t t t t t r r r r r r r r r r r r r r r r r r r r r r r r t t t t t t t t t t t t t t w w ",
"t t t t t t t t t t t t t t t t t t r r w w > > @ @ 0 0 0 0 t t t t t t t t t t t t t t t t t t t t t t t t t t t t t t t t t t t t t t t t t t t t t t t t w w ",
"t t t t t t t t t t t t t t t t t t r r w w > > @ @ 0 0 0 0 t t t t t t t t t t t t t t t t t t t t t t t t t t t t t t t t t t t t t t t t t t t t t t t t w w ",
"r r r r r r r r r r r r r r r r r r w w q q @ @ @ @ > > > > q q r r r r r r t t t t t t r r r r r r r r r r r r w w w w w w w w w w q q 0 0 w w w w q q 4 4 > > ",
"r r r r r r r r r r r r r r r r r r w w q q @ @ @ @ > > > > q q r r r r r r t t t t t t r r r r r r r r r r r r w w w w w w w w w w q q 0 0 w w w w q q 4 4 > > ",
"@ @ @ @ @ @ @ @ @ @ @ @ @ @ @ @ @ @ @ @ @ @ @ @ > > @ @ @ @ @ @ @ @ @ @ @ @ @ @ @ @ @ @ @ @ @ @ @ @ @ @ @ @ @ @ @ @ @ @ @ @ @ @ @ @ @ @ # # # # @ @ @ @ @ @ @ @ ",
"@ @ @ @ @ @ @ @ @ @ @ @ @ @ @ @ @ @ @ @ @ @ @ @ > > @ @ @ @ @ @ @ @ @ @ @ @ @ @ @ @ @ @ @ @ @ @ @ @ @ @ @ @ @ @ @ @ @ @ @ # @ @ @ @ @ @ # # # # @ @ @ @ @ @ @ @ ",
"> > > > < < < < < < < < 1 1 4 4 4 4 4 4 4 4 1 1 r r 1 1 1 1 4 4 4 4 0 0 q q w w w w w w e e e e w w e e r r r r r r w w w w q q q q w w w w w w r r r r > > # # ",
"> > > > < < < < < < < < 1 1 4 4 4 4 4 4 4 4 1 1 r r 1 1 1 1 4 4 4 4 0 0 q q w w w w w w e e e e w w r e r r r r r r w w w w q q q q w w w w w w r r r r > > # # ",
"> > > > > > > > > > 1 1 1 1 4 4 4 4 4 4 0 0 q q w w e e r r e e w w r r r r r r r r r r r r t t t t t t t t t t t t t t t t t t t t t t t t t t t t t t 4 4 @ @ ",
"> > > > > > > > > > 1 1 1 1 4 4 4 4 4 4 0 0 q q w w e e r r e e w w r r r r r r r r r r r r t t t t t t t t t t t t t t t t t t t t t t t t t t t t t t 4 4 @ @ ",
"> > > > > > > > > > < < < < < < 1 1 1 1 4 4 0 q e e r r t t t t t t t t t t t t t t t t r r r r r r r r r r r r r r r r r r w w w w w w w w q q 0 0 4 4 < < @ @ ",
"> > > > > > > > > > < < < < < < 1 1 1 1 4 4 0 q e e r r t t t t t t t t t t t t t t t t r r r r r r r r r r r r r r r r r r w w w w w w w w q q 0 0 4 4 < < @ @ ",
"0 0 w w t t t t t t t t t t t t t t t t t t t t t t t t t t t t b b g g g g g g g g g g g g g g 9 9 w w w w w w q q q q 0 0 0 0 4 4 4 4 4 4 4 4 > > # # @ @ @ @ ",
"0 0 w w t t t t t t t t t t t t t t t t t t t t t t t t t t t t b b g g g g g g g g g g g g g g 9 9 w w w w w w q q q q 0 0 0 0 4 4 4 4 4 4 4 4 > > # # @ @ @ @ ",
"0 0 w w t t t t r r r r r r r r r r r r r r r r r r r r u u g g g g g g g g g g g g g g g g g g g g g g t t t t t t t t t t t t 0 0 1 1 1 1 < < > > 4 4 1 < @ @ ",
"0 0 w w t t t t r r r r r r r r r r r r r r r r r r r r u u g g g g g g g g g g g g g g g g g g g g g g t t t t t t t t t t t t 0 0 1 1 1 1 < < > > 4 4 < < @ @ ",
"> > > > > > > > 4 4 0 0 0 0 q q q q w w w w w w w w z z g g g g N N T T ` ` ` ` ! ! T T Z Z V V g g g g g g y y t t t t t t t t t t t t t t t t t t t t r r @ @ ",
"> > > > > > > > 4 4 0 0 0 0 q q q q w w w w w w w w z z g g g g N N T T ` ` ` ` ! ! T T Z Z V V g g g g g g y y t t t t t t t t t t t t t t t t t t t t r r @ @ ",
"@ @ @ @ @ @ # # # # > > 1 1 1 1 1 1 1 1 1 1 1 1 g g g g Z Z ....O.O.o.o.[ [ Q Q F F B B M M A A Z Z z z g g g g v v t t t t t t t t t t t t r r t t t t r r @ @ ",
"@ @ @ @ @ @ # # # # > > 1 1 1 1 1 1 1 1 1 1 1 1 g g g g Z Z ....O.O.o.o.[ [ Q Q F F B B M M A A Z Z z z g g g g v v t t t t t t t t t t t t r r t t t t r r @ @ ",
"> > < < w w r r t t t t t t r r r r w w w w g g g g J J O.O.O.O.( ( G G M M g g g g g g g g g g z z g g g g g g g g z z w w q q 0 0 0 0 4 4 4 4 1 1 1 1 < < @ @ ",
"> > < < w w r r t t t t t t r r r r w w w w g g g g J J O.O.O.O.( ( G G M M g g g g g g g g g g z z g g g g g g g g z z w w q q 0 0 0 0 4 4 4 4 1 1 1 1 < < @ @ ",
"> > > > # # > > 4 4 w w w w q q q q 0 0 g g g g E E @.@.....V V g g g g g g g g g g g g g g g g g g g g g g g g g g g g g g 0 0 4 4 4 4 1 1 1 1 1 1 < < < < @ @ ",
"> > > > # # > > 4 4 w w w w q q q q 0 0 g g g g E E @.@.....V V g g g g g g g g g g g g g g g g g g g g g g g g g g g g g g 0 0 4 4 4 4 1 1 1 1 1 1 < < < < @ @ ",
"# # # # > > > > 1 < 1 1 4 4 4 4 4 4 z z g g S S O.O.! ! g g g g g g g g g g f f g g g g g g g g g g g g g g g g g g g g g g j j r r r r r r t t t t t t 4 4 > > ",
"# # # # > > > > 1 1 1 1 4 4 4 4 4 4 z z g g S S O.O.! ! g g g g g g g g g g f f g g g g g g g g g g g g g g g g g g g g g g j j r r r r r r t t t t t t 4 4 > # ",
"0 0 q q r r r r w w w w w w w w l l g g x x ...._ _ g g g g f f s s 7 7 7 7 7 7 7 7 7 7 7 7 7 7 f f g g g g g g g g g g g g g g i i t t t t t t t t r r 1 1 > > ",
"0 0 q q r r r r e w w w w w w w l l g g x x ...._ _ g g g g f f s s 7 7 7 7 7 7 7 7 7 7 7 7 7 7 f f g g g g g g g g g g g g g g i i t t t t t t t t r r 1 1 > > ",
"w w q q e e r r r r r r w w e e g g g g ( ( ~ ~ g g j g s s 7 7 7 7 7 7 7 7 7 7 7 7 7 7 7 7 7 7 7 7 7 7 d d g g g g g g g g g g g g r r r r r r t t r r 1 1 > > ",
"w w q q e e r r r r r r w w e e g g g g ( ( ~ ~ g g g g s s 7 7 7 7 7 7 7 7 7 7 7 7 7 7 7 7 7 7 7 7 7 7 d d g g g g g g g g g g g g r r r r r r t t r r 1 1 > > ",
"0 0 4 4 4 4 4 4 4 4 1 1 < < g g g g D D ] ] j j g g 7 7 I I = = 7 7 7 7 7 7 7 7 7 7 7 7 7 7 7 7 P P p p 7 7 7 7 g g g g g g g g g g k k r r r r r r q q 4 4 @ @ ",
"0 0 4 4 4 4 4 4 4 4 1 1 < < g g g g D D ] ] j j g g 7 7 I I = = 7 7 7 7 7 7 7 7 7 7 7 7 7 7 7 7 P P p p 7 7 7 7 g g g g g g g g g g k k r r r r r r q q 4 4 @ @ ",
"# # @ @ @ @ @ @ @ @ @ @ 3 3 g g g g ~ ~ Z Z g g 7 7 7 7 L L     5 5 7 7 7 7 7 7 7 7 7 7 7 7 7 7 a a X X 7 7 7 7 7 7 g g g g g g g g g g > > # # # # @ @ @ @ @ @ ",
"# # @ @ @ @ @ @ @ @ @ @ 3 3 g g g g ~ ~ Z Z g g 7 7 7 7 L L     5 5 7 7 7 7 7 7 7 7 7 7 7 7 7 7 a a X X 7 7 7 7 7 7 g g g g g g g g g g > > # # # # @ @ @ @ @ @ ",
"1 1 1 1 < < > > > > > > g g g g C C K K g g s s 7 7 7 7         5 5 7 7 7 7 7 7 7 7 7 7 7 7 7 7         7 7 7 7 7 7 7 7 g g g g g g g g k k 4 4 1 4 < < > > > > ",
"1 1 1 1 < < > > > > > > g g g g C C K K g g s s 7 7 7 7         5 5 7 7 7 7 7 7 7 7 7 7 7 7 7 7         7 7 7 7 7 7 7 7 g g g g g g g g k k 4 4 1 4 < < > > > > ",
"r r r r r r t t t t t t g g g g A A n n g g 7 7 7 7 7 7         7 7 7 7 7 7 7 7 7 7 7 7 7 7 7 7 . . . . 7 7 7 7 7 7 7 7 g g C C N N g g g g r r r r w w w w w w ",
"r r r r r r t t t t t t g j g g A A n n g g 7 7 7 7 7 7         7 7 7 7 7 7 7 7 7 7 7 7 7 7 7 7 . . . . 7 7 7 7 7 7 7 7 g g C C N N g g g g r r r r w w w w w w ",
"r r e e w w t t t t t t g g j j c c g g d d 7 7 7 7 7 7 7 7 7 7 7 7 7 7 7 7 7 7 7 7 7 7 7 7 7 7 7 7 7 7 7 7 7 7 7 7 7 7 f f ` ` E E g g g g t t r r r r r r t t ",
"r r e e w w t t t t t t g g j j c c g g d d 7 7 7 7 7 7 7 7 7 7 7 7 7 7 7 7 7 7 7 7 7 7 7 7 7 7 7 7 7 7 7 7 7 7 7 7 7 7 f f ` ` E E g g g g t t r r r r r r t t ",
"@ @ @ @ @ @ 1 1 < < < < g g g g g g g g d d 7 7 7 7 7 7 7 7 7 7 7 7 7 7 7 7 7 7 7 7 7 7 7 7 7 7 7 7 7 7 7 7 7 7 7 7 7 7 c c ...._ _ g g g g t t t t t t t t w w ",
"@ @ @ @ @ @ 1 1 < < < < g g g g g g g g d d 7 7 7 7 7 7 7 7 7 7 7 7 7 7 7 7 7 7 7 7 7 7 7 7 7 7 7 7 7 7 7 7 7 7 7 7 7 7 c c ...._ _ g g g g t t t t t t t t w w ",
"< < < < 1 1 0 0 q q q q g g g g g g g g f f 7 7 7 7 7 7 7 7 7 7 7 7 7 7 7 7 7 7 7 7 7 7 7 7 7 7 7 7 7 7 7 7 7 7 7 7 7 7 G G @.@.o.o.g g g g w w w w q q 4 4 < < ",
"< < < < 1 1 0 0 q q q q g g g g g g g g f f 7 7 7 7 7 7 7 7 7 7 7 7 7 7 7 7 7 7 7 7 7 7 7 7 7 7 7 7 7 7 7 7 7 7 7 7 7 7 G G @.@.o.o.g g g g w w w w q q 4 4 < < ",
"t t t t t t t t t t t t k k g g g g g g g g 7 7 7 7 7 7 7 7 7 7 7 7 7 7 7 7 7 7 7 7 7 7 7 7 7 7 7 7 7 7 7 7 7 7 7 7 z z } } @.@.m m g g h h w w w w e e r r r r ",
"t t t t t t t t t t t t k k g g g g g g g g 7 7 7 7 7 7 7 7 7 7 7 7 7 7 7 7 7 7 7 7 7 7 7 7 7 7 7 7 7 7 7 7 7 7 7 7 z z } } @.@.m m g g h h w w w w e e r r r r ",
"t t t t t t t t t t t t t t g g g g g g g g g g 7 7 7 7 7 7 7 7 7 7 7 7 7 7 7 7 7 7 7 7 7 7 7 7 7 7 7 7 7 7 7 7 c c { { O.O.Z Z g g j j t t t t t t t t t t r r ",
"t t t t t t t t t t t t t t g g g g g g g g g g 7 7 7 7 7 7 7 7 7 7 7 7 7 7 7 7 7 7 7 7 7 7 7 7 7 7 7 7 7 7 7 7 c c { { O.O.Z Z g g z j t t t t t t t t t t r r ",
"> > # # > > q q q q q q q q 2 2 g g g g g g g g g g s s 7 7 7 7 7 7 7 7 7 7 7 7 7 7 7 7 7 7 7 7 7 7 s s g g c c U U W W x x g g f f 2 2 w w w w q q 4 4 > > > > ",
"> > # # > > q q q q q q q q 2 2 g g g g g g g g g g s s 7 7 7 7 7 7 7 7 7 7 7 7 7 7 7 7 7 7 7 7 7 7 s s g g c c U U W W x x g g f f 2 2 w w w w q q 4 4 > > > > ",
"t t w w w w r r r r q q * * % % % % 6 6 g g g g g g g g g g g g g g f f d d s s s s d d f f g g g g g g j j z z j j g g g g - - O O O O & & 1 1 1 1 < < > > 4 4 ",
"t t w w w w r r r r q q * * % % % % 6 6 g g g g g g g g g g g g g g f f d d s s s s d d f f g g g g g g j j z z j j g g g f - - O O O O & & 1 1 1 1 < < > > 4 4 ",
"< < > > > > > > < < + + O O O O O O O O O O O O 6 6 g g g g g g g g g g g g g g g g g g g g g g g g j j 8 8 ; ; : : * * % % % % % % & & * * 4 4 t t r r r r t t ",
"< < > > > > > > < < + + O O O O O O O O O O O O 6 6 g g g g g g g g g g g g g g g g g g g g g g g g j j 8 8 ; ; : : * * % % % % % % & & * * 4 4 t t r r r r t t ",
"> > @ @ @ @ # # 1 1 1 1 < < & & O O O O O O O O @ @ + + + + + + & & & & * * * * , , , , , , & & o o o o $ $ $ $ $ $ & & $ $ & & , , 0 0 4 4 4 4 0 0 4 4 4 4 w w ",
"> > @ @ @ @ # # 1 1 1 1 < < & & O O O O O O O O @ @ + + + + + + & & & & * * * * , , , , , , & & o o o o $ $ $ $ $ $ & & $ $ & & , , q q 4 4 4 4 0 0 4 4 4 4 w w ",
"q q r r r r t t t t t t t t t t t t t t t t t t t t t t t t t t t t t t t t t t t t t t t t w w @ @ @ @ w w w w w w w w w w w w q q q q q q q q q q q q q q w w ",
"q q r r r r t t t t t t t t t t t t t t t t t t t t t t t t t t t t t t t t t t t t t t t t w w @ @ @ @ w w w w w w w w w w w w q q q q q q q q q q q q q q w w "
};
