/* XPM */
static const char *enemie5[] = {
/* columns rows colors chars-per-pixel */
"80 80 96 2 ",
"   c #010101",
".  c #0B0505",
"X  c #140606",
"o  c #150808",
"O  c #3A1313",
"+  c #3A251D",
"@  c #3A291F",
"#  c #3C2F22",
"$  c #3F3023",
"%  c #432D22",
"&  c #482F23",
"*  c #433425",
"=  c #4B3526",
"-  c #493728",
";  c #4C3A29",
":  c #513527",
">  c #54352B",
",  c #523D2B",
"<  c #5B3F2F",
"1  c #7B2929",
"2  c #643B32",
"3  c #6B3C35",
"4  c #743935",
"5  c #56412D",
"6  c #5A432F",
"7  c #5D4530",
"8  c #604731",
"9  c #6E4537",
"0  c #644A33",
"q  c #684D35",
"w  c #78433A",
"e  c #822B2A",
"r  c #8A2C2B",
"t  c #952E2D",
"y  c #9D2F2E",
"u  c #9D302F",
"i  c #813636",
"p  c #8A3535",
"a  c #833937",
"s  c #833B38",
"d  c #8A3938",
"f  c #943333",
"g  c #9D3231",
"h  c #A03534",
"j  c #A23837",
"k  c #A43C3B",
"l  c #A6403F",
"z  c #9E4646",
"x  c #954B4B",
"c  c #994B4B",
"v  c #A94545",
"b  c #AC4A4A",
"n  c #B15453",
"m  c #B35857",
"M  c #B75F5E",
"N  c #B65E5D",
"B  c #B55B5A",
"V  c #B96362",
"C  c #BA6463",
"Z  c #BB6665",
"A  c #BE6C6B",
"S  c #BF6D6C",
"D  c #B77171",
"F  c #C07070",
"G  c #C47675",
"H  c #C57877",
"J  c #C77C7B",
"K  c #C87D7D",
"L  c #898686",
"P  c #A7A3A3",
"I  c #CA8382",
"U  c #CC8584",
"Y  c #CE8989",
"T  c #CF8A8A",
"R  c #D49494",
"E  c #D59595",
"W  c #D79999",
"Q  c #D89C9C",
"!  c #DCA3A3",
"~  c #DFA8A8",
"^  c #C8B8B8",
"/  c #E2ADAD",
"(  c #E6B6B6",
")  c #E7B6B6",
"_  c #E7B7B7",
"`  c #E7B8B8",
"'  c #E8B8B8",
"]  c #E8B9B9",
"[  c #E9BABA",
"{  c #EABCBC",
"}  c #EABDBD",
"|  c #EBBFBF",
" . c #DCC6C5",
".. c #ECC1C1",
"X. c #EDC1C1",
"o. c #EDC2C2",
/* pixels */
"# # $ $ * * * * # # # # # # # # # # # # $ $ # # # # # # # # # # # # # # # # $ $ $ $ $ $ $ $ $ $ * * * * * * * * $ $ $ $ $ $ $ $ $ $ $ $ * * $ $ $ $ $ $ * * * * ",
"# # $ $ * * * * # # # # # # # # # # # # $ $ # # # # # # # # # # # # # # # # $ $ $ $ $ $ $ $ $ $ * * * * * * * * $ $ $ # $ $ $ $ $ $ $ $ * * * * $ $ $ $ * * * * ",
"q q q q q q q q q q q q q q q q 6 6 , , ; ; * * * * - - 5 5 5 5 6 6 6 6 6 6 6 6 7 7 8 8 0 0 q q q q q q q q q q q q q q q q q q q q q q q q q q q q q q q q q q ",
"q q q q q q q q q q q q q q q q 6 6 , , ; ; * * * * - - 5 5 5 5 6 6 6 6 6 6 6 6 7 7 8 8 0 0 q q q q q q q q q q q q q q q q q q q q q q q q q q q q q q q q q q ",
"q q 0 0 0 0 0 0 8 8 7 7 7 7 0 0 0 0 7 7 7 7 - - # # - - 6 6 8 8 0 0 0 0 0 0 8 8 7 7 7 7 7 7 7 7 7 7 0 0 q q q q q q q q q q q q 0 0 0 0 0 0 0 0 0 0 0 0 0 0 q q ",
"q q 0 0 0 0 0 0 8 8 7 7 7 7 0 0 0 0 7 7 7 7 - - # # - * 6 6 7 7 0 0 0 0 0 0 8 8 7 7 7 7 7 7 7 7 7 7 0 0 q q q q q q q q q q q q 0 0 0 0 0 0 0 0 0 0 0 0 0 0 q q ",
"$ $ # # # # * * - - - - - - ; ; , , 5 5 6 6 - - # # , ; 6 6 6 6 6 6 7 7 0 0 0 0 0 0 0 0 0 0 8 8 7 7 7 7 7 7 7 7 7 7 6 6 6 6 ; ; * * - - - - - - - - - - - - q q ",
"$ $ # # # # * * - - - - - - ; ; , , 5 5 6 6 - - # # , , 6 6 6 6 6 6 7 7 0 0 0 0 0 0 0 0 0 0 8 8 7 7 7 7 7 7 7 7 7 7 6 6 6 6 ; ; * * - - - - - - - - - - - - q q ",
"- - - - ; ; q q q q q q q q q q q q q q 0 0 - - # # ; ; 6 6 7 7 0 0 0 0 8 8 8 8 7 7 6 6 , , ; ; ; ; , , , , ; ; - - - - - - - - ; ; ; ; , , 7 7 7 7 0 0 0 0 q q ",
"- - - - ; ; q q q q q q q q q q q q q q 0 0 - - # # ; ; 6 6 7 7 0 0 0 0 8 8 8 8 7 7 6 6 , , ; ; ; ; , , , , ; ; - - - - - - - - ; ; ; ; , , 7 7 7 7 0 0 0 0 q q ",
"5 5 , , 6 6 7 7 8 8 0 8 0 0 0 0 0 0 0 0 5 5 * * * * 6 6 q q q q y y y y y y y y y y y y y y y y y y 7 7 7 7 0 0 0 0 q q q q q q q q q q q q q q q q q q q q q q ",
"5 5 , , 6 6 7 7 8 8 0 0 0 0 0 0 0 0 0 0 5 5 * * * * 6 6 q q q q y y y y y y y y y y y y y y y y y y 7 7 7 7 0 0 0 0 q q q q q q q q q q q q q q q q q q q q q q ",
"0 0 6 6 , , 5 5 6 6 6 6 5 5 5 5 5 5 6 6 , , * * * * 5 5 y y y y y y n n n n B B N N b b g g g g y y y y y y y y q q q q q q q q q q q q q q q q q q q q q q q q ",
"0 0 6 6 , , 5 5 6 6 6 6 5 5 5 5 5 5 6 6 , , * * * * 5 5 y y y y y y n n n n B B N N b b g g g g y y y y y y y y q q q q q q q q q q q q q q q q q q q q q q q q ",
"; ; - - - - , , 0 0 0 0 0 0 0 0 q q q q 6 6 * * > > y y l l H H ( ( | | ( ( ! ! T T K K B B n n m m b b j j h h y y a a 7 7 7 7 7 7 0 0 0 0 0 0 0 0 0 0 0 0 0 0 ",
"; ; - - - - , , 0 0 0 0 0 0 q 0 q q q q 6 6 * * > > y y l l H H ( ( | | ( ( ! ! T T K K B B n n m m b b j j h h y y a a 7 7 7 7 7 7 0 0 0 0 0 0 0 0 0 0 0 0 0 0 ",
"q q 0 0 0 0 0 0 0 0 0 0 0 0 0 0 0 0 0 0 , , p p y y A A ' ' ....( ( R R C C v v g g y y h h l l v v k k v v N N b b y y y u ; ; ; ; ; , , , ; ; , , ; ; ; ; 0 0 ",
"q q 0 0 0 0 0 0 0 0 0 0 0 0 0 0 0 0 0 0 , , p p y y A A ' ' ....( ( R R C C v v g g y y h h l l v v k k v v N N b b y y u u ; ; ; ; ; ; , , ; ; , , ; ; ; ; 0 0 ",
"6 6 5 5 6 6 6 6 6 6 6 6 7 7 6 6 7 7 7 7 4 4 y y N N | | | | Z Z k k k k y y y y y y y y y y y y y y y y y y h h b b h h y y < < , , , , , , 5 5 5 5 , , , , 0 0 ",
"6 6 5 5 6 6 6 6 6 6 6 6 7 7 6 6 7 7 7 7 4 4 y y N N | | | | Z Z k k k k y y y y y y y y y y y y y y y y y y h h b b h h y y < < , , , , , , 5 5 5 5 , , , , 0 0 ",
"0 0 6 6 5 5 5 5 5 5 6 6 0 0 0 0 q q 0 0 y y h h | | ' ' n n y y y y y y y y y y y y y y y y y y y y y y y y y y y y y y y y y y q q q q q q q q q q q q q q 7 7 ",
"0 0 6 6 5 5 5 5 5 5 6 6 0 0 0 0 q q 0 0 y y h h | | ' ' n n y y y y y y y y y y y y y y y u y y y y y y y y y y y y y y y y y y q q q q q q q q q q q q q q 7 7 ",
"q q q q q q q q q q q q q q q q q q p p y y W W | | S S g g y y y y y y r r e e e e 1 1 1 1 e e t t y y y y y y y y u u g g y y q q q q q q q q q q q q q q 7 7 ",
"q q q q q q q q q q q q q q q q q q p p y y W W | | S S g g y y y y y y r r e e e e 1 1 1 1 e e t t y y y y y y y y u u g g y y q q q q q q q q q q q q q q 7 7 ",
"0 0 0 0 0 0 0 0 0 0 0 0 0 0 0 0 0 0 y y y y ' ' ~ ~ v v y y  . .o o 1 1 1 1 1 1 1 1 1 1 1 1 1 1 ^ ^ O O t t y y y y v v v v y y a a 6 6 5 5 7 7 7 7 6 6 , , - - ",
"0 0 0 0 0 0 0 0 0 0 0 0 0 0 0 0 0 0 y y y y ' ' ~ ~ v v y y  . .o o 1 1 1 1 1 1 1 1 1 1 1 1 1 1 ^ ^ O O t t y y y y v v v v y y a a 6 6 5 5 7 7 7 7 6 6 , , - - ",
"# # # # # # # # # # # # # # # # # # y y y y ' ' G G y y t t L L     1 1 1 1 1 1 1 1 1 1 1 1 1 1 P P     1 1 t t y y N N m m y y u u # # $ $ $ $ # # # # # # # # ",
"# # # # # # # # # # # # # # # # # # y y y y ' ' G G y y t t L L     1 1 1 1 1 1 1 1 1 1 1 1 1 1 P P     1 1 t t y y N N m m y y u u # # $ $ $ $ # # # # # # # # ",
"- - - - - - - - - - - - ; ; , , , , y y y y Q Q b b y y e e         1 1 1 1 1 1 1 1 1 1 1 1 1 1         1 1 e e y y R R T T y y f f 7 7 7 7 7 7 0 0 0 0 * * $ $ ",
"- - - - - - - - - - - - ; ; , , , , y y y y Q Q b b y y e e         1 1 1 1 1 1 1 1 1 1 1 1 1 1         1 1 e e y y R R T T y y f f 7 7 7 7 7 7 0 0 0 0 * * $ $ ",
"- - - - - - * * * - ; ; ; ; , , , , f f u u T T h h t t 1 1 X X . . 1 1 1 1 1 1 1 1 1 1 1 1 1 1 . . . . 1 1 1 1 y y / / J J y y d d q q q q q q q q q q , , # # ",
"- - - - - - * * * * ; ; ; ; , , , , f f u u T T h h t t 1 1 X X . . 1 1 1 1 1 1 1 1 1 1 1 1 1 1 . . . . 1 1 1 1 y y / / J J y y d d q q q q q q q q q q , , # # ",
"* * * * - - - - - - - - - - - - ; ; , , u u Z Z h h r r 1 1 1 1 1 1 1 1 1 1 1 1 1 1 1 1 1 1 1 1 1 1 1 1 1 1 1 1 F F ....I I y y 7 7 7 7 7 7 6 6 5 5 , , - - # # ",
"* * * * - - - - - - - - - - - - ; ; , , u u Z Z h h r r 1 1 1 1 1 1 1 1 1 1 1 1 1 1 1 1 1 1 1 1 1 1 1 1 1 1 1 1 F F ....I I y y 7 7 7 7 7 7 6 6 5 5 , , - - # # ",
"5 5 7 6 q q q q q q q q q q q q q q q q y y k k g g r r 1 1 1 1 1 1 1 1 1 1 1 1 1 1 1 1 1 1 1 1 1 1 1 1 1 1 1 1 | | ....k k y y , , , , , , , , * * $ $ # # # # ",
"5 5 7 7 q q q q q q q q q q q q q q q q y y k k g g r r 1 1 1 1 1 1 1 1 1 1 1 1 1 1 1 1 1 1 1 1 1 1 1 1 1 1 1 1 | | ....k k y y , , , , , , , , * * $ $ # # # # ",
"5 5 7 7 q q q q 0 0 0 0 0 0 0 0 0 0 0 0 0 0 y y y y t t 1 1 1 1 1 1 1 1 1 1 1 1 1 1 1 1 1 1 1 1 1 1 1 1 1 1 x x ` ` b b y y q q 5 5 ; ; ; ; - - - - , , - - # # ",
"5 5 7 7 q q q q 0 0 0 0 0 0 0 0 0 0 0 0 0 0 y y y y t t 1 1 1 1 1 1 1 1 1 1 1 1 1 1 1 1 1 1 1 1 1 1 1 1 1 1 x x ` ` b b y y q q 5 5 ; ; ; ; - - - - , , - - # # ",
"* * * * * * - - , , 5 5 5 5 6 6 6 6 7 7 7 7 f f y y y y e e 1 1 1 1 1 1 1 1 1 1 1 1 1 1 1 1 1 1 1 1 1 1 1 1 D D U U y y w w q q q q q q q q q q q q q q 0 0 # # ",
"* * * * * * - - , , 5 5 5 5 6 6 6 6 7 7 7 7 f f y y y y e e 1 1 1 1 1 1 1 1 1 1 1 1 1 1 1 1 1 1 1 1 1 1 1 1 D D U U y y w w q q q q q q q q q q q q q q 0 0 # # ",
"# # # # # # $ $ $ $ - - ; ; ; ; ; ; ; ; ; ; ; ; y y y y y y e e 1 1 1 1 1 1 1 1 1 1 1 1 1 1 1 1 1 1 1 1 c c V V u u d d q q q q q q q q q q 0 0 q q q q 0 0 # # ",
"# # # # # # $ $ $ $ - - ; ; ; ; ; ; ; ; ; ; ; ; y y y y y y e e 1 1 1 1 1 1 1 1 1 1 1 1 1 1 1 1 1 1 1 1 c c V V u u d d q q q q q q q q q q 0 0 q q q q 0 0 # # ",
"* * - - 7 7 0 0 q q q q q q 0 0 0 0 7 7 7 7 6 6 2 2 y y y y y y r r 1 1 1 1 1 1 1 1 1 1 1 1 1 1 1 1 z z N N g g f f 0 0 6 6 6 6 5 5 5 5 , , , , ; ; ; ; - - # # ",
"* * - - 7 7 0 0 q q q q q q 0 0 0 0 7 7 7 7 6 6 2 2 y y y y y y r r 1 1 1 1 1 1 1 1 1 1 1 1 1 1 1 1 z z N N g g f f 0 0 6 6 6 6 5 5 5 5 , , , , ; ; ; ; - - # # ",
"* * $ $ $ $ - - , , 7 7 7 7 6 6 6 6 5 5 , , , , , ; i i y y y y y y y y r r 1 1 1 1 1 1 e e t t y y k k g g f f 7 7 7 7 6 6 5 5 , , , , ; ; ; ; ; ; - - - - # # ",
"* * $ $ $ $ - - , , 7 7 7 7 6 6 6 6 5 5 , , , , , , i i y y y y y y y y r r 1 1 1 1 1 1 e e t t y y k k g g f f 7 7 7 7 6 6 5 5 , , , , ; ; ; ; ; ; - - - - # # ",
"$ $ $ $ - - - - ; - ; ; , , , , , , , , , , ; ; ; ; ; ; 2 2 y y y y y y y y y y y y y y y y y y y y y y 3 3 6 6 8 7 0 0 8 8 0 0 0 0 0 0 0 0 q q q q q q , , * * ",
"$ $ $ $ * - - - ; ; ; ; , , , , , , , , , , ; ; ; ; ; ; 2 2 y y y y y y y y y y y y y y y y y y y y y y 3 3 6 6 7 7 0 0 8 8 0 0 0 0 0 0 0 0 q q q q q q , , * $ ",
"5 5 6 6 0 0 0 0 7 7 7 7 7 7 7 7 7 7 7 7 7 7 7 7 7 7 7 7 0 0 0 0 s s y y y y y y y y y y y y y y q q q q q q q q q q q q q q q q q q q q q q q q q q 0 0 ; ; * * ",
"5 5 6 6 0 0 0 0 7 7 7 7 7 7 7 7 7 7 7 7 7 7 7 7 7 7 7 7 0 0 0 0 s s y y y y y y y y y y y y y y q q q q q q q q q q q q q q q q q q q q q q q q q q 0 0 ; ; * * ",
"7 7 5 5 8 8 0 0 0 0 0 0 7 7 7 7 7 7 8 8 0 0 0 0 0 0 0 0 0 0 0 0 0 0 0 0 0 0 9 9 s s 9 9 0 0 q q q q q q q q q q q q q q q q q q q q 0 0 0 0 0 0 q q 0 0 ; ; * * ",
"7 7 6 6 8 8 0 0 0 0 0 0 7 7 7 7 7 7 8 8 0 0 0 0 0 0 0 0 0 0 0 0 0 0 0 0 0 0 9 9 s s 9 9 0 0 q q q q q q q q q q q q q q q q q q q q 0 0 0 0 0 0 q q 0 0 ; ; * * ",
"5 5 , , , , , , , , ; ; - - - - - - ; ; , , 5 5 6 6 6 6 6 6 6 6 5 5 5 5 , , , , , , , , 5 5 5 5 5 5 6 6 0 0 0 0 0 0 6 6 , , ; ; - - - - 0 0 0 0 0 0 6 6 , , # # ",
"5 5 , , , , , , , , ; ; - - - - - - ; ; , , 5 5 6 6 6 6 6 6 6 6 5 5 5 5 , , , , , , , , 5 5 5 5 5 5 6 6 0 0 0 0 0 0 6 6 , , - ; - - - - 0 0 0 0 0 0 6 6 , , # # ",
"$ $ # # # # # # # # # # $ $ $ $ # # # # * * * * $ $ # $ $ $ $ $ # # # # $ $ # $ # # # # # # # # # # # # $ $ * * * * # # $ $ $ $ $ $ * * * * $ $ $ $ # # # # # # ",
"$ $ # # # # # # # # # # # $ $ $ # # # # * * * * $ $ # $ $ $ $ $ # # # # $ $ # $ $ # # # # # # # # # # # $ $ * * * * # # $ $ $ $ $ $ * * * * $ $ $ $ # # # # # # ",
"; ; ; ; - - - - - - - - - - , , , , , , ; ; ; ; - - - - * * $ $ # # # # * * - - ; ; ; ; * * # # # # # # # # * * - - 5 5 6 6 6 6 6 6 , , , , , , ; ; - - - - - - ",
"; ; ; ; - - - - - - - - - - , , , , , , ; ; ; ; - - - - * * $ $ # # # # * * ; - ; ; ; ; * * # # # # # # # # * * - - 5 5 6 6 6 6 6 6 , , , , , , ; ; - - - - - - ",
"0 0 0 0 0 0 q q q q q q q q q q 0 0 0 0 0 0 q q q q q q 0 0 q q q q q q q q q q q q q q 6 6 - - * * * * 5 5 0 0 0 0 q q q q q q q q 0 0 0 0 0 0 0 0 7 7 7 7 7 7 ",
"0 0 0 0 0 0 q q q q q q q q q q 0 0 0 q 0 0 q q q q q q 0 0 q q q q q q q q q q q q q q 6 6 - - * * * * 5 5 0 8 0 0 q q q q q q q q 0 0 0 0 0 0 0 0 7 7 7 7 7 7 ",
"0 0 8 8 7 7 q q q q q q q q 0 0 0 0 q q q q 0 0 6 6 5 6 6 6 6 6 7 7 0 0 q q q q q q q q 0 0 - - - - - - 7 7 q q q q q q q q q q q q q q q q q q 0 0 0 0 0 0 q q ",
"0 0 8 8 7 7 q q q q q q q q 0 0 0 0 q q q q 0 0 6 6 6 6 6 6 6 6 7 7 0 0 q q q q q q q q 0 0 - - - - - - 7 7 q q q q q q q q q q q q q q q q q q 0 0 0 0 0 0 q q ",
"# # # # # # ; ; - - - - - - - - - - ; ; , , 6 6 6 6 6 6 7 7 7 7 0 0 q q q q q q q q q q q q ; ; * * - - 7 7 0 0 0 0 q q 0 0 0 0 0 0 0 0 q q q q q q q q q q 7 7 ",
"# # # # # # ; ; - - - - - - - - - - ; ; , , 6 6 6 6 6 6 7 7 7 7 0 0 q q q q q q q q q q q q ; ; * * - - 7 7 0 0 0 0 q q 0 0 0 0 0 0 0 0 q q q q q q q q q q 7 7 ",
"- - - - ; ; 5 5 6 6 6 6 6 6 6 6 6 6 6 6 6 6 6 6 6 6 6 6 6 6 7 7 7 7 7 7 0 0 0 0 8 8 8 0 8 8 , , * * # # * * * * - - , , , , , , , , , , 6 6 7 7 7 7 6 6 , , - - ",
"- - - - ; ; 5 5 6 6 6 6 6 6 6 6 6 6 6 6 6 6 6 6 6 6 6 6 6 6 7 7 7 7 7 7 0 0 0 0 8 8 0 0 0 0 , , * * # # * * * * - - , , , , , , , , , , 6 6 7 7 7 7 6 6 , , - - ",
"q q q q q q q q q q q q q q q q 0 0 0 0 0 0 7 7 7 7 7 7 7 7 7 7 7 7 7 7 7 7 7 7 7 7 7 7 7 7 ; ; * * # # - - - - - - ; ; , , , , 5 5 6 6 7 7 7 7 7 7 8 8 0 0 0 0 ",
"q q q q q q q q q q q q q q q q 0 0 0 0 0 0 7 7 7 7 7 7 7 7 7 7 7 7 7 7 7 7 7 7 7 7 7 7 7 7 ; ; * * # # - - - - - - ; ; , , , , 5 5 6 6 7 7 7 7 7 7 8 8 0 0 0 0 ",
"q q q q q q q q q q q q q q q q q q q q q q q q q q q q q q q q 0 0 8 8 6 6 6 6 6 6 6 6 6 6 , , * * * * 0 0 q q 0 0 q q q q q q q q q q q q q q q q q q q q 0 0 ",
"q q q q q q q q q q q q q q q q q q q q q q q q q q q q q q q q 0 0 8 8 6 6 6 6 6 6 6 6 6 6 , , * * * * 0 0 q q 0 0 q q q q q q q q q q q q q q q q q q q q 0 0 ",
"* * $ $ - - 6 6 6 6 6 6 6 6 6 6 6 6 6 6 6 6 6 6 6 6 6 6 , , = = = = : : : : : : : : : : : : & & @ @ @ @ , , 8 8 8 8 8 8 8 8 7 7 7 7 7 7 7 7 7 7 6 6 , , - - - - ",
"* * $ $ - - 6 6 6 6 6 6 6 6 6 6 6 6 6 6 6 6 6 6 6 6 6 6 , , : : = = : : : : : : : : : : : : & & @ @ @ @ , , 8 8 8 8 8 8 8 8 7 7 7 7 7 7 7 7 7 7 6 6 , , - - - - ",
"q q 7 7 7 7 0 0 0 0 0 0 0 0 0 0 0 0 0 0 0 0 0 0 0 0 , , : : = = = = = = = = = = = = = = = = & & @ @ @ @ = = ; ; = = ; , , , , , , , , , , , ; ; ; ; - - - - , , ",
"q q 7 7 7 7 0 0 0 0 0 0 0 0 0 0 0 0 0 0 0 0 0 0 0 0 , , : : = = = = = = = = = = = = = = = = & & @ @ @ @ = = ; ; = = , , , , , , , , , , , , ; ; ; ; - - - - , , ",
"- - * * * * * * - - - - - - - - - - - - - - ; ; ; ; , , , , , , = = & & & & & & % % % % % % % % @ @ @ @ ; ; 8 8 q q q q q q q q q q q q q q q q q q q q 0 0 q q ",
"- - * * * * * * - - - - - - - - - - - - - - ; ; ; ; , , , , , , = = & & & & & & % % % % % % % % @ @ @ @ , , 8 8 q q q q q q q q q q q q q q q q q q 0 q 0 0 q q ",
"* * # # # # $ $ ; ; ; ; , , , , ; ; ; ; ; ; - - - - - - - - - - 5 5 7 7 0 0 q q q q q q q q 6 6 # # # # 5 5 5 5 5 5 5 5 5 5 5 5 5 5 5 5 5 5 5 5 5 5 , , , , 7 7 ",
"* * # # # # $ $ ; ; ; ; , , , , ; ; ; ; - - - - - - - - - - - - 5 5 7 7 0 0 q q q q q q q q 6 6 # # # # 5 5 5 5 5 5 5 5 5 5 5 5 5 5 5 5 5 5 5 5 5 5 , , , , 7 7 ",
"6 6 0 0 0 0 q q q q q q q q q q q q q q q q q q q q q q q q q q q q q q q q q q q q q q q q 8 8 # # # # 7 7 7 7 7 7 7 7 7 7 7 7 6 6 6 6 6 6 6 6 6 6 6 6 6 6 7 7 ",
"6 6 0 0 0 0 q q q q q q q q q q q q q q q q q q q q q q q q q q q q q q q q q q q q q q q q 8 8 # # # # 7 7 7 7 7 7 7 7 7 7 7 7 6 6 6 6 6 6 6 6 6 6 6 6 6 6 7 7 "
};
