/* XPM */
static const char *enemie0[] = {
/* columns rows colors chars-per-pixel */
"80 80 254 2 ",
"   c #3D2F23",
".  c #3F3124",
"X  c #413224",
"o  c #3C2F22",
"O  c #3C2E22",
"+  c #3F3023",
"@  c #3E3023",
"#  c #403124",
"$  c #674C34",
"%  c #684D35",
"&  c #674D35",
"*  c #5B442F",
"=  c #513D2B",
"-  c #4D3A29",
";  c #4B3929",
":  c #55402D",
">  c #56412D",
",  c #58422E",
"<  c #59432F",
"1  c #5A432F",
"2  c #5A442F",
"3  c #5D4530",
"4  c #604731",
"5  c #644B33",
"6  c #654B34",
"7  c #644A33",
"8  c #624932",
"9  c #604732",
"0  c #5E4631",
"q  c #5F4731",
"w  c #634933",
"e  c #604832",
"r  c #473627",
"t  c #3C2F23",
"y  c #453426",
"u  c #614832",
"i  c #5D4630",
"p  c #664C34",
"a  c #433326",
"s  c #463527",
"d  c #483727",
"f  c #4C3929",
"g  c #57412E",
"h  c #3B2E22",
"j  c #503C2B",
"k  c #5C4530",
"l  c #5B4430",
"z  c #4D3A2A",
"x  c #423325",
"c  c #443426",
"v  c #453526",
"b  c #463526",
"n  c #4F3C2A",
"m  c #3E2F23",
"M  c #4C3A29",
"N  c #4A3829",
"B  c #4A3828",
"V  c #533F2C",
"C  c #5C4430",
"Z  c #413225",
"A  c #4F3B2A",
"S  c #523E2C",
"D  c #634A33",
"F  c #543F2D",
"G  c #56412E",
"H  c #533E2C",
"J  c #433325",
"K  c #56402D",
"L  c #624933",
"P  c #423225",
"I  c #4E3B2A",
"U  c #59422F",
"Y  c #59422E",
"T  c #664B34",
"R  c #4F3C2B",
"E  c #543F2C",
"W  c #3C2E23",
"Q  c #674C35",
"!  c #5F4631",
"~  c #493728",
"^  c #503D2B",
"/  c #523E2B",
"(  c #523D2C",
")  c #493828",
"_  c #933333",
"`  c #9D2F2E",
"'  c #9E3130",
"]  c #8A3534",
"[  c #463627",
"{  c #A23837",
"}  c #B45958",
"|  c #C77C7C",
" . c #DEA7A7",
".. c #CF8A8A",
"X. c #B15352",
"o. c #A03433",
"O. c #9F3332",
"+. c #754537",
"@. c #863534",
"#. c #A13635",
"$. c #CC8584",
"%. c #EDC2C2",
"&. c #F0C6C6",
"*. c #EFC5C5",
"=. c #E7B6B6",
"-. c #E0AAAA",
";. c #D79A99",
":. c #CA8180",
">. c #B96362",
",. c #A53D3C",
"<. c #953232",
"1. c #BF6E6D",
"2. c #EEC4C4",
"3. c #E5B3B3",
"4. c #C37575",
"5. c #BB6665",
"6. c #B25655",
"7. c #AB4948",
"8. c #A33A39",
"9. c #893434",
"0. c #CE8A89",
"q. c #F0C7C7",
"w. c #DBA1A1",
"e. c #4B3928",
"r. c #C67A7A",
"t. c #A74241",
"y. c #AE4D4D",
"u. c #EDC1C1",
"i. c #EABCBC",
"p. c #823E37",
"a. c #8D3534",
"s. c #E4B1B1",
"d. c #E6B5B4",
"f. c #9E302F",
"g. c #AC5150",
"h. c #932E2D",
"j. c #882B2B",
"k. c #812A2A",
"l. c #7F2A29",
"z. c #802A29",
"x. c #852B2A",
"c. c #912D2C",
"v. c #A64342",
"b. c #C57877",
"n. c #DA9E9E",
"m. c #A53E3D",
"M. c #9D3130",
"N. c #F5EDED",
"B. c #130D0D",
"V. c #682423",
"C. c #792928",
"Z. c #7A2928",
"A. c #ECE6E6",
"S. c #210E0E",
"D. c #923132",
"F. c #9A2F2E",
"G. c #822B2A",
"H. c gray22",
"J. c #040404",
"K. c #742827",
"L. c #787272",
"P. c black",
"I. c #9B2F2E",
"U. c #862B2A",
"Y. c #010000",
"T. c #792828",
"R. c #A74140",
"E. c #553F2D",
"W. c #443425",
"Q. c #6C4935",
"!. c #952E2D",
"~. c #140707",
"^. c #070303",
"/. c #140909",
"(. c #8C2C2B",
"). c #CC8484",
"_. c #D39292",
"`. c #8C3735",
"'. c #8F2D2C",
"]. c #8F3635",
"[. c #8D2C2B",
"{. c #ECC0C0",
"}. c #6D4435",
"|. c #922D2C",
" X c #822A2A",
".X c #EBBDBD",
"XX c #B05251",
"oX c #7C2929",
"OX c #AA4645",
"+X c #6B3C33",
"@X c #6A4C35",
"#X c #832B2A",
"$X c #9C2F2E",
"%X c #9A3130",
"&X c #4D3426",
"*X c #842B2A",
"=X c #9A2E2D",
"-X c #993030",
";X c #58402C",
":X c #533828",
">X c #452A20",
",X c #452A1F",
"<X c #882C2B",
"1X c #7B2929",
"2X c #5A2824",
"3X c #3D241C",
"4X c #3D251C",
"5X c #422A20",
"6X c #4A3425",
"7X c #483526",
"8X c #3A221B",
"9X c #39211A",
"0X c #39221B",
"qX c #3B231B",
"wX c #8D3031",
"eX c #972E2D",
"rX c #992E2D",
"tX c #832E30",
"yX c #5C2A28",
"uX c #44291F",
"iX c #462B20",
"pX c #4E3929",
"aX c #422B21",
"sX c #3D261D",
"dX c #3A231C",
"fX c #38221B",
"gX c #38211A",
"hX c #37211A",
"jX c #39221A",
"kX c #3E251D",
"lX c #41281E",
"zX c #472B20",
"xX c #40271E",
"cX c #331E18",
"vX c #3F271D",
"bX c #42291F",
"nX c #442B21",
"mX c #432B20",
"MX c #472F23",
"NX c #654A33",
"BX c #614631",
"VX c #5E432F",
"CX c #5C402D",
"ZX c #5A3F2C",
"AX c #593E2C",
"SX c #593D2B",
"DX c #583D2B",
"FX c #543928",
"GX c #563A2A",
"HX c #543A2A",
"JX c #38281E",
"KX c #39291F",
"LX c #573E2C",
"PX c #5A422E",
/* pixels */
"    . . X X X X o o o o o o o o o o o o . . O O O O o o o o                 + + @ @ @ @ @ @ @ @ X X X X # # # # . . + + + + . . . . . . # # # # . . . . X X X X ",
"    . . X X X X o o o o o o o o o o o o . . O O O O o o o o                 + + @ @ @ @ @ @ @ @ X X X X # # # # . . + + + + . . . . . . # # # # . . . . X X X X ",
"$ $ % % % % % % % % & & % % $ $ * * = = - - # # # # ; ; : : > > , , < < 1 1 2 2 3 3 4 4 5 5 $ $ & & % % % % % % % % % % % % % % % % % % % % % % % % % % % % % % ",
"$ $ % % % % % % % % & & % % $ $ * * = = - - # # # # ; ; : : > > , , < < 1 1 2 2 3 3 4 4 5 5 $ $ & & % % % % % % % % % % % % % % % % % % % % % % % % % % % % % % ",
"% % 6 6 7 7 8 8 9 9 0 0 q q w w e e q q q q r r t t y y * * 9 9 u u e e u u 9 9 0 0 i i i i 0 0 0 0 8 8 p p & & & & % % % % $ $ 7 7 7 7 6 6 5 5 7 7 7 7 w w % % ",
"% % 6 6 7 7 8 8 9 9 0 0 q q w w e e q q q q r r t t y y * * 9 9 u u e e u u 9 9 0 0 i i i i 0 0 0 0 8 8 p p & & & & % % % % $ $ 7 7 7 7 6 6 5 5 7 7 7 7 w w % % ",
"+ + o o o o a a y y s s d d f f = = g g 1 1 s s h h j j < < < < * * k k w w 5 5 5 5 5 5 w w 4 4 3 3 q q i i k k l l 1 1 1 1 z z x x c c v v r r r r r r r r % % ",
"+ + o o o o a a y y s s d d f f = = g g 1 1 s s h h j j < < < < * * k k w w 5 5 5 5 5 5 w w 4 4 3 3 q q i i k k l l 1 1 1 1 z z x x c c v v r r r r r r r r % % ",
"b b c c n n % % % % % % % % % % % % % % 7 7 v v m m n n , , q q 7 7 w w 9 9 0 0 l l , , = = M M f f = = j j f f ; ; N N B B ; ; M M - - V V C C q q 8 8 6 6 % % ",
"b b c c n n % % % % % % % % % % % % % % 7 7 v v m m n n , , q q 7 7 w w 9 9 0 0 l l , , = = M M f f = = j j f f ; ; N N B B ; ; M M - - V V C C q q 8 8 6 6 % % ",
"g g V V , , 0 0 4 4 u u u u 8 8 u u u u g g # # Z Z 1 1 $ $ % % & & 0 0 g g = = A A n n S S , , * * k k 0 0 8 8 5 5 $ $ % % % % % % % % % % % % % % % % % % % % ",
"g g V V , , 0 0 4 4 u u u u 8 8 u u u u g g # # Z Z 1 1 $ $ % % & & 0 0 g g = = A A n n S S , , * * k k 0 0 8 8 5 5 $ $ % % % % % % % % % % % % % % % % % % % % ",
"D D < < F F : : 1 1 , , g g G G g g * * H H # # J J > > 0 0 3 3 1 1 j j = = K K 3 3 7 7 $ $ & & % % % % % % % % % % % % % % % % % % % % % % % % % % % % % % % % ",
"D D < < F F : : 1 1 , , g g G G g g * * H H # # J J > > 0 0 3 3 1 1 j j = = K K 3 3 7 7 $ $ & & % % % % % % % % % % % % % % % % % % % % % % % % % % % % % % % % ",
"- - d d d d j j L L 7 7 6 6 p p % % % % * * x x P P M M ; ; I I = = F F F F F F : : g g U U < < U U Y Y , , , , , , 1 1 3 3 0 0 q q e e 8 8 w w 7 7 5 5 5 5 T T ",
"- - d d d d j j L L 7 7 6 6 p p % % % % * * x x P P M M ; ; I I = = F F F F F F : : g g U U < < U U Y Y , , , , , , 1 1 3 3 0 0 q q e e 8 8 w w 7 7 5 5 5 5 T T ",
"% % 7 7 7 7 7 7 7 7 7 7 7 7 w w 8 8 8 8 H H Z Z Z Z R R K K U U g g K K K K G G g g , , , , , , , , , , Y Y 1 1 F F M M I I I I A A n n n n R R j j - - z z 7 7 ",
"% % 7 7 7 7 7 7 7 7 7 7 7 7 w w 8 8 8 8 H H Z Z Z Z R R K K U U g g K K K K G G g g , , , , , , , , , , Y Y 1 1 F F M M I I I I A A n n n n R R j j - - z z 7 7 ",
"* * : : , , 1 1 * * * * l l * * l l l l S S Z Z x x E E L L % % % % % % $ $ 5 5 w w w w D D 7 7 7 7 7 7 7 7 6 6 q q g g g g K K F F V V F F : : > > S S H H u u ",
"* * : : , , 1 1 * * * * l l * * l l l l S S Z Z x x E E L L % % % % % % $ $ 5 5 w w w w D D 7 7 7 7 7 7 7 7 6 6 q q g g g g K K F F V V F F : : > > S S H H u u ",
"7 7 2 2 > > : : > > 1 1 u u 6 6 $ $ w w * * v v W W j j 4 4 % % % % % % % % p p 7 7 w w L L 8 8 8 8 8 8 8 8 8 8 w w 5 5 6 6 6 6 p p % % % % % % % % % % % % i i ",
"7 7 2 2 > > : : > > 1 1 u u 6 6 $ $ w w * * v v W W j j 4 4 % % % % % % % % p p 7 7 w w L L 8 8 8 8 8 8 8 8 8 8 w w 5 5 6 6 6 6 p p % % % % % % % % % % % % i i ",
"% % % % % % % % % % % % % % % % % % e e q q a a h h : : g g Q Q % % % % % % % % % % % % % % % % % % % % % % % % % % % % % % % % % % % % % % % % % % % % % % k k ",
"% % % % % % % % % % % % % % % % % % e e q q a a h h : : g g Q Q % % % % % % % % % % % % % % % % % % % % % % % % % % % % % % % % % % % % % % % % % % % % % % k k ",
"u u u u 8 8 u u 8 8 D D w w 6 6 6 6 0 0 1 1 O O O O c c x x 2 2 6 6 6 6 5 5 Q Q & & $ $ 5 5 D D u u u u 7 7 8 8 q q q q q q 0 0 k k 1 1 : : ! ! q q 1 1 S S r r ",
"u u u u 8 8 u u 8 8 D D w w 6 6 6 6 0 0 1 1 O O O O c c x x 2 2 6 6 6 6 5 5 Q Q & & $ $ 5 5 D D u u u u 7 7 8 8 q q q q q q 0 0 k k 1 1 : : ! ! q q 1 1 S S r r ",
"O O O O O O O O O O O O O O O O O O o o o o o o J J o o O O o o o o                             o o o o o o o o o o o o o o o o o o     @ @ @ @     o o O O o o ",
"O O O O O O O O O O O O O O O O O O o o o o o o J J o o O O o o o o                             o o o o o o o o o o o o o o o o o o     @ @ @ @     o o O O o o ",
"d d b b ~ ~ B B B B ; ; I I ^ ^ / / j j j j I I 8 8 I I I I j j S S : : 1 1 0 0 0 0 q q 4 4 9 9 e e u u D D 7 7 w w q q k k 1 1 * * 3 3 3 3 q q L L w w a a @ @ ",
"d d b b ~ ~ B B B B ; ; I I ^ ^ / / j j j j I I 8 8 I I I I j j S S : : 1 1 0 0 0 0 q q 4 4 9 9 e e u u D D 7 7 w w q q k k 1 1 * * 3 3 3 3 q q L L w w a a @ @ ",
"b b v v b b c c c c z z n n j j ^ ^ ( ( : : 1 1 q q 9 9 e e 4 4 e e 8 8 8 8 8 8 w w D D 6 6 $ $ % % % % % % % % % % % % % % % % % % % % % % % % % % % % = = O O ",
"b b v v b b c c c c z z n n j j ^ ^ ( ( : : 1 1 q q 9 9 e e 4 4 e e 8 8 8 8 8 8 w w D D 6 6 $ $ % % % % % % % % % % % % % % % % % % % % % % % % % % % % = = O O ",
"J J c c b b b b b b ~ ~ ) ) B B f f I I H H , , 9 9 5 5 p p $ $ $ $ $ $ $ $ T T 6 6 6 6 6 6 6 6 T T T T T T 6 6 6 6 7 7 u u 0 0 0 0 k k l l 1 1 g g S S d d O O ",
"J J c c b b b b b b ~ ~ ) ) B B f f I I H H , , 9 9 5 5 p p $ $ $ $ $ $ $ $ T T 6 6 6 6 6 6 6 6 T T T T T T 6 6 6 6 7 7 u u 0 0 0 0 k k l l 1 1 g g S S d d O O ",
"g g 3 3 % % % % % % % % % % % % % % % % % % % % % % % % % % % % % % % % $ $ T T 8 8 q q 0 0 0 0 i i k k k k l l 1 1 < < g g K K V V S S = = = = # # @ @     O O ",
"g g 3 3 % % % % % % % % % % % % % % % % % % % % % % % % % % % % % % % % $ $ T T 8 8 q q 0 0 0 0 i i k k k k l l 1 1 < < g g K K V V S S = = = = # # @ @     O O ",
"> > 3 3 & & $ $ T T 6 6 7 7 D D w w 8 8 8 8 8 8 8 8 8 8 w w u u _ _ ` ` ` ` ` ` ' ' ` ` ` ` ] ] 8 8 $ $ & & Q Q $ $ $ $ & & $ $ > > M M f f ; ; r r = = ; ; O O ",
"> > 3 3 & & $ $ T T 6 6 7 7 D D w w 8 8 8 8 8 8 8 8 8 8 w w u u _ _ ` ` ` ` ` ` ' ' ` ` ` ` ] ] 8 8 $ $ & & Q Q $ $ $ $ & & $ $ > > M M f f ; ; r r = = ; ; O O ",
"P P X X P P [ [ E E : : g g , , 1 1 l l 0 0 0 0 0 0 i i ` ` ` ` { { } } | |  . .....X.X.o.o.O.O.` ` ` ` +.+.% % % % % % % % % % % % & & & & & & % % & & u u O O ",
"P P X X P P [ [ E E : : g g , , 1 1 l l 0 0 0 0 0 0 i i ` ` ` ` { { } } | |  . .....X.X.o.o.O.O.` ` ` ` +.+.% % % % % % % % % % % % & & & & & & % % & & u u O O ",
"            @ @ + + [ [ z z z z z z - - z z I I @.@.` ` #.#.$.$.%.%.&.&.*.*.=.=.-.-.;.;.:.:.>.>.,.,.` ` ` ` ` ` % % % % % % % % & & $ $ $ $ T T $ $ p p w w O O ",
"            @ @ + + [ [ z z z z z z - - z z I I @.@.` ` #.#.$.$.%.%.&.&.*.*.=.=.-.-.;.;.:.:.>.>.,.,.` ` ` ` ` ` % % % % % % % % & & $ $ $ $ T T $ $ p p w w O O ",
"P P ~ ~ k k w w % % % % % % 6 6 8 8 q q 3 3 <.<.` ` 1.1.2.2.&.&.*.*.3.3.4.4.5.5.6.6.7.7.8.8.o.o.` ` ` ` ` ` ` ` ` ` 8 8 * * , , g g > > V V = = n n - - d d O O ",
"P P ~ ~ k k w w % % % % % % 6 6 8 8 q q 3 3 <.<.` ` 1.1.2.2.&.&.*.*.3.3.4.4.5.5.6.6.7.7.8.8.o.o.` ` ` ` ` ` ` ` ` ` 8 8 * * , , g g > > V V = = n n - - d d O O ",
"X X . . . . v v S S k k l l 1 1 , , g g 9.9.` ` 0.0.&.&.q.q.w.w.#.#.` ` ` ` ` ` ` ` ` ` ` ` ` ` ` ` ` ` ` ` ` ` ` ` ` ` 1 1 : : H H H H I I I I A A ; ; e.e.O O ",
"X X . . . . v v S S k k l l 1 1 , , g g 9.9.` ` 0.0.&.&.q.q.w.w.#.#.` ` ` ` ` ` ` ` ` ` ` ` ` ` ` ` ` ` ` ` ` ` ` ` ` ` 1 1 : : H H H H I I I I A A ; ; e.e.O O ",
". . . . c c r r f f n n ^ ^ = = = = / / ` ` r.r.&.&.*.*.t.t.` ` ` ` ` ` ` ` ` ` ` ` ` ` ` ` ` ` ` ` ` ` ` ` ` ` ` ` ` ` ` ` u u 7 7 6 6 T T p p % % p p j j # # ",
". . . . c c r r f f n n ^ ^ = = = = / / ` ` r.r.&.&.*.*.t.t.` ` ` ` ` ` ` ` ` ` ` ` ` ` ` ` ` ` ` ` ` ` ` ` ` ` ` ` ` ` ` ` u u 7 7 6 6 T T p p % % p p j j # # ",
": : * * w w u u 9 9 q q 0 0 3 3 3 3 ` ` y.y.u.u.i.i.` ` ` ` ` ` ` ` ` ` ` ` ` ` ` ` ` ` ` ` ` ` ` ` ` ` ` ` ` ` ` ` ` ` ` ` p.p.% % % % % % % % % % T T I I x x ",
": : * * w w u u 9 9 q q 0 0 3 3 3 3 ` ` y.y.u.u.i.i.` ` ` ` ` ` ` ` ` ` ` ` ` ` ` ` ` ` ` ` ` ` ` ` ` ` ` ` ` ` ` ` ` ` ` ` p.p.% % % % % % % % % % T T I I x x ",
"l l , , 4 4 u u L L 8 8 q q q q a.a.` ` s.s.d.d.f.f.` ` ` ` g.g.h.h.j.j.k.k.l.l.z.z.x.x.c.c.` ` v.v.` ` ` ` ` ` ` ` ` ` ` ` ` ` p p T T T T 6 6 % % 7 7 I I # # ",
"l l , , 4 4 u u L L 8 8 q q q q a.a.` ` s.s.d.d.f.f.` ` ` ` g.g.h.h.j.j.k.k.l.l.z.z.x.x.c.c.` ` v.v.` ` ` ` ` ` ` ` ` ` ` ` ` ` p p T T T T 6 6 % % 7 7 I I # # ",
": : = = S S ( ( ^ ^ A A ; ; B B ` ` b.b.n.n.m.m.` ` M.M.N.N.B.B.V.V.C.C.C.C.C.C.C.C.C.C.C.C.Z.Z.A.A.S.S.` ` ` ` ` ` ` ` ` ` ` ` D.D.B B w w w w 7 7 1 1 = = O O ",
": : = = S S ( ( ^ ^ A A ; ; B B ` ` b.b.n.n.m.m.` ` M.M.N.N.B.B.V.V.C.C.C.C.C.C.C.C.C.C.C.C.Z.Z.A.A.S.S.` ` ` ` ` ` ` ` ` ` ` ` D.D.B B w w w w 7 7 1 1 = = O O ",
"+ +     o o o o o o o o o o ` ` { { 1.1.t.t.` ` F.F.G.G.H.H.J.J.K.K.C.C.C.C.C.C.C.C.C.C.C.C.C.C.L.L.P.P.I.I.` ` ` ` ` ` ` ` ` ` ` ` X X # # + + + +         o o ",
"+ +     o o o o o o o o o o ` ` { { 1.1.t.t.` ` F.F.G.G.H.H.J.J.K.K.C.C.C.C.C.C.C.C.C.C.C.C.C.C.L.L.P.P.I.I.` ` ` ` ` ` ` ` ` ` ` ` X X # # + + + +         o o ",
"- - z z ~ ~ s s r r r r ; ; ` ` #.#.m.m.` ` ` ` U.U.C.C.Y.Y.P.P.C.C.C.C.C.C.C.C.C.C.C.C.C.C.C.C.P.P.P.P.T.T.I.I.` ` ` ` R.R.t.t.` ` ^ ^ E.E.F F n n B B [ [ W.W.",
"- - z z ~ ~ s s r r r r ; ; ` ` #.#.m.m.` ` ` ` U.U.C.C.Y.Y.P.P.C.C.C.C.C.C.C.C.C.C.C.C.C.C.C.C.P.P.P.P.T.T.I.I.` ` ` ` R.R.t.t.` ` ^ ^ E.E.F F n n B B [ [ W.W.",
"8 8 5 5 T T p p p p p p Q.Q.` ` ` ` ` ` ` ` !.!.Z.Z.C.C.~.~.^.^.C.C.C.C.C.C.C.C.C.C.C.C.C.C.C.C././././.C.C.(.(.` ` ` ` ).)._._.` ` `.`.w w 8 8 u u q q 3 3 3 3 ",
"8 8 5 5 T T p p p p p p Q.Q.` ` ` ` ` ` ` ` !.!.Z.Z.C.C.~.~.^.^.C.C.C.C.C.C.C.C.C.C.C.C.C.C.C.C././././.C.C.(.(.` ` ` ` ).)._._.` ` `.`.w w 8 8 u u q q 3 3 3 3 ",
"7 7 4 4 q q % % % % & & $ $ ` ` ` ` ` ` ` ` '.'.C.C.C.C.C.C.C.C.C.C.C.C.C.C.C.C.C.C.C.C.C.C.C.C.C.C.C.C.C.C.k.k.` ` ` ` *.*.u.u.` ` ].].% % $ $ 6 6 7 7 7 7 % % ",
"7 7 4 4 q q % % % % & & $ $ ` ` ` ` ` ` ` ` '.'.C.C.C.C.C.C.C.C.C.C.C.C.C.C.C.C.C.C.C.C.C.C.C.C.C.C.C.C.C.C.k.k.` ` ` ` *.*.u.u.` ` ].].% % $ $ 6 6 7 7 7 7 % % ",
"o o o o     f f ; ; N N B B ` ` ` ` ` ` ` ` [.[.C.C.C.C.C.C.C.C.C.C.C.C.C.C.C.C.C.C.C.C.C.C.C.C.C.C.C.C.C.C.l.l.` ` 7.7.q.q.{.{.` ` }.}.Q Q % % % % % % % % q q ",
"o o o o     f f ; ; N N B B ` ` ` ` ` ` ` ` [.[.C.C.C.C.C.C.C.C.C.C.C.C.C.C.C.C.C.C.C.C.C.C.C.C.C.C.C.C.C.C.l.l.` ` 7.7.q.q.{.{.` ` }.}.Q Q % % % % % % % % q q ",
"d d ~ ~ n n g g * * * * 1 1 ` ` ` ` ` ` ` ` |.|.C.C.C.C.C.C.C.C.C.C.C.C.C.C.C.C.C.C.C.C.C.C.C.C.C.C.C.C.C.C. X X` ` X.X..X.XXXXX` ` S S * * 3 3 l l * * F F B B ",
"d d ~ ~ n n g g * * * * 1 1 ` ` ` ` ` ` ` ` |.|.C.C.C.C.C.C.C.C.C.C.C.C.C.C.C.C.C.C.C.C.C.C.C.C.C.C.C.C.C.C. X X` ` X.X..X.XXXXX` ` S S * * 3 3 l l * * F F B B ",
"% % % % % % % % % % % % % % & & ` ` ` ` ` ` I.I.oXoXC.C.C.C.C.C.C.C.C.C.C.C.C.C.C.C.C.C.C.C.C.C.C.C.C.C.Z.Z.[.[.` ` OXOXR.R.` ` +X+X< < 0 0 0 0 q q 9 9 8 8 6 6 ",
"% % % % % % % % % % % % % % & & ` ` ` ` ` ` I.I.oXoXC.C.C.C.C.C.C.C.C.C.C.C.C.C.C.C.C.C.C.C.C.C.C.C.C.C.Z.Z.[.[.` ` OXOXR.R.` ` +X+X< < 0 0 0 0 q q 9 9 8 8 6 6 ",
"$ $ % % % % % % % % % % % % % % @X@X` ` ` ` ` ` c.c.C.C.C.C.C.C.C.C.C.C.C.C.C.C.C.C.C.C.C.C.C.C.C.C.C.C.#X#X$X$X` ` O.O.` ` %X%X% % % % % % % % % % % % % % 7 7 ",
"$ $ % % % % % % % % % % % % % % @X@X` ` ` ` ` ` c.c.C.C.C.C.C.C.C.C.C.C.C.C.C.C.C.C.C.C.C.C.C.C.C.C.C.C.#X#X$X$X` ` O.O.` ` %X%X% % % % % % % % % % % % % % 7 7 ",
"x x . . r r , , , , , , , , , , , , &X&X` ` ` ` ` ` '.'.Z.Z.C.C.C.C.C.C.C.C.C.C.C.C.C.C.C.C.C.C.Z.Z.*X*X=X=X` ` ` ` ` ` -X-X;X;X0 0 0 0 k k l l 1 1 H H [ [ [ [ ",
"x x . . r r , , , , , , , , , , , , &X&X` ` ` ` ` ` '.'.Z.Z.C.C.C.C.C.C.C.C.C.C.C.C.C.C.C.C.C.C.Z.Z.*X*X=X=X` ` ` ` ` ` -X-X;X;X0 0 0 0 k k l l 1 1 H H [ [ [ [ ",
"$ $ 3 3 0 0 u u 7 7 6 6 6 6 :X:X>X>X,X,X,X,X-X-X` ` ` ` I.I.<X<X1X1XC.C.C.C.C.C.C.C.C.C.1X1XG.G.|.|.` ` ` ` ` ` ` ` 2X2X3X3X4X4X5X5X6X6XH H n n - - ; ; r r = = ",
"$ $ 3 3 0 0 u u 7 7 6 6 6 6 :X:X>X>X,X,X,X,X-X-X` ` ` ` I.I.<X<X1X1XC.C.C.C.C.C.C.C.C.C.1X1XG.G.|.|.` ` ` ` ` ` ` ` 2X2X3X3X4X4X5X5X6X6XH H n n - - ; ; r r = = ",
"~ ~ J J Z Z P P ; ; e.e.7X7X8X8X9X9X0X0X0X0X8X8XqXqXwXwX` ` ` ` ` ` I.I.eXeX!.!.!.!.rXrX` ` ` ` ` ` tXtXyXyXuXuXiXiXiXiXiXiXiXiX:X:X$ $ $ $ $ $ p p T T 6 6 % % ",
"~ ~ J J Z Z P P ; ; e.e.7X7X8X8X9X9X0X0X0X0X8X8XqXqXwXwX` ` ` ` ` ` I.I.eXeX!.!.!.!.rXrX` ` ` ` ` ` tXtXyXyXuXuXiXiXiXiXiXiXiXiX:X:X$ $ $ $ $ $ p p T T 6 6 % % ",
"# #         + + z z I I j j pXpXaXaXsXsXsXsXdXdXfXfXgXgXhXhXjXjXkXkXlXlXuXuXiXiXiXiXzXzXzXzXxXxXcXcXcXcXvXvXbXbXnXnXmXmXbXbXMXMXg g g g > > : : : : V V F F l l ",
"# #         + + z z I I j j pXpXaXaXsXsXsXsXdXdXfXfXgXgXhXhXjXjXkXkXlXlXuXuXiXiXiXiXzXzXzXzXxXxXcXcXcXcXvXvXbXbXnXnXmXmXbXbXMXMXg g g g > > : : : : V V F F l l ",
"< < u u T T % % % % % % % % % % % % % % NXNXBXBXVXVXCXCXZXZXAXAXSXSXSXSXDXDXFXFXFXFXGXGXAXAXHXHXJXJXKXKXLXLXPXPXC C C C k k l l 2 2 1 1 < < < < , , , , * * 3 3 ",
"< < u u T T % % % % % % % % % % % % % % NXNXBXBXVXVXCXCXZXZXAXAXSXSXSXSXDXDXFXFXFXFXGXGXAXAXHXHXJXJXKXKXLXLXPXPXC C C C k k l l 2 2 1 1 < < < < , , , , * * 3 3 "
};
