/* XPM */
static const char *floor[] = {
/* columns rows colors chars-per-pixel */
"80 80 66 1 ",
"  c #684D35",
". c #473627",
"X c #483728",
"o c #543F2D",
"O c #59432F",
"+ c #634933",
"@ c #644A33",
"# c #654B34",
"$ c #664C34",
"% c #674C35",
"& c #664B34",
"* c #644B33",
"= c #624932",
"- c #614832",
"; c #463527",
": c #463627",
"> c #4D3A29",
", c #543F2C",
"< c #59422F",
"1 c #5A432F",
"2 c #5B442F",
"3 c #5F4731",
"4 c #604731",
"5 c #624933",
"6 c #674C34",
"7 c #674D35",
"8 c #4A3828",
"9 c #4A3829",
"0 c #4B3929",
"q c #4C3A29",
"w c #4F3C2B",
"e c #533E2C",
"r c #57412E",
"t c #5B4430",
"y c #493728",
"u c #5C4530",
"i c #5D4530",
"p c #5E4631",
"a c #503C2B",
"s c #4D3B2A",
"d c #4E3B2A",
"f c #4F3B2A",
"g c #58422E",
"h c #4D3A2A",
"j c #604832",
"k c #55402D",
"l c #523E2C",
"z c #56412D",
"x c #513D2B",
"c c #4F3C2A",
"v c #56402D",
"b c #634A33",
"n c #523D2C",
"m c #59422E",
"M c #5C4430",
"N c #604732",
"B c #453526",
"V c #5D4630",
"C c #453426",
"Z c #533F2C",
"A c #56412E",
"S c #553F2D",
"D c #483727",
"F c #483627",
"G c #493828",
"H c #4C3929",
/* pixels */
"                      ..XXooooOO++@@##$$                                        ",
"                      ..XXooooOO++@@##$$                                        ",
"  %%&&**++==####@@**--;;::>>,,<<1122333344443344--55&&            6677  %%6666$$",
"  %%&&**++==####@@**--;;::>>,,<<1122333344443344--55&&            6677  %%6666$$",
"XX..889900qqwweerrtt22;;yy2222uuiipp@@########@@--++==------33ppaassddffdddddddd",
"XX..889900qqwweerrtt22;;yy2222uuiipp@@########@@--++==------33ppaassddffdddddddd",
"oogg%%              --;;hhgg11jj++++++==--4411kkllzzzzeexxaaffddddssccvvttii44==",
"oogg%%              --;;hhgg11jj++++++==--4411kkllzzzzeexxaaffddddssccvvttii44==",
"bb----bb##&&$$66&&@@11;;ll**      ++iirreenneevvmm11MMppNN--@@&&66              ",
"bb----bb##&&$$66&&@@11;;ll**      ++iirreenneevvmm11MMppNN--@@&&66              ",
"bb==jjppMM2211111122kkBBkk@@##==VVoozz<<pp++##$$6677                            ",
"bb==jjppMM2211111122kkBBkk@@##==VVoozz<<pp++##$$6677                            ",
"33NN--------==@@$$  iiBBvvggrrmm11221111ttppNN------------==@@######&&$$%%      ",
"33NN--------==@@$$  iiBBvvggrrmm11221111ttppNN------------==@@######&&$$%%      ",
"####&&$$66%%        VVCCZZAAookkookkvvAAggggggggggrrggrrggookkAAggOO22MMuuiiMMuu",
"####&&$$66%%        VVCCZZAAookkookkvvAAggggggggggrrggrrggookkAAggOO22MMuuiiMMuu",
"55==----4433ppiiuuuuggCCrr    77$$@@55==--==++@@@@@@####&&mmggAAkkZZllxxnnnnssaa",
"55==----4433ppiiuuuuggCCrr    77$$@@55==--==++@@@@@@####&&mmggAAkkZZllxxnnnnssaa",
"NN444444jj--==@@##  NNCCkk            $$**@@bb++55==----------jj----bb##66666666",
"NN444444jj--==@@##  NNCCkk            $$**@@bb++55==----------jj----bb##66666666",
"                    44CC00            $$##########&&$$66%%77                    ",
"                    44CC00            $$##########&&$$66%%77                    ",
"                    zzCC00                                    77$$##@@++======@@",
"                    zzCC00                                    77$$##@@++======@@",
"77$$ppmmSSxxqqDDFF;;;;CCGG0000qqhh>>HHHH00000099999999000000HHHH>>hhssddddhhXX::",
"77$$ppmmSSxxqqDDFF;;;;CCGG0000qqhh>>HHHH00000099999999000000HHHH>>hhssddddhhXX::",
"qq00DD....XXGG00aaHHff88ddZZgg22uuuuiipppp33--==++bb@@++==------------====++,,..",
"qq00DD....XXGG00aaHHff88ddZZgg22uuuuiipppp33--==++bb@@++==------------====++,,..",
"==&&              66$$##$$66666666%%%%7777                                  --DD",
"==&&              66$$##$$66666666%%%%7777                                  --DD",
"==ppiiiiiiuuuuuuiipp==++@@@@@@bb++++55==++++@@&&66                          ==FF",
"==ppiiiiiiuuuuuuiipp==++@@@@@@bb++++55==++++@@&&66                          ==FF",
"$$**bb55======++@@@@####&&66          %%$$&&##########**@@@@==33ppuutt11OOggoo;;",
"$$**bb55======++@@@@####&&66          %%$$&&##########**@@@@==33ppuutt11OOggoo;;",
"                                      $$@@55--jj333333ppppiiuu2211zzvvvvvvzz,,::",
"                                      $$@@55--jj333333ppppiiuu2211zzvvvvvvzz,,::",
"7766$$##**@@@@++++55555555++++--uuttuuiipp33jj==@@66            @@zzeeeeeellff;;",
"7766$$##**@@@@++++55555555++++--uuttuuiipp33jj==@@66            @@zzeeeeeellff;;",
"ppppuu11OO1122ttiippNN443333--bbbbbb++==----55@@66                          33DD",
"ppppuu11OO1122ttiippNN443333--bbbbbb++==----55@@66                          33DD",
"AAmmmmvvZZllllllllllee,,ooggttppjj==++bb@@@@@@**$$                  %%66$$&&11FF",
"AAmmmmvvZZllllllllllee,,ooggttppjj==++bb@@@@@@**$$                  %%66$$&&11FF",
"####$$77    &&@@==44pp11AAkk,,eeZZooAA11--$$      %%66$$##@@@@++555555++++bbrrDD",
"####$$77    &&@@==44pp11AAkk,,eeZZooAA11--$$      %%66$$##@@@@++555555++++bbrrDD",
"--------NN33ppuutt11AAkkSSSSooaaccddhh>>ssxxkkgg1122uupppp4433ppiiuu33333333eeDD",
"--------NN33ppuutt11AAkkSSSSooaaccddhh>>ssxxkkgg1122uupppp4433ppiiuu33333333eeDD",
"VVpppppppp3344334444uuOOggrrooaaddhhqqHH000000HHssaaooOOpp--33jj--@@**####&&,,yy",
"VVpppppppp3344334444uuOOggrrooaaddhhqqHH000000HHssaaooOOpp--33jj--@@**####&&,,yy",
"                                                                            eeyy",
"                                                                            eeyy",
"@@##$$66%%$$$$66%%                                                          xxGG",
"@@##$$66%%$$$$66%%                                                          xxGG",
"ppVViiiiVV11ggrrrrrrrrrrgg<<OO11112222ttuupp--@@**&&6677  ##++++======----jjhhyy",
"ppVViiiiVV11ggrrrrrrrrrrgg<<OO11112222ttuupp--@@**&&6677  ##++++======----jjhhyy",
"55==55====5555++@@**######**@@==----jj----55@@##@@zzAA22++bb--33--@@####$$66,,aa",
"55==55====5555++@@**######**@@==----jj----55@@##@@zzAA22++bb--33--@@####$$66,,aa",
"XX..::8800hhaaddddhhhhhhhh>>qqqqqqqqHHHHXX..::;;CCCCCC..99ddffaaffqq0099yyDD::BB",
"XX..::8800hhaaddddhhhhhhhh>>qqqqqqqqHHHHXX..::;;CCCCCC..99ddffaaffqq0099yyDD::BB",
"yy..BB;;::XXccwwaann,,rr11uuiiVVppNNpppp11ookkooDDCCddSSZZllnnxxhh..;;;;CCBB..FF",
"yy..BB;;::XXccwwaann,,rr11uuiiVVppNNpppp11ookkooDDCCddSSZZllnnxxhh..;;;;CCBB..FF",
"--@@####******##&&66                            OO..++$$66        66$$&&--iitttt",
"--@@####******##&&66                            OO..++$$66        66$$&&--iitttt",
"bb----NN3333pppp33jj**                          11..&&$$@@++====55bb@@##$$%%    ",
"bb----NN3333pppp33jj**                          11..&&$$@@++====55bb@@##$$%%    ",
"xxccccddddhhhhddaallzz22ttuupp--@@$$            11..iiiitt@@##**@@==55    77%%66",
"xxccccddddhhhhddaallzz22ttuupp--@@$$            11..iiiitt@@##**@@==55    77%%66",
"          7766&&@@==--NN443333333333NNjjNN4433NNvv;;..BB;;HHaaxxxxllAAMMttttttuu",
"          7766&&@@==--NN443333333333NNjjNN4433NNvv;;..BB;;HHaaxxxxllAAMMttttttuu",
"            66&&@@++==----jj44444433444444444444zz;;mm11zzOOMMiipp--++@@@@##$$%%",
"            66&&@@++==----jj44444433444444444444zz;;mm11zzOOMMiipp--++@@@@##$$%%",
"66%%                                            MM..%%                          ",
"66%%                                            MM..%%                          ",
"uutt2211111111111122ttuuiippNN--==**$$66%%77    uu..33jj33ppppppppVViitt2211OO11",
"uutt2211111111111122ttuuiippNN--==**$$66%%77    uu..33jj33ppppppppVViitt2211OO11",
"          77666666666666$$$$&&########@@@@@@@@$$gg..pp33ggggggggggmmOO<<SS,,SSzz",
"          77666666666666$$$$&&########@@@@@@@@$$gg..pp33ggggggggggmmOO<<SS,,SSzz",
"ppppjj--==++@@##$$77                            eeFF@@                      7766",
"ppppjj--==++@@##$$77                            eeFF@@                      7766",
"AAeeeeZZooSSSSSSoo,,llccffffaazz33@@$$          xxyy++                $$@@@@++==",
"AAeeeeZZooSSSSSSoo,,llccffffaazz33@@$$          xxyy++                $$@@@@++=="
};
