/* XPM */
static const char *floor[] = {
/* columns rows colors chars-per-pixel */
"80 80 91 1 ",
"  c #3D2F23",
". c #3F3124",
"X c #413224",
"o c #3C2F22",
"O c #3C2E22",
"+ c #3F3023",
"@ c #3E3023",
"# c #403124",
"$ c #674C34",
"% c #684D35",
"& c #674D35",
"* c #5B442F",
"= c #513D2B",
"- c #4D3A29",
"; c #4B3929",
": c #55402D",
"> c #56412D",
", c #58422E",
"< c #59432F",
"1 c #5A432F",
"2 c #5A442F",
"3 c #5D4530",
"4 c #604731",
"5 c #644B33",
"6 c #654B34",
"7 c #644A33",
"8 c #624932",
"9 c #604732",
"0 c #5E4631",
"q c #5F4731",
"w c #634933",
"e c #604832",
"r c #473627",
"t c #3C2F23",
"y c #453426",
"u c #614832",
"i c #5D4630",
"p c #664C34",
"a c #433326",
"s c #463527",
"d c #483727",
"f c #4C3929",
"g c #57412E",
"h c #3B2E22",
"j c #503C2B",
"k c #5C4530",
"l c #5B4430",
"z c #4D3A2A",
"x c #423325",
"c c #443426",
"v c #453526",
"b c #463526",
"n c #4F3C2A",
"m c #3E2F23",
"M c #4C3A29",
"N c #4A3829",
"B c #4A3828",
"V c #533F2C",
"C c #5C4430",
"Z c #413225",
"A c #4F3B2A",
"S c #523E2C",
"D c #634A33",
"F c #543F2D",
"G c #56412E",
"H c #533E2C",
"J c #433325",
"K c #56402D",
"L c #624933",
"P c #423225",
"I c #4E3B2A",
"U c #59422F",
"Y c #59422E",
"T c #664B34",
"R c #4F3C2B",
"E c #543F2C",
"W c #3C2E23",
"Q c #674C35",
"! c #5F4631",
"~ c #493728",
"^ c #503D2B",
"/ c #523E2B",
"( c #523D2C",
") c #493828",
"_ c #463627",
"` c #483627",
"' c #553F2D",
"] c #4B3928",
"[ c #4D3B2A",
"{ c #443425",
"} c #483728",
/* pixels */
"  ..XXXXoooooooooooo..OOOOoooo        ++@@@@@@@@XXXX####..++++......####....XXXX",
"  ..XXXXoooooooooooo..OOOOoooo        ++@@@@@@@@XXXX####..++++......####....XXXX",
"$$%%%%%%%%&&%%$$**==--####;;::>>,,<<1122334455$$&&%%%%%%%%%%%%%%%%%%%%%%%%%%%%%%",
"$$%%%%%%%%&&%%$$**==--####;;::>>,,<<1122334455$$&&%%%%%%%%%%%%%%%%%%%%%%%%%%%%%%",
"%%6677889900qqwweeqqqqrrttyy**99uueeuu9900iiii000088pp&&&&%%%%$$777766557777ww%%",
"%%6677889900qqwweeqqqqrrttyy**99uueeuu9900iiii000088pp&&&&%%%%$$777766557777ww%%",
"++ooooaayyssddff==gg11sshhjj<<<<**kkww555555ww4433qqiikkll1111zzxxccvvrrrrrrrr%%",
"++ooooaayyssddff==gg11sshhjj<<<<**kkww555555ww4433qqiikkll1111zzxxccvvrrrrrrrr%%",
"bbccnn%%%%%%%%%%%%%%77vvmmnn,,qq77ww9900ll,,==MMff==jjff;;NNBB;;MM--VVCCqq8866%%",
"bbccnn%%%%%%%%%%%%%%77vvmmnn,,qq77ww9900ll,,==MMff==jjff;;NNBB;;MM--VVCCqq8866%%",
"ggVV,,0044uuuu88uuuugg##ZZ11$$%%&&00gg==AAnnSS,,**kk008855$$%%%%%%%%%%%%%%%%%%%%",
"ggVV,,0044uuuu88uuuugg##ZZ11$$%%&&00gg==AAnnSS,,**kk008855$$%%%%%%%%%%%%%%%%%%%%",
"DD<<FF::11,,ggGGgg**HH##JJ>>003311jj==KK3377$$&&%%%%%%%%%%%%%%%%%%%%%%%%%%%%%%%%",
"DD<<FF::11,,ggGGgg**HH##JJ>>003311jj==KK3377$$&&%%%%%%%%%%%%%%%%%%%%%%%%%%%%%%%%",
"--ddddjjLL7766pp%%%%**xxPPMM;;II==FFFFFF::ggUU<<UUYY,,,,,,113300qqee88ww775555TT",
"--ddddjjLL7766pp%%%%**xxPPMM;;II==FFFFFF::ggUU<<UUYY,,,,,,113300qqee88ww775555TT",
"%%777777777777ww8888HHZZZZRRKKUUggKKKKGGgg,,,,,,,,,,YY11FFMMIIIIAAnnnnRRjj--zz77",
"%%777777777777ww8888HHZZZZRRKKUUggKKKKGGgg,,,,,,,,,,YY11FFMMIIIIAAnnnnRRjj--zz77",
"**::,,11****ll**llllSSZZxxEELL%%%%%%$$55wwwwDD7777777766qqggggKKFFVVFF::>>SSHHuu",
"**::,,11****ll**llllSSZZxxEELL%%%%%%$$55wwwwDD7777777766qqggggKKFFVVFF::>>SSHHuu",
"7722>>::>>11uu66$$ww**vvWWjj44%%%%%%%%pp77wwLL8888888888ww556666pp%%%%%%%%%%%%ii",
"7722>>::>>11uu66$$ww**vvWWjj44%%%%%%%%pp77wwLL8888888888ww556666pp%%%%%%%%%%%%ii",
"%%%%%%%%%%%%%%%%%%eeqqaahh::ggQQ%%%%%%%%%%%%%%%%%%%%%%%%%%%%%%%%%%%%%%%%%%%%%%kk",
"%%%%%%%%%%%%%%%%%%eeqqaahh::ggQQ%%%%%%%%%%%%%%%%%%%%%%%%%%%%%%%%%%%%%%%%%%%%%%kk",
"uuuu88uu88DDww66660011OOOOccxx22666655QQ&&$$55DDuuuu7788qqqqqq00kk11::!!qq11SSrr",
"uuuu88uu88DDww66660011OOOOccxx22666655QQ&&$$55DDuuuu7788qqqqqq00kk11::!!qq11SSrr",
"OOOOOOOOOOOOOOOOOOooooooJJooOOoooo              oooooooooooooooooo  @@@@  ooOOoo",
"OOOOOOOOOOOOOOOOOOooooooJJooOOoooo              oooooooooooooooooo  @@@@  ooOOoo",
"ddbb~~BBBB;;II^^//jjjjII88IIIIjjSS::110000qq4499eeuuDD77wwqqkk11**3333qqLLwwaa@@",
"ddbb~~BBBB;;II^^//jjjjII88IIIIjjSS::110000qq4499eeuuDD77wwqqkk11**3333qqLLwwaa@@",
"bbvvbbcccczznnjj^^((::11qq99ee44ee888888wwDD66$$%%%%%%%%%%%%%%%%%%%%%%%%%%%%==OO",
"bbvvbbcccczznnjj^^((::11qq99ee44ee888888wwDD66$$%%%%%%%%%%%%%%%%%%%%%%%%%%%%==OO",
"JJccbbbbbb~~))BBffIIHH,,9955pp$$$$$$$$TT66666666TTTTTT666677uu0000kkll11ggSSddOO",
"JJccbbbbbb~~))BBffIIHH,,9955pp$$$$$$$$TT66666666TTTTTT666677uu0000kkll11ggSSddOO",
"gg33%%%%%%%%%%%%%%%%%%%%%%%%%%%%%%%%$$TT88qq0000iikkkkll11<<ggKKVVSS====##@@  OO",
"gg33%%%%%%%%%%%%%%%%%%%%%%%%%%%%%%%%$$TT88qq0000iikkkkll11<<ggKKVVSS====##@@  OO",
">>33&&$$TT6677DDww8888888888wwuu**UUjjMMMMII//YY88$$&&QQ$$$$&&$$>>MMff;;rr==;;OO",
">>33&&$$TT6677DDww8888888888wwuu**UUjjMMMMII//YY88$$&&QQ$$$$&&$$>>MMff;;rr==;;OO",
"PPXXPP__EE::gg,,11ll000000ii00uu8888uu99qqqquu77$$%%%%%%%%%%%%%%%%&&&&&&%%&&uuOO",
"PPXXPP__EE::gg,,11ll000000ii00uu8888uu99qqqquu77$$%%%%%%%%%%%%%%%%&&&&&&%%&&uuOO",
"      @@++__zzzzzz--zzIIII==>>**3344uu8888wwww77pp%%%%%%%%%%%%%%&&$$$$TT$$ppwwOO",
"      @@++__zzzzzz--zzIIII==>>**3344uu8888wwww77pp%%%%%%%%%%%%%%&&$$$$TT$$ppwwOO",
"PP~~kkww%%%%%%6688qq33UUVV^^II--MMzzRRFF3377QQ$$ppTT6677ww88**,,gg>>VV==nn--ddOO",
"PP~~kkww%%%%%%6688qq33UUVV^^II--MMzzRRFF3377QQ$$ppTT6677ww88**,,gg>>VV==nn--ddOO",
"XX....vvSSkkll11,,ggFF^^jjjjjjBB``__yyJJcc``--jjHH''gg11kk3311::HHHHIIIIAA;;]]OO",
"XX....vvSSkkll11,,ggFF^^jjjjjjBB``__yyJJcc``--jjHH''gg11kk3311::HHHHIIIIAA;;]]OO",
"....ccrrffnn^^====//==IIIIII--;;;;;;;;;;BB))))BB;;II''**44uu44uu7766TTpp%%ppjj##",
"....ccrrffnn^^====//==IIIIII--;;;;;;;;;;BB))))BB;;II''**44uu44uu7766TTpp%%ppjj##",
"::**wwuu99qq003333333300qqee887766$$%%%%%%%%%%%%%%%%%%%%%%%%%%%%%%%%%%%%%%TTIIxx",
"::**wwuu99qq003333333300qqee887766$$%%%%%%%%%%%%%%%%%%%%%%%%%%%%%%%%%%%%%%TTIIxx",
"ll,,44uuLL88qqqqqq99uuuuuu888888wwwwwwww7755TT$$QQ%%%%%%%%$$$$ppppTTTT66%%77II##",
"ll,,44uuLL88qqqqqq99uuuuuu888888wwwwwwww7755TT$$QQ%%%%%%%%$$$$ppppTTTT66%%77II##",
"::==SS((^^AA;;BB;;[[HH>>,,<<<<UUggKKFFVVEEEE::gg::,,uu55uu,,==ffddBBwwww7711==OO",
"::==SS((^^AA;;BB;;[[HH>>,,<<<<UUggKKFFVVEEEE::gg::,,uu55uu,,==ffddBBwwww7711==OO",
"++  oooooooooo  oo  ZZPP..++@@@@    @@              ..xxXX  @@++##XX##++++    oo",
"++  oooooooooo  oo  ZZPP..++@@@@    @@              ..xxXX  @@++##XX##++++    oo",
"--zz~~ssrrrr;;==^^jjIIff~~__JJ..ooOOxxMMffffXX    OO  PP))gg11**,,^^''FFnnBB__{{",
"--zz~~ssrrrr;;==^^jjIIff~~__JJ..ooOOxxMMffffXX    OO  PP))gg11**,,^^''FFnnBB__{{",
"8855TTpppppp$$pp6666TTpp$$$$TT$$pppp$$$$$$QQ11))JJJJ>>uupp%%%%%%%%77ww88uuqq3333",
"8855TTpppppp$$pp6666TTpp$$$$TT$$pppp$$$$$$QQ11))JJJJ>>uupp%%%%%%%%77ww88uuqq3333",
"7744qq%%%%&&$$6666$$%%6611,,,,**kkuu$$%%%%%%66]]rrvv33%%%%$$$$$$%%%%%%$$667777%%",
"7744qq%%%%&&$$6666$$%%6611,,,,**kkuu$$%%%%%%66]]rrvv33%%%%$$$$$$%%%%%%$$667777%%",
"oooo  ff;;NNBBBB;;[[HH**1111kk9977QQ%%%%%%%%pp^^cccc00uuLL$$666677wwQQ%%%%%%%%qq",
"oooo  ff;;NNBBBB;;[[HH**1111kk9977QQ%%%%%%%%pp^^cccc00uuLL$$666677wwQQ%%%%%%%%qq",
"dd~~nngg****11<<UU,,,,111111**CC00qquu88uuuuuujjJJOOxxXXrrjj((==jjSS**33ll**FFBB",
"dd~~nngg****11<<UU,,,,111111**CC00qquu88uuuuuujjJJOOxxXXrrjj((==jjSS**33ll**FFBB",
"%%%%%%%%%%%%%%&&66wweeqq0033kkllllllllCCllllllIIPP  ))}}}}nn==HH::<<0000qq998866",
"%%%%%%%%%%%%%%&&66wweeqq0033kkllllllllCCllllllIIPP  ))}}}}nn==HH::<<0000qq998866",
"$$%%%%%%%%%%%%%%%%%%%%%%%%&&QQ$$$$$$ppppppTTppKKJJaa88pp66$$$$&&%%%%%%%%%%%%%%77",
"$$%%%%%%%%%%%%%%%%%%%%%%%%&&QQ$$$$$$ppppppTTppKKJJaa88pp66$$$$&&%%%%%%%%%%%%%%77",
"xx..rr,,,,,,,,,,,,YY<<11**kkqq99uu77$$&&%%%%%%<<JJxx99uu994444qq0000kkll11HH____",
"xx..rr,,,,,,,,,,,,YY<<11**kkqq99uu77$$&&%%%%%%<<JJxx99uu994444qq0000kkll11HH____",
"$$3300uu7766667777777777777777DDwwDD77wwwwww77,,XXXXCC,,==SSSSHHHHVVFFnn--;;rr==",
"$$3300uu7766667777777777777777DDwwDD77wwwwww77,,XXXXCC,,==SSSSHHHHVVFFnn--;;rr==",
"~~JJZZPP;;]]BBBBBB;;;;MMII==::<<>>==jjIIff;;]]bboooo//88pp$$$$$$$$$$$$$$ppTT66%%",
"~~JJZZPP;;]]BBBBBB;;;;MMII==::<<>>==jjIIff;;]]bboooo//88pp$$$$$$$$$$$$$$ppTT66%%",
"##    ++zzIIjjjjRRIIMM}}__ssvvBB::kkww$$&&&&QQ<<oooo::gggggggggggggg>>::::VVFFll",
"##    ++zzIIjjjjRRIIMM}}__ssvvBB::kkww$$&&&&QQ<<oooo::gggggggggggggg>>::::VVFFll",
"<<uuTT%%%%%%%%%%%%%%%%%%%%%%%%%%%%%%%%%%%%%%%%!!oo  qqqq0033kkll2211<<<<,,,,**33",
"<<uuTT%%%%%%%%%%%%%%%%%%%%%%%%%%%%%%%%%%%%%%%%!!oo  qqqq0033kkll2211<<<<,,,,**33"
};
