/* XPM */
static const char *floor[] = {
/* columns rows colors chars-per-pixel */
"40 40 25 1 ",
"  c #3B2E22",
". c #3D2F23",
"X c #3F3023",
"o c #3F3124",
"O c #433326",
"+ c #463527",
"@ c #483727",
"# c #493728",
"$ c #4A3828",
"% c #4C3929",
"& c #4F3C2A",
"* c #503C2B",
"= c #533F2C",
"- c #543F2D",
"; c #57412E",
": c #58422E",
"> c #5B442F",
", c #5B4430",
"< c #5F4731",
"1 c #604732",
"2 c #624932",
"3 c #644A33",
"4 c #654B34",
"5 c #674C34",
"6 c #684D35",
/* pixels */
".oOO......o........XXXXXOOOOoXXoooOOooOO",
"56666565>*%OO$;;:::><1355666666666666666",
"64321<<22<<+.+>12221<<<<<255565533433326",
"X..O++@%*;:+ *::><233321<<<<,::%O++++++6",
"++&66666663+.&:<321<,:*%%**%$$$$%%=<<246",
";=:<122222;OO:565<;*%&=:><<2356666666666",
"2:-;::;;;>=OO;<<:**;<3556666666666666666",
"%@@*234566>OO%$%*---;;::::::::<<<2223334",
"6333333222=OO&;:;;;;;:::::::-%%%%&&&*%%3",
">;::>>,>,,=OO-26665322233334<;;;-=-;;==2",
"3>;;;:2452>+.*1666653222222223445666666<",
"6666666662<O ;;566666666666666666666666<",
"222222244<:..+O>443555322232<<<<<:;<<:=+",
"............O.....................XX....",
"@+#$$$%****%2%%*=;:<<<1122232<<:><<<22OX",
"+++++%&**=;:<1212222224566666666666666*.",
"O++++#$$%%=:1355555444444444432<<<,:;=@.",
";<6666666666666666542<<<<<<,::;;==**OX..",
";<55443222222222>:*%%%*:25555555;%%$+*$.",
"OOO+-;;::,<<<<<22221<<23566666666555652.",
"...XX+%%%%%%%*;><1222223566666665554552.",
"O#<266642<<:=*%%%%&-<355544322>:;;=*&%@.",
"Ooo+=<,::;-****$@++O+@%*=-;:<<:;==%%%$$.",
"oo++%&*****%%%%$$$$$$$$$$%->1212344565*O",
";>221<<<<<<<<2234566666666666666666664%O",
",:1222<<<12222222222334556666555544463%O",
";*==*%$$$%=;::::;;-=--;;;:232:*%@$223:*.",
"X.........OOoXXX..X.......oOO.XXOOOXX...",
"%%#+++$***%%#+Oo..O%%%O....O$;:>:*--&$++",
"2345555544455545555555:$OO;2566663222<<<",
"31<665544564:::><256664$++<6655566654336",
"...%$$$$$%=>::<13566665*++<225443256666<",
"@#&;>>::::::::><<<22222*O.OO+*=**=><,>-$",
"66666665422<<<<,,,,<,,,%O.$##&*=;:<<<124",
"56666666666665555555545;OO25455566666663",
"Oo+:::::::::><<12355666:OO12111<<<<,:=++",
"5<<23443333333322232223:OO<:*=====-&%$+*",
"#OOO$$$$$$$%%*;:;**%%$$+..*2555555555446",
"O..X%%**&%%#+++$;<25555:..;;;;;;;;;;;=-,",
":2466666666666666666666<..<<<<<,>:::::><"
};
