/* XPM */
static const char *key[] = {
/* columns rows colors chars-per-pixel */
"40 40 95 2 ",
"   c #3C2F22",
".  c #3F3023",
"X  c #433425",
"o  c #483727",
"O  c #493728",
"+  c #4C3A29",
"@  c #523D2C",
"#  c #5D4A26",
"$  c #56412D",
"%  c #59432F",
"&  c #5D4631",
"*  c #644D2D",
"=  c #6A522C",
"-  c #745B27",
";  c #7C5E26",
":  c #755B2D",
">  c #7A5C2A",
",  c #604732",
"<  c #644A33",
"1  c #684D35",
"2  c #6D5233",
"3  c #715533",
"4  c #775B31",
"5  c #7B5E31",
"6  c #7D6422",
"7  c #7C612C",
"8  c #845F2A",
"9  c #836524",
"0  c #846A24",
"q  c #8B6E27",
"w  c #82652B",
"e  c #856A2A",
"r  c #8B6E2C",
"t  c #8D7126",
"y  c #8E722A",
"u  c #927427",
"i  c #92752B",
"p  c #96792B",
"a  c #9C7D2C",
"s  c #826631",
"d  c #876932",
"f  c #8B6D32",
"g  c #957631",
"h  c #997931",
"j  c #A3822D",
"k  c #AC8B2E",
"l  c #B18E2F",
"z  c #A48432",
"x  c #A88730",
"c  c #AB8A31",
"v  c #AE8F39",
"b  c #B18E30",
"n  c #AF9037",
"m  c #AF9039",
"M  c #B49131",
"N  c #B99635",
"B  c #BE9A37",
"V  c #B2933B",
"C  c #B8963A",
"Z  c #B9983A",
"A  c #BD9B3B",
"S  c #BE9B3F",
"D  c #C19E3B",
"F  c #C39F3C",
"G  c #C5A13F",
"H  c #B79744",
"J  c #B89941",
"K  c #BB9D48",
"L  c #C29F40",
"P  c #C7A341",
"I  c #C3A145",
"U  c #C4A347",
"Y  c #C9A541",
"T  c #CBA846",
"R  c #C7A74E",
"E  c #D1AC47",
"W  c #D1AD49",
"Q  c #D6B24B",
"!  c #D9B54E",
"~  c #DAB651",
"^  c #DCB750",
"/  c #DEBC56",
"(  c #D1B458",
")  c #DDBE5D",
"_  c #E1BC53",
"`  c #E2BD54",
"'  c #E0BD59",
"]  c #DCBF63",
"[  c #E6C157",
"{  c #E3C05B",
"}  c #DFC162",
"|  c #DFC266",
" . c #E1C66E",
".. c #E9CD72",
"X. c #E9CF77",
/* pixels */
"  . X X             .                 . . . . . X X X X . . . . . . X X . . X X ",
"1 1 1 1 1 1 1 1 % @ + X X O $ $ % % % % & , < 1 1 1 1 1 1 1 1 1 1 1 1 1 1 1 1 1 ",
"1 < < , , & & , , & & o   o % , , , , , & & & & & , 1 1 1 1 1 1 < < < < < < , 1 ",
".     X o o o + @ $ % o   @ % % % & , < < < , , & & & & & % % + X o o o o o o 1 ",
"o o + 1 1 1 1 1 1 1 < o   + % & < , , & & % @ + + @ @ + O O O O + + @ & & , < 1 ",
"$ @ % & , , , , , , $ X X % 1 1 1 & $ @ + + @ % % & & , < 1 1 1 1 1 1 1 1 1 1 1 ",
", % @ $ % % $ $ $ % @ X X $ & & % @ * : 4 2 1 1 1 1 1 1 1 1 1 1 1 1 1 1 1 1 1 1 ",
"+ o o @ , < < 1 1 1 % X X + O * K ) E B M M L w % % % % % % & & & , , , < < < < ",
"1 < < < < < < , , , @ X X @ i | X.{ Y Z N N [ F x * % % @ + + + + + + + @ + + < ",
"% $ % % % % & % & & @ X X e | X.H > ; 6 6 t j N M x 1 < & $ $ $ @ @ @ $ $ @ @ , ",
"< % $ $ $ % , < 1 , % o X j X.U > > 2 1 = 7 q j M b x , , < < < 1 1 1 1 1 1 1 & ",
"1 1 1 1 1 1 1 1 1 , & X # n / ; > 1 1 1 1 1 4 a k M b 2 1 1 1 1 1 1 1 1 1 1 1 & ",
", , , , , , , < < & %   w v C ; 1 < < 1 1 1 < w t M A s & & & & & % $ & & % @ o ",
"                        i t 0 6               o 0 Z G r             . .         ",
"o o O O O O + @ @ @ @ + a q 9 - @ $ % & & & , , 0 T Y z , & & % % & & & , , X . ",
"o o o o o + + @ @ @ $ % h t 0 w , , , , , , < 3 6 ' Q h 1 1 1 1 1 1 1 1 1 1 @   ",
"X o o o o O O O + + @ % 5 j a u 1 1 1 < < < < e y ..W < < < , & & & & % $ @ o   ",
"$ & 1 1 1 1 1 1 1 1 1 1 1 k M j j 2 1 < , , r 0 R } i & % % $ $ @ @ @ @ X .     ",
"$ & 1 1 < < < , , , , , , s ~ C l M x a j b c a J y : 1 1 1 1 1 $ + + O o @ O   ",
"X X X o @ $ $ % % & & & & & r q q a k _ [ ! P p 0 7 1 1 1 1 1 1 1 1 1 1 1 1 ,   ",
"      . . o + + + + + + + @ $ 7 9 8 9 V V p 0 6 2 1 1 1 1 1 1 1 1 1 1 < 1 1 ,   ",
"X O & , 1 1 1 < , & & % @ @ + + $ w > 9 0 6 : < 1 < < < , , % % $ $ @ @ + + o   ",
"X . . o @ & & % % $ @ @ @ @ @ O o o 6 u a y + @ @ @ $ % & & % $ @ @ + + + O O   ",
". . o o + + @ @ @ @ @ + + + + O O O 6 z D i O O O + @ % , , , , < < < 1 1 1 @ X ",
"$ % , , , & & & & & & & & , , < < 1 6 v ] h 1 1 1 1 1 1 1 1 1 1 1 1 1 1 1 < + X ",
"& % , , , , & & & , , , , , , , , , 6 v  .i < 1 1 1 1 1 1 1 1 1 1 < < < 1 < + X ",
"$ @ @ @ @ + O O O + @ $ % % % % $ $ 6 V  .y $ $ $ % , < , % @ + o O , , < % @   ",
".                   X X . . . .     6 m | y         . X X   . . X X X . .       ",
"+ + O o o o O @ @ @ + + O o = # 7 7 i G ( i X         X O $ % % % @ @ @ + O o o ",
", < < 1 1 1 1 1 < < < 1 1 1 6 ^ Y M x F I p % O X X $ , 1 1 1 1 1 < , , , & & & ",
"< , & 1 1 1 1 < < 1 1 < % % 0 S M b j N z i < O o o & 1 1 1 1 1 1 1 1 1 < < < 1 ",
"      + O O O O O + @ % % % * , : 6 6 M t r 1 @ o o & , , 1 < < < , 1 1 1 1 1 & ",
"o O + $ % % % % % % % % % % % & 1 9 6 M q 0 , + X   X X o @ @ @ @ @ % & & % @ O ",
"1 1 1 1 1 1 1 1 < , , & & : s 4 7 y p b q 6 & + X   O O O + @ @ $ % & & & , , < ",
"1 1 1 1 1 1 1 1 1 1 1 1 1 6 p ` E N M M 0 6 1 $ X X , 1 < 1 1 1 1 1 1 1 1 1 1 < ",
"X . o % % % % % % % % % % 6 p Y b b b k 6 6 1 % X X , , , , , & & & & & % @ o o ",
"1 & & , < < < < < < < < < : d s d g h f e > < % X X & % @ @ @ @ @ @ @ + + O o @ ",
"O X X X O O O O O O O + + @ $ % $ @ @ + + O O o     @ , 1 1 1 1 1 1 1 1 1 < < 1 ",
"X     . + + @ @ + + + O o o o O $ & , 1 1 1 1 %     $ $ $ $ $ $ $ $ $ $ $ @ @ & ",
"% , < 1 1 1 1 1 1 1 1 1 1 1 1 1 1 1 1 1 1 1 1 &     & & & & & & % % % % % % % & "
};
