/* XPM */
static const char *key[] = {
/* columns rows colors chars-per-pixel */
"80 80 106 2 ",
"   c #3C2F22",
".  c #3F3023",
"X  c #433425",
"o  c #483727",
"O  c #493728",
"+  c #4C3A29",
"@  c #523D2C",
"#  c #5D4A26",
"$  c #56412D",
"%  c #59432F",
"&  c #5D4631",
"*  c #644D2D",
"=  c #6A522C",
"-  c #745B27",
";  c #7C5E26",
":  c #755B2D",
">  c #7A5B2A",
",  c #604732",
"<  c #644A33",
"1  c #684D35",
"2  c #6D5233",
"3  c #715533",
"4  c #775B31",
"5  c #7B5E31",
"6  c #7D6422",
"7  c #7C612C",
"8  c #845F2A",
"9  c #836524",
"0  c #846A24",
"q  c #8B6E27",
"w  c #82652B",
"e  c #856A2A",
"r  c #8B6E2C",
"t  c #8D7126",
"y  c #8E722A",
"u  c #927427",
"i  c #92752B",
"p  c #96792B",
"a  c #9C7D2C",
"s  c #826631",
"d  c #876932",
"f  c #8B6D32",
"g  c #957631",
"h  c #997931",
"j  c #A3822D",
"k  c #AC8B2E",
"l  c #B18E2F",
"z  c #A48432",
"x  c #A88730",
"c  c #AB8A31",
"v  c #AE8F39",
"b  c #B18E30",
"n  c #AF9037",
"m  c #AF9039",
"M  c #B49131",
"N  c #B99635",
"B  c #BE9A37",
"V  c #B2933B",
"C  c #B8963A",
"Z  c #B9983A",
"A  c #BB983B",
"S  c #BD9B3B",
"D  c #BE9B3F",
"F  c #C19E3B",
"G  c #C39F3C",
"H  c #C29F3C",
"J  c #C5A13F",
"K  c #C6A23F",
"L  c #B79744",
"P  c #B89941",
"I  c #BB9D48",
"U  c #C29F40",
"Y  c #C7A341",
"T  c #C4A347",
"R  c #C3A145",
"E  c #C9A541",
"W  c #C9A642",
"Q  c #C9A542",
"!  c #CBA846",
"~  c #C7A74E",
"^  c #D1AC47",
"/  c #D1AD47",
"(  c #D1AD49",
")  c #D6B24B",
"_  c #D9B54E",
"`  c #DAB651",
"'  c #DCB750",
"]  c #DEBC56",
"[  c #D1B458",
"{  c #DDBE5D",
"}  c #E1BC53",
"|  c #E2BD54",
" . c #E0BD59",
".. c #DCBF63",
"X. c #E6C157",
"o. c #E3C05B",
"O. c #DFC162",
"+. c #DEC266",
"@. c #DFC266",
"#. c #DCC067",
"$. c #E1C66E",
"%. c #E0C56D",
"&. c #E9CD72",
"*. c #E9CE75",
"=. c #E9CF77",
"-. c #EACF77",
/* pixels */
"    . . X X X X                         . .                                 . . . . . . . . . . X X X X X X X X . . . . . . . . X X . . X X . . . . . . X X X X ",
"    . . X X X X                         . .                                 . . . . . . . . . . X X X X X X X X . . . . . . . . X X . . X X X X . . . . X X X X ",
"1 1 1 1 1 1 1 1 1 1 1 1 1 1 1 1 % % @ @ + + X X X X O O $ $ $ $ % % % % % % % % & & , , < < 1 1 1 1 1 1 1 1 1 1 1 1 1 1 1 1 1 1 1 1 1 1 1 1 1 1 1 1 1 1 1 1 1 1 ",
"1 1 1 1 1 1 1 1 1 1 1 1 1 1 1 1 % % @ @ + + X X X X O O $ $ $ $ % % % % % % % % & & , , < < 1 1 1 1 1 1 1 1 1 1 1 1 1 1 1 1 1 1 1 1 1 1 1 1 1 1 1 1 1 1 1 1 1 1 ",
"1 1 < < < < , , , , & & & & , , , , & & & & o o     o o % % , , , , , , , , , , & & & & & & & & & & , , 1 1 1 1 1 1 1 1 1 1 1 1 , , , , < < < < < < < < , , 1 1 ",
"1 1 < < < < , , , , & & & & , , , , & & & & o o     o X % % & , , , , , , , , , & & & & & & & & & & , , 1 1 1 1 1 1 1 1 1 1 1 1 , < , , < < < < < < < < , , 1 1 ",
". .         X X o o o o o o + + @ @ $ $ % % o o     @ + % % % % % % & & , , < < < < < < , , , , & & & & & & & & & & % % % % + + X X o o o o o o o o o o o o 1 1 ",
". .         X X o o o o o o + + @ @ $ $ % % o o     @ @ % % % % % % & & , , < < < < < < , , , , & & & & & & & & & & % % % % + + X X o o o o o o o o o o o o 1 1 ",
"o o o o + + 1 1 1 1 1 1 1 1 1 1 1 1 1 1 < < o o     + + % % & & < < , , , , & & & & % % @ @ + + + + @ @ @ @ + + O O O O O O O O + + + + @ @ & & & & , , < < 1 1 ",
"o o o o + + 1 1 1 1 1 1 1 1 1 1 1 1 1 1 < < o o     + + % % & , < < , , , , & & & & % % @ @ + + + + @ @ @ @ + + O O O O O O O O + + + + @ @ & & & & , , < < 1 1 ",
"$ $ @ @ % % & & , , , , , , , , , , , , $ $ X X X X % % 1 1 1 1 1 1 & & $ $ @ @ + + + + @ @ % % % % & & & & , , < < 1 1 1 1 1 1 1 1 1 1 1 1 1 1 1 1 1 1 1 1 1 1 ",
"$ $ @ @ % % & & , , , , , , , , , , , , $ $ X X X X % % 1 1 1 1 1 1 & & $ $ @ @ + + + + @ @ % % % % & & & & , , < < 1 1 1 1 1 1 1 1 1 1 1 1 1 1 1 1 1 1 1 1 1 1 ",
", , % % @ @ $ $ % % % % $ $ $ $ $ $ % % @ @ X X X X $ $ & & & & % % @ @ * * : : 4 4 2 2 1 1 1 1 1 1 1 1 1 1 1 1 1 1 1 1 1 1 1 1 1 1 1 1 1 1 1 1 1 1 1 1 1 1 1 1 ",
", , % % @ @ $ $ % % % % $ $ $ $ $ $ % % @ @ X X X X $ $ & & & & % % @ @ * * : : 4 4 2 2 1 1 1 1 1 1 1 1 1 1 1 1 1 1 1 1 1 1 1 1 1 1 1 1 1 1 1 1 1 1 1 1 1 1 1 1 ",
"+ + o o o o @ @ , , < < < < 1 1 1 1 1 1 % % X X X X + + O O * * I I { { ^ ^ B B M M M M U U w w % % % % % % % % % % % % & & & & & & , , , , , , < < < < < < < < ",
"+ + o o o o @ @ , , < < < < 1 1 1 1 1 1 % % X X X X + + O O * * I I { { ^ ^ B B M M M M U U w w % % % % % % % % % % % % & & & & & & , , , , , , < < < < < < < < ",
"1 1 < < < < < < < < < < < < , , , , , , @ @ X X X X @ @ i i +.+.=.=.o.o.E E Z Z N N N N X.X.G G x x * * % % % % @ @ + + + + + + + + + + @ @ + + @ @ + + + + < < ",
"1 1 < < < < < < < < < < < < , , , , , , @ @ X X X X @ @ i i +.+.=.=.o.o.E E Z Z N N N N X.X.G G x x * * % % % % @ @ + + + + + + + + + + @ @ + @ @ @ + + + + < < ",
"% % $ $ % % % % % % % % & & % % & & & & @ @ X X X X e e +.+.=.=.L L > > ; ; 6 6 6 6 t t j j N N M M x x 1 1 < < & & $ $ $ $ $ $ @ @ @ @ @ @ $ $ $ $ @ @ @ @ , , ",
"% % $ $ % % % % % % % % & & % % & & & & @ @ X X X X e e +.+.=.=.L L > > ; ; 6 6 6 6 t t j j N N M M x x 1 1 < < & & $ $ % $ $ $ @ @ @ @ @ @ $ $ $ $ @ @ @ @ , , ",
"< < % % $ $ $ $ $ $ % % , , < < 1 1 , , % % o o X X j j =.=.T T > > > > 2 2 1 1 = = 7 7 q q j j M M b b x x , , , , < < < < < < 1 1 1 1 1 1 1 1 1 1 1 1 1 1 & & ",
"< < % % $ $ $ $ $ $ % % , , < < 1 1 , , % % o o X X j j =.=.T T > > > > 2 2 1 1 = = 7 7 q q j j M M b b x x , , , , < < < < < < 1 1 1 1 1 1 1 1 1 1 1 1 1 1 & & ",
"1 1 1 1 1 1 1 1 1 1 1 1 1 1 1 1 1 1 , & & & X X # # n n ] ] ; ; > > 1 1 1 1 1 1 1 1 1 1 4 4 a a k l M M b b 2 2 1 1 1 1 1 1 1 1 1 1 1 1 1 1 1 1 1 1 1 1 1 1 & & ",
"1 1 1 1 1 1 1 1 1 1 1 1 1 1 1 1 1 1 , , & & X X # # n n ] ] ; ; > > 1 1 1 1 1 1 1 1 1 1 4 4 a a l l M M b b 2 2 1 1 1 1 1 1 1 1 1 1 1 1 1 1 1 1 1 1 1 1 1 1 & & ",
", , , , , , , , , , , , , , < < < < & & % %     w w v v C C ; ; 1 1 < < < < 1 1 1 1 1 1 < < w w t t M M S S s s & & & & & & & & & & % % $ $ & & & & % % @ @ o o ",
", , , , , , , , , , , , , , < < < < & & % %     w w v v C C ; ; 1 1 < < < < 1 1 1 1 1 1 < < w w t t M M S S s s & & & & & & & & & & % % $ $ & & & & % % @ @ o o ",
"                                                i i t t 0 0 6 6                     . .     o o 0 0 Z Z J J r r                         . . . .                 ",
"                                                i i t t 0 0 6 6                       .     o o 0 0 Z Z J J r r           .             . . . .                 ",
"o o o o O O O O O O O O + + @ @ @ @ @ @ @ @ + + a a q q 6 6 - - @ @ $ $ % % & & & & , , , , , , 0 0 ! ! E E z z , , & & & & % % % % & & & & , , , , , , X X . . ",
"o o o o O O O O O O O O + + @ @ @ @ @ @ @ @ + + a a q q 6 6 - - @ @ $ $ % % & & & & , , , , , , 0 0 ! ! E E z z , , & & & & % % % % & & & & & , , , , , X X . . ",
"o o o o o o X X o o + + + + @ @ @ @ @ @ $ $ % % a h t t 0 0 w w , , , , , , , , , , , , < < 3 3 6 6  . .) ) h h 1 1 1 1 1 1 1 1 1 1 1 1 1 1 1 1 1 1 1 1 @ @     ",
"o o o o o o X X o o + + + + @ @ @ @ @ @ $ $ % % a h t t 0 0 w w , , , , , , , , , < , , < < 3 3 6 6 ]  .) ) h h 1 1 1 1 1 1 1 1 1 1 1 1 1 1 1 1 1 1 1 1 @ @     ",
"X X X X o o o o o o O O O O O O + + + + @ @ % % 5 5 j j a a u u 1 1 1 1 1 1 < < < < < < < < e e y y &.&.( ( < < < < < < , , & & & & & & & & % % $ $ @ @ o o     ",
"X X X X o o o o o o O O O O O O + + + + @ @ % % 5 5 j j a a u u 1 1 1 1 1 1 < < < < < < < < e e y y &.&.( ( < < < < < < , , & & & & & & & & % % $ $ @ @ o o     ",
"$ $ & & 1 1 1 1 1 1 1 1 1 1 1 1 1 1 1 1 1 1 1 1 1 1 k k M M j j j j 2 2 1 1 < < , , , , r r 0 0 ~ ~ O.O.i i & & % % % % $ $ $ $ @ @ @ @ @ @ @ @ X X . .         ",
"$ $ & & 1 1 1 1 1 1 1 1 1 1 1 1 1 1 1 1 1 1 1 1 1 1 k k M M j j j j 2 2 1 1 < < , , , , r r 0 0 ~ ~ O.O.i i & & % % % % $ $ $ $ @ @ @ @ @ @ @ @ X X . .         ",
"$ $ & & 1 1 1 1 < < < < < < , , , , , , , , , , , , s s ` ` C C l l M M x x a a j j b b c c a a P P y y : : 1 1 1 1 1 1 1 1 1 1 $ $ + + + + O O o o @ @ O O     ",
"$ $ & & 1 1 1 1 < < < < < < , , , , , , , , , , , , s s ` ` C C l l M M x x a a j j b b c c a a P P y y : : 1 1 1 1 1 1 1 1 1 1 $ $ + + + + O O o o @ @ O O     ",
"X X X X X X o o @ @ $ $ $ $ % % % % & & & & & & & & & & r r q q q q a a k k } } X.X._ _ Y Y p p 0 0 7 7 1 1 1 1 1 1 1 1 1 1 1 1 1 1 1 1 1 1 1 1 1 1 1 1 , ,     ",
"X X X X X X o o @ @ $ $ $ $ % % % % & & & & & & & & & & r r q q q q a a k k } } X.X._ _ Y Y p p 0 0 7 7 1 1 1 1 1 1 1 1 1 1 1 1 1 1 1 1 1 1 1 1 1 1 1 1 , ,     ",
"            . . . . o o + + + + + + + + + + + + + + @ @ $ $ 7 7 9 9 8 8 8 8 V V V V p p 0 0 6 6 2 2 1 1 1 1 1 1 1 1 1 1 1 1 1 1 1 1 1 1 1 1 < < 1 1 1 1 , ,     ",
"            . . . . o o + + + + + + + + + + + + + + @ @ $ $ 7 7 9 9 8 8 8 8 V V V V p p 0 0 6 6 2 2 1 1 1 1 1 1 1 1 1 1 1 1 1 1 1 1 1 1 1 1 < < 1 1 1 1 , ,     ",
"X X O O & & , , 1 1 1 1 1 1 < < , , & & & & % % @ @ @ @ + + + + $ $ w w > > 9 9 9 9 6 6 : : 1 1 1 1 < < < < < < , , , , % % % % $ $ $ $ @ @ @ @ + + + + o o     ",
"X X O O & & , , 1 1 1 1 1 1 < < , , & & & & % % @ @ @ @ + + + + $ $ w w > > 9 9 9 9 6 6 : : 1 1 1 1 < < < < < < , , , , % % % % $ $ $ $ @ @ @ @ + + + + o o     ",
"X X . . . . o o @ @ & & & & % % % % $ $ @ @ @ @ @ @ @ @ @ @ O O o o o o 6 6 u u a a y y + + @ @ @ @ @ @ $ $ % % & & & & % % $ $ @ @ @ @ + + + + + + O O O O     ",
"X X . . . . o o @ @ & & & & % % % % $ $ @ @ @ @ @ @ @ @ @ @ O O o o o o 6 6 u u a a y y + + @ @ @ @ @ @ $ $ % % & & & & % % $ $ @ @ @ @ + + + + + + O O O O     ",
". . . . o o o o + + + + @ @ @ @ @ @ @ @ @ @ + + + + + + + + + + O O O O 6 6 z z F F i i O O O O O O + + @ @ % % , , , , , , , , < < < < < < 1 1 1 1 1 1 @ @ X X ",
". . . . o o o o + + + + @ @ @ @ @ @ @ @ @ @ + + + + + + + + + + O O O O 6 6 z z F F i i O O O O + O + + @ @ % % , , , , , , , , < < < < < < 1 1 1 1 1 1 @ @ X X ",
"$ $ % % , , , , , , & & & & & & & & & & & & & & & & , , , , < < < < 1 1 6 6 v v ....h h 1 1 1 1 1 1 1 1 1 1 1 1 1 1 1 1 1 1 1 1 1 1 1 1 1 1 1 1 1 1 < < + + X X ",
"$ $ % % , , , , , , & & & & & & & & & & & & & & & & , , , , < < < < 1 1 6 6 v v ....h h 1 1 1 1 1 1 1 1 1 1 1 1 1 1 1 1 1 1 1 1 1 1 1 1 1 1 1 1 1 1 < < + + X X ",
"& & $ $ , , , , , , , , & & , , & & , , , , , , , , , , , , , , , , , , 6 6 v v $.$.i i < < 1 1 1 1 1 1 1 1 1 1 1 1 1 1 1 1 1 1 1 1 < < < < < < 1 1 < < + + X X ",
"& & % % , , , , , , , , & , , , & & , , , , , , , , , , , , , , , , , , 6 6 v v $.$.i i < < 1 1 1 1 1 1 1 1 1 1 1 1 1 1 1 1 1 1 1 1 < < < < < < 1 1 < < + + X X ",
"$ $ @ @ @ @ @ @ @ @ + + O O O O O O + + @ @ $ $ % % % % % % % % $ $ $ $ 6 6 v V $.$.y y $ $ $ $ $ $ % % , , < < , , % % @ @ + + o o O O , , < < < < % % @ @     ",
"$ $ @ @ @ @ @ @ @ @ + + O O O O O O + + @ @ $ $ % % % % % % % % $ $ $ $ 6 6 V V $.$.y y $ $ $ $ $ $ % % , , < < , , % % @ @ + + o o O O , , < < < < % % @ @     ",
". .                     . .             X X X X . . X . . . . .         6 6 m m +.+.y y                 . . X X X X     . . . . X X X X X X X X . .             ",
". .                   . . .             X X X X . . . . . . . .         6 6 m m +.+.y y                 . . X X X X     . . . . X X X X X X X X . .             ",
"+ + + + O O o o o o o o O O @ @ @ @ @ @ + + + + o o o o = = # # 7 7 7 7 i i J J [ [ i i X X                 X X O O $ $ % % % % % % @ @ @ @ @ @ + + O O o o o o ",
"+ + + + O O o o o o o o O O @ @ @ @ @ @ + + + + O o o o = = # # 7 7 7 7 i i J J [ [ i i X X                 X X O O $ $ % % % % % % @ @ @ @ @ @ + + O O o o o o ",
", , < < < < 1 1 1 1 1 1 1 1 1 1 < < < 1 < < 1 1 1 1 1 1 6 6 ` ` E E M M k k F F R R p p % % O O X X X X $ $ , , 1 1 1 1 1 1 1 1 1 1 < < , , , , , , & & & & & & ",
", , < < < < 1 1 1 1 1 1 1 1 1 1 < < < 1 < < 1 1 1 1 1 1 6 6 ' ' E E M M x k F F R R p p % % O O X X X X $ $ , , 1 1 1 1 1 1 1 1 1 1 < < , , , , , , & & & & & & ",
"< < , , & & 1 1 1 1 1 1 1 1 < < < < 1 1 1 1 < < % % % % 0 0 D D M M b b j j N N z z i i < < O O o o o o & & 1 1 1 1 1 1 1 1 1 1 1 1 1 1 1 1 1 1 < < < < < < 1 1 ",
"< < , , & & 1 1 1 1 1 1 1 1 < < < < 1 1 1 1 < < % % % % 0 0 D D M M b b j j N N z z i i < < O O o o o o & & 1 1 1 1 1 1 1 1 1 1 1 1 1 1 1 1 1 1 < < < < < < 1 1 ",
"            + + O O O O O O O O O O + + @ @ % % % % % % * * , , : : 6 6 6 6 M M t t q y 1 1 + + X o o o & & , , , , 1 1 < < < < < < , , 1 1 1 1 1 1 1 1 1 1 , , ",
"            + + O O O O O O O O O O + + @ @ % % % % % % * * , , : : 6 6 6 6 M M t t q y 1 1 + + X o o o & & , , , , 1 1 < < < < < < , , 1 1 1 1 1 1 1 1 1 1 , , ",
"o o O O + + $ $ % % % % % % % % % % % % % % % % % % % % % % & & 1 1 9 9 6 6 M M q q 0 0 , , @ @ X X     X X X X o o @ @ @ @ @ @ @ @ @ @ % % & & & & % % @ @ O O ",
"o o O O + + $ $ % % % % % % % % % % % % % % % % % % % % % % & & 1 1 9 9 6 6 M M q q 0 0 , , @ @ X X     X X X X o o @ @ @ @ @ @ @ @ @ @ % % & & & & % % @ @ O O ",
"1 1 1 1 1 1 1 1 1 1 1 1 1 1 1 1 < < , , , , & & & & - - s s 4 4 7 7 y y p p l l q q 6 6 & & + + X X     O O O O O O + + @ @ @ @ $ $ % % & & & & & & , , , , < < ",
"1 1 1 1 1 1 1 1 1 1 1 1 1 1 1 1 < < , , , , & & & & - - s s 4 4 7 7 y y p p l l q q 6 6 & & + + X X     O O O O O O + + @ @ @ @ $ $ % % & & & & & & , , , , < < ",
"1 1 1 1 1 1 1 1 1 1 1 1 1 1 1 1 1 1 1 1 1 1 1 1 1 1 6 6 p p | | ^ ^ N N M M M M 0 0 6 6 1 1 $ $ X X X X , , 1 1 < < 1 1 1 1 1 1 1 1 1 1 1 1 1 1 1 1 1 1 1 1 < < ",
"1 1 1 1 1 1 1 1 1 1 1 1 1 1 1 1 1 1 1 1 1 1 1 1 1 1 6 6 p p | | ^ ^ N N M M M M 0 0 6 6 1 1 $ $ X X X X , , 1 1 < < 1 1 1 1 1 1 1 1 1 1 1 1 1 1 1 1 1 1 1 1 < < ",
"X X . . o o % % % % % % % % % % % % % % % % % % % % 6 6 p p E E b b b b M M k k 6 6 6 6 1 1 % % X X X X , , , , , , , , , , & & & & & & & & & & % % @ @ o o o o ",
"X X . . o o % % % % % % % % % % % % % % % % % % % % 6 6 p p E E b b b b b b k k 6 6 6 6 1 1 % % X X X X , , , , , , , , , , & & & & & & & & & & % % @ @ o o o o ",
"1 1 & & & & , , < < < < < < < < < < < < < < < < < < : : d d d d d d g g h h f f e e > > < < % % X X X X & & % % @ @ @ @ @ @ @ @ @ @ @ @ @ @ + + + + O O o o @ @ ",
"1 1 & & & & , , < < < < < < < < < < < < < < < < < < : : d d d d d d g g h h f f e e > > < < % % X X X X & & % % @ @ @ @ @ @ @ @ @ @ @ @ @ @ + + + + + O o o @ @ ",
"O O X X X X X X O O O O O O O O O O O O O O + + + + @ @ $ $ % % $ $ @ @ @ @ + + + + O O O O o o         @ @ , , 1 1 1 1 1 1 1 1 1 1 1 1 1 1 1 1 1 1 1 < < < 1 1 ",
"O O X X X X X X O O O O O O O O O O O O O O + + + + @ @ $ $ % % $ $ @ @ @ @ + + + + O O O O o o         @ @ , , 1 1 1 1 1 1 1 1 1 1 1 1 1 1 1 1 1 1 < < < < 1 1 ",
"X X         . . + + + + @ @ @ @ + + + + + + O O o o o o o o O O $ $ & & , , 1 1 1 1 1 1 1 1 % %         $ $ $ $ $ $ $ $ $ $ $ $ $ $ $ $ $ $ $ $ $ $ @ @ @ @ & & ",
"X X         . . + + + + @ @ @ @ + + + + + + O O o o o o o o O O $ $ & & , , 1 1 1 1 1 1 1 1 % %         $ $ $ $ $ $ $ $ $ $ $ $ $ $ $ $ $ $ $ $ $ $ @ @ @ @ & & ",
"% % , , < < 1 1 1 1 1 1 1 1 1 1 1 1 1 1 1 1 1 1 1 1 1 1 1 1 1 1 1 1 1 1 1 1 1 1 1 1 1 1 1 1 , ,         & & & & & & & & & & & & % % % % % % % % % % % % % % & & ",
"% % , , < < 1 1 1 1 1 1 1 1 1 1 1 1 1 1 1 1 1 1 1 1 1 1 1 1 1 1 1 1 1 1 1 1 1 1 1 1 1 1 1 1 , ,         & & & & & & & & & & & & % % % % % % % % % % % % % % & & "
};
