/* XPM */
static const char *mur[] = {
/* columns rows colors chars-per-pixel */
"40 40 2 1 ",
"  c #808080",
". c black",
/* pixels */
"                                        ",
" ...................................... ",
" ...................................... ",
" ...................................... ",
" ...................................... ",
" ...................................... ",
" ...................................... ",
" ...................................... ",
" ...................................... ",
" ...................................... ",
" ...................................... ",
" ...................................... ",
" ...................................... ",
" ...................................... ",
" ...................................... ",
" ...................................... ",
" ...................................... ",
" ...................................... ",
" ...................................... ",
" ...................................... ",
" ...................................... ",
" ...................................... ",
" ...................................... ",
" ...................................... ",
" ...................................... ",
" ...................................... ",
" ...................................... ",
" ...................................... ",
" ...................................... ",
" ...................................... ",
" ...................................... ",
" ...................................... ",
" ...................................... ",
" ...................................... ",
" ...................................... ",
" ...................................... ",
" ...................................... ",
" ...................................... ",
" ...................................... ",
"                                        "
};
