/* XPM */
static const char *nb_0[] = {
/* columns rows colors chars-per-pixel */
"80 80 139 2 ",
"   c #1D130B",
".  c #20170F",
"X  c #21180F",
"o  c #241611",
"O  c #281713",
"+  c #251C14",
"@  c #2B1A15",
"#  c #271A18",
"$  c #2A1D19",
"%  c #311D17",
"&  c #321E19",
"*  c #2E211D",
"=  c #34221C",
"-  c #3B241D",
";  c #2F2521",
":  c #322421",
">  c #3C2620",
",  c #352925",
"<  c #3D2923",
"1  c #362C29",
"2  c #3C2D29",
"3  c #3E322D",
"4  c #3F3431",
"5  c #40271F",
"6  c #422B24",
"7  c #492E25",
"8  c #442E29",
"9  c #4C3027",
"0  c #43322D",
"q  c #4C332B",
"w  c #52362C",
"e  c #55382F",
"r  c #443530",
"t  c #463531",
"y  c #473531",
"u  c #463631",
"i  c #453732",
"p  c #463732",
"a  c #443631",
"s  c #4B3731",
"d  c #483732",
"f  c #493732",
"g  c #4F3630",
"h  c #493731",
"j  c #473833",
"k  c #433A36",
"l  c #433A37",
"z  c #473934",
"x  c #443A36",
"c  c #453A36",
"v  c #443A37",
"b  c #473A36",
"n  c #463B37",
"m  c #453A36",
"M  c #493833",
"N  c #4B3832",
"B  c #4A3833",
"V  c #4C3833",
"C  c #4B3834",
"Z  c #4B3935",
"A  c #483A37",
"S  c #483B37",
"D  c #4A3B36",
"F  c #4D3934",
"G  c #4C3A34",
"H  c #4D3A35",
"J  c #4D3B36",
"K  c #4F3B36",
"L  c #4B3C37",
"P  c #4F3C37",
"I  c #4A3A35",
"U  c #443B38",
"Y  c #453B38",
"T  c #463B38",
"R  c #473B38",
"E  c #453C39",
"W  c #473C38",
"Q  c #463C39",
"!  c #473D39",
"~  c #473D3A",
"^  c #473E3B",
"/  c #473F3C",
"(  c #463D39",
")  c #483C38",
"_  c #483C39",
"`  c #483D39",
"'  c #493D39",
"]  c #4A3C38",
"[  c #4A3D39",
"{  c #483D3A",
"}  c #493D3A",
"|  c #483E3A",
" . c #483E3B",
".. c #493F3B",
"X. c #4B3E3A",
"o. c #4C3D38",
"O. c #4D3D38",
"+. c #4F3F3A",
"@. c #483F3C",
"#. c #493F3C",
"$. c #4C3F3C",
"%. c #483E3A",
"&. c #503730",
"*. c #503831",
"=. c #503A33",
"-. c #563930",
";. c #513A34",
":. c #543D36",
">. c #533A32",
",. c #583B31",
"<. c #593C33",
"1. c #5A3C33",
"2. c #5A3D33",
"3. c #5B3E35",
"4. c #583E37",
"5. c #5A3E36",
"6. c #5B3E34",
"7. c #513D38",
"8. c #503E38",
"9. c #513E39",
"0. c #503F39",
"q. c #523E39",
"w. c #49403C",
"e. c #48403D",
"r. c #49403D",
"t. c #4A403D",
"y. c #4B413E",
"u. c #49403D",
"i. c #5D4036",
"p. c #5F4137",
"a. c #53403A",
"s. c #55413B",
"d. c #5E4138",
"f. c #5F4239",
"g. c #5F4339",
"h. c #5F4138",
"j. c #61453B",
"k. c #62453B",
"l. c #614339",
/* pixels */
"r.r.r.r.@.@.@.@.@.@.@.@.@.@.@.@.............................................................................................@.@.@.@.@.@.........................",
"r.r.r.r.@.@.@.@.@.@.@.@.@.@.................................................................................................@.@.@.@.@.@.........................",
"0 0 q q q q q q q q B B ....@.@.r.r.r.r.0.0.5.5.5.5.i.3.g.g.g.g.j.j.j.j.j.j.g.g.5.5.r.r.r.@.@.@.@.@.n n J J J J J P 0.0.0.0.0.0.0.0.o.o.$.$.r.r.@.@.r.r.J J q q ",
"0 0 q q q q q q q q B B ....@.@.r.r.r.r.0.0.5.5.5.5.3.3.g.g.g.g.j.j.j.j.j.j.g.g.5.5.r.r.r.@.@.@.@.@.n n J J J J J P 0.0.0.0.0.0.0.0.o.o.$.$.r.r.@.@.r.r.J J q q ",
"6 6 8 8 q q q q q q q q g g o.o.r.r.r.r.1.1.-.,.w w w w w w w w w w e e e e w w w w q q ....r.r.0 0 0 0 0 0 r r I I J J P P 0.0.0.0.0.0.J J ....@.@.0 0 6 6 6 6 ",
"6 6 8 8 q q q q q q q q g g o.o.r.r.r.r.1.1.-.,.w w w w w w w w w w e e e e w w w w q q ....r.r.0 0 0 0 0 0 r r I I J J P P 0.0.0.0.0.0.J J ....@.@.0 0 6 6 6 6 ",
"< < < 6 < < 6 6 6 6 6 6 6 6 8 8 r.r.q q w w 9 9 9 9 9 9 9 9 9 9 9 9 9 9 9 9 9 9 9 9 9 9 I I ....2 2 2 2 2 2 2 2 0 0 0 0 r r B B B B B B h h r r @.r.< < > > > > ",
"< < < < < < 6 6 6 6 6 6 6 6 8 8 r.r.q q 9 w 9 9 9 9 9 9 9 9 9 9 9 9 9 9 9 9 9 9 9 9 9 9 I I ....2 2 2 2 2 2 2 2 0 0 0 0 r r B B B B B B h h r r @.r.< < > > > > ",
"< < - - - - - - - - - - = = = = r.r.6 6 5 5 - 5 6 6 - - - - - - - - - - - - - - - - - - r r r.r.: : : : : : : : : : : : : : : : = = : : * * * * r.r.& & & & & & ",
"< < - - - - - - - - - - = = = = r.r.6 6 5 5 - - 5 6 - - - - - - - - - - - - - - - - - - r r r.r.: : : : : : : : : : : : : : : : : : : : * * * * r.r.& & & & & & ",
"- - = = = = = = = = & & & & 0 0 r.r.! ! = = = = = = = = = = = = = = = = = = = = & & = = ! ! @.@., , $ $ $ $ $ $ $ $ $ $ $ $ $ $ $ $ $ $ # # 2 2 r.r.$ $ O O @ @ ",
"- - = = = = = = = = & & & & 0 0 r.r.! ! = = = = = = = = = = = = = = = = = = = = & = = = ! ! @..., , $ $ $ $ $ $ $ $ $ $ $ $ $ $ $ $ $ $ # # 2 2 r.r.$ $ O O @ @ ",
"> > - - = = = = = = > > 0 0 @.@.r.r.@.@.r r = - = = = = = = = = & & & & & & & & & & r r ........! ! : : $ $ # # $ $ $ $ # # # # $ $ : : 2 2 ! ! r.r.! ! , , @ @ ",
"> > - - = = = = = = > > 0 0 / @.r.r.@.@.r r = = = = = = = = = = & & & & & & & & & & r r ........! ! : : $ $ # # $ $ $ $ # # # # $ $ : : 2 2 ! ! r.r.! ! , , @ @ ",
"! ! T T T T T T T T T T ........@.@.r.@.r.r.....S S S S ! ! n n ..S 3 3 1 1 2 2 3 3 n n ....I I n n ! ! T T l T n n k k k k k k T T ! ! ! ! r.r.r.r.r.r.r.r.! ! ",
"! ! T T T T T T T T T T ........@.@.r.@.r.r.....S S S S ! ! n n ..S 3 3 1 1 2 2 3 3 n n ....I I n n ! ! T T l T n n k k k k n k T T ! ! ! ! r.r.r.r.r.r.r.r.! ! ",
"r.r.@.@.@.@.r.r.r.r.....................@.r.r.r.r.r.r.r.k k k k * * o o + + + + + + $ $ * * 1 1 0 0 r r T T ....r.r.r.r.r.r.r.r.r.r.r.r.r.r.r r h h h h V V V J ",
"r.r.@.@.@.@.r.r.r.r...............! ....r.r.r.r.r.r.r.r.k k k k * * o o + + + + + + $ $ * * 1 1 0 0 r r T T ....r.r.r.r.r.r.r.r.r.r.r.r.r.r.r r h h h h V V J J ",
"q q q q B B r.r./ / 0 3 0 0 0 0 r r r r j j I I r.r.2 2 + +     X X + + + + + + + + + + + + + + = = *.*.:.:.;.;.*.*.a.a.r.r.r.r.r.r.S S w w w w e e ,.,.1.1.1.1.",
"q q q q B B r.r./ / 0 3 0 0 0 0 r r r r j r I I r.r.2 2 + +     X X + + + + + + + + + + + + + + = = *.*.:.:.;.;.*.*.a.a.r.r.r.r.r.r.S S w w w w e -.,.,.1.1.1.1.",
"9 9 9 9 9 9 ....0 3 2 2 2 2 2 2 2 2 2 2 2 2 2 2 r r         . . + + + + o o         X X + + + + + + = = q q q q q q 8 8 o.o.r.r.....9 9 9 9 9 9 9 9 9 9 9 9 w w ",
"9 9 9 9 9 9 ....0 0 2 2 2 2 2 2 2 2 2 2 2 2 2 2 r r         . . + + + + o o         X X + + + + + + = = q q q q q q 8 8 o.o.r.r.....9 9 9 9 9 9 9 9 9 9 9 9 w w ",
"7 7 7 7 7 7 ....2 2 2 2 2 2 2 2 2 2 2 2 2 2 2 2 * *         + + + + o o                     + + + + + + = = < < < < > > q q r.r.....9 9 9 9 9 9 9 9 9 9 9 9 9 9 ",
"7 7 7 7 7 7 ....2 2 2 2 2 2 2 2 2 2 2 2 2 2 2 2 * *         + + + + o o                     + + + + + + = = < < < < > > q q r.r.....9 9 9 9 9 9 9 9 9 9 9 9 9 9 ",
"6 6 6 6 6 6 ....: : = = : : = = = = = = * = = =         + + + + + +         . . . .         o o + + + + + + = = & & & & r r r.r.n n - - - - - - - - - - - - 6 6 ",
"6 6 6 6 6 6 ....: : = = : : = = = = = = * * = =         + + + + + +         . . . .         o o + + + + + + = = & & & & r r r.r.n n - - - - - - - - - - - - 6 6 ",
"6 6 6 6 < < ....= = * * * * * * $ $ $ $ $ $ $ $         + + + + o o . . @ @ @ @ @ @ O O         + + + + + + + O O O @ @ T T r.r.....1 1 @ @ @ @ % % $ $ % % & & ",
"6 6 6 6 < < ....= = * * * * * * $ $ $ $ $ $ $ $         + + + + o o . . @ @ @ @ @ @ O O         + + + + + + + + O O @ @ T T r.r.....1 1 @ @ @ @ % % $ $ % % & & ",
"7 7 6 6 j j r.r.k k : : * * * * $ $ * * : : ; ;         + + + + + + $ $ @ @ @ @ @ @ @ @ O O     . . + + + + * * : : r r n n n n r.r.! ! 3 3 = = % & & & % % = = ",
"7 7 6 6 j j r.r.k k : : * * * * $ $ * * : : ; ;         + + + + + + $ $ @ @ @ @ @ @ @ @ O O     . . + + + + * * : : r r n n n n r.r.! ! 3 3 = = % % & & % % = = ",
"....I I r.r.r.r.r.r.! ! k k k l l l U U ! ! , ,         + + + + 2 2 r r r r 0 0 r r r r 2 2         + + + + * * T T ....r r r r ....r.r.r.r.r.r.r.r.r.r.........",
"....I I r.r.r.r.r.r.! ! k k k k l l U U ! ! , ,         + + + + 2 2 r r r r 0 0 r r r i 2 2         + + + + * * T T ....r r r r ....r.r.r.r.r.r.r.r.r.r.........",
"r r r.r.r.r.r.r.r.r.h h q q q q q q q q q q $ $     X X + + + + ! ! r.r.r.r.r.r.r.r.4 4 1 1 o o     + + + + * * 2 2 1 1 0 0 r r n n r.r.3 3 2 2 0 0 0 0 r r h r ",
"r r r.r.r.r.r.r.r.r.h h q q q q q q q q q q $ $     X X + + + + ! ! r.r.r.r.r.r.r.r.4 4 1 1 o o     + + + + * * 2 2 1 1 0 0 r r n n r.r.3 3 2 2 0 0 0 0 r r h r ",
"< < ! ! r.r.r.r.V V q q w w w w w w w w w w + +     o o + + + + B B ....r.r.T T 3 3 , , , , + +     o o + + + + 2 2 2 2 3 3 n n n n n n < < 6 6 6 6 q q q q &.&.",
"< < ! ! r.r.r.r.V V w w w w w w w w w w w w + +     o o + + + + B B ....r.r.T T 3 3 , , , , + +     o o + + + + 2 2 2 2 3 3 n n n n n n < < 6 6 6 6 q q q q &.&.",
"< < 8 8 r.r.r.r.9 9 9 9 w w w w w w w w w w . .     o o + + $ $ q q ....r.r.r r 2 2 2 2 2 2 $ $     o o + + + + 2 2 0 0 0 0 r r n n 6 6 < < < < < < 6 6 6 6 8 8 ",
"< < 8 8 r.r.r.r.9 9 9 9 w w w w w w w w w w . .     o o + + $ $ q q ....r.r.r r 2 2 2 2 2 2 $ $     o o + + + + 2 2 0 0 0 0 r r n n 6 6 < < < < < < 6 6 6 6 8 8 ",
"> > > > r.r.r.r.9 9 7 7 9 9 9 9 9 9 9 9 9 9         o o + + $ $ 9 9 S S r.r.3 3 2 2 2 2 2 2 $ $     o o + + + + , , 2 2 2 2 r r ....6 6 < < < < < < < < < < < < ",
"> > > > r.r.r.r.9 9 7 7 9 9 9 9 9 9 9 9 9 9         o o + + $ $ 9 9 S S r.r.3 3 2 2 2 2 2 2 $ $     o o + + + + , , 2 2 2 2 r r ....< 6 < < < < < < < < < < < < ",
"- - - - r.r.R R 6 6 6 6 6 6 6 6 6 6 6 6 6 6         o o + + $ $ 6 6 n n r.r.2 2 : : = = : : o o     + + + + + + = = 2 2 2 2 ! ! r.r.2 2 - - - - = = = = & & $ $ ",
"- - - - r.r.R R 6 6 6 6 6 6 6 6 6 6 6 6 6 6         o o + + $ $ 6 6 n n r.r.2 2 : : = = : : o o     + + + + + + = = 2 2 2 2 ! ! r.r.2 2 - - - - = = = = & & $ $ ",
"> > r r r.r.n n 8 8 - - - - - - - - - - = =         o + + + + + < < n n @.@.k k ; ; $ $ $ $ X X     + + + + + + $ $ : : 1 1 @.@.r.r.n n = = @ @ @ @ @ @ O O @ @ ",
"> > r r r.r.n n 8 8 - - - - - - - - - - = =         o + + + + + < < n n @.@.k k ; ; $ $ $ $ X X     + + + + + + $ $ : : 2 1 @.@.r.r.n n = = @ @ @ @ @ O O O @ @ ",
"r r r.r.r.r.....I I 0 0 0 0 8 8 0 0 0 0 0 0         o o + + $ $ n n ....r.r.r.r.k k 2 2 2 2 X X     + + + + + + , , r r r.r.r.r.@.@.r.r.n n 2 2 1 1 2 2 2 2 2 2 ",
"r r r.r.r.r.....I I 0 0 0 0 8 8 0 0 0 0 0 0         o o + + * $ n n ....r.r.r.r.k k 2 2 2 2 X X     + + + + + + , , r r r.r.r.r.@.@.r.r.n n 2 2 1 1 2 2 2 2 2 2 ",
"r.r.r.r.r.r.....! ..@.@.@.@.r.r.r.r.r.r.r.r.        o o + + $ $ w.r.r.r.r.r.r.r.r.r.r.@.r.r.        + + + + + + 3 3 r.r.r.r.r.r.r.r.r.r.r.r.r.r.r.r.r.r.r.r.r.r.",
"r.r.r.r.r.r.....! ! @.@.@.@.r.r.r.r.r.r.r.r.        o o + + $ $ r.r.r.r.r.r.r.r.r.r.r.@.r.r.        + + + + + + 3 3 r.r.r.r.r.r.r.r.r.r.r.r.r.r.r.r.r.r.r.r.r.r.",
"I I I I h h 0 0 0 0 j j r.r.r.r.! / k k r r . .     . . + + + + ! ! r.r.r.r.k k 3 3 r r 3 3         + + + + + + 3 3 I I I n n n n n T T @.@.r.r.r.r.I I r r I I ",
"I I I I h h 0 0 0 0 j j r.r.r.r.! ! k k r r . .     . . + + + + ! ! r.r.r.r.k k 3 3 r r 3 3         + + + + + + 3 3 I I I n n n n n T T r.@.r.r.r.r.I I r r I I ",
"i.i.g.g.i.i.3.3.-.>.h h ........0 0 2 2 2 2 + +         + + + + 2 2 r.r.! ! 8 8 6 6 6 6 = =     . . + + + + $ $ q q *.&.q q q q 8 8 q q I n @.r.....9 9 9 9 9 9 ",
"i.i.i.i.i.i.3.3.-.-.h h ........0 0 2 2 2 2 + +         + + + + 2 2 r.r.! ! 8 8 6 6 6 6 = =     X . + + + + $ $ q q *.&.q q q q 8 8 q q n n @.r.....9 9 9 9 9 9 ",
"g.g.l.l.l.l.l.l.l.l.5.5.@.@.I I 0 0 8 8 2 2 $ $         + + + + * * r.r.8 8 < < < < < 6 O O     + + + + + + + + 6 6 6 6 6 6 6 6 < < < < 6 6 r.r.q q 9 9 9 9 9 9 ",
"g.g.l.l.l.l.l.l.l.l.5.5.@.@.I I 0 0 8 8 2 2 $ $         + + + + * * r.r.8 8 < < < < 6 6 O O     + + + + + + + + 6 6 6 6 6 6 6 6 < < < < 6 6 r.r.q q 9 9 9 9 9 9 ",
"w w e e e e e e e e e e r.r.r r 2 2 2 2 2 2 : :         + + + + + + 3 3 6 6 < < < < = =         + + + + + + o o < < < < < < < < > > > > - - r.r.9 9 9 9 9 9 9 9 ",
"w w e e e e e e e e e e r.r.r r 2 2 2 2 2 2 : :         + + + + + + 3 3 6 6 < < < < = =         + + + + + + o o < < < < < < < < > > > > - - r.r.9 9 9 9 9 9 9 9 ",
"6 6 7 7 7 7 7 7 7 7 7 7 r.r., , * * * * : : = =         . . + + + + + + : : = = $ $         + + + + + + . . . . $ $ @ @ @ @ O O O O O O = = r.r.6 6 9 9 9 9 9 9 ",
"6 6 7 7 7 6 7 7 7 7 7 7 r.r., , * * * * : : = =         . . + + + + + + : : = = $ $         + + + + + + . . . . $ $ @ @ @ @ @ O O O O O = = r.r.6 6 9 9 9 9 9 9 ",
"- - - - - - - - - - 0 0 r.r.r r $ $ $ $ $ $ $ $             + + + + + + + o o o         o + + + + + o o         O O O O O O O O O O @ @ n n ....r r q q 9 9 9 9 ",
"- - - - - - - - - - 0 0 r.r.r r $ $ $ $ $ $ $ $             + + + + + + + o o o         o o + + + + o o         O O O O O O O O O O @ @ n n ....r r q q 9 9 9 9 ",
"< < < < < < < < < < @.@.@.@.r.r.4 4 , , , , , , $ $         . . + + + + + + + + + + + + + + + + + +         $ $ * * = = : : : : : : 3 3 r r r r r r r r q q q q ",
"< < < < < < < < < < @.@.@.@.r.r.4 4 , , , , , , $ $         . . + + + + + + + + + + + + + + + + + +         $ $ * * = = : : : : : : 3 3 r r r r r r r r q q q q ",
"! ! @.@.@.@.....n n ....r.r.r.r.r.r.r.r.r.r.r.r.r.r., ,             + + + + + + + + + + + + o o     + + : : r.r.............n n I I I I r r 0 0 0 0 r r r r r r ",
"! ! @.@.@.@.....n n ....r.r.r.r.r.r.r.r.r.r.r.r.r.r., ,             + + + + + + + + + + + + o o     + + : : r.r.............n n I I I I r r 0 0 0 0 r r r r r r ",
"0 0 0 0 ........j n ....@.@.@.@.@.@.@.@.! ! ! ! ! ..! ! , , o o             o o + + + +     o + r r U k r.r.r.r.r.r.r.r.r.r.r.r.r.r.r.r.I I h h h h h h h h h h ",
"0 0 0 0 ........j j ....@.@.@.@.@.@.@.@.! ! ! ! ! ..! ! , , o o             o o + + + +     o o r r U U r.r.r.r.r.r.r.r.r.r.r.r.r.r.r.r.I I h h h h h h h h h h ",
"< < > > > > n n j j ! ! T T n n T T R R R ..R R n n n n n n 3 3 = = + + o o         + + : : q q w w w w *.*.*.*.*.*.*.*.r.r.r.r.....6 6 6 6 6 6 6 6 6 6 6 6 8 8 ",
"< < > > > > n n n n ! ! T T n n T T R R R R R ..n n n n n n 3 3 = = + + o o         o + : : q q w w w w *.*.*.*.*.*.*.*.r.r.r.r.....6 6 6 6 6 6 6 6 6 6 6 6 8 8 ",
"q q q q 8 8 6 6 ....n n h h J J 7.7.0.0.s.s.s.s.s.s.s.s.0.0.P P J J r r 0 0 n n ! ! q q e e ,.,.1.1.3.3.3.3.3.3.3.3.1.1.>.>.r.r.0 0 6 6 6 6 6 6 6 6 8 8 8 6 q q ",
"q q q q 8 8 6 6 ....n n h h J J 7.7.0.0.s.s.s.s.s.s.s.s.0.0.P P J J r r 0 0 n n ! ! q q e e ,.1.1.1.3.3.3.3.3.3.3.3.1.1.>.>.r.r.0 q 6 6 6 6 6 6 6 6 8 8 6 6 8 q ",
">.>.*.*.w w 6 6 r.r.3 3 0 0 0 0 r r h h J I I I I I h h r r 0 0 0 0 2 2 2 2 2 2 @.@.9 9 w w w w e e -.-.-.-.-.-.e e e e w w @.@.6 6 < < < < < < < 6 < > 6 6 6 6 ",
"-.-.*.*.w w 6 6 r.r.3 3 0 0 0 0 r r h h J J I I I I h h r 0 0 0 0 0 2 2 2 2 2 2 @.@.9 9 w w w w e e -.-.-.-.-.-.e e e e w w @.@.6 6 < < < < < < < < < > 6 6 6 6 ",
"q q q q 6 6 = = ! ..2 2 * * * * : : 2 2 2 2 2 2 2 2 2 2 2 2 2 2 2 2 2 2 2 2 2 2 @.@.9 9 9 9 9 9 9 9 9 9 9 9 9 9 9 9 7 7 7 7 ....- - = = = = = = = = > > < < 6 < ",
"q q q q 6 6 = = ! ! 2 2 * $ * * : : 2 2 2 2 2 2 2 2 2 2 2 2 2 2 2 2 2 2 2 2 2 2 @.@.9 9 9 9 9 9 9 9 9 9 9 9 9 9 9 9 7 7 7 7 ....- - = = = = = = = = > > < < 6 < ",
"> > > > = = = = r.r.2 2 $ $ $ $ $ $ $ $ $ $ $ $ * * : : : : , , 2 2 , , = : * * r.r.> > & & % % @ @ @ @ @ @ @ @ O O O O O O r.r.o o o o o o o o O O @ @ = = > > ",
"> > > > = = = = r.r.2 2 $ $ $ $ $ $ $ $ $ $ $ $ * * : : : : , , 2 2 , , = : * * r.r.> > & & % % @ @ @ @ @ @ @ @ O O O O O O r.r.o o o o o o o o O O @ @ = = > > ",
"> > - - = = k k r.r.k k 2 2 * * $ $ $ $ $ $ $ $ $ $ $ # $ $ @ @ + + o o + + T T ........$ $ O O O O O O @ @ @ @ $ $ & & n n r.r.! ! : : @ @ o o o o O O @ @ = - ",
"> > - - = = k k r.r.k k 2 2 * * $ $ $ $ $ $ $ $ $ $ $ # $ $ @ @ + + o o + + n T ........$ $ O O O O O O @ @ @ @ $ $ & & n n r.r.! ! : : @ @ O O o o O O @ @ = = ",
"0 0 r r ....r.r.r.r.r.r.! ! k k 4 4 4 4 4 4 4 4 4 4 4 4 r r 4 4 4 4 4 4 k k ....................n n ................@.@.r.r.r.r.r.r...! n n k k 4 4 2 2 2 2 0 0 ",
"0 0 r r ....r.r.r.r.r.r.! ! k k 4 4 4 4 4 4 4 4 4 4 4 4 4 r 4 4 4 4 4 4 k k ....................n n ................@.@.r.r.r.r.r.r.....n n k k 4 4 2 2 2 2 0 0 "
};
