/* XPM */
static const char *nb_1[] = {
/* columns rows colors chars-per-pixel */
"80 80 137 2 ",
"   c #1C130A",
".  c #20160E",
"X  c #21180F",
"o  c #251511",
"O  c #281713",
"+  c #251C15",
"@  c #2B1A15",
"#  c #271A18",
"$  c #2B1D19",
"%  c #311E17",
"&  c #321E19",
"*  c #2E211D",
"=  c #34211C",
"-  c #3B241D",
";  c #322521",
":  c #3C2620",
">  c #352925",
",  c #3E2923",
"<  c #372C2A",
"1  c #3C2D29",
"2  c #3D312D",
"3  c #3E3431",
"4  c #40271F",
"5  c #422B24",
"6  c #492E25",
"7  c #442E29",
"8  c #4C3027",
"9  c #43322D",
"0  c #4C332B",
"q  c #52362C",
"w  c #55382F",
"e  c #443632",
"r  c #483732",
"t  c #493732",
"y  c #4B3731",
"u  c #4F3630",
"i  c #493731",
"p  c #473833",
"a  c #433A37",
"s  c #473934",
"d  c #453A36",
"f  c #443A37",
"g  c #473A36",
"h  c #463B37",
"j  c #453A36",
"k  c #493833",
"l  c #4B3832",
"z  c #4A3833",
"x  c #4C3833",
"c  c #4B3834",
"v  c #4B3935",
"b  c #483A37",
"n  c #483B37",
"m  c #4A3B36",
"M  c #4D3934",
"N  c #4C3A34",
"B  c #4D3A35",
"V  c #4D3B36",
"C  c #4F3B36",
"Z  c #4B3C37",
"A  c #4F3C37",
"S  c #4A3A35",
"D  c #443B38",
"F  c #453B38",
"G  c #463B38",
"H  c #473B38",
"J  c #453C39",
"K  c #473C38",
"L  c #463C39",
"P  c #473D39",
"I  c #473D3A",
"U  c #473E3B",
"Y  c #473F3C",
"T  c #463D39",
"R  c #483C38",
"E  c #483C39",
"W  c #483D39",
"Q  c #493D39",
"!  c #4A3C38",
"~  c #4A3D39",
"^  c #483D3A",
"/  c #493D3A",
"(  c #483E3A",
")  c #483E3B",
"_  c #493F3B",
"`  c #4B3E3A",
"'  c #4A3F3B",
"]  c #4C3D38",
"[  c #4D3D38",
"{  c #4F3F3A",
"}  c #483F3C",
"|  c #493F3C",
" . c #4C3F3C",
".. c #4D3F3C",
"X. c #483E3A",
"o. c #503730",
"O. c #513831",
"+. c #533932",
"@. c #503A33",
"#. c #563930",
"$. c #543A33",
"%. c #513A34",
"&. c #543D36",
"*. c #563D36",
"=. c #573D36",
"-. c #533A32",
";. c #583B31",
":. c #593C33",
">. c #5A3C33",
",. c #5A3D33",
"<. c #5B3E35",
"1. c #583E37",
"2. c #5A3E36",
"3. c #5B3E34",
"4. c #513D38",
"5. c #503E38",
"6. c #513E39",
"7. c #503F39",
"8. c #523E39",
"9. c #49403C",
"0. c #48403D",
"q. c #49403D",
"w. c #4B403C",
"e. c #4A403D",
"r. c #4B413E",
"t. c #49403D",
"y. c #5D4036",
"u. c #5F4137",
"i. c #53403A",
"p. c #55413B",
"a. c #5E4138",
"s. c #5F4239",
"d. c #5F4339",
"f. c #5F4138",
"g. c #61453B",
"h. c #62453B",
"j. c #614339",
/* pixels */
"q.q.q.q.} } } } } } } } } } } } _ _ _ _ _ _ _ _ _ _ _ _ _ _ _ _ _ _ _ _ _ _ _ _ _ _ _ _ _ _ _ _ _ _ _ _ _ _ _ _ _ _ _ _ _ _ } } } } } } _ _ _ _ _ _ _ _ _ _ _ _ ",
"q.q.q.q.} } } } } } } } } } _ _ _ _ _ _ _ _ _ _ _ _ _ _ _ _ _ _ _ _ _ _ _ _ _ _ _ _ _ _ _ _ _ _ _ _ _ _ _ _ _ _ _ _ _ _ _ _ } } } } } } _ _ _ _ _ _ _ _ _ _ P P ",
"9 9 0 0 0 0 0 0 0 0 z z _ _ } } q.q.q.q.7.7.2.2.2.2.y.<.d.d.d.d.g.g.g.g.g.g.d.d.2.2.q.q.q.} } } } } h h V V V V V A 7.7.7.7.7.7.7.7.] ] ....q.q.} } q.q.V V 0 0 ",
"9 9 0 0 0 0 0 0 0 0 z z _ _ } } q.q.q.q.7.7.2.2.2.2.<.<.d.d.d.d.g.g.g.g.g.g.d.d.2.2.q.q.q.} } } } } h h V V V V V A 7.7.7.7.7.7.7.7.] ] ....q.q.} } q.q.V V 0 0 ",
"5 5 7 7 0 0 0 0 0 0 0 0 u u ] ] q.q.q.q.>.>.#.#.q q q q q q q q q q w w w w q q q q 0 0 _ _ q.q.9 9 9 9 9 9 e e S S V V A A 7.7.7.7.7.7.%.%._ _ } } 9 9 5 5 5 5 ",
"5 5 7 7 0 0 0 0 0 0 0 0 u u ] ] q.q.q.q.>.>.#.#.q q q q q q q q q q w w w w q q q q 0 0 _ _ q.q.9 9 9 9 9 9 e e S S V V A A 7.7.7.7.7.7.V %._ _ } } 9 9 5 5 5 5 ",
", , , 5 , , 5 5 5 5 5 5 5 5 7 7 q.q.0 0 q q 8 8 8 8 8 8 8 8 8 8 8 8 8 8 8 8 8 8 8 8 8 8 S S _ _ 1 1 1 1 1 1 1 1 9 9 9 9 e e z z z z z z i i e e } q., , : : : : ",
", , , , , , 5 5 5 5 5 5 5 5 7 7 q.q.0 0 8 q 8 8 8 8 8 8 8 8 8 8 8 8 8 8 8 8 8 8 8 8 8 8 S S _ _ 1 1 1 1 1 1 1 1 9 9 9 9 e e z z z z z z i i e e } q., , : : : : ",
", , - - - - - - - - - - = = = = q.q.5 5 4 4 - 4 5 5 - - - - - - - - - - - - - - - - - - e e q.q.; ; ; ; ; ; ; ; ; ; ; ; ; ; ; ; * * ; ; * * * * q.q.& & & & & & ",
", , - - - - - - - - - - = = = = q.q.5 5 4 4 - - 5 5 - - - - - - - - - - - - - - - - - - e e q.q.; ; ; ; ; ; ; ; ; ; ; ; ; ; ; ; ; ; ; ; * * * * q.q.& & & & & & ",
"- - = = = = = = = = & & & & 9 9 q.q.P P = = = = = = = = = = = = = = = = = = = = & = = = _ _ } } > > $ $ $ $ $ $ $ $ $ $ $ $ $ $ $ $ $ $ # $ < < q.q.$ $ O O @ @ ",
"- - = = = = = = = = & & & & 9 9 q.q.P P = = = = = = = = = = = = = = = = = = = = & = = = P P } } > > $ $ $ $ $ $ $ $ $ $ $ $ $ $ $ $ $ $ # $ < < q.q.$ $ @ O @ @ ",
": : - - = = = = = = : : 9 9 } } q.q.} } e e = = = = = = = = = = & & & & & & @ @ @ @ ; ; G G _ _ P P ; ; $ $ # $ $ $ $ $ # # # # $ $ ; ; 1 1 P P q.q.P P > > @ @ ",
": : - - = = = = = = : : 9 9 } } q.q.} } e e = = = = = = = = = = & & & & & & @ @ @ @ ; ; G G _ _ P P ; ; $ $ # # $ $ $ $ # # # # $ $ ; ; 1 1 P P q.q.P P > > @ @ ",
"P P G G G G G G G G G G _ _ } _ } } q.q.q.q._ _ n n n n _ _ h h _ n 2 2 o o         X X 2 2 S S h h P P G G a a h h a a a a a a G G P P P P q.q.q.q.q.q.q.q.P P ",
"P P G G G G G G G G G G _ _ _ _ } } q.q.q.q._ _ n n n n P P h h _ _ 2 2 o o         X X 2 2 S S h h P P G G a G h h a a a a a a G G P P P P q.q.q.q.q.q.q.q.P P ",
"q.q.} } } } q.q.q.q._ _ _ P _ _ _ _ _ _ } q.q.q.q.q.q.q.q.q.q.q.e e X X         o o + + ; ; e e 9 9 e e G G _ _ q.q.q.q.q.q.q.q.q.q.q.q.q.q.e e i i i i M M M V ",
"q.q.} } } } q.q.q.q._ _ _ _ _ _ _ _ _ _ } } q.q.q.q.q.q.q.q.q.q.e e X X         o o + + ; ; e e 9 9 e e G G _ _ q.q.q.q.q.q.q.q.q.q.q.q.q.q.e e i i i i M M V V ",
"0 0 0 0 z z q.q.Y Y 9 9 9 9 9 9 e e e e p p S S q.q.q.q.....9 9             o o + + + + = = =.=.=.=.=.=.=.=.%.%.M +.i.i.q.q.q.q.q.q.n n q q q q w w ;.;.>.>.>.>.",
"0 0 0 0 z z q.q.Y Y 9 2 9 9 9 9 e e e e p e S S q.q.q.q.....9 9             o o + + + + = = =.=.=.=.=.=.=.=.%.%.M +.i.i.q.q.q.q.q.q.n n q q q q w w ;.;.>.>.>.>.",
"8 8 8 8 8 8 _ _ 2 2 1 1 1 1 1 1 1 1 1 1 1 1 1 1 e e w.q.5 5             + + + + + + + + * * #.#.#.#.+.+.+.+.0 0 0 0 7 7 ] ] q.q._ _ 8 8 8 8 8 8 8 8 8 8 8 8 q q ",
"8 8 8 8 8 8 _ _ 2 9 1 1 1 1 1 1 1 1 1 1 1 1 1 1 e e w.q.5 5             + + + + + + + + * * #.#.#.#.+.+.+.+.0 0 0 0 7 7 ] ] q.q._ _ 8 8 8 8 8 8 8 8 8 8 8 8 q q ",
"6 6 6 6 6 6 _ _ 1 1 1 1 1 1 1 1 1 1 1 1 1 1 1 1 1 1 9 9             + + + + + + + + + + + + 5 5 5 5 5 5 5 5 , , , , : : 0 0 q.q._ _ 8 8 8 8 8 8 8 8 8 8 8 8 8 8 ",
"6 6 6 6 6 6 _ _ 1 1 1 1 1 1 1 1 1 1 1 1 1 1 1 1 1 1 9 9             + + + + + + + + + + + + 5 5 5 5 5 5 5 5 , , , , : : 0 0 q.q._ _ 8 8 8 8 8 8 8 8 8 8 8 8 8 8 ",
"5 5 5 5 5 5 _ _ ; ; = = ; ; = = = = = = ; * * * * *             + + + + + + + + + + + + + + = = = = = = = = = = & & & & e e q.q.h h - - = - - - - - - - - - 5 5 ",
"5 5 5 5 5 5 _ _ ; ; = = ; ; = = = = = = ; ; * * * *             + + + + + + + + + + + + + + = = = = = = = = = = & & & & e e q.q.h h - - - - - - - - - - - - 5 5 ",
"5 5 5 5 , , _ _ = = * * * * * * $ $ $ $ * * $ $             + + + + + + + + + + + + + + + + @ @ O O O O O O o o O O @ @ G G q.q._ _ 1 1 @ @ @ @ % % @ @ % % & & ",
"5 5 5 5 , , _ _ = = * * * * * * $ $ $ $ * * $ $             + + + + + + + + + + + + + + + + @ @ O O O O O O o o O O @ @ G G q.q._ _ 1 1 @ @ @ @ % % @ @ % % & & ",
"6 6 5 5 p p q.q.e e ; ; * * * * $ $ * * ; ; o o         o o + + + + + + + + + + + + + + + + $ $ $ $ $ $ = = ; ; ; ; e e h h h h q.q.P P 2 2 = = & & & & % % = = ",
"6 6 5 5 p p q.q.e e ; ; * * * * $ $ * * ; ; o o         o o + + + + + + + + + + + + + + + + $ $ $ $ $ $ = = ; ; ; ; e e h h h h q.q.P P 2 2 = = & & & & % % = = ",
"_ _ S S q.q.q.q.q.q.P P a a a a a a D D G G             o o + + + + + + o o     + + + + + + e e 3 3 3 3 e e h h G G _ _ e e e e _ _ q.q.q.q.q.q.q.q.q.q._ _ _ _ ",
"_ _ S S q.q.q.q.q.q.P P a a a a a a D D G G             o o + + + + + + o o     + + + + + + e 9 3 3 3 3 e e h h G G _ _ e e e e _ _ q.q.q.q.q.q.q.} q.q._ _ _ _ ",
"e e q.q.q.q.q.q.q.q.i i 0 0 0 0 0 0 0 0 9 9 + +             o o * * < <         + + + + + + < < 1 1 < < 1 1 1 < 1 1 < < 9 9 e e h h q.q.2 2 1 1 9 9 9 9 e e e e ",
"e e q.q.q.q.q.q.q.q.i i 0 0 0 0 0 0 0 0 9 9 + +             o o * * < <         + + + + + + < < 1 1 < < 1 1 < < 1 1 < < 9 9 e e h h q.q.2 2 1 1 9 9 9 9 e e e e ",
", , P P q.q.q.q.M M 0 0 q q q q q q q q q q 6 6 X X     X X = = p p 2 2         + + + + + + > > 1 1 1 1 1 1 1 1 1 1 1 1 2 2 h h h h h h , , 5 5 5 5 0 0 0 0 o.o.",
", , P P q.q.q.q.M M q q q q q q q q q q q q 6 6 X X     X X = = p p 2 2         + + + + + + > > 1 1 1 1 1 1 1 1 1 1 1 1 2 2 h h h h h h , , 5 5 5 5 0 0 0 0 o.o.",
", , 7 7 q.q.q.q.8 8 8 8 q q q q q q q q q q q q - - % % 6 6 8 8 0 0 2 2         + + + + + + 1 1 1 1 1 1 1 1 1 7 9 9 9 9 9 9 e e h h 5 5 , , , , , , 5 5 5 5 7 7 ",
", , 7 7 q.q.q.q.8 8 8 8 q q q q q q q q q q q q - - % % 6 6 8 8 0 0 2 2         + + + + + + 1 1 1 1 1 1 1 1 1 1 9 9 9 9 9 9 e e h h 5 5 , , , , , , 5 5 5 5 7 7 ",
": : : : q.q.q.q.8 6 6 6 8 8 8 8 8 8 8 8 8 8 8 8 8 8 8 8 8 8 8 8 8 8 2 2         + + + + + + 1 1 1 1 1 1 1 1 1 1 1 1 1 1 1 1 e e _ _ , 5 , , , , , , , , , , , , ",
": : : : q.q.q.q.8 6 6 6 8 8 8 8 8 8 8 8 8 8 8 8 8 6 6 6 8 8 8 8 8 8 2 2         + + + + + + 1 1 1 1 1 1 1 1 1 1 1 1 1 1 1 1 e e _ _ , 5 , , , , , , , , , , , , ",
"- - - - q.q.H H 5 5 5 5 5 5 5 5 5 5 5 5 5 5 5 5 5 5 5 5 5 5 5 5 4 5 1 1         + + + + + + * * * * * = ; ; ; ; ; ; 1 1 1 1 P P q.q.1 1 - - - - = = = = & & $ $ ",
"- - - - q.q.H H 5 5 5 5 5 5 5 5 5 5 5 5 5 5 5 5 5 5 5 5 5 5 5 5 4 4 1 1         + + + + + + * * * * * = ; ; ; ; ; ; 1 1 1 1 P P q.q.1 1 - - - - = = = = & & $ $ ",
": : e e q.q.h h 7 7 - - - - - - - - - - = = = = = = = = = & & & 1 1 > >         o o + + + + $ $ $ $ $ $ $ $ $ $ $ * ; ; 1 1 } } q.q.h h = = @ @ @ @ @ @ O O @ @ ",
": : e e q.q.h h 7 7 - - - - - - - - - - = = = = = = = = = & & & 1 1 > >         o o + + + + $ $ $ $ $ $ $ $ $ $ $ $ ; ; 1 < } } q.q.h h = = @ @ @ @ @ @ O O @ @ ",
"e e q.q.q.q._ _ S S 9 9 9 9 7 7 9 9 9 9 9 9 9 9 9 9 9 9 2 2 2 9 h h ; ;         o o + + * * < < 1 < 1 1 1 1 1 1 2 2 e e q.q.q.q.} } q.q.h h 1 1 1 1 1 1 1 1 1 1 ",
"e e q.q.q.q._ _ S S 9 9 9 9 7 7 9 9 9 9 9 9 9 9 9 9 9 9 9 2 2 9 h h ; ;         o o + + + * < < 1 < 1 1 1 1 1 1 2 2 e e q.q.q.q.} } q.q.h h 1 1 1 1 1 1 1 1 1 1 ",
"q.q.q.q.q.q._ _ P _ } } } } q.q.q.q.q.q.q.q.q.q.q.q.q.q.} } } } 9.9.* *         o o + + + + n n q.q.q.q.q.q.q.q.q.q.q.q.q.q.q.q.q.q.q.q.q.q.q.q.q.q.q.q.q.q.q.q.",
"q.q.q.q.q.q._ _ P P } } } } q.q.q.q.q.q.q.q.q.q.} } q.q.} } } } 9.9.* *         o o + + + + n n q.q.q.q.q.q.q.q.q.q.q.q.q.q.q.q.q.q.q.q.q.q.q.q.q.q.q.q.q.q.q.q.",
"S S S S i i 9 9 9 9 p p q.q.q.q.P Y e e e e e e e e e e e e G G q.q.* *         o o + + + + 2 2 e e e e h h S S S S S S S S h h h h _ S } } q.q.q.q.S S e e S S ",
"S S S S i i 9 9 9 9 p p q.q.q.q.P P e e e e e e e e e e e e G G q.q.* *         o o + + + + 2 2 e e e e h h S S S S S S S S h h h h n n q.q.q.q.q.q.S S e e S S ",
"y.y.y.y.y.y.<.<.#.$.i i _ _ _ _ 9 9 1 1 1 1 1 1 1 1 1 1 1 1 2 2 h h * *         o o + + + + 5 5 0 0 0 0 0 0 o.o.o.o.q o.0 0 0 0 7 7 9 9 S h } q._ _ 8 8 8 8 8 8 ",
"y.y.y.y.y.y.<.<.#.#.i i _ _ _ _ 9 9 1 1 1 1 1 1 1 1 1 1 1 1 2 2 h h * *         o o + + + + 5 5 0 0 0 0 0 0 o.o.o.o.o.o.0 0 0 0 7 7 9 9 h h } q._ _ 8 8 8 8 8 8 ",
"d.d.j.j.j.j.j.j.j.j.2.2.} } S S 9 9 7 7 1 1 1 1 1 1 1 1 1 1 1 1 1 1 + +         o o + + + + : : 5 5 5 5 5 5 5 5 5 5 5 5 5 5 5 5 , , , , 5 5 q.q.0 0 8 8 8 8 8 8 ",
"d.d.j.j.j.j.j.j.j.j.2.2.} } S S 9 9 7 7 1 1 1 1 1 1 1 1 1 1 1 1 1 1 + +         o o + + + + : : 5 5 5 5 5 5 7 7 5 5 5 5 5 5 5 5 , , , , 5 5 q.q.0 0 8 8 8 8 8 8 ",
"q q w w w w w w w w w w q.q.e e 1 1 1 1 1 1 1 1 1 1 1 1 1 1 1 1 ; ; + +         + + + + + + = = , 5 5 , , , , 5 5 5 , , , , , , : : : : - - q.q.8 8 8 8 8 8 8 8 ",
"q q w w w w w w w w w w q.q.e e 1 1 1 1 1 1 1 1 1 1 1 1 1 1 1 1 ; ; + +         + + + + + + = = , , 5 , , , , 5 , , , , , , , , : : : : - - q.q.8 8 8 8 8 8 8 8 ",
"6 5 6 6 6 6 6 6 6 6 6 6 q.q.> > * * * * ; ; ; ; ; ; * * $ $ O O O O + +         + + + + + + $ $ & & & & $ $ $ $ $ $ @ @ @ @ @ @ O O O O = = q.q.5 5 8 8 8 8 8 8 ",
"6 5 6 6 6 6 6 6 6 6 6 6 q.q.> > * * * * ; ; ; ; ; ; * * $ $ # O O O + +         + + + + + + $ $ & & & & $ $ $ $ $ $ @ @ @ @ @ @ O O O O = = q.q.5 5 8 8 8 8 8 8 ",
"- - - - = = - - - - 9 9 q.q.e e $ $ $ $ $ $ $ $ # # O O O O $ $ > > + +         + + + + + + O O o o o o o o o o o o o o o o o o o o @ @ h h _ _ e e 0 0 8 8 8 8 ",
"- - - - = = - - - - 9 9 q.q.e e $ $ $ $ $ $ $ $ # # O O O O $ $ > > + +         + + + + + + O O o o o o o o o o o o o o o o o o o o @ @ h h _ _ e e 0 0 8 8 8 8 ",
", , 1 1 , , 1 1 1 1 } } } } q.q.3 3 > > > > > > ; ; ; ; ; ; 3 3 q.q.* *         + + + + + + $ $ $ $ * * = = = = * * = = ; ; ; ; ; ; 2 2 e e e e e e e e 0 0 0 0 ",
", , 1 1 , , 1 1 1 1 } } } } q.q.3 3 > > > > > > ; ; ; ; ; ; 3 3 q.q.* *         + + + + + + $ $ $ $ = * = = = = * * = = ; ; ; ; ; ; 2 2 e e e e e e e e 0 0 0 0 ",
"P P } } _ _ _ _ h h _ _ q.q.q.q.q.q.q.q.q.q.q.q.q.q.q.q.q.q.q.q.q.q.2 2             o o + + 9 9 _ _ q.q.q.q.q.q._ _ _ _ _ _ S S S S S S e e 9 9 9 9 e e e e e e ",
"P P } } _ } _ _ h h _ _ q.q.q.q.q.q.q.q.q.q.q.q.q.q.q.q.q.q.q.q.q.q.2 2             o o + + 9 9 _ _ q.q.q.q.q.q._ _ _ _ _ _ S S S S S S e e 9 9 9 9 e e e e e e ",
"9 9 9 9 _ _ _ _ p h _ _ } } } } } } } } P P P P P _ P P P P P P P P P P + +         * * 2 2 _ _ q.q.q.q.q.q.q.q.q.q.q.q.q.q.q.q.q.q.q.q.S S i i i i i i i i i i ",
"9 9 9 9 _ _ _ _ p p _ _ } } } } } } } } P P P P P P P P P P P P P P P P + +         * * 2 2 _ _ q.q.q.q.q.q.q.q.q.q.q.q.q.q.q.q.q.q.q.q.S S i i i i i i i i i i ",
": , : : : : h h p p P P G G h h G G H H _ _ H H h h h h h h e e e e e e h h a a a a q.q.M M q q q q q q +.+.+.+.+.+.+.+.q.q.q.q._ _ 5 5 5 5 5 5 5 5 5 5 5 5 7 7 ",
", , : : : : p h h h P P G G h h G G H H H H H _ h h h h h h e e e e e e h h a a a a q.q.M M q q q q q q +.+.+.+.+.+.+.+.q.q.q.q._ _ 5 5 5 5 5 5 5 5 5 5 5 5 7 7 ",
"0 0 0 0 7 7 5 5 _ _ h h i i V V 4.4.7.7.p.p.p.p.p.p.p.p.7.7.A A V V e e 9 9 P P q.q.0 0 w w ;.;.>.>.<.<.<.<.<.<.<.<.>.>.$.$.q.} 9 0 5 5 5 5 5 5 5 5 7 7 5 5 9 9 ",
"0 0 0 0 7 7 7 5 _ _ h h i i V V 4.4.7.7.p.p.p.p.p.p.p.p.7.7.A A V V e e 9 9 P P q.q.0 0 w w ;.;.>.>.<.<.<.<.<.<.<.<.>.>.$.$.q.} 9 9 5 5 5 5 5 5 5 5 7 7 7 7 9 9 ",
"%.+.+.+.q q 5 5 q.q.2 2 9 9 9 9 e e i i V S S S S S i i e e 9 9 9 9 1 1 1 1 1 1 _ } 8 8 q q q q w w #.#.#.#.#.#.w w w w q q } } 5 5 , , , , , , 5 5 5 : 5 5 5 5 ",
"+.+.+.+.q q 5 5 q.q.2 2 9 9 9 9 e e i i V S S S S S i i e e 9 9 9 9 1 1 1 1 1 1 _ _ 8 8 q q q q w w #.#.#.#.#.#.w w w w q q } } 5 5 , , , , , , 5 5 5 : 5 5 5 5 ",
"0 0 0 0 5 5 = = P P 1 1 * * * * ; ; 1 1 1 1 1 1 1 1 1 1 1 1 1 1 1 1 1 1 1 1 1 1 } } 8 8 8 8 8 8 8 8 8 8 8 8 8 8 8 8 6 6 6 6 _ _ - - = = = = = = = = : : , , , , ",
"0 0 0 0 5 5 = = P P 1 1 * $ * * ; ; 1 1 1 1 1 1 1 1 1 1 1 1 1 1 1 1 1 1 1 1 1 1 } } 8 8 8 8 8 8 8 8 8 8 8 8 8 8 8 8 6 6 6 6 _ _ - - = = = = = = = = : : , : , , ",
": : : : = = = = q.q.1 1 $ $ $ $ $ $ $ $ $ $ $ $ * * ; ; ; ; > > 1 1 > > = ; * * q.q.: : & & % % @ @ @ @ @ @ @ @ @ @ @ @ @ @ q.q.o o o o o o o o o o @ @ = = : : ",
": : : : = = = = q.q.1 1 $ $ $ $ $ $ $ $ $ $ $ $ * * ; ; ; ; > > 1 1 > > = ; * * q.q.: : & & % % @ @ @ @ @ @ @ @ @ @ @ @ @ @ q.q.o o o o o o o o o o @ @ = = : : ",
": : - - = = a a q.q.a a 1 1 * * $ $ $ $ $ $ $ $ $ $ # # # # O @ # O O O O O G G _ _ _ _ $ $ @ @ @ @ @ @ @ @ @ @ $ $ $ $ h h q.q.P P ; ; @ @ o o o o o o @ @ - - ",
": : - - = = a a q.q.a a 1 1 * * $ $ $ $ $ $ $ $ $ $ # # # # @ @ # # O O O O h G _ _ _ _ $ $ @ @ @ @ @ @ @ @ @ @ $ $ $ $ h h q.q.P P ; ; @ @ o o o o o o @ @ - - ",
"9 9 e e _ _ q.q.q.q.q.q.P P a a 3 3 3 3 3 3 3 3 3 3 3 3 e e e e 3 3 3 3 e e _ _ _ _ _ _ _ _ _ _ h h _ _ _ _ _ _ _ _ _ _ q.q.q.q.q.q.P P h G a a 3 3 1 1 1 1 9 9 ",
"9 9 e e _ _ q.q.q.q.q.q.P P a a 3 3 3 3 3 3 3 3 3 3 3 3 e e 3 3 3 3 3 3 e e _ _ _ _ _ _ _ _ _ _ h h _ _ _ _ _ _ _ _ _ _ q.q.q.q.q.q.P P h h a a 3 3 1 1 1 1 9 9 "
};
