/* XPM */
static const char *nb_2[] = {
/* columns rows colors chars-per-pixel */
"80 80 136 2 ",
"   c #1D130B",
".  c #20160F",
"X  c #241611",
"o  c #281713",
"O  c #251C14",
"+  c #2B1A15",
"@  c #271B18",
"#  c #2A1D1A",
"$  c #311D17",
"%  c #321E19",
"&  c #2E211D",
"*  c #35211C",
"=  c #3B241D",
"-  c #322421",
";  c #3C2620",
":  c #352925",
">  c #3D2923",
",  c #372D2A",
"<  c #3C2D29",
"1  c #3E322D",
"2  c #3F3431",
"3  c #40271F",
"4  c #422B24",
"5  c #492E25",
"6  c #442E29",
"7  c #482F28",
"8  c #4C3027",
"9  c #43322D",
"0  c #4C332B",
"q  c #52362C",
"w  c #55382F",
"e  c #453732",
"r  c #463732",
"t  c #453531",
"y  c #443632",
"u  c #4B3731",
"i  c #483732",
"p  c #493732",
"a  c #4F3630",
"s  c #493731",
"d  c #433833",
"f  c #473833",
"g  c #433A36",
"h  c #433A37",
"j  c #473934",
"k  c #453A36",
"l  c #443A37",
"z  c #473A36",
"x  c #453A36",
"c  c #493833",
"v  c #4B3832",
"b  c #4A3833",
"n  c #4C3833",
"m  c #4B3834",
"M  c #4B3935",
"N  c #483A37",
"B  c #483B37",
"V  c #4A3B36",
"C  c #4D3934",
"Z  c #4C3A34",
"A  c #4D3A35",
"S  c #4D3B36",
"D  c #4F3B36",
"F  c #4B3C37",
"G  c #4F3C37",
"H  c #4A3A35",
"J  c #443B38",
"K  c #453B38",
"L  c #463B38",
"P  c #473B38",
"I  c #453C39",
"U  c #473C38",
"Y  c #463C39",
"T  c #473D39",
"R  c #473D3A",
"E  c #473E3B",
"W  c #473F3C",
"Q  c #463C39",
"!  c #483C38",
"~  c #483C39",
"^  c #483D39",
"/  c #493D39",
"(  c #4A3C38",
")  c #4A3D39",
"_  c #483D3A",
"`  c #493D3A",
"'  c #483E3A",
"]  c #483E3B",
"[  c #493F3B",
"{  c #4B3E3A",
"}  c #4A3F3B",
"|  c #4C3D38",
" . c #4D3D38",
".. c #4F3F3A",
"X. c #483F3C",
"o. c #493F3C",
"O. c #4C3F3C",
"+. c #483E3B",
"@. c #503730",
"#. c #513831",
"$. c #503A33",
"%. c #563930",
"&. c #513A34",
"*. c #543D36",
"=. c #573D36",
"-. c #533A32",
";. c #583B31",
":. c #593C33",
">. c #5A3C33",
",. c #5A3D33",
"<. c #5B3E35",
"1. c #583E37",
"2. c #5A3E36",
"3. c #5B3E34",
"4. c #513D38",
"5. c #503E38",
"6. c #513E39",
"7. c #503F39",
"8. c #523E39",
"9. c #49403C",
"0. c #48403D",
"q. c #49403D",
"w. c #4A403D",
"e. c #4B413E",
"r. c #49403D",
"t. c #5D4036",
"y. c #5F4137",
"u. c #53403A",
"i. c #55413B",
"p. c #5E4138",
"a. c #5F4239",
"s. c #5F4339",
"d. c #5F4138",
"f. c #61453B",
"g. c #62453B",
"h. c #614339",
/* pixels */
"q.q.q.q.X.X.X.X.X.X.X.X.X.X.X.X.[ [ [ [ [ [ [ [ [ [ [ [ [ [ [ [ [ [ [ [ [ [ [ [ [ [ [ [ [ [ [ [ [ [ [ [ [ [ [ [ [ [ [ [ [ [ X.X.X.X.X.X.[ [ [ [ [ [ [ [ [ [ T [ ",
"q.q.q.q.X.X.X.X.X.X.X.X.X.X.[ [ [ [ [ [ [ [ [ [ [ [ [ [ [ [ [ [ [ [ [ [ [ [ [ [ [ [ [ [ [ [ [ [ [ [ [ [ [ [ [ [ [ [ [ [ [ [ X.X.X.X.X.X.[ [ [ [ [ [ [ [ [ [ T T ",
"9 9 0 0 0 0 0 0 0 0 b b [ [ X.X.q.q.q.q.7.7.2.2.2.2.t.<.s.s.s.s.f.f.f.f.f.f.s.s.2.2.q.q.q.X.X.X.X.X.j j S S S S S G 7.7.7.7.7.7.7.7.| | O.O.q.q.X.X.q.q.S S 0 0 ",
"9 9 0 0 0 0 0 0 0 0 b b [ [ X.X.q.q.q.q.7.7.2.2.2.2.<.<.s.s.s.s.f.f.f.f.f.f.s.s.2.2.q.q.q.X.X.X.X.X.j j S S S S S G 7.7.7.7.7.7.7.7.| | O.O.q.q.X.X.q.q.S S 0 0 ",
"4 4 7 7 0 0 0 0 0 0 0 0 a a | | q.q.q.q.>.>.%.%.q q q q q q q q q q w w w w q q q q 0 0 [ [ q.q.9 9 9 9 9 9 y y H H S S G G 7.7.7.7.7.7.&.&.[ [ X.X.9 9 4 4 4 4 ",
"4 4 7 7 0 0 0 0 0 0 0 0 a a | | q.q.q.q.>.>.%.%.q q q q q q q q q q w w w w q q q q 0 0 [ [ q.q.9 9 9 9 9 9 y y H H S S G G 7.7.7.7.7.7.&.&.[ [ X.X.9 9 4 4 4 4 ",
"> > > 4 > > 4 > 4 4 4 4 4 4 7 7 q.q.0 0 q q 8 8 8 8 8 8 8 8 8 8 8 8 8 8 8 8 8 8 8 8 8 8 H H [ [ < < < < < < < < 9 9 9 9 y y b b b b b b s s y y X.q.> > ; ; ; ; ",
"> > > > > > 4 4 4 4 4 4 4 4 7 7 q.q.0 0 8 q 8 8 8 8 8 8 8 8 8 8 8 8 8 8 8 8 8 8 8 8 8 8 H H [ [ < < < < < < < < 9 9 9 9 y y b b b b b b s s y y X.q.> > ; ; ; ; ",
"> > = = = = = = = = = = * * * * q.q.4 4 3 3 = 3 4 4 = = = = = = = = = = = = = = = = = = y y q.q.- - - - - - - - - - - - - - - - * & - - & & & & q.q.% % % % % % ",
"> > = = = = = = = = = = * * * * q.q.4 4 3 3 = = 4 4 = = = = = = = = = = = = = = = = = = y y q.q.- - - - - - - - - - - - - - - - - - - - & & & & q.q.% % % % % % ",
"= = * * * * * * * * % % % % 9 9 q.q.T T * * * * * * * * * * * * * * * * * * * * * * * * [ [ X.X.: : # # # # # # # # # # # # # # # # # # @ @ , , q.q.# # o o + + ",
"= = * * * * * * * * % % % % 9 9 q.q.T T * * * * * * * * * * * * * * * * * * * * % * * * T T X.X.: : # # # # # # # # # # # # # # # # # # @ @ , , q.q.# # + o + + ",
"; ; = = * * * * * * ; ; 9 9 X.X.q.q.X.X.y y * * * * * * * * * * % % % % + + o o o o < < [ [ [ [ T T - - # # @ @ # # # # @ @ @ @ # # - - < < T T q.q.T T : : + + ",
"; ; = = * * * * * * ; ; 9 9 X.X.q.q.X.X.y y * * * * * * * * * * % % % % + + o o o o < < [ [ [ [ T T - - # # @ @ # # # # @ @ @ @ # # - - < < T T q.q.T T : : + + ",
"T T L L L L L L L L L L [ [ X.[ X.X.q.q.q.q.[ [ B B B B T T d d & & X X             X X : : B H j j T T T T h h j j g g g g g g L L T T T T q.q.q.q.q.q.q.q.T T ",
"T T L L L L L L L L L L [ [ [ [ X.X.q.q.q.q.[ [ B B B B T T d d & & X X             X X : : H H j j T T L L h L j j g g g g j g L L T T T T q.q.q.q.q.q.q.q.T T ",
"q.q.X.X.X.X.q.q.q.q.[ [ [ [ [ [ [ [ [ [ X.q.q.q.q.q.q.q.2 2                                 & & 9 9 y y L L [ [ q.q.q.q.q.q.q.q.q.q.q.q.q.q.y y s s s s C C C S ",
"q.q.X.X.X.X.q.q.q.q.[ [ [ [ [ [ [ [ [ [ X.X.q.q.q.q.q.q.2 2                                 & & 9 9 y y L L [ [ q.q.q.q.q.q.q.q.q.q.q.q.q.q.y y s s s s C C S S ",
"0 0 0 0 b b q.q.W W 9 1 9 9 9 9 y y y y f f H H q.q.g g                 . . . . X . . .         4 4 =.=.=.=.&.&.C #.u.u.q.q.q.q.q.q.B B q q q q w w ;.;.>.>.>.>.",
"0 0 0 0 b b q.q.W W 9 1 9 9 9 9 y y y y f y H H q.q.g g                 . . . . . . . .         4 4 =.=.=.=.&.&.#.#.u.u.q.q.q.q.q.q.B B q q q q w w ;.;.>.>.>.>.",
"8 8 8 8 8 8 [ [ 1 1 < < < < < < < < < < < < < < y y             O O O O O O O O O O O O O O O O O O 0 0 #.#.0 0 0 0 7 7 | | q.q.[ [ 8 8 8 8 8 8 8 8 8 8 8 8 q q ",
"8 8 8 8 8 8 [ [ 9 9 < < < < < < < < < < < < < < 2 2             O O O O O O O O O O O O O O O O O O 0 0 #.#.0 0 0 0 7 7 | | q.q.[ [ 8 8 8 8 8 8 8 8 8 8 8 8 q q ",
"5 5 5 5 5 5 [ [ < < < < < < < < < < < < < < < < X X         O O O O O O O O . .     X X O O O O O O & & 4 4 > > > > ; ; 0 0 q.q.[ [ 8 8 8 8 8 8 8 8 8 8 8 8 8 8 ",
"5 5 5 5 5 5 [ [ < < < < < < < < < < < < < < < < X X         O O O O O O O O . .     X X O O O O O O & & 4 4 > > > > ; ; 0 0 q.q.[ [ 8 8 8 8 8 8 8 8 8 8 8 8 8 8 ",
"4 4 4 4 4 4 [ [ - - * * - - * * * * * * * * O O         X X O O O O O O     o o . .         O O O O @ @ * * * * % % % % y y q.q.j j = = = = = = = = = = = = 4 4 ",
"4 4 4 4 4 4 [ [ - - * * - - * * * * * * * * O O         X X O O O O O O     o o . .         O O O O @ @ * * * * % % % % y y q.q.j j = = = = = = = = = = = = 4 4 ",
"4 4 4 4 > > [ [ * * & & & & & & # # # # # #             O O O O O O o o + + + + + +         X X O O O O o o o o o o + + L L q.q.[ [ < < + + + + $ $ + + $ $ % % ",
"4 4 4 4 > > [ [ * * & & & & & & # # # # # #             O O O O O O o O + + + + + +         X X O O O O o o o o o o + + L L q.q.[ [ < < + + + + $ $ + + $ $ % % ",
"5 5 4 4 f f q.q.d d - - & & & & # # & & - -                 X X + + + + + + + + + + . .     . . O O O O * * - - - - y y j j j j q.q.T T 1 1 * * % % % % $ $ * * ",
"5 5 4 4 f f q.q.d d - - & & & & # # & & - -                 X X + + + + + + + + + + . .     . . O O O O * * - - - - y y j j j j q.q.T T 1 1 * * % % % % $ $ * * ",
"[ [ H H q.q.q.q.q.q.T T g g g h h h J J T T                 & & d d y y y y 9 9 y y & &     X X O O & & y y j j L L [ [ y y y y [ [ q.q.q.q.q.q.q.q.q.q.[ [ [ [ ",
"[ [ H H q.q.q.q.q.q.T T g g h h h h J J T T                 & & d d y y y y 9 9 y y # &     X X O O & & y y j j L L [ [ y y y y [ [ q.q.q.q.q.q.q.q.q.q.[ [ [ [ ",
"y y q.q.q.q.q.q.q.q.s s 0 0 0 0 0 0 0 9 9 9 * *         @ @ g g X.X.q.q.q.q.q.q.q.q.X X     O O O O & & , , , , < < , , 9 9 y y L L q.q.1 1 < < 9 9 9 9 y y y y ",
"y y q.q.q.q.q.q.q.q.s s 0 0 0 0 0 0 0 9 9 9 * *         @ @ g g X.X.q.q.q.q.q.q.q.q.X X     O O O O & & , , , , < < , , 9 9 y y L L q.q.1 1 < < 9 9 9 9 y y y y ",
"> > T T q.q.q.q.C C 0 0 q q q q q q q q q q q q 8 8 4 4 5 5 7 7 b b X.[ q.q.L L : :     X X O O O O - - < < < < < < < < 1 1 j j j j j j > > 4 4 4 4 0 0 0 0 @.@.",
"> > T T q.q.q.q.C C q q q q q q q q q q q q q q 8 8 4 4 5 5 7 7 b b [ [ q.q.L L : :     X X O O O O - - < < < < < < < < 1 1 j j j j j j > > 4 4 4 4 0 0 0 0 @.@.",
"> > 6 6 q.q.q.q.8 8 8 8 q q q q q q q q q q q q q q q q q q 8 8 0 0 [ [ q.q.y y X X     O O O O & & < < < < 6 6 9 9 9 9 9 9 y y j j 4 4 > > > > > > 4 4 4 4 7 7 ",
"> > 6 6 q.q.q.q.8 8 8 8 q q q q q q q q q q q q q q q q q q 8 8 0 0 [ [ q.q.y y X X     O O O O # # < < < < < < 9 9 9 9 9 9 y y j j 4 4 > > > > > > 4 4 4 4 7 7 ",
"; ; ; ; q.q.q.q.8 5 5 5 8 8 8 8 8 8 8 8 8 8 8 8 8 8 8 8 8 8 8 8 8 8 B B q.q.& &     X X O O O O : : < < < < < < < < < < < < y y [ [ > 4 > > > > > > > > > > > > ",
"; ; ; ; q.q.q.q.8 5 5 5 8 8 8 8 8 8 8 8 8 8 8 8 8 8 8 8 8 8 8 8 8 8 B B q.q.& &     X X O O O O : : < < < < < < < < < < < < y y [ [ > 4 > > > > > > > > > > > > ",
"= = = = q.q.P P 4 4 4 4 4 4 4 4 4 4 4 4 4 4 4 4 4 4 4 4 4 4 4 4 3 3 j j , ,         O O O O O @ & & * * - - - - - - < < < < T T q.q.< < ; = = = * * * * % % # # ",
"= = = = q.q.P P 4 4 4 4 4 4 4 4 4 4 4 4 4 4 4 4 4 4 4 4 4 4 4 4 3 3 j j , ,         O O O O O O & & & * - - - - - - < < < < T T q.q.< < = = = = * * * * % % # # ",
"; ; y y q.q.j j 6 6 = = = = = = = = = = * * * * * * * * * % % % < < < <         O O O O O O # # # # # # # # # # # & - - < < X.X.q.q.j j * * + + + + + + o o + + ",
"; ; y y q.q.j j 6 6 = = = = = = = = = = * * * * * * * * * % % % < < < <         O O O O O O # # # # # # # # # # # & - - < , X.X.q.q.j j * * + + + + + + o o + + ",
"y y q.q.q.q.[ [ H H 9 9 9 9 6 6 9 9 9 9 9 9 9 9 9 9 9 9 1 1 9 9 y y X X     X X O O O O & & < < < , , < < < < < 1 1 y y q.q.q.q.X.X.q.q.j j < < , < < < < < < < ",
"y y q.q.q.q.X.[ H H 9 9 9 9 6 6 9 9 9 9 9 9 9 9 9 9 9 9 1 1 1 9 y y X X     X X O O O O & & < < , , < < < , < < 1 1 y y q.q.q.q.X.X.q.q.j j < < , < < < < < < < ",
"q.q.q.q.q.q.[ [ T [ X.X.X.X.q.q.q.q.q.q.q.q.q.q.q.q.q.q.X.X.X.X.& &         O O O O @ @ q.q.q.q.q.q.q.q.q.q.q.q.q.q.q.q.q.q.q.q.q.q.q.q.q.q.q.q.q.q.q.q.q.q.q.q.",
"q.q.q.q.q.q.[ [ T T X.X.X.X.q.q.q.q.q.q.q.q.q.q.q.X.q.q.X.X.X.X.& &         O O O O @ @ q.q.q.q.q.q.q.q.q.q.q.q.q.q.q.q.q.q.q.q.q.q.q.q.q.q.q.q.q.q.q.q.q.q.q.q.",
"H H H H s s 9 9 9 9 f f q.q.q.q.T W d d y y y y d d y y y y : :         O O O O O O 1 1 y y y y y y y y j j H H H H H H H H j j j j T T X.q.q.q.q.q.P H y y H H ",
"H H H H s s 9 9 9 9 f f q.q.q.q.T T d d y y y y d d y y y y : :         O O O O O O 1 1 y y y y y y y y j j H H H H H H H H j j j j T T q.q.q.q.q.q.H H y y H H ",
"t.t.t.t.t.t.<.<.%.-.s s [ [ [ [ 9 9 < < < < < < < < < < - -         O O O O O O * * 4 4 0 0 0 0 0 0 0 0 0 0 @.@.@.@.@.@.0 0 0 0 7 7 9 9 j j q.q.[ [ 8 8 8 8 8 8 ",
"t.t.t.t.t.t.<.<.%.%.s s [ [ [ [ 9 9 < < < < < < < < < < - -         O O O O O O * * 4 4 0 0 0 0 0 0 0 0 0 0 @.@.@.@.@.@.0 0 0 0 7 7 9 9 j j q.q.[ [ 8 8 8 8 8 8 ",
"s.s.h.h.h.h.h.h.h.h.2.2.X.X.H H 9 9 6 6 < < < < < < < < . .     X X O O O O O O 4 > 4 4 4 4 4 4 4 4 4 4 4 4 4 4 4 4 4 4 4 4 4 4 > > > > 4 4 q.q.0 0 8 8 8 8 8 8 ",
"s.s.h.h.h.h.h.h.h.h.2.2.X.X.H H 9 9 6 6 < < < < < < < < . .     X X O O O O O O > > 4 4 4 4 4 4 4 4 4 4 4 4 7 7 4 4 4 4 4 4 4 4 > > > > 4 4 q.q.0 0 8 8 8 8 8 8 ",
"q q w w w w w w w w w w q.q.y y < < < < < < < < < < O O         O O O O X X ; ; = = = = = = > > > 4 4 > > > > 4 4 4 > > > > > > ; ; ; ; = = q.q.8 8 8 8 8 8 8 8 ",
"q q w w w w w w w w w w q.q.y y < < < < < < < < < < O O         O O O O X X ; ; = = = = = = > > > 4 4 4 > > > > > > > > > > > > ; ; ; ; = = q.q.8 8 8 8 8 8 8 8 ",
"5 4 5 5 5 5 5 5 5 5 5 5 q.q.: : & & & & - - & &             O O O O O O . .         . . X X O O @ @ @ @ + + + + # # + + + + + + o o o o * * q.q.4 4 8 8 8 8 8 8 ",
"5 4 5 5 5 5 5 5 5 5 5 5 q.q.: : & & & & - - & &             O O O O O O . .         . . X X O O @ @ @ # + + + + # # + + + + + + o o o o * * q.q.4 4 8 8 8 8 8 8 ",
"= = = = * * = = = = 9 9 q.q.y y # # # # # #             X X O O O O O O X X . . X X O O O O O O O O O O O O     o o o o o o o o o o + + j j [ [ y y 0 0 8 8 8 8 ",
"= = = = * * = = = = 9 9 q.q.y y # # # # # #             X X O O O O O O X X . . X X O O O O O O O O O O O O     o o o o o o o o o o + + j j [ [ y y 0 0 8 8 8 8 ",
"> > < < > > < < < < X.X.X.X.q.q.2 2 : : : :             O O O O O O O O O O O O X X X X X X X X O O X X X X     # # * * - - - - - - 1 1 y y y y y y y y 0 0 0 0 ",
"> > < < > > < < < < X.X.X.X.q.q.2 2 : : : :             O O O O O O O O O O O O X X X X X X X X O O X X X X     # # * * - - - - - - 1 1 y y y y y y y y 0 0 0 0 ",
"T T X.X.X.[ [ [ j j [ [ q.q.q.q.q.q.q.q.W W X X                                                                 T T [ [ [ [ j j H H H H y y 9 9 9 9 y y y y y y ",
"T T X.X.X.X.[ [ j j [ [ q.q.q.q.q.q.q.q.X.W X X                                                                 T T [ [ [ T j j H H H H y y 9 9 9 9 y y y y y y ",
"9 9 9 9 [ [ [ [ j j [ [ X.X.X.X.X.X.X.X.T T , , X O                 X X O X                     X X X X @ @ g g q.q.q.q.q.q.q.q.q.q.q.q.H H s s s s s s s s s s ",
"9 9 9 9 [ [ [ [ j j [ [ X.X.X.X.X.X.X.X.T T , , X O                 X X X X                     X X X X @ @ g g q.q.q.q.q.q.q.q.q.q.q.q.H H s s s s s s s s s s ",
"; > ; ; ; ; j j j j T T L L j j L L P P P [ P P j j y y 1 1 9 y y y y y j B q.q.q.q.q.q.C C q q q #.w w #.#.#.#.#.#.#.#.q.q.q.q.[ [ 4 4 4 4 4 4 4 4 4 4 4 4 7 7 ",
"> > ; ; ; ; j j j j T T L L j j L L P P P P P [ j j y y 1 9 y y y y y y j j q.q.q.q.q.q.C C q q q q w w #.#.#.#.#.#.#.#.q.q.q.q.[ [ 4 4 4 4 4 4 4 4 4 4 4 4 7 7 ",
"0 0 0 0 7 7 4 7 [ [ j j s s S S 4.4.7.7.i.i.i.i.i.i.i.i.7.7.G G S S y y 9 9 T T q.q.0 0 w w ;.;.>.>.<.<.t.<.<.<.<.<.>.>.-.-.q.q.0 9 4 4 4 4 4 4 4 4 7 7 4 7 9 9 ",
"0 0 0 0 7 7 7 7 [ [ j j s s S S 4.4.7.7.i.i.i.i.i.i.i.i.7.7.G G S S y y 9 9 T T q.q.0 0 w w ;.;.>.>.<.<.t.<.<.<.<.<.>.>.-.-.q.q.9 9 4 4 4 4 4 4 4 4 7 7 4 4 9 9 ",
"-.-.#.#.0 0 4 4 q.q.1 1 9 9 9 t y y s s S H H H S H s s y y 9 9 9 9 < < < < < < X.X.8 8 q q q q w w %.%.%.%.%.%.w w w w q q X.X.4 4 > > > > > > 4 4 > > 4 4 4 4 ",
"%.-.#.#.0 0 4 4 q.q.1 1 9 9 9 9 y y s s S S H H H H s s y y 9 9 9 9 < < < < < < X.X.8 8 q q q q w w %.%.%.%.%.%.w w w w q q X.X.4 4 > > > > > > 4 4 4 ; 4 4 4 4 ",
"0 0 0 0 4 4 * * T T < < & & & & - - < < < < < < < < < < < < < < < < < < < < < < X.X.8 8 8 8 8 8 8 8 8 8 8 8 8 8 8 8 5 5 5 5 [ [ = = * * * * * * * * ; ; > > 4 > ",
"0 0 0 0 4 4 * * T T < < & # & & - - < < < < < < < < < < < < < < < < < < < < < < X.X.8 8 8 8 8 8 8 8 8 8 8 8 8 8 8 8 5 5 5 5 [ [ = = * * * * * * * * ; ; > > > > ",
"; ; ; ; * * * * q.q.< < # # # # # # # # # # # # & & - - - - : : < < : : * - & & q.q.; ; % % $ $ + + + + + + + + o o o o o o q.q.X X X X X X X X o o + + * * ; ; ",
"; ; ; ; * * * * q.q.< < # # # # # # # # # # # # & & - - - - : : < < : : * - & & q.q.; ; % % $ $ + + + + + + + + o o o o o o q.q.X X X X X X X X o o + + * * ; ; ",
"; ; = = * * g g q.q.g g < < & & # # # # # # # # # # @ @ @ # + + O O O O O O L L [ [ [ [ # # o o o o o o + + + + # # % % j j q.q.T T - - + + X X X X o o + + * = ",
"; ; = = * * g g q.q.g g < < & & # # # # # # # # # # @ @ @ @ + + O O O O O O j L [ [ [ [ # # o o o o o o + + + + # # % % j j q.q.T T - - + + X o X X o o + + * * ",
"9 9 y y [ [ q.q.q.q.q.q.T T g g 2 2 2 2 2 2 2 2 2 2 2 2 y y y 2 2 2 2 2 d d [ [ [ [ [ [ [ [ [ [ j j [ [ [ [ [ [ [ [ X.X.q.q.q.q.q.q.[ [ j j g g 2 2 < < < < 9 9 ",
"9 9 y y [ [ q.q.q.q.q.q.T T g g 2 2 2 2 2 2 2 2 2 2 2 2 y y 2 2 2 2 2 2 d d [ [ [ [ [ [ [ [ [ [ j j [ [ [ [ [ [ [ [ X.X.q.q.q.q.q.q.[ [ j j g g 2 2 < < < < 9 9 "
};
