/* XPM */
static const char *nb_3[] = {
/* columns rows colors chars-per-pixel */
"80 80 140 2 ",
"   c #1C130B",
".  c #20170F",
"X  c #21180F",
"o  c #241511",
"O  c #291713",
"+  c #251C14",
"@  c #2B1A15",
"#  c #271A18",
"$  c #2A1D19",
"%  c #311D17",
"&  c #321E19",
"*  c #2D221D",
"=  c #34221C",
"-  c #3B241D",
";  c #3C281F",
":  c #322521",
">  c #3C2620",
",  c #352924",
"<  c #3D2923",
"1  c #372D29",
"2  c #3C2D29",
"3  c #3E322E",
"4  c #3E3431",
"5  c #40271F",
"6  c #422B24",
"7  c #492E25",
"8  c #442E29",
"9  c #482F28",
"0  c #4C3027",
"q  c #43322D",
"w  c #4C332B",
"e  c #52362C",
"r  c #55382F",
"t  c #433530",
"y  c #423631",
"u  c #413431",
"i  c #443530",
"p  c #463531",
"a  c #473531",
"s  c #463631",
"d  c #453732",
"f  c #463732",
"g  c #443632",
"h  c #4B3731",
"j  c #483732",
"k  c #493732",
"l  c #4F3630",
"z  c #493731",
"x  c #473833",
"c  c #433A37",
"v  c #473934",
"b  c #453A36",
"n  c #443A37",
"m  c #453A37",
"M  c #473A36",
"N  c #463B37",
"B  c #453A36",
"V  c #493833",
"C  c #4B3832",
"Z  c #4A3833",
"A  c #4C3833",
"S  c #4F3933",
"D  c #4B3834",
"F  c #4B3935",
"G  c #483A37",
"H  c #4A3B36",
"J  c #4D3934",
"K  c #4C3A34",
"L  c #4D3A35",
"P  c #4D3B36",
"I  c #4F3B36",
"U  c #4B3C37",
"Y  c #4F3C37",
"T  c #4A3A35",
"R  c #443B38",
"E  c #453B38",
"W  c #463B38",
"Q  c #473B38",
"!  c #453C39",
"~  c #473C38",
"^  c #463C39",
"/  c #473D39",
"(  c #473D3A",
")  c #473E3B",
"_  c #473F3C",
"`  c #463C39",
"'  c #483C38",
"]  c #483C39",
"[  c #483D39",
"{  c #493D39",
"}  c #4A3C38",
"|  c #4A3D39",
" . c #483D3A",
".. c #493D3A",
"X. c #483E3A",
"o. c #483E3B",
"O. c #493F3B",
"+. c #4B3E3A",
"@. c #4A3F3B",
"#. c #4C3D38",
"$. c #4D3D38",
"%. c #4F3F3A",
"&. c #483F3C",
"*. c #493F3C",
"=. c #4C3F3C",
"-. c #483E3B",
";. c #503730",
":. c #503A33",
">. c #563930",
",. c #533A32",
"<. c #583B31",
"1. c #593C33",
"2. c #5A3C33",
"3. c #5A3D33",
"4. c #5B3E35",
"5. c #583E37",
"6. c #5A3E36",
"7. c #5B3E35",
"8. c #513D38",
"9. c #503E38",
"0. c #513E39",
"q. c #503F39",
"w. c #523E39",
"e. c #49403C",
"r. c #48403D",
"t. c #49403D",
"y. c #4A403D",
"u. c #4B413E",
"i. c #49403D",
"p. c #5D4036",
"a. c #5F4137",
"s. c #53403A",
"d. c #55413C",
"f. c #5E4138",
"g. c #5F4239",
"h. c #5F4339",
"j. c #5F4138",
"k. c #61453B",
"l. c #62453B",
"z. c #614339",
/* pixels */
"t.t.t.t.&.&.&.&.&.&.&.&.&.&.&.&.O.O.O.O.O.O.O.O.O.O.O.O.O.O.O.O.O.O.O.O.O.O.O.O.O.O.O.O.O.O.O.O.O.O.O.O.O.O.O.O.O.O.O.O.O.O.&.&.&.&.&.&.O.O.O.O.O.O.O.O.O.O.O.O.",
"t.t.t.t.&.&.&.&.&.&.&.&.&.&.O.&.O.O.O.O.O.O.O.O.O.O.O.O.O.O.O.O.O.O.O.O.O.O.O.O.O.O.O.O.O.O.O.O.O.O.O.O.O.O.O.O.O.O.O.O.O.O.&.&.&.&.&.&.O.O.O.O.O.O.O.O.O.O.O.O.",
"q q w w w w w w w w Z Z O.O.&.&.t.t.t.t.q.q.6.6.6.6.p.7.h.h.h.h.k.k.k.k.k.k.h.h.6.6.t.t.t.&.&.&.&.&.N N P P P P P Y q.q.q.q.q.q.q.q.#.#.=.=.t.t.&.&.t.t.P P w w ",
"q q w w w w w w w w Z Z O.O.&.&.t.t.t.t.q.q.6.6.6.6.7.7.h.h.h.h.k.k.k.k.k.k.h.h.6.6.t.t.t.t.&.&.&.&.N N P P P P P Y q.q.q.q.q.q.q.q.#.#.=.=.t.t.&.&.t.t.P P w w ",
"6 6 9 9 w w w w w w w w l l #.#.t.t.t.t.2.2.>.>.e e e e e e e e e e r r r r e e e e w w O.O.t.t.q q q q q q i i T T P P Y Y q.q.q.q.q.q.8.8.O.O.&.&.q q 6 6 6 6 ",
"6 6 9 9 w w w w w w w w l l #.#.t.t.t.t.2.2.>.>.e e e e e e e e e e r r r r e e e e w w O.O.t.t.q q q q q q i i T T P P Y Y q.q.q.q.q.q.8.8.O.O.&.&.q q 6 6 6 6 ",
"< < < 6 < < 6 < 6 6 6 6 6 6 9 9 t.t.w w e e 0 0 0 0 0 0 0 0 0 0 0 0 0 0 0 0 0 0 0 0 0 0 T T O.O.2 2 2 2 2 2 2 2 q q q q i i Z Z Z Z Z Z z z i i &.t.< < > > > > ",
"< < < < < < 6 6 6 6 6 6 6 6 9 9 t.t.w w 0 e 0 0 0 0 0 0 0 0 0 0 0 0 0 0 0 0 0 0 0 0 0 0 T T O.O.2 2 2 2 2 2 2 2 q q q q i i Z Z Z Z Z Z z z i i &.t.< < > > > > ",
"< < - - - - - - - - - - = = = = t.t.6 6 5 5 ; 5 5 6 ; ; ; ; ; ; ; ; ; ; ; ; ; ; ; ; ; ; i i t.t.: : : : : : : : : : : : : : : : = * : : * * * * t.t.& & & & & & ",
"< < - - - - - - - - - - = = = = t.t.6 6 5 5 ; ; 5 6 ; ; ; ; ; ; ; ; ; ; ; ; ; ; ; ; ; ; i i t.t.: : : : : : : : : : : : : : : : : : : : * * * * t.t.& & & & & & ",
"- - = = = = = = = = & & & & q q t.t./ / = = = = = = = = = = = = = = = = = = = = & & & & O.O.O.O., , $ $ $ $ $ $ $ $ $ $ $ $ $ $ $ $ $ $ # # 1 1 t.t.$ $ O O @ @ ",
"- - = = = = = = = = & & & & q q t.t./ / = = = = = = = = = = = = & = = = = = = = & & & & / / O.O., , $ $ $ $ $ $ $ $ $ $ $ $ $ $ $ $ $ $ # # 1 1 t.t.$ $ O O @ @ ",
"> > - - = = = = = = > > q q &.&.t.t.&.&.q u = - = = & & = = = = & & & & & & & & & & i u O.O.O.O./ / : : $ $ # # $ $ $ $ # # # # $ $ : : 2 2 / / t.t./ / , , @ @ ",
"> > - - = = = = = = > > q q _ &.t.t.&.&.u u = - = = = & = = = = & & & & & & & & & & i i O.O.O.O./ / : : $ $ # # $ $ $ $ # # # # $ $ : : 2 2 / / t.t./ / , , @ @ ",
"/ / W W W W W W W W W W O.O.&.O.&.&.t.&.t.t.O.O.G G ~ G / / N N T G 1 2 : : * * : : , , 3 3 u u N N / / W W c W N N c c c c c c W W / / / / t.t.t.t.t.t.r.r./ / ",
"/ / W W W W W W W W W W O.O.O.O.&.&.t.&.t.t.O.O.G G O.O./ ~ N N T T 1 1 : : * * : : , , 3 3 u u N N / / W W c W N N c c c c N c W W / / / / t.t.t.t.t.t.t.t./ / ",
"t.t.&.&.&.&.t.t.t.t.O.O.O.O.O.O.O.O.O.O.&.t.t.t.t.t.t.t.&.&.: :         o o + + + + + + + + + + * * 1 1 N N / / t.t.t.t.t.t.t.t.t.t.t.t.t.t.i i z z z z S S P P ",
"t.t.&.&.&.&.t.t.t.t.O.O.O.O.O.O.O.O.O.O.&.t.t.t.t.t.t.t.&.&.: :         o o + + + + + + + + + + * * 1 1 N N / / t.t.t.t.t.t.t.t.t.t.t.t.t.t.i i z z z z S S P P ",
"w w w w Z Z t.t._ _ q 3 q q q q i i i i x x T T t.t.W W $ $         + + + + + + + + + + + + + + + + + + = = S S S S s.s.t.t.t.t.t.t.G G e e e e r r 2.2.2.2.2.2.",
"w w w w Z Z t.t._ _ q 3 q q q q i i i i x i T T t.t.W W $ $         + + + + + + + + + + + + + + + + + + = = S S S S s.s.t.t.t.t.t.t.G G e e e e r r <.2.2.2.2.2.",
"0 0 0 0 0 0 O.O.3 3 2 2 2 2 2 2 2 2 2 2 2 2 2 2 u u + +         + + + + o o o X X X o o + + + + + + + + + + > > w w 9 9 #.#.t.t.O.O.0 0 0 0 0 0 0 0 0 0 0 0 e e ",
"0 0 0 0 0 0 O.O.q q 2 2 2 2 2 2 2 2 2 2 2 2 2 2 u u + +         + + + + o o . . X X o o + + + + + + + + + + > > w w 9 9 #.#.t.t.O.O.0 0 0 0 0 0 0 0 0 0 0 0 e e ",
"7 7 7 7 7 7 O.O.2 2 2 2 2 2 2 2 2 2 2 2 2 2 2 2 $ $         + + + +                         o o + + + + + + $ $ < < > > w w t.t.O.O.0 0 0 0 0 0 0 0 0 0 0 0 0 0 ",
"7 7 7 7 7 7 O.O.2 2 2 2 2 2 2 2 2 2 2 2 2 2 2 2 $ $         + + + +                         o o + + + + + + $ $ < < > > w w t.t.O.O.0 0 0 0 0 0 0 0 0 0 0 0 0 0 ",
"6 6 6 6 6 6 O.O.: : = = : : = = = = = = * * * *             o o         $ $ & & & & @ @         o o + + + + + + $ $ & & i i t.t.N N - - - - - - ; ; ; ; ; ; 6 6 ",
"6 6 6 6 6 6 O.O.: : = = : : = = = = = = * = * *             o o         $ $ & & & & @ @         o o + + + + + + $ $ & & i i t.t.N N - - - - - - ; - ; ; ; ; 6 6 ",
"6 6 6 6 < < O.O.= = * * * * * * $ $ $ $ $ $ $ $                     o o @ @ @ @ @ @ @ @             + + + + + + o o @ @ W W t.t.O.O.1 1 @ @ @ @ % % @ @ % % & & ",
"6 6 6 6 < < O.O.= = * * * * * * $ $ $ $ $ $ $ $                     o o @ @ @ @ @ @ @ @             + + + + + + o o @ @ W W t.t.O.O.1 1 @ @ @ @ % % @ @ % % & & ",
"7 7 6 6 x x t.t.y y : : * * * * $ $ * * : : , ,                     @ @ @ @ @ @ @ @ @ @ o o         + + + + + + + + u u N N N N t.t./ / 3 3 = = & & & & % % = = ",
"7 7 6 6 x x t.t.y y : : * * * * $ $ * * : : , ,                     @ @ @ @ @ @ @ @ @ @ o o         + + + + + + + + u u N N N N t.t./ / 3 3 = = & & & & % % = = ",
"O.O.T T t.t.t.t.t.t./ / c c c c c c R R / / &.&., , . . o o * * 3 3 u u u u q q u u u u * *         + + + + + + * * O.O.i i i i O.O.t.t.t.t.t.t.&.&.&.&.O.O.O.O.",
"O.O.T T t.t.t.t.t.t./ / c c c c c c R R / / &.&., , . . o o * * 3 3 u u u u q q u u u u * *         + + + + + + * * O.O.i i i i O.O.t.t.t.t.t.t.t.&.&.&.O.O.O.O.",
"i i t.t.t.t.t.t.t.t.z z w w w w 0 0 0 0 0 0 0 0 q q 2 2 3 3 / / &.&.t.t.t.t.t.t.t.t.4 4 o o     + o + + + +     * * 1 1 q q i i N N t.t.3 3 2 2 q q q q i i i i ",
"i i t.t.t.t.t.t.t.t.z z w w w w 0 0 0 0 0 0 0 0 q q 2 2 3 3 / / &.&.t.t.t.t.t.t.t.t.4 4 o o     + + + + + +     * * 1 1 q q i i N N t.t.3 3 2 2 q q q q i i i i ",
"< < / / t.t.t.t.S S w w e e r r e e e e e e e e 0 0 0 0 0 0 9 9 Z Z &.O.t.t.W W 3 3 * *     o o + + + o         2 2 2 2 3 3 N N N N N N < < 6 6 6 6 w w w w ;.;.",
"< < / / t.t.t.t.S S w w e e r r e e e e e e e e 0 0 0 0 7 7 7 7 Z Z &.O.t.t.W W 3 3 * *     o o + + o o         2 2 2 2 3 3 N N N N N N < < 6 6 6 6 w w w w ;.;.",
"< < 8 8 t.t.t.t.0 0 0 0 e e e e e e e e e e e e e e e e e e 0 0 6 6 * * * * + + . .     o o + + + + X X     $ $ q q q q q q i i N N 6 6 < < < < < < 6 6 6 6 9 9 ",
"< < 8 8 t.t.t.t.0 0 0 0 e e e e e e e e e e e e e e e e e e 0 0 6 6 * * * * + + .       o o + + + + X X     $ $ q q q q q q i i N N 6 6 < < < < < < 6 6 6 6 9 9 ",
"> > > > t.t.t.t.0 0 7 7 7 7 7 7 0 0 w w 0 0 0 0 0 0 0 0 0 0 6 6 . .             X X + + + + + + + +     + + 2 2 2 2 2 2 2 2 u u O.O.6 6 < < < < < < < < < < < < ",
"> > > > t.t.t.t.0 7 7 7 7 7 7 7 0 0 0 w 0 0 0 0 0 0 0 0 0 0 6 6 . .             X X + + + + + + + +     + + 2 2 2 2 2 2 2 2 u u O.O.< 6 < < < < < < < < < < < < ",
"- - - - t.t.Q Q 6 6 6 6 6 6 6 6 6 6 6 6 6 6 6 6 6 6 6 6 6 6 - -             o o X X o o o o + + + + + + * * : : , , 2 2 2 2 / / t.t.2 2 - - - - = = = = & & $ $ ",
"- - - - t.t.Q Q 6 6 6 6 6 6 6 6 6 6 6 6 6 6 6 6 6 6 6 6 6 6 - =             o o X X o o o o + + + + + + * * : : , , 2 2 2 2 / / t.t.2 2 - - - - = = = = & & $ $ ",
"> > u u t.t.N N 8 8 ; ; ; ; - - - - = - = = = = = = = = = & & &                                 + + + + # $ $ $ $ $ : : 2 1 &.&.t.t.N N = = @ @ @ @ @ @ O O @ @ ",
"> > u u t.t.N N 8 8 ; ; ; ; - - - - = - = = = = = = = = & & & &                                 + + + + $ $ $ $ $ $ : : 2 1 &.&.t.t.N N = = @ @ @ @ @ O O O @ @ ",
"i i t.t.t.t.O.O.T T q q q q 8 8 q q q q q q q q q q q q q q 2 2 $ $ * * * * o o                     + + * * 2 2 3 3 u u t.t.t.t.&.&.t.t.N N 2 2 2 1 2 2 2 2 2 2 ",
"i i t.t.t.t.O.O.T T q q q q 8 8 q q q q q q q q q q q q q q 2 2 $ $ * * * * o o                     + + * * 2 2 3 3 u u t.t.t.t.&.&.t.t.N N 2 2 1 1 2 2 2 2 2 2 ",
"t.t.t.t.t.t.O.O.O.O.&.&.&.&.t.t.t.t.t.t.t.t.t.t.t.t.t.t.&.&.&.&.c c / / / / c ~ 4 4 * *             . . + + 4 4 t.t.t.t.t.t.t.t.t.t.t.t.t.t.t.t.t.t.t.t.t.t.t.t.",
"t.t.t.t.t.t.O.O./ / &.&.&.&.t.t.t.t.t.t.t.t.t.t.t.t.t.t.&.&.&.&.c c / / / / c N 4 4 * *             . . + + 4 4 t.t.t.t.t.t.t.t.t.t.t.t.t.t.t.t.t.t.t.t.t.t.t.t.",
"T T T T z z q q q q x x t.t.t.t._ _ y y u u y y y y u u u u / W t.t.t.t.t.t.c c 3 3 3 3 : :             + + * * N N T T T T N N N N / / r.t.t.t.t.t.T T i i T T ",
"T T T T z z q q q q x x t.t.t.t./ / y y u u y y y y u u u u W W t.t.t.t.t.t.N c 3 3 3 3 : :             + + * * N N T N T T N N N N / / t.t.t.t.t.t.T T i i T T ",
"p.p.h.h.p.p.7.7.>.,.z z O.O.O.O.q q 2 2 2 2 2 2 2 2 2 2 2 2 3 3 N N t.t./ / 8 8 6 6 6 6 0 0 $ $         + + + + 6 6 ;.e w w w w 9 9 0 0 N N &.t.O.O.0 0 0 0 0 0 ",
"p.p.p.p.p.p.7.7.>.>.z z O.O.O.O.q q 2 2 2 2 2 2 2 2 2 2 2 2 3 3 N N t.t./ / 8 8 6 6 6 6 0 0 $ $         + + + + 6 6 ;.e w w w w 9 9 0 0 N N &.&.O.O.0 0 0 0 0 0 ",
"h.h.z.z.z.z.z.z.z.z.6.6.&.&.T T q q 8 8 2 2 2 2 2 2 2 2 = = = = 1 1 t.t.8 8 < < 6 < 6 6 6 6 = =         + + + + * * 6 6 6 6 6 6 < < < < 6 6 t.t.w w 0 0 0 0 0 0 ",
"h.h.z.z.z.z.z.z.z.z.6.6.&.&.T T q q 8 8 2 2 2 2 2 2 2 2 : = = = 1 1 t.t.8 8 < < 6 < 6 6 6 6 = =         + + + + * * 6 6 6 6 6 6 < < < < 6 6 t.t.w w 0 0 0 0 0 0 ",
"e e r r r r r r r r r r t.t.u u 2 2 2 2 2 2 2 2 = =         + + = = t.t.6 6 < < < < < < < < = =         + + + + $ $ < < < < < < > > > > - - t.t.0 0 0 0 0 0 0 0 ",
"e e r r r r r r r r r r t.t.u u 2 2 2 2 2 2 2 2 = =         + + = = t.t.6 6 < < < < < < 6 6 = =         + + + + $ $ < < < < < < > > > > - - t.t.0 0 0 0 0 0 0 0 ",
"6 6 7 7 7 7 7 7 7 7 7 7 t.t., , * * * * : : : :         o o + + + + t.t., , = = = = = = & & + +     o o + + + + + + @ @ @ @ @ @ O O O O = = t.t.6 6 0 0 0 0 0 0 ",
"6 6 7 7 7 7 7 7 7 7 7 7 t.t., , * * * * : : : :         o o + + + + t.t., , = = = = = = & & + +     o o + + + + + + @ @ @ @ @ @ O O O O = = t.t.6 6 0 0 0 0 0 0 ",
"; ; - - - - - - - - q q t.t.u u $ $ $ $ $ $ + +         o o + + $ $ O./ 3 3 & & @ @ @ @ o o     X X + + + + + + + + o o o o o o o o @ @ N N O.O.u u w w 0 0 0 0 ",
"; ; - - - - - - - - q q t.t.u u $ $ $ $ $ $ + +         o o + + $ $ O./ 3 3 & & @ @ @ @ o o     X X + + + + + + + + o o o o o o o o @ @ N N O.O.u u w w 0 0 0 0 ",
"< < < < < < < < < < &.&.&.&.t.t.4 4 , , , , * *             + + + + * = 1 2 2 2 , , $ $ X X o o + + + + + + + + $ $ = = : : , , , , 3 3 i i i i i i i i w w w w ",
"< < < < < < < < < < &.&.&.&.t.t.4 4 , , , , * *             + + + + * = 2 2 2 2 , , $ $ X X o o + + + + + + + + $ $ = = : : , , , , 3 3 i i i i i i i i w w w w ",
"/ / &.&.&.&.O.O.N N O.O.t.t.t.t.t.t.t.t.t.t.c N             o o + + + + + + + + + + + + + + + + + + + + + + + + N N O.O.O.O.T T T T T T i i q q q q i i i i i i ",
"/ / &.&.&.&.O.O.N N O.O.t.t.t.t.t.t.t.t.t.t.c c             o X + + + + + + + + + + + + + + + + + + + + + + + + c N O.O.O.O.T T T T T T i i q q q q i i i i i i ",
"q q q q O.O.O.O.x N O.O.&.&.&.&.&.&.&.&./ / / / , ,             . . + + + + + + + + + + + + + + + + + + o o 2 2 t.t.t.t.t.t.t.t.t.t.t.t.T T z z z z z z z z z z ",
"q q q q O.O.O.O.x x O.O.&.&.&.&.&.&.&.&./ O./ / , ,             . . + + + + + + + + + + + + + + + + + + o o 2 2 t.t.t.t.t.t.t.t.t.t.t.t.T T z z z z z z z z z z ",
"< < > > > > N N x x / / W W N N W W Q Q Q O.Q O.N N $ $                 . . o o X X X X             + + < < ,.,.,.,.,.,.t.t.t.t.O.O.6 6 6 6 6 6 6 6 6 6 6 6 9 9 ",
"< < > > > > N N x N / / W W N N W W Q Q Q Q Q O.N N $ $                 . . o o X X X X             + + < < ,.,.,.,.,.,.t.t.t.t.O.O.6 6 6 6 6 6 6 6 6 6 6 6 9 9 ",
"w w w w 9 9 6 6 O.O.N N z z P P 8.8.q.q.s.s.d.d.d.d.Y Y = = o o                     . . O O ; ; w w >.>.p.p.6.6.7.7.2.2.,.,.t.t.q w 6 6 6 6 6 6 6 6 9 9 9 9 0 0 ",
"w w w w 9 9 6 6 O.O.N N z V P P 8.8.q.q.s.s.d.d.d.d.P Y = = o o                     . . O O ; ; w w >.>.p.p.6.6.7.7.2.2.,.,.t.t.q w 6 6 6 6 6 6 6 6 9 9 9 9 0 0 ",
">.>.,.,.l w 6 6 t.t.3 3 q q i i i i z z P T T T T T Z Z i i q q 8 8 1 1 2 2 2 2 &.&.0 0 e e e e r r >.>.>.>.>.>.r r r r e e &.&.6 6 < < < < < < < < < < 6 6 6 6 ",
">.>.,.,.l w 6 6 t.t.3 3 q q q q i i z z P P T T T T Z Z i i q q 8 8 1 1 2 2 2 2 &.&.0 0 e e e e r r >.>.>.>.>.>.r r r r e e &.&.6 6 < < < < < < < < < < < 6 6 6 ",
"w w w w 6 6 = = / / 2 2 * * * * : : 2 2 2 2 2 2 2 2 2 2 2 2 2 2 2 2 2 2 2 2 2 2 &.&.0 0 0 0 0 0 0 0 0 0 0 0 0 0 0 0 7 7 7 7 O.O.- - = = = = = = = = > > < < < < ",
"w w w w 6 6 = = / / 2 2 $ $ * * : : 2 2 2 2 2 2 2 2 2 2 2 2 2 2 2 2 2 2 2 2 2 2 &.&.0 0 0 0 0 0 0 0 0 0 0 0 0 0 0 0 7 7 7 7 O.O.- - = = = = = = = = > > < > < < ",
"> > > > = = = = t.t.2 2 $ $ $ $ $ $ $ $ $ $ $ $ * * : : , , , , 2 2 , , = : * * t.t.> > & & % % @ @ @ @ @ @ @ @ O O O O O O t.t.o o o o o o o o o o @ @ = = > > ",
"> > > > = = = = t.t.2 2 $ $ $ $ $ $ $ $ $ $ $ $ * * : : , , , , 2 2 , , = : * * t.t.> > & & % % @ @ @ @ @ @ @ @ O O O O O O t.t.o o o o o o o o o o @ @ = = > > ",
"> > - - = = c c t.t.c c 2 2 * * $ $ $ $ $ $ $ $ $ $ $ $ # # + + + + + + + + W W O.O.O.O.$ $ O O O O O O @ @ @ @ $ $ & & N N t.t./ / : : @ @ o o o o o o @ @ - - ",
"> > - - = = c c t.t.c c 2 2 * * $ $ $ $ $ $ $ $ $ $ $ $ # # @ + + + + + + + N W O.O.O.O.$ $ O O O O O O @ @ @ @ $ $ & & N N t.t./ / : : @ @ o o o o o o @ @ - - ",
"q q i i &.O.t.t.t.t.t.t./ / c c 4 4 4 4 4 4 4 4 4 4 4 4 u u u 4 4 4 4 4 y y O.O.O.O.O.O.O.O.O.O.N N O.O.O.O.O.O.O.O.&.&.t.t.t.t.t.t./ / N W c c 4 4 2 2 2 2 q q ",
"q q i i &.O.t.t.t.t.t.t./ / c c 4 4 4 4 4 4 4 4 4 4 4 4 u u 4 4 4 4 4 4 y y O.O.O.O.O.O.O.O.O.O.N N O.O.O.O.O.O.O.O.&.&.t.t.t.t.t.t./ / N W c c 4 4 2 2 2 2 q q "
};
