/* XPM */
static const char *nb_4[] = {
/* columns rows colors chars-per-pixel */
"80 80 140 2 ",
"   c #1C130B",
".  c #21170F",
"X  c #21180F",
"o  c #251511",
"O  c #281713",
"+  c #251C14",
"@  c #2B1A15",
"#  c #271A18",
"$  c #2B1D1A",
"%  c #311D17",
"&  c #321E19",
"*  c #2D211C",
"=  c #34211C",
"-  c #3B241E",
";  c #2F2620",
":  c #322521",
">  c #3C2620",
",  c #342924",
"<  c #3D2923",
"1  c #372C29",
"2  c #3C2D29",
"3  c #3E312D",
"4  c #3E3431",
"5  c #40271F",
"6  c #422B24",
"7  c #492E25",
"8  c #442E29",
"9  c #4C3027",
"0  c #43322D",
"q  c #4C332B",
"w  c #52362C",
"e  c #55382F",
"r  c #443631",
"t  c #4B3731",
"y  c #483732",
"u  c #493732",
"i  c #4F3630",
"p  c #493731",
"a  c #473833",
"s  c #433A37",
"d  c #473934",
"f  c #453A36",
"g  c #443A37",
"h  c #473A36",
"j  c #463B37",
"k  c #453936",
"l  c #493833",
"z  c #483933",
"x  c #4B3832",
"c  c #4A3833",
"v  c #4C3833",
"b  c #4B3834",
"n  c #4B3935",
"m  c #483A37",
"M  c #483B37",
"N  c #4A3B36",
"B  c #4D3934",
"V  c #4C3A34",
"C  c #4D3A35",
"Z  c #4D3B36",
"A  c #4F3B36",
"S  c #4B3C37",
"D  c #4F3C37",
"F  c #4A3A35",
"G  c #443B38",
"H  c #453B38",
"J  c #463B38",
"K  c #473B38",
"L  c #453C39",
"P  c #473C38",
"I  c #463C39",
"U  c #473D39",
"Y  c #473D3A",
"T  c #473E3B",
"R  c #473F3C",
"E  c #463D39",
"W  c #483C38",
"Q  c #483C39",
"!  c #483D39",
"~  c #493D39",
"^  c #4A3C38",
"/  c #4A3D39",
"(  c #483D3A",
")  c #493D3A",
"_  c #483E3A",
"`  c #483E3B",
"'  c #493F3B",
"]  c #4B3E3A",
"[  c #4C3D38",
"{  c #4D3D38",
"}  c #4F3F3A",
"|  c #483F3C",
" . c #493F3C",
".. c #4C3F3C",
"X. c #4D3F3C",
"o. c #483E3A",
"O. c #503730",
"+. c #513831",
"@. c #523831",
"#. c #533932",
"$. c #503A33",
"%. c #563930",
"&. c #543A33",
"*. c #513A34",
"=. c #543B35",
"-. c #543D36",
";. c #563D36",
":. c #573D36",
">. c #533A32",
",. c #583B31",
"<. c #593C33",
"1. c #5A3C33",
"2. c #5A3D33",
"3. c #5B3E35",
"4. c #583E37",
"5. c #5A3E36",
"6. c #5B3E34",
"7. c #513D38",
"8. c #503E38",
"9. c #513E39",
"0. c #503F39",
"q. c #523E39",
"w. c #49403C",
"e. c #48403D",
"r. c #49403D",
"t. c #4B403C",
"y. c #4A403D",
"u. c #4B413E",
"i. c #49403D",
"p. c #5D4036",
"a. c #5F4137",
"s. c #53403A",
"d. c #55413B",
"f. c #5E4138",
"g. c #5F4239",
"h. c #5F4339",
"j. c #5F4138",
"k. c #61453B",
"l. c #62453B",
"z. c #614339",
/* pixels */
"r.r.r.r.| | | | | | | | | | | | ' ' ' ' ' ' ' ' ' ' ' ' ' ' ' ' ' ' ' ' ' ' ' ' ' ' ' ' ' ' ' ' ' ' ' ' ' ' ' ' ' ' ' ' ' ' | | | | | | ' ' ' ' ' ' ' ' ' ' ' ' ",
"r.r.r.r.| | | | | | | | | | ' ' ' ' ' ' ' ' ' ' ' ' ' ' ' ' ' ' ' ' ' ' ' ' ' ' ' ' ' ' ' ' ' ' ' ' ' ' ' ' ' ' ' ' ' ' ' ' | | | | | | ' ' ' ' ' ' ' ' ' ' U ' ",
"0 0 q q q q q q q q c c ' ' | | r.r.r.r.0.0.5.5.5.5.p.3.h.h.h.h.k.k.k.k.k.k.h.h.5.5.r.r.r.| | | | | j j Z Z Z Z D D 0.0.0.0.0.0.0.0.[ [ X.X.r.r.| | r.r.Z Z q q ",
"0 0 q q q q q q q q c c ' ' | | r.r.r.r.0.0.5.5.5.5.3.3.h.h.h.h.k.k.k.k.k.k.h.h.5.5.r.r.r.| | | | | j j F F Z Z D D 0.0.0.0.0.0.0.0.[ [ X.X.r.r.| | r.r.Z Z q q ",
"6 6 8 8 q q q q q q q q i i [ [ r.r.r.r.1.1.%.%.w w w w w w w w w w e e e e w w w w q q ' ' r.r.0 0 0 0 0 0 r r F F Z Z D D 0.0.0.0.0.0.*.*.' ' | | 0 0 6 6 6 6 ",
"6 6 8 8 q q q q q q q q i i [ [ r.r.r.r.1.1.%.%.w w w w w w w w w w e e e e w w w w q q ' ' r.r.0 0 0 0 0 0 r r F F Z Z D D 0.0.0.0.0.0.*.7.' ' | | 0 0 6 6 6 6 ",
"< < < 6 < < 6 6 6 6 6 6 6 6 8 8 r.r.q q w w 9 9 9 9 9 9 9 9 9 9 9 9 9 9 9 9 9 9 9 9 9 9 F F ' ' 2 2 2 2 2 2 2 2 0 0 0 0 r r c c c c c c p p r r | r.< < > > > > ",
"< < < < < < 6 6 6 6 6 6 6 6 8 8 r.r.q q 9 w 9 9 9 9 9 9 9 9 9 9 9 9 9 9 9 9 9 9 9 9 9 9 F F ' ' 2 2 2 2 2 2 2 2 0 0 0 0 r r c c c c c c p p r r | r.< < > > > > ",
"< < - - - - - - - - - - = = = = r.r.6 6 5 5 - 5 6 6 - - - - - - - - - - - - - - - - - - r r r.r.: : : : : : : : : : : : : : : : = * : : * * * * r.r.& & & & & & ",
"< < - - - - - - - - - - = = = = r.r.6 6 5 5 - - 5 6 - - - - - - - - - - - - - - - - - - r r r.r.: : : : : : : : : : : : : : : : : : : : * * * * r.r.& & & & & & ",
"- - = = = = = = = = & & & & 0 0 r.r.U U = = = = = = = = = = = = = = = = = = = = & & = = ' U | | , , $ $ $ $ $ $ $ $ $ $ $ $ $ $ $ $ $ $ # # 1 1 r.r.$ $ O O @ @ ",
"- - = = = = = = = = & & & & 0 0 r.r.U U = = = = = = = = = = = = = = = = = = = = & & = = ' ' | | , , $ $ $ $ $ $ $ $ $ $ $ $ $ $ $ $ $ $ # # 1 1 r.r.$ $ O O @ @ ",
"> > - - = = = = = = > > 0 0 | | r.r.| | r r = = = = = = = = = = & & & & % % % % & & r r ' ' ' ' U U : : $ $ # $ $ $ $ $ # # # # $ $ : : 2 2 U U r.r.U U , , @ @ ",
"> > - - = = = = = = > > 0 0 R | r.r.| | r r = = = = = = = = = = & & & & % % % % & & r r U ' ' ' U U : : $ $ # # $ $ $ $ # # # # $ $ : : 2 2 U U r.r.U U , , @ @ ",
"U U J J J J J J J J J J ' ' ' ' | | r.r.r.r.' ' M M M M U U j j ' M + +         2 2 ' ' U ' F F j j U U J J s s j j s s s s s s J J U U U U r.r.r.r.r.r.r.r.U U ",
"U U J J J J J J J J J J ' ' ' ' | | r.| r.r.' ' M M M M U U j j ' ' + +         2 2 ' ' U U F F j j U U J J s J j j s s s s s s J J U U U U r.r.r.r.r.r.r.r.U U ",
"r.r.| | | | r.r.r.r.' ' ' ' ' ' ' ' ' ' | r.r.r.r.r.r.r.r.r.r.r.* *             * * r r r r r r 0 0 r r J J ' ' r.r.r.r.r.r.r.r.r.r.r.r.r.r.r r p p p p B B B Z ",
"r.r.| | | | r.r.r.r.' ' ' ' ' ' ' ' ' ' | | r.r.r.r.r.r.r.r.r.r.* *             * * r r r r r r 0 0 r r J J ' ' r.r.r.r.r.r.r.r.r.r.r.r.r.r.r r p p p p B B Z Z ",
"q q q q c c r.r.R R 0 3 0 0 0 0 r r r r a a F F r.r.r.r.X.X.2 2             # # * * *.*.:.:.:.:.:.:.:.:.:.:.*.*.B #.s.s.r.r.r.r.r.r.M M w w w w e e ,.,.1.1.1.1.",
"q q q q c c r.r.R R 0 3 0 0 0 0 r r r r a r F F r.r.r.r.X.X.2 2             # # * * *.*.:.:.:.:.:.:.:.:.:.:.*.*.B #.s.s.r.r.r.r.r.r.M M w w w w e e ,.,.1.1.1.1.",
"9 9 9 9 9 9 ' ' 3 3 2 2 2 2 2 2 2 2 2 2 2 2 2 2 r r r.r.6 6             # # # # = = #.#.#.#.%.%.%.%.#.#.#.#.q q q q 8 8 [ [ r.r.' ' 9 9 9 9 9 9 9 9 9 9 9 9 w w ",
"9 9 9 9 9 9 ' ' 3 0 2 2 2 2 2 2 2 2 2 2 2 2 2 2 r r r.r.6 6             # # # # = = #.#.#.#.%.%.%.%.#.#.#.#.q q q q 8 8 [ [ r.r.' ' 9 9 9 9 9 9 9 9 9 9 9 9 w w ",
"7 7 7 7 7 7 ' ' 2 2 2 2 2 2 2 2 2 2 2 2 2 2 2 2 2 2 c c . .         o o # # # # - - 6 6 6 6 6 6 6 6 6 6 6 6 < < < < > > q q r.r.' ' 9 9 9 9 9 9 9 9 9 9 9 9 9 9 ",
"7 7 7 7 7 7 ' ' 2 2 2 2 2 2 2 2 2 2 2 2 2 2 2 2 2 2 c c . .         o o # # # # - - 6 6 6 6 6 6 6 6 6 6 6 6 < < < < > > q q r.r.' ' 9 9 9 9 9 9 9 9 9 9 9 9 9 9 ",
"6 6 6 6 6 6 ' ' : : = = : : = = = = = = : : : = : : * *         o o # # # # * * = = = = = = = = = = = = = = = = & & & & r r r.r.j j - - - - - - - - - - - - 6 6 ",
"6 6 6 6 6 6 ' ' : : = = : : = = = = = = * * : : : : * *         o o # # # # * * = = = = = = = = = = = = = = = = & & & & r r r.r.j j - - - - - - - - - - - - 6 6 ",
"6 6 6 6 < < ' ' = = * * * * * * $ $ $ $ $ * $ $ # #             # # # # # # O O @ @ O O @ @ @ @ O O O O O O o o O O @ @ J J r.r.' ' 2 2 @ @ @ @ % % @ @ % % & & ",
"6 6 6 6 < < ' ' = = * * * * * * $ $ $ $ $ $ $ $ # #             # # # # # # O O @ @ O O @ @ @ @ O O O O O O o o O O @ @ J J r.r.' ' 2 2 @ @ @ @ % % @ @ % % & & ",
"7 7 6 6 a a r.r.r r : : * * * * $ $ * * : : , ,             # # # # # # @ @ @ @ . . X . # # + + $ $ $ $ = = : : : : r r j j j j r.r.U U 3 3 - - & & & & % % = = ",
"7 7 6 6 a a r.r.r r : : * * * * $ $ * * : : , ,             # # # # # # @ @ @ @ . . X X # # + + $ $ $ $ = = : : : : r r j j j j r.r.U U 3 3 - - & & & & % % = = ",
"' ' F F r.r.r.r.r.r.U U s s s s s s G G U U : :         o o # # # # 2 2 r 0 , ,         # # + + 3 3 4 4 r r j j J J ' ' r r r r U ' r.r.r.r.r.r.r.r.r.r.' ' ' ' ",
"' ' F F r.r.r.r.r.r.U U s s s s s s G G U U : :         o o # # # # 2 2 r 0 , ,         # # + + 3 3 4 4 r r j j J J ' ' r r r r U U r.r.r.r.r.r.r.| r.r.' ' ' ' ",
"r r r.r.r.r.r.r.r.r.p p q q q q q q 9 9 2 2             # # # # * * r.r.r.r.            # # # # 1 1 1 1 1 1 1 1 2 2 1 1 0 0 r r j j r.r.3 3 2 2 0 0 0 0 r r p r ",
"r r r.r.r.r.r.r.r.r.p p q q q q q q 9 9 2 2             # # # # * * r.r.r.r.            # # # # 1 1 1 1 1 1 1 1 2 2 1 1 0 0 r r j j r.r.3 3 2 2 0 0 0 0 r r r r ",
"< < U U r.r.r.r.B B w q w w w w w w w w @ @         + + # # # # a a w.w.r.r.            # # # # 2 2 2 2 2 2 2 2 2 2 2 2 3 3 j j j j j j < < 6 6 6 6 q q q q O.O.",
"< < U U r.r.r.r.B B w w w w w w w w w w @ @         + + # # # # a a w.w.r.r.            # # # # 2 2 2 2 2 2 2 2 2 2 2 2 3 3 j j j j j j < < 6 6 6 6 q q q q O.O.",
"< < 8 8 r.r.r.r.9 9 9 9 w w w w w w 9 9         o o # # # # - - q q ' ' r.r.            + + # # 2 2 2 2 2 2 2 2 0 0 0 0 0 0 r r j j 6 6 < < < < < < 6 6 6 6 8 8 ",
"< < 8 8 r.r.r.r.9 9 9 9 w w w w w w 9 9         o o # # # # - - q q ' ' r.r.            + + # * 2 2 2 2 2 2 2 2 0 0 0 0 0 0 r r j j 6 6 < < < < < < 6 6 6 6 8 8 ",
"> > > > r.r.r.r.9 7 7 7 9 9 9 9 9 9 . .         # # # # # # - - - - , , * *         + + + # # # # # # # # # # # : = 2 2 2 2 r r ' ' < < < < < < < < < < < < < < ",
"> > > > r.r.r.r.9 7 7 7 9 9 9 9 9 9 . .         # # # # # # - - - - , , * *         + + # # # # # # # # # # # # = = 2 2 2 2 r r ' ' < < < < < < < < < < < < < < ",
"- - - - r.r.K K 6 6 6 6 6 6 6 6 - -             # # # # # # # # # # # # # # + + # # # # # # # # # # # # # # # # # # # # * * w.w.r.r.2 2 - - - - = = = = & & $ $ ",
"- - - - r.r.J J 6 6 6 6 6 6 6 6 - -             # # # # # # # # # # # # # # + + # # # # # # # # # # # # # # # # # # # + * * w.w.r.r.2 2 - - - - = = = = & & $ $ ",
"> > r r r.r.j j 8 8 - - - - - - = %             o o # # + + # # + + # # # # # # # # # # # # # # # # + + + + + + o o o o + + s s r.r.j j - - @ @ @ @ @ @ O O @ @ ",
"> > r r r.r.j j 8 8 - - - - - - = %             o o # # + + # # + + + + # # # # # # # # # # # # # # + + + + + + o o o o + + s s r.r.j j - - @ @ @ @ @ O O O @ @ ",
"r r r.r.r.r.' ' F F 0 0 0 0 8 8 2 2                                             o o # # # # # # o o                         4 4 | | r.r.j j 2 2 2 2 2 2 2 2 2 2 ",
"r r r.r.r.r.' ' F F 0 0 0 0 8 0 2 2                                             o o # # # # # # o o                         4 4 | | r.r.j j 2 2 1 1 2 2 2 2 2 2 ",
"r.r.r.r.r.r.' ' ' ' | | | | r.r.r.r.3 3 o o                                         o o # # + +                         ; ; r.r.r.r.r.r.r.r.r.r.r.r.r.r.r.r.r.r.",
"r.r.r.r.r.r.' ' ' ' | | | | r.r.r.r.3 3 o o                                         o o # # + +                         ; ; r.r.r.r.r.r.r.r.r.r.r.r.r.r.r.r.r.r.",
"F F F F p p 0 0 0 0 a a r.r.r.r.U R r r r r 2 2 : : , , , , 3 3 s s U U | R         X X # # * * * = : : , , , , 2 2 j j F F j j j j U U r.r.r.r.r.r.F F r r F F ",
"F F F F p p 0 0 0 0 a a r.r.r.r.U U r r r r 2 2 : : , , , , 3 3 s s U U | R         X X # # * * = = : : , , , , 2 2 j j F F j j j j U U r.r.r.r.r.r.F F r r F F ",
"p.p.p.p.p.p.3.3.%.&.p p ' ' ' ' 0 0 2 2 2 2 2 2 2 2 2 2 2 2 3 3 j j r.r.U U             # # * * q q q q w q O.O.O.O.w O.q q q q 8 8 9 9 j j | r.' ' 9 9 9 9 9 9 ",
"p.p.p.p.p.p.3.3.%.%.p p ' ' ' ' 0 0 2 2 2 2 2 2 2 2 2 2 2 2 3 3 j j r.r.U U             + # * * q q q q w w O.O.O.O.w O.q q q q 8 8 9 9 j j | | ' ' 9 9 9 9 9 9 ",
"h.h.z.z.z.z.z.z.z.z.5.5.| | F F 0 0 8 8 2 2 2 2 2 2 2 2 2 2 2 2 2 2 | | 8 8         . . # # + + 6 6 6 6 6 6 6 6 6 6 6 6 6 6 6 6 < < < < 6 6 r.r.q q 9 9 9 9 9 9 ",
"h.h.z.z.z.z.z.z.z.z.5.5.| | F F 0 0 8 8 2 2 2 2 2 2 2 2 2 2 2 2 2 2 | | 8 8         . . # # + + 6 6 6 6 6 6 6 6 6 6 6 6 6 6 6 6 < < < < 6 6 r.r.q q 9 9 9 9 9 9 ",
"w w e e e e e e e e e e r.r.r r 2 2 2 2 2 2 2 2 2 2 2 2 2 2 2 2 : : | | 6 6         . . # # * * < < 6 < < < < 6 6 6 < < < < < < > > > > - - r.r.9 9 9 9 9 9 9 9 ",
"w w e e e e e e e e e e r.r.r r 2 2 2 2 2 2 2 2 2 2 2 2 2 2 2 2 : : | | 6 6         . . # # * * < < 6 6 < < < < 6 6 < < < < < < > > > > - - r.r.9 9 9 9 9 9 9 9 ",
"6 6 7 7 7 7 7 7 7 7 7 7 r.r., , * * * * : : : : : : * * $ $ # # # # r.r.: :         . . # # + + & & & & $ $ $ $ $ $ @ @ @ @ @ @ O O O O = = r.r.6 6 9 9 9 9 9 9 ",
"6 6 7 7 7 6 7 7 7 7 7 7 r.r., , * * * * : : : : : : * * $ $ # # # # r.r.: :         . . # # + + & & & & $ $ $ $ $ $ @ @ @ @ @ @ O O O O = = r.r.6 6 9 9 9 9 9 9 ",
"- - - - - - - - - - 0 0 r.r.r r $ $ $ $ $ $ $ $ # # # # # # $ $ , , ' ' 3 3         . . # # # # o o o o o o o o o o o o o o o o o o @ @ j j ' ' r r q q 9 9 9 9 ",
"- - - - - - - - - - 0 0 r.r.r r $ $ $ $ $ $ $ $ # # # # # # $ $ , , ' ' 3 3         . . # # # # o o o o o o o o o o o o o o o o o o @ @ j j ' ' r r q q 9 9 9 9 ",
"< < < < < < < < < < | | | | r.r.4 4 , , , , , , : : : : : : 4 4 r.r.| | j j         X . # # # # $ $ * * = = = = * * = = : : : : : : 3 3 r r r r r r r r q q q q ",
"< < < < < < < < < < | | | | r.r.4 4 , , , , , , : : : : : : 4 4 r.r.| | j j         X . # # # # $ $ = * = = = = * * = = : : : : : : 3 3 r r r r r r r r q q q q ",
"U U | | | | ' ' j j ' ' r.r.r.r.r.r.r.r.r.r.r.r.r.r.r.r.r.r.r.r.r.r.r.r.' '         X X # # * * ' ' r.r.r.r.r.r.' ' ' ' ' ' F F F F F F r r 0 0 0 0 r r r r r r ",
"U U | | | | ' ' j j ' ' r.r.r.r.r.r.r.r.r.r.r.r.r.r.r.r.r.r.r.r.r.r.| | ' '         X X # # * * ' ' r.r.r.r.r.r.' ' ' ' ' ' F F F F F F r r 0 0 0 0 r r r r r r ",
"0 0 0 0 ' ' ' ' a j ' ' | | | | | | | | U U U U U ' U U U U U U U U U U | | # #     o o # # 2 1 r.r.r.r.r.r.r.r.r.r.r.r.r.r.r.r.r.r.r.r.F F p p p p p p p p p p ",
"0 0 0 0 ' ' ' ' a a ' ' | | | | | | | | U U U U U U U U U U U U U U U U | | # #     o o # # 2 1 r.r.r.r.r.r.r.r.r.r.r.r.r.r.r.r.r.r.r.r.F F p p p p p p p p p p ",
"< < > > > > j j a a U U J J j j J J K K ' ' K K j j j j j j r r r r r r j j 4 4     o o * * w w w w w w #.#.#.#.#.#.#.#.r.r.r.r.' ' 6 6 6 6 6 6 6 6 6 6 6 6 8 8 ",
"< < > > > > a j j j U U J J j j J J K K K K K ' j j j j j j r r r r r r j j 4 4     o o * * w w w w w w #.#.#.#.#.#.#.#.r.r.r.r.' ' 6 6 6 6 6 6 6 6 6 6 6 6 8 8 ",
"q q q q 8 8 6 6 ' ' j j p p Z Z 7.7.0.0.d.d.d.d.d.d.d.d.0.0.D D Z Z r r 0 0 U U 4 4 8 8 w w ,.,.1.1.3.3.3.3.3.3.3.3.1.1.&.&.r.r.q 0 6 6 6 6 6 6 6 6 8 8 8 8 9 9 ",
"q q q q 8 8 8 6 ' ' j j p p Z Z 7.7.0.0.d.d.d.d.d.d.d.d.0.0.D D Z Z r r 0 0 U U 4 4 8 8 w w ,.,.1.1.3.3.3.3.3.3.3.3.1.1.&.&.r.r.0 q 6 6 6 6 6 6 6 6 8 8 8 8 9 9 ",
"*.#.#.#.w w 6 6 r.r.3 3 0 0 0 r r r p p Z F F F F F p p r r 0 0 0 0 2 2 2 2 2 2 r.r.9 9 w w w w e e %.%.%.%.%.%.e e e e w w | | 6 6 < < < < < < < < < < 6 6 6 6 ",
"#.#.#.#.w w 6 6 r.r.3 3 0 0 0 0 r r p p Z F F F F F p p r r 0 0 0 0 2 2 2 2 2 2 r.r.9 9 w w w w e e %.%.%.%.%.%.e e e e w w | | 6 6 < < < < < < < < < < < 6 6 6 ",
"q q q q 6 6 = = U U 2 2 * * * * : : 2 2 2 2 2 2 2 2 2 2 2 2 2 2 2 2 2 2 2 2 2 2 | | 9 9 9 9 9 9 9 9 9 9 9 9 9 9 9 9 7 7 7 7 ' ' - - = = = = = = = = > > < < < < ",
"q q q q 6 6 = = U U 2 2 * $ * * : : 2 2 2 2 2 2 2 2 2 2 2 2 2 2 2 2 2 2 2 2 2 2 | | 9 9 9 9 9 9 9 9 9 9 9 9 9 9 9 9 7 7 7 7 ' ' - - = = = = = = = = > > > > < < ",
"> > > > = = = = r.r.2 2 $ $ $ $ $ $ $ $ $ $ $ $ * * : : : : , , 2 2 , , = : * * r.r.> > & & % % @ @ @ @ @ @ @ @ O O O O O O r.r.o o o o o o o o o o @ @ = = > > ",
"> > > > = = = = r.r.2 2 $ $ $ $ $ $ $ $ $ $ $ $ * * : : : : , , 2 2 , , = = * * r.r.> > & & % % @ @ @ @ @ @ @ @ O O O O O O r.r.o o o o o o o o o o @ @ = = > > ",
"> > - - = = s s r.r.s s 2 2 * * $ $ $ $ $ $ $ $ $ $ # # # # @ @ # # # # # # J J ' ' ' ' $ $ O O O O O O @ @ @ @ $ $ & & j j r.r.U U : : @ @ o o o o o o @ @ - - ",
"> > - - = = s s r.r.s s 2 2 * * $ $ $ $ $ $ $ $ $ $ # # # # @ @ # # # # # # j J ' ' ' ' $ $ O O O O O O @ @ @ @ $ $ & & j j r.r.U U : : @ @ o o o o o o @ @ - - ",
"0 0 r r ' ' r.r.r.r.r.r.U U s s 4 4 4 4 4 4 4 4 4 4 4 4 r r r r 4 4 4 4 r r ' ' ' ' ' ' ' ' ' ' j j ' ' ' ' ' ' ' ' | | r.r.r.r.r.r.U U j J s s 4 4 2 2 2 2 0 0 ",
"0 0 r r ' ' r.r.r.r.r.r.U U s s 4 4 4 4 4 4 4 4 4 4 4 4 r r 4 r 4 4 4 4 r r ' ' ' ' ' ' ' ' ' ' j j ' ' ' ' ' ' ' ' | | r.r.r.r.r.r.U U j j s s 4 4 2 2 2 2 0 0 "
};
