/* XPM */
static const char *nb_5[] = {
/* columns rows colors chars-per-pixel */
"80 80 138 2 ",
"   c #1C130B",
".  c #20170E",
"X  c #23180F",
"o  c #241611",
"O  c #281713",
"+  c #251C14",
"@  c #2B1A15",
"#  c #271A18",
"$  c #2B1D19",
"%  c #311D17",
"&  c #321E19",
"*  c #2D211D",
"=  c #34221C",
"-  c #3B241D",
";  c #3C281F",
":  c #2E2520",
">  c #322521",
",  c #3C2620",
"<  c #352924",
"1  c #3D2923",
"2  c #372C29",
"3  c #3C2D29",
"4  c #3E322D",
"5  c #3E3431",
"6  c #40271F",
"7  c #422B24",
"8  c #492E25",
"9  c #442E29",
"0  c #4C3027",
"q  c #43322D",
"w  c #4C332B",
"e  c #52362C",
"r  c #55382E",
"t  c #55382F",
"y  c #56392F",
"u  c #55382F",
"i  c #403531",
"p  c #433430",
"a  c #433530",
"s  c #413632",
"d  c #413732",
"f  c #413733",
"g  c #443530",
"h  c #463531",
"j  c #473531",
"k  c #463631",
"l  c #453732",
"z  c #463732",
"x  c #443632",
"c  c #4B3731",
"v  c #483732",
"b  c #493732",
"n  c #4F3630",
"m  c #493731",
"M  c #473833",
"N  c #433A37",
"B  c #453935",
"V  c #473934",
"C  c #453A36",
"Z  c #443A37",
"A  c #453A36",
"S  c #493833",
"D  c #4B3832",
"F  c #4A3833",
"G  c #4C3833",
"H  c #4B3834",
"J  c #4B3935",
"K  c #4A3B36",
"L  c #4D3934",
"P  c #4C3A34",
"I  c #4D3A35",
"U  c #4D3B36",
"Y  c #4F3B36",
"T  c #4B3C37",
"R  c #4F3C37",
"E  c #4A3A35",
"W  c #453B38",
"Q  c #463B38",
"!  c #473B38",
"~  c #463C39",
"^  c #473D39",
"/  c #473D3A",
"(  c #473E3B",
")  c #473F3C",
"_  c #463D39",
"`  c #483C38",
"'  c #483C39",
"]  c #483D39",
"[  c #493D39",
"{  c #4A3C38",
"}  c #4A3D39",
"|  c #483D3A",
" . c #493D3A",
".. c #483E3A",
"X. c #483E3B",
"o. c #493F3B",
"O. c #4B3E3A",
"+. c #4A3F3B",
"@. c #4C3D38",
"#. c #4D3D38",
"$. c #4F3F3A",
"%. c #483F3C",
"&. c #493F3C",
"*. c #4C3F3C",
"=. c #483E3A",
"-. c #503730",
";. c #563930",
":. c #533A32",
">. c #583B31",
",. c #593C33",
"<. c #5A3C33",
"1. c #5A3D33",
"2. c #5B3E35",
"3. c #583E37",
"4. c #5A3E36",
"5. c #5B3E34",
"6. c #513D38",
"7. c #503E38",
"8. c #513E39",
"9. c #503F39",
"0. c #523E39",
"q. c #49403C",
"w. c #48403D",
"e. c #49403D",
"r. c #4A403D",
"t. c #4B413E",
"y. c #49403D",
"u. c #5D4036",
"i. c #5F4137",
"p. c #53403A",
"a. c #55413B",
"s. c #5E4138",
"d. c #5F4239",
"f. c #5F4339",
"g. c #5F4138",
"h. c #61453B",
"j. c #62453B",
"k. c #614339",
/* pixels */
"e.e.e.e.%.%.%.%.%.%.%.%.%.%.%.%.o.o.o.o.o.o.o.o.o.o.o.o.o.o.o.o.o.o.o.o.o.o.o.o.o.o.o.o.o.o.o.o.o.o.o.o.o.o.o.o.o.o.o.o.o.o.%.%.%.%.%.%.o.o.o.o.o.o.o.o.o.o.o.o.",
"e.e.e.e.%.%.%.%.%.%.%.%.%.%.o.o.o.o.o.o.o.o.o.o.o.o.o.o.o.o.o.o.o.o.o.o.o.o.o.o.o.o.o.o.o.o.o.o.o.o.o.o.o.o.o.o.o.o.o.o.o.o.%.%.%.%.%.%.o.o.o.o.o.o.o.o.o.o.o.o.",
"q q w w w w w w w w F F o.o.%.%.e.e.e.e.9.9.4.4.4.4.u.2.f.f.f.f.h.h.h.h.h.h.f.f.4.4.e.e.e.%.%.%.%.%.V V U U U U U R 9.9.9.9.9.9.9.9.@.@.*.*.e.e.%.%.e.e.U U w w ",
"q q w w w w w w w w F F o.o.%.%.e.e.e.e.9.9.4.4.4.4.2.2.f.f.f.f.h.h.h.h.h.h.f.f.4.4.e.e.e.%.%.%.%.%.V V U U U U U R 9.9.9.9.9.9.9.9.@.@.*.*.e.e.%.%.e.e.U U w w ",
"7 7 9 9 w w w w w w w w n n @.@.e.e.e.e.<.<.;.;.e e e e e e e e e e t t r r e e e e w w o.o.e.e.q q q q q q g g E E U U R R 9.9.9.9.9.9.U U o.o.%.%.q q 7 7 7 7 ",
"7 7 9 9 w w w w w w w w n n @.@.e.e.e.e.<.<.;.;.e e e e e e e e e e t t r r e e e e w w o.o.e.e.q q q q q q g g E E U U R R 9.9.9.9.9.9.U U o.o.%.%.q q 7 7 7 7 ",
"1 1 1 7 1 1 7 7 7 7 7 7 7 7 9 9 e.e.w w e e 0 0 0 0 0 0 0 0 0 0 0 0 0 0 0 0 0 0 0 0 0 0 E E o.o.3 3 3 3 3 3 3 3 q q q q g g F F F F F F m m g g %.e.1 1 , , , , ",
"1 1 1 1 1 1 7 7 7 7 7 7 7 7 9 9 e.e.w w 0 e 0 0 0 0 0 0 0 0 0 0 0 0 0 0 0 0 0 0 0 0 0 0 E E o.o.3 3 3 3 3 3 3 3 q q q q g g F F F F F F m m g g %.e.1 1 , , , , ",
"1 1 - - - - - - - - - - = = = = e.e.7 7 6 6 ; 6 7 7 ; ; ; ; ; ; ; ; ; ; ; ; ; ; ; ; ; ; g g e.e.> > > > > > > > > > > > > > > > = * > > * * * * e.e.& & & & & & ",
"1 1 - - - - - - - - - - = = = = e.e.7 7 6 6 ; ; 6 7 ; ; ; ; ; ; ; ; ; ; ; ; ; ; ; ; ; ; g g e.e.> > > > > > > > > > > > > > > > > > > > * * * * e.e.& & & & & & ",
"- - = = = = = = = = & & & & q q e.e.^ ^ = = = = = = = = = = = = = = = = = = = = & & & & o.o.%.%.< < $ $ $ $ $ $ $ $ $ $ $ $ $ $ $ $ $ $ # # 3 3 e.e.$ $ O O @ @ ",
"- - = = = = = = = = & & & & q q e.e.^ ^ = = = = = = = = = = = = & = = = = = = = & & & & o.o.%.%.< < $ $ $ $ $ $ $ $ $ $ $ $ $ $ $ $ $ $ # # 3 3 e.e.$ $ @ O @ @ ",
", , - - = = = = = = , , q q %.%.e.e.%.%.a a = - = = & & = = = = & & & & & & & & & & a a o.o.o.o.^ ^ > > $ $ # # $ $ $ $ # # # # $ $ > > 3 3 ^ ^ e.e.^ ^ < < @ @ ",
", , - - = = = = = = , , q q ) %.e.e.%.%.a a = - = = & & = = = = & & & & & & & & & & g g o.o.o.o.^ ^ > > $ $ # # $ $ $ $ # # # # $ $ > > 3 3 ^ ^ e.e.^ ^ < < @ @ ",
"^ ^ Q Q Q Q Q Q Q Q Q Q o.o.%.o.%.%.%.%.e.e.o.o.V V 2 2 < < 2 2 3 3 4 4 4 4 a a a a a a f a 4 4 4 4 2 2 > > < < 4 4 N N N N N N Q Q ^ ^ ^ ^ e.e.e.e.e.e.e.e.^ ^ ",
"^ ^ Q Q Q Q Q Q Q Q Q Q o.o.o.o.%.%.e.%.%.e.o.o.V V 3 2 < < 2 2 3 3 4 4 4 4 a a a a a a a a 4 4 4 4 2 2 > > < < 4 4 N N N N N N Q Q ^ ^ ^ ^ e.e.e.e.e.e.e.e.^ ^ ",
"e.e.%.%.%.%.e.e.e.e.o.o.o.o.o.o.o.o.o.o.%.e.e.e.* *             . . . . o o + + + + + + + + + + + + + + + + + + < < e.e.e.e.e.e.e.e.e.e.e.e.g g m m m m G G G U ",
"e.e.%.%.%.%.e.e.e.e.o.o.o.o.o.o.o.o.o.o.%.e.e.e.* *             . . . . o o + + + + + + + + + + + + + + + + + + < < e.e.e.e.e.e.e.e.e.e.e.e.g g m m m m G G U U ",
"w w w w F F e.e.) ) q 4 q q q q g g g g M M q q         o o + + + + + + + + + + + + + + + + + + o o o o o o o o = = p.p.e.e.e.e.e.e.T T e e e e t t >.>.<.<.<.<.",
"w w w w F F e.e.) ) q 4 q q q q g g g g M M q q         o o + + + + + + + + + + + + + + + + + + o o o o o o o o = = p.p.e.e.e.e.e.e.T T e e e e t ;.>.>.<.<.<.<.",
"0 0 0 0 0 0 o.o.q 4 3 3 3 3 3 3 3 3 3 3 3 3 * *         o o + + + + o o                                         * $ 9 9 @.@.e.e.o.o.0 0 0 0 0 0 0 0 0 0 0 0 e e ",
"0 0 0 0 0 0 o.o.q q 3 3 3 3 3 3 3 3 3 3 3 3 * *         o o + + + + o o                                         * $ 9 9 @.@.e.e.o.o.0 0 0 0 0 0 0 0 0 0 0 0 e e ",
"8 8 8 8 8 8 o.o.3 3 3 3 3 3 3 3 3 3 3 3 3 3 $ $         + + + + + + . .                                         = = , , w w e.e.o.o.0 0 0 0 0 0 0 0 0 0 0 0 0 0 ",
"8 8 8 8 8 8 o.o.3 3 3 3 3 3 3 3 3 3 3 3 3 3 $ $         + + + + + + . .                                         = = , , w w e.e.o.o.0 0 0 0 0 0 0 0 0 0 0 0 0 0 ",
"7 7 7 7 7 7 o.o.> > = = > > = = = = = = > > + +         + + + + o o & & = = = = = = = = = = = = = = $ $ @ @ $ $ & & & & g g e.e.V V - - - - - - ; ; ; ; ; ; 7 7 ",
"7 7 7 7 7 7 o.o.> > = = > > = = = = = = > > + +         + + + + o o & & = = = = = = = = = = = = = = $ $ @ @ $ $ & & & & g g e.e.V V - - - - - - ; - ; ; ; ; 7 7 ",
"7 7 7 7 1 1 o.o.= = * * * * * * $ $ $ $ $ $ o o         + + + + o o O O @ @ @ @ @ @ @ @ @ O O O O O O O O O O O O O @ @ Q Q e.e.o.o.2 2 @ @ @ @ @ % @ @ % % & & ",
"7 7 7 7 1 1 o.o.= = * * * * * * $ $ $ $ $ $ o o         + + + + o o O O @ @ @ @ @ @ @ @ @ @ O O O O O O O O O O O O @ @ Q Q e.e.o.o.2 2 @ @ @ @ % % @ @ % % & & ",
"8 8 7 7 M M e.e.f f > > * * * * $ $ * * > > + +         o o + + o o O O @ @ @ @ @ @ @ @ $ $ $ $ $ $ $ $ = = > > > > a a V V V V e.e.^ ^ 4 4 = = & & & & % % = = ",
"8 8 7 7 M M e.e.f f > > * * * * $ $ * * > > + +         o o + + o o O O @ @ @ @ @ @ @ @ $ $ $ $ $ $ $ $ = = > > > > a a V V V V e.e.^ ^ 4 4 = = & & & & % % = = ",
"o.o.E E e.e.e.e.e.e.^ ^ N N N N N N W W ^ ^ * *         . . + + o o > > i i q q g a a a a a q i 5 5 5 5 a a V V Q Q o.o.g g g g o.o.e.e.e.e.e.e.%.%.%.%.o.o.o.o.",
"o.o.E E e.e.e.e.e.e.^ ^ N N N N N N W W ^ ^ * *         . . + + o o > > i i q q g g g a a a q q 5 5 a 5 a a V V Q Q o.o.g g g g o.o.e.e.e.e.e.e.e.e.%.%.o.o.o.o.",
"g g e.e.e.e.e.e.e.e.m m w w w w w w w q q q * *             + + + + * * 4 4 N N ^ ^ 5 5 2 2 2 2 3 3 2 2 3 3 3 3 3 3 2 2 q q g g Q Q e.e.4 4 3 3 q q q q g g m g ",
"g g e.e.e.e.e.e.e.e.m m w w w w w w w q q q * *             + + + + * * 4 4 N N ^ ^ 5 5 2 2 2 2 3 3 2 2 2 2 3 3 3 3 2 2 q q g g Q Q e.e.4 4 3 3 q q q q g g m g ",
"1 1 ^ ^ e.e.e.e.G G w w e e r r e e e e e e ; ;             + + + + + + + + + + + + * * * * * * = = 3 3 3 3 3 3 3 3 3 3 4 4 V V V V V V 1 1 7 7 7 7 w w w w -.-.",
"1 1 ^ ^ e.e.e.e.G G w w e e r r e e e e e e ; ;             + + + + + + + + + + + + * * * * * * = = 3 3 3 3 3 3 3 3 3 3 4 4 V V V V V V 1 1 7 7 7 7 w w w w -.-.",
"1 1 9 9 e.e.e.e.0 0 0 0 e e e e e e e e e e 0 0             + + + + + + + + + + + + + + + + + + + + + + < < 4 3 q q q q q q g g V V 7 7 1 1 1 1 1 1 7 7 7 7 9 9 ",
"1 1 9 9 e.e.e.e.0 0 0 0 e e e e e e e e e e 0 0             + + + + + + + + + + + + + + + + + + + + * * < < 3 3 q q q q q q g g V V 7 7 1 1 1 1 1 1 7 7 7 7 9 9 ",
", , , , e.e.e.e.0 0 8 8 8 8 8 8 0 0 0 0 0 0 0 0                             . .         o o + + + + + + + + > > 3 3 3 3 3 3 a a o.o.7 7 1 1 1 1 1 1 1 1 1 1 1 1 ",
", , , , e.e.e.e.0 0 0 8 8 8 8 8 0 0 0 0 0 0 0 0                                         o o + + + + + + + + > > 3 3 3 3 3 3 a a o.o.7 7 1 1 1 1 1 1 1 1 1 1 1 1 ",
"- - - - e.e.! ! 7 7 7 7 7 7 7 7 7 7 7 7 7 7 7 7 X X                                             + + + + + + + + > > 3 3 3 3 ^ ^ e.e.3 3 , - - - = = = = & & $ $ ",
"- - - - e.e.! ! 7 7 7 7 7 7 7 7 7 7 7 7 7 7 7 7 X X                                             + + + + + + + + > > 3 3 3 3 ^ ^ e.e.3 3 - - - - = = = = & & $ $ ",
", , a a e.e.V V 9 9 ; ; ; ; - - - - - - = = = = $ $                         + + + + o o             + + + + + + $ $ > > 2 2 %.%.e.e.V V = = @ @ @ @ @ @ O O @ @ ",
", , a a e.e.V V 9 9 ; ; ; ; - - - - - - = = = = $ $                         + + + + o o             + + + + + + $ $ > > 3 2 %.%.e.e.V V = = @ @ @ @ @ @ O O @ @ ",
"g g e.e.e.e.o.o.E E q q q q 9 9 q q q q q q q q q q 2 2 < < 3 3 a a V V %.%.e.e.N N 3 3 3 3 $ $         + + + + $ $ 4 4 e.e.e.e.%.%.e.e.V V 3 3 2 3 3 3 3 3 3 3 ",
"g g e.e.e.e.%.o.E E q q q q 9 9 q q q q q q q q q q 2 2 < < 3 3 a a V V %.%.e.e.N N 3 3 3 3 $ $         + + + + $ $ 4 4 e.e.e.e.%.%.e.e.V V 3 3 2 3 3 3 3 3 3 3 ",
"e.e.e.e.e.e.o.o.o.o.%.%.%.%.e.e.e.e.e.e.e.e.e.e.e.e.e.e.o.o.^ ^ e.e.e.e.e.e.e.e.e.e.e.e.e.e.%.)         . . + + + + 5 5 e.e.e.e.e.e.e.e.e.e.e.e.e.e.e.e.e.e.e.e.",
"e.e.e.e.e.e.o.o.^ ^ %.%.%.%.e.e.e.e.e.e.e.e.e.e.%.%.%.e.o.o.^ ^ e.e.e.e.e.e.e.e.e.e.e.e.e.e.%.)         . . + + + + 5 5 e.e.e.e.e.e.e.e.e.e.e.e.e.e.e.e.e.e.e.e.",
"E E E E m m q q q q M M e.e.e.e.) ) f f a a 4 4 * * o o o o + + N N e.e.e.e.N N 4 4 a a a a a a o o         + + + + < < V V V V V V o.o.%.e.e.e.e.e.! ! g g E E ",
"E E E E m m q q q q M M e.e.e.e.^ ^ f f a a 4 4 * * o o o o + + N N e.e.e.e.V N 4 4 a a a a a a o o         + + + + < < V V V V V V o.o.e.e.%.%.e.e.E E g g E E ",
"u.u.f.f.u.u.2.2.;.:.m m o.o.o.o.q q 3 3 3 3 $ $             o o a a e.e.^ ^ 9 9 7 7 7 7 w w w w = =         + + + + ; ; w w w w 9 9 q q E V %.%.o.o.0 0 0 0 0 0 ",
"u.u.u.u.u.u.2.2.;.:.m m o.o.o.o.q q 3 3 3 3 $ $             o o a a e.e.^ ^ 9 9 7 7 7 7 w w w w = =         + + + + ; ; w w w w 9 9 q q V V %.%.o.o.0 0 0 0 0 0 ",
"f.f.k.k.k.k.k.k.k.k.4.4.%.%.E E q q 9 9 3 3 o o             + + < < e.e.9 9 1 1 1 1 7 7 7 7 7 7 = =         + + + + = = 7 7 7 7 1 1 1 1 7 7 e.e.w w 0 0 0 0 0 0 ",
"f.f.k.k.k.k.k.k.k.k.4.4.%.%.E E q q 9 9 3 3 o o             + + < < e.e.9 9 1 1 1 1 7 7 7 7 7 7 = =         + + + + = = 7 7 7 7 1 1 1 1 7 7 e.e.w w 0 0 0 0 0 0 ",
"e e r r t t t t t t t t e.e.a a 3 3 3 3 3 3 o o         . . + + * * %.%.7 7 1 1 1 1 1 1 1 1 1 1 o o     o o + + + + = = 1 1 1 1 , , , , - - e.e.0 0 0 0 0 0 0 0 ",
"e e r r t t t t t t t t e.e.a a 3 3 3 3 3 3 o o         . . + + * * ) %.7 7 1 1 1 1 1 1 1 1 1 1 o o     o o + + + + = = 1 1 1 1 , , , , - - e.e.0 0 0 0 0 0 0 0 ",
"7 7 8 8 8 8 8 8 8 8 8 8 e.e.< < * * * * > > + +         . . + + + + 3 3 > > = = = = = = & & + +     o o + + + + o o @ @ @ @ @ @ O O O O = = e.e.7 7 0 0 0 0 0 0 ",
"7 7 8 8 8 7 8 8 8 8 8 8 e.e.< < * * * * > > + +         . . + + + + 3 3 > > = = = = = = & & + +     o o + + + + o o @ @ @ @ @ @ O O O O = = e.e.7 7 0 0 0 0 0 0 ",
"; ; - - - - - - - - q q e.e.a a $ $ $ $ $ $ + +             + + + + + + * * + + + @ + + o o o o + + + + + + + +     O O O O O O O O @ @ V V o.o.a a w w 0 0 0 0 ",
"; ; - - - - - - - - q q e.e.a a $ $ $ $ $ $ + +             + + + + + + * * + + + + + + o o o o + + + + + + + +     O O O O O O O O @ @ V V o.o.a a w w 0 0 0 0 ",
"1 1 1 1 1 1 1 1 1 1 %.%.%.%.e.e.5 5 < < < < < < o o             + + + + + + + + + + + + + + + + + + + + + +     + + = = > > > > > > 4 4 g g g g g g g g w w w w ",
"1 1 1 1 1 1 1 1 1 1 %.%.%.%.e.e.5 5 < < < < < < o o             + + + + + + + + + + + + + + + + + + + + + +     + + = = > > > > > > 4 4 g g g g g g g g w w w w ",
"^ ^ %.%.%.%.o.o.V V o.o.e.e.e.e.e.e.e.e.e.e.e.e.e.e.+ +             . . + + + + + + + + + + + + o o         * * o.o.o.o.o.^ V V E E E E g g q q q q g g g g g g ",
"^ ^ %.%.%.%.o.o.V V o.o.e.e.e.e.e.e.e.e.e.e.e.e.e.e.+ +             . . + + + + + + + + + + + + o o         * * o.o.o.o.o.^ V V E E E E g g q q q q g g g g g g ",
"q q q q o.o.o.o.V V o.o.%.%.%.%.%.%.%.%.^ ^ ^ ^ ^ ^ ) ) : : o o                                         * * o.o.e.e.e.e.e.e.e.e.e.e.e.e.E E m m m m m m m m m m ",
"q q q q o.o.o.o.V V o.o.%.%.%.%.%.%.%.%.^ ^ ^ ^ ^ o.) ) : : . .                                         * * o.o.e.e.e.e.e.e.e.e.e.e.e.e.E E m m m m m m m m m m ",
"1 1 , , , , V V V V ^ ^ Q Q V V Q Q ! ! ! o.! o.V V V V V V 4 4 = = + + o o         o o + + ; ; w q 7 7 :.:.:.:.:.:.:.:.e.e.e.e.o.o.7 7 7 7 7 7 7 9 7 7 7 7 9 9 ",
"1 1 , , , , V V V V ^ ^ Q Q V V Q Q ! ! ! ! ! o.V V V V V V 4 4 = = + + o o         o o + + ; ; q q 7 7 :.:.:.:.:.:.:.:.e.e.e.e.o.o.7 7 7 7 7 7 7 7 7 7 7 7 9 9 ",
"w w w w 9 9 7 9 o.o.V V m m U U 6.6.9.9.a.a.a.a.a.a.a.a.9.9.R R U U g g q q ^ ^ e.e.w w r r >.>.<.<.2.2.2.2.2.2.2.2.<.<.:.:.e.e.q w 7 7 7 7 7 7 7 7 7 7 7 7 q q ",
"w w w w 9 9 9 9 o.o.V V m S U U 6.6.9.9.a.a.a.a.a.a.a.a.9.9.R R U U g g q q ^ ^ e.e.w w r r >.<.<.<.2.2.2.2.2.2.2.2.<.<.:.:.e.e.q w 7 7 7 7 7 7 7 7 7 7 7 7 q q ",
":.:.:.:.e e 7 7 e.e.4 4 q q q g g g m m U E E E E E m m g g q q q q 3 3 3 3 3 3 e.e.0 0 e e e e t t ;.;.;.;.;.;.t t r r e e %.%.7 7 1 1 1 1 1 1 7 7 7 1 7 7 7 7 ",
":.:.:.:.e e 7 7 e.e.4 4 q q q q g g m m U E E E E E m m g g q q q q 3 3 3 3 3 3 e.e.0 0 e e e e t t ;.;.;.;.;.;.t t r r e e %.%.7 7 1 1 1 1 1 1 7 7 7 1 7 7 7 7 ",
"w w w w 7 7 = = ^ ^ 3 3 * * * * > > 3 3 3 3 3 3 3 3 3 3 3 3 3 3 3 3 3 3 3 3 3 3 %.%.0 0 0 0 0 0 0 0 0 0 0 0 0 0 0 0 8 8 8 8 o.o.- - = = = = = = = = , , 1 1 7 1 ",
"w w w w 7 7 = = ^ ^ 3 3 * $ * * > > 3 3 3 3 3 3 3 3 3 3 3 3 3 3 3 3 3 3 3 3 3 3 %.%.0 0 0 0 0 0 0 0 0 0 0 0 0 0 0 0 8 8 8 8 o.o.- - = = = = = = = = , , 1 1 1 1 ",
", , , , = = = = e.e.3 3 $ $ $ $ $ $ $ $ $ $ $ $ * * > > > > < < 3 3 < < = > * * e.e., , & & % % @ @ @ @ @ @ @ @ O O O O O O e.e.o o o o o o o o O O @ @ = = , , ",
", , , , = = = = e.e.3 3 $ $ $ $ $ $ $ $ $ $ $ $ * * > > > > < < 3 3 < < = > * * e.e., , & & % % @ @ @ @ @ @ @ @ O O O O O O e.e.o o o o o o o o O O @ @ = = , , ",
", , - - = = N N e.e.N N 3 3 * * $ $ $ $ $ $ $ $ $ $ $ $ $ $ @ + + + + + + + Q Q o.o.o.o.$ $ O O O O O O @ @ @ @ $ $ & & V V e.e.^ ^ > > @ @ o o o o O O @ @ = - ",
", , - - = = N N e.e.N N 3 3 * * $ $ $ $ $ $ $ $ $ $ $ $ $ $ + @ + + + + + + V Q o.o.o.o.$ $ O O O O O O @ @ @ @ $ $ & & V V e.e.^ ^ > > @ @ o O o o O O @ @ = = ",
"q q g g %.o.e.e.e.e.e.e.^ ^ N N 5 5 5 5 5 5 5 5 5 5 5 5 a a a 5 5 5 5 5 f f o.o.o.o.o.o.o.o.o.o.V V o.o.o.o.o.o.o.o.%.%.e.e.e.e.e.e.o.o.V V N N 5 5 3 3 3 3 q q ",
"q q g g o.o.e.e.e.e.e.e.^ ^ N N 5 5 5 5 5 5 5 5 5 5 5 5 5 a 5 5 5 5 5 5 f f o.o.o.o.o.o.o.o.o.o.V V o.o.o.o.o.o.o.o.%.%.e.e.e.e.e.e.o.o.V V N N 5 5 3 3 3 3 q q "
};
