/* XPM */
static const char *nb_6[] = {
/* columns rows colors chars-per-pixel */
"80 80 140 2 ",
"   c #1C130B",
".  c #20170E",
"X  c #21180F",
"o  c #241511",
"O  c #281713",
"+  c #251C14",
"@  c #2B1A15",
"#  c #271A18",
"$  c #2B1D19",
"%  c #311D17",
"&  c #321E19",
"*  c #2D211C",
"=  c #312017",
"-  c #34211C",
";  c #3B241D",
":  c #2F2620",
">  c #322421",
",  c #3C2620",
"<  c #352925",
"1  c #3D2923",
"2  c #372C2A",
"3  c #3C2D29",
"4  c #3D322D",
"5  c #3F3431",
"6  c #40271F",
"7  c #422B24",
"8  c #492E25",
"9  c #442E29",
"0  c #4C3027",
"q  c #43322D",
"w  c #4C332B",
"e  c #52362C",
"r  c #55382F",
"t  c #463732",
"y  c #453631",
"u  c #443631",
"i  c #4B3731",
"p  c #483732",
"a  c #493732",
"s  c #4F3630",
"d  c #493731",
"f  c #473833",
"g  c #433A37",
"h  c #473934",
"j  c #453A36",
"k  c #443A37",
"l  c #473A36",
"z  c #463B37",
"x  c #453936",
"c  c #493833",
"v  c #4B3832",
"b  c #4A3833",
"n  c #4C3833",
"m  c #4B3834",
"M  c #4B3935",
"N  c #483A37",
"B  c #4A3B36",
"V  c #4D3934",
"C  c #4C3A34",
"Z  c #4D3A35",
"A  c #4D3B36",
"S  c #4F3B36",
"D  c #4B3C37",
"F  c #4F3C37",
"G  c #4A3A35",
"H  c #443B38",
"J  c #453B38",
"K  c #463B38",
"L  c #473B38",
"P  c #453C39",
"I  c #473C38",
"U  c #463C39",
"Y  c #473D39",
"T  c #473D3A",
"R  c #473E3B",
"E  c #473F3C",
"W  c #463C39",
"Q  c #483C38",
"!  c #483C39",
"~  c #483D39",
"^  c #493D39",
"/  c #4A3C38",
"(  c #4A3D39",
")  c #483D3A",
"_  c #493D3A",
"`  c #483E3A",
"'  c #483E3B",
"]  c #493F3B",
"[  c #4B3E3A",
"{  c #4C3D38",
"}  c #4D3D38",
"|  c #4F3F3A",
" . c #483F3C",
".. c #493F3C",
"X. c #4C3F3C",
"o. c #4D3F3C",
"O. c #483E3A",
"+. c #503730",
"@. c #513831",
"#. c #523831",
"$. c #533932",
"%. c #503A33",
"&. c #563930",
"*. c #543A33",
"=. c #513A34",
"-. c #543D36",
";. c #563D36",
":. c #573D36",
">. c #533A32",
",. c #583B31",
"<. c #593C33",
"1. c #5A3C33",
"2. c #5A3D33",
"3. c #5B3E35",
"4. c #583E37",
"5. c #5A3E36",
"6. c #5B3E35",
"7. c #513D38",
"8. c #503E38",
"9. c #513E39",
"0. c #503F39",
"q. c #523E39",
"w. c #49403C",
"e. c #48403D",
"r. c #49403D",
"t. c #4B403C",
"y. c #4A403D",
"u. c #4B413E",
"i. c #49403D",
"p. c #5D4036",
"a. c #5F4137",
"s. c #53403A",
"d. c #55413B",
"f. c #5E4138",
"g. c #5F4239",
"h. c #5F4339",
"j. c #5F4138",
"k. c #61453B",
"l. c #62453B",
"z. c #614339",
/* pixels */
"r.r.r.r. . . . . . . . . . . . .] ] ] ] ] ] ] ] ] ] ] ] ] ] ] ] ] ] ] ] ] ] ] ] ] ] ] ] ] ] ] ] ] ] ] ] ] ] ] ] ] ] ] ] ] ]  . . . . . .] ] ] ] ] ] ] ] ] ] ] ] ",
"r.r.r.r. . . . . . . . . . .] ] ] ] ] ] ] ] ] ] ] ] ] ] ] ] ] ] ] ] ] ] ] ] ] ] ] ] ] ] ] ] ] ] ] ] ] ] ] ] ] ] ] ] ] ] ] ]  . . . . . .] ] ] ] ] ] ] ] ] ] ] ] ",
"q q w w w w w w w w b b ] ]  . .r.r.r.r.0.0.5.5.5.5.p.6.h.h.h.h.k.k.k.k.k.k.h.h.5.5.r.r.r. . . . . .z z A A A A A F 0.0.0.0.0.0.0.0.{ { o.o.r.r. . .r.r.A A w w ",
"q q w w w w w w w w b b ] ]  . .r.r.r.r.0.0.5.5.5.5.6.6.h.h.h.h.k.k.k.k.k.k.h.h.5.5.r.r.r. . . . . .z z A A A A A F 0.0.0.0.0.0.0.0.{ { o.o.r.r. . .r.r.A A w w ",
"7 7 9 9 w w w w w w w w s s { { r.r.r.r.1.1.&.&.e e e e e e e e e e r r r r e e e e w w ] ] r.r.q q q q q q u u G G A A F F 0.0.0.0.0.0.A A ] ]  . .q q 7 7 7 7 ",
"7 7 9 9 w w w w w w w w s s { { r.r.r.r.1.1.&.,.e e e e e e e e e e r r r r e e e e w w ] ] r.r.q q q q q q u u G G A A F F 0.0.0.0.0.0.A A ] ]  . .q q 7 7 7 7 ",
"1 1 1 7 1 1 7 7 7 7 7 7 7 7 9 9 r.r.w w e e 0 0 0 0 0 0 0 0 0 0 0 0 0 0 0 0 0 0 0 0 0 0 G G ] ] 3 3 3 3 3 3 3 3 q q q q u u b b b b b b d d u u  .r.1 1 , , , , ",
"1 1 1 1 1 1 7 7 7 7 7 7 7 7 9 9 r.r.w w 0 e 0 0 0 0 0 0 0 0 0 0 0 0 0 0 0 0 0 0 0 0 0 0 G G ] ] 3 3 3 3 3 3 3 3 q q q q u u b b b b b b d d u u  .r.1 1 , , , , ",
"1 1 ; ; ; ; ; ; ; ; ; ; - - - - r.r.7 7 6 6 ; 6 7 7 ; ; ; ; ; ; ; ; ; ; ; ; ; ; ; ; ; ; u u r.r.> > > > > > > > > > > > > > > > - * > > * * * * r.r.& & & & & & ",
"1 1 ; ; ; ; ; ; ; ; ; ; - - - - r.r.7 7 6 6 ; ; 7 7 ; ; ; ; ; ; ; ; ; ; ; ; ; ; ; ; ; ; u u r.r.> > > > > > > > > > > > > > > > > > > > * * * * r.r.& & & & & & ",
"; ; - - - - - - - - & & & & q q r.r.Y Y - - - - - - - - - - - - - - - - - - - - & & @ @ 4 4  . .< < $ $ $ $ $ $ $ $ $ $ $ $ $ $ $ $ $ $ # # 3 3 r.r.$ $ O O @ @ ",
"; ; - - - - - - - - & & & & q q r.r.Y Y - - - - - - - - - - - - - - - - - - - - & & @ @ 4 4  .r.< < $ $ $ $ $ $ $ $ $ $ $ $ $ $ $ $ $ $ # # 3 3 r.r.$ $ O O @ @ ",
", , ; ; - - - - - - , , q q  . .r.r. . .u u - - - - - - - - - - & & & & % % . .         o o 4 4 Y Y > > $ $ # # $ $ $ $ # # # # $ $ > > 3 3 Y Y r.r.Y Y < < @ @ ",
", , ; ; - - - - - - , , q q  . .r.r. . .u u - - - - - - - - - - & & & & % % . .         o o 4 4 Y Y > > $ $ # # $ $ $ $ # # # # $ $ > > 3 3 Y Y r.r.Y Y < < @ @ ",
"Y Y K K K K K K K K K K ] ] ] ]  . .r.r.r.r.] ] N N I N Y Y z z ] N > >         + + o o + + 4 4 z z Y Y K K g K z z g g g g g g K K Y Y Y Y r.r.r.r.r.r.r.r.Y Y ",
"Y Y K K K K K K K K K K ] ] ] ]  . .r.r.r.r.] ] N N N N Y Y z z ] ] > >         + + o o + + 4 4 z z Y Y K K g K z z g g g g g g K K Y Y Y Y r.r.r.r.r.r.r.r.Y Y ",
"r.r. . . . .r.r.r.r.] ] ] ] ] ] ] ] ] ]  .r.r.r.r.r.r.r.r.r.r.r.* *         + + + + + + < < u u q q u u K K ] ] r.r.r.r.r.r.r.r.r.r.r.r.r.r.u u d d d d V V V A ",
"r.r. . . . .r.r.r.r.] ] ] ] ] ] ] ] ] ]  .r.r.r.r.r.r.r.r.r.r.r.$ *         + + + + + + < < u u q q u u K K ] ] r.r.r.r.r.r.r.r.r.r.r.r.r.r.u u d d d d V V A A ",
"w w w w b b r.r.E E q 4 q q q q u u u u f f G G r.r.r.r.o.o.* *     X X + + + + + + - - :.:.:.:.:.:.:.:.:.:.=.=.V $.s.s.r.r.r.r.r.r.N N e e e e r r ,.,.1.1.1.1.",
"w w w w b b r.r.E E q 4 q q q q u u u u f u G G r.r.r.r.o.o.* *     X X + + + + + + - - :.:.:.:.:.:.:.:.:.:.=.=.V $.s.s.r.r.r.r.r.r.N N e e e e r r ,.,.1.1.1.1.",
"0 0 0 0 0 0 ] ] 4 4 3 3 3 3 3 3 3 3 3 3 3 3 3 3 u u r.r.- -         + + + + + + < < $.$.$.$.&.&.*.&.$.$.$.$.w w w w 9 9 { { r.r.] ] 0 0 0 0 0 0 0 0 0 0 0 0 e e ",
"0 0 0 0 0 0 ] ] q q 3 3 3 3 3 3 3 3 3 3 3 3 3 3 u u r.r.- -         + + + + + + < < $.$.$.$.&.&.&.&.$.$.$.$.w w w w 9 9 { { r.r.] ] 0 0 0 0 0 0 0 0 0 0 0 0 e e ",
"8 8 8 8 8 8 ] ] 3 3 3 3 3 3 3 3 3 3 3 3 3 3 3 3 3 3 u u         + + + + + + - - 7 7 7 7 7 7 7 7 7 7 7 7 7 7 1 1 1 1 , , w w r.r.] ] 0 0 0 0 0 0 0 0 0 0 0 0 0 0 ",
"8 8 8 8 8 8 ] ] 3 3 3 3 3 3 3 3 3 3 3 3 3 3 3 3 3 3 u u         + + + + + + - - 7 7 7 7 7 7 7 7 7 7 7 7 7 7 1 1 1 1 , , w w r.r.] ] 0 0 0 0 0 0 0 0 0 0 0 0 0 0 ",
"7 7 7 7 7 7 ] ] > > - - > > - - - - - - - - - > > > o o     + + + + + + @ @ - - - - - & - - - - - - - - - - - - & & & & u u r.r.z z ; ; - ; ; ; ; ; ; ; ; ; 7 7 ",
"7 7 7 7 7 7 ] ] > > - - > > - - - - - - - - - - > > o o     + + + + + + @ @ - - - - - - - - - - - - - - - - - - & & & & u u r.r.z z ; ; ; ; ; ; ; ; ; ; ; ; 7 7 ",
"7 7 7 7 1 1 ] ] - - * * * * * * $ $ $ $ $ $ $ $ $ $         + + + + + + @ @ @ @ @ @ @ @ @ @ O @ O O O O O O O O O O @ @ K K r.r.] ] 3 3 @ @ @ @ % % @ @ % % & & ",
"7 7 7 7 1 1 ] ] - - * * * * * * $ $ $ $ $ $ $ $ $ $         + + + + + + @ @ @ @ @ @ @ @ O O @ @ O O O O O O O O O O @ @ K K r.r.] ] 3 3 @ @ @ @ % % @ @ % % & & ",
"8 8 7 7 f f r.r.u u > > * * * * $ $ * * > > 2 2 o o     + + + + + + @ @ @ @ @ @ @ @ @ @ $ $ $ $ $ $ $ $ - - > > > > u u z z z z r.r.Y Y 4 4 - - & & & & % % - - ",
"8 8 7 7 f f r.r.u u > > * * * * $ $ * * > > 2 2 o o     o + + + + + @ @ @ @ @ @ @ @ @ @ $ $ $ $ $ $ $ $ - - > > > > u u z z z z r.r.Y Y 4 4 - - & & & & % % - - ",
"] ] G G r.r.r.r.r.r.Y Y g g g g g g H H Y Y  . .        + + + + * * u u u u q q u u u u u u u u 5 5 5 5 u u z z K K ] ] u u u u ] ] r.r.r.r.r.r.r.r.r.r.] ] ] ] ",
"] ] G G r.r.r.r.r.r.Y Y g g g g g g H H Y Y  . .        + + + + * * u u u u q q u u u u u u u q 5 5 5 5 u u z z K K ] ] u u u u ] ] r.r.r.r.r.r.r.r.r.r.] ] ] ] ",
"u u r.r.r.r.r.r.r.r.d d w w w w w w w w q q < <         + + + + 4 4 r.r.Y Y g g 5 5 4 4 2 2 2 2 3 3 2 2 3 3 3 2 3 3 2 2 q q u u z z r.r.4 4 3 3 q q q q u u d u ",
"u u r.r.r.r.r.r.r.r.d d w w w w w w w w q q < <         + + + + 4 4 r.r.Y Y g g 5 5 4 4 2 2 2 2 3 3 2 2 3 3 3 3 3 3 2 2 q q u u z z r.r.4 4 3 3 q q q q u u d d ",
"1 1 Y Y r.r.r.r.V V w w e e e e e e e e e e = =     o o + + * * q q > > + + + + + + + + $ $ - * 3 3 3 3 3 3 3 3 3 3 3 3 4 4 z z z z z z 1 1 7 7 7 7 w w w w +.+.",
"1 1 Y Y r.r.r.r.V V e e e e e e e e e e e e = =     o X + + * * q q > > + + + + + + + + $ $ - - 3 3 3 3 3 3 3 3 3 3 3 3 4 4 z z z z z z 1 1 7 7 7 7 w w w w +.+.",
"1 1 9 9 r.r.r.r.0 0 0 0 e e e e e e e e e e + +     + + + + = = + +     + + + + + + + + + + @ @ * * 3 3 3 3 3 3 q q q q q q u u z z 7 7 1 1 1 1 1 1 7 7 7 7 9 9 ",
"1 1 9 9 r.r.r.r.0 0 0 0 e e e e e e e e e e + +     + + + + = = + +     + + + + + + + + + + @ @ * * 3 3 3 3 3 3 q q q q q q u u z z 7 7 1 1 1 1 1 1 7 7 7 7 9 9 ",
", , , , r.r.r.r.0 8 8 8 0 0 0 0 0 0 0 0 0 0 . .     + + + + + +     o o + + o o X X o o + + + + @ + * * 3 3 3 3 3 3 3 3 3 3 u u ] ] 7 7 1 1 1 1 1 1 1 1 1 1 1 1 ",
", , , , r.r.r.r.0 8 8 8 0 0 0 0 0 0 0 0 0 0 . .     + + + + + +     o o + + o o o o o o + + + + @ @ * * 3 3 3 3 3 3 3 3 3 3 u u ] ] 7 7 1 1 1 1 1 1 1 1 1 1 1 1 ",
"; ; ; ; r.r.L L 7 7 7 7 7 7 7 7 7 7 7 7 7 7         + + + + + + o + X X                     X X + + + + * * > > > > 3 3 3 3 Y Y r.r.3 3 ; ; ; ; - - - - & & $ $ ",
"; ; ; ; r.r.L L 7 7 7 7 7 7 7 7 7 7 7 7 7 7         + + + + + + o o X X                     X X + + + + * * > > > > 3 3 3 3 Y Y r.r.3 3 ; ; ; ; - - - - & & $ $ ",
", , u u r.r.z z 9 9 ; ; ; ; ; ; ; ; ; ; - -         + + + + + + o o     * * 4 4 * * + + o o     o o + + + + $ $ $ * > > 3 3  . .r.r.z z - - @ @ @ @ @ @ O O @ @ ",
", , u u r.r.z z 9 9 ; ; ; ; ; ; ; ; ; ; - -         + + + + + + o o     * * 4 4 * * + + o o     . . + + + + $ $ $ $ > > 3 2  . .r.r.z z - - @ @ @ @ @ O O O @ @ ",
"u u r.r.r.r.] ] G G q q q q 9 9 q q q q 4 q         + + + + + + X X 4 4 r.r.r.r.g g 3 3 3 3 $ $     + + + + : : 4 4 u u r.r.r.r. . .r.r.z z 3 3 3 3 3 3 3 3 3 3 ",
"u u r.r.r.r.] ] G G q q q q 9 9 q q q q 4 4         + + + + + + X X 4 4 r.r.r.r.g g 3 3 3 3 $ $     + + + + : : 4 4 u u r.r.r.r. . .r.r.z z 3 3 3 3 3 3 3 3 3 3 ",
"r.r.r.r.r.r.] ] ] ]  . . . .r.r.r.r.r.r. . .        + + + + + + 4 4 r.r.r.r.r.r.r. . .r.r.r.g g         + + : : r.r.r.r.r.r.r.r.r.r.r.r.r.r.r.r.r.r.r.r.r.r.r.r.",
"r.r.r.r.r.r.] ] Y Y  . . . .r.r.r.r.r.r. .]         + + + + + + 4 4 r.r.r.r.r.r. . .r.r.r.r.g g         + + : : r.r.r.r.r.r.r.r.r.r.r.r.r.r.r.r.r.r.r.r.r.r.r.r.",
"G G G G d d q q q q f f r.r.r.r.Y E u u u u         + + + + * * Y Y r.r.r.r.g g 4 4 u u u u u u         + + * * z z G G G G z z z z ] G  .r.r.r.r.r.G G u u G G ",
"G G G G d d q q q q f f r.r.r.r.Y Y u u u u         + + + + * * Y Y r.r.r.r.z g 4 4 u u u u u u         + + * * z z G G G G z z z z N N r.r.r.r.r.r.G G u u G G ",
"p.p.p.p.p.p.6.6.&.*.d d ] ] ] ] q q 3 3 3 3         + + + + $ $ z z r.r.Y Y 9 9 7 7 7 7 w w w w     X X + + * * w w $.+.w w w w 9 9 q q G z  .r.] ] 0 0 0 0 0 0 ",
"p.p.p.p.p.p.6.6.&.&.d d ] ] ] ] q q 3 3 3 3         + + + + $ $ z z r.r.Y Y 9 9 7 7 7 7 w w w w     X X + + * * w w +.+.w w w w 9 9 q q G z  .r.] ] 0 0 0 0 0 0 ",
"h.h.z.z.z.z.z.z.z.z.5.5. . .G G q q 9 9 3 3 o o     + + + + @ @ 3 3 r.r.9 9 1 1 1 1 1 7 7 7 7 7 . . + + + + @ * 7 7 7 7 7 7 7 7 1 1 1 1 7 7 r.r.w w 0 0 0 0 0 0 ",
"h.h.z.z.z.z.z.z.z.z.5.5. . .G G q q 9 9 3 3 o o     + + + + @ @ 3 3 r.r.9 9 1 1 1 1 7 7 7 7 7 7 . . + + + + @ @ 7 7 7 7 7 7 7 7 1 1 1 1 7 7 r.r.w w 0 0 0 0 0 0 ",
"e e r r r r r r r r r r r.r.u u 3 3 3 3 3 3 @ @     o o + + + + - - r.r.7 7 1 1 1 1 1 1 1 1 , , o o + + + + @ @ 7 7 1 1 1 1 1 1 , , , , ; ; r.r.0 0 0 0 0 0 0 0 ",
"e e r r r r r r r r r r r.r.u u 3 3 3 3 3 3 @ @     o o + + + + - -  . .7 7 1 1 1 1 1 1 1 1 , , o o + + + + @ @ 7 7 1 1 1 1 1 1 , , , , ; ; r.r.0 0 0 0 0 0 0 0 ",
"8 7 8 8 8 8 8 8 8 8 8 8 r.r.< < * * * * > > * *         + + + + o o Y Y > > - - - - - - & & + + + + + + + + + + $ $ @ @ @ @ O O O O O O - - r.r.7 7 0 0 0 0 0 0 ",
"8 7 8 8 8 8 8 8 8 8 8 8 r.r.< < * * * * > > * *         + + + + o o Y Y > > - - - - - - & & + + + + + + + + + + $ $ @ @ @ @ O O O O O O - - r.r.7 7 0 0 0 0 0 0 ",
"; ; ; ; - - ; ; ; ; q q r.r.u u $ $ $ $ $ $ $ $         o o + + o o * * 3 3 & & @ @ @ @ + + + + + + o o X X O o O O O O O O O O O O @ @ z z ] ] u u w w 0 0 0 0 ",
"; ; ; ; - - ; ; ; ; q q r.r.u u $ $ $ $ $ $ $ $         o o + + o o * * 3 3 & & @ @ @ @ + + + + + + o o X X O O O O O O O O O O O O @ @ z z ] ] u u w w 0 0 0 0 ",
"1 1 3 3 1 1 3 3 3 3  . . . .r.r.5 5 < < < < < < $ $         . . + + + + + + @ @ + + + + + + + + X X     . . - - * * - - > > > > > > 4 4 u u u u u u u u w w w w ",
"1 1 3 3 1 1 3 3 3 3  . . . .r.r.5 5 < < < < < < $ $         . . + + + + + + @ @ + + + + + + + + X X     . . - - * * - - > > > > > > 4 4 u u u u u u u u w w w w ",
"Y Y  . .] ] ] ] z z ] ] r.r.r.r.r.r.r.r.r.r.r.r.r.r.* *             X X o o o o o o X X                 z z r.r.] ] ] ] ] ] z z G G G G u u q q q q u u u u u u ",
"Y Y  . .]  .] ] z z ] ] r.r.r.r.r.r.r.r.r.r.r.r.r.r.* *             X X + o o o o o X X                 z z r.r.] ] ] ] ] ] z z G G G G u u q q q q u u u u u u ",
"q q q q ] ] ] ] f z ] ]  . . . . . . . .Y Y Y Y Y ] Y Y + +                                         < < r.r.r.r.r.r.r.r.r.r.r.r.r.r.r.r.G G d d d d d d d d d d ",
"q q q q ] ] ] ] f f ] ]  . . . . . . . .Y Y Y Y Y ] Y Y + +                                         < < r.r.r.r.r.r.r.r.r.r.r.r.r.r.r.r.G G d d d d d d d d d d ",
", 1 , , , , z z f f Y Y K K z z K K L L L ] L L z z z z z z < < + +                         X X ; ; e e $.$.$.$.$.$.$.$.r.r.r.r.] ] 7 7 7 7 7 7 7 9 7 7 7 7 9 9 ",
"1 1 , , , , f z f z Y Y K K z z K K L L L L L ] z z z z z z < < + +                         X X ; ; e e $.$.$.$.$.$.$.$.r.r.r.r.] ] 7 7 7 7 7 7 7 7 7 7 7 7 9 9 ",
"w w w w 9 9 7 7 ] ] z z d d A A 7.7.0.0.d.d.d.d.d.d.d.d.0.0.F F A A 3 3 * * * * * * @ @ ; ; w w 1.1.6.6.6.6.6.6.6.6.1.1.*.*.r.r.w w 7 7 7 7 7 7 7 7 7 7 7 7 q q ",
"w w w w 9 9 9 7 ] ] z z d c A A 7.7.0.0.d.d.d.d.d.d.d.d.0.0.F F A A 3 3 * * * * * * @ @ ; ; w w 1.1.6.6.6.6.6.6.6.6.1.1.*.*.r.r.q w 7 7 7 7 7 7 7 7 7 7 7 7 q q ",
"=.$.$.$.e e 7 7 r.r.4 4 q q y y u u d d A G G G A G d d u u q q q q 3 3 3 3 3 3  . .0 0 e e e e r r &.&.&.&.&.&.r r r r e e  . .7 7 1 1 1 1 1 1 7 7 7 1 7 7 7 7 ",
"&.$.$.$.e e 7 7 r.r.4 4 q q q q u u d d A A G G G G d d u u q q q q 3 3 3 3 3 3  . .0 0 e e e e r r &.&.&.&.&.&.r r r r e e  . .7 7 1 1 1 1 1 1 7 7 7 1 7 7 7 7 ",
"w w w w 7 7 - - Y Y 3 3 * * * * > > 3 3 3 3 3 3 3 3 3 3 3 3 3 3 3 3 3 3 3 3 3 3  . .0 0 0 0 0 0 0 0 0 0 0 0 0 0 0 0 8 8 8 8 ] ] ; ; - - - - - - - - , , 1 1 7 1 ",
"w w w w 7 7 - - Y Y 3 3 * $ * * > > 3 3 3 3 3 3 3 3 3 3 3 3 3 3 3 3 3 3 3 3 3 3  . .0 0 0 0 0 0 0 0 0 0 0 0 0 0 0 0 8 8 8 8 ] ] ; ; - - - - - - - - , , 1 1 1 1 ",
", , , , - - - - r.r.3 3 $ $ $ $ $ $ $ $ $ $ $ $ * * > > > > < < 3 3 < < - > * * r.r.< < & & % % @ @ @ @ @ @ @ @ O O O O O O r.r.o o o o o o o o O O @ @ - - , , ",
", , , , - - - - r.r.3 3 $ $ $ $ $ $ $ $ $ $ $ $ * * > > > > < < 3 3 < < - > * * r.r.< < & & % % @ @ @ @ @ @ @ @ O O O O O O r.r.o o o o o o o o O O @ @ - - , , ",
", , ; ; - - g g r.r.g g 3 3 * * $ $ $ $ $ $ $ $ $ $ # # # $ @ @ + + + + + + K K ] ] ] ] $ $ O O O O O O @ @ @ @ $ $ & & z z r.r.Y Y > > @ @ o o o o O O @ @ - ; ",
", , ; ; - - g g r.r.g g 3 3 * * $ $ $ $ $ $ $ $ $ $ # # # # @ @ + + + + + + z K ] ] ] ] $ $ O O O O O O @ @ @ @ $ $ & & z z r.r.Y Y > > @ @ O O o o O O @ @ - - ",
"q q u u ] ] r.r.r.r.r.r.Y Y g g 5 5 5 5 5 5 5 5 5 5 5 5 u u u 5 5 5 5 5 u u ] ] ] ] ] ] ] ] ] ] z z ] ] ] ] ] ] ] ]  . .r.r.r.r.r.r.Y Y z K g g 5 5 3 3 3 3 q q ",
"q q u u ] ] r.r.r.r.r.r.Y Y g g 5 5 5 5 5 5 5 5 5 5 5 5 u u 5 5 5 5 5 5 u u ] ] ] ] ] ] ] ] ] ] z z ] ] ] ] ] ] ] ]  . .r.r.r.r.r.r.Y ] z z g g 5 5 3 3 3 3 q q "
};
