/* XPM */
static const char *nb_7[] = {
/* columns rows colors chars-per-pixel */
"80 80 141 2 ",
"   c #1C130B",
".  c #21160E",
"X  c #21180F",
"o  c #241511",
"O  c #291713",
"+  c #251C15",
"@  c #2B1B15",
"#  c #271A18",
"$  c #2B1D19",
"%  c #311D17",
"&  c #321E19",
"*  c #2D211D",
"=  c #34211C",
"-  c #3B241D",
";  c #322521",
":  c #3C2621",
">  c #362825",
",  c #3D2923",
"<  c #372C29",
"1  c #3C2D29",
"2  c #3E312D",
"3  c #3E3431",
"4  c #40271F",
"5  c #432B24",
"6  c #492E25",
"7  c #442E29",
"8  c #482F28",
"9  c #4C3027",
"0  c #43322D",
"q  c #4C332B",
"w  c #53372D",
"e  c #50352D",
"r  c #52362C",
"t  c #55382E",
"y  c #55382F",
"u  c #56392F",
"i  c #55382F",
"p  c #433430",
"a  c #433530",
"s  c #443530",
"d  c #463531",
"f  c #473531",
"g  c #463631",
"h  c #453732",
"j  c #463732",
"k  c #443632",
"l  c #4B3731",
"z  c #483732",
"x  c #493732",
"c  c #4F3630",
"v  c #493731",
"b  c #473833",
"n  c #413834",
"m  c #433A36",
"M  c #433A37",
"N  c #473934",
"B  c #453A36",
"V  c #443A37",
"C  c #473A36",
"Z  c #463B37",
"A  c #463936",
"S  c #493833",
"D  c #4B3832",
"F  c #4A3833",
"G  c #4C3833",
"H  c #4B3834",
"J  c #4B3935",
"K  c #483B37",
"L  c #4A3B36",
"P  c #4D3934",
"I  c #4C3A34",
"U  c #4D3A35",
"Y  c #4D3B36",
"T  c #4F3B36",
"R  c #4B3C37",
"E  c #4F3C37",
"W  c #4A3A35",
"Q  c #443B38",
"!  c #453B38",
"~  c #463B38",
"^  c #473B38",
"/  c #453C39",
"(  c #463C38",
")  c #473C38",
"_  c #463C39",
"`  c #473C39",
"'  c #473D39",
"]  c #473D3A",
"[  c #473E3B",
"{  c #473F3C",
"}  c #463D39",
"|  c #483C38",
" . c #483C39",
".. c #483D39",
"X. c #493D39",
"o. c #4A3C38",
"O. c #4A3D39",
"+. c #483D3A",
"@. c #493D3A",
"#. c #483E3A",
"$. c #483E3B",
"%. c #493F3B",
"&. c #4B3E3A",
"*. c #4A3F3B",
"=. c #4C3D38",
"-. c #4F3F3A",
";. c #483F3C",
":. c #493F3C",
">. c #4C3F3C",
",. c #483E3A",
"<. c #503730",
"1. c #563930",
"2. c #533A32",
"3. c #583B31",
"4. c #593C33",
"5. c #5A3C33",
"6. c #5A3D33",
"7. c #5B3E35",
"8. c #583E37",
"9. c #5A3E36",
"0. c #5B3E34",
"q. c #513D38",
"w. c #503E38",
"e. c #513E39",
"r. c #503F39",
"t. c #523E39",
"y. c #49403C",
"u. c #48403D",
"i. c #49403D",
"p. c #4A403D",
"a. c #49403D",
"s. c #5D4036",
"d. c #5F4137",
"f. c #55413B",
"g. c #5E4138",
"h. c #5F4239",
"j. c #5F4339",
"k. c #5F4138",
"l. c #61453B",
"z. c #62453B",
"x. c #614339",
/* pixels */
"i.i.i.i.;.;.;.;.;.;.;.;.;.;.;.;.%.%.%.%.%.%.%.%.%.%.%.%.%.%.%.%.%.%.%.%.%.%.%.%.%.%.%.%.%.%.%.%.%.%.%.%.%.%.%.%.%.%.%.%.%.%.;.;.;.;.;.;.%.%.%.%.%.%.%.%.%.%.' ' ",
"i.i.i.i.;.;.;.;.;.;.;.;.;.;.%.;.%.%.%.%.%.%.%.%.%.%.%.%.%.%.%.%.%.%.%.%.%.%.%.%.%.%.%.%.%.%.%.%.%.%.%.%.%.%.%.%.%.%.%.%.%.%.;.;.;.;.;.;.%.%.%.%.%.%.%.%.%.%.' ' ",
"0 0 q q q q q q q q F F %.%.;.;.i.i.i.i.r.r.9.9.9.9.s.7.j.j.j.j.l.l.l.l.l.l.j.j.9.9.i.i.i.;.;.;.;.;.B B Y Y Y Y E E r.r.r.r.r.r.r.r.=.=.>.>.i.i.;.;.i.i.Y Y q q ",
"0 0 q q q q q q q q F F %.%.;.;.i.i.i.i.r.r.9.9.9.9.7.7.j.j.j.j.l.l.l.l.l.l.j.j.9.9.i.i.i.i.;.;.;.;.B B Y W Y Y Y E r.r.r.r.r.r.r.r.=.=.>.>.i.i.;.;.i.i.Y Y q q ",
"5 5 8 8 q q q q q q q q c c =.=.i.i.i.i.6.6.1.1.w w e e e e e e w w y y t t w w e e q q %.%.i.i.0 0 0 0 0 0 s s W W Y Y E E r.r.r.r.r.r.q.q.%.%.;.;.0 0 5 5 5 5 ",
"5 5 8 8 q q q q q q q q c c =.=.i.i.i.i.6.6.1.1.w w e e e e e e w w y y t t w w e e q q %.%.i.i.0 0 0 0 0 0 s s W W Y Y E E r.r.r.r.r.r.q.q.%.%.;.;.0 0 5 5 5 5 ",
", , , 5 , , 5 , 5 5 5 5 5 5 8 8 i.i.q q e e 9 9 9 9 9 9 9 9 9 9 9 9 9 9 9 9 9 9 9 9 9 9 W W %.%.1 1 1 1 1 1 1 1 0 0 0 0 s s F F F F F F v v s s ;.i., , : : : : ",
", , , , , , 5 5 5 5 5 5 5 5 8 8 i.i.q q 9 e 9 9 9 9 9 9 9 9 9 9 9 9 9 9 9 9 9 9 9 9 9 9 W W %.%.1 1 1 1 1 1 1 1 0 0 0 0 s s F F F F F F v v s s ;.i., , : : : : ",
", , - - - - - - - - - - = = = = i.i.5 5 4 4 - 4 5 5 - - - - - - - - - - - - - - - - - - s s i.i.; ; ; ; ; ; ; ; ; ; ; ; ; ; ; ; * * ; ; * * * * i.i.& & & & & & ",
", , - - - - - - - - - - = = = = i.i.5 5 4 4 - - 4 5 - - - - - - - - - - - - - - - - - - s s i.i.; ; ; ; ; ; ; ; ; ; ; ; ; ; ; ; ; ; ; ; * * * * i.i.& & & & & & ",
"- - = = = = = = = = & & & & 0 0 i.i.' ' = = = = = = = = = = = = = = = = = = = = & & = = %.%.;.;.> > $ $ $ $ $ $ $ $ $ $ $ $ $ $ $ $ $ $ # $ < < i.i.$ $ O O @ @ ",
"- - = = = = = = = = & & & & 0 0 i.i.' ' = = = = = = = = = = = = = = = = = = = = & = = = %.%.;.%.> > $ $ $ $ $ $ $ $ $ $ $ $ $ $ $ $ $ $ # $ < < i.i.$ $ O O @ @ ",
": : - - = = = = = = : : 0 0 ;.;.i.i.;.;.a a = = = = = = = = = = & & & & & & & & & & s s %.%.%.%.' ' ; ; $ $ $ $ $ $ $ $ # # # # $ $ ; ; 1 1 ' ' i.i.' ' > > @ @ ",
": : - - = = = = = = : : 0 0 { ;.i.i.;.;.a a = = = = = = = = = = & & & & & & & & & & s s %.%.%.%.' ' ; ; $ $ $ $ $ $ $ $ # # # # $ $ ; ; 1 1 ' ' i.i.' ' > > @ @ ",
"' ' ~ ~ ~ ~ ~ ~ ~ ~ ~ ~ %.%.%.%.;.;.i.i.i.i.%.%.K K Z K ' ' Z Z %.K Z Z Z ' ' %.%.%.%.%.%.%.W W B B ' ' ~ ' M M B B m m m m m m ~ ~ ' ' ' ' i.i.i.i.i.i.i.i.' ' ",
"' ' ~ ~ ~ ~ ~ ~ ~ ~ ~ ~ %.%.%.%.;.;.i.i.i.i.%.%.K K %.K ' ' Z Z %.%.Z Z ' ' %.%.%.%.%.%.%.%.W W B B ' ' ~ ~ M ~ B B m m m m m m ~ ~ ' ' ' ' i.i.i.i.i.i.i.i.' ' ",
"i.i.;.;.;.;.i.i.i.i.%.%.%.%.%.%.%.%.%.%.;.i.m m + +     o o * * * * * * # # # # # # # # + + + + + + # # * * * * * * 2 2 i.i.i.i.i.i.i.i.i.i.s s v v v v G G G Y ",
"i.i.;.;.;.;.i.i.i.i.%.%.%.%.%.%.%.%.%.%.;.i.m m + +     o o * * * * * * # # # # # # # # + + + + + + # # * * * * * * 2 2 i.i.i.i.i.i.i.i.i.i.s s v v v v G G G Y ",
"q q q q F F i.i.{ { 0 2 0 0 0 0 s s s s b b # #         o o + + + + + + + + + + + + + + + + + + + + + + + + + + + + + + * * i.i.i.i.K K w w w w y y 3.3.6.6.6.6.",
"q q q q F F i.i.{ { 0 2 0 0 0 0 s s s s b s # #         o o + + + + + + + + + + + + + + + + + + + + + + + + + + + + + + * * i.i.i.i.K K w w w w y y 3.3.6.6.6.6.",
"9 9 9 9 9 9 %.%.2 2 1 1 1 1 1 1 1 1 1 1 1 1 + +                                                             o o + + + + # # m m %.%.9 9 9 9 9 9 9 9 9 9 9 9 e e ",
"9 9 9 9 9 9 %.%.2 0 1 1 1 1 1 1 1 1 1 1 1 1 + +                                                             o o + + + + # # m m %.%.9 9 9 9 9 9 9 9 9 9 9 9 e e ",
"6 6 6 6 6 6 %.%.1 1 1 1 1 1 1 1 1 1 1 1 1 1 1 1 o o                                                             + + + + * * ' ' %.%.9 9 9 9 9 9 9 9 9 9 9 9 9 9 ",
"6 6 6 6 6 6 %.%.1 1 1 1 1 1 1 1 1 1 1 1 1 1 1 1 o o                                                             + + + + * * ' ' %.%.9 9 9 9 9 9 9 9 9 9 9 9 9 9 ",
"5 5 5 5 5 5 %.%.; ; = = ; ; = = = = = = = = = ; ; ; 2 2 & & $ $ $ $ @ @ @ @ $ $ $ $ $ $ & & = = = = = =         + + + + * * i.i.B B - - - - - - - - - - - - 5 5 ",
"5 5 5 5 5 5 %.%.; ; = = ; ; = = = = = = = = = ; ; ; 2 2 & & $ $ $ $ @ @ @ @ $ $ $ $ $ $ & & = = = = = =         + + + + * * i.i.B B - - - - - - - - - - - - 5 5 ",
"5 5 5 5 , , %.%.= = * * * * * * $ $ $ $ $ $ $ $ * * { { : : @ @ @ @ @ @ @ @ @ @ @ @ @ @ @ O O @ O O . .     o o + + + + 1 1 i.i.%.%.1 1 @ @ @ @ % % $ $ % % & & ",
"5 5 5 5 , , %.%.= = * * * * * * $ $ $ $ $ $ $ $ * * ' { : : @ @ @ @ @ @ @ @ @ @ @ @ @ @ O O O @ O O . .     o o + + + + 1 1 i.i.%.%.1 1 @ @ @ @ % % $ $ % % & & ",
"6 6 5 5 b b i.i.n n ; ; * * * * $ $ * * ; ; < < n n i.i.B B > > $ $ $ $ @ @ @ @ @ @ @ @ $ $ $ $ $ $         + + + + + + B B B B i.i.' ' 2 2 - - % & & & % % = = ",
"6 6 5 5 b b i.i.n n ; ; * * * * $ $ * * ; ; < < n n i.i.B B > > $ $ $ $ @ @ @ @ @ @ @ @ $ $ $ $ $ $         + + + + + + B B B B i.i.' ' 2 2 - - % % & & % % = = ",
"%.%.W W i.i.i.i.i.i.' ' m m m M M M Q Q ' ' i.i.i.i.i.i.i.i.%.%.n n a a p p 0 0 a a s a a a 3 3 ; ;     X X + + + + * * s s s s ' %.i.i.i.i.i.i.i.i.i.i.%.%.%.%.",
"%.%.W W i.i.i.i.i.i.' ' m m m M M M Q Q ' ' i.i.i.i.i.i.i.i.%.%.n n a a p p 0 0 s s s a a a 3 3 ; ;     X X + + + + * * s s s s ' ' i.i.i.i.i.i.i.i.i.i.%.%.%.%.",
"s s i.i.i.i.i.i.i.i.v v q q q q q q q q 0 0 0 0 0 0 0 0 B B %.%.;.;.i.i.i.i.i.i.;.i.3 3 < < < <         + + + + + + < < 0 0 s s B B i.i.0 0 1 1 0 0 0 0 s s s s ",
"s s i.i.i.i.i.i.i.i.v v q q q q q q q q 0 0 0 0 0 0 0 0 B B %.%.;.;.i.i.i.i.i.i.;.;.3 3 < < < <         + + + + + + < < 0 0 s s B B i.i.0 0 1 1 0 0 0 0 s s s s ",
", , ' ' i.i.i.i.G G q q w w w w w w e e w e e e 9 9 9 9 6 6 8 8 F F %.%.i.i.~ ~ 2 1 > > > > # #         + + + + * * 1 1 2 2 B B B B B B , , 5 5 5 5 q q q q <.<.",
", , ' ' i.i.i.i.G G q w w w w w w w e e e e e e 9 9 9 9 6 6 8 8 F F %.%.i.i.~ ~ 2 2 > > > > # #         + + + + * * 1 1 2 2 B B B B B B , , 5 5 5 5 q q q q <.<.",
", , 7 7 i.i.i.i.9 9 9 9 e e e e e e w w w w w w w w e e 9 9 9 9 q q K K ' ' 2 2 1 1 1 1 1 1         + + + + + + 1 1 0 0 0 0 s s B B 5 5 , , , , , , 5 5 5 5 8 8 ",
", , 7 7 i.i.i.i.9 9 9 9 e e e e e e w w w w w w w w e e 9 9 9 9 q q K K ' ' 2 2 1 1 1 1 1 1         + + + + + + 1 1 0 0 0 0 s s B W 5 5 , , , , , , 5 5 5 5 8 8 ",
": : : : i.i.i.i.9 9 6 6 9 9 9 9 9 9 9 9 9 9 9 9 9 9 - -         + + + + + + + + + + + + + + + + + + + + + + + + + + * * > > a a %.%., , , , , , , , , , , , , , ",
": : : : i.i.i.i.9 9 6 6 9 9 9 9 9 9 9 9 9 9 9 9 9 9 - -         + + + + + + + + + + + + + + + + + + + + + + + + + + * * > > a a %.%., , , , , , , , , , , , , , ",
"- - - - i.i.^ ^ 5 5 5 5 5 5 5 5 5 5 5 5 5 5 5 5 4 4 . .         + + + + + + + + + + + + + + + + + + + + + + o o X X o o > > ' ' i.i.1 1 - - - - = = = = & & $ $ ",
"- - - - i.i.^ ^ 5 5 5 5 5 5 5 5 5 5 5 5 5 5 5 5 4 4 . .         + + + + + + + + + + + + + + + + + + + + + + o o o o o o > > ' ' i.i.1 1 - - - - = = = = & & $ $ ",
": : a a i.i.B B 7 7 - - - - - - - - - - = = = = = = . .                             . . + + + + + + + +             o o < < i.i.i.i.B B - - @ @ @ @ @ @ O O @ @ ",
": : a a i.i.B B 7 7 - - - - - - - - - - = = = = = = . .                             . . + + + + + + + +             o o < < i.i.i.i.B B - - @ @ @ @ @ O O O @ @ ",
"s s i.i.i.i.%.%.W W 0 0 0 0 7 7 0 0 0 0 0 0 0 0 0 0 2 2 * * + + o o                     + + + + + + o o o o + + * * 2 2 i.i.i.i.;.;.i.i.B B 1 1 < 1 1 1 1 1 1 1 ",
"s s i.i.i.i.%.%.W W 0 0 0 0 7 7 0 0 0 0 0 0 0 0 0 0 2 2 * * + + o o                     + + + + + + o o o o + + * * 2 2 i.i.i.i.;.;.i.i.B B 1 1 < < 1 1 1 1 1 1 ",
"i.i.i.i.i.i.%.%.' %.;.;.;.;.i.i.i.i.i.i.i.i.i.i.i.i.i.i.;.;.;.;.i.i.i.i.i.i.i.i.        + + + + + + < < i.i.i.i.i.i.i.i.i.i.i.i.i.i.i.i.i.i.i.i.i.i.i.i.i.i.i.i.",
"i.i.i.i.i.i.%.%.' ' ;.;.;.;.i.i.i.i.i.i.i.i.i.i.i.i.i.i.;.;.;.;.i.i.i.i.i.i.i.i.        + + + + + + < < i.i.i.i.i.i.i.i.i.i.i.i.i.i.i.i.i.i.i.i.i.i.i.i.i.i.i.i.",
"W W W W v v 0 0 0 0 b b i.i.i.i.' { n n a a a a n n a a a a ~ ~ i.i.i.i.i.i.* *     o o + + + + # # a a B B W W W W W W W W B B B B ' B ;.;.i.i.i.i.W W s s W W ",
"W W W W v v 0 0 0 0 b b i.i.i.i.' ' n n a a a a n n a a a a ~ ~ i.i.i.i.i.i.* *     o o + + + + # # a a B B W W W W W W W W B B B B ' ~ i.i.i.i.i.i.W W s s W W ",
"s.s.j.j.s.s.7.7.1.2.v v %.%.%.%.0 0 1 1 1 1 1 1 1 1 1 1 1 1 2 2 B B i.i.B B         + + + + + + , , q q q q <.<.<.<.<.<.q q q q 8 8 0 0 B B ;.i.%.%.9 9 9 9 9 9 ",
"s.s.s.s.s.s.7.7.1.1.v v %.%.%.%.0 0 1 1 1 1 1 1 1 1 1 1 1 1 2 2 B B i.i.B B         + + + + + + , , q q q q <.<.<.<.<.<.q q q q 8 8 0 0 B B i.i.%.%.9 9 9 9 9 9 ",
"j.j.x.x.x.x.x.x.x.x.9.9.;.;.W W 0 0 7 7 1 1 1 1 1 1 1 1 1 1 1 1 1 1 i.i.+ +     X X + + + + # # 5 5 5 5 5 5 5 5 5 5 5 5 5 5 5 5 , , , , 5 5 i.i.q q 9 9 9 9 9 9 ",
"j.j.x.x.x.x.x.x.x.x.9.9.;.;.W W 0 0 7 7 1 1 1 1 1 1 1 1 1 1 1 1 1 1 i.i.+ +     X X + + + + # # 5 5 5 5 5 5 5 5 5 5 5 5 5 5 5 5 , , , , 5 5 i.i.q q 9 9 9 9 9 9 ",
"w w t t y y y y y y y y i.i.a a 1 1 1 1 1 1 1 1 1 1 1 1 1 1 1 1 > > a a         o o + + + + - - , , 5 , , , , 5 5 5 , , , , , , : : : : - - i.i.9 9 9 9 9 9 9 9 ",
"w w t t y y y y y y y y i.i.a a 1 1 1 1 1 1 1 1 1 1 1 1 1 1 1 1 > > a a         o o + + + + - - , , , , , , 5 5 , 5 , , , , , , : : : : - - i.i.9 9 9 9 9 9 9 9 ",
"5 5 6 6 6 6 6 6 6 6 6 6 i.i.> > * * * * ; ; ; ; ; ; * * $ $ # + + + + +         + + + + # # = = & & & & $ $ $ $ $ $ @ @ @ @ @ @ O O O O = = i.i.5 5 9 9 9 9 9 9 ",
"5 5 6 6 6 6 6 6 6 6 6 6 i.i.> > * * * * ; ; ; ; ; ; * * $ $ # + + + + +         + + + + # # = = & & & & $ $ $ $ $ $ @ @ @ @ @ @ O O O O = = i.i.5 5 9 9 9 q 9 9 ",
"- - - - - - - - - - 0 0 i.i.a a $ $ $ $ $ $ $ $ # # + + + + $ $ ; ;         o o + + + + O O o o O O o o o o o o o o o o o o o o o o @ @ B B %.%.a a q q 9 9 9 9 ",
"- - - - - - - - - - 0 0 i.i.a a $ $ $ $ $ $ $ $ # # + + + + $ $ ; ;         o o + + + + O O o o O O o o o o o o o o o o o o o o o o @ @ B B %.%.a a q q 9 9 9 9 ",
", , , , , , , , , , ;.;.;.;.i.i.3 3 > > > > > > ; ; ; ; ; ; 3 3 * *         + + + + # # = = $ $ $ $ * * = = = = * * = = ; ; > > > > 2 2 s s s s s s s s q q q q ",
", , , , , , , , , , ;.;.;.;.i.i.3 3 > > > > > > ; ; ; ; ; ; 3 3 * *         + + + + # # = = $ $ $ $ * * = = = = * * = = ; ; > > > > 2 2 s s s s s s s s q q q q ",
"' ' ;.;.;.;.%.%.B B %.%.i.i.i.i.i.i.i.i.i.i.i.i.i.i.i.i.i.i.i.i.+ +     o o + + + + s s s s s s %.%.i.i.i.i.i.i.%.%.%.%.%.%.W W W W W W s s 0 0 0 0 s s s s s s ",
"' ' ;.;.;.;.%.%.B B %.%.i.i.i.i.i.i.i.i.i.i.i.i.i.i.i.i.i.i.i.i.+ +     o o + + + + s s s s s s %.%.i.i.i.i.i.i.%.%.%.%.%.%.W W W W W W s s 0 0 0 0 s s s s s s ",
"0 0 0 0 %.%.%.%.B B %.%.;.;.;.;.;.;.;.;.' ' ' ' ' %.' ' ' %.' ' * *     X X + + 0 0 B B B B %.%.i.i.i.i.i.i.i.i.i.i.i.i.i.i.i.i.i.i.i.i.W W v v v v v v v v v v ",
"0 0 0 0 %.%.%.%.B b %.%.%.%.;.;.;.;.;.;.' ' ' ' ' %.' ' ' ' ' ' * *     X X + + 0 0 B B B B %.%.i.i.i.i.i.i.i.i.i.i.i.i.i.i.i.i.i.i.i.i.W W v v v v v v v v v v ",
", , : : : : B B B b ' ' B ~ B B ~ ~ ^ ^ ^ %.^ ^ B B B B B B s s s s * * + + 3 3 i.i.i.i.G G w w w w w w 2.2.2.2.2.2.2.2.i.i.i.i.%.%.5 5 5 5 5 5 5 5 5 5 5 5 8 8 ",
", , : : : : B B B B ' ' ~ ~ B B ~ ~ ^ ^ ^ ^ ^ %.B B B B B B h s s s * * + + 3 3 i.i.i.i.G G w w w w w w 2.2.2.2.2.2.2.2.i.i.i.i.%.%.5 5 5 5 5 5 5 5 5 5 5 5 8 8 ",
"q q q q 8 8 5 5 %.%.B B v v Y Y q.q.r.r.f.f.f.f.f.f.f.f.r.r.E E Y Y s s 0 0 ' ' i.i.q q t t 3.3.6.6.7.7.7.7.7.7.7.7.6.6.2.2.i.i.0 0 5 5 5 5 5 5 5 5 8 8 5 8 0 0 ",
"q q q q 8 8 8 5 %.%.B B v v Y Y q.q.r.r.f.f.f.f.f.f.f.f.r.r.E E Y Y s s 0 0 ' ' i.i.q q t t 3.6.6.6.7.7.7.7.7.7.7.7.6.6.2.2.i.i.0 q 5 5 5 5 5 5 5 5 8 8 5 8 0 0 ",
"2.2.2.2.q q 5 5 i.i.2 2 0 0 s s s s v v Y W W W W W v v s s 0 0 0 0 1 1 1 1 1 1 ;.;.9 9 e e w w y y 1.1.1.1.1.1.y y t t w w ;.;.5 5 , , , , , , 5 , : : 5 5 5 5 ",
"1.2.2.2.q q 5 5 i.i.2 2 0 0 0 0 s s v v Y Y W W W W v v s s 0 0 0 0 1 1 1 1 1 1 ;.;.9 9 e e w w y y 1.1.1.1.1.1.y y t t w w ;.;.5 5 , , , , , , 5 5 5 : 5 5 5 5 ",
"q q q q 5 5 = = ' ' 1 1 * * * * ; ; 1 1 1 1 1 1 1 1 1 1 1 1 1 1 1 1 1 1 1 1 1 1 ;.;.9 9 9 9 9 9 9 9 9 9 9 9 9 9 9 9 6 6 6 6 %.%.- - = = = = = = = = : : , , , , ",
"q q q q 5 5 = = ' ' 1 1 * $ * * ; ; 1 1 1 1 1 1 1 1 1 1 1 1 1 1 1 1 1 1 1 1 1 1 ;.;.9 9 9 9 9 9 9 9 9 9 9 9 9 9 9 9 6 6 6 6 %.%.- - = = = = = = = = : : : : , , ",
": : : : = = = = i.i.1 1 $ $ $ $ $ $ $ $ $ $ $ $ * * ; ; > > > > 1 1 > > = ; * * i.i.: : & & % % @ @ @ @ @ @ @ @ O O O O O O i.i.o o o o o o o o o o @ @ = = : : ",
": : : : = = = = i.i.1 1 $ $ $ $ $ $ $ $ $ $ $ $ * * ; ; > > > > 1 1 > > = ; * * i.i.: : & & % % @ @ @ @ @ @ @ @ O O O O O O i.i.o o o o o o o o o o @ @ = = : : ",
": : - - = = m m i.i.m m 1 1 * * $ $ $ $ $ $ $ $ $ $ $ $ # # + + + + + + + + ~ ~ %.%.%.%.$ $ O O O O O O @ @ @ @ $ $ & & B B i.i.' ' ; ; @ @ o o o o o o @ @ - - ",
": : - - = = m m i.i.m m 1 1 * * $ $ $ $ $ $ $ $ $ $ $ $ # # + + + + + + + + B ~ %.%.%.%.$ $ O O O O O O @ @ @ @ $ $ & & B B i.i.' ' ; ; @ @ o o o o o o @ @ - - ",
"0 0 s s %.%.i.i.i.i.i.i.' ' m m 3 3 3 3 3 3 3 3 3 3 3 3 a a 3 3 3 3 3 3 n n %.%.%.%.%.%.%.%.%.%.B B %.%.%.%.%.%.%.%.;.;.i.i.i.i.i.i.%.' B B m m 3 3 1 1 1 1 0 0 ",
"0 0 s s %.%.i.i.i.i.i.i.' ' m m 3 3 3 3 3 3 3 3 3 3 3 3 a a 3 3 3 3 3 3 n n %.%.%.%.%.%.%.%.%.%.B B %.%.%.%.%.%.%.%.;.;.i.i.i.i.i.i.%.' B B m m 3 3 1 1 1 1 0 0 "
};
