/* XPM */
static const char *nb_8[] = {
/* columns rows colors chars-per-pixel */
"80 80 139 2 ",
"   c #1D130B",
".  c #21170E",
"X  c #21180F",
"o  c #241611",
"O  c #281713",
"+  c #251C14",
"@  c #2B1A15",
"#  c #271A18",
"$  c #2B1D19",
"%  c #311D17",
"&  c #321E19",
"*  c #2D221C",
"=  c #34211C",
"-  c #3B241D",
";  c #2F2520",
":  c #322521",
">  c #3C2621",
",  c #352925",
"<  c #3D2923",
"1  c #372D29",
"2  c #3C2D29",
"3  c #3F322D",
"4  c #3F3431",
"5  c #40271F",
"6  c #422B24",
"7  c #492E25",
"8  c #442E29",
"9  c #473027",
"0  c #4C3027",
"q  c #43322D",
"w  c #4B332B",
"e  c #52362C",
"r  c #55382F",
"t  c #433430",
"y  c #433530",
"u  c #423532",
"i  c #443530",
"p  c #463531",
"a  c #473531",
"s  c #463631",
"d  c #453732",
"f  c #463732",
"g  c #443632",
"h  c #4B3731",
"j  c #483732",
"k  c #493732",
"l  c #4F3630",
"z  c #493731",
"x  c #473833",
"c  c #423935",
"v  c #433A37",
"b  c #473934",
"n  c #453A36",
"m  c #443A37",
"M  c #473A36",
"N  c #463B36",
"B  c #453A36",
"V  c #493833",
"C  c #4B3832",
"Z  c #4A3833",
"A  c #4C3833",
"S  c #4B3834",
"D  c #4B3935",
"F  c #483A37",
"G  c #4A3B36",
"H  c #4D3934",
"J  c #4C3A34",
"K  c #4D3A35",
"L  c #4D3B36",
"P  c #4F3B36",
"I  c #4B3C37",
"U  c #4F3C37",
"Y  c #4A3A35",
"T  c #443B38",
"R  c #453B38",
"E  c #463B38",
"W  c #473B38",
"Q  c #453C39",
"!  c #473C38",
"~  c #463C39",
"^  c #473D39",
"/  c #473D3A",
"(  c #473E3B",
")  c #473F3C",
"_  c #463C39",
"`  c #483C38",
"'  c #483C39",
"]  c #483D39",
"[  c #493D39",
"{  c #4A3C38",
"}  c #4A3D39",
"|  c #483D3A",
" . c #493D3A",
".. c #483E3A",
"X. c #483E3B",
"o. c #493F3B",
"O. c #4B3E3A",
"+. c #4C3D38",
"@. c #4D3D38",
"#. c #4F3F3A",
"$. c #483F3C",
"%. c #493F3C",
"&. c #4C3F3C",
"*. c #483E3A",
"=. c #503730",
"-. c #503A33",
";. c #563930",
":. c #513A34",
">. c #533A32",
",. c #583B31",
"<. c #593C33",
"1. c #5A3C33",
"2. c #5A3D33",
"3. c #5B3E35",
"4. c #583E37",
"5. c #5A3E36",
"6. c #5B3E35",
"7. c #513D38",
"8. c #503E38",
"9. c #513E39",
"0. c #503F39",
"q. c #523E39",
"w. c #49403C",
"e. c #48403D",
"r. c #49403D",
"t. c #4A403D",
"y. c #4B413E",
"u. c #49403D",
"i. c #5D4036",
"p. c #5F4137",
"a. c #53403A",
"s. c #55413B",
"d. c #5E4138",
"f. c #5F4239",
"g. c #5F4339",
"h. c #5F4138",
"j. c #61453B",
"k. c #62453B",
"l. c #614339",
/* pixels */
"r.r.r.r.$.$.$.$.$.$.$.$.$.$.$.$.o.o.o.o.o.o.o.o.o.o.o.o.o.o.o.o.o.o.o.o.o.o.o.o.o.o.o.o.o.o.o.o.o.o.o.o.o.o.o.o.o.o.o.o.o.o.$.$.$.$.$.$.o.o.o.o.o.o.o.o.o.o.o.o.",
"r.r.r.r.$.$.$.$.$.$.$.$.$.$.o.$.o.o.o.o.o.o.o.o.o.o.o.o.o.o.o.o.o.o.o.o.o.o.o.o.o.o.o.o.o.o.o.o.o.o.o.o.o.o.o.o.o.o.o.o.o.o.$.$.$.$.$.$.o.o.o.o.o.o.o.o.o.o.o.o.",
"q q w w w w w w w w Z Z o.o.$.$.r.r.r.r.0.0.5.5.5.5.i.6.g.g.g.g.j.j.j.j.j.j.g.g.5.5.r.r.r.$.$.$.$.$.N N L L L L L U 0.0.0.0.0.0.0.0.+.+.&.&.r.r.$.$.r.r.L L w w ",
"q q w w w w w w w w Z Z o.o.$.$.r.r.r.r.0.0.5.5.5.5.6.6.g.g.g.g.j.j.j.j.j.j.g.g.5.5.r.r.r.$.$.$.$.$.N N L L L L L U 0.0.0.0.0.0.0.0.+.+.&.&.r.r.$.$.r.r.L L w w ",
"6 6 8 8 w w w w w w w w l l +.+.r.r.r.r.1.1.;.;.e e e e e e e e e e r r r r e e e e w w o.o.r.r.q q q q q q i i Y Y L L U U 0.0.0.0.0.0.:.:.o.o.$.$.q q 6 6 6 6 ",
"6 6 8 8 w w w w w w w w l l +.+.r.r.r.r.1.1.;.,.e e e e e e e e e e r r r r e e e e w w o.o.r.r.q q q q q q i i Y Y L L U U 0.0.0.0.0.0.:.:.o.o.$.$.q q 6 6 6 6 ",
"< < < 6 < < 6 6 6 6 6 6 6 6 8 8 r.r.w w e e 0 0 0 0 0 0 0 0 0 0 0 0 0 0 0 0 0 0 0 0 0 0 Y Y o.o.2 2 2 2 2 2 2 2 q q q q i i Z Z Z Z Z Z z z i i $.r.< < > > > > ",
"< < < < < < 6 6 6 6 6 6 6 6 8 8 r.r.w w 0 e 0 0 0 0 0 0 0 0 0 0 0 0 0 0 0 0 0 0 0 0 0 0 Y Y o.o.2 2 2 2 2 2 2 2 q q q q i i Z Z Z Z Z Z z z i i $.r.< < > > > > ",
"< < - - - - - - - - - - = = = = r.r.6 6 5 5 - 5 6 6 - - - - - - - - - - - - - - - - - - i i r.r.: : : : : : : : : : : : : : : : = * : : * * * * r.r.& & & & & & ",
"< < - - - - - - - - - - = = = = r.r.6 6 5 5 - - 6 6 - - - - - - - - - - - - - - - - - - i i r.r.: : : : : : : : : : : : : : : : : : : : * * * * r.r.& & & & & & ",
"- - = = = = = = = = & & & & q q r.r.^ ^ = = = = = = = = = = = = = = = = = = = = = = = = o.o.o.o., , $ $ $ $ $ $ $ $ $ $ $ $ $ $ $ $ $ $ # # 1 1 r.r.$ $ O O @ @ ",
"- - = = = = = = = = & & & & q q r.r.^ ^ = = = = = = = = = = = = = = = = = = = = & = = = o.o.$.o., , $ $ $ $ $ $ $ $ $ $ $ $ $ $ $ $ $ $ # # 1 1 r.r.$ $ O O @ @ ",
"> > - - = = = = = = > > q q $.$.r.r.$.$.u u = = = = = = = = = = & & & & & & & & & & i i o.o.o.o.^ ^ : : $ $ # # $ $ $ $ # # # # $ $ : : 2 2 ^ ^ r.r.^ ^ , , @ @ ",
"> > - - = = = = = = > > q q ) $.r.r.$.$.u u = = = = = = = & = = & & & & & & & & & & i q o.o.o.o.^ ^ : : $ $ # # $ $ $ $ # # # # $ $ : : 2 2 ^ ^ r.r.^ ^ , , @ @ ",
"^ ^ E E E E E E E E E E o.o.$.o.$.$.r.r.r.r.o.o.F F ! ! ^ ! N N 2 2 * * * * * * * * * * 1 1 N N N N ^ ^ E ^ E E E N c c c c c c E E ^ ^ ^ ^ r.r.r.r.r.r.r.r.^ ^ ",
"^ ^ E E E E E E E E E E o.o.o.o.$.$.r.r.r.r.o.o.F F F F ^ ^ N N 2 2 * * * * * * * * * * 1 1 N N N N ^ ^ E E v E N N c c c c N c E E ^ ^ ^ ^ r.r.r.r.r.r.r.r.^ ^ ",
"r.r.$.$.$.$.r.r.r.r.o.o.o.o.o.o.o.o.o.o.$.r.r.r.r.r.r.r.c c * * + + + + + + + + + + + + + + + + * * 3 3 N N o.o.r.r.r.r.r.r.r.r.r.r.r.r.r.r.i i z z z z A A A L ",
"r.r.$.$.$.$.r.r.r.r.o.o.o.o.o.o.o.o.o.o.$.r.r.r.r.r.r.r.c c * * + + + + + + + + + + + + + + + + * * 3 3 N N o.o.r.r.r.r.r.r.r.r.r.r.r.r.r.r.i i z z z z A A L L ",
"w w w w Z Z r.r.) ) 3 3 q q q q i i i i x x Y Y r.r.$.$.+ + + + + + + + + + + + + + + + + + + + + + * * 2 2 :.:.-.-.a.a.r.r.r.r.r.r.F F e e e e r r ,.,.1.1.1.1.",
"w w w w Z Z r.r.) ) q 3 q q q q i i i i x i Y Y r.r.$.$.+ + + + + + + + + + + + + + + + + + + + + + * * 2 2 :.-.-.-.a.a.r.r.r.r.r.r.F F e e e e r ;.,.,.1.1.1.1.",
"0 0 0 0 0 0 o.o.q q 2 2 2 2 2 2 2 2 2 2 2 2 2 2 u u * *     + + + + + +                     + + + + + + $ $ < < w w 8 8 +.+.r.r.o.o.0 0 0 0 0 0 0 0 0 0 0 0 e e ",
"0 0 0 0 0 0 o.o.q q 2 2 2 2 2 2 2 2 2 2 2 2 2 2 u u * *     + + + + + +                     + + + + + + $ $ < < w w 8 8 +.+.r.r.o.o.0 0 0 0 0 0 0 0 0 0 0 0 e e ",
"7 7 7 7 7 7 o.o.2 2 2 2 1 2 2 2 2 2 2 2 2 2 2 2 2 2 . .     + + + +         @ @ = = - - + +     + + + + + + + + < < > > w w r.r.o.o.0 0 0 0 0 0 0 0 0 0 0 0 0 0 ",
"7 7 7 7 7 7 o.o.2 2 2 2 2 2 2 2 2 2 2 2 2 2 2 2 2 2 . .     + + + +         @ @ = = - - + +     + + + + + + + + < < > > w w r.r.o.o.0 0 0 0 0 0 0 0 0 0 0 0 0 0 ",
"6 6 6 6 6 6 o.o.: : = = : : = = = = = = = = = : $ $         + + + + . . $ $ = = = = = & = = . . + + + + + +     & & & & i i r.r.N N - - - - - - - - - - - - 6 6 ",
"6 6 6 6 6 6 o.o.: : = = : : = = = = = = = = = : $ $         + + + + . . $ $ & = = = = = = = . . + + + + + +     & & & & i i r.r.N N - - - - - - - - - - - - 6 6 ",
"6 6 6 6 < < o.o.= = * * * * * * $ $ $ $ $ $ $ $ + +         + + + + + O @ @ @ @ @ @ @ @ O O o o + + + + + +     O O @ @ E E r.r.o.o.2 2 @ @ @ @ % % $ $ % % & & ",
"6 6 6 6 < < o.o.= = * * * * * * $ $ $ $ $ $ $ $ + +         + + + + + + @ @ @ @ @ @ @ @ O O o o + + + + + +     O O @ @ E E r.r.o.o.2 2 @ @ @ @ % % $ $ % % & & ",
"7 7 6 6 x x r.r.c c : : * * * * $ $ * * : : 1 1 * *         + + + + @ @ @ @ @ @ @ @ @ @ $ $ + + + + + + + +     = = u u N N N N r.r.^ ^ 3 3 - - % & & & % % = = ",
"7 7 6 6 x x r.r.c c : : * * * * $ $ * * : : 1 1 * *         + + + + @ @ @ @ @ @ @ @ @ @ $ $ + + + + + + + +     = = u u N N N N r.r.^ ^ 3 3 - - % % & & % % = = ",
"o.o.Y Y r.r.r.r.r.r.^ ^ c c c v v v T T ^ ^ r.r.* *             + + , , q 3 q q i i i i u u + + + + + + . o     3 3 o.o.i i i i ^ ^ r.r.r.r.r.r.r.r.r.r.o.o.o.o.",
"o.o.Y Y r.r.r.r.r.r.^ ^ c c v v v v T T ^ ^ r.r.* *             + + , , q 3 q q i i i i u u + + + + + + . .     3 3 o.o.i i i i ^ ^ r.r.r.r.r.r.r.r.r.r.o.o.o.o.",
"i i r.r.r.r.r.r.r.r.z z w w w w w w w w q q q q * *             + + $ $ 1 1 4 4 r.r.4 4 ; ; + + + + + +     + + , , 1 1 q q i i N N r.r.3 3 2 2 q q q q i i z i ",
"i i r.r.r.r.r.r.r.r.z z w w w w w w w w q q q q * *             + + $ $ 1 1 4 4 r.r.4 4 ; ; + + + + + +     + + 1 , 1 1 q q i i N N r.r.3 3 2 2 q q q q i i z i ",
"< < ^ ^ r.r.r.r.A A e w e e e e e e e e e e e e 6 6 . .         X X + + + + * * * * * * + + + + + +         $ $ 2 2 2 2 3 3 N N N N N N < < 6 6 6 6 w w w w =.=.",
"< < ^ ^ r.r.r.r.A A e e e e e e e e e e e e e e 6 6 . .         X X + + + + * * * * * * + + + + + +         $ $ 2 2 2 2 3 3 N N N N N N < < 6 6 6 6 w w w w =.=.",
"< < 8 8 r.r.r.r.0 0 0 0 e e e e e e e e e e e e e e $ $                 + + + + + + + + + + + + + +     + + , , q q q q q q i i N N 6 6 < < < < < < 6 6 6 6 8 8 ",
"< < 8 8 r.r.r.r.0 0 0 0 e e e e e e e e e e e e e e $ $                 + + + + + + + + + + + + + +     + + , , q q q q q q i i N N 6 6 < < < < < < 6 6 6 6 8 8 ",
"> > > > r.r.r.r.0 0 7 7 0 0 0 0 0 0 0 0 0 0 0 0 0 0 7 7 . .     + + + + + + + + + + + + + + + + + + + + = * 2 2 2 2 2 2 2 2 u u o.o.< < < < < < < < < < < < < < ",
"> > > > r.r.r.r.0 0 7 7 0 0 0 0 0 0 0 0 0 0 0 0 0 0 7 7 . .     + + + + + + + + + + + + + + + + + + + + = = 2 2 2 2 2 2 2 2 u u o.o.< < < < < < < < < < < < < < ",
"- - - - r.r.W W 6 6 6 6 6 6 6 6 6 6 6 6 6 6 6 6 6 6 = = . . + + + + + + + + + + + + + + + + + + + + + + + + = = , , 2 2 2 2 ^ ^ r.r.2 2 - - - - = = = = & & $ $ ",
"- - - - r.r.W W 6 6 6 6 6 6 6 6 6 6 6 6 6 6 6 6 6 6 = = . . + + + + + + + + + + + + + + + + + + + + + + + + = = , , 2 2 2 2 ^ ^ r.r.2 2 - - - - = = = = & & $ $ ",
"> > u u r.r.N N 8 8 - - - - - - - - - - = = = = % %     + + + + + + + +                         + + + + . . o o $ $ = : 2 1 $.$.r.r.N N - - @ @ @ @ @ @ O O @ @ ",
"> > u u r.r.N N 8 8 - - - - - - - - - - = = = = % %     + + + + + + + +                         + + + +     o o $ $ : : 2 1 $.$.r.r.N N - - @ @ @ @ @ O O O @ @ ",
"i i r.r.r.r.o.o.Y Y q q q q 8 8 q q q q q q q q . . + + + + + + + +     * * 1 1 2 2 * * o o     . . + + + +     , , u u r.r.r.r.$.$.r.r.N N 2 2 2 2 2 2 2 2 2 2 ",
"i i r.r.r.r.o.o.Y Y q q q q 8 8 q q q q q q q q . . + + + + + + + +     * * 1 1 2 2 * * o o     . . + + + +     , , u u r.r.r.r.$.$.r.r.N N 2 2 1 1 2 2 2 2 2 2 ",
"r.r.r.r.r.r.o.o.^ o.$.$.$.$.r.r.r.r.r.r.r.r.1 1     + + + + + + + + c c r.r.r.r.$.$.$.r.r.r.; ;     + + + + + + , , r.r.r.r.r.r.r.r.r.r.r.r.r.r.r.r.r.r.r.r.r.r.",
"r.r.r.r.r.r.o.o.^ ^ $.$.$.$.r.r.r.r.r.r.r.r.1 1     + + + + + + + + c c r.r.r.r.$.$.$.r.r.r.; ;     + + + + + + , , r.r.r.r.r.r.r.r.r.r.r.r.r.r.r.r.r.r.r.r.r.r.",
"Y Y Y Y z z q q q q x x r.r.r.r.) ) c c u u + +     + + + + + + : : c c $.$.c c 3 3 u u u u u u $ $ + + + + + + + + Y Y Y Y N N N N o.Y $.r.r.r.r.r.Y Y i i Y Y ",
"Y Y Y Y z z q q q q x x r.r.r.r.^ ^ c c u u + +     + + + + + + : : c c $.$.c c 3 3 u u u u u u $ $ + + + + + + + + Y Y Y Y N N N N F Y r.r.r.r.r.r.Y Y i i Y Y ",
"i.i.g.g.i.i.6.6.;.;.z z o.o.o.o.q q 2 2 2 2 . . . . + + + + $ $ c c r.r.^ ^ 8 8 6 6 6 6 w w w w 8 8 + + + + + + . . =.=.w w w w 8 8 q q Y N $.r.o.o.0 0 0 0 0 0 ",
"i.i.i.i.i.i.6.6.;.;.z z o.o.o.o.q q 2 2 2 2 . . X . + + + + $ $ c c r.r.^ ^ 8 8 6 6 6 6 w w w w 8 8 + + + + + + . . =.=.w w w w 8 8 q q N N $.r.o.o.0 0 0 0 0 0 ",
"g.g.l.l.l.l.l.l.l.l.5.5.$.$.Y Y q q 8 8 2 2     + + + + + + * * 2 2 r.r.8 8 < < 6 < 6 6 6 6 6 6 - - + + + + + +     6 6 6 6 6 6 < < < < 6 6 r.r.w w 0 0 0 0 0 0 ",
"g.g.l.l.l.l.l.l.l.l.5.5.$.$.Y Y q q 8 8 2 2     + + + + + + * * 2 2 r.r.8 8 < < < < 6 6 6 6 6 6 - - + + + + + +     6 6 6 6 6 6 < < < < 6 6 r.r.w w 0 0 0 0 0 0 ",
"e e r r r r r r r r r r r.r.u u 2 2 2 2 2 2 . .     + + + + * * , , r.r.6 6 < < < < < < < < < < * * + + + + + +     > > < < < < > > > > - - r.r.0 0 0 0 0 0 0 0 ",
"e e r r r r r r r r r r r.r.u u 2 2 2 2 2 2 . .     + + + + * * , , r.r.6 6 < < < < < < < < < < * * + + + + + +     > > < < < < > > > > - - r.r.0 0 0 0 0 0 0 0 ",
"6 6 7 7 7 7 7 7 7 7 7 7 r.r., , * * * * : : . .     + + + + + + + + r.r., , = = = = = = & & $ $ + + + + + + . .     @ @ @ @ @ @ O O O O = = r.r.6 6 0 0 0 0 0 0 ",
"6 6 7 7 7 6 7 7 7 7 7 7 r.r., , * * * * : : . .     + + + + + + + + r.$., , = = = = = = & & $ $ + + + + + + . .     @ @ @ @ @ @ O O O O = = r.r.6 6 0 0 0 0 0 0 ",
"- - - - - - - - - - q q r.r.u u $ $ $ $ $ $ o o     . . + + + + $ $ 2 2 2 2 $ $ @ @ @ @ O O + + + + + + + +         O O O O O O O O @ @ N N o.o.u u w w 0 0 0 0 ",
"- - - - - - - - - - q q r.r.u u $ $ $ $ $ $ o o     . . + + + + $ $ 2 2 2 2 $ $ @ @ @ @ O O + + + + + + + +         O O O O O O O O @ @ N N o.o.u u w w 0 0 0 0 ",
"< < < < < < < < < < $.$.$.$.r.r.4 4 , , , , ; ;         X X + + + + $ $ * * * * $ $ + + + + + + + + + +         $ $ = = : : , , , , 3 3 i i i i i i i i w w w w ",
"< < < < < < < < < < $.$.$.$.r.r.4 4 , , , , ; ;         X X + + + + $ $ * * * * $ $ + + + + + + + + + +         $ $ = = : : , , , , 3 3 i i i i i i i i w w w w ",
"^ ^ $.$.$.$.o.o.N N o.o.r.r.r.r.r.r.r.r.r.r.r.r.* *             + + + + + + $ $ + $ + + + + + + + +         * * o.o.o.o.W W N N Y Y Y Y i i q q q q i i i i i i ",
"^ ^ $.$.$.$.o.o.N N o.o.r.r.r.r.r.r.r.r.r.r.r.r.* *             + + + + + + + + + + + + + + + + + +         * * o.o.o.o.W E N N Y Y Y Y i i q q q q i i i i i i ",
"q q q q o.o.o.o.N N o.o.$.$.$.$.$.$.$.$.^ ^ ^ ^ c c $ $                 X X + + + + + + . .             + + o.o.r.r.r.r.r.r.r.r.r.r.r.r.Y Y z z z z z z z z z z ",
"q q q q o.o.o.o.x x o.o.$.$.$.$.$.$.$.$.o.o.^ ^ c c $ $                 X X + + + + + + . .             + + o.o.r.r.r.r.r.r.r.r.r.r.r.r.Y Y z z z z z z z z z z ",
"< < > > > > N N N x ^ ^ E E N N E E W W W o.W W N N u u * * + +                                     $ $ e e -.-.-.-.-.-.r.r.r.r.o.o.6 6 6 6 6 6 6 6 6 6 6 6 8 8 ",
"< < > > > > N N N N ^ ^ E E N N E E W W W W W o.N N u u * * + +                                     $ $ e e -.-.-.-.-.-.r.r.r.r.o.o.6 6 6 6 6 6 6 6 6 6 6 6 8 8 ",
"w w w w 8 8 6 6 o.o.N N z z L L 7.7.0.0.s.s.s.s.s.s.s.s.0.0.q q = = $ $ + + + + o o . . + + = = 9 9 6.6.6.6.6.6.6.6.1.1.,.,.$.$.q q 6 6 6 6 6 6 6 6 8 8 8 8 q q ",
"w w w w 8 8 8 6 o.o.N N z z L L 7.7.0.0.s.s.s.s.s.s.s.s.0.0.q q = = $ $ + + + + o o . . @ + = = 9 9 6.6.6.6.6.6.6.6.1.1.,.,.r.$.q w 6 6 6 6 6 6 6 6 8 8 6 8 q q ",
";.;.-.-.e e 6 6 r.r.3 3 q q i i i i z z L Y Y Y Y Y z z i i q q 8 8 2 2 2 2 , , 3 4 6 6 0 0 e e r r ;.;.;.;.;.;.r r r r e e $.$.6 6 < < < < < < 6 6 > > 6 6 6 6 ",
";.;.-.-.e e 6 6 r.r.3 3 q q i q i i z z L L Y Y Y Y z z i i q q 8 8 2 2 2 2 , , 3 3 6 6 0 0 e e r r ;.;.;.;.;.;.r r r r e e $.$.6 6 < < < < < < 6 6 6 > 6 6 6 6 ",
"w w w w 6 6 = = ^ ^ 2 2 * * * * : : 2 2 2 2 2 2 2 2 2 2 2 2 2 2 2 2 2 2 2 2 2 2 $.$.0 0 0 0 0 0 0 0 0 0 0 0 0 0 0 0 7 7 7 7 o.o.- - = = = = = = = = > > < < < < ",
"w w w w 6 6 = = ^ ^ 2 2 * * * * : : 2 2 2 2 2 2 2 2 2 2 2 2 2 2 2 2 2 2 2 2 2 2 $.$.0 0 0 0 0 0 0 0 0 0 0 0 0 0 0 0 7 7 7 7 o.o.- - = = = = = = = = > > < < < < ",
"> > > > = = = = r.r.2 2 $ $ $ $ $ $ $ $ $ $ $ $ * * : : , , , , 2 2 , , = : * * r.r.> > & & % % @ @ @ @ @ @ @ @ @ @ @ @ @ @ r.r.o o o o o o o o O O @ @ = = > > ",
"> > > > = = = = r.r.2 2 $ $ $ $ $ $ $ $ $ $ $ $ * * : : , , , , 2 2 , , = = * * r.r.> > & & % % @ @ @ @ @ @ @ @ @ @ @ @ @ @ r.r.o o o o o o o o O O @ @ = = > > ",
"> > - - = = c c r.r.c c 2 2 * * $ $ $ $ $ $ $ $ $ $ $ $ # # + + + + # # + + E E o.o.o.o.$ $ @ O @ @ @ O @ @ @ @ $ $ $ & N N r.r.^ ^ : : @ @ o o o o O O @ @ - - ",
"> > - - = = c c r.r.c c 2 2 * * $ $ $ $ $ $ $ $ $ $ $ $ # # + + + + # # + + N E o.o.o.o.$ $ @ @ @ @ @ @ @ @ @ @ $ $ $ $ N N r.r.^ ^ : : @ @ O O o o O O @ @ = = ",
"q q i i $.o.r.r.r.r.r.r.^ ^ c c 4 4 4 4 4 4 4 4 4 4 4 4 u u 4 4 4 4 4 4 c c o.o.o.o.o.o.o.o.o.o.N N o.o.o.o.o.o.o.o.o.o.r.r.r.r.r.r.o.o.N N c c 4 4 2 2 2 2 q 8 ",
"q q i i o.o.r.r.r.r.r.r.^ ^ c c 4 4 4 4 4 4 4 4 4 4 4 4 u u 4 4 4 4 4 4 c c o.o.o.o.o.o.o.o.o.o.N N o.o.o.o.o.o.o.o.o.o.r.r.r.r.r.r.o.o.N N c c 4 4 2 2 2 2 q q "
};
