/* XPM */
static const char *nb_9[] = {
/* columns rows colors chars-per-pixel */
"80 80 136 2 ",
"   c #1C130B",
".  c #21160E",
"X  c #24180F",
"o  c #241511",
"O  c #291713",
"+  c #261C14",
"@  c #2B1A15",
"#  c #271A18",
"$  c #2B1D19",
"%  c #311D17",
"&  c #321E19",
"*  c #2D221D",
"=  c #34211C",
"-  c #3B241D",
";  c #322521",
":  c #3C2620",
">  c #352925",
",  c #3D2923",
"<  c #362B28",
"1  c #3C2D29",
"2  c #3E322E",
"3  c #3E3431",
"4  c #40271F",
"5  c #422B24",
"6  c #492E25",
"7  c #442E29",
"8  c #4C3027",
"9  c #43322D",
"0  c #4B332B",
"q  c #52362C",
"w  c #55382F",
"e  c #55382F",
"r  c #433530",
"t  c #403632",
"y  c #413733",
"u  c #443530",
"i  c #463531",
"p  c #473531",
"a  c #463631",
"s  c #453732",
"d  c #463732",
"f  c #443632",
"g  c #4B3731",
"h  c #483732",
"j  c #493732",
"k  c #4F3630",
"l  c #493731",
"z  c #473833",
"x  c #433A37",
"c  c #473934",
"v  c #453A36",
"b  c #443A37",
"n  c #453936",
"m  c #493833",
"M  c #4B3832",
"N  c #4A3833",
"B  c #4C3833",
"V  c #4E3832",
"C  c #4B3834",
"Z  c #4B3935",
"A  c #483A37",
"S  c #4A3B36",
"D  c #4D3934",
"F  c #4C3A34",
"G  c #4D3A35",
"H  c #4D3B36",
"J  c #4F3B36",
"K  c #4B3C37",
"L  c #4F3C37",
"P  c #4A3A35",
"I  c #443B38",
"U  c #453B38",
"Y  c #463B38",
"T  c #473B38",
"R  c #453C39",
"E  c #473C38",
"W  c #463C39",
"Q  c #473D39",
"!  c #473D3A",
"~  c #473E3B",
"^  c #473F3C",
"/  c #463C39",
"(  c #483C38",
")  c #483C39",
"_  c #483D39",
"`  c #493D39",
"'  c #4A3C38",
"]  c #4A3D39",
"[  c #483D3A",
"{  c #493D3A",
"}  c #483E3A",
"|  c #483E3B",
" . c #493F3B",
".. c #4B3E3A",
"X. c #4A3F3B",
"o. c #4C3D38",
"O. c #4D3D38",
"+. c #4F3F3A",
"@. c #483F3C",
"#. c #493F3C",
"$. c #4C3F3C",
"%. c #483E3A",
"&. c #503730",
"*. c #503A33",
"=. c #563930",
"-. c #533A32",
";. c #583B31",
":. c #593C33",
">. c #5A3C33",
",. c #5A3D33",
"<. c #5B3E35",
"1. c #583E37",
"2. c #5A3E36",
"3. c #5B3E34",
"4. c #513D38",
"5. c #503E38",
"6. c #513E39",
"7. c #503F39",
"8. c #523E39",
"9. c #49403C",
"0. c #48403D",
"q. c #49403D",
"w. c #4A403D",
"e. c #4B413E",
"r. c #49403D",
"t. c #5D4036",
"y. c #5F4137",
"u. c #53403A",
"i. c #55413B",
"p. c #5E4138",
"a. c #5F4239",
"s. c #5F4339",
"d. c #5F4138",
"f. c #61453B",
"g. c #62453B",
"h. c #614339",
/* pixels */
"q.q.q.q.@.@.@.@.@.@.@.@.@.@.@.@. . . . . . . . . . . . . . . . . . . . . . . . . . . . . . . . . . . . . . . . . . . . . . .@.@.@.@.@.@. . . . . . . . . . . . .",
"q.q.q.q.@.@.@.@.@.@.@.@.@.@. .@. . . . . . . . . . . . . . . . . . . . . . . . . . . . . . . . . . . . . . . . . . . . . . .@.@.@.@.@.@. . . . . . . . . . . . .",
"9 9 0 0 0 0 0 0 0 0 N N  . .@.@.q.q.q.q.7.7.2.2.2.2.t.<.s.s.s.s.f.f.f.f.f.f.s.s.2.2.q.q.q.@.@.@.@.@.c c H H H H H L 7.7.7.7.7.7.7.7.o.o.$.$.q.q.@.@.q.q.H H 0 0 ",
"9 9 0 0 0 0 0 0 0 0 N N  . .@.@.q.q.q.q.7.7.2.2.2.2.<.<.s.s.s.s.f.f.f.f.f.f.s.s.2.2.q.q.q.@.@.@.@.@.c c H H H H H L 7.7.7.7.7.7.7.7.o.o.$.$.q.q.@.@.q.q.H H 0 0 ",
"5 5 7 7 0 0 0 0 0 0 0 0 k k o.o.q.q.q.q.>.>.=.=.q q q q q q q q q q e e e e q q q q 0 0  . .q.q.9 9 9 9 9 9 u u P P H H L L 7.7.7.7.7.7.H H  . .@.@.9 9 5 5 5 5 ",
"5 5 7 7 0 0 0 0 0 0 0 0 k k o.o.q.q.q.q.>.>.=.=.q q q q q q q q q q e e e e q q q q 0 0  . .q.q.9 9 9 9 9 9 u u P P H H L L 7.7.7.7.7.7.H H  . .@.@.9 9 5 5 5 5 ",
", , , 5 , , 5 5 5 5 5 5 5 5 7 7 q.q.0 0 q q 8 8 8 8 8 8 8 8 8 8 8 8 8 8 8 8 8 8 8 8 8 8 P P  . .1 1 1 1 1 1 1 1 9 9 9 9 u u N N N N N N l l u u @.q., , : : : : ",
", , , , , , 5 5 5 5 5 5 5 5 7 7 q.q.0 0 8 q 8 8 8 8 8 8 8 8 8 8 8 8 8 8 8 8 8 8 8 8 8 8 P P  . .1 1 1 1 1 1 1 1 9 9 9 9 u u N N N N N N l l u u @.q., , : : : : ",
", , - - - - - - - - - - = = = = q.q.5 5 4 4 - 4 5 5 - - - - - - - - - - - - - - - - - - u u q.q.; ; ; ; ; ; ; ; ; ; ; ; ; ; ; ; = * ; ; * * * * q.q.& & & & & & ",
", , - - - - - - - - - - = = = = q.q.5 5 4 4 - - 5 5 - - - - - - - - - - - - - - - - - - u u q.q.; ; ; ; ; ; ; ; ; ; ; ; ; ; ; ; ; ; ; ; * * * * q.q.& & & & & & ",
"- - = = = = = = = = & & & & 9 9 q.q.Q Q = = = = = = = = = = = = = = = = = = = = = = = = Q Q @.@.> > $ $ $ $ $ $ $ $ $ $ $ $ $ $ $ $ $ $ # # 1 1 q.q.$ $ O O @ @ ",
"- - = = = = = = = = & & & & 9 9 q.q.Q Q = = = = = = = = = = = = = = = = = = = = & = = =  . .@.@.> > $ $ $ $ $ $ $ $ $ $ $ $ $ $ $ $ $ $ # # 1 1 q.q.$ $ O O @ @ ",
": : - - = = = = = = : : 9 9 @.@.q.q.@.@.r r = = = = = = = = = = % % + + @ @ @ @ @ @ 9 9 2 2 2 2 Y Y ; ; $ $ # # $ $ $ $ # # # # $ $ ; ; 1 1 Q Q q.q.Q Q > > @ @ ",
": : - - = = = = = = : : 9 9 @.@.q.q.@.@.r r = = = = = = = = = = % % + + @ @ @ @ @ @ 9 9 2 2 2 2 Y Y ; ; $ $ # # $ $ $ $ # # # # $ $ ; ; 1 1 Q Q q.q.Q Q > > @ @ ",
"Q Q Y Y Y Y Y Y Y Y Y Y  . .@. .@.@.q.q.q.q. . .A A E E 2 2 o o     o o + + + + + + + + + + * * = = r r Q Q x x c c x x x x x x Y Y Q Q Q Q q.q.q.q.q.q.q.0.Q Q ",
"Q Q Y Y Y Y Y Y Y Y Y Y  . . . .@.@.q.q.q.q. . .A A A A 2 2 o o     o o + + + + + + + + + + * * = = r r Q Y x Y c c x x x x x x Y Y Q Q Q Q q.q.q.q.q.q.q.q.Q Q ",
"q.q.@.@.@.@.q.q.q.q. . . . . . . . . . .@.q.q.q.q.q.3 3         + + + + + + + + + + + + + + + + + + * * 3 3 Q  .q.q.q.q.q.q.q.q.q.q.q.q.q.q.u u l l l l V V H H ",
"q.q.@.@.@.@.q.q.q.q. . . . . . . . . . .@.q.q.q.q.q.3 3         + + + + + + + + + + + + + + + + + + * * 3 3 Q Q q.q.q.q.q.q.q.q.q.q.q.q.q.q.u u l l l l V V H H ",
"0 0 0 0 N N q.q.^ ^ 9 2 9 9 9 9 u u u u z z P P q.q.o o     + + + + + + . .             . . + + + + + + = = V V *.*.u.u.q.q.q.q.q.q.A A q q q q e e ;.;.>.>.>.>.",
"0 0 0 0 N N q.q.^ ^ 9 2 9 9 9 9 u u u u z u P P q.q.o o     + + + + + + . .             . . + + + + + + = = V V *.*.u.u.q.q.q.q.q.q.A A q q q q e =.;.;.>.>.>.>.",
"8 8 8 8 8 8  . .2 2 1 1 1 1 1 1 1 1 1 1 1 1 1 1 ; ;     + + + + + +                             o o + + + + , , 0 0 7 7 o.o.q.q. . .8 8 8 8 8 8 8 8 8 8 8 8 q q ",
"8 8 8 8 8 8  . .9 9 1 1 1 1 1 1 1 1 1 1 1 1 1 1 ; ;     + + + + + +                             o o + + + + , , 0 0 7 7 o.o.q.q. . .8 8 8 8 8 8 8 8 8 8 8 8 q q ",
"6 6 6 6 6 6  . .1 1 1 1 1 1 1 1 1 1 1 1 1 1 1 1 o o     + + + + . .         . . X X . .             + + + + @ @ : : : : 0 0 q.q. . .8 8 8 8 8 8 8 8 8 8 8 8 8 8 ",
"6 6 6 6 6 6  . .1 1 1 1 1 1 1 1 1 1 1 1 1 1 1 1 o o     + + + + . .         . . X X . .             + + + + @ @ : : : : 0 0 q.q. . .8 8 8 8 8 8 8 8 8 8 8 8 8 8 ",
"5 5 5 5 5 5  . .; ; = = ; ; = = = = = = = ; ; ;     . . + + + +     + + & & & & = = = & @ @         + + + + + + $ $ & & u u q.q.c c - - - - - - - - - - - - 5 5 ",
"5 5 5 5 5 5  . .; ; = = ; ; = = = = = = = * ; ;         + + + +     + + & & & & = = = = @ @         + + + + + + $ $ & & u u q.q.c c - - - - - - - - - - - - 5 5 ",
"5 5 5 5 , ,  . .= = * * * * * * $ $ $ $ $ $ $ $     o o + + + + + + @ @ @ @ @ @ @ @ @ @ @ @ . .     o o + + + + + + @ @ Y Y q.q. . .1 1 @ @ @ @ % % @ @ % % & & ",
"5 5 5 5 , ,  . .= = * * * * * * $ $ $ $ $ $ $ $     o o + + + + + + @ @ @ @ @ @ @ @ @ @ @ @ . .     o o + + + + + + @ @ Y Y q.q. . .1 1 @ @ @ @ % % @ @ % % & & ",
"6 6 5 5 z z q.q.y y ; ; * * * * $ $ * * ; ; ; ;     o o + + + + @ @ @ @ @ @ @ @ @ @ @ @ $ $ + +     + + + + + + $ $ r r c c c c q.q.Q Q 2 2 = = & & & & % % = = ",
"6 6 5 5 z z q.q.y y ; ; * * * * $ $ * * ; ; ; ;     o o + + + + @ @ @ @ @ @ @ @ @ @ @ @ $ $ + +     + + + + + + @ * r r c c c c q.q.Q Q 2 2 = = & & & & % % = = ",
" . .P P q.q.q.q.q.q.Q Q x x x x x x I I Q Q 3 3         + + + + * * 3 2 r r 9 9 r r r r r r > >     + + + + + + * *  . .u u u u  . .q.q.q.q.q.q.q.q.q.q. . . . .",
" . .P P q.q.q.q.q.q.Q Q x x x x x x I I Q Q 3 3         + + + + * * 3 3 r r 9 9 r r r r r r > >     + + + + + + * *  . .u u u u  . .q.q.q.q.q.q.q.q.q.q. . . . .",
"u u q.q.q.q.q.q.q.q.l l 0 0 0 0 0 0 9 9 9 9 1 1 . .     + + + + + + * * 3 3 x x 3 3 > > + +     + + + + + + + + @ @ < < 9 9 u u Y Y q.q.2 2 1 1 9 9 9 9 u u l u ",
"u u q.q.q.q.q.q.q.q.l l 0 0 0 0 0 0 0 9 9 9 1 1 . .     + + + + + + * * 3 3 x x 3 3 > > + +     + + + + + + + + @ * < < 9 9 u u Y Y q.q.2 2 1 1 9 9 9 9 u u l l ",
", , Q Q q.q.q.q.V V 0 0 q q q q q q q q q q 8 8 + +         + + + + + + + + + + + + + + + + + + + + + + + + + + + + 1 1 2 2 z c c c c c , , 5 5 5 5 0 0 0 0 &.&.",
", , Q Q q.q.q.q.V V q q q q q q q q q q q q 8 8 + +         + + + + + + + + + + + + + + + + + + + + + + + + + + + + 1 1 2 2 c c c c c c , , 5 5 5 5 0 0 0 0 &.&.",
", , 7 7 q.q.q.q.8 8 8 8 q q q q q q q q q q e q = =         X X + + + + + + + + + + + + + + + + + + + + + + + + + + 1 1 9 9 u u c c 5 5 , , , , , , 5 5 5 5 7 7 ",
", , 7 7 q.q.q.q.8 8 8 8 q q q q q q q q q q e q = =         X X + + + + + + + + + + + + + + + + + + + + + + + + + + 1 1 9 9 u u c c 5 5 , , , , , , 5 5 5 5 7 7 ",
": : : : q.q.q.q.8 8 6 6 8 8 8 8 8 8 8 8 8 8 8 8 5 5 @ @                 o o + + + + + + + + o o         + + + + + + 1 1 1 1 r r  . .5 5 , , , , , , , , , , , , ",
": : : : q.q.q.q.8 8 6 6 8 8 8 8 8 8 8 8 8 8 8 8 5 5 @ @                 o o + + + + + + + + o o         + + + + + + 1 1 1 1 r r  . .5 5 , , , , , , , , , , , , ",
"- - - - q.q.T T 5 5 5 5 5 5 5 5 5 5 5 5 5 5 5 5 5 5 - - @ @ . .                             o o $ $     + + + + + + ; ; 1 1 Q Q q.q.1 1 : - - - = = = = & & $ $ ",
"- - - - q.q.T T 5 5 5 5 5 5 5 5 5 5 5 5 5 5 5 5 5 5 - - @ @ . .                             o o $ $     + + + + + + ; ; 1 1  . .q.q.1 1 - - - - = = = = & & $ $ ",
": : r r q.q.c c 7 7 - - - - - - - - - - = = = = = = = = = = @ @ * * * * * * * * + + + + $ $ $ $ + +     + + + + + + * * 1 1 q.q.q.q.c c = = @ @ @ @ @ @ O O @ @ ",
": : r r q.q.c c 7 7 - - - - - - - - - - = = = = = = = = = = @ @ * * * * * * * * + + + + $ $ $ $ + +     + + + + + + * * 1 1 q.q.q.q.c c = = @ @ @ @ @ O O O @ @ ",
"u u q.q.q.q. . .P P 9 9 9 9 7 7 9 9 9 9 9 9 9 9 9 9 9 9 2 2 2 2 c c  . .q.q.q.q.x x 1 1 1 1 1 1 * *     + + + + + + r r q.q.q.q.@.@.q.q.c c 1 1 < 1 1 1 1 1 1 1 ",
"u u q.q.q.q.@.@.P P 9 9 9 9 7 7 9 9 9 9 9 9 9 9 9 9 9 9 9 2 2 2 c c  . .q.q.q.q.x x 1 1 1 1 1 1 * *     + + + + + + r r q.q.q.q.@.@.q.q.c c 1 1 < < 1 1 1 1 1 1 ",
"q.q.q.q.q.q. . . . .@.@.@.@.q.q.q.q.q.q.q.q.q.q.@.q.q.q.@.@.@.@.q.q.q.q.q.q.q.q.q.@.@.@.q.q.q.q.* *     + + + + + + q.q.q.q.q.q.q.q.q.q.q.q.q.q.q.q.q.q.q.q.q.q.",
"q.q.q.q.q.q. . .Q Q @.@.@.@.q.q.q.q.q.q.q.q.q.q.@.@.q.q.@.@.@.@.q.q.q.q.q.q.q.q.q.@.@.@.q.q.q.q.* *     + + + + + + q.q.q.q.q.q.q.q.q.q.q.q.q.q.q.q.q.q.q.q.q.q.",
"P P P P l l 9 9 9 9 z z q.q.q.q.Q ^ y y r r y y y y r r r r Y Y q.q.q.q.q.q.x x 2 2 r r r r r r + + o o + + + + * * c c c c c c c c  . .@.q.q.q.q.q.T T u u P P ",
"P P P P l l 9 9 9 9 z z q.q.q.q.Q Q y y r r y y y y r r r r Y Y q.q.q.q.q.q.c x 2 2 r r r r r r + + o o + + + + * * P P c c c c c c  . .q.q.@.@.q.q.P P u u P P ",
"t.t.s.s.t.t.<.<.=.-.l l  . . . .9 9 1 1 1 1 1 1 1 1 1 1 1 1 2 2 c c q.q.Q Q 7 7 5 5 5 5 0 0 0 0 . . + + + + + + = = &.&.0 0 0 0 7 7 9 9 P c @.@. . .8 8 8 8 8 8 ",
"t.t.t.t.t.t.<.<.=.=.l l  . . . .9 9 1 1 1 1 1 1 1 1 1 1 1 1 2 2 c c q.q.Q Q 7 7 5 5 5 5 0 0 0 0 . X + + + + + + = = &.&.0 0 0 0 7 7 9 9 c c @.@. . .8 8 8 8 8 8 ",
"s.s.h.h.h.h.h.h.h.h.2.2.@.@.P P 9 9 7 7 1 1 1 1 ; ; + + + + ; ; 1 1 q.q.7 7 , , , , 5 5 5 5 5 5 o o + + + + + + - - 5 5 5 5 5 5 , , , , 5 5 q.q.0 0 8 8 8 8 8 8 ",
"s.s.h.h.h.h.h.h.h.h.2.2.@.@.P P 9 9 7 7 1 1 1 1 ; ; + + + + ; ; 1 1 q.q.7 7 , , , , 5 5 5 5 5 5 o o + + + + + + - - 5 5 5 5 5 5 , , , , 5 5 q.q.0 0 8 8 8 8 8 8 ",
"q q e e e e e e e e e e q.q.r r 1 1 1 1 1 1 1 1 + +         o o = = q.q.5 5 , , , , , , , , = = + + + + + + o o : : , , , , , , : : : : - - q.q.8 8 8 8 8 8 8 8 ",
"q q e e e e e e e e e e q.q.r r 1 1 1 1 1 1 1 1 + +         o o = = q.q.5 5 , , , , , , , , = = + + + + + + o o : : , , , , , , : : : : - - q.q.8 8 8 8 8 8 8 8 ",
"5 5 6 6 6 6 6 6 6 6 6 6 q.q.> > * * * * ; ; ; ;             + + o o q.q.; ; = = & & = = & & + + + + + + + +     $ $ @ @ @ @ @ @ O O O O = = q.q.5 5 8 8 8 8 8 8 ",
"5 5 6 6 6 6 6 6 6 6 6 6 q.q.> > * * * * ; ; ; ;             + + o o q.q.; ; = = & & = = & & + + + + + + + +     $ $ @ @ @ @ @ @ O O O O = = q.q.5 5 8 8 8 8 8 8 ",
"- - - - - - - - - - 9 9 q.q.r r $ $ $ $ $ $ $ $             + + + + 3 3 1 1 @ @ @ @ @ @ + + + + + + + +         o o o o o o o o o o @ @ c c  . .r r 0 0 8 8 8 8 ",
"- - - - - - - - - - 9 9 q.q.r r $ $ $ $ $ $ $ $             + + + + 3 3 1 1 @ @ @ @ @ @ + + + + + + + +         o o o o o o o o o o @ @ c c  . .r r 0 0 8 8 8 8 ",
", , , , , , , , , , @.@.@.@.q.q.3 3 > > > > > > + +         o o + + + + @ @ * * * * + + + + + + + +         @ @ * * = = ; ; ; ; ; ; 2 2 u u u u u u u u 0 0 0 0 ",
", , , , , , , , , , @.@.@.@.q.q.3 3 > > > > > > + +         o o + + + + @ @ * * * @ + + + + + + + +         @ @ * * = = ; ; ; ; ; ; 2 2 u u u u u u u u 0 0 0 0 ",
"Q Q @.@.@.@. . .c c  . .q.q.q.q.q.q.q.q.q.q.q.q.q.q.            + + + + + + + + + + + + + + + +         * * q.q. . . . . . .P P P P P P u u 9 9 9 9 u u u u u u ",
"Q Q @.@.@.@. . .c c  . .q.q.q.q.q.q.q.q.q.q.@.@.@.q.            + + + + + + + + + + + + + + + +         * ; q.q. . . . . . .P P P P P P u u 9 9 9 9 u u u u u u ",
"9 9 9 9  . . . .c c  . .@.@.@.@.@.@.@.@.Q Q Q Q Q Q x x o o         o o + + + + + + + +             ; ; q.q.q.q.q.q.q.q.q.q.q.q.q.q.q.q.P P l l l l l l l l l l ",
"9 9 9 9  . . . .c c  . .@.@.@.@.@.@.@.@.Q Q Q Q Q  .x x . .         o o + + + + + + + +             ; ; q.q.q.q.q.q.q.q.q.q.q.q.q.q.q.q.P P l l l l l l l l l l ",
", , : : : : c c c c Q Q Y Y c c Y Y T T T  .T  .c c c c 2 2 + +                         . . = = 9 9 e e *.*.*.*.*.*.*.*.q.q.q.q. . .5 5 5 5 5 5 5 5 5 5 5 5 7 7 ",
", , : : : : c c c c Q Q Y Y c c Y Y T T T T T  .c c c c 2 2 + +                         . . = = 9 9 e e *.*.*.*.*.*.*.*.q.q.q.q. . .5 5 5 5 5 5 5 5 5 5 5 5 7 7 ",
"0 0 0 0 7 7 5 7  . .c c l l H H 4.4.7.7.i.i.i.i.i.i.i.i.7.7.L L 1 1 @ @ o o + + * * , , e e ;.;.>.>.<.<.<.<.<.<.<.<.>.>.-.-.@.@.0 0 5 5 5 5 5 5 5 5 7 7 5 5 9 9 ",
"0 0 0 0 7 7 7 7  . .c c l l H H 4.4.7.7.i.i.i.i.i.i.i.i.7.7.L L 1 1 @ @ o + + + * * , , e e ;.;.>.>.<.<.<.<.<.<.<.<.>.>.-.-.q.@.9 0 5 5 5 5 5 5 5 5 7 7 5 7 9 9 ",
"=.=.*.*.q q 5 5 q.q.2 2 9 9 9 9 u u l l H P P P P P l l u u 9 9 9 9 1 1 1 1 1 1 @.@.8 8 q q q q e e =.=.=.e e e e e e e q q @.@.5 5 , , , , , , 5 5 5 , 5 5 5 5 ",
"=.=.*.*.q q 5 5 q.q.2 3 9 9 9 9 u u l l H P P P P P l l u u 9 9 9 9 1 1 1 1 1 1 @.@.8 8 q q q q e e =.=.=.e e e e e e e q q @.@.5 5 , , , , , , 5 5 5 : 5 5 5 5 ",
"0 0 0 0 5 5 = = Q Q 1 1 * * * * ; ; 1 1 1 1 1 1 1 1 1 1 1 1 1 1 1 1 1 1 1 1 1 1 @.@.8 8 8 8 8 8 8 8 8 8 8 8 8 8 8 8 6 6 6 6  . .- - = = = = = = = = : : , , , , ",
"0 0 0 0 5 5 = = Q Q 1 1 * $ * * ; ; 1 1 1 1 1 1 1 1 1 1 1 1 1 1 1 1 1 1 1 1 1 1 @.@.8 8 8 8 8 8 8 8 8 8 8 8 8 8 8 8 6 6 6 6  . .- - = = = = = = = = : : , : , , ",
": : : : = = = = q.q.1 1 $ $ $ $ $ $ $ $ $ $ $ $ * * ; ; ; ; > > 1 1 > > = ; * * q.q., , & & % % @ @ @ @ @ @ @ @ @ @ @ @ @ @ q.q.o o o o o o o o o o @ @ = = : : ",
": : : : = = = = q.q.1 1 $ $ $ $ $ $ $ $ $ $ $ $ * * ; ; ; ; > > 1 1 > > = ; * * q.q., , & & % % @ @ @ @ @ @ @ @ @ @ @ @ @ @ q.q.o o o o o o o o o o @ @ = = : : ",
": : - - = = x x q.q.x x 1 1 * * $ $ $ $ $ $ $ $ $ $ # $ $ $ @ + + + + + + + Y Y  . . . .$ $ @ O @ @ @ @ @ @ @ @ $ $ $ $ c c q.q.Q Q ; ; @ @ o o o o o o @ @ - - ",
": : - - = = x x q.q.x x 1 1 * * $ $ $ $ $ $ $ $ $ $ # # # # @ @ + + + + + + c Y  . . . .$ $ @ @ @ @ @ @ @ @ @ @ $ $ $ $ c c q.q.Q Q ; ; @ @ o o o o o o @ @ - - ",
"9 9 u u @. .q.q.q.q.q.q.Q Q x x 3 3 3 3 3 3 3 3 3 3 3 3 r r r 3 3 3 3 3 y y  . . . . . . . . . .c c  . . . . . . . . . .q.q.q.q.q.q.Q Q c Y x x 3 3 1 1 1 1 9 9 ",
"9 9 u u  . .q.q.q.q.q.q.Q Q x x 3 3 3 3 3 3 3 3 3 3 3 3 r r 3 3 3 3 3 3 y y  . . . . . . . . . .c c  . . . . . . . . . .q.q.q.q.q.q.Q Q c Y x x 3 3 1 1 1 1 9 9 "
};
