/* XPM */
static const char *sprite_p2[] = {
/* columns rows colors chars-per-pixel */
"80 80 171 2 ",
"   c #000101",
".  c gray5",
"X  c #2B1F15",
"o  c #2E2216",
"O  c #2D221A",
"+  c #312417",
"@  c #332619",
"#  c #37281B",
"$  c #3B2C1D",
"%  c #142434",
"&  c #14273C",
"*  c #232324",
"=  c #2A2724",
"-  c #2C2A2A",
";  c #2B2825",
":  c #352B23",
">  c #3C2E22",
",  c #322D2A",
"<  c #3F3123",
"1  c #37322F",
"2  c #3B332D",
"3  c #3E3D2B",
"4  c #263338",
"5  c #2A333B",
"6  c #363937",
"7  c #3B3C37",
"8  c #47331B",
"9  c #402F20",
"0  c #443324",
"q  c #493626",
"w  c #473926",
"e  c #4C3927",
"r  c #42362C",
"t  c #493728",
"y  c #4F3B29",
"u  c #4D3A29",
"i  c #4F3C2A",
"p  c #4C3929",
"a  c #503B29",
"s  c #503B2A",
"d  c #513C29",
"f  c #513C2B",
"g  c #523D2A",
"h  c #533E2B",
"j  c #523D29",
"k  c #543E2B",
"l  c #563F2B",
"z  c #533E2C",
"x  c #553F2C",
"c  c #523E2B",
"v  c #413731",
"b  c #423831",
"n  c #58401E",
"m  c #694C1C",
"M  c #47402D",
"N  c #55402D",
"B  c #56402C",
"V  c #57412E",
"C  c #57422E",
"Z  c #56402D",
"A  c #59422E",
"S  c #5A432E",
"D  c #58412D",
"F  c #5B442F",
"G  c #5C442F",
"H  c #5A432F",
"J  c #4D4336",
"K  c #47453C",
"L  c #5B4430",
"P  c #5C4530",
"I  c #5F4631",
"U  c #5D4630",
"Y  c #5D4530",
"T  c #5A4A38",
"R  c #564D3F",
"E  c #654B25",
"W  c #60472F",
"Q  c #6E5226",
"!  c #604731",
"~  c #604732",
"^  c #604731",
"/  c #614832",
"(  c #604832",
")  c #624932",
"_  c #634933",
"`  c #624932",
"'  c #634A33",
"]  c #644A33",
"[  c #644B33",
"{  c #654B34",
"}  c #664B34",
"|  c #674C35",
" . c #644A33",
".. c #684D35",
"X. c #684D35",
"o. c #7C6134",
"O. c #2F3C40",
"+. c #303C40",
"@. c #2E4045",
"#. c #364346",
"$. c #2B4D5C",
"%. c #344B54",
"&. c #3A5054",
"*. c #2C5163",
"=. c #33596D",
"-. c #3F5D69",
";. c #2E5B75",
":. c #33617D",
">. c #39647C",
",. c #3C6377",
"<. c #4E534C",
"1. c #51554D",
"2. c #505750",
"3. c #465758",
"4. c #5F6D5F",
"5. c #677358",
"6. c #415D66",
"7. c #405F69",
"8. c #546E68",
"9. c #88631E",
"0. c #815F23",
"q. c #836126",
"w. c #9D752D",
"e. c #9D7834",
"r. c #A37F34",
"t. c #826641",
"y. c #B08B45",
"u. c #A88852",
"i. c #2C5887",
"p. c #2D5A8B",
"a. c #2B5682",
"s. c #2E5E92",
"d. c #2F6082",
"f. c #2F618E",
"g. c #336383",
"h. c #31648B",
"j. c #2E6195",
"k. c #2F639B",
"l. c #316595",
"z. c #31679C",
"x. c #31689B",
"c. c #396493",
"v. c #3067A2",
"b. c #3067A2",
"n. c #336AA4",
"m. c #396FA9",
"M. c #3C71AA",
"N. c #416D9B",
"B. c #45709F",
"V. c #4175AD",
"C. c #497DB4",
"Z. c #5688BD",
"A. c #5A8ABE",
"S. c #5486BB",
"D. c #5D8DC2",
"F. c #6291C5",
"G. c #6D98C6",
"H. c #6897C9",
"J. c #6E9CCD",
"K. c #6695C8",
"L. c #709ECF",
"P. c #729FD0",
"I. c #76A3D3",
"U. c #7AA6D6",
"Y. c #B1B8BF",
"T. c #BCBCBC",
"R. c #83ADDB",
"E. c #86B1DF",
"W. c #88B2DF",
"Q. c #89B3E1",
"!. c #D5D6D9",
/* pixels */
"> > < < 0 0 0 0 > > > > > > > > > > > > < < > > > > > > > > > > > > > > > > > > > > > > > > > > 0 0 0 0 0 0 0 0 < < < < < < < < < < < < 0 0 0 < < < < < 0 0 0 0 ",
"> > < < 0 0 0 0 > > > > > > > > > > > > < < > > > > > > > > > > > > > > > > > > > > > > > > > > 0 0 0 0 0 0 0 0 < < < < < < < < < < < < 0 0 0 0 < < < < 0 0 0 0 ",
"| | ..............| | | ....| | F F f f p p 0 0 0 0 t t V V p p @ @ + + + @ + + o o + + + + + + + + f f | | ......| | | ............| | ........................",
"| | ............| | | | ....| | F F f f p p 0 0 0 0 t t V V p p @ @ + + + @ + + o o + + + + + + + + f f | | ....| | | | ............| | ..........| | ..........",
"....{ { ] ] ) ) ~ ~ I I I I ) ) ) ) I I I I q q > > 0 0 # # + + @ @ $ $ < < t t $ $ $ $ q q # # + + + + + + V V | | ........| | ) ) ) ) { { ] ] ] ] ] ] ) ) ....",
"....{ { ] ] ) ) ~ ~ I I I I ) ) ) ) I I I I q q > > < < # # + + @ @ $ $ < < t t $ $ $ $ q q # # + + + + + + V V | | ........| | ) ) ) ) { { ] ] ] ] ] ] ) ) ....",
"< < > > > > 0 0 q q q q t t p p f f V V A A q q : : + + o o # # t t a a t t V V q q e e ] ] ] ] V V $ $ + + + + t t A A A A p p 0 0 q q q q q q q q q q q q ....",
"< < > > > > 0 0 q q q q t t p p f f V V A A q q : : + + o o # # t t a a t t V V q q e e ] ] ] ] V V $ $ + + + + t t A A A A p p 0 0 q q q q q q q q q q q q ....",
"q q q q i i ....| | | ..................] ] > > o o + o # # a a V V t t q q f f 0 0 e e ] ] ) ) A A G G 0 0 @ @ o o > > t t t t p p p p z z I I I I ) ) { { ....",
"q q q q i i ......| | | ................] ] > > o o + o $ # a a V V t t q q f f 0 0 e e ] ] ) ) A A G G 0 0 @ @ o o > > t t t t p p p p z z I I I I ) ) { { ....",
"V V z z V A I I ~ ~ ) ) ) ) ) ) ) ) ) ) t t o o + + # # > > k k f f t t q q f f q q d d ] ] ) ) k k ~ ~ a a $ $ $ $ # # A A ....................................",
"V V z z A A I I ~ ~ ) ) ) ) ) ) ) ) ) ) t t o o o o # # > > k x f f t t q q f f q q d d ] ] ) ) k k ~ ~ a a $ $ $ $ # # A A ....................................",
") ) A A x x V V A A A A V V V V V V f f o o o o 0 0 $ $ 0 0 A A a a e e q q k k t t f f ] ] ) ) f f G G f f > > e t $ $ $ $ ~ ~ ................................",
") ) A A x x V V A A A A V V V V V V f f o o o o 0 0 $ $ 0 0 A A a a e e q q k k t t f f ] ] ) ) f f G G f f > > e t $ $ $ $ ~ ~ ................................",
"p p q q t t f f ) ) ] ] { { | | ) ) $ $ + + e e A A $ $ 0 0 G G a a e p t t x x e e f f ] ] ] ) f f V V V V $ $ ~ ~ p p @ @ t t I I ) ) ) ) ) ) ] ] ] ] ] ] { { ",
"p p t t t t f f ) ) ] ] { { | | ) ) $ $ + + e e A A $ $ 0 0 G G a a p p t t x x e e f f ] ] ] ] f f V V V V $ $ ~ ~ p p @ @ t t I I ) ) ) ) ) ) ] ] ] ] ] ] { { ",
"....] ] ] ] ] ] ] ] ] ] ] ] ) ) t t + + 0 0 | | A A $ $ 0 0 ) ) f f f f p p A A f f k k ) ) ) ) f f k k A A $ $ x x ] ] 0 0 + + q q i i i i i i f f p p p p ] ] ",
"....] ] ] ] ] ] ] ] ] ] ] ] ) ) t t + + 0 0 | | A A $ $ 0 0 ) ) f f f f p p A A f f k k ) ) ) ) f f k k A A $ $ x x ] ] 0 0 + + q q i i i i i i f f p p p p ] ] ",
"F F V V A A A A F F F F L L p p + + $ $ ) ) ) ) A A $ $ 0 0 ] ] x x f f z z A A f f k k ) ) ) ) f f f f S S > > f f ] ] A A # # @ @ f f x x x V V V z z z z ) ) ",
"F F V V A A A A F F F F L L p p + + $ $ ) ) ) ) A A $ $ 0 0 ] ] x x f f z z A A f f k k ) ) ) ) f f f f A A > > f f ] ] A A # # @ @ f f x x V V V V z z z z ) ) ",
"] ] F F V V V V V V A A I I $ # + + p p ) ) ) ) A A # # 0 0 ] ] A A V V f f A A f f k k ~ ~ ) ) f f f f A A $ $ p p ] ] ] ] 0 0 # # V A ....................I I ",
"] ] F F V V V V V V A A I I $ # + + p p ) ) ) ) A A # # 0 0 ] ] A A V V f f A A f f k k ~ ~ ) ) f f f f A A $ $ p p ] ] ] ] 0 0 # # V A ....................I I ",
"....................| | k k + + $ $ L L I I ) ) B B $ $ 0 0 ] ] I I A A f f A A e e e e I I ) ) f f f f B V $ $ p p ] ] ~ ~ A A $ $ # # ) ) ................I I ",
"....................| | k k + + $ $ L L I I ) ) B B # $ 0 0 ] ] I I A A f f A A e e e e I I ) ) f f f f V V $ $ p p ] ] ~ ~ A A $ $ # # ) ) ................I I ",
") ) ) ) ) ) ) ) ) ) I I # # @ @ f f A A I I ) ) V V $ $ q q ] ] ) ) A A a a A A 0 0 q q ~ ~ ) ) f f f f V V $ $ t t ) ) I I I I 0 0 @ @ t t ~ ~ I I A A z z q q ",
") ) ) ) ) ) ) ) ) ) I I # # @ @ f f A A I I ) ) V V $ $ q q ] ] ) ) A A a a A A 0 0 q q ~ ~ ) ) f f f f V V $ $ t t ) ) I I I I 0 0 @ @ t t ~ ~ I I A A z z q q ",
"> > > > > > > > > > $ $ X X $ $ V A V V I I ) ) x x $ $ t t ] ] ) ) A A p p V V 0 0 q q ) ) ) ) f f k k V V $ $ t t ) ) I I A A f f @ @ O O > > > > > > > > > > ",
"> > > > > > > > > > $ $ X X $ $ V A V V I I ) ) k x $ $ t t ] ] ) ) A A p p V V 0 0 t q ) ) ) ) f f k k V V $ $ t t ) ) I I A A f f @ @ O O > > > > > > > > > > ",
"t t q q t t t t t t $ $ + + 0 0 f f A A I I ~ I k k $ $ e e ] ] ] ] A S p p f f 0 0 t q ) ) ~ ~ k k V V k k $ $ q q ) ) I I V V V V $ $ @ @ A A ) ) ) ) 0 0 < < ",
"t t q q t t t t t t $ $ + + 0 0 f f A A I I ~ ~ x k $ $ e e ] ] ] ] A S p p f f 0 0 t q ) ) ~ ~ k k V V k k $ $ q q ) ) I I V V V A $ $ @ @ A A ) ) ) ) 0 0 < < ",
"q q q q q q 0 0 0 0 + + # # t t p p A A G G I I f k $ $ p p ] ] ] ] A A a a a a $ $ t t ) ) I I k k A A f f $ $ q q ) ) G G A A f f t t # # k k | | ....f f > > ",
"q q q q q q 0 0 0 0 + + # # t t p p A A G G I I f f $ $ p p ] ] ] ] A A a a a a $ $ t t ) ) I I k k A A f f $ $ q q ) ) G G A A f f t t # # k k | | ....f f > > ",
"0 0 0 0 q q q q > > + + $ $ e e p p A A F F I I k k $ $ a a ] ] ) ) k k f f J J 7 7 p p ) ) I I f f A A f f $ $ 0 0 ) ) G G A A p p I I # # $ $ V V z z t t > > ",
"0 0 0 0 q q q q > > + + $ $ e e p p A A F F I I k k $ $ a a ] ] ) ) k k f f J J 7 7 p p ) ) I I f f A A f f $ $ 0 0 ) ) G G A A p p I I # # # # V V z z t t > > ",
"V V I I ....| | q q # # 0 0 f f f f I I F F I I x x $ $ a a ] ] R R g.g.v.v.v.v.v.v.v.v.l.l.7.-.K K A A f f $ $ 0 0 ) ) G G A A p p { { $ $ + + < < < < > > > > ",
"V V I I ....| | q q # # 0 0 f f f f I I F F I I x x $ $ a a ] ] R R g.g.v.v.v.v.v.v.v.v.l.l.7.7.K K A A f f $ $ 0 0 ) ) G G A A p p { { $ $ + + < < < < > > > > ",
"V V I I | | ] ] # # # # t t V V V V I I F F I I V V 0 0 J J v.v.v.v.v.v.v.v.v.v.v.v.v.v.v.v.v.v.v.v.-.-.f f $ $ 0 0 ) ) A A x x t e ] ] 0 0 + + q q f f t t > > ",
"V V I I | | ] ] # # # # t t V V V V I I F F I I V V 0 0 J J v.v.v.v.v.v.v.v.v.v.v.v.v.v.v.v.v.v.v.v.-.-.f f $ $ 0 0 ) ) A A x x t t ] ] 0 0 + + q q f f t t > > ",
"0 0 0 0 0 0 0 0 + + $ $ f f V V V V I I G I G G V V &.&.v.v.v.v.m.m.F.F.I.I.U.U.I.I.K.K.A.A.M.M.v.v.v.v.>.>.< < q q ) ) I I A A 0 0 ) ) p p # # A A | | ) ) > > ",
"0 0 0 0 0 0 0 0 + + $ $ f f V V V V I I G G G G B V &.&.v.b.v.v.m.m.F.F.I.I.U.U.I.I.K.K.A.A.M.M.v.v.v.v.>.>.< < q q ) ) ~ I A A 0 0 ) ) p p # # A A | | ) ) > > ",
"> > > > > > # # o o 0 0 ) ) k k x x I I G G I I -.-.v.v.v.v.H.H.Q.Q.Q.Q.W.W.W.W.R.R.Z.Z.M.M.n.n.v.v.v.v.v.v.h.h.3 3 t.t.u.u.o.o.Q Q ] ] L L # # 0 0 ] ] ) ) > > ",
"> > > > > > # # o o 0 0 ) ) k k x x I I G G I I -.-.v.v.v.v.H.H.Q.Q.Q.Q.W.W.W.W.R.R.Z.Z.M.M.n.n.v.v.v.v.v.v.h.h.3 3 t.t.u.u.o.o.Q Q ] ] L L # # 0 0 ] ] ) ) > > ",
"0 0 t t L L p p # # e e ] ] f f p p F F A A 6.6.v.v.n.n.W.W.Q.Q.Q.Q.R.R.I.I.Z.Z.v.v.v.v.v.v.v.v.v.v.v.v.v.v.v.v.l.l.4.4.y.y.e.e.w.w.E E ~ ~ # # + + t t t t > > ",
"0 0 t t L L p p # # e e ] ] f f p p F F A A 6.6.v.v.n.n.W.W.Q.Q.Q.Q.R.R.I.I.Z.Z.v.v.b.b.v.v.v.v.v.v.v.v.v.v.v.v.l.l.4.4.y.y.e.e.w.w.E E ~ ~ # # + + t t t t > > ",
"0 0 < < < < O O o o f f ) ) k k p p F F 6.6.v.v.V.V.Q.Q.Q.Q.R.R.I.I.C.C.v.v.v.v.v.v.v.v.v.v.v.v.v.v.v.v.v.v.v.v.v.v.v.v.8.8.r.r.q.q.n n ) ) $ $ + + t t t t > > ",
"0 0 < < < < O O o o f f ) ) k k p p F F 6.6.v.v.V.V.Q.Q.Q.Q.R.R.I.I.C.C.v.v.v.v.v.v.v.v.v.v.v.v.v.v.v.v.v.v.v.v.v.v.v.v.8.8.r.r.q.q.n n ) ) $ $ + + t t t t > > ",
"< < < < q q Q Q E E 0 0 ) ) V V t t 3.3.v.v.m.m.W.W.Q.Q.F.F.M.M.v.v.v.v.v.v.v.v.v.v.v.v.v.v.v.v.v.v.v.v.v.v.v.v.v.v.v.v.v.v.5.5.m m 8 8 ) ) $ $ # # ) ) f f 0 0 ",
"< < < < q q Q Q E E 0 0 ) ) V V t t 3.3.v.v.m.m.W.W.Q.Q.F.F.M.M.v.v.v.v.v.v.v.v.v.v.v.v.v.v.v.v.v.v.v.v.v.v.v.v.v.v.v.v.v.v.5.5.m m 8 8 ) ) $ $ # # ) ) f f 0 0 ",
"V V F F ) ) w.w.0.0.# # ~ ~ F A K K v.v.v.v.P.P.U.U.v.v.v.v.v.v.z.z.k.k.k.k.j.j.s.s.k.k.k.k.v.v.v.v.v.v.v.v.v.v.v.v.v.v.v.v.v.v.M M q q ] ] $ $ @ @ ) ) p p 0 0 ",
"V V F F ) ) w.w.0.0.# # ~ ~ A A K K v.v.v.v.P.P.U.U.v.v.v.v.v.v.z.z.k.k.k.k.j.j.s.s.k.k.k.k.v.v.v.v.v.v.v.v.v.v.v.v.v.v.v.v.v.v.M M q q ] ] $ $ @ @ ) ) p p 0 0 ",
"L L V V G G 9.9.m m > > I I F F z.z.v.v.D.D.J.J.v.v.v.v.k.k.k.k.s.s.s.s.s.s.j.j.j.j.j.j.j.j.j.j.k.k.k.k.v.v.v.v.v.v.v.v.v.v.v.v.:.:.V A ] ] 0 0 @ @ I I p p 0 0 ",
"L L A V G G 9.9.m m > > I I F F z.z.v.v.D.D.J.J.v.v.v.v.k.k.k.k.s.s.s.s.s.s.j.j.j.j.j.j.j.j.j.j.k.k.k.k.v.v.v.v.v.v.v.v.v.v.v.v.:.:.V A ] ] 0 0 @ @ I I p p 0 0 ",
"V V f f p p 8 8 8 8 0 0 ~ ~ >.>.v.v.V.V.L.L.n.n.k.k.k.k.!.!.5 5 s.s.s.s.p.p.i.i.i.i.i.i.i.i.i.i.Y.Y.% % p.p.k.k.k.k.v.v.v.v.v.v.v.v.<.<.] ] t t + + x x f f > > ",
"V V f f p p 8 8 8 8 0 0 ~ ~ >.>.v.v.V.V.L.L.n.n.k.k.k.k.!.!.5 5 s.s.s.s.p.p.i.i.i.i.i.i.i.i.i.i.Y.Y.% % p.p.l.l.k.k.v.v.v.v.v.v.v.v.<.<.] ] t t + + x x f f > > ",
"< < > > : : X X > > e e T T v.v.v.v.D.D.C.C.k.k.k.k.s.s.!.!.. . a.a.i.i.i.i.i.i.i.i.i.i.i.i.i.i.T.T.    i.i.i.i.p.p.k.k.v.v.v.v.v.v.g.g.) ) t t X X > > > > > > ",
"< < > > : : X X > > e e T T v.v.v.v.D.D.C.C.k.k.k.k.s.s.!.!.. . a.a.i.i.i.i.i.i.i.i.i.i.i.i.i.i.T.T.    i.i.i.i.p.p.k.k.v.v.v.v.v.v.g.g.) ) t t X X > > > > > > ",
"p p p p 0 0 + + 0 0 G G ,.,.v.v.M.M.S.S.k.k.s.s.s.s.i.i.        i.i.i.i.i.i.i.i.i.i.i.i.i.i.i.i.        i.i.i.i.i.i.i.i.s.s.v.v.v.v.v.v.2.2.t t o o 0 0 q q q q ",
"p p p p 0 0 + + 0 0 G G ,.,.v.v.M.M.S.S.k.k.s.s.s.s.i.i.        i.i.i.i.i.i.i.i.i.i.i.i.i.i.i.i.        i.i.i.i.i.i.i.i.s.s.v.v.v.v.v.v.2.2.t t o o 0 0 q q q q ",
") ) ] ] G G @ @ 0 0 ] ] l.l.v.v.V.V.M.M.s.s.s.s.i.i.i.i.% % % % i.i.i.i.i.i.i.i.i.i.i.i.i.i.i.i.% % & & i.i.i.i.i.i.i.i.i.i.l.l.v.v.v.v.,.,.t t + + t t I I I I ",
") ) ] ] G G @ @ 0 0 ] ] l.l.v.v.V.V.M.M.s.s.s.s.i.i.i.i.% % % % i.i.i.i.i.i.i.i.i.i.i.i.i.i.i.i.% % & & i.i.i.i.i.i.i.i.i.i.l.l.v.v.v.v.,.,.t t + + t t L L I I ",
"] ] ~ ~ V V @ @ 0 0 ] ] v.v.v.v.n.n.k.k.p.p.i.i.i.i.i.i.i.i.i.i.i.i.i.i.i.i.i.i.i.i.i.i.i.i.i.i.i.i.i.i.i.i.i.i.i.i.i.i.i.i.A.A.M.M.v.v.x.x.w w @ @ p p ) ) ....",
"] ] ~ ~ V V @ @ 0 0 ] ] v.v.v.v.n.n.k.k.p.p.i.i.i.i.i.i.i.i.i.i.i.i.i.i.i.i.i.i.i.i.i.i.i.i.i.i.i.i.i.i.i.i.i.i.i.i.i.i.i.i.A.A.M.M.v.v.x.x.w w @ @ p p ) ) ....",
"> > > > > > + + 9 9 ] ] z.z.v.v.v.v.k.k.i.i.i.i.i.i.i.i.i.i.i.i.i.i.i.i.i.i.i.i.i.i.i.i.i.i.i.i.i.i.i.i.i.i.i.i.i.i.i.i.c.c.R.R.V.V.v.v.v.v.0 0 # # p p | | I I ",
"> > > > > > + + 9 9 ] ] z.z.v.v.v.v.k.k.i.i.i.i.i.i.i.i.i.i.i.i.i.i.i.i.i.i.i.i.i.i.i.i.i.i.i.i.i.i.i.i.i.i.i.i.i.i.i.i.c.c.R.R.V.V.v.v.v.v.0 0 # # p p | | I I ",
"t t t t t t + + $ $ ] ] g.g.v.v.v.v.v.v.p.p.i.i.i.i.i.i.i.i.i.i.i.i.i.i.i.i.i.i.i.i.i.i.i.i.i.i.i.i.i.i.i.i.i.i.i.i.i.i.W.W.Q.Q.v.v.v.v.z.z.$ $ @ @ p p x x t t ",
"t t t t t t + + $ $ ] ] g.g.v.v.v.v.v.v.p.p.i.i.i.i.i.i.i.i.i.i.i.i.i.i.i.i.i.i.i.i.i.i.i.i.i.i.i.i.i.i.i.i.i.i.i.i.i.i.W.W.Q.Q.v.v.v.v.z.z.$ $ @ @ p p x x t t ",
"........| { # # $ $ F F 1.1.v.v.v.v.k.k.k.k.p.p.i.i.i.i.i.i.i.i.i.i.i.i.i.i.i.i.i.i.i.i.i.i.i.i.i.i.i.i.i.i.i.i.N.N.Q.Q.Q.Q.J.J.v.v.v.v.=.=.@ @ # # I I ) ) { { ",
"........| { # # $ $ L F 1.1.v.v.v.v.k.k.k.k.p.p.i.i.i.i.i.i.i.i.i.i.i.i.i.i.i.i.i.i.i.i.i.i.i.i.i.i.i.i.i.i.i.i.N.N.Q.Q.Q.Q.J.J.v.v.v.v.=.=.@ @ # # I I ) ) { { ",
"| | | | | | > > # # $ $ : : g.g.v.v.v.v.k.k.s.s.p.p.i.i.i.i.i.i.i.i.i.i.i.i.i.i.i.i.i.i.i.i.i.i.i.i.i.i.i.i.B.B.G.G.R.R.A.A.v.v.v.v.v.v.4 4 @ @ : : z x | | ] ] ",
"| { | | | | > > # # $ $ : : g.g.v.v.v.v.k.k.s.s.p.p.i.i.i.i.i.i.i.i.i.i.i.i.i.i.i.i.i.i.i.i.i.i.i.i.i.i.i.i.B.B.G.G.R.R.A.A.v.b.v.v.v.v.4 4 @ @ : : z z | | ] ] ",
"0 0 < < q q q q @ @ * * * * * * d.d.v.v.v.v.v.v.k.k.s.s.s.s.p.p.p.p.i.p.i.i.i.i.i.i.i.i.p.p.s.s.s.s.s.s.j.j.k.k.v.v.v.v.b.b.b.b.v.v.*.*.* * = = 0 0 f f q q q q ",
"0 0 < < q q q q @ @ * * * * * * d.d.v.v.v.v.v.v.k.k.s.s.s.s.p.p.p.p.i.p.i.i.i.i.i.i.i.i.p.p.s.s.s.s.s.s.j.j.k.k.v.v.v.v.v.v.b.b.v.v.*.*.* * = = 0 0 f f q q q q ",
"| | I I I I ~ ~ ) ) 1 1 1 1 1 1 1 1 %.%.h.h.v.v.v.v.v.v.k.k.j.j.j.j.j.j.j.j.j.j.j.j.j.j.k.k.k.k.k.k.v.v.v.v.v.v.v.v.v.v.v.v.g.g.O.O.- - , , - - 2 2 t t q q f f ",
"| | I I I I ~ ~ ) ) 1 1 1 1 1 1 1 1 %.%.h.h.v.v.v.v.v.v.k.k.j.j.j.j.j.j.j.j.j.j.j.j.j.j.k.k.k.k.k.k.v.v.v.v.v.v.v.v.v.v.v.v.g.g.O.O.- - - - - - 2 2 t t q q f f ",
"t t 0 0 0 0 0 0 t t t t , , - - - - - - - - - - @.@.=.=.:.:.h.h.j.j.j.j.f.f.f.f.f.f.l.l.f.f.g.g.;.;.$.$.+.+.6 6 #.#.7 7 2 2 2 2 2 2 2 2 2 2 b b L L { { { { ....",
"t t 0 0 0 0 0 0 t t t t , , - - - - - - - - - - @.@.=.=.:.:.h.h.j.j.j.j.f.f.f.f.f.f.l.j.f.f.g.g.;.;.$.$.+.+.6 6 #.#.7 7 2 2 2 2 2 2 2 2 2 2 b b L L { { { { ....",
"0 0 > > > > < < p p p p f f t t 2 2 , , , , - - - - - - - - , , r r r r b b b b b b b b v v 2 2 ; ; ; ; 2 2 2 2 2 2 2 2 r r r r r r p p z z V V V V z z x x L L ",
"0 0 > > > > < < p p p p f f t t 2 2 , , , , - - - - - - - - , , r r r r b b b b b b b b v v 2 2 ; ; ; ; 2 2 2 2 2 2 2 2 r r r r r r p p z z V V V V z z x x L L ",
"A A ) ) { { ................................................................................~ ~ > > > > I I I I I I I I I I L L F L L A A A L L A A A A F F I I ",
"A A ) ) { { ................................................................................~ ~ > > > > I I I I I I I I I I L L L L L A A A L L A A A A F F I I "
};
