/* XPM */
static const char *sprite3[] = {
/* columns rows colors chars-per-pixel */
"40 40 144 2 ",
"   c #000001",
".  c #0A121B",
"X  c #0A121C",
"o  c #191919",
"O  c #0C1724",
"+  c #0D1A2A",
"@  c #0E1D2E",
"#  c #1F2020",
"$  c #2F2B29",
"%  c #332F2D",
"&  c #352F2C",
"*  c #38332F",
"=  c #3E362F",
"-  c #3A2F35",
";  c #383330",
":  c #3E3630",
">  c #36343D",
",  c #3F393A",
"<  c #473627",
"1  c #483727",
"2  c #483728",
"3  c #4A3828",
"4  c #4C3A29",
"5  c #4F3C2B",
"6  c #493A2E",
"7  c #513D2B",
"8  c #533E2C",
"9  c #543F2D",
"0  c #403730",
"q  c #423830",
"w  c #443A31",
"e  c #483B31",
"r  c #4A3D31",
"t  c #463A3C",
"y  c #56412D",
"u  c #58422E",
"i  c #5B442F",
"p  c #4F4032",
"a  c #514031",
"s  c #5B4430",
"d  c #5C4430",
"f  c #564339",
"g  c #594139",
"h  c #604732",
"j  c #634933",
"k  c #644B33",
"l  c #624A34",
"z  c #664B34",
"x  c #674C35",
"c  c #684D35",
"v  c #654D3E",
"b  c #694A3B",
"n  c #383642",
"m  c #433E4A",
"M  c #3F4056",
"N  c #3F466A",
"B  c #4C4C4D",
"V  c #564641",
"C  c #4C4555",
"Z  c #464358",
"A  c #574B53",
"S  c #584B53",
"D  c #5F4E50",
"F  c #5A4D56",
"G  c #584D5B",
"H  c #59505F",
"J  c #494862",
"K  c #4D4A61",
"L  c #464A6A",
"P  c #574F60",
"I  c #575064",
"U  c #55516A",
"Y  c #53526F",
"T  c #4E5272",
"R  c #43527F",
"E  c #4D557A",
"W  c #4B557E",
"Q  c #2D5684",
"!  c #2C5887",
"~  c #2C5988",
"^  c #2D5B8C",
"/  c #2D5D8F",
"(  c #3E5384",
")  c #3C598D",
"_  c #2E5E91",
"`  c #325F97",
"'  c #3C5B92",
"]  c #395C93",
"[  c #3A5C94",
"{  c #2E6096",
"}  c #2F639B",
"|  c #2F639C",
" . c #2F649D",
".. c #32629A",
"X. c #35629B",
"o. c #36639C",
"O. c #32659F",
"+. c #3A6098",
"@. c #2F66A0",
"#. c #3067A2",
"$. c #3269A3",
"%. c #356AA3",
"&. c #336AA4",
"*. c #346AA4",
"=. c #356CA6",
"-. c #386EA8",
";. c #3A70A9",
":. c #3C71AA",
">. c #3E73AC",
",. c #465683",
"<. c #455887",
"1. c #425788",
"2. c #455988",
"3. c #425A8D",
"4. c #416B9B",
"5. c #4276AE",
"6. c #4378B0",
"7. c #4478B0",
"8. c #487BB3",
"9. c #497CB4",
"0. c #4F81B7",
"q. c #5984B3",
"w. c #5082B8",
"e. c #5385BA",
"r. c #5485BB",
"t. c #5587BC",
"y. c #5789BD",
"u. c #598ABE",
"i. c #5F8FC3",
"p. c #6090C3",
"a. c #6493C6",
"s. c #6998CA",
"d. c #6D99C8",
"f. c #6E9CCD",
"g. c #709DCE",
"h. c #75A2D2",
"j. c #7DA9D8",
"k. c #84AFDD",
"l. c #86B1DF",
"z. c #88B2DF",
"x. c #88B2E0",
"c. c #8AB4E1",
"v. c #CED0D1",
"b. c gray95",
/* pixels */
"c c c c c c c c c c c < 2 9 9 u j k z x c c c c c c c c c c c c c c c c c c c c ",
"c x z k j j z z k k j < < 4 9 u u i d d h h d h j j z c c c c c c x x c x x x x ",
"2 < 3 3 3 4 5 8 y s i < 2 i i d d d k z z z z k j j j j j j d d 7 4 4 4 4 4 4 4 ",
"9 u x c c c c c c c j < 4 u u j j j j j j h u y 8 y y 8 7 7 4 4 4 4 5 y s d h j ",
"j j j j z z x x z k u < 8 k c c c j d y 8 8 8 y u u d d h j k z x c c c c c c c ",
"j j j d d i u u u i y < y k z j d 9 y u d j z x x x c c c c c c c c c c c c c c ",
"d h j j j j j k x c d < y u y u u i u u s d h j j j j j j j k z z z z x x c c c ",
"z z z x x x c c c c d < 8 y 9 y 9 y y y u u u u u y u y u 9 y y u u i d d d d d ",
"j j j j h d d d d d u < y c c x x k j j j j j k k k z z z u u y y 8 8 7 8 8 4 7 ",
"h h h h j j j k z c h < y c c c c c c x k k j j j j j j j j j j j j j z x x x x ",
"c c c c c c c c c c h < 3 c c c c c c x z z z z z z x x x x c c c c c c c c c c ",
"c c c c c c c c c c y < 3 c c c c c c c c c c c c c c c c x c x x z k j j j j k ",
"x x d u 9 7 4 1 1 < < < 3 3 3 4 4 4 4 4 3 3 3 3 3 3 3 3 3 3 4 4 4 4 4 4 4 4 2 < ",
"4 3 1 < < 2 3 3 7 4 4 3 4 8 u i d d d d d d j j j j k j j j j j j j j j j j 9 < ",
"j z c c c c c c c x x z x x x x x x x x x c c c c c c c c c c c c c c c c c j 1 ",
"j d d d d d d d d d j j k k k j j j j j j j k z x c c c c c c c c c c c c c j 1 ",
"x k j j j j j j k k z z z x c c c c c x x z z z z z z k k k j d d d s u u u 9 < ",
"c c c c c c c c c c c c c c c c c c c x k j j j d d d d d d d i u y y y y y 9 < ",
"x x x z k k k j j j j j j j j j d s d d d d j j k x c c c c c c k y 8 8 8 8 4 < ",
"d d d u u u i s d d h h d d j j j j j j j j j k x c c c c c c c c c c c c c d 1 ",
"y u u y 8 8 8 8 8 8 8 9 9 u s d j j j j k k k k x c c c c c c c c c x x x z u 1 ",
"z z x x c c z k j h d u y y 9 8 8 9 y u j x c c c x x x z k k j j j j j j j y 1 ",
"j j j j h d d d s u y y 9 9 9 7 5 4 4 4 4 7 y u u i d d d h d d d d d d d d 8 1 ",
"d d d d d d h d h h d u u y 9 7 4 4 4 4 3 3 3 4 4 7 9 u d j d j j k k z z z 9 2 ",
"c c c c c c c c c c c c c c c c v D U W 2.3.2.E H v c c c c c c c c c c c c 8 2 ",
"k z x x x x x x x c v U 2.o.#.$.:.6.>.#.=.;.=.#.#.#.#.#.+.Y v c c c c c c c 7 3 ",
"d d d d d u u f 1.#.#.5.u.a.s.s.y.7.t.i.e.:.$.#.#.#.#.#.#.#.#.O.T l j j j j 4 2 ",
"j j j j j j <.#.-.f.l.x.k.h.0.#.#.$.:.*.#.#.#.#.#.#.#.#.#.#.#.#.#.#.P z x x 9 7 ",
"2 < < 3 3 ' #.u.x.x.j.e.;.| #.#.#.#.#.#.#.#.#.#.#.4.#.#.#.#.#.#.#.#.#.J 2 1 < < ",
"2 < < < R #.i.x.z.9.#.=.v.o ` #.#.#.#.#.#.#.#.#...b.. #.#.#.#.#.:.=.#.#.t < < 1 ",
"j k z z O.#.x.l.*.#.#.#.#   @.#.#.#.#.#.#. .} } } B   #.#.#.#.#.5.g.$.#.,.d s s ",
"j j j S #.r.x.9.#.O.#.} X O ~ ~ ! ! ! ! ! ! ! ! ! @ + } ~ ~ ^ } &.l.p.#.[ x c c ",
"7 5 5 C #.w.k.#./ ^ ~ ! Q ~ ~ ~ ! ! ! ~ ~ ~ ~ ~ ~ ! ! ! ! ~ ~ ! q.c.u.#.+.x x x ",
"c c c b #.8.t.| ~ ! ! ! ! ! ! ! ! ! ! ! ! ! ! ! ! ! ! ! ! ! ~ ! l.c.f.#.,.s s d ",
"c c c c 3.#.#.#.~ ! ! ! ! ! ! ! ! ! ! ! ! ! ! ! ! ! ! ! ! ! ~ ~ d.l.=.#.F z x x ",
"x x c c g X.#.#.{ ~ ! ! ! ! ! ! ! ! ! ! ! ! ! ! ! ! ! ! ! ~ } } %.>.#.L c c c c ",
"d s i 6 % - [ #.#.#.#. .} } { { }  . .} { _ _ _ _ _ { }  .#.#.#.#.) n % % u u u ",
"c c c w ; ; * M ) O.#.#.#.#.#.#.#.#.#.#.#.#.#.#.#.#.O.X.] ( N > % % % % % 9 9 y ",
"d d j j a 0 = q r p a V A G I I I K Z m , : : : & $ 0 q 0 0 w w q w e a l c x x ",
"y 8 8 8 9 9 9 9 9 9 8 5 4 4 7 y d k x c c c c c 7 2 j c c c c c c c c x k k j j "
};
