/* XPM */
static const char *sprite_p6[] = {
/* columns rows colors chars-per-pixel */
"80 80 141 2 ",
"   c #000000",
".  c #0C0905",
"X  c gray6",
"o  c #120D09",
"O  c #16100A",
"+  c #050A11",
"@  c #080F18",
"#  c #08111A",
"$  c #111519",
"%  c #2C1D0E",
"&  c #261D16",
"*  c #2B1F12",
"=  c #211A1A",
"-  c #291F18",
";  c #3D2B0E",
":  c #2D2116",
">  c #2B231B",
",  c #342414",
"<  c #382616",
"1  c #372817",
"2  c #3A2916",
"3  c #32261B",
"4  c #34291D",
"5  c #3C2B1A",
"6  c #2F2226",
"7  c #342924",
"8  c #3C2F22",
"9  c #362E2E",
"0  c #3F3024",
"q  c #352F32",
"w  c #353136",
"e  c #3B3431",
"r  c #3A3B3C",
"t  c #402F17",
"y  c #422E1D",
"u  c #423015",
"i  c #45311E",
"p  c #49331E",
"a  c #533C16",
"s  c #583F1A",
"d  c #443324",
"f  c #4A3624",
"g  c #4E3925",
"h  c #493729",
"j  c #4C3A29",
"k  c #513B26",
"l  c #5A3F25",
"z  c #533D2A",
"x  c #4E3E31",
"c  c #523F33",
"v  c #503E39",
"b  c #584018",
"n  c #644713",
"m  c #63491D",
"M  c #735315",
"N  c #5B4026",
"B  c #56412D",
"V  c #5B432E",
"C  c #5D4630",
"Z  c #55453D",
"A  c #664B22",
"S  c #60462F",
"D  c #634A2F",
"F  c #735827",
"G  c #795A21",
"H  c #604731",
"J  c #644A33",
"K  c #684D35",
"L  c #654B38",
"P  c #3A4A6A",
"I  c #394E74",
"U  c #385575",
"Y  c #39517B",
"T  c #4D4749",
"R  c #434343",
"E  c #4D4952",
"W  c #534D53",
"Q  c #535052",
"!  c #605045",
"~  c #454A62",
"^  c #4D4E60",
"/  c #415276",
"(  c #425478",
")  c #835B16",
"_  c #886217",
"`  c #8C671D",
"'  c #8F691A",
"]  c #966D17",
"[  c #8F6A21",
"{  c #856935",
"}  c #A37E37",
"|  c #8F7146",
" . c #B28427",
".. c #B3862B",
"X. c #B28934",
"o. c #CE9214",
"O. c #C09233",
"+. c #C29F5E",
"@. c #D1A44B",
"#. c #2D5785",
"$. c #2C5887",
"%. c #2D5A8B",
"&. c #3C5580",
"*. c #3C5885",
"=. c #31578C",
"-. c #325A8F",
";. c #2E5E92",
":. c #355D93",
">. c #325F99",
",. c #2E6196",
"<. c #2F639B",
"1. c #336097",
"2. c #32639D",
"3. c #3067A2",
"4. c #356BA5",
"5. c #386EA7",
"6. c #396FA8",
"7. c #3C71AA",
"8. c #4276AF",
"9. c #467AB1",
"0. c #487BB3",
"q. c #4A7EB4",
"w. c #4F82B8",
"e. c #5284B9",
"r. c #598ABF",
"t. c #5C8DC1",
"y. c #6695C7",
"u. c #6695C8",
"i. c #6897C9",
"p. c #6B99CB",
"a. c #6D9BCC",
"s. c #719ECF",
"d. c #76A3D2",
"f. c #80ABDA",
"g. c #83AEDC",
"h. c #84AFDD",
"j. c #86B1DF",
"k. c #89B3E1",
"l. c #8AB4E1",
"z. c #D9DADC",
"x. c #F1F1F1",
/* pixels */
"8 8 0 0 d d d d 8 8 8 8 8 8 8 8 8 8 8 8 0 0 8 8 8 8 8 8 8 8 8 8 8 8 8 8 8 8 0 0 0 0 0 0 0 0 0 0 d d d d d d d d 0 0 0 0 0 0 0 0 0 0 0 0 d d 0 0 0 0 0 0 d d d d ",
"8 8 0 0 d d d d 8 8 8 8 8 8 8 8 8 8 8 8 0 0 8 8 8 8 8 8 8 8 8 8 8 8 8 8 8 8 0 0 0 0 0 0 0 0 0 0 d d d d d d d d 0 0 0 0 0 0 0 0 0 0 0 0 d d d d 0 0 0 0 d d d d ",
"K K K K K K K K K K K K K K K K V V z z j j d d d d h h B B z z 5 5 1 1 7 7 9 9 w w w w q q 7 7 3 3 z z K K K K K K K K K K K K K K K K K K K K K K K K K K K K ",
"K K K K K K K K K K K K K K K K V V z z j j d d d d h h B B z z 5 5 1 1 7 7 9 9 w w w w q q 7 7 3 3 z z K K K K K K K K K K K K K K K K K K K K K K K K K K K K ",
"K K J J J J J J H H C C C C J J J C C C C C d d e e P P >.>.3.3.3.3.3.3.4.4.3.3.3.3.3.3.3.3.3.3.3.3.2.2.-.-.( ( W W K K K K K K J J J J J J J J J J J J J J K K ",
"K K J J J J J J H H C C C C J J J J C C C C d d e e P P >.>.3.3.3.3.3.3.4.4.3.3.3.3.3.3.3.3.3.3.3.3.2.2.-.-.( ( W W K K K K K K J J J J J J J J J J J J J J K K ",
"0 0 8 8 8 8 d d d d d d h h j j z z B B C C U U 3.3.3.3.5.5.a.a.d.d.s.s.0.0.3.3.3.3.3.3.3.3.3.3.3.3.3.3.3.3.3.3.3.3.1.1.E E j j d d d d d d d d d d d d h h K K ",
"0 0 8 8 8 8 d d d d d d h h j j z z B B C C U U 3.3.3.3.5.5.a.a.d.d.s.s.0.0.3.3.3.3.3.3.3.3.3.3.3.3.3.3.3.3.3.3.3.3.1.1.E E j j d d d d d d d d d d d d h h K K ",
"d d d d j j K K K K K K K K K K K K ! ! 1.1.7.7.i.i.g.g.k.k.g.g.r.r.6.6.3.3.3.3.3.3.3.3.3.3.3.3.3.3.3.3.3.3.3.3.3.3.3.3.3.3.Y Y j j j j z z C C C C J J J J K K ",
"d d d d j j K K K K K K K K K K K K ! ! 1.1.6.6.i.i.g.g.k.k.g.g.r.r.6.6.3.3.3.3.3.3.3.3.3.3.3.3.3.3.3.3.3.3.3.3.3.3.3.3.3.3.Y Y j j j j z z C C C C J J J J K K ",
"B B z z B B C C H H J J J J J J Q Q 3.3.t.t.l.l.l.l.g.g.q.q.<.<.3.3.3.3.3.3.3.3.3.3.3.3.3.3.3.3.3.3.2.2.3.3.3.3.3.3.3.3.3.3.3.3.:.:.L L K K K K K K K K K K K K ",
"B B z z B B C C H H J J J J J J Q Q 3.3.t.t.l.l.l.l.g.g.q.q.<.<.3.3.3.3.3.3.3.3.3.3.3.3.3.3.3.3.3.3.2.2.3.3.3.3.3.3.3.3.3.3.3.3.:.:.L L K K K K K K K K K K K K ",
"J J C C z z B B B B B B B B T T 3.3.u.u.l.l.l.l.p.p.3.3.z.z.X X 3.3.3.3.3.3.3.3.3.3.3.3.3.3.3.3.3.3.x.x.$ $ 3.3.3.3.3.3.3.3.3.3.3.3.:.:.L L K K K K K K K K K K ",
"J J C C z z B B B B B B B B T T 3.3.u.u.l.l.l.l.p.p.3.3.z.z.X X 3.3.3.3.3.3.3.3.3.3.3.3.3.3.3.3.3.3.x.x.$ $ 3.3.3.3.3.3.3.3.3.3.3.3.:.:.L L K K K K K K K K K K ",
"j j h h h h z z J J J J L L 3.3.3.3.k.k.h.h.7.7.3.3.3.3.r r     3.3.3.3.3.3.3.3.3.3.3.3.3.3.3.3.3.3.R R     3.3.3.3.3.3.3.3.3.3.3.3.3.3./ / J J J J J J J J J J ",
"j j h h h h z z J J J J L L 3.3.3.3.k.k.h.h.7.7.3.3.3.3.r r     3.3.3.3.3.3.3.3.3.3.3.3.3.3.3.3.3.3.R R     3.3.3.3.3.3.3.3.3.3.3.3.3.3./ / J J J J J J J J J J ",
"K K J J J J J J J J J J ^ ^ 3.3.7.7.j.j.7.7.3.3.3.3.3.3.@ @ @ @ 3.3.<.<.<.<.3.3.3.3.3.3.3.3.3.3.3.3.+ + # # 3.3.3.3.3.3.3.3.3.3.w.w.7.7.>.>.j j k z j j j j J J ",
"K K J J J J J J J J J J ^ ^ 3.3.7.7.j.j.7.7.3.3.3.3.3.3.@ @ @ @ 3.3.<.<.<.<.3.3.3.3.3.3.3.3.3.3.3.3.+ + # # 3.3.3.3.3.3.3.3.3.3.w.w.7.7.>.>.j j k z j j j j J J ",
"V V B B B B B B V V V V ~ ~ 3.3.3.3.3.3.3.3.3.3.<.<.<.<.;.;.$.$.$.$.$.$.$.$.$.$.%.%.;.;.,.,.<.<.<.<.<.<.,.,.;.;.<.<.3.3.<.<.3.3.f.f.e.e.2.2.c c B B z z z z J J ",
"V V B B B B B B V V V V ~ ~ 3.3.3.3.3.3.3.3.3.3.<.<.<.<.;.;.$.$.$.$.$.$.$.$.$.$.%.%.;.;.,.,.<.<.<.<.<.<.,.,.;.;.<.<.3.3.<.<.3.3.f.f.e.e.2.2.c c B B z z z z J J ",
"J J V V B B B B B B B B W W 3.3.3.3.3.3.3.3.<.<.%.%.$.$.$.$.$.$.$.$.$.$.$.$.$.$.$.$.$.$.$.$.$.$.#.#.$.$.$.$.%.%.%.%.,.,.<.<.y.y.g.g.8.8.>.>.L L K K K K K K C C ",
"J J V V B B B B B B B B W E 3.3.3.3.3.3.3.3.<.<.%.%.$.$.$.$.$.$.$.$.$.$.$.$.$.$.$.$.$.$.$.$.$.$.#.#.$.$.$.$.%.%.%.$.,.,.<.<.y.y.g.h.8.8.>.>.L L K K K K K K C C ",
"K K K K K K K K K K K K k k =.=.3.3.3.3.3.3.$.$.$.$.$.$.$.$.$.$.$.$.$.$.$.$.$.$.$.$.$.$.$.$.$.$.$.$.$.$.$.$.$.$.$.$.$.$.<.<.d.d.k.k.q.q.*.*.K K K K K K K K C C ",
"K K K K K K K K K K K K k k =.=.3.3.3.3.3.3.$.$.$.$.$.$.$.$.$.$.$.$.$.$.$.$.$.$.$.$.$.$.$.$.$.$.$.$.$.$.$.$.$.$.$.$.$.$.<.<.d.d.k.k.q.q.*.*.K K K K K K K K C C ",
"J J J J J J J J J J C C , , : : 2.2.3.3.3.3.;.;.$.$.$.$.$.$.$.$.$.$.$.$.$.$.$.$.$.$.$.$.$.$.$.$.$.$.$.$.$.$.$.$.$.$.$.$.<.<.7.7.9.9.>.>.v v C C C C C C z z d d ",
"J J J J J J J J J J C C , , : : 2.2.3.3.3.3.;.;.$.$.$.$.$.$.$.$.$.$.$.$.$.$.$.$.$.$.$.$.$.$.$.$.$.$.$.$.$.$.$.$.$.$.$.$.<.<.7.7.9.9.>.>.v v C C C C B C z z d d ",
"8 8 8 8 8 8 8 8 8 8 5 5 , , , , h h 3.3.3.3.3.2.%.%.$.$.$.$.$.$.$.$.$.$.$.$.$.$.$.$.$.$.$.$.$.$.$.$.$.$.$.$.$.$.$.$.%.%.<.<.3.3.>.>.6 6 5 5 0 0 8 8 8 8 8 8 8 8 ",
"8 8 8 8 8 8 8 8 8 8 5 5 , , , , h h 3.3.3.3.3.3.%.%.$.$.$.$.$.$.$.$.$.$.$.$.$.$.$.$.$.$.$.$.$.$.$.$.$.$.$.$.$.$.$.$.%.%.<.<.3.3.>.>.6 6 5 5 0 0 8 8 8 8 8 8 8 8 ",
"d d d d h h h h h h 5 5 , , 5 5 d d k k -.:.3.3.3.3.<.<.,.,.%.%.$.$.$.$.$.$.$.$.$.$.$.$.$.$.$.$.$.$.$.$.$.$.%.%.<.2.3.3.3.3.&.&.j j , , , , C C J J J J d d 0 0 ",
"d d d d h h h h h h 5 5 , , 5 5 d d k k :.:.3.3.3.3.<.<.,.,.%.%.$.$.$.$.$.$.$.$.$.$.$.$.$.$.$.$.$.$.$.$.$.$.%.%.<.2.3.3.3.3.&.&.h h , , , , C C J J J J d d 0 0 ",
"d d d d d d d d d d , , , , i i y y k k z z E E 2.2.3.3.3.3.3.3.3.3.3.3.3.3.3.3.<.<.<.<.,.,.,.,.<.<.<.<.3.3.3.3.2.2./ / Z Z V V g f y y % % J J K K K K z z 8 8 ",
"d d d d d d d d d d , , , , i i y y k k z z E E 2.2.3.3.3.3.3.3.3.3.3.3.3.3.3.3.<.<.<.<.,.,.,.,.<.<.<.<.3.3.3.3.2.2./ / Z Z V V g g y y % % J J K K K K z z 8 8 ",
"d d d d d d d d d d , , 1 1 f f i i k k B l V V k k 9 9 I I 2.2.3.3.3.3.3.3.3.3.3.3.3.3.3.3.3.3.3.3.:.:.~ ~ 7 7 , , C C B B B B z z B B < < < < B B z z h h 8 8 ",
"d d d d d d d d d d , , 1 1 f f i i k k l l V V k k 9 9 I I 2.2.3.3.3.3.3.3.3.3.3.3.3.3.3.3.3.3.3.3.:.:.~ ~ 7 7 , , C C B B V B z k B B < < < 1 B B z z h h 8 8 ",
"B B C C K K K K f f , , 5 5 g g f f S S B B V V k k , , f f J J C C d d h h x x 8 8 d d C C B B f f V V k k , , , , C C B B z z d d J J k k % % d d 0 0 8 8 8 8 ",
"B B C C K K K K f f , , 5 5 g g f f S S B B V V k k , , f f J J C C d d h h x x 8 8 d d C C B B f f V V k k , , , , C C B B z z d d J J k k % % d d 0 0 8 8 8 8 ",
"B B C C K K J J , , , , i i z z k k H H B B S S k k < < f f J J B B i i z z z z y y f f V V B B f f J J z z , , < < J J B B z z d d J J V V , , d d z z h h 8 8 ",
"B B C C K K J J , , , , i i z z k k H H V V S S k k < < f f J J B V i i z z z z y y f f V V B B f f J J z z , , , < J J B B k k d d J J V V , , d d z z h h 8 8 ",
"d d d d d d d d , , , , g g z z B B H H V V H H k k 1 1 g g J J B B f f V V B B k k k k V V B B f f J J z k , , 5 5 J J V V z z 7 7 J J V V , , B B K K J J 8 8 ",
"d d d d d d d d , , , , g g z z B B H H V V H H k k 1 1 g g J J B B f f V V V V k k k k V V B B f f J J z z , , 5 5 J J V V z z 7 7 J J V V , , B B K K J J 8 8 ",
"8 8 8 8 8 8 5 5 : : , , H H k k z z S S V V V V k k 5 5 k k J J z z f f C C J J B B k k B B B B g g J J k k < < y y | | +.+.{ { F F D D B B , , y y K K J J 8 8 ",
"8 8 8 8 8 8 5 5 : : , , J H k k z z S S V V V V k k 5 5 k k J J z z f f C C J J B B k k B B B B g g J J k k < < y y | | +.+.{ { F F D D B B , , y y K K J J 8 8 ",
"d d h h C C h h , , , , J J g g z z V V B B B B k k 5 5 z z J J k k f f H H J J C V k k B B B B k k J J k k y y p p } } @.@.X.X.....A A V V , < , , j j h h 8 8 ",
"d d h h C C h h , , , , J J g g z z V V B B B B k k 5 5 z z J J k k f f H H J J C V k k B B B B k k J J k k y y p p } } @.@.X.X.....A A V V , , , , j j h h 8 8 ",
"d d 0 0 0 0 = = 5 5 5 5 H H z z V V V V B B V V k k y y z z J J k k f f J J J J J J z z z z V V z z J J k k k k s s _ _  . .O.O.[ [ a a D D < < , , h h h h 8 8 ",
"d d 0 0 0 0 = = 5 5 5 5 H H z z V V V V B B V V k k y y z z J J k k f f J J J J J J z z z z V V z z J J k k k k s s _ _  . .O.O.[ [ a a D D < < , , h h h h 8 8 ",
"0 0 0 0 d d G G m m 5 5 J J B B B B V V B B V V k k y y z z J J k k f f H H J J J J z z z z V V B B J J k k l l p p M M ' ' o.o.n n 1 1 J J 5 5 , , K K z z d d ",
"0 0 0 0 d d G G m m 5 5 J J B B B B V V B B V V k k y y z z J J k k f f H H J J J J z z z z V V B B J J k k l l p p M M ' ' o.o.n n 1 1 J J 5 5 , , K K z z d 0 ",
"B B V V J J  . .` ` & & V V V V z z B B V V H H g g y y z z J J k k f f H H J J J J z z z z C C V V J J g g N N , , 2 2 b b ) ) u u 5 5 J J 5 5 , , J J j j d d ",
"B B V V J J  . .` ` & & V V V V z z B B V V H S g g y y z z J J k k f f H H J J J J z z z z C C V V J J g g N N , , 2 2 b b ) ) u u 5 5 J J 5 5 , , J J j j d d ",
"C C B B V V ] ] M M 3 3 C C S S k k z z V V J J g g 5 5 k k V V f f f f H H J J J J k k k k H H J J J J f f N N , , : : 1 1 - - : : z z J J y y , , J J j j d d ",
"C C B B V V ] ] M M 3 3 C C S S k k z z V V J J g g 5 5 k k V V f f f f H H J J J J k k k k H H J J J J f f N N , , : : 1 1 - - : : z z J J y y , , J J j j d d ",
"B B z z h h ; ; t t y y H H S S i i k k V V J J g g 5 5 g g V V i i i i C C J J J J g g k k H H J J J J i i N N f f f f O O     : : V V J J i i , , C C z z 8 8 ",
"B B z z h h ; ; t t y 5 H H S S i i k k V V J J g g 5 5 g g V V i i i i C C J J J J g g k k H H J J J J i i N N f f f f O O     : : V V J J i i , , C C z z 8 8 ",
"0 0 8 8 8 8 p p k k V V J J V V 5 5 g g B B J J k k , , f f B B y y i i V V J J J J g g f f V V J J J J i i p p g g z z . .     3 3 C V J J f f , , 8 8 8 8 8 8 ",
"0 0 8 8 8 8 p p k k V V J J V V 5 5 g g B B J J k k , , f f B B y y i i V V J J J J g g f f V V J J J J i i p p g g z z . .     3 3 C V J J f f , , 8 8 8 8 8 8 ",
"j j j j f f y y f f V V V V k k 1 1 f f k k J J z z , , f f z z y y i i V V J J J J g g f f B B J J J J y y , , i i g g o o     : : B B J J f f , , h h d d d d ",
"j j j j f f y y f f V V V V k k 1 5 f f k k J J z z , , f f z z y y i i V V J J J J g g f f B B J J J J y y , , i i g g o o     : : B B J J f f , , h h d d d d ",
"J J J J B B 5 5 y y J J V V f f 1 1 i i g g J J z z , , i i k k y y f f V V J J J J g g d d B B J J J J 5 5 , , 5 y d d h h 3 3 3 3 z z J J f i , , C C C C C C ",
"J J J J B B 5 5 y y J J V V f f 1 1 i i g g J J z z , , i i k k y y f f V V J J J J g g d d B B J J J J 5 5 , , 5 5 d d h f 3 3 3 3 z z J J f f , , C C C C C C ",
"J J H H B B , , y y J J V V y y , < y y f f J J B B , , y y f f i i f f V V J J J J g g f f z z J J J J 5 5 , , y y f f B B h h 5 5 g g J J i i , , J J J J K K ",
"J J H H B B , , y y J J V V y y , , y y f f J J B B , , y y f f i i f f V V J J J J g g f f z z J J J J 5 5 , , y y f f B B h h 5 5 g g J J i i , , J J J J K K ",
"8 8 8 8 8 8 , , 5 5 J J V V y y , , 5 5 f f J J B B % % < < f f f f g g V V J J J J k k i i z z H H J J y y , , y y f f z z d f 5 5 f f J J 5 5 , , K K K K C C ",
"8 8 8 8 8 8 , , 5 5 J J V V y y , , 5 5 f f J J B B % % < < f f f f g g V V J J J J k k i i z z C H J J y y , , y y f f z z f f 5 5 f f J J 5 5 , , K K K K C C ",
"h h h h g g , , , , J J V V i i , , 5 5 f f J J B B % % , , g g f f k k V V J J J J k k i i z z H H J J y y , , y y g g B B f f y y g g C C , , % % V V z z h h ",
"h h h h g g , , , , J J V V i i , , 5 5 f f J J B B % % , , g g f f k k V V J J J J k k i i z z H H J J y y , , y y g g B B f f y y g g C C , , % % V V z z h h ",
"K K K K J J % % % % y y J J i i , , 5 5 k k J J B B % % , , k k B B B B J J J J J J z z f f B B J J J J f f , , y y k k B B f f i i k k < < % % % % H H J J J J ",
"K K K K J J % % % % y y J J i i , , 5 5 k k J J B B % % , , k k B B B B J J J J J J z z f f B B J J J J f f , , y y k k B B f f i i k k < < % % % % H H J J J J ",
"K K K K K K , , % % % % , , , , 1 1 5 5 5 5 y y 5 5 * * - - > > 3 3 3 3 4 4 4 4 4 4 3 3 3 3 > > 4 4 4 4 3 3 3 3 , , < 5 5 5 , , * * % * % % % % % % K K K K J J ",
"K K K K K K , , % % % % , : , , 1 1 5 5 5 5 y y 5 5 * * - - > > 3 3 3 3 4 4 4 4 4 4 3 3 3 3 3 3 4 4 4 4 3 3 3 3 , , < 1 5 5 , , * % % : % % % % % % K K K K J J ",
"d d 0 0 d d i i % % % % % % % % , , , , , , , , > > & & & & > > > > > > > > > > > > > > > > > > > > > > > > > > 3 3 3 5 5 5 , , , , % % % % , , y y z z d d h h ",
"d d 0 0 d d i i % % % % % % % % , , , , , , , , > > & & & & > > > > > > > > > > > > > > > > > > > > > > > > > > 3 3 1 5 5 5 , , , , % % % % , , y y z z d d d d ",
"K K C C C C H H H H J J J J C H H H J J J J J J H H H H C C x x x x x x x x x x x x x x c c h h 8 8 8 8 z z z z j j z z z z z z z z z z z z j j j j h h d d z z ",
"K K C C C C H H H H J J J J H H H H J J J J J J H H H H C C x x x x x x x x x x x x x x B c h h 8 8 8 8 z z z z j j j j z z z z z z z z z z j j j j h h d d z z ",
"h h d d d d d d h h h h h h h h h h h h h h j j j j z z B B B B B B z z z j j j j j h h j j d d 8 8 8 8 z z J J K K K K K K K K K K K K K K K K K K J J J J K K ",
"h h d d d d d d h h h h h h h h h h h h h h j j j j z z B B B B B B z z z z j j j j h h h j d d 8 8 8 8 z z J J K K K K K K K K K K K K K K K K K K J J J J K K ",
"d d 8 8 8 8 0 0 j j j j z z z z j j j j j j h h d d d d d d h h B B C C J J K K K K K K K K B B 8 8 8 8 B B B B B B B B B B B B B B B B B B B B B B z z z z C C ",
"d d 8 8 8 8 0 0 j j j j z z z z j j j j j j h h d d d d d d h h B B C C J J K K K K K K K K B B 8 8 8 8 B B B B B B B B B B B B B B B B B B B B B B z z z z C C ",
"B B J J J J K K K K K K K K K K K K K K K K K K K K K K K K K K K K K K K K K K K K K K K K H H 8 8 8 8 C C C C C C C C C C C C V V B B B B V B B B B B V V C C ",
"B B J J J J K K K K K K K K K K K K K K K K K K K K K K K K K K K K K K K K K K K K K K K K H H 8 8 8 8 C C C C C C C C C C C C V V B B B B V B B B B B V V C C "
};
