/* XPM */
static const char *sprite_p3[] = {
/* columns rows colors chars-per-pixel */
"80 80 169 2 ",
"   c #000001",
".  c #0A121B",
"X  c #191919",
"o  c #2B1F15",
"O  c #2E2216",
"+  c #2D221A",
"@  c #312317",
"#  c #332619",
"$  c #37281B",
"%  c #3B2C1D",
"&  c #0D1C2C",
"*  c #0C1724",
"=  c #1F2020",
"-  c #282726",
";  c #2B2A2A",
":  c #2D2927",
">  c #372B20",
",  c #3C2E22",
"<  c #342E2B",
"1  c #332628",
"2  c #3F3123",
"3  c #36312D",
"4  c #3A322D",
"5  c #372E30",
"6  c #3D3533",
"7  c #3D393D",
"8  c #402F1F",
"9  c #46331C",
"0  c #4A361D",
"q  c #453117",
"w  c #443324",
"e  c #493727",
"r  c #493625",
"t  c #493625",
"y  c #4B3827",
"u  c #4C3827",
"i  c #4F3A27",
"p  c #4D3927",
"a  c #42352B",
"s  c #493728",
"d  c #4B3929",
"f  c #4C3928",
"g  c #4D3A29",
"h  c #4F3A29",
"j  c #4E3B2A",
"k  c #4F3C2A",
"l  c #4D3A29",
"z  c #503B29",
"x  c #503B2A",
"c  c #513C29",
"v  c #513C2A",
"b  c #523D2A",
"n  c #533E2B",
"m  c #523D29",
"M  c #543E2B",
"N  c #563F2B",
"B  c #533E2C",
"V  c #553F2C",
"C  c #523D2B",
"Z  c #4E3D30",
"A  c #403739",
"S  c #5A411E",
"D  c #694C1C",
"F  c #78571E",
"G  c #55402D",
"H  c #56402C",
"J  c #57412E",
"K  c #57422E",
"L  c #57402D",
"P  c #59422E",
"I  c #5A432E",
"U  c #58412D",
"Y  c #5B442F",
"T  c #5C442F",
"R  c #5A432E",
"E  c #5B4430",
"W  c #5C4530",
"Q  c #5F4631",
"!  c #5D4630",
"~  c #5D4631",
"^  c #564237",
"/  c #654B25",
"(  c #60472F",
")  c #6E5226",
"_  c #604731",
"`  c #604732",
"'  c #604731",
"]  c #614832",
"[  c #604832",
"{  c #624932",
"}  c #634933",
"|  c #634A33",
" . c #644A33",
".. c #644B33",
"X. c #654B34",
"o. c #664B34",
"O. c #674C35",
"+. c #644A33",
"@. c #684D35",
"#. c #684D35",
"$. c #624B3C",
"%. c #7C6134",
"&. c #3E3A4B",
"*. c #383542",
"=. c #373A53",
"-. c #433E4A",
";. c #3A4265",
":. c #3F517F",
">. c #4C4C4D",
",. c #504247",
"<. c #454156",
"1. c #49475F",
"2. c #47455C",
"3. c #554D5D",
"4. c #494760",
"5. c #42496C",
"6. c #494964",
"7. c #574E60",
"8. c #534F69",
"9. c #52506A",
"0. c #49547D",
"q. c #88631E",
"w. c #B17F1C",
"e. c #815F23",
"r. c #836124",
"t. c #9D752C",
"y. c #987435",
"u. c #A77F33",
"i. c #836641",
"p. c #B48C45",
"a. c #A88852",
"s. c #2C5887",
"d. c #2C5989",
"f. c #2D5684",
"g. c #3F5585",
"h. c #3B588C",
"j. c #2E5E92",
"k. c #325F97",
"l. c #3A5D94",
"z. c #2E6096",
"x. c #2F639B",
"c. c #33639D",
"v. c #2F66A0",
"b. c #3067A2",
"n. c #346AA4",
"m. c #386EA8",
"M. c #3C72AB",
"N. c #425787",
"B. c #445887",
"V. c #42598A",
"C. c #416B9B",
"Z. c #4277AF",
"A. c #4478B0",
"S. c #497CB4",
"D. c #4F81B7",
"F. c #5385BA",
"G. c #598ABF",
"H. c #5887B8",
"J. c #5F8FC3",
"K. c #6292C4",
"L. c #6C9ACB",
"P. c #709DCE",
"I. c #79A5D5",
"U. c #84AFDD",
"Y. c #86B1DE",
"T. c #88B2DF",
"R. c #89B3E0",
"E. c gray95",
"W. c #CED0D1",
/* pixels */
", , 2 2 w w w w , , , , , , , , , , , , 2 2 , , , , , , , , , , , , , , , , , , , , , , , , , , w w w w w w w w 2 2 2 2 2 2 2 2 2 2 2 2 w w 2 2 2 2 2 2 w w w w ",
", , 2 2 w w w w , , , , , , , , , , , , 2 2 , , , , , , , , , , , , , , , , , , , , , , , , , , w w w w w w w w 2 2 2 2 2 2 2 2 2 2 2 2 w w w w 2 2 2 2 w w w w ",
"O.O.@.@.@.@.@.@.@.O.O.O.@.@.O.O.Y Y v v f f w w w w d d J J f f # # @ @ @ # @ @ O @ @ @ @ @ @ @ @ @ v v O.O.@.@.@.O.O.O.@.@.@.@.@.@.O.O.@.@.@.@.@.@.@.@.@.@.@.@.",
"O.O.@.@.@.@.@.@.O.O.O.O.@.@.O.O.Y Y v v f f w w w w d d J J f f # # @ @ @ # @ @ O O @ @ @ @ @ @ @ @ v v O.O.@.@.O.O.O.O.@.@.@.@.@.@.O.O.@.@.@.@.@.O.@.@.@.@.@.@.",
"@.@.X.X. . .{ { ` ` Q Q Q Q { { { { Q Q Q Q e e , , 2 w $ $ @ @ # # % % 2 2 e e % % % % e e $ $ @ @ @ @ @ @ J J O.O.@.@.@.@.O.O.{ { { { X.X. . . . . . .{ { @.@.",
"@.@.X.X. . .{ { ` ` Q Q Q Q { { { { Q Q Q Q e e , , 2 2 $ $ @ @ # # % % 2 2 e e % % % % e e $ $ @ @ @ @ @ @ J J O.O.@.@.@.@.O.O.{ { { { X.X. . . . . . .{ { @.@.",
"2 2 , , , , w w e e e e e e f f v v J J P P e e > > @ @ O O $ $ e e z z e e J J t t u u  . . . .J J % % @ @ @ @ e e P P P P f f w w e e e e e e e e e e e e @.@.",
"2 2 , , , , w w e e e e e e f f v v J J P P e e > > @ @ O O $ $ e e z z e e J J t t u u  . . . .J J % % @ @ @ @ e e P P P P f f w w e e e e e e e e e e e e @.@.",
"e e e e k k @.@.O.O.@.@.@.@.@.@.@.@.@.@. . ., , O O @ O $ $ z z J J e e e e v v w w u u  . .{ { P P T T w w # # O O , , d d d d f f f f B B Q Q Q Q { { X.X.@.@.",
"e e e e k k @.@.@.@.O.O.@.@.@.@.@.@.@.@. . ., , O O @ O % $ z z J J e e e e v v w w u u  . .{ { P P T T w w # # O O , , d d d d f f f f B B Q Q Q Q { { X.X.@.@.",
"J J B B J P Q Q ` ` { ` { { { { { { { { y y O O @ @ $ $ , , M M v v e e e e v v t t c c  . .{ { M M ` ` z z % % % % $ $ P P @.@.@.@.@.@.@.@.@.@.@.@.@.@.@.@.@.@.",
"J J B B P P Q Q ` ` { { { { { { { { { { y y O O O O $ $ , , M V v v e e e e v v t t c c  . .{ { M M ` ` z z % % % % $ $ P P @.@.@.@.@.@.@.@.@.@.@.@.@.@.@.@.@.@.",
"{ { P P V V J J P P P P J J J J J J v v O O O O w w % % w w P P z z u u e e M M e e v v  . .{ { v v T T v v , , y y % % % % ` ` @.@.@.@.@.@.@.@.@.@.@.@.@.@.@.@.",
"{ { P P V V J J P P P P J J J J J J v v O O O O w w % % w w P P z z u u e e M M e e v v  . .{ { v v T T v v , , u y % % % % ` ` @.@.@.@.@.@.@.@.@.@.@.@.@.@.@.@.",
"f f e e e e v v { {  . .X.X.O.O.{ { % % @ @ u u P P % % w w T T z z f f e e V V u u v v  . . .{ v v J J J J % % ` ` f f # # e e Q Q { { { { { {  . . . . . .X.X.",
"f f e e e e v v { {  . .X.X.O.O.{ { % % @ @ u u P P % % w w T T z z f f e e V V u u v v  . . . .v v J J J J % % ` ` f f # # e e Q Q { { { { { {  . . . . . .X.X.",
"@.@. . . . . . . . . . . . .{ { e e @ @ w w O.O.P I % % w w { { v v v v f f P P v v M M { { { { v v M M P P % % M V  . .w w @ @ e e k k k k k k v v f f f f  . .",
"@.@. . . . . . . . . . . . .{ { e e @ @ w w O.O.P P % % w w { { v v v v f f P P v v M M { { { { v v M M P P % % V V  . .w w @ @ e e k k k k k k v v f f f f  . .",
"Y Y J J P P P P Y Y Y Y E E f f @ @ % % { { { { P P $ $ w w  . .V V v v B B P P v v M M { { { { v v v v I I , , v v  . .P P $ $ # # v v V V V J J J B B B B { { ",
"Y Y J J P P P P Y Y Y Y E E f f @ @ % % { { { { P P % $ w w  . .V V v v B B P P v v M M { { { { v v v v I P , , v v  . .P P $ $ # # v v V V J J J J B B B B { { ",
" . .Y Y J J J J J J P P Q Q % % @ @ f f { { { { P P $ $ w w  . .P P J J v v P P v v M M ` ` { { v v v v P P % % f f  . . . .w w $ $ J P @.@.@.@.@.@.@.@.@.@.Q Q ",
" . .Y Y J J J J J J P P Q Q % $ @ @ f f { { { { P P $ $ w w  . .P P J J v v P P v v M M ` ` { { v v v v P P % % f f  . . . .w w $ $ J P @.@.@.@.@.@.@.@.@.@.Q Q ",
"@.@.@.@.@.@.@.@.O.@.O.O.M M @ @ % % E E Q Q { { H H % % w w  . .Q Q P P v v P P u u u u Q Q { { v v v v J J % % f f  . .` ` P P % % $ $ { { @.@.@.@.@.@.@.@.Q Q ",
"@.@.@.@.@.@.@.@.O.@.O.O.M M @ @ % % E E Q Q { { H J % % w w  . .Q Q P P v v P P u u u u Q Q { { v v v v J J % % f f  . .` ` P P % % $ $ { { @.@.@.@.@.@.@.@.Q Q ",
"{ { { { { { { { { { Q Q $ $ # # v v J J Q Q { { J J % % t t  . .{ { P P z z P P w w t t ` ` { { v v v v J J % % e e { { Q Q Q Q w w # # y y Q Q Q Q P P B B e e ",
"{ { { { { { { { { { Q Q $ $ # # v v P J Q Q { { J J % % t t  . .{ { P P z z P P w w t t ` ` { { v v v v J J % % e e { { Q Q Q Q w w # # y y Q Q Q Q P P B B e e ",
", , , , , , , , , , % % o o % % J P J J Q Q { { V V % % e e  . .{ { P P f f J J w w e e { { { { v v M M J J % % e e { { Q Q P P v v # # + + , , , , , , , , , , ",
", , , , , , , , , , % % o o % % J P J J Q Q { { M V % % e e  . .{ { P P f f J J w w e e { { { { v v M M J J % % e e { { Q Q P P v v # # + + , , , , , , , , , , ",
"e e e e s s d d e e % % @ @ w w v v P P Q Q ` Q M M % % u u  . . . .P I f f v v w w e e { { ` ` M M J J M M % % e e { { Q Q J J J J % % # # P P { { { { w w 2 2 ",
"e e e e s s d s e e % % @ @ w w v v P P Q Q ` ` V M % % u u  . . . .P I f f v v w w e e { { ` ` M M J J M M % % e e { { Q Q J J J J % % # # P P { { { { w w 2 2 ",
"e e e e e e w w w w @ @ $ $ e e f f P P T T Q Q v M % % f f  . . . .P P z z z z % % e e { { Q Q M M P P v v % % e e { { T T P P v v y y $ $ M M O.O.@.@.v v , , ",
"e e e e e e w w w w @ @ $ $ e e f f P P T T Q Q v M % % f f  . . . .P P z z z z % % e e { { Q Q M M P P v M % % e e { { T T P P v v y y $ $ M M O.O.@.@.v v , , ",
"w w w w e e e e , , @ @ % % u u f f P P Y Y Q Q M M % % z z  . .{ { M M v v z z 8 8 e e { ` Q Q v v P P v M % % w w { { T T P P f f Q Q $ $ % % J J B B e e , , ",
"w w w w e e e e , , @ @ % % u u f f P P Y Y Q Q M M % % z z  . .{ { M M v v z z 8 8 e e Q Q Q Q v v P P v v % % w w { { T T P P f f Q Q $ $ $ $ J J B B e e , , ",
"J J Q Q @.@.O.O.e e $ $ w w v v v v Q Q Y Y Q Q V V % % z z  . .Q Q z z V V v v 9 9 u u Q ` Q Q v v P P v v % % w w { { T T P P f f X.X.% % @ @ 2 2 2 2 , , , , ",
"J J Q Q @.@.O.O.e e $ $ w w v v v v Q Q Y Y Q Q V V % % z z  . .Q Q z z V V v v 9 9 u u Q ` Q Q v v P P v v $ % w w { { T T P P f f X.X.% % @ @ 2 2 2 2 , , , , ",
"J J Q Q O.O. . .$ $ $ $ e e J J J J Q Q Y Y Q Q J J w w v v  . .T T f f Y Y P P e e v v Q Q Q Q v v Q Q v v % % w w { { P P V V e e  . .w w @ @ e e v v d d , , ",
"J J Q Q O.O. . .$ $ $ $ e e J J J J Q Q Y Y Q Q J J w w v v  . .T T f f Y Y P P e e v v Q ` Q Q v v Q Q v v % % w w { { P P V V e e  . .w w @ @ e e v v d d , , ",
"w w w w w w w w @ @ % % v v J J J J Q Q T Q T T J J w w V V  . .P P f f { { T T v v V V Q Q Q Q v v ` ` v v % % e e { { Q Q P P w w { { f f $ $ P P O.O.{ { , , ",
"w w w w w w w w @ @ % % v v J J J J Q Q T T T T H J w w V V  . .P P f f { { T T v v V V Q Q Q Q v v ` ` v v % % e e { { ` Q P P w w { { f f $ $ P P O.O.{ { , , ",
", , , , , , $ $ O O w w { { M M V V Q Q T T Q Q J J e e J J  . .P P z z { { { { P P J J Q Q Q Q v v { { v v % % w w i.i.a.a.%.%.) )  . .E E $ $ w w  . .{ { , , ",
", , , , , , $ $ O O w w { { M M V V Q Q T T Q Q J J e e J J  . .P P z z { { { { P P J J Q Q Q Q v v { { v v % % w w i.i.a.a.%.%.) )  . .E E $ $ w w  . .{ { , , ",
"w w s s E E f f $ $ u u  . .v v f f Y Y P P Q Q J J d d P P  . .M M z z { {  . .Q Q J J Q Q Q Q v v { { v v > > t t y.y.p.p.y.y.t.t./ / ` ` $ $ @ @ d d e e , , ",
"w w s s E E f f $ $ u u  . .v v f f Y Y P P Q Q J J d f P P  . .M M z z { {  . .Q Q J J Q Q Q Q v v  . .v v > > t t y.y.p.p.y.y.t.t./ / ` ` $ $ @ @ d d e e , , ",
"w w 2 2 2 2 + + O O v v { { M M f f Y Y P P Q Q J J f f Q Q  . .M M v v  . . . .{ { P P T T Q Q J J  . .v v $ $ S S F F t.t.u.u.r.r.S S { { % % @ @ d d d d , , ",
"w w 2 2 2 2 + + O O v v { { M M f f Y Y P P Q Q J J f f Q Q  . .M M v v  . . . .{ { P P T T Q Q J J  . .v v $ $ S S F F t.t.u.u.r.r.S S { { % % @ @ d d d d , , ",
"2 2 2 2 e e ) ) / / w w { { J J u u P P P P ` ` J J f f Q Q  . .M M v v { {  . . . .P P Y Y ` ` Y Y  . .M M @ @ 9 9 F F r.r.w.w.D D 9 9 { { % % $ $ { { B v w w ",
"2 2 2 2 e e ) ) / / w w { { J J y u P P P P ` ` J J f f Q Q  .{ M M v v { {  . . . .P P Y Y ` ` Y Y  . .M M @ @ 9 9 F F r.r.w.w.D D 9 9 { { % % $ $ { { B B w 2 ",
"J J Y Y { { t.t.e.e.$ $ ` ` Y Y e e P P T T { { J J f f P P ` { ^ ^ ,.,.8.8.0.0.B.B.V.V.N.N.0.0.3.3.$.$.v v # # O O 9 9 S U F F 0 0 t t  . .% % # # { { f f w w ",
"J J Y Y { { t.t.e.e.$ $ ` ` P P e e P P T T { { J J f f P P { { ^ ^ ,.,.8.8.0.0.B.B.V.V.N.N.0.0.3.3.$.$.v v # # O O 9 9 U U F F 0 0 t t  . .% % # # { { f f w w ",
"E E J J T T q.q.D D , , Q Q Y Y e e P P ~ ~ 9.9.N.N.c.c.b.b.n.n.M.M.A.A.M.M.b.b.n.n.M.M.n.n.b.b.b.b.b.b.b.b.b.b.l.l.6.6.a a % % % % J J  . .w w # # Q Q f f w w ",
"E E J J T T q.q.D D , , Q Q Y Y e e P P ~ ~ 9.9.N.N.c.c.b.b.n.n.M.M.A.A.M.M.b.b.n.n.M.M.n.n.b.b.b.b.b.b.b.b.b.b.l.l.6.6.a a % % % % J J  . .w w # # Q Q f f w w ",
"J J v v f f q q 0 0 w w ` ` ^ ^ g.g.b.b.b.b.Z.Z.G.G.K.K.L.L.L.L.G.G.A.A.F.F.J.J.F.F.M.M.n.n.b.b.b.b.b.b.b.b.b.b.b.b.b.b.b.b.c.c.5.5.Q Q  . .e e @ @ V V v v , , ",
"J J v v f f q q 0 0 w w ` ` ^ ^ g.g.b.b.b.b.Z.Z.G.G.K.K.L.L.L.L.G.G.A.A.F.F.J.J.F.F.M.M.n.n.b.b.b.b.b.b.b.b.b.b.b.b.b.b.b.b.c.c.5.5.Q Q  . .e e @ @ V V v v , , ",
"2 2 , , > > o o , , i i B.B.b.b.m.m.L.L.Y.Y.R.R.U.U.I.I.D.D.v.b.b.b.n.n.M.M.n.n.b.b.b.b.b.b.b.b.b.b.b.b.b.b.b.b.b.b.b.b.b.b.b.b.b.b.b.b.7.7.e e o o , , , , , , ",
"2 2 , , > > o o , , u u B.B.b.b.m.m.L.L.Y.Y.R.R.U.U.I.I.D.D.v.b.b.b.n.n.M.M.n.n.b.b.b.b.b.b.b.b.b.b.b.b.b.b.b.b.b.b.b.b.b.b.b.b.b.b.b.b.7.7.e e o o , , , , , , ",
"f f f f w w @ @ w w l.l.b.v.G.G.R.R.R.R.I.I.F.F.M.M.x.x.b.b.b.b.v.v.b.b.b.b.b.b.b.b.b.b.b.b.b.b.b.b.C.C.b.b.b.b.b.b.b.b.b.b.b.b.b.b.b.b.b.b.4.4.O O w w e e e e ",
"f f f f w w @ @ w w l.l.v.v.G.G.R.R.R.R.I.I.F.F.M.M.x.x.b.b.b.b.b.b.b.b.b.b.b.b.b.b.b.b.b.b.b.b.b.b.C.C.b.b.b.b.b.b.b.b.b.b.b.b.b.b.b.b.b.b.4.4.O O w w e e e e ",
"{ {  . .T T # # 0.0.b.b.J.J.R.R.T.T.S.S.b.b.n.n.W.W.X X k.k.b.b.b.v.v.b.b.b.b.b.b.b.b.b.b.b.b.b.c.c.E.E.. . b.b.b.b.b.b.b.b.b.b.M.M.n.n.b.b.b.b.5 5 d d Q Q Q Q ",
"{ {  . .T T # # 0.0.b.b.J.J.R.R.T.T.S.S.b.b.n.n.W.W.X X k.k.b.b.b.b.v.b.b.b.b.b.b.b.b.b.b.b.b.b.c.c.E.E.. . b.b.b.b.b.b.b.b.b.b.M.M.n.n.b.b.b.b.5 5 d d E E Q Q ",
" . .` ` J J # # c.c.b.b.R.R.Y.Y.n.n.b.v.b.b.b.b.= =     v.v.b.b.b.b.b.b.b.b.b.b.b.b.x.x.x.x.x.x.x.x.>.>.    b.b.b.b.b.b.b.b.b.b.Z.Z.L.P.n.n.b.b.:.:.f f { { @.@.",
" . .` ` J J # # c.c.b.b.R.R.Y.Y.n.n.b.b.b.b.b.b.= =     v.v.b.b.b.b.b.b.b.b.b.b.b.b.x.x.x.x.x.x.x.x.>.>.    b.b.b.b.b.b.b.b.b.b.Z.Z.P.P.n.n.b.b.:.:.f f { { @.@.",
", , , , , , *.*.b.b.F.F.R.R.S.S.b.b.c.c.b.b.x.x.. . * * d.d.d.d.s.s.s.s.s.s.s.s.s.s.s.s.s.s.s.s.s.s.& & & & x.x.d.d.d.d.d.d.x.x.n.n.Y.Y.K.K.b.b.l.l.f f O.O.Q Q ",
", , , , , , *.*.b.b.F.F.R.R.S.S.b.b.c.c.b.b.x.x.. . * * d.d.d.d.s.s.s.s.s.s.s.s.s.s.s.s.s.s.s.s.s.s.& & & & x.x.d.d.d.d.d.d.x.x.n.n.Y.Y.K.K.b.b.l.l.f f O.O.Q Q ",
"e e s s d d &.&.b.b.F.F.U.U.b.b.d.d.d.d.d.d.s.s.f.f.d.d.d.d.d.d.s.s.s.s.s.s.d.d.d.d.d.d.d.d.d.d.d.d.s.s.s.s.s.s.s.s.d.d.d.d.s.s.H.H.R.R.G.G.b.b.l.l.f f V V d d ",
"e e s s d d &.&.b.b.F.F.U.U.b.v.d.d.d.d.d.d.s.s.f.f.d.d.d.d.d.d.s.s.s.s.s.s.d.d.d.d.d.d.d.d.d.d.d.d.s.s.s.s.s.s.s.s.d.d.d.d.s.s.H.H.R.R.G.G.b.b.l.l.f f V V d d ",
"@.@.@.@.X.X., , b.b.S.S.F.F.x.x.d.d.d.d.s.s.s.s.s.s.s.s.s.s.s.s.s.s.s.s.s.s.s.s.s.s.s.s.s.s.s.s.s.s.s.s.s.s.s.s.s.s.s.s.d.d.s.s.Y.Y.R.R.L.L.b.b.:.:.Q Q { { X.X.",
"@.@.@.@.X.X., , b.b.S.S.F.F.x.x.d.d.d.d.s.s.s.s.s.s.s.s.s.s.s.s.s.s.s.s.s.s.s.s.s.s.s.s.s.s.s.s.s.s.s.s.s.s.s.s.s.s.s.s.d.d.s.s.Y.Y.R.R.L.L.b.b.:.:.Q Q { { X.X.",
"O.O.@.@.O.O., > h.h.b.b.b.b.b.b.d.d.s.s.s.s.s.s.s.s.s.s.s.s.s.s.s.s.s.s.s.s.s.s.s.s.s.s.s.s.s.s.s.s.s.s.s.s.s.s.s.s.s.s.d.d.d.d.L.L.Y.Y.n.n.b.b.&.&.B B O.O. . .",
"O.O.@.@.O.O.> > h.h.b.b.b.b.b.b.d.d.s.s.s.s.s.s.s.s.s.s.s.s.s.s.s.s.s.s.s.s.s.s.s.s.s.s.s.s.s.s.s.s.s.s.s.s.s.s.s.s.s.s.d.d.d.d.L.L.Y.Y.n.n.b.b.&.&.B B O.O. . .",
"w w 2 2 e e w w 1 1 c.c.b.b.b.b.z.z.d.d.s.s.s.s.s.s.s.s.s.s.s.s.s.s.s.s.s.s.s.s.s.s.s.s.s.s.s.s.s.s.s.s.s.s.s.s.s.s.d.d.x.x.x.x.n.n.M.M.n.n.;.;.e e v v e e e e ",
"w w 2 2 e e e w 1 1 c.c.b.b.b.b.z.z.d.d.s.s.s.s.s.s.s.s.s.s.s.s.s.s.s.s.s.s.s.s.s.s.s.s.s.s.s.s.s.s.s.s.s.s.s.s.s.s.d.d.x.x.x.x.n.n.M.M.n.n.;.;.e e v v e e e e ",
"O.O.Q Q Q Q Z Z 3 3 6 6 l.l.b.b.b.b.b.b.b.b.x.x.x.x.x.x.z.z.z.z.c.x.x.x.x.x.x.x.z.z.j.j.j.j.j.j.j.j.j.j.z.z.c.c.c.x.b.b.b.b.b.b.b.b.h.h.*.*.; ; ; ; d d e e v v ",
"O.O.Q Q Q Q Z Z 3 3 6 6 l.l.b.b.b.b.b.b.b.b.c.x.x.x.x.x.z.z.z.z.c.c.x.x.x.x.x.x.z.z.j.j.j.j.j.j.j.j.j.j.z.z.c.c.x.x.b.b.b.b.b.b.b.b.h.h.*.*.; ; ; ; d d e e v v ",
"s s w w w w : : ; ; ; ; ; ; =.=.h.h.c.c.b.b.b.b.b.b.b.b.b.b.b.b.b.b.b.b.b.b.b.b.b.b.b.b.b.b.b.b.b.b.b.b.c.c.c.c.l.l.g.g.5.5.7 7 3 3 3 3 4 4 4 4 4 4 X.X.X.X.@.@.",
"s s w w w w : : ; ; ; ; ; ; =.=.h.h.c.c.b.b.b.b.b.b.b.b.b.b.b.b.b.b.b.b.b.b.b.b.b.b.b.b.b.b.b.b.b.b.b.b.c.c.c.c.l.l.g.g.5.5.7 7 3 3 3 3 3 3 3 4 4 4 X.X.X.X.@.@.",
"w w , , , , 2 2 a a < < < < < < 4 4 4 4 4 4 A A -.-.<.<.2.2.4.4.6.6.1.1.<.<.-.-.7 7 6 6 6 6 3 3 - - - - 3 3 3 3 3 3 3 3 3 3 3 3 3 3 3 3 4 4 a a B B B B B B E E ",
"w w , , , , 2 2 a a < < < < < < 4 4 4 4 4 4 A A -.-.<.<.2.2.4.4.6.6.1.1.<.<.-.-.7 7 6 6 6 6 3 3 - - - - 3 3 3 3 3 3 3 3 3 3 3 3 3 3 3 3 4 4 a a B B B B V V E E ",
"P P { { X.X.@.@.@.@.@.@.@.@.@.@.@.@.@.@.@.@.@.@.@.@.@.@.@.@.@.@.@.@.@.@.@.@.@.@.@.@.@.@.@.@.Q Q , , , , Q Q Q Q Q Q Q Q Q Q E E Y Y Y Y P P P P P P P P Y Y Q Q ",
"P P { { X.X.@.@.@.@.@.@.@.@.@.@.@.@.@.@.@.@.@.@.@.@.@.@.@.@.@.@.@.@.@.@.@.@.@.@.@.@.@.@.@.@.Q Q , , , , Q Q Q Q Q Q Q Q Q Q E E Y Y Y Y P P P P P P P P Y Y Q Q "
};
