/* XPM */
static const char *sprite_p3[] = {
/* columns rows colors chars-per-pixel */
"80 80 175 2 ",
"   c #000101",
".  c gray5",
"X  c #1D1C1D",
"o  c #2C1D0E",
"O  c #2E1F10",
"+  c #231D19",
"@  c #261B14",
"#  c #3D2B0E",
"$  c #272019",
"%  c #352414",
"&  c #382616",
"*  c #3A2917",
"=  c #30231A",
"-  c #3C2B1B",
";  c #342A17",
":  c #142434",
">  c #14273C",
",  c #292726",
"<  c #2C2A2A",
"1  c #2B2825",
"2  c #362822",
"3  c #3C2F22",
"4  c #322D2A",
"5  c #3F3023",
"6  c #36322D",
"7  c #3B332D",
"8  c #3F3C28",
"9  c #3F3A26",
"0  c #222F33",
"q  c #2A333B",
"w  c #363937",
"e  c #383D3D",
"r  c #402F17",
"t  c #412E1C",
"y  c #45311F",
"u  c #48331F",
"i  c #533C16",
"p  c #443325",
"a  c #4A3624",
"s  c #4E3925",
"d  c #42362C",
"f  c #493728",
"g  c #473E2F",
"h  c #4C3A29",
"j  c #523B26",
"k  c #533C28",
"l  c #513D2B",
"z  c #543D29",
"x  c #553E29",
"c  c #563F2A",
"v  c #563E29",
"b  c #533E2C",
"n  c #543F2D",
"m  c #533E2B",
"M  c #413731",
"N  c #423831",
"B  c #644818",
"V  c #705113",
"C  c #57402B",
"Z  c #55402A",
"A  c #55402D",
"S  c #57412E",
"D  c #56412D",
"F  c #55402C",
"G  c #59402A",
"H  c #5B432D",
"J  c #58422E",
"K  c #5A432F",
"L  c #59412C",
"P  c #5B442F",
"I  c #5C442E",
"U  c #5E452F",
"Y  c #5F462E",
"T  c #5B432E",
"R  c #4A463A",
"E  c #5D4530",
"W  c #5F4631",
"Q  c #5E4630",
"!  c #5D4530",
"~  c #594D3B",
"^  c #60472F",
"/  c #634A2F",
"(  c #664B22",
")  c #735827",
"_  c #795A21",
"`  c #604731",
"'  c #604732",
"]  c #604731",
"[  c #614832",
"{  c #634932",
"}  c #624932",
"|  c #644A33",
" . c #644B33",
".. c #654B34",
"X. c #674C34",
"o. c #644A33",
"O. c #684D35",
"+. c #684D35",
"@. c #2F3C40",
"#. c #303C40",
"$. c #2E4045",
"%. c #36474A",
"&. c #2B4D5C",
"*. c #344B54",
"=. c #2A4F60",
"-. c #32586C",
";. c #3E5D68",
":. c #3D5962",
">. c #2E5B75",
",. c #33617D",
"<. c #3A647C",
"1. c #3C6377",
"2. c #4D524B",
"3. c #51544D",
"4. c #505750",
"5. c #475758",
"6. c #67745F",
"7. c #737B55",
"8. c #405C64",
"9. c #40606D",
"0. c #5B7367",
"q. c #8C671D",
"w. c #966D17",
"e. c #8F6A21",
"r. c #856935",
"t. c #8E7146",
"y. c #B3862B",
"u. c #B28934",
"i. c #BB9134",
"p. c #C29F5E",
"a. c #CDA34B",
"s. c #2C5887",
"d. c #2D5A8B",
"f. c #2B5682",
"g. c #2E5E92",
"h. c #2F6081",
"j. c #2F618E",
"k. c #336384",
"l. c #31648A",
"z. c #2E6195",
"x. c #2F639B",
"c. c #316595",
"v. c #31679C",
"b. c #31689B",
"n. c #396493",
"m. c #3067A2",
"M. c #3067A2",
"N. c #336AA4",
"B. c #396FA9",
"V. c #3C71AA",
"C. c #416D9B",
"Z. c #45709F",
"A. c #4175AD",
"S. c #497DB4",
"D. c #5688BD",
"F. c #5A8ABE",
"G. c #5486BB",
"H. c #5D8DC2",
"J. c #6291C5",
"K. c #6D98C6",
"L. c #6695C8",
"P. c #6897C9",
"I. c #6E9CCD",
"U. c #709ECF",
"Y. c #729FD0",
"T. c #76A3D3",
"R. c #7AA6D6",
"E. c #B1B8BF",
"W. c #BCBCBC",
"Q. c #83ADDB",
"!. c #86B1DF",
"~. c #88B2DF",
"^. c #89B3E1",
"/. c #D8DADE",
"(. c LightGray",
/* pixels */
"3 3 5 5 p p p p 3 3 3 3 3 3 3 3 3 3 3 3 5 5 3 3 3 3 3 3 3 3 3 3 3 3 3 3 3 3 5 5 5 5 5 5 5 5 5 5 p p p p p p p p 5 5 5 5 5 5 5 5 5 5 5 5 p p p 5 5 5 5 5 p p p p ",
"3 3 5 5 p p p p 3 3 3 3 3 3 3 3 3 3 3 3 5 5 3 3 3 3 3 3 3 3 3 3 3 3 3 3 3 3 5 5 5 5 5 5 5 5 5 5 p p p p p p p p 5 5 5 5 5 5 5 5 5 5 5 5 p p p p 5 5 5 5 p p p p ",
"X.X.O.O.O.O.O.O.O.X.X.X.O.O.X.X.P P l l h h p p p p f f S S l l - - % % % % % % % % % % % % % % % % c c O.O.O.O.O.X.X.X.O.O.O.O.O.O.X.X.O.O.O.O.O.O.O.O.O.O.O.O.",
"X.X.O.O.O.O.O.O.X.X.X.X.O.O.X.X.P P l l h h p p p p f f S S l l - - % % % % % % % % % % % % % % % % l l O.O.O.O.X.X.X.X.O.O.O.O.O.O.X.X.O.O.O.O.O.X.X.O.O.X.O.O.",
"O.O.....| | { { ' ' W W W W { { { { W W W W f f 3 3 f f p p % % % % % % % % % % % % % % % % % % % % % % % % X.X.X.X.O.O.O.O.X.X.{ { { { ....| | | | | | { { O.O.",
"O.O.....| | { { ' ' W W W W { { { { W W W W f f 3 3 f f p p % % % % % % % % % % % % % % % % % % % % % % % % X.X.O.X.O.O.O.O.X.X.{ { { { ....| | | | | | { { O.O.",
"5 5 3 3 3 3 p p f f f f f f h h l l S S J J f f 3 3 % % % % % % y y a a t t k k a a s s { { | | c c - - % % - - E E J J J J h h p p f p f f f f f f f f f f O.O.",
"5 5 3 3 3 3 p p f f f f f f h h l l S S J J f f 3 3 % % % % % % y y a a t t k k a a s s { { | | c c - - % % - - E E J J J J h h p p f p f f f f f f f f f f O.O.",
"f f f f h h O.O.X.X.X.O.O.O.O.O.O.O.O.O.| | f f O O O O & & a a l l y y - - s s p a j j | | { { C C Y Y t t o o & & f f f f f f h h h h b b W W W W { { ....O.O.",
"f f f f h h O.O.X.X.X.X.O.O.O.O.O.O.O.O.| | f f O O O O & & a a l l y y - - s s p p j j | | { { C C Y Y t t o o & & f f f f f f h h h h b b W W W W { { ....O.O.",
"S S b b J J W W ' ' { ' { { { { { { { { S S O O o o % % - - j j s s y y - - s s a a c c { { { { j j W W a a O O o o y y O.O.O.O.O.O.O.O.O.O.O.O.O.O.O.O.O.O.O.O.",
"S S b b J J W W ' ' { { { { { { { { { { S S O O o o % % - - j j s s y y - - s s a a c c { { { { j j W W a a O O o o y y O.O.O.O.O.O.O.O.O.O.O.O.O.O.O.O.O.O.O.O.",
"{ { J J n n S S J J J J S S S S S S P P % % o o % % % % t t c c a a a a - - s s s s c c { { { { j j J J a a % % t t o o c c O.O.O.O.O.O.O.O.O.O.O.O.O.O.O.O.O.O.",
"{ { J J n n S S J J J J S S S S S S P P % % o o % % % % t t c c a a a a - - s s s s c c { { { { j j J J a a % % t t o o c c O.O.O.O.O.O.O.O.O.O.O.O.O.O.O.O.O.O.",
"h h f f f f l l { { | | ....X.X.X.X.y y o o y y C C % % y y G G a a a a t t s s s s k k ' { { { s s c c l l % % Y Y t t o o W W W W { { { { { { | | | | | | ....",
"h h f f f f l l { { | | ....X.X.O.O.y y o o y y C C % % y t G J a a a a t t s s s s k k ' { { { s s c c l l % % Y Y t t o o W W W W { { { { { { | | | | | | ....",
"O.O.| | | | | | | | | | | | { { k k o o - - { { J J % % y y ' ' s s a a t t j j s s l l ' ' { { s s j j c c % % k k | | % % o o h h h h h h l h l l h h h h { | ",
"O.O.| | | | | | | | | | | | { { k k o o - - { { J J % % y y ' ' s s a a t t j j s s l l ' ' { { s s j j c c % % k k | | % % O O h h h h l l l l l l h h h h { | ",
"P P S S J J J J P P P P E E l l o o % % C C ' ' C C % % a a | | j j a a y y l l s s l l ' ' { { s s s s J J & & a a | | k k o o t t b b n S S S S S b b b b { { ",
"P P S S J J J J P P P P E E l l o o % % c C { ' C C % % a a | | j j a a y y l l j s l l ' ' { { s s s s J J & & a a | | k k o o t t b b n n S S S S b b b b { { ",
"| | P P S S S S S S J J ' W o o o o - - Y ' W W c c % % y y | | c c s s t t l l s s j j W W { { s s s s J J & & y y { { | | % % o o ....O.O.O.O.O.O.O.O.O.O.W W ",
"| | P P S S S S S S J J ' W o o o o - - Y ^ W W c c % % y y | | c c a s t t l l s s j j W Y { { s s s s J J & & y y { { | | % % o o ....O.O.O.X.O.O.O.O.O.O.W W ",
"O.O.O.O.O.O.O.O.O.O.X.X.j j o o % % s s Y Y W W c c % % y y | | J J s s t t c c y y a a Y Y ' ' a a s s C C % % t t { { ' ' j j o o y y O.O.X.X.O.O.O.O.O.O.W W ",
"O.O.O.O.O.O.O.O.O.O.X.X.j j o o % % s s Y Y W W c c % % y y | | J J s s t t l c y y a a Y Y ' ' a a s s C C % % t t { { ' ' j j o o y y O.O.X.X.O.O.O.O.O.O.W W ",
"{ { { { { { { { { { W W % % o o t t s s J J ' ' k k % % u u | | Y Y j j t t c z - - t t W W ' ' s s s s c c % % & & ' ' ' ' c c % % o o S S W W W W J J b b f f ",
"{ { { { { { { { { { W W % % o o t t s s J J ' ' k k % % u u | | Y Y j j t t c c - - t t W W ' ' s s s s c c % % & & ' ' ' ' c c % % o o S S W W W W J J b b f f ",
"3 3 3 3 3 3 3 3 3 3 - - % % % % a a s s J J W W j j % % a a | | ^ ' k k t t j j - - t t ^ ' ' W s s l l c c % % % % W W W W T T y y o o - - 3 3 3 3 3 3 3 3 3 3 ",
"3 3 3 3 3 3 3 3 3 3 - - % % % % s a s s J J W W j j % % a a | | ' ' k k t t j j - - t t ^ ' ' ' s s l l c c % % % % W W W W T T y y o o - - 3 3 3 3 3 3 3 3 3 3 ",
"f f f f f f f f f f - - % % - - p p j j G G Y Y j j % % a a | | { { z z t t a a & & t t W W Y Y s s c c c c % % % % ' ' Y Y Y Y s s % % % % W W { { { { p p 5 5 ",
"f f f f f f f f f f - - % % - - p p j j G G Y Y j j % % a a | | { { z z t t a a & & t t W W Y Y s s c c c c % % % % ' ' Y Y Y Y s s % % % % W W { { { { p p 5 5 ",
"f f f f f f p p p p % % % % y y t t j j c c Y Y j j % % a a | | | | k k t t a a % % t t Y Y J J s s C C c c % % % % W W J J Y Y s s t t o o { { O.O.O.O.l l 3 3 ",
"f f f f f f p p p p % % % % y y t t j j c c Y Y j j % % a a | | | | k k t t a a % % t t Y Y J J s s C C c c % % % % W W J J Y Y s s t t o o { { O.O.O.O.l l 3 3 ",
"p p p p f f f f p p % % & & a a y y z z c c T T j j % % a a | | { { s s y y g g 6 6 p p Y Y J J s s J J k k % % % % W W J J J J c c J J & & & & S J l l f f 3 3 ",
"p p p p f f f f p p % % & & a a y y z z c c T T j j % % a a | | { { s s y y g g 6 6 p p Y Y J J s s J J k k % % % % W W J J J J c c J J & & & & S J b b f f 3 3 ",
"S S W Y O.O.X.X.a a % % - - s s f f Y Y J J Y Y j j % % a a | | ~ ~ k.k.m.m.m.m.m.m.m.m.c.c.;.;.R R Y Y l l % % % % ' W J J c c p p | | z z o o p p 5 5 3 3 3 3 ",
"S S W W O.O.....a a % % - - s s f f Y Y J J Y Y j j % % a a | | ~ ~ k.k.m.m.m.m.m.m.m.m.c.c.;.;.R R Y Y l l % % % % W W J J c c p p | | z z o o p p 5 5 3 3 3 3 ",
"S S W W X.X.| | % % % % y y l l l l ^ ^ J J ^ ^ j j & & g g m.m.m.m.m.m.m.m.m.m.m.m.m.m.m.m.m.m.m.m.8.9.C C % % % % { { S S l l p p | | G G % % f f l l f f 3 3 ",
"S S W W X.X.| | % % % % y y l l l l ^ ^ J P ^ ^ j j & & g g m.m.m.m.m.m.m.m.m.m.m.m.m.m.m.m.m.m.m.m.;.;.C C % % % % { { S S l l p p | | G G % % f f l l f f 3 3 ",
"p p p p p p f f % % % % s s c c C C ^ ^ Y Y ' ' j j %.%.m.m.m.m.B.B.J.J.T.T.R.R.T.T.L.L.F.F.V.V.m.m.m.M.<.<.; ; - - { { Y Y c c 2 2 { { Y Y % % G G X.X.{ { 3 3 ",
"p p p p p p f f % % % % s s c c C C ^ ^ Y Y ' ' j j %.%.m.M.m.m.B.B.J.J.T.T.R.R.T.T.L.L.F.F.V.V.m.m.m.M.<.<.; ; - - { { Y Y c c 2 2 { { Y Y % % G G X.X.{ { 3 3 ",
"3 3 3 3 3 3 - - % % % % ' ' j j c c ^ ^ Y Y Y Y :.:.m.m.m.m.P.P.^.^.^.^.~.~.~.~.Q.Q.D.D.V.V.N.N.m.m.m.m.m.m.l.l.8 8 t.t.p.p.r.r.) ) / / J J % % t t X.X.{ { 3 3 ",
"3 3 3 3 3 3 - - % % % % ' ' j j c c ^ ^ Y Y Y Y :.:.m.m.m.m.P.P.^.^.^.^.~.~.~.~.Q.Q.D.D.V.V.N.N.m.m.m.m.m.m.l.l.8 8 t.t.p.p.r.r.) ) / / J J % % t t X.X.{ { 3 3 ",
"p p f f E E f f % % % % { { s s c c Y Y J J 8.8.m.m.N.N.~.~.^.^.^.^.Q.Q.T.T.D.D.m.m.m.m.m.m.m.m.m.m.m.m.m.m.m.m.b.b.6.6.a.a.u.u.y.y.( ( Y Y % % % % h h f f 3 3 ",
"p p f f E E f f % % % % { { s s c c Y Y J J 8.8.m.m.N.N.~.~.^.^.^.^.Q.Q.T.T.D.D.m.m.M.M.m.m.m.m.m.m.m.m.m.m.m.m.b.b.6.6.a.a.u.u.y.y.( ( Y Y % % % % h h f f 3 3 ",
"p p 5 5 5 5 + + - - - - ' ' c c G G Y Y :.8.m.m.A.A.^.^.^.^.Q.Q.T.T.S.S.m.m.m.m.m.m.m.m.m.m.m.m.m.m.m.m.m.m.m.m.m.m.m.m.0.0.i.i.e.e.i i / / & & % % f f f f 3 3 ",
"p p 5 5 5 5 + + - - - - ' ' c c G G Y Y :.8.m.m.A.A.^.^.^.^.Q.Q.T.T.S.S.m.m.m.m.m.m.m.m.m.m.m.m.m.m.m.m.m.m.m.m.m.m.m.m.0.0.i.i.e.e.i i / / & & % % f f f f 3 3 ",
"5 5 5 5 f f _ _ B B - - { { J J G G 5.5.m.m.B.B.~.~.^.^.J.J.V.V.m.m.m.m.m.m.m.m.m.m.m.m.m.m.m.m.m.m.m.m.m.m.m.m.m.m.m.m.m.m.7.7.B B & & { { - - % % X.X.l l p p ",
"5 5 5 5 f f _ _ B B - - { { J J G G 5.5.m.m.B.B.~.~.^.^.J.J.V.V.m.m.m.m.m.m.m.m.m.m.m.m.m.m.m.m.m.m.m.m.m.m.m.m.m.m.m.m.m.m.7.7.B B & & { { - - % % X.X.l l p p ",
"S S P P { { y.y.q.q.@ @ Y Y Y Y R R m.m.m.m.Y.Y.R.R.m.m.m.m.m.m.v.v.x.x.x.x.z.z.g.g.x.x.x.x.m.m.m.m.m.m.m.m.m.m.m.m.m.m.m.m.m.m.9 9 - - | | - - % % ....h h p p ",
"S S P P { { y.y.q.q.@ @ Y Y Y Y R R m.m.m.m.Y.Y.R.R.m.m.m.m.m.m.v.v.x.x.x.x.z.z.g.g.x.x.x.x.m.m.m.m.m.m.m.m.m.m.m.m.m.m.m.m.m.m.9 9 - - | | - - % % ....h h p p ",
"E E S S Y Y w.w.V V = = W W Y Y v.v.m.m.H.J.U.I.m.m.m.m.x.x.x.x.g.g.g.g.g.g.z.z.z.z.z.z.z.z.z.z.x.x.x.x.m.m.m.m.m.m.m.m.m.m.m.m.,.,.l l | | t t % % | | h h p p ",
"E E J S Y Y w.w.V V = = W W Y Y v.v.m.m.H.J.U.U.m.m.m.m.x.x.x.x.g.g.g.g.g.g.z.z.z.z.z.z.z.z.z.z.x.x.x.x.m.m.m.m.m.m.m.m.m.m.m.m.,.,.l l | | t t % % | | h h p p ",
"S S l l f f # # r r - - ' ' <.<.m.m.A.A.U.U.N.N.x.x.x.x././.q q g.g.g.g.d.d.s.s.s.s.s.s.s.s.s.s.E.E.: : d.d.x.x.x.x.m.m.m.m.m.m.m.m.2.2.{ { y y % % J J l l 3 3 ",
"S S l l f f # # r r - - ' ' <.<.m.m.A.A.U.U.N.N.x.x.x.x././.q q g.g.g.g.d.d.s.s.s.s.s.s.s.s.s.s.E.E.: : d.d.c.c.x.x.m.m.m.m.m.m.m.m.2.2.{ { y y % % J J l l 3 3 ",
"5 5 3 3 3 3 u u z z Y Y ~ ~ m.m.m.m.H.H.S.S.x.x.x.x.g.g.(.(.. . f.f.s.s.s.s.s.s.s.s.s.s.s.s.s.s.W.W.    s.s.s.s.d.d.x.x.m.m.m.m.m.m.k.k.{ { a y % % 3 3 3 3 3 3 ",
"5 5 3 3 3 3 u u z z Y Y ~ ~ m.m.m.m.H.H.S.S.x.x.x.x.g.g.(.(.. . f.f.s.s.s.s.s.s.s.s.s.s.s.s.s.s.W.W.    s.s.s.s.d.d.x.x.m.m.m.m.m.m.k.k.{ { a a % % 3 3 3 3 3 3 ",
"h h h h f f t t a a Y Y <.<.m.m.V.V.G.G.x.x.g.g.g.g.s.s.        s.s.s.s.s.s.s.s.s.s.s.s.s.s.s.s.        s.s.s.s.s.s.s.s.g.g.m.m.m.m.m.m.4.4.a a % % f f f f f f ",
"h h h h f f t t a a Y Y <.<.m.m.V.V.G.G.x.x.g.g.g.g.s.s.        s.s.s.s.s.s.s.s.s.s.s.s.s.s.s.s.        s.s.s.s.s.s.s.s.g.g.m.m.m.m.m.m.4.4.a a % % f f f f f f ",
"{ { | | J J - - y t | | b.b.m.m.A.A.V.V.g.g.g.g.s.s.s.s.: : : : s.s.s.s.s.s.s.s.s.s.s.s.s.s.s.s.: : > > s.s.s.s.s.s.s.s.s.s.c.c.m.m.m.m.1.1.a a % % W W W W W W ",
"{ { | | J J - - t t | | b.b.m.m.A.A.V.V.g.g.g.g.s.s.s.s.: : : : s.s.s.s.s.s.s.s.s.s.s.s.s.s.s.s.: : > > s.s.s.s.s.s.s.s.s.s.c.c.m.m.m.m.1.1.a a % % W W W W W W ",
"| | ' ' J J % % t t | | m.m.m.m.N.N.x.x.d.d.s.s.s.s.s.s.s.s.s.s.s.s.s.s.s.s.s.s.s.s.s.s.s.s.s.s.s.s.s.s.s.s.s.s.s.s.s.s.s.s.F.F.V.V.m.m.b.b.p p % % | | | | O.O.",
"| | ' ' J J % % t t | | m.m.m.m.N.N.x.x.d.d.s.s.s.s.s.s.s.s.s.s.s.s.s.s.s.s.s.s.s.s.s.s.s.s.s.s.s.s.s.s.s.s.s.s.s.s.s.s.s.s.F.F.V.V.m.m.b.b.p p % % | | | | O.O.",
"3 3 3 3 3 3 % % - - | | v.v.m.m.m.m.x.x.s.s.s.s.s.s.s.s.s.s.s.s.s.s.s.s.s.s.s.s.s.s.s.s.s.s.s.s.s.s.s.s.s.s.s.s.s.s.s.s.n.n.Q.Q.A.A.m.m.M.M.5 5 % % O.O.O.O.W W ",
"3 3 3 3 3 3 % % - - | | v.v.m.m.m.m.x.x.s.s.s.s.s.s.s.s.s.s.s.s.s.s.s.s.s.s.s.s.s.s.s.s.s.s.s.s.s.s.s.s.s.s.s.s.s.s.s.s.n.n.Q.Q.A.A.m.m.m.M.5 5 % % O.O.O.O.W W ",
"f f f f s s % % % % | | k.k.m.m.m.m.m.m.d.d.s.s.s.s.s.s.s.s.s.s.s.s.s.s.s.s.s.s.s.s.s.s.s.s.s.s.s.s.s.s.s.s.s.s.s.s.s.s.~.~.^.^.m.m.m.m.v.v.% % o o P P n n f f ",
"f f f f s s % % % % | | k.k.m.m.m.m.m.m.d.d.s.s.s.s.s.s.s.s.s.s.s.s.s.s.s.s.s.s.s.s.s.s.s.s.s.s.s.s.s.s.s.s.s.s.s.s.s.s.~.~.^.^.m.m.m.m.v.v.% % o o P P n n f f ",
"O.O.O.O.| | o o o o t t 3.3.m.m.m.m.x.x.x.x.d.d.s.s.s.s.s.s.s.s.s.s.s.s.s.s.s.s.s.s.s.s.s.s.s.s.s.s.s.s.s.s.s.s.C.C.^.^.^.^.I.I.m.m.m.m.-.-.o o o o ' ' { { ....",
"O.O.O.O.| | o o o o t t 3.3.m.m.m.m.x.x.x.x.d.d.s.s.s.s.s.s.s.s.s.s.s.s.s.s.s.s.s.s.s.s.s.s.s.s.s.s.s.s.s.s.s.s.C.C.^.^.^.^.I.I.m.m.m.m.-.-.o o o o ' ' { { ....",
"X.X.X.X.X.X.% % o o o o + + h.h.m.m.m.m.x.x.g.g.d.d.s.s.s.s.s.s.s.s.s.s.s.s.s.s.s.s.s.s.s.s.s.s.s.s.s.s.s.s.Z.Z.K.K.Q.Q.F.F.M.M.m.m.m.m.0 0 o o o o X.O.X.X.{ | ",
"X.X.X.X.X.X.% % o o o o + + h.h.m.m.m.m.x.x.g.g.d.d.s.s.s.s.s.s.s.s.s.s.s.s.s.s.s.s.s.s.s.s.s.s.s.s.s.s.s.s.Z.Z.K.K.Q.Q.F.F.m.M.m.m.m.m.0 0 o o o o X.X.O.X.{ | ",
"p p 5 5 f f y y o o + + X X X X h.h.m.m.m.m.m.m.x.x.g.g.g.g.d.d.d.d.s.d.s.s.s.s.s.s.s.s.d.d.g.g.g.g.g.g.z.z.x.x.m.m.m.m.M.M.M.M.m.m.=.=.X X $ $ t t b b f f f f ",
"p p 5 5 f f y y o o + + X X X X h.h.m.m.m.m.m.m.x.x.g.g.g.g.d.d.d.d.s.d.s.s.s.s.s.s.s.s.d.d.g.g.g.g.g.g.z.z.x.x.m.m.m.m.m.m.M.M.m.m.=.=.X X $ $ t t b b f f f f ",
"X.X.W W W W ' W ' ' 6 6 6 6 6 6 6 6 *.*.l.l.m.m.m.m.m.m.x.x.z.z.z.z.z.z.z.z.z.z.z.z.z.z.x.x.x.x.x.x.m.m.m.m.m.m.m.m.m.m.m.m.k.k.@.@.< < 4 4 < < 6 6 f f f f l l ",
"X.X.W W W W ' ' ' ' 6 6 6 6 6 6 6 6 *.*.l.l.m.m.m.m.m.m.x.x.z.z.z.z.z.z.z.z.z.z.z.z.z.z.x.x.x.x.x.x.m.m.m.m.m.m.m.m.m.m.m.m.k.k.@.@.< < 4 4 < < 6 6 f f f f l l ",
"f f p p p p p p f f f f 4 4 < < < < < < < < < < $.$.-.-.,.,.l.l.z.z.z.z.j.j.j.j.j.j.c.c.j.j.k.k.>.>.&.&.#.#.w w %.%.e e 7 7 7 7 7 7 7 7 7 7 N N E E ........O.O.",
"f f p p p p p p f f f f 4 4 < < < < < < < < < < $.$.-.-.,.,.l.l.z.z.z.z.j.j.j.j.j.j.z.z.j.j.k.k.>.>.&.&.#.#.w w %.%.e e 7 7 7 7 7 7 7 7 7 7 N N E E ........O.O.",
"p p 3 3 3 3 5 5 h h h h l l f f 7 7 4 4 4 4 < < < < < < < < 4 4 d d d d N N N N N N N N M M 7 7 , , 1 1 7 7 7 7 7 7 7 d d d d 7 d d g g b b S S S S b b n n E E ",
"p p 3 3 3 3 5 5 h h h h l l f f 7 7 4 4 4 4 < < < < < < < < 4 4 d d d d N N N N N N N N M M 7 7 , , 1 1 7 7 7 7 7 7 7 7 d d d d d d g g b b S n S S b b n n E E ",
"J J { { ....O.O.O.O.O.O.O.O.O.O.O.O.O.O.O.O.O.O.O.O.O.O.O.O.O.O.O.O.O.O.O.O.O.O.O.O.O.O.O.O.' ' 3 3 3 3 W W W W W W W Y W W E E E E E J J J J J J J J S P P W W ",
"J J { { ....O.O.O.O.O.O.O.O.O.O.O.O.O.O.O.O.O.O.O.O.O.O.O.O.O.O.O.O.O.O.O.O.O.O.O.O.O.O.O.O.' ' 3 3 3 3 W W W W W W W Y W W E E E E E E J J J J J J J S P P W W "
};
