/* XPM */
static const char *sprite4[] = {
/* columns rows colors chars-per-pixel */
"80 80 107 2 ",
"   c #010101",
".  c #0A1622",
"X  c #101D29",
"o  c #292726",
"O  c #2D2927",
"+  c #2C2A28",
"@  c #332C25",
"#  c #3C2F22",
"$  c #332E2A",
"%  c #3F3023",
"&  c #36302B",
"*  c #3A322C",
"=  c #433325",
"-  c #483727",
";  c #42362B",
":  c #493728",
">  c #44382D",
",  c #4C3A29",
"<  c #523E2C",
"1  c #403730",
"2  c #443A31",
"3  c #4A3D31",
"4  c #3D4439",
"5  c #56412D",
"6  c #59432F",
"7  c #404337",
"8  c #534131",
"9  c #5D4631",
"0  c #524837",
"q  c #5E4A35",
"w  c #5C4E3E",
"e  c #5E523E",
"r  c #604731",
"t  c #644A33",
"y  c #684D35",
"u  c #645039",
"i  c #162C43",
"p  c #152E48",
"a  c #17324E",
"s  c #1A344F",
"d  c #384E5A",
"f  c #3F627B",
"g  c gray26",
"h  c #504B41",
"j  c #565047",
"k  c #56524A",
"l  c #5A554B",
"z  c #485356",
"x  c #49575C",
"c  c #4D585A",
"v  c #515553",
"b  c #555853",
"n  c #425A66",
"m  c #465F6D",
"M  c #436173",
"N  c #2C5887",
"B  c #2C5A8A",
"V  c #2E5E92",
"C  c #356284",
"Z  c #3A6585",
"A  c #36668D",
"S  c #386588",
"D  c #2E6096",
"F  c #2F639B",
"G  c #336693",
"H  c #31679B",
"J  c #31689E",
"K  c #2F66A0",
"L  c #3067A2",
"P  c #346AA5",
"I  c #3A6DA5",
"U  c #3C71AA",
"Y  c #4075AD",
"T  c #4877A9",
"R  c #4878AC",
"E  c #4679B1",
"W  c #4B7EB5",
"Q  c #4F81B7",
"!  c #5587BC",
"~  c #598ABF",
"^  c #5C8DC1",
"/  c #5B8CC0",
"(  c #6090C3",
")  c #6695C8",
"_  c #6796C9",
"`  c #6998CA",
"'  c #72A0D0",
"]  c #74A1D2",
"[  c #75A2D2",
"{  c #76A2D3",
"}  c #79A6D5",
"|  c #7CA8D7",
" . c #8D8D8D",
".. c #B8B8B9",
"X. c #80ACDA",
"o. c #81ACDB",
"O. c #83AEDC",
"+. c #84AFDD",
"@. c #86B1DE",
"#. c #88B2DF",
"$. c #88B2E0",
"%. c #89B3E0",
"&. c #89B3E1",
"*. c #8AB4E1",
"=. c #DEDFE1",
"-. c #ECEDEF",
";. c white",
/* pixels */
"# # % % = = = = # # # # # # # # # # # # % % # # # # # # # # # # # # # # # # % % % % % % % % % % = = = = = = = = % % % % % % % % = = % % = = % % % % % % = = = = ",
"# # % % = = = = # # # # # # # # # # # # % % # # # # # # # # # # # # # # # # % % % % % % % % % % = = = = = = = = % % % % % % % % = = % % = = = = % % % % = = = = ",
"y y y y y y y y y y y y y y y y 6 6 < < , , = = = = : : 5 5 5 5 6 6 6 6 6 6 6 6 9 9 r r t t y y y y y y y y y y y y y y y y y y y y y y y y y y y y y y y y y y ",
"y y y y y y y y y y y y y y y y 6 6 < < , , = = = = : : 5 5 5 5 6 6 6 6 6 6 6 6 9 9 r r t t y y y y y y y y y y y y y y y y y y y y y y y y y y y y y y y y y y ",
"y y t t t t r r r r 9 9 9 9 r r r r 9 9 9 9 - - # # - - 6 6 r r r r r r r r r r 9 9 9 9 9 9 9 9 9 9 r r y y y y y y y y y y y y r r r r t t t t t t t t r r y y ",
"y y t t t t r r r r 9 9 9 9 r r r r 9 9 9 9 - - # # - = 6 6 r r r r r r r r r r 9 9 9 9 9 9 9 9 9 9 r r y y y y y y y y y y y y r t r r t t t t t t t t r r y y ",
"% % # # # # = = - - - - - - , , < < 5 5 6 6 - - # # < , 6 6 6 6 6 6 9 9 r r t t t t t t r r r r 9 9 9 9 9 9 9 9 9 9 6 6 6 6 , , = = - - - - - - - - - - - - y y ",
"% % # # # # = = - - - - - - , , < < 5 5 6 6 - - # # < < 6 6 6 6 6 6 9 9 r r t t t t t t r r r r 9 9 9 9 9 9 9 9 9 9 6 6 6 6 , , = = - - - - - - - - - - - - y y ",
"- - - - , , y y y y y y y y y y y y y y t t - - # # , , 6 6 9 r t t r r r r 9 9 9 9 6 6 < < , , , , < < < < , , : : : : : : : : , , , , < < 9 9 9 9 r r t t y y ",
"- - - - , , y y y y y y y y y y y y y y t t - - # # , , 6 6 9 r t t r r r r 9 9 9 9 6 6 < < , , , , < < < < , , : : : : : : : : , , , , < < 9 9 9 9 r r t t y y ",
"5 5 < < 6 6 9 9 r r r r r r r r r r r r 5 5 = = = = 6 6 y y y y y y 9 9 6 5 < < , , , , < < 6 6 6 6 9 9 9 9 r r t t y y y y y y y y y y y y y y y y y y y y y y ",
"5 5 < < 6 6 9 9 r r r r r r r r r r r r 5 5 = = = = 6 6 y y y y y y 9 9 6 6 < < , , , , < < 6 6 6 6 9 9 9 9 r r t t y y y y y y y y y y y y y y y y y y y y y y ",
"r r 6 6 < < 5 5 6 6 6 6 5 5 5 5 5 5 6 6 < < = = = = 5 5 9 9 9 9 6 6 < < < < 5 5 9 9 t t y y y y y y y y y y y y y y y y y y y y y y y y y y y y y y y y y y y y ",
"r r 6 6 < < 5 5 6 6 6 6 5 5 5 5 5 5 6 6 < < = = = = 5 5 9 9 9 9 6 6 < < < < 5 5 9 9 t t y y y y y y y y y y y y y y y y y y y y y y y y y y y y y y y y y y y y ",
", , - - - - < < r r t t t t y y y y y y 6 6 = = = = , , : : , , < < < < < < < < 5 5 6 5 6 6 6 6 6 6 6 6 6 6 6 6 6 6 6 6 9 9 9 9 9 9 r r r r r r t t t t t t t t ",
", , - - - - < < r r t t t t y y y y y y 6 6 = = = = , , : : , , < < < < < < < < 5 5 6 6 6 6 6 6 6 6 6 6 6 6 6 6 6 6 6 6 9 9 9 9 9 9 r r r r r r t t t t t t t t ",
"y y t t t t t t t t t t t t r r r r r r < < = = = = , , 5 5 6 6 5 5 5 5 5 5 5 5 5 5 6 6 6 6 6 6 6 6 6 6 6 6 6 6 < < , , , , , , , , , , < < , , < < , , , , t t ",
"y y t t t t t t t t t t t t r r r r r r < < = = = = , , 5 5 6 6 5 5 5 5 5 5 5 5 5 5 6 6 6 6 6 6 6 6 6 6 6 6 6 6 < < , , , , , , , , , , < < , , < < , , , , t t ",
"6 6 5 5 6 6 6 6 6 6 6 6 9 9 6 6 9 9 9 9 < < = = = = < < r r y y y y b b f f G G H H H H Z Z k k t t t t t t t t 9 9 5 5 5 5 5 5 < < < < < < 5 5 5 5 < < < < r r ",
"6 6 5 5 6 6 6 6 6 6 6 6 9 9 6 6 9 9 9 9 < < = = = = < < r r y y y y b b f f G G H H H H Z Z k k t t t t t t t t 9 9 5 5 6 5 5 5 < < < < < < 5 5 5 5 < < < < r r ",
"t t 6 6 5 5 5 5 5 5 6 6 r r t t y y r r 6 6 - - # # < < r r u u Z Z P P W W / / ' ' ^ ^ Y Y L L G G w w r r r r r r t t t t t t y y y y y y y y y y y y y y 9 9 ",
"t t 6 6 5 5 5 5 5 5 6 6 r r t t y y r r 6 6 - - # # < < r r u u Z Z P P W W / / ' ' ^ ^ Y Y L L G G w w r r r r r r t t t t t t y y y y y y y y y y y y y y 9 9 ",
"y y y y y y y y y y y y y y y y y y r 9 9 9 = = # # 5 5 0 0 H H W W @.@.&.&.&.&.| | ~ ~ E E L L L L L L l l y y y y y y y y y y y y y y y y y y y y y y y y 9 9 ",
"y y y y y y y y y y y y y y y y y y r r 9 9 = = # # 5 5 0 0 H H W W @.@.&.&.&.&.| | ~ ~ E E L L L L L L l l y y y y y y y y y y y y y y y y y y y y y y y y 9 9 ",
"r r r r r r r r r r r r r r t t t t 9 9 6 6 # # # # ; ; H H ( ( &.&.*.*.&.&.o.o.P P L L L L L L L L L L L L r r 9 9 9 9 9 9 9 9 9 9 6 6 5 5 9 9 9 9 6 6 < < - - ",
"r r r r r r r r r r t r r r t t t t 9 9 6 6 # # # # ; ; H H ( ( &.&.*.*.&.&.o.o.P P L L L L L L L L L L L L r r 9 9 9 9 9 9 9 9 9 9 6 6 5 5 9 9 9 9 6 6 < < - - ",
"# # # # # # # # # # # # # # # # # # # # # # # # = = C C Q Q #.#.*.*.&.&.{ { U U L L L L L L L L L L L L L L G G # # % # % % # # # # # # % % % % # # # # # # # # ",
"# # # # # # # # # # # # # # # # # # # # # # # # = = C C Q Q #.#.*.*.&.&.{ { U U L L L L L L L L L L L L L L G G # # # # # % # # # # # # % % % % # # # # # # # # ",
"- - - - : : : : : : : : , , < < < < < < < < , , c c U U } } #.#.{ { W W L L L L L L L L L L L L L L L L L L L L v v 9 9 9 9 6 6 6 6 9 9 9 9 r r r r r r = = % % ",
"- - - - : : : : : : : : , , < < < < < < < < , , c c U U } } #.#.{ { W W L L L L L L L L L L L L L L L L L L L L v v 9 9 9 9 6 6 6 6 9 9 9 9 9 r r r r r = = % % ",
"- - - - - - = = - - , , , , < < < < < < 5 5 6 6 A A ! ! O.O.~ ~ L L L L L L L L L L L L L L L L L L L L L L L L A A y y y y y y y y y y y y y y y y y y < < # # ",
"- - - - - - = = - - , , , , < < < < < < 5 5 6 6 A A ! ! O.O.~ ~ L L L L L L L L L L L L L L L L L L L L L L L L A A y y y y y y y y y y y y y y y y y y < < # # ",
"= = = = - - - - - - : : : : : : , , , , < < h h L L ! ! { { L L L L L L L L L L L L L L L L L L L L L L L L L L L L w w r r 9 9 9 9 9 9 9 9 6 6 5 5 < < - - # # ",
"= = = = - - - - - - : : : : : : , , , , < < h h L L ! ! { { L L L L L L L L L L L L L L L L L L L L L L L L L L L L w w r r 9 9 9 9 9 9 9 9 6 6 5 5 < < - - # # ",
"5 5 9 9 y y y y y y y y y y y y y y y y y y m m L L ( ( Q Q -.-.X X F F L L L L L L L L L L I I =.=.. . L L L L L L n n 5 5 5 5 < < < < < < < < = = % % # # # # ",
"5 5 9 9 y y y y y y y y y y y y y y y y y y m m L L ( ( Q Q -.-.X X F F L L L L L L L L L L I I =.=.. . L L L L L L n n 5 6 5 5 < < < < < < < < = = % % # # # # ",
"5 5 9 9 y y y y t t t t t t r r r r r r r r Z Z L L ^ ^ P P ;.;.g g D D L L L L L L L L L L P P ;.;.o o L L L L L L Z Z y y y y 5 5 , , , , : : - - < < : : # # ",
"5 5 9 9 y y y y t t t t t t r r r r r r r r Z Z L L ^ ^ P P ;.;.g g D D L L L L L L L L L L P P ;.;.o o L L L L L L Z Z y y y y 5 5 , , , , : : - - < < : : # # ",
"= = = = = = - - < < 5 5 5 5 6 6 6 6 9 9 9 9 H H P P E E L L ....    K K L L L L F F F F L L K K  . .    L L L L L L A A y y y y y y y y y y y y y y y y r r # # ",
"= = = = = = - - < < 5 5 5 5 6 6 6 6 9 9 9 9 H H P P E E L L ....    K K L L L L F F F F L L K K  . .    L L L L L L A A y y y y y y y y y y y y y y y y r r # # ",
"# # # # # # % % % % - - , , , , , , , , , , L L L L L L L L         D D V V B B N N B B V V F F         L L W W E E G G y y y y y y y y y y t t y y y y r r # # ",
"# # # # # # % % % % - - , , , , , , , , , , L L L L L L L L         D D V V B B N N B B V V F F         L L W W E E G G y y y y y y y y y y t t y y y y r r # # ",
"= = : : 9 9 r r y y y y y y t t r r 9 9 9 9 L L L L L L L L p p s s B B N N N N N N N N B B B B i i a a L L ) ) ~ ~ G G 6 6 6 6 5 5 5 5 < < < < , , , , - - # # ",
"= = : : 9 9 r r y y y y y y t t r r 9 9 9 9 L L L L L L L L p p s s B B N N N N N N N N B B B B i i a a L L ) ) ~ ~ G G 6 6 6 6 5 5 5 5 < < < < , , , , - - # # ",
"= = % % % % - - < < 9 9 9 9 6 6 6 6 5 5 < < H H L L L L L L V V B B N N N N N N N N N N N N B B B B F F P P +.+.` ` G G 6 6 5 5 < < < < , , , , , , : : : : # # ",
"= = % % % % - - < < 9 9 9 9 6 6 6 6 5 5 < < H H L L L L L L V V B B N N N N N N N N N N N N B B B B F F P P +.+.` ` G G 6 6 5 5 < < < < , , , , , , : : : : # # ",
"% % % % - - - - , , , , < < < < < < < < < < A A L L L L L L B B N N N N N N N N N N N N N N N N B B B B I I &.&.) ) S S r r r r t t t t t t y y y y y y < < = = ",
"% % % % - - - - , , , , < < < < < < < < < < A A L L L L L L B B N N N N N N N N N N N N N N N N B B B B I I &.&.) ) S S r r r r t t t t t t y y y y y y < < = = ",
"5 5 6 6 r r r r r r 9 9 9 9 9 9 9 9 9 9 9 9 x x L L L L D D N N N N N N N N N N N N N N N N N N N N B B I I o.o.P P M M y y y y y y y y y y y y y y t t , , = = ",
"5 5 6 6 r r r r r r 9 9 9 9 9 9 9 9 9 9 9 9 x x L L L L D D N N N N N N N N N N N N N N N N N N N N B B I I o.o.P P M M y y y y y y y y y y y y y y t t , , = = ",
"9 9 5 5 r r r r r r r r 9 r r r 9 9 r r r r r r L L L L V V B B N N N N N N N N N N N N N N N N N N B B T T ) ) L L e e y y y y y y t t t t t t y y t t , , = = ",
"9 9 6 6 r r r r r r r r 9 r r r 9 9 r r r r r r L L L L V V B B N N N N N N N N N N N N N N N N N N B B T T ) ) L L e e y y y y y t t t t t t t y y t t , , = = ",
"5 5 < < < < < < < < , , : : : : : : , , < < 5 5 L L L L D D B B N N N N N N N N N N N N N N N N N N B B R R Y Y G G 6 6 < < , , - - - : r r t t t t 6 6 < < # # ",
"5 5 < < < < < < < < , , : : : : : : , , < < 5 5 L L L L D D B B N N N N N N N N N N N N N N N N B N B B R R Y Y G G 6 6 < < , , - - - - r r t t t t 6 6 < < # # ",
"% % # # # # # # # # # # % % # # # # # # = = = = d d L L L L B B N N N N N N N N N N N N N N N N B B V V L L L L 4 4 # # % % % % = = = = = = = = % % # # # # # # ",
"% % # # # # # # # # % % % # # # # # # # = = = = d d L L L L B B N N N N N N N N N N N N N N N N B B V V L L L L 4 4 # # % % % % = = = = = = = = % % # # # # # # ",
", , , , : : - - - - - - : : < < < < < < , , , , : : H H L L F F B B N N N N N N N N N N N N N N B B L L L L C C : : 5 5 6 6 6 6 6 6 < < < < < < , , : : - - - - ",
", , , , : : - - - - - - : : < < < < < < , , , , : : H H L L F F B B N N N N N N N N N N N N N N B B L L L L C C : : 5 5 6 6 6 6 6 6 < < < < < < , , : : - - - - ",
"r r t t t t y y y y y y y y y y t t t t t t y y y y l l L L L L L L V V B B N N N N B B B B F F L L L L A A q q y t y y y y y y y y t t r r r r r r 9 9 9 9 9 9 ",
"r r t t t t y y y y y y y y y y t t t t t t y y y y l l L L L L L L V V B B N N N N B B B B F F L L L L A A q q t t y y y y y y y y t t r r r r r r 9 9 9 9 9 9 ",
"t t r r 9 9 y y y y y y y y t t t t y y y y t t 6 6 6 6 z z J J L L L L L L L L L L L L L K L L L L C C 9 9 y y y y y y y y y y y y y y y y y y t t t t t t y y ",
"t t r r 9 9 y y y y y y y y t t t t y y y y t t 6 6 6 6 z z J J L L L L L L L L L L L L L K K L L L C C 9 9 y y y y y y y y y y y y y y y y y y t t t t t t y y ",
"# # # # # # , , : : : : : : : : : : , , < < 6 6 6 6 6 6 9 9 q q f f L L L L L L L L L L L L C C 7 7 - - 9 9 r r r r y y t t t t t t r r y y y y y y y y y y r r ",
"# # # # # # , , : : : : : : : : : : , , < < 6 6 6 6 6 6 9 9 q q f f L L L L L L L L L L L L C C 7 7 - - 9 9 r r r r y y t t t t t t r r y y y y y y y y y y r r ",
"- - : : , , 5 5 6 6 6 6 6 6 6 6 6 6 6 6 6 6 6 6 6 6 6 6 6 6 9 9 9 9 9 9 w w k k k k h j r r < < = = # # = = = = - - < < < < < < < < < < 6 6 9 9 9 9 6 6 < < : : ",
"- - : : , , 5 5 6 6 6 6 6 6 6 6 6 6 6 6 6 6 6 6 6 6 6 6 6 6 9 9 9 9 9 9 w w k k k k j j r r < < = = # # = = = = - - < < < < < < < < < < 6 6 9 9 9 9 6 6 < < : : ",
"y y y y y y y y y y y y y y y y t t r r r r 9 9 9 9 9 9 9 9 9 9 9 9 9 9 9 9 9 9 9 9 9 9 9 9 , , = = # # : : : : : : , , < < < < 5 5 6 6 9 9 9 9 9 9 r r r r t t ",
"y y y y y y y y y y y y y y y y t t r r r r 9 9 9 9 9 9 9 9 9 9 9 9 9 9 9 9 9 9 9 9 9 9 9 9 , , = = # # : : : : : : , , < < < < 5 5 6 6 9 9 9 9 9 9 r r r r t t ",
"y y y y y y y y y y y y y y y y y y y y y y y y y y y y y y y y y y y y y y y y y y t t y y 5 5 = = = = r r y y t t y y y y y y y y y y y y y y y y y y y y t t ",
"y y y y y y y y y y y y y y y y y y y y y y y y y y y y y y y y y y y y y y y y y y t t y y 5 5 = = = = r r y y t t y y y y y y y y y y y y y y y y y y y y t t ",
"= = % % - - 6 6 6 6 6 6 6 6 6 6 6 6 6 6 6 6 6 6 6 6 9 9 9 9 9 9 8 8 3 3 3 3 3 3 3 3 3 3 2 2 > > @ @ # # 9 9 r r r r r r r r 9 9 9 9 9 9 9 9 9 9 6 6 < < - - - - ",
"= = % % - - 6 6 6 6 6 6 6 6 6 6 6 6 6 6 6 6 6 6 6 6 9 9 9 9 9 9 8 8 3 3 3 3 3 3 3 3 3 3 2 2 > > @ @ # # 9 9 r r r r r r r r 9 9 9 9 9 9 9 9 9 9 6 6 < < - - - - ",
"y y 9 9 9 9 r r t t t t t t t t t t t t t t t t r r 9 9 3 3 1 1 1 1 1 1 1 1 1 1 1 1 1 1 1 1 * * O O O O ; ; > > ; ; , , , , < < < < < < < < , , , , : : - - < < ",
"y y 9 9 9 9 r r t t t t t t t t t t t t t t t t r r 9 9 3 3 1 1 1 1 1 1 1 1 1 1 1 1 1 1 1 1 * * O O O O ; ; > > ; ; , , , , < < < < < < < < , , , , : : - - < < ",
": : = = = = = = : : : : : : : : : : : : : : , , ; ; * * * * * * * * & & $ $ $ $ $ $ $ $ $ $ O O o o o o * * 3 3 9 9 r r y y y y y y y y y y y y y y t t t t y y ",
": : = = = = = = : : : : : : : : : : : : : : , , ; ; * * * * * * * * & & $ $ $ $ $ $ $ $ $ $ O O o o o o * * 3 3 9 9 r r y y y y y y y y y y y y y y t t t t y y ",
"= = # # # # % % , , , , < < < < , , , , , , : : - - - - = = = = ; ; > > 3 3 3 3 3 3 3 3 3 3 > > @ @ @ @ , , 5 5 5 5 5 5 5 5 5 5 5 5 5 5 5 5 5 5 5 5 < < < < 9 9 ",
"= = # # # # % % , , , , < < < < , , , , , , : : - - - ; = = = = ; ; > > 3 3 3 3 3 3 3 3 3 3 > > @ @ @ @ , , 5 5 5 5 5 5 5 5 5 5 5 5 5 5 5 5 5 5 5 5 < < < < 9 9 ",
"6 6 r r t t y y y y y y y y y y y y y y y y y y y y y y y y y y y y y y y y y y y y y y y y r r # # # # 9 9 9 9 9 9 9 9 9 9 9 9 6 6 6 6 6 6 6 6 6 6 6 6 6 6 9 9 ",
"6 6 r r t t y y y y y y y y y y y y y y y y y y y y y y y y y y y y y y y y y y y y y y y y r r # # # # 9 9 9 9 9 9 9 9 9 9 9 9 6 6 6 6 6 6 6 6 6 6 6 6 6 6 9 9 "
};
