/* XPM */
static const char *sprite5[] = {
/* columns rows colors chars-per-pixel */
"80 80 92 1 ",
"  c white",
". c #F8F9FA",
"X c #B7BFCD",
"o c #596B8D",
"O c #384D75",
"+ c #344A73",
"@ c #334972",
"# c #394E76",
"$ c #596B8C",
"% c #B5BDCC",
"& c #FDFEFE",
"* c #AAB3C4",
"= c #364C74",
"- c #495D81",
"; c #3E537A",
": c #465A7F",
"> c #E5E7ED",
", c #DADEE6",
"< c #354A73",
"1 c #BAC2CF",
"2 c #EDEFF3",
"3 c #DEE2E8",
"4 c #4F6285",
"5 c #DDE0E7",
"6 c #30456C",
"7 c #C9CFDA",
"8 c #909CB2",
"9 c #151D2E",
"0 c #0C111B",
"q c #30456B",
"w c #05070B",
"e c #131C2B",
"r c #6A7A98",
"t c #72819E",
"y c #06090E",
"u c #070A0F",
"i c black",
"p c #010203",
"a c #556789",
"s c #818FA8",
"d c #070A10",
"f c #07090F",
"g c #31466D",
"h c #020305",
"j c #32476F",
"k c #657594",
"l c #C7CDD8",
"z c #0E1520",
"x c #090E16",
"c c #324871",
"v c #192438",
"b c #B1B9C9",
"n c #374D75",
"m c #243450",
"M c #2F446A",
"N c #324870",
"B c #293B5C",
"V c #929EB4",
"C c #8593AB",
"Z c #3F547A",
"A c #3B5078",
"S c #E4E7EC",
"D c #CCD1DC",
"F c #8895AD",
"G c #617292",
"H c #5C6D8E",
"J c #D9DDE4",
"K c #F5F6F8",
"L c #41557B",
"P c #354B74",
"I c #536688",
"U c #BDC4D1",
"Y c #E3E6EC",
"T c #394F76",
"R c #627393",
"E c #C2C9D5",
"W c #F7F8F9",
"Q c #5D6E8F",
"! c #546689",
"~ c #919DB3",
"^ c #ECEEF2",
"/ c #B2BACA",
"( c #5B6D8E",
") c #3C5178",
"_ c #485C80",
"` c #7786A1",
"' c #AFB8C8",
"] c #E9EBF0",
"[ c #FAFBFC",
"{ c #D7DBE3",
"} c #C6CCD8",
"| c #CBD1DB",
/* pixels */
"                                                                                ",
"                                                                                ",
"                                                                                ",
"                                                                                ",
"                                                                                ",
"                                                                                ",
"                                                                                ",
"                                                                                ",
"                                      ..                                        ",
"                                      ..                                        ",
"                                XXooOO++@@++##$$%%&&                            ",
"                                XXooOO++@@++##$$%%&&                            ",
"                            **==@@@@@@@@@@@@@@@@@@@@--%%                        ",
"                            **==@@@@@@@@@@@@@@@@@@@@--%%                        ",
"                        ..;;@@@@@@@@@@@@@@@@@@@@@@@@@@@@::>>                    ",
"                        ..;;@@@@@@@@@@@@@@@@@@@@@@@@@@@@::>>                    ",
"                      ,,<<@@@@@@@@@@@@@@@@@@@@@@@@@@@@@@@@<<11                  ",
"                      ,,<<@@@@@@@@@@@@@@@@@@@@@@@@@@@@@@@@<<11                  ",
"                    22==@@@@@@@@@@@@@@@@@@@@@@@@@@@@@@@@@@@@++33                ",
"                    22==@@@@@@@@@@@@@@@@@@@@@@@@@@@@@@@@@@@@++33                ",
"                    44@@@@@@@@@@@@@@@@@@@@@@@@@@@@@@@@@@@@@@@@;;                ",
"                    44@@@@@@@@@@@@@@@@@@@@@@@@@@@@@@@@@@@@@@@@;;                ",
"                  55@@@@@@@@@@@@66@@@@@@@@@@@@@@@@@@@@@@@@@@@@@@77              ",
"                  55@@@@@@@@@@@@66@@@@@@@@@@@@@@@@@@@@@@@@@@@@@@77              ",
"                  88@@@@@@@@@@9900@@@@@@@@@@@@qqwwee@@@@@@@@@@@@rr              ",
"                  88@@@@@@@@@@9900@@@@@@@@@@@@qqwwee@@@@@@@@@@@@rr              ",
"                  tt@@@@@@@@@@yyuu@@@@@@@@@@@@66iipp@@@@@@@@@@@@aa              ",
"                  tt@@@@@@@@@@yyuu@@@@@@@@@@@@66iipp@@@@@@@@@@@@aa              ",
"                  ss@@@@@@@@@@ddff@@@@@@@@@@@@ggiihhjj@@@@@@@@@@kk              ",
"                  ss@@@@@@@@@@ddff@@@@@@@@@@@@ggiihhjj@@@@@@@@@@kk              ",
"                  ll@@@@@@@@@@zzxxqqcc@@@@@@@@ggiivv@@@@@@@@@@@@bb              ",
"                  ll@@@@@@@@@@zzxxqqcc@@@@@@@@ggiivv@@@@@@@@@@@@bb              ",
"                  &&nn@@@@@@@@qqmmMM@@@@@@@@@@NNBB@@@@@@@@@@@@<<                ",
"                  &&nn@@@@@@@@qqmmMM@@@@@@@@@@NNBB@@@@@@@@@@@@<<                ",
"                    VV@@@@@@@@@@@@@@@@@@@@@@@@@@@@@@@@@@@@@@@@CC                ",
"                    VV@@@@@@@@@@@@@@@@@@@@@@@@@@@@@@@@@@@@@@@@CC                ",
"                      ZZ@@@@@@@@@@@@@@@@@@@@@@@@@@@@@@@@@@@@AASS                ",
"                      ZZ@@@@@@@@@@@@@@@@@@@@@@@@@@@@@@@@@@@@AASS                ",
"                      DD@@@@@@@@@@@@@@@@@@@@@@@@@@@@@@@@@@<<FF                  ",
"                      DD@@@@@@@@@@@@@@@@@@@@@@@@@@@@@@@@@@<<FF                  ",
"                        GG@@@@@@@@@@@@@@@@@@@@@@@@@@@@@@++HHJJ                  ",
"                        GG@@@@@@@@@@@@@@@@@@@@@@@@@@@@@@++HHJJ                  ",
"                        KKLL@@@@@@@@@@@@@@@@@@@@@@@@@@PPIIUU                    ",
"                        KKLL@@@@@@@@@@@@@@@@@@@@@@@@@@PPIIUU                    ",
"                          YY;;@@@@@@@@@@@@@@@@@@@@@@TTRREE                      ",
"                          YY;;@@@@@@@@@@@@@@@@@@@@@@TTRREE                      ",
"                            WWQQ++@@@@@@@@@@@@@@OO!!~~^^                        ",
"                            WWQQ++@@@@@@@@@@@@@@OO!!~~^^                        ",
"                                //(())====TT__``'']]                            ",
"                                //(())====TT__``'']]                            ",
"                                  [[{{}}||22                                    ",
"                                  [[{{}}||22                                    ",
"                                                                                ",
"                                                                                ",
"                                                                                ",
"                                                                                ",
"                                                                                ",
"                                                                                ",
"                                                                                ",
"                                                                                ",
"                                                                                ",
"                                                                                ",
"                                                                                ",
"                                                                                ",
"                                                                                ",
"                                                                                ",
"                                                                                ",
"                                                                                ",
"                                                                                ",
"                                                                                ",
"                                                                                ",
"                                                                                ",
"                                                                                ",
"                                                                                ",
"                                                                                ",
"                                                                                ",
"                                                                                ",
"                                                                                ",
"                                                                                ",
"                                                                                "
};
