/* XPM */
static const char *sprite_p0[] = {
/* columns rows colors chars-per-pixel */
"80 80 171 2 ",
"   c black",
".  c #090B0D",
"X  c #1E1E1F",
"o  c #2C1D0E",
"O  c #251C15",
"+  c #2D1F10",
"@  c #211A1A",
"#  c #3D2B0E",
"$  c #2E2217",
"%  c #28231E",
"&  c #342414",
"*  c #382616",
"=  c #3A2917",
"-  c #30231A",
";  c #3C2B1B",
":  c #0F1924",
">  c #0E1722",
",  c #18222F",
"<  c #17293D",
"1  c #182A3E",
"2  c #172635",
"3  c #212021",
"4  c #2F2A25",
"5  c #2B2A2A",
"6  c #362822",
"7  c #3C2F22",
"8  c #322D2D",
"9  c #3F3024",
"0  c #35312E",
"q  c #38312D",
"w  c #313033",
"e  c #3E3630",
"r  c #402F17",
"t  c #412E1C",
"y  c #423015",
"u  c #45311F",
"i  c #48331F",
"p  c #533C16",
"a  c #443325",
"s  c #4A3623",
"d  c #4E3925",
"f  c #42352B",
"g  c #493728",
"h  c #46382C",
"j  c #4C3A29",
"k  c #523B26",
"l  c #533C28",
"z  c #513D2B",
"x  c #543D29",
"c  c #553E29",
"v  c #563F2A",
"b  c #563E29",
"n  c #533E2C",
"m  c #543F2D",
"M  c #533E2B",
"N  c #453931",
"B  c #4A3D32",
"V  c #644818",
"C  c #705113",
"Z  c #57402B",
"A  c #55402D",
"S  c #57412E",
"D  c #56412D",
"F  c #56402D",
"G  c #59402A",
"H  c #5B432D",
"J  c #58422E",
"K  c #5A432F",
"L  c #59412C",
"P  c #5B442F",
"I  c #5C442E",
"U  c #5E452F",
"Y  c #5F462E",
"T  c #5B432E",
"R  c #4F413F",
"E  c #5D4530",
"W  c #5F4631",
"Q  c #5E4630",
"!  c #5D4530",
"~  c #524132",
"^  c #60462F",
"/  c #634A2F",
"(  c #664B22",
")  c #735827",
"_  c #795A21",
"`  c #795929",
"'  c #604731",
"]  c #604732",
"[  c #604731",
"{  c #614832",
"}  c #624932",
"|  c #634933",
" . c #624831",
".. c #644A33",
"X. c #644B33",
"o. c #654B34",
"O. c #674C34",
"+. c #644A33",
"@. c #684D35",
"#. c #684D35",
"$. c #303341",
"%. c #3A3B4B",
"&. c #3A3642",
"*. c #363B52",
"=. c #3F435A",
"-. c #394360",
";. c #3E4A6C",
":. c #4E4243",
">. c #534543",
",. c #54484E",
"<. c #46485E",
"1. c #534951",
"2. c #444F6D",
"3. c #5A5C68",
"4. c #475679",
"5. c #4B5370",
"6. c #8C671D",
"7. c #966D17",
"8. c #8F6A21",
"9. c #856935",
"0. c #A37E37",
"q. c #8F7146",
"w. c #B3862B",
"e. c #B28427",
"r. c #B28934",
"t. c #CE9214",
"y. c #C09233",
"u. c #C29F5E",
"i. c #D1A44B",
"p. c #2C5887",
"a. c #2D5A8A",
"s. c #3D5784",
"d. c #325E8D",
"f. c #3D5C8B",
"g. c #2E5E92",
"h. c #395E91",
"j. c #2E6196",
"k. c #2F639A",
"l. c #376197",
"z. c #33639C",
"x. c #35689E",
"c. c #3067A2",
"v. c #3369A4",
"b. c #396FA8",
"n. c #3D72AB",
"m. c #435D86",
"M. c #4773A1",
"N. c #4A7DB4",
"B. c #467AB1",
"V. c #4F82B8",
"C. c #5E89B7",
"Z. c #5385BB",
"A. c #5788BD",
"S. c #5784B4",
"D. c #5E8EC2",
"F. c #6291C5",
"G. c #6E99C7",
"H. c #6897C9",
"J. c #6C9ACC",
"K. c #78A2CF",
"L. c #75A2D2",
"P. c #7AA6D5",
"I. c #7DA9D7",
"U. c #7EAAD9",
"Y. c #B9BABC",
"T. c #82ADDB",
"R. c #87B1DF",
"E. c #88B2DF",
"W. c #89B3E1",
"Q. c #E5E7E8",
"!. c #CDCDCD",
/* pixels */
"7 7 9 9 a a a a 7 7 7 7 7 7 7 7 7 7 7 7 9 9 7 7 7 7 7 7 7 7 7 7 7 7 7 7 7 7 9 9 9 9 9 9 9 9 9 9 a a a a a a a a 9 9 9 9 9 9 9 9 9 9 9 9 a a 9 9 9 9 9 9 a a a a ",
"7 7 9 9 a a a a 7 7 7 7 7 7 7 7 7 7 7 7 9 9 7 7 7 7 7 7 7 7 7 7 7 7 7 7 7 7 9 9 9 9 9 9 9 9 9 9 a a a a a a a a 9 9 9 9 9 9 9 9 9 9 9 9 a a a a 9 9 9 9 a a a a ",
"O.O.@.@.@.@.@.@.@.O.O.O.@.@.O.O.P P z z j j a a a a g g S S z z ; ; & & & & & & & & & & & & & & & & v v @.@.@.@.@.O.O.O.@.@.@.@.@.@.@.@.@.@.@.@.@.@.@.@.@.@.@.@.",
"O.O.@.@.@.@.@.@.O.O.O.O.@.@.O.O.P P z z j j a a a a g g S S z z ; ; & & & & & & & & & & & & & & & & z v @.@.@.@.O.O.O.O.@.@.@.@.@.@.@.@.@.@.@.@.@.@.@.@.@.@.@.@.",
"@.@.o.o.....} } ] ] W W W W } } } W W W W W a a 7 7 a a a a & & & & & & & & & & & & & & & & & & & & & & & & O.O.O.O.@.@.@.@.O.O.....o...o.o.............} ..@.@.",
"@.@.o.o.....} } ] ] W W W W } } } } W W } W a a 7 7 a a a a & & & & & & & & & & & & & & & & & & & & & & & & O.O.@.O.@.@.@.@.O.O.........o.o.............o.o.@.@.",
"9 9 7 7 7 7 a a a a a a g g j j z z J J E E a a 7 7 & & & & & & u u s s t t l l s s d d } } ....v v ; ; & & ; ; E E J J J J j j a a a a a a a a a a a a g g @.@.",
"9 9 7 7 7 7 a a a a a a g g j j z n J J E E a a 7 7 & & & & & & u u s s t t l l s s d d } } ....v v ; ; & & ; ; E E J J J J j j a a a a a a a a a a a a g g @.@.",
"a a a a j j @.@.@.@.@.@.@.@.@.@.@.@.@.@.....a a + + + + * * s s z v s u ; ; d d a s k k ....} } Z Z Y Y t t o o * * g g g g g g j j j j n n W W W W } } o.o.@.@.",
"a a a a j j @.@.@.@.@.@.@.@.@.@.@.@.@.@.....a a + + + + * * s s z z u u ; ; d d a a k k ....} } Z Z Y Y t t o o * * g g g g g g j j j j n n W W W W } } o.o.@.@.",
"S S n n J J W W ] ] } } } } } } } } } } S S + + o o & & ; ; k k d d u u ; ; d d s s v v } } } } k k W W s s + + o o u u @.@.@.@.@.@.@.@.@.@.@.@.@.@.@.@.@.@.@.@.",
"S S n n J J W W ] ] } } } } } } } } } } S S + + o o & & ; ; k k d d u u ; ; d d s s v v } } } } k k W W s s + + o o u u @.@.@.@.@.@.@.@.@.@.@.@.@.@.@.@.@.@.@.@.",
"} } J J m m S S J J J J S S S S S S P P & & o o & & & & t t v v s s s s ; ; d d d d v v } } } } k k J J s s & & t t o o v v @.@.@.@.@.@.@.@.@.@.@.@.@.@.@.@.@.@.",
"} } J J m m S S J J J J S S S S S S P P & & o o & & & & t t v v s s s s ; ; d d d d v v } } } } k k J J s s & & t t o o v v @.@.@.@.@.@.@.@.@.@.@.@.@.@.@.@.@.@.",
"j j g g g g z z } } ....o.o.O.O.@.O.u u o o u u Z Z & & u u G J s s s s t ; d d d d l l ] } } } d d v v z z & & Y Y t t o o W W W W } } } } } } ............o.o.",
"j j g g g g z z } } ....o.o.O.O.@.@.u u o o u u Z Z & & u t G J s s s s t t d d d d l l ] } } } d d v v z z & & Y Y t t o o W W W W } } } } } } ............o.o.",
"@.@.........................} } l l o o ; ; } } J J & & u u ] ] d d s s t t k k d d z z ] ] } } d d k k v v & & l l ....& & o + j j j j j j z j z z j j j j } ..",
"@.@.........................} } l l o o ; ; } } J J & & u u ] ] d d s s t t k k d d z z ] ] } } d d k k v v & & l l ....& & + + j j j j z z z z z z j j j j ....",
"P P S S J J J J P P P P E E z z o o & & Z G ] ] Z Z & & s s ....k k s s u u z z d d z z ] ] } } d d d d J J * * s s ....l l o o t t n n m S S S S S n n n n } } ",
"P P S S J J J J P P P P E E z z o o & & v G } ] Z Z & & s s ....k k s s u u z z k k z z ] ] } } d d d d J J * * s s ....l l o o t t n n m m S S S S n n n n } } ",
"....P P S S S S S S J J ] ] o o o o ; ; Y ] W W v v & & u u ....v v d d t t z z d d k k W W } } d d d d J J * * u u } } ....& & o o o.o.@.@.@.@.@.@.@.@.@.@.W W ",
"....P P S S S S S S J J ] W o o o o ; ; ^ ^ W W v v & & u u ....v v s d t t z z d d k k W Y } } d d d d J J * * u u } } ....& & o o o.o.@.@.@.O.@.@.@.@.@.@.W W ",
"@.@.@.@.@.@.@.@.@.@.O.O.k k o o & & d d Y Y W W v v & & u u ....J J d d t t v v u u s s Y Y ] ] s s d d Z Z & & t t } } ] ] k k o o u u @.@.O.O.@.@.@.@.@.@.W W ",
"@.@.@.@.@.@.@.@.@.@.O.O.k k o o & & d d Y Y W W v v & & u u ....J J d d t t z v u u s s Y Y ] ] s s d d Z Z & & t t } } ] ] k k o o u u @.@.O.O.@.@.@.@.@.@.W W ",
"} } } } } } } } } } W W & & o o t t d d J J ] ] l l & & i i ....Y Y k k t t x x ; ; t t W W ] ] d d d d v v & & * * ] ] ] ] v v & & o o S S W W W W J J n n a a ",
"} } } } } } } } } } W W & & o o t t d d J J ] ] l l & & i i ....Y Y k k t t v v ; ; t t W W ] ] d d d d v v & & * * ] ] ] ] v v & & o o S S W W W W J J n n a a ",
"7 7 7 7 7 7 7 7 7 7 ; ; & & & & g s d d J J W W k k & & s s ....] ] l l t t k k ; ; t t ^ ] ] W d d z z v v & & & & W W W W T T u u o o ; ; 7 7 7 7 7 7 7 7 7 7 ",
"7 7 7 7 7 7 7 7 7 7 ; ; & & & & d s d d J J W W k k & & s s ....] ] l l t t k k ; ; t t ^ ] ] ] d d z z v v & & & & W W W W T T u u o o ; ; 7 7 7 7 7 7 7 7 7 7 ",
"g g a a g g g g g g ; ; & & ; ; a a k k G G Y Y k k & & s s ....} } x v t t d s * * t t W W Y Y d d v v v v & & & & ] ] Y Y Y Y d d & & & & W W } } } } a a 9 9 ",
"g g a a g g g g g g ; ; & & ; ; a a k k G G Y Y k k & & s s ....} } x x t t s s * * t t W W Y Y d d v v v v & & & & ] ] Y Y Y Y d d & & & & W W } } } } a a 9 9 ",
"a a a a a a a a a a & & & & u u t t k k v v Y Y k k & & s s ........l l t t s s & & t t Y Y J J d d Z Z v v & & & & W W J J Y Y d d t t o o } } @.@.@.@.z z 7 7 ",
"a a a a a a a a a a & & & & u u t t k k v v Y Y k k & & s s ........l l t t s s & & t t Y Y J J d d Z Z v v & & & & W W J J Y Y d d t t o o } } @.@.@.@.z z 7 7 ",
"a a a a a a a a a a & & * * s s u u x x v v T T k k & & s s ....} } d d u u s s * * u u Y Y J J d d J J l l & & & & W W J J J J v v J J * * * * S J z z g g 7 7 ",
"a a a a a a a a a a & & * * s s u u x x v v T T k k & & s s ....} } d d u u s s * * u u Y Y J J d d G J l l & & & & W W J J J J v v J J * * * * S J n n g g 7 7 ",
"S S W W @.@.O.O.s s & & ; ; d d g g Y Y J J Y Y k k & & s s ....Y Y s s s s d d * * u u Y Y J J d d Y Y z l & & & & ] W J J v v a a ....x x o o a a 9 9 7 7 7 7 ",
"S S W W @.@.O.O.s s & & ; ; d d g g Y Y J J Y Y k k & & s s ....Y Y s s s s d d * * u u Y Y J J d d Y Y z z & & & & ] W J J v v a a ....x x o o a a 9 9 7 7 7 7 ",
"S S W W O.O.....& & & & u u z z z z ^ ^ J J ^ ^ k k * * s s ....,.,.2.2.f.f.l.l.l.l.h.h.4.4.>.>.d d ] } v v & & & & } } S S z z a a ....G G & & a a z z g g 7 7 ",
"S S W W O.O.....& & & & u u z z z z ^ ^ J J ^ ^ k k * * s s ....,.,.2.2.f.f.l.l.l.l.h.h.4.4.>.>.d d ] ] v v & & & & } } S S z z a a ....G G & & a a z z g g 7 7 ",
"a a a a a a a a & & & & d d v v Z Z ^ ^ Y Y ] ] k k * * <.<.l.l.c.c.c.c.c.c.c.c.v.v.c.c.c.c.c.c.c.c.4.4.S S & & ; ; } } Y Y v v 6 6 } } Y Y & & G G O.O.} } 7 7 ",
"a a a a a a a a & & & & d d v v Z Z ^ ^ Y Y ] ] k k * * <.<.l.l.c.c.c.c.c.c.c.c.v.v.c.c.c.c.c.c.c.c.4.4.S S & & ; ; } } Y Y v v 6 6 } } Y Y & & G G O.O.} } 7 7 ",
"7 7 7 7 7 7 ; ; $ $ & & ] ] k k v v ^ ^ Y Y Y Y R R h.h.c.c.c.c.Z.Z.F.F.J.J.P.P.L.L.D.D.N.N.b.b.c.c.c.c.c.c.<.<.t t q.q.u.u.9.9.) ) / / J J & & t t O.O.} } 7 7 ",
"7 7 7 7 7 7 ; ; $ $ & & ] ] k k v v ^ ^ Y Y Y Y R R h.h.c.c.c.c.Z.Z.F.F.J.J.P.P.L.L.D.D.N.N.b.b.c.c.c.c.c.c.<.<.t t q.q.u.u.9.9.) ) / / J J & & t t O.O.} } 7 7 ",
"a a g g E E g g & & & & ....d d v v Y Y J J 1.1.c.c.c.c.A.A.R.R.W.W.W.W.U.U.F.F.n.n.b.b.v.v.c.c.c.c.c.c.c.c.c.c.s.s.0.0.i.i.r.r.w.w.( ( Y Y & & & & j j g g 7 7 ",
"a a g g E E g g & & & & ....d d v v Y Y J J 1.1.c.c.c.c.A.A.R.R.W.W.W.W.U.U.F.F.n.n.b.b.v.v.c.c.c.c.c.c.c.c.c.c.s.s.0.0.i.i.r.r.w.w.( ( Y Y & & & & j j g g 7 7 ",
"a a 9 9 9 9 @ @ ; ; ; ; ] ] v v G G Y Y >.>.c.c.c.c.I.I.W.W.W.W.R.R.H.H.v.v.c.c.c.c.c.c.c.c.c.c.c.c.c.c.c.c.c.c.c.c.m.m.e.e.y.y.8.8.p p / / * * & & g g g g 7 7 ",
"a a 9 9 9 9 @ @ ; ; ; ; ] ] v v G G Y Y >.>.c.c.c.c.I.I.W.W.W.W.R.R.H.H.v.v.c.c.c.c.c.c.c.c.c.c.c.c.c.c.c.c.c.c.c.c.m.m.e.e.y.y.8.8.p p / / * * & & g g g g 7 7 ",
"9 9 9 9 a a _ _ V V ; ; } } J J G G Y Y c.c.c.c.T.T.W.W.E.E.F.F.c.c.c.c.c.c.c.c.c.c.c.c.c.c.c.c.c.c.c.c.c.c.c.c.c.c.c.c.3.3.t.t.V V * * } } ; ; & & O.O.z z a a ",
"9 9 9 9 a a _ _ V V ; ; } } J J G G Y Y c.c.c.c.T.T.W.W.E.E.F.F.c.c.c.c.c.c.c.c.c.c.c.c.c.c.c.c.c.c.c.c.c.c.c.c.c.c.c.c.3.3.t.t.V V * * } } ; ; & & O.O.z z a a ",
"S S P P } } e.e.6.6.O O Y Y Y Y v v l.l.c.c.P.P.W.W.P.P.b.b.c.c.c.c.c.c.c.c.c.c.c.c.c.c.c.c.c.c.c.c.c.c.c.c.c.c.c.c.c.c.c.c.` ` y y ; ; ....; ; & & o.o.j j a a ",
"S S P P } } e.e.6.6.O O Y Y Y Y v v l.l.c.c.P.P.W.W.P.P.b.b.c.c.c.c.c.c.c.c.c.c.c.c.c.c.c.c.c.c.c.c.c.c.c.c.c.c.c.c.c.c.c.c.` ` y y ; ; ....; ; & & o.o.j j a a ",
"E E S J Y Y 7.7.C C - - W W ^ ^ >.>.c.c.V.V.W.W.F.F.c.c.c.c.c.c.k.k.j.j.g.g.g.g.j.j.k.k.c.c.c.c.c.c.c.c.c.c.c.c.c.c.c.c.c.c.z.z.$ $ z z ....t t & & ....j j a a ",
"E E J J Y Y 7.7.C C - - W W ^ ^ >.>.c.c.V.V.W.W.F.F.c.c.c.c.c.c.k.k.j.j.g.g.g.g.j.j.k.k.c.c.c.c.c.c.c.c.c.c.c.c.c.c.c.c.c.c.z.z.$ $ z z ....t t & & ....j j a a ",
"S S z z g g # # r r ; ; ] ] ^ ^ c.c.c.c.T.T.L.L.c.c.c.c.Q.Q., , c.c.j.j.k.k.k.k.k.j.k.k.z.z.c.c.Q.Q., , c.c.c.c.c.c.b.b.c.c.c.c.&.&.Y Y } ..u u & & J J z z 7 7 ",
"S S z z g g # # r r ; ; ] ] ^ ^ c.c.c.c.T.T.L.L.c.c.c.c.Q.Q., , c.c.j.j.k.k.k.k.j.j.k.k.z.z.c.c.Q.Q., , c.c.c.c.c.c.b.b.c.c.c.c.&.&.Y Y } ..u u & & J J z z 7 7 ",
"9 9 7 7 7 7 i i x x Y Y } } 5.5.c.c.D.D.U.U.n.n.c.c.c.c.!.!.. . j.k.g.g.a.a.a.a.a.a.a.a.a.a.j.j.Y.Y.    c.c.c.c.c.c.Z.Z.n.n.c.c.h.h.W Y } } s s & & 7 7 7 7 7 7 ",
"9 9 7 7 7 7 i i x x Y Y } } 5.5.c.c.D.D.U.U.n.n.c.c.c.c.!.!.. . j.k.g.g.a.a.a.a.a.a.a.a.a.a.j.j.Y.Y.    c.c.c.c.c.c.Z.Z.n.n.c.c.h.h.W Y } } s s & & 7 7 7 7 7 7 ",
"j j j j g g t t s s Y Y Y Y c.c.c.c.J.J.Z.Z.c.c.c.c.j.j.> > > > a.a.a.p.a.a.a.a.a.a.a.a.a.a.p.p.: : : : a.a.k.k.c.c.J.J.L.L.v.v.c.c.J J ....s s & & g g a a a a ",
"j j j j g g t t s s Y Y Y Y c.c.c.c.J.J.Z.Z.c.c.c.c.j.j.> > > > a.a.a.p.a.a.a.a.a.a.a.a.a.a.p.p.: : : : a.a.k.k.c.c.J.J.L.L.v.v.c.c.J J ....s s & & g g a a a a ",
"} } ....J J ; ; t t ....E E c.c.b.b.Z.Z.c.c.c.c.a.a.p.p.2 2 < < a.a.a.p.a.a.a.a.a.a.a.a.a.a.a.a.1 1 2 2 p.p.p.p.a.a.P.P.W.W.N.N.c.c.:.:.....u u & & W W W W W W ",
"} } ....J J ; ; t t ....E E c.c.b.b.Z.Z.c.c.c.c.a.a.p.p.2 2 < < a.a.p.p.a.a.a.a.a.a.a.a.a.a.a.a.1 1 2 2 p.p.p.p.a.a.P.P.W.W.N.N.c.c.:.:.....u u & & W W W W W W ",
"....] ] J J & & t t ....Y Y c.c.b.b.b.b.z.z.a.a.p.p.a.a.a.a.p.p.a.a.a.a.p.p.p.p.p.p.p.p.p.p.p.p.a.p.p.p.p.p.p.p.d.d.W.W.W.W.A.A.c.c.:.:.....u u & & ........@.@.",
"....] ] J J & & t t ....Y Y c.c.b.b.b.b.z.z.a.a.p.p.a.a.a.a.p.p.a.a.a.a.p.p.p.p.p.p.p.p.p.p.p.p.a.p.p.p.p.p.p.p.d.d.W.W.W.W.A.A.c.c.:.:.....u u & & ........@.@.",
"7 7 7 7 7 7 & & ; ; ....Y Y c.c.v.v.c.c.g.g.a.a.a.a.a.a.p.p.p.p.p.p.p.p.p.p.p.p.p.p.p.p.p.p.p.p.p.p.p.p.p.p.p.p.M.M.W.W.W.W.B.B.c.c.g g } ..; ; & & @.@.@.@.W W ",
"7 7 7 7 7 7 & & ; ; ....Y Y c.c.c.c.c.c.g.g.a.a.a.a.a.a.p.p.p.p.p.p.p.p.p.p.p.p.p.p.p.p.p.p.p.p.p.p.p.p.p.p.p.p.M.M.W.W.W.W.B.B.c.c.g g ....; ; & & @.@.@.@.W W ",
"g g g g d d & & & & ....Y Y 2.2.c.c.c.c.a.a.p.p.p.p.p.p.p.p.p.p.p.p.p.p.p.p.p.p.p.p.p.p.p.p.p.p.p.p.p.p.p.p.a.a.G.G.W.W.I.I.c.c.l.l.d d W W & & o o P P m m g g ",
"g g g g d d & & & & ....Y Y 2.2.c.c.c.c.a.a.p.p.p.p.p.p.p.p.p.p.p.p.p.p.p.p.p.p.p.p.p.p.p.p.p.p.p.p.p.p.p.p.a.a.G.G.W.W.I.I.c.c.l.l.d d W W & & o o P P m m g g ",
"@.@.@.@.....o o o o t t } } u u l.l.c.c.j.j.p.p.p.a.a.p.p.p.p.p.p.p.p.p.p.p.p.p.p.p.p.p.p.p.p.p.p.p.p.p.p.p.M.M.K.K.S.S.k.k.c.c.g g z z * * o o o o ] ] } } o.o.",
"@.@.@.@.....o o o o t t } } u u l.l.c.c.j.j.a.p.p.p.a.p.p.p.p.p.p.p.p.p.p.p.p.p.p.p.p.p.p.p.p.p.p.p.p.p.p.p.M.M.K.K.S.S.k.k.c.c.g g z z * * o o o o ] ] } } o.o.",
"O.O.@.@.O.O.& & o o o o & & & & % % c.c.c.c.g.g.p.p.p.p.p.p.p.p.p.p.p.p.p.p.p.p.p.p.p.p.p.p.p.p.p.p.p.p.d.d.C.C.M.M.k.k.c.c.%.%.+ o + + o o o o o o @.@.@.@.....",
"O.O.@.@.O.O.& & o o o o & & & & % % c.c.c.c.g.g.p.p.p.p.p.p.p.p.p.p.p.p.p.p.p.p.p.p.p.p.p.p.p.p.p.p.p.p.d.d.C.C.M.M.k.k.c.c.%.%.+ o + + o o o o o o @.@.@.@.....",
"a a 9 9 a a u u o o o o o o O O X X 3 3 l.l.c.c.k.k.a.a.p.p.p.p.p.p.p.p.p.p.p.p.p.p.p.p.p.p.p.p.a.p.p.p.a.a.x.x.c.c.h.h.*.*.3 3 % % O o o o & & t t n n a a a a ",
"a a 9 9 a a u u o o o o o o O O X X 3 3 l.l.c.c.k.k.a.a.p.p.p.p.p.p.p.p.p.p.p.p.p.p.p.p.p.p.p.p.p.p.p.p.a.a.x.x.c.c.h.h.*.*.3 3 % % O O o o & & t t n m g a a a ",
"O.O.W W W W ] W ] ] } } W W 0 0 0 0 0 0 0 0 =.=.c.c.c.c.k.k.g.g.a.a.a.a.a.a.a.a.g.g.g.g.g.g.j.j.k.k.c.c.c.c.h.h.;.;.8 8 5 5 5 5 8 5 g h z z j j j j g g a a z z ",
"O.O.W W W W ] ] ] ] } } W W 0 0 0 0 0 0 0 0 =.=.c.c.c.c.k.k.g.g.a.a.a.a.a.a.a.a.g.a.g.g.g.g.j.j.k.k.c.c.c.c.h.h.;.;.8 8 5 5 5 5 5 5 h h z z j j j j g g a a z z ",
"g g a a a a a a g g g g g g f f 5 5 5 5 5 5 5 5 5 5 %.%.s.s.z.z.c.c.c.c.c.c.c.c.c.c.c.c.l.l.s.s.-.-.$.$.w w 0 0 0 0 q q 0 0 e e B B ~ ~ | | O.O.O.O.o.o.o.o.@.@.",
"g g a a a a a a g g g g g g f f 5 5 5 5 5 5 5 5 5 5 %.%.s.s.z.z.c.c.c.c.c.c.c.c.c.c.c.c.l.l.s.s.-.-.$.$.w w 0 0 0 0 q q 0 0 e e B N ~ ~ | | O.O.O.O.o.o.o.o.@.@.",
"a a 7 7 7 7 9 9 j j j j z z z z g j f f q q 5 5 5 5 5 5 5 5 5 5 8 8 0 0 N N N N B B B B B B h h 4 4 4 4 f f f f f f f f h h n n S J S S S S S S S S n n m m E E ",
"a a 7 7 7 7 9 9 j j j j z z z z j j f f q q 5 5 5 5 5 5 5 5 5 5 8 8 0 0 N N N N B B B B B B h h 4 4 4 4 f f f f f f f f h h n n S S S S S S S S S S n n m m E E ",
"J J } } o.o.@.@.@.@.@.@.@.@.@.@.@.@.@.@.@.@.@.@.@.@.O.O.o.o.O.O.@.@.@.@.@.@.@.@.@.@.@.@.@.@.W W 7 7 7 7 W W W W W W W W W W E E P P J J J J J J J J J J P P W W ",
"J J } } o.o.@.@.@.@.@.@.@.@.@.@.@.@.@.@.O.O.@.@.@.@.O.O.o.o.O.O.@.@.@.@.@.@.@.@.@.@.@.@.@.@.W W 7 7 7 7 W W W W W W W W W W E E P P J J J J J J J J J J P P W W "
};
