/* XPM */
static const char *sprite4[] = {
/* columns rows colors chars-per-pixel */
"40 40 93 2 ",
"   c #010101",
".  c #0A1622",
"X  c #101D29",
"o  c #282828",
"O  c #302C29",
"+  c #3C332C",
"@  c #483727",
"#  c #41362E",
"$  c #493728",
"%  c #42382F",
"&  c #4D3A2A",
"*  c #533E2C",
"=  c #413730",
"-  c #433930",
";  c #4C3E32",
":  c #56412D",
">  c #5A432F",
",  c #4F4032",
"<  c #544131",
"1  c #5D4631",
"2  c #514E3E",
"3  c #5E4E3E",
"4  c #5F533F",
"5  c #604731",
"6  c #644A33",
"7  c #684D35",
"8  c #644F39",
"9  c #62513B",
"0  c #162C43",
"q  c #152E48",
"w  c #17324E",
"e  c #1A344F",
"r  c #3F637B",
"t  c gray26",
"y  c #5F4F40",
"u  c #565444",
"i  c #5A5246",
"p  c #54514A",
"a  c #5A554B",
"s  c #4F5A5D",
"d  c #555854",
"f  c #51595A",
"g  c #615141",
"h  c #445A66",
"j  c #4B5B62",
"k  c #465F6D",
"l  c #436173",
"z  c #2C5887",
"x  c #2C5A8A",
"c  c #2E5E92",
"v  c #356283",
"b  c #3A6585",
"n  c #36668D",
"m  c #386588",
"M  c #2E6096",
"N  c #2F639B",
"B  c #346793",
"V  c #31679B",
"C  c #31689E",
"Z  c #2F66A0",
"A  c #3067A2",
"S  c #346AA5",
"D  c #3A6DA5",
"F  c #3C71AA",
"G  c #4075AD",
"H  c #4877A9",
"J  c #4878AC",
"K  c #4679B1",
"L  c #4B7EB5",
"P  c #4F81B7",
"I  c #5587BC",
"U  c #598ABF",
"Y  c #5B8CC0",
"T  c #5C8DC1",
"R  c #6090C3",
"E  c #6695C8",
"W  c #6998CA",
"Q  c #72A0D0",
"!  c #76A2D3",
"~  c #79A6D5",
"^  c #7CA8D7",
"/  c #8D8D8D",
"(  c #B8B8B9",
")  c #81ACDB",
"_  c #83AEDC",
"`  c #84AFDD",
"'  c #86B1DE",
"]  c #88B2DF",
"[  c #89B3E1",
"{  c #8AB4E1",
"}  c #DEDFE1",
"|  c #ECEDEF",
" . c white",
/* pixels */
"7 7 7 7 7 7 7 7 7 7 7 @ $ * * > 6 6 6 7 7 7 7 7 7 7 7 7 7 7 7 7 7 7 7 7 7 7 7 7 ",
"7 7 6 6 6 6 6 6 6 6 6 @ @ & * > > > 1 1 5 5 1 5 6 6 6 7 7 7 7 7 7 7 7 7 7 7 7 7 ",
"$ @ $ $ $ & & * : 1 > @ $ > > 1 1 1 6 6 6 6 6 6 6 6 6 6 6 6 1 1 * & & & & & & & ",
"* > 7 7 7 7 7 7 7 7 6 @ & > > 6 6 6 6 6 6 5 > : * : : * * * & & & & & : 1 1 5 6 ",
"6 6 6 6 6 6 7 7 6 6 > @ * 6 7 7 7 6 1 : * * * : > > 1 1 5 6 6 6 7 7 7 7 7 7 7 7 ",
"6 6 6 1 1 > > > > > : @ : 6 6 6 1 * : > 1 6 6 7 7 7 7 7 7 7 7 7 7 7 7 7 7 7 7 7 ",
"1 1 6 6 6 6 6 6 7 7 1 @ : > : > > > > > 1 1 5 6 6 6 6 6 6 6 6 6 6 6 6 7 7 7 7 7 ",
"6 6 6 7 7 7 7 7 7 7 1 @ * : * : * : : : > > > > > : > : > * : : > > > 1 1 1 1 1 ",
"6 6 6 6 5 1 1 1 1 1 > @ : 7 7 7 7 6 6 6 6 6 6 6 6 6 6 6 6 > > : : * * * * * & * ",
"5 1 1 1 6 6 6 6 6 7 5 @ : 7 7 7 7 d r B V V b p 6 6 6 6 6 6 6 6 6 6 6 6 7 7 7 7 ",
"7 7 7 7 7 7 7 7 7 7 5 @ $ 7 7 9 b S L Y Q T G A B y 7 7 7 7 7 7 7 7 7 7 7 7 7 7 ",
"7 7 7 7 7 7 7 7 7 7 : @ $ 7 9 V L ' [ [ ^ U K A A A a 7 7 7 7 7 7 6 6 6 6 6 6 6 ",
"7 7 1 > * * & @ @ @ @ @ $ & V R [ { [ ) S A A A A A A $ $ $ $ $ & & & & & & $ @ ",
"& $ @ @ @ $ $ $ & & & $ & m P ] { [ ! F A A A A A A A B 6 6 6 6 6 6 6 6 6 6 * @ ",
"6 6 7 7 7 7 7 7 7 7 7 6 s F ~ ] ! L A A A A A A A A A A d 7 7 7 7 7 7 7 7 7 6 @ ",
"6 1 1 1 1 1 1 1 1 1 6 6 n I _ U A A A A A A A A A A A A n 7 7 7 7 7 7 7 7 7 6 @ ",
"7 6 6 6 6 6 6 6 6 6 6 i A I ! A A A A A A A A A A A A A A 3 6 1 1 1 1 > > > * @ ",
"7 7 7 7 7 7 7 7 7 7 7 k A R P | X N A A A A A D } . A A A h 1 > > : : : : : * @ ",
"7 7 7 6 6 6 6 6 6 6 6 b A T S  .t M A A A A A S  .o A A A b 7 7 6 : * * * * & @ ",
"1 1 1 > > > > 1 1 1 5 V S K A (   Z A A N N A Z /   A A A n 7 7 7 7 7 7 7 7 1 @ ",
": > > : * * * * * * * A A A A     M c x z x c N     A L K B 7 7 7 7 7 7 7 6 > @ ",
"6 6 7 7 7 7 6 6 6 5 1 A A A A q e x z z z z x x 0 w A E U B 6 6 6 6 6 6 6 6 : @ ",
"6 6 6 6 5 1 1 1 1 > : V A A A c x z z z z z z x x N S ` W B 1 1 1 1 1 1 1 1 * @ ",
"1 1 1 1 1 1 5 1 5 5 1 B A A A x z z z z z z z z x x D [ E m 1 6 6 6 6 6 6 6 * $ ",
"7 7 7 7 7 7 7 7 7 7 7 s A A M z z z z z z z z z z x D ) S l 7 7 7 7 7 7 7 7 * $ ",
"6 6 7 7 7 7 7 7 7 7 7 7 A A c x z z z z z z z z z x H E A 4 7 7 7 7 7 7 7 7 * $ ",
"1 1 1 1 1 > > : : : : : A A M x z z z z z z z z z x J G B 6 6 6 6 6 6 6 6 6 & $ ",
"6 6 6 6 6 6 6 6 6 6 6 6 j A A x z z z z z z z z z c A A u 6 6 1 6 6 6 6 7 7 * * ",
"$ @ @ $ $ & * & & & & & & V A N x z z z z z z z x A A v $ & & * & $ $ $ $ @ @ @ ",
"$ @ @ @ @ $ & & * * * : > p A A A c x z z x x N A A n < * * * * & @ @ @ @ @ @ @ ",
"6 6 6 6 6 6 6 6 6 7 7 7 7 7 f C A A A A A A A A A v 6 7 7 7 7 7 7 7 7 6 6 1 1 1 ",
"6 6 6 5 1 1 1 1 1 6 6 7 7 7 7 8 r A A A A A A b 2 @ 6 7 6 6 6 6 6 6 6 6 7 7 7 7 ",
"* & & & & & & & * * : > 1 1 1 6 6 7 g a a a 7 7 > @ 1 1 1 6 6 6 6 6 6 7 7 7 7 7 ",
"7 7 7 7 7 7 7 6 6 6 6 5 5 1 1 1 1 1 5 6 5 5 1 5 : @ @ @ @ & * * * * : 1 1 1 1 1 ",
"7 7 7 7 7 7 7 6 6 6 6 6 6 6 5 5 5 1 5 5 5 5 5 5 : @ > > : > 1 1 1 6 6 6 6 6 7 7 ",
"7 7 7 7 7 7 7 7 7 7 7 7 7 7 7 6 1 ; ; ; ; ; - ; & + 6 7 7 7 7 7 7 7 7 7 7 7 7 7 ",
"1 1 > > > > > > > > 1 1 1 < - # # - - - - - - - + O % ; ; < 1 1 1 1 1 1 > > > > ",
"7 7 7 7 7 7 7 7 7 7 7 7 1 ; - - - - - = - = = - + O + & & : : > > > > > * * * : ",
"1 1 6 6 6 6 6 6 7 7 7 7 7 7 6 1 < ; ; ; ; ; ; , # + 1 7 7 7 7 7 7 7 7 7 7 7 7 7 ",
": * * * * * * * * * * & & & * : 1 6 7 7 7 7 7 7 * $ 6 7 7 7 7 7 7 7 7 7 6 6 6 6 "
};
