/* XPM */
static const char *sprite2[] = {
/* columns rows colors chars-per-pixel */
"40 40 100 2 ",
"   c #000101",
".  c gray5",
"X  c #142434",
"o  c #14273C",
"O  c #322E2C",
"+  c #36312D",
"@  c #3A332F",
"#  c #2A333B",
"$  c #3C3530",
"%  c #353837",
"&  c #32393B",
"*  c #483727",
"=  c #43372E",
"-  c #493728",
";  c #4C3A29",
":  c #533E2C",
">  c #403731",
",  c #433931",
"<  c #4C3E32",
"1  c #56412D",
"2  c #59432F",
"3  c #564333",
"4  c #5D4630",
"5  c #5C4832",
"6  c #5D4D3C",
"7  c #5F523D",
"8  c #604731",
"9  c #644A33",
"0  c #684D35",
"q  c #624D39",
"w  c #635037",
"e  c #343F42",
"r  c #354143",
"t  c #364548",
"y  c #2E4F5D",
"u  c #324A53",
"i  c #3F5B65",
"p  c #34596B",
"a  c #345E75",
"s  c #3B5F71",
"d  c #35627C",
"f  c #3A657F",
"g  c #414C4A",
"h  c #554F41",
"j  c #5D5343",
"k  c #52564E",
"l  c #47595B",
"z  c #495A5B",
"x  c #425C64",
"c  c #415F6A",
"v  c #41616E",
"b  c #2B5682",
"n  c #2C5887",
"m  c #2D5A8B",
"M  c #2E5E92",
"N  c #2F618E",
"B  c #346484",
"V  c #396681",
"C  c #32658B",
"Z  c #2E6195",
"A  c #2F639B",
"S  c #316595",
"D  c #396493",
"F  c #31679C",
"G  c #31689B",
"H  c #3067A2",
"J  c #336AA4",
"K  c #396FA9",
"L  c #3C71AA",
"P  c #416D9B",
"I  c #45709F",
"U  c #4175AD",
"Y  c #497DB4",
"T  c #5486BB",
"R  c #5688BD",
"E  c #5A8ABE",
"W  c #5D8DC2",
"Q  c #6291C5",
"!  c #6D98C6",
"~  c #6695C8",
"^  c #6897C9",
"/  c #6D9BCC",
"(  c #6F9DCE",
")  c #709ECF",
"_  c #729FD0",
"`  c #74A1D2",
"'  c #77A4D4",
"]  c #78A5D5",
"[  c #B1B8BF",
"{  c #BCBCBC",
"}  c #80ABD8",
"|  c #82ADDB",
" . c #83AEDC",
".. c #85AFDD",
"X. c #87B2DF",
"o. c #88B2DF",
"O. c #89B3E1",
"+. c #8AB4E1",
"@. c LightGray",
"#. c #D8DADE",
/* pixels */
"0 0 0 0 0 0 0 0 0 0 0 * - : : 2 9 9 9 0 0 0 0 0 0 0 0 0 0 0 0 0 0 0 0 0 0 0 0 0 ",
"0 0 9 9 9 9 9 9 9 9 9 * * ; : 2 2 2 4 4 8 8 4 8 9 9 9 0 0 0 0 0 0 0 0 0 0 0 0 0 ",
"- * - - - ; ; : 1 4 2 * - 2 2 4 4 4 9 9 9 9 9 9 9 9 9 9 9 9 4 4 : ; ; ; ; ; ; ; ",
": 2 0 0 0 0 0 0 0 0 9 * ; 2 2 9 9 9 9 9 9 8 2 1 : 1 1 : : : ; ; ; ; ; 1 4 4 8 9 ",
"9 9 9 9 9 9 0 0 9 9 2 * : 9 0 0 0 9 4 1 : : : 1 2 2 4 4 8 9 9 9 0 0 0 0 0 0 0 0 ",
"9 9 9 4 4 2 2 2 2 2 1 * 1 9 9 9 4 : 1 2 4 9 9 0 0 0 0 0 0 0 0 0 0 0 0 0 0 0 0 0 ",
"4 4 9 9 9 9 9 9 0 0 4 * 1 2 1 2 2 2 2 2 4 4 8 9 9 9 9 9 9 9 9 9 9 9 9 0 0 0 0 0 ",
"9 9 9 0 0 0 0 0 0 0 4 * : 1 : 1 : 1 1 1 2 2 2 2 2 1 2 1 2 : 1 1 2 2 2 4 4 4 4 4 ",
"9 9 9 9 8 4 4 4 4 4 2 * 1 0 0 0 0 9 9 9 9 9 9 9 9 9 9 9 9 2 2 1 1 : : : : : ; : ",
"8 4 4 4 9 9 9 9 9 0 8 * 1 0 0 0 0 0 0 0 9 9 9 9 9 9 9 9 9 9 9 9 9 9 9 9 0 0 0 0 ",
"0 0 0 0 0 0 0 0 0 0 8 * - 0 0 0 0 0 0 0 9 9 9 9 9 9 0 0 0 0 0 0 0 0 0 0 0 0 0 0 ",
"0 0 0 0 0 0 0 0 0 0 1 * - 0 0 0 0 0 0 0 0 0 0 0 0 0 0 0 0 0 0 0 0 9 9 9 9 9 9 9 ",
"0 0 4 2 : : ; * * * * * - - - ; ; ; ; ; - - - - - - - - - - - ; ; ; ; ; ; ; - * ",
"; - * * * - - - ; - ; - ; : 2 2 4 4 4 4 4 4 9 9 9 9 9 9 9 9 9 9 9 9 9 9 9 9 : * ",
"9 9 0 0 0 0 0 0 0 0 0 9 0 0 0 0 0 0 0 0 0 0 0 0 0 0 0 0 0 0 0 0 0 0 0 0 0 0 9 * ",
"9 4 4 4 4 4 4 4 4 4 9 9 9 9 9 9 9 9 9 9 9 9 9 9 0 0 0 0 0 0 0 0 0 0 0 0 0 0 9 * ",
"0 9 9 9 9 9 9 9 9 9 9 9 9 0 0 0 0 0 0 7 j q 9 9 9 9 9 9 9 9 9 4 4 4 4 2 2 2 : * ",
"0 0 0 0 0 0 0 0 0 0 0 0 0 0 0 0 j B H H H H S c h 4 4 4 4 4 4 2 2 1 1 1 1 1 : * ",
"0 0 0 9 9 9 9 9 9 9 9 9 9 9 6 H H H H H H H H H H v 0 0 0 0 0 0 9 1 : : : : ; * ",
"4 4 4 2 2 2 2 4 4 4 8 8 4 l H H K Q ' ] ` ~ E L H H f w 0 0 0 0 0 0 0 0 0 0 4 * ",
"1 2 2 1 : : : : : : : 1 i H H ^ O.+.X.X. .E L J H H H C 7 0 0 0 0 0 0 0 0 9 2 * ",
"9 9 0 0 0 0 9 9 9 8 4 x H J X.+.O.| ` R H H H H H H H H G z 9 9 9 9 9 9 9 9 1 * ",
"9 9 9 9 8 4 4 4 4 2 i H U O.+...' Y H H H H H H H H H H H H c 5 4 4 4 4 4 4 : * ",
"4 4 4 4 4 4 8 4 8 z H K X.O.Q L H H H H H H H H H H H H H H H x 9 9 9 9 9 9 : - ",
"0 0 0 0 0 0 0 0 j H H _ ] H H H F A A Z M A A H H H H H H H H H j 0 0 0 0 0 : - ",
"9 9 0 0 0 0 0 0 F H W ( H H A A M M M Z Z Z Z Z A A H H H H H H V 0 0 0 0 0 : - ",
"4 4 4 4 4 2 2 d H U ) J A A #.# M M m n n n n n [ X m A A H H H H k 9 9 9 9 ; - ",
"9 9 9 9 9 9 6 H H W Y A A M @.. b n n n n n n n {   n n m A H H H V 0 9 0 0 : : ",
"- * * - - ; d H L T A M M n     n n n n n n n n     n n n n M H H H g - - * * * ",
"- * * * * - G H U L M M n n X X n n n n n n n n X o n n n n n S H H a * * * * * ",
"9 9 9 9 9 9 H H J A m n n n n n n n n n n n n n n n n n n n n E L H G 9 9 4 4 4 ",
"9 9 9 8 4 4 F H H A n n n n n n n n n n n n n n n n n n n n D } U H H q 0 0 0 0 ",
": ; ; ; ; ; B H H H m n n n n n n n n n n n n n n n n n n n o.O.H H F 0 0 0 0 0 ",
"0 0 0 0 0 0 k H H A A m n n n n n n n n n n n n n n n n P O.+./ H H s 4 4 4 4 4 ",
"0 0 0 0 0 0 < B H H A M m n n n n n n n n n n n n n n I ! ..E H H H r 9 9 9 0 0 ",
"0 0 0 0 0 , $ $ B H H H A M M m m n n n n n m M M M Z A H H H H H p $ < 9 0 0 0 ",
"4 4 2 2 2 O O O O u C H H H A Z Z Z Z Z Z Z A A A H H H H H H B e + + + = 2 2 2 ",
"0 0 0 0 0 9 , @ @ @ @ @ t p d C Z Z N N N S C B a y e % r & O O O O O @ ; : : 1 ",
"4 4 9 9 9 9 9 4 < , > $ $ $ $ , < < , , , , , , + O , , < < < < < 3 9 0 0 0 0 0 ",
"1 : : : : : : : : : : ; ; ; : 1 4 9 0 0 0 0 0 0 : - 9 0 0 0 0 0 0 0 0 0 9 9 9 9 "
};
