/* XPM */
static const char *sprite3[] = {
/* columns rows colors chars-per-pixel */
"80 80 256 2 ",
"   c #684D35",
".  c #473627",
"X  c #483728",
"o  c #543F2D",
"O  c #59432F",
"+  c #634933",
"@  c #644A33",
"#  c #654B34",
"$  c #664C34",
"%  c #674C35",
"&  c #664B34",
"*  c #644B33",
"=  c #624932",
"-  c #614832",
";  c #463527",
":  c #463627",
">  c #4D3A29",
",  c #543F2C",
"<  c #59422F",
"1  c #5A432F",
"2  c #5B442F",
"3  c #5F4731",
"4  c #604731",
"5  c #624933",
"6  c #674C34",
"7  c #674D35",
"8  c #4A3828",
"9  c #4A3829",
"0  c #4B3929",
"q  c #4C3A29",
"w  c #4F3C2B",
"e  c #533E2C",
"r  c #57412E",
"t  c #5B4430",
"y  c #493728",
"u  c #5C4530",
"i  c #5D4530",
"p  c #5E4631",
"a  c #503C2B",
"s  c #4D3B2A",
"d  c #4E3B2A",
"f  c #4F3B2A",
"g  c #58422E",
"h  c #4D3A2A",
"j  c #604832",
"k  c #55402D",
"l  c #523E2C",
"z  c #56412D",
"x  c #513D2B",
"c  c #4F3C2A",
"v  c #56402D",
"b  c #634A33",
"n  c #523D2C",
"m  c #59422E",
"M  c #5C4430",
"N  c #604732",
"B  c #453526",
"V  c #5D4630",
"C  c #453426",
"Z  c #533F2C",
"A  c #56412E",
"S  c #553F2D",
"D  c #483727",
"F  c #483627",
"G  c #493828",
"H  c #4C3929",
"J  c #654D3E",
"K  c #5F4E50",
"L  c #55516A",
"P  c #4B557E",
"I  c #455989",
"U  c #425A8D",
"Y  c #455988",
"T  c #4D557A",
"R  c #59505F",
"E  c #664D3D",
"W  c #54526B",
"Q  c #36639C",
"!  c #3067A2",
"~  c #3269A3",
"^  c #3D72AB",
"/  c #4378B0",
"(  c #3E73AC",
")  c #366CA6",
"_  c #3A70A9",
"`  c #356CA6",
"'  c #3A6098",
"]  c #53526F",
"[  c #564339",
"{  c #425788",
"}  c #4276AE",
"|  c #598ABE",
" . c #6493C6",
".. c #6998CA",
"X. c #5789BD",
"o. c #4478B0",
"O. c #5587BC",
"+. c #5F8FC3",
"@. c #5385BA",
"#. c #3C71AA",
"$. c #32659F",
"%. c #4E5272",
"&. c #614934",
"*. c #455887",
"=. c #386EA8",
"-. c #6E9CCD",
";. c #86B1DF",
":. c #88B2E0",
">. c #84AFDD",
",. c #75A2D2",
"<. c #4F81B7",
"1. c #3168A2",
"2. c #346AA4",
"3. c #574F60",
"4. c #3C5B92",
"5. c #5A8BBF",
"6. c #7DA9D8",
"7. c #5284B9",
"8. c #3A70AA",
"9. c #2F639C",
"0. c #3066A1",
"q. c #416B9B",
"w. c #3067A1",
"e. c #494862",
"r. c #43527F",
"t. c #5E8EC2",
"y. c #89B3E1",
"u. c #88B2DF",
"i. c #497CB4",
"p. c #366CA5",
"a. c #CED0D1",
"s. c #191919",
"d. c #325F97",
"f. c #32629A",
"g. c gray95",
"h. c #0A121B",
"j. c #3C72AB",
"k. c #463A3C",
"l. c #654B35",
"z. c #33659F",
"x. c #89B3E0",
"c. c #346AA5",
"v. c #1F2020",
"b. c black",
"n. c #2F66A0",
"m. c #3066A0",
"M. c #2F649D",
"N. c #2F639B",
"B. c #2F639A",
"V. c #2F6299",
"C. c #4C4C4D",
"Z. c #000001",
"A. c #4277AF",
"S. c #709DCE",
"D. c #3168A3",
"F. c #475783",
"G. c #584B53",
"H. c #5485BB",
"J. c #4B7EB5",
"K. c #30659F",
"L. c #0A121C",
"P. c #0C1724",
"I. c #2C5989",
"U. c #2C5988",
"Y. c #2C5887",
"T. c #0E1D2E",
"R. c #0D1A2A",
"E. c #2D5B8C",
"W. c #336AA4",
"Q. c #86B0DE",
"!. c #6090C3",
"~. c #3B5F96",
"^. c #4C4555",
"/. c #5082B8",
"(. c #2D5D8F",
"). c #2D5A8A",
"_. c #2D5684",
"`. c #5984B3",
"'. c #8AB4E1",
"]. c #598ABF",
"[. c #674C37",
"{. c #694A3B",
"}. c #487BB3",
"|. c #5687BC",
" X c #86B0DD",
".X c #6F9CCD",
"XX c #465683",
"oX c #415B8E",
"OX c #2C5A8A",
"+X c #6D99C8",
"@X c #86B1DE",
"#X c #376DA7",
"$X c #5A4D56",
"%X c #594139",
"&X c #35629B",
"*X c #2E6096",
"=X c #2F6198",
"-X c #356AA3",
";X c #464A6A",
":X c #493A2E",
">X c #332F2D",
",X c #3A2F35",
"<X c #3A5C94",
"1X c #2F629A",
"2X c #2E6197",
"3X c #2E5F93",
"4X c #2E5E92",
"5X c #2E5E91",
"6X c #2F659E",
"7X c #3C588D",
"8X c #383642",
"9X c #322F2D",
"0X c #58422F",
"qX c #443A31",
"wX c #393330",
"eX c #383330",
"rX c #38332F",
"tX c #3F4056",
"yX c #3C598D",
"uX c #36629B",
"iX c #395C93",
"pX c #3E5384",
"aX c #3F466A",
"sX c #36343D",
"dX c #312E2C",
"fX c #312E2D",
"gX c #312D2C",
"hX c #514031",
"jX c #403730",
"kX c #3E362F",
"lX c #423830",
"zX c #4A3D31",
"xX c #4F4032",
"cX c #524133",
"vX c #564641",
"bX c #574B53",
"nX c #584D5B",
"mX c #575064",
"MX c #575166",
"NX c #575165",
"BX c #4D4A61",
"VX c #464358",
"CX c #433E4A",
"ZX c #3F393A",
"AX c #3D3732",
"SX c #3E3630",
"DX c #3F3730",
"FX c #352F2C",
"GX c #2F2B29",
"HX c #413730",
"JX c #423831",
"KX c #403731",
"LX c #443931",
"PX c #433931",
"IX c #483B31",
"UX c #624A34",
/* pixels */
"                                            . . X X o o o o O O + + @ @ # # $ $                                                                                 ",
"                                            . . X X o o o o O O + + @ @ # # $ $                                                                                 ",
"    % % & & * * + + = = # # # # @ @ * * - - ; ; : : > > , , < < 1 1 2 2 3 3 3 3 4 4 4 4 3 3 4 4 - - 5 5 & &                         6 6 7 7     % % 6 6 6 6 $ $ ",
"    % % & & * * + + = = # # # # @ @ * * - - ; ; : : > > , , < < 1 1 2 2 3 3 3 3 4 4 4 4 3 3 4 4 - - 5 5 & &                         6 6 7 7     % % 6 6 6 6 $ $ ",
"X X . . 8 8 9 9 0 0 q q w w e e r r t t 2 2 ; ; y y 2 2 2 2 u u i i p p @ @ # # # # # # # # @ @ - - + + = = - - - - - - 3 3 p p a a s s d d f f d d d d d d d d ",
"X X . . 8 8 9 9 0 0 q q w w e e r r t t 2 2 ; ; y y 2 2 2 2 u u i i p p @ @ # # # # # # # # @ @ - - + + = = - - - - - - 3 3 p p a a s s d d f f d d d d d d d d ",
"o o g g % %                             - - ; ; h h g g 1 1 j j + + + + + + = = - - 4 4 1 1 k k l l z z z z e e x x a a f f d d d d s s c c v v t t i i 4 4 = = ",
"o o g g % %                             - - ; ; h h g g 1 1 j j + + + + + + = = - - 4 4 1 1 k k l l z z z z e e x x a a f f d d d d s s c c v v t t i i 4 4 = = ",
"b b - - - - b b # # & & $ $ 6 6 & & @ @ 1 1 ; ; l l * *             + + i i r r e e n n e e v v m m 1 1 M M p p N N - - @ @ & & 6 6                             ",
"b b - - - - b b # # & & $ $ 6 6 & & @ @ 1 1 ; ; l l * *             + + i i r r e e n n e e v v m m 1 1 M M p p N N - - @ @ & & 6 6                             ",
"b b = = j j p p M M 2 2 1 1 1 1 1 1 2 2 k k B B k k @ @ # # = = V V o o z z < < p p + + # # $ $ 6 6 7 7                                                         ",
"b b = = j j p p M M 2 2 1 1 1 1 1 1 2 2 k k B B k k @ @ # # = = V V o o z z < < p p + + # # $ $ 6 6 7 7                                                         ",
"3 3 N N - - - - - - - - = = @ @ $ $     i i B B v v g g r r m m 1 1 2 2 1 1 1 1 t t p p N N - - - - - - - - - - - - = = @ @ # # # # # # & & $ $ % %             ",
"3 3 N N - - - - - - - - = = @ @ $ $     i i B B v v g g r r m m 1 1 2 2 1 1 1 1 t t p p N N - - - - - - - - - - - - = = @ @ # # # # # # & & $ $ % %             ",
"# # # # & & $ $ 6 6 % %                 V V C C Z Z A A o o k k o o k k v v A A g g g g g g g g g g r r g g r r g g o o k k A A g g O O 2 2 M M u u i i M M u u ",
"# # # # & & $ $ 6 6 % %                 V V C C Z Z A A o o k k o o k k v v A A g g g g g g g g g g r r g g r r g g o o k k A A g g O O 2 2 M M u u i i M M u u ",
"5 5 = = - - - - 4 4 3 3 p p i i u u u u g g C C r r         7 7 $ $ @ @ 5 5 = = - - = = + + @ @ @ @ @ @ # # # # & & m m g g A A k k Z Z l l x x n n n n s s a a ",
"5 5 = = - - - - 4 4 3 3 p p i i u u u u g g C C r r         7 7 $ $ @ @ 5 5 = = - - = = + + @ @ @ @ @ @ # # # # & & m m g g A A k k Z Z l l x x n n n n s s a a ",
"N N 4 4 4 4 4 4 j j - - = = @ @ # #     N N C C k k                         $ $ * * @ @ b b + + 5 5 = = - - - - - - - - - - j j - - - - b b # # 6 6 6 6 6 6 6 6 ",
"N N 4 4 4 4 4 4 j j - - = = @ @ # #     N N C C k k                         $ $ * * @ @ b b + + 5 5 = = - - - - - - - - - - j j - - - - b b # # 6 6 6 6 6 6 6 6 ",
"                                        4 4 C C 0 0                         $ $ # # # # # # # # # # & & $ $ 6 6 % % 7 7                                         ",
"                                        4 4 C C 0 0                         $ $ # # # # # # # # # # & & $ $ 6 6 % % 7 7                                         ",
"                                        z z C C 0 0                                                                         7 7 $ $ # # @ @ + + = = = = = = @ @ ",
"                                        z z C C 0 0                                                                         7 7 $ $ # # @ @ + + = = = = = = @ @ ",
"7 7 $ $ p p m m S S x x q q D D F F ; ; ; ; C C G G 0 0 0 0 q q h h > > H H H H 0 0 0 0 0 0 9 9 9 9 9 9 9 9 0 0 0 0 0 0 H H H H > > h h s s d d d d h h X X : : ",
"7 7 $ $ p p m m S S x x q q D D F F ; ; ; ; C C G G 0 0 0 0 q q h h > > H H H H 0 0 0 0 0 0 9 9 9 9 9 9 9 9 0 0 0 0 0 0 H H H H > > h h s s d d d d h h X X : : ",
"q q 0 0 D D . . . . X X G G 0 0 a a H H f f 8 8 d d Z Z g g 2 2 u u u u i i p p p p 3 3 - - = = + + b b @ @ + + = = - - - - - - - - - - - - = = = = + + , , . . ",
"q q 0 0 D D . . . . X X G G 0 0 a a H H f f 8 8 d d Z Z g g 2 2 u u u u i i p p p p 3 3 - - = = + + b b @ @ + + = = - - - - - - - - - - - - = = = = + + , , . . ",
"= = & &                             6 6 $ $ # # $ $ 6 6 6 6 6 6 6 6 % % % % 7 7 7 7                                                                     - - D D ",
"= = & &                             6 6 $ $ # # $ $ 6 6 6 6 6 6 6 6 % % % % 7 7 7 7                                                                     - - D D ",
"= = p p i i i i i i u u u u u u i i p p = = + + @ @ @ @ @ @ b b + + + + 5 5 = = + + + + @ @ & & 6 6                                                     = = F F ",
"= = p p i i i i i i u u u u u u i i p p = = + + @ @ @ @ @ @ b b + + + + 5 5 = = + + + + @ @ & & 6 6                                                     = = F F ",
"$ $ * * b b 5 5 = = = = = = + + @ @ @ @ # # # # & & 6 6                     % % $ $ & & # # # # # # # # # # * * @ @ @ @ = = 3 3 p p u u t t 1 1 O O g g o o ; ; ",
"$ $ * * b b 5 5 = = = = = = + + @ @ @ @ # # # # & & 6 6                     % % $ $ & & # # # # # # # # # # * * @ @ @ @ = = 3 3 p p u u t t 1 1 O O g g o o ; ; ",
"                                                                            $ $ @ @ 5 5 - - j j 3 3 3 3 3 3 p p p p i i u u 2 2 1 1 z z v v v v v v z z , , : : ",
"                                                                            $ $ @ @ 5 5 - - j j 3 3 3 3 3 3 p p p p i i u u 2 2 1 1 z z v v v v v v z z , , : : ",
"7 7 6 6 $ $ # # * * @ @ @ @ + + + + 5 5 5 5 5 5 5 5 + + + + - - u u t t u u i i p p 3 3 j j = = @ @ 6 6                         @ @ z z e e e e e e l l f f ; ; ",
"7 7 6 6 $ $ # # * * @ @ @ @ + + + + 5 5 5 5 5 5 5 5 + + + + - - u u t t u u i i p p 3 3 j j = = @ @ 6 6                         @ @ z z e e e e e e l l f f ; ; ",
"p p p p u u 1 1 O O 1 1 2 2 t t i i p p N N 4 4 3 3 3 3 - - b b b b b b + + = = - - - - 5 5 @ @ 6 6                                                     3 3 D D ",
"p p p p u u 1 1 O O 1 1 2 2 t t i i p p N N 4 4 3 3 3 3 - - b b b b b b + + = = - - - - 5 5 @ @ 6 6                                                     3 3 D D ",
"A A m m m m v v Z Z l l l l l l l l l l e e , , o o g g t t p p j j = = + + b b @ @ @ @ @ @ * * $ $                                     % % 6 6 $ $ & & 1 1 F F ",
"A A m m m m v v Z Z l l l l l l l l l l e e , , o o g g t t p p j j = = + + b b @ @ @ @ @ @ * * $ $                                     % % 6 6 $ $ & & 1 1 F F ",
"# # # # $ $ 7 7         & & @ @ = = 4 4 p p 1 1 A A k k , , e e Z Z o o A A 1 1 - - $ $             % % 6 6 $ $ # # @ @ @ @ + + 5 5 5 5 5 5 + + + + b b r r D D ",
"# # # # $ $ 7 7         & & @ @ = = 4 4 p p 1 1 A A k k , , e e Z Z o o A A 1 1 - - $ $             % % 6 6 $ $ # # @ @ @ @ + + 5 5 5 5 5 5 + + + + b b r r D D ",
"- - - - - - - - N N 3 3 p p u u t t 1 1 A A k k S S S S o o a a c c d d h h > > s s x x k k g g 1 1 2 2 u u p p p p 4 4 3 3 p p i i u u 3 3 3 3 3 3 3 3 e e D D ",
"- - - - - - - - N N 3 3 p p u u t t 1 1 A A k k S S S S o o a a c c d d h h > > s s x x k k g g 1 1 2 2 u u p p p p 4 4 3 3 p p i i u u 3 3 3 3 3 3 3 3 e e D D ",
"V V p p p p p p p p 3 3 4 4 3 3 4 4 4 4 u u O O g g r r o o a a d d h h q q H H 0 0 0 0 0 0 H H s s a a o o O O p p - - 3 3 j j - - @ @ * * # # # # & & , , y y ",
"V V p p p p p p p p 3 3 4 4 3 3 4 4 4 4 u u O O g g r r o o a a d d h h q q H H 0 0 0 0 0 0 H H s s a a o o O O p p - - 3 3 j j - - @ @ * * # # # # & & , , y y ",
"                                                                J J K K L L P P I I U U Y Y T T R R J J                                                 e e y y ",
"                                                                J J K K L L P P I I U U Y Y T T R R J J                                                 e e y y ",
"@ @ # # $ $ 6 6 % % $ $ $ $ 6 6 % %     E E W W Y Y Q Q ! ! ~ ~ ^ ^ / / ( ( ! ! ) ) _ _ ` ` ! ! ! ! ! ! ! ! ! ! ' ' ] ] J J                             x x G G ",
"@ @ # # $ $ 6 6 % % $ $ $ $ 6 6 % %     E E W W Y Y Q Q ! ! ~ ~ ^ ^ / / ( ( ! ! ) ) _ _ ` ` ! ! ! ! ! ! ! ! ! ! ' ' ] ] J J                             x x G G ",
"p p V V i i i i V V 1 1 g g [ [ { { ! ! ! ! } } | |  . .........X.X.o.o.O.O.+.+.@.@.#.#.~ ~ ! ! ! ! ! ! ! ! ! ! ! ! ! ! ! ! $.$.%.%.&.&.= = - - - - j j h h y y ",
"p p V V i i i i V V 1 1 g g [ [ { { ! ! ! ! } } | |  . .........X.X.o.o.O.O.+.+.@.@.#.#.~ ~ ! ! ! ! ! ! ! ! ! ! ! ! ! ! ! ! $.$.%.%.&.&.= = - - - - j j h h y y ",
"5 5 = = 5 5 = = = = 5 5 *.*.! ! =.=.-.-.;.;.:.:.>.>.,.,.<.<.! ! ! ! 1.1.#.#.2.2.! ! ! ! ! ! ! ! ! ! ! ! ! ! ! ! ! ! ! ! ! ! ! ! ! ! ! ! 3.3.# # $ $ 6 6 , , a a ",
"5 5 = = 5 5 = = = = 5 5 *.*.! ! =.=.-.-.;.;.:.:.>.>.,.,.<.<.! ! ! ! 1.1.#.#.2.2.! ! ! ! ! ! ! ! ! ! ! ! ! ! ! ! ! ! ! ! ! ! ! ! ! ! ! ! 3.3.# # $ $ 6 6 , , a a ",
"X X . . : : 8 8 0 0 4.4.! ! 5.5.:.:.:.:.6.6.7.7.8.8.9.9.0.0.! ! ! ! ! ! ! ! ! ! ! ! ! ! ! ! ! ! ! ! q.q.w.w.! ! ! ! ! ! ! ! ! ! ! ! ! ! ! ! e.e.y y D D : : B B ",
"X X . . : : 8 8 0 0 4.4.! ! 5.5.:.:.:.:.6.6.7.7.8.8.9.9.0.0.! ! ! ! ! ! ! ! ! ! ! ! ! ! ! ! ! ! ! ! q.q.w.w.! ! ! ! ! ! ! ! ! ! ! ! ! ! ! ! e.e.y y D D : : B B ",
"y y . . B B ; ; r.r.! ! t.t.y.y.u.u.i.i.! ! p.p.a.a.s.s.d.d.! ! ! ! ! ! ! ! ! ! ! ! ! ! ! ! ! ! f.f.g.g.h.h.! ! ! ! ! ! ! ! ! ! j.j.) ) ! ! ! ! k.k.B B . . F F ",
"y y . . B B ; ; r.r.! ! t.t.y.y.u.u.i.i.! ! p.p.a.a.s.s.d.d.! ! ! ! ! ! ! ! ! ! ! ! ! ! ! ! ! ! f.f.g.g.h.h.! ! ! ! ! ! ! ! ! ! j.j.) ) ! ! ! ! k.k.B B . . F F ",
"- - @ @ # # l.l.z.z.! ! x.x.;.;.c.c.! ! ! ! ! ! v.v.b.b.n.n.! ! ! ! ! ! ! ! w.w.m.m.M.M.N.N.B.B.V.V.C.C.Z.Z.! ! ! ! ! ! ! ! ! ! A.A.S.S.D.D.! ! F.F.i i t t t t ",
"- - @ @ # # l.l.z.z.! ! x.x.;.;.c.c.! ! ! ! ! ! v.v.b.b.n.n.! ! ! ! ! ! ! ! w.w.m.m.M.M.N.N.B.B.V.V.C.C.Z.Z.! ! ! ! ! ! ! ! ! ! A.A.S.S.D.D.! ! F.F.i i t t t t ",
"b b - - - - G.G.! ! H.H.x.x.J.J.! ! K.K.m.m.N.N.L.L.P.P.I.I.U.U.Y.Y.Y.Y.Y.Y.Y.Y.Y.Y.Y.Y.Y.Y.Y.Y.Y.Y.T.T.R.R.B.B.I.I.U.U.E.E.N.N.W.W.Q.Q.!.!.! ! ~.~.% %         ",
"b b - - - - G.G.! ! H.H.x.x.J.J.! ! K.K.m.m.N.N.L.L.P.P.I.I.U.U.Y.Y.Y.Y.Y.Y.Y.Y.Y.Y.Y.Y.Y.Y.Y.Y.Y.Y.T.T.R.R.B.B.I.I.U.U.E.E.N.N.W.W.Q.Q.!.!.! ! ~.~.% %         ",
"x x c c c c ^.^.! ! /./.>.>.! ! (.(.E.E.).).Y.Y._._.U.U.U.U.U.U.Y.Y.Y.Y.Y.Y.U.U.U.U.U.U.U.U.U.U.U.U.Y.Y.Y.Y.Y.Y.Y.Y.U.U.U.U.Y.Y.`.`.'.'.].].! ! ' ' [.[.% % 6 6 ",
"x x c c c c ^.^.! ! /./.>.>.! ! (.(.E.E.).).Y.Y._._.U.U.U.U.U.U.Y.Y.Y.Y.Y.Y.U.U.U.U.U.U.U.U.U.U.U.U.Y.Y.Y.Y.Y.Y.Y.Y.U.U.U.U.Y.Y.`.`.'.'.].].! ! ' ' [.[.% % 6 6 ",
"            {.{.! ! }.}.|.|.9.9.I.I.Y.Y.Y.Y.Y.Y.Y.Y.Y.Y.Y.Y.Y.Y.Y.Y.Y.Y.Y.Y.Y.Y.Y.Y.Y.Y.Y.Y.Y.Y.Y.Y.Y.Y.Y.Y.Y.Y.Y.Y.Y.Y.U.U.Y.Y. X X'.'..X.X! ! XXXXt t t t u u ",
"            {.{.! ! }.}.|.|.9.9.I.I.Y.Y.Y.Y.Y.Y.Y.Y.Y.Y.Y.Y.Y.Y.Y.Y.Y.Y.Y.Y.Y.Y.Y.Y.Y.Y.Y.Y.Y.Y.Y.Y.Y.Y.Y.Y.Y.Y.Y.Y.Y.Y.U.U.Y.Y. X X'.'..X.X! ! XXXXt t t t u u ",
"                oXoX! ! ! ! ! ! U.U.Y.Y.Y.Y.Y.Y.Y.Y.Y.Y.Y.Y.Y.Y.Y.Y.Y.Y.Y.Y.Y.Y.Y.Y.Y.Y.Y.Y.Y.Y.Y.Y.Y.Y.Y.Y.Y.Y.Y.Y.Y.Y.OXOXI.I.+X+X@X@X#X#X! ! $X$X# # $ $ % % ",
"                oXoX! ! ! ! ! ! U.U.Y.Y.Y.Y.Y.Y.Y.Y.Y.Y.Y.Y.Y.Y.Y.Y.Y.Y.Y.Y.Y.Y.Y.Y.Y.Y.Y.Y.Y.Y.Y.Y.Y.Y.Y.Y.Y.Y.Y.Y.Y.Y.OXOXI.I.+X+X@X@X#X#X! ! $X$X# # $ $ % % ",
"6 6 % %         %X%X&X&X! ! ! ! *X*X).).Y.Y.Y.Y.Y.Y.Y.Y.Y.Y.Y.Y.Y.Y.Y.Y.Y.Y.Y.Y.Y.Y.Y.Y.Y.Y.Y.Y.Y.Y.Y.Y.Y.Y.Y.Y.Y.Y.U.U.=X=XN.N.-X-X( ( ! ! ;X;X                ",
"6 6 % %         %X%X&X&X! ! ! ! *X*X).).Y.Y.Y.Y.Y.Y.Y.Y.Y.Y.Y.Y.Y.Y.Y.Y.Y.Y.Y.Y.Y.Y.Y.Y.Y.Y.Y.Y.Y.Y.Y.Y.Y.Y.Y.Y.Y.Y.U.U.=X=XN.N.-X-X( ( ! ! ;X;X                ",
"u u t t 2 2 :X:X>X>X,X,X<X<X! ! ! ! ! ! ! ! M.M.1X1X=X=X2X2X2X2XB.B.M.M.M.M.V.V.*X*X3X3X4X4X5X5X4X4X3X3X*X*XV.V.6X6X! ! ! ! ! ! ! ! 7X7X8X8X9X9X>X>X0X0XO O 1 1 ",
"u u t t 2 2 :X:X>X>X,X,X<X<X! ! ! ! ! ! ! ! M.M.1X1X=X=X2X2X2X2XB.B.M.M.M.M.V.V.*X*X3X3X4X4X5X5X4X4X3X3X*X*XV.V.6X6X! ! ! ! ! ! ! ! 7X7X8X8X9X9X>X>X0X0XO O 1 1 ",
"            qXqXwXwXeXeXrXrXtXtXyXyX$.$.! ! ! ! ! ! ! ! ! ! ! ! ! ! ! ! ! ! ! ! ! ! ! ! ! ! ! ! ! ! ! ! $.$.uXuXiXiXpXpXaXaXsXsXdXdXdXdXfXfXfXfXgXgX, , S S z z ",
"            qXqXwXwXeXeXrXrXtXtXyXyX$.$.! ! ! ! ! ! ! ! ! ! ! ! ! ! ! ! ! ! ! ! ! ! ! ! ! ! ! ! ! ! ! ! $.$.uXuXiXiXpXpXaXaXsXsXdXdXdXdXfXfXfXfXgXgX, , S S z z ",
"p p p p j j - - hXhXjXjXkXkXlXlXzXzXxXxXcXcXvXvXbXbXnXnXmXmXMXMXNXNXBXBXVXVXCXCXZXZXAXAXSXSXDXDXFXFXGXGXHXHXJXJXKXKXKXKXLXLXLXLXPXPXLXLXIXIXcXcXUXUX    7 7 6 6 ",
"p p p p j j - - hXhXjXjXkXkXlXlXzXzXxXxXcXcXvXvXbXbXnXnXmXmXMXMXNXNXBXBXVXVXCXCXZXZXAXAXSXSXDXDXFXFXGXGXHXHXJXJXKXKXKXKXLXLXLXLXPXPXLXLXIXIXcXcXUXUX    7 7 6 6 ",
"A A e e e e Z Z o o S S S S S S o o , , l l c c f f f f a a z z 3 3 @ @ $ $                     x x y y + +                                 $ $ @ @ @ @ + + = = ",
"A A e e e e Z Z o o S S S S S S o o , , l l c c f f f f a a z z 3 3 @ @ $ $                     x x y y + +                                 $ $ @ @ @ @ + + = = "
};
