/* XPM */
static const char *sprite3[] = {
/* columns rows colors chars-per-pixel */
"40 40 99 2 ",
"   c #000001",
".  c #0A121C",
"X  c #191919",
"o  c #0C1724",
"O  c #0E1C2C",
"+  c #1F2020",
"@  c #282726",
"#  c #2D2927",
"$  c #2C2A2A",
"%  c #3C2F22",
"&  c #342E2B",
"*  c #3F3023",
"=  c #37312E",
"-  c #3A322D",
";  c #3D3533",
":  c #3D393D",
">  c #443426",
",  c #483727",
"<  c #42362C",
"1  c #493728",
"2  c #4D3A29",
"3  c #523E2C",
"4  c #4C3B33",
"5  c #403739",
"6  c #56412D",
"7  c #59432F",
"8  c #5D4631",
"9  c #5F493A",
"0  c #604732",
"q  c #644A33",
"w  c #684D35",
"e  c #644C3D",
"r  c #694A3B",
"t  c #353441",
"y  c #373A53",
"u  c #433E4A",
"i  c #4C424D",
"p  c #4C4C4D",
"a  c #5D4A45",
"s  c #5F4E4F",
"d  c #454156",
"f  c #46445A",
"g  c #49475F",
"h  c #514857",
"j  c #5D4F57",
"k  c #59505F",
"l  c #494760",
"z  c #4E4B63",
"x  c #43496C",
"c  c #53516C",
"v  c #4C557C",
"b  c #2D5684",
"n  c #2C5887",
"m  c #2C5989",
"M  c #3F5485",
"N  c #3B588D",
"B  c #2E5E92",
"V  c #325F97",
"C  c #3B5D94",
"Z  c #2E6096",
"A  c #2F639B",
"S  c #3A6097",
"D  c #33649D",
"F  c #3A6098",
"G  c #2F66A0",
"H  c #3067A2",
"J  c #346AA4",
"K  c #386EA8",
"L  c #3C72AB",
"P  c #455785",
"I  c #495681",
"U  c #43598A",
"Y  c #416B9B",
"T  c #4277AF",
"R  c #4478B0",
"E  c #497CB4",
"W  c #4F81B7",
"Q  c #5984B3",
"!  c #5284B9",
"~  c #5485BB",
"^  c #5587BC",
"/  c #5789BD",
"(  c #598ABE",
")  c #5F8FC3",
"_  c #6090C3",
"`  c #6493C6",
"'  c #6998CA",
"]  c #6D99C8",
"[  c #6E9CCD",
"{  c #709DCE",
"}  c #75A2D2",
"|  c #7DA9D8",
" . c #84AFDD",
".. c #86B1DF",
"X. c #88B2DF",
"o. c #88B2E0",
"O. c #8AB4E1",
"+. c #CED0D1",
"@. c gray95",
/* pixels */
"% * > > % % % % % % * % % % % % % % % * * * * * > > > > * * * * * * > > * * > > ",
"w w w w w w w w 7 3 2 > > 1 6 6 7 7 7 7 8 0 q w w w w w w w w w w w w w w w w w ",
"w q q q 0 8 8 q q 8 8 > % > 7 0 q q q 0 8 8 8 8 8 q w w w w w w q q q q q q q w ",
"* % % > > > , 2 3 6 7 > % 3 7 7 7 8 q q q q q 0 8 8 8 8 8 7 7 2 > > > > > > > w ",
"> > 2 w w w w w w w q > % 2 7 8 q q 0 8 8 7 3 2 2 3 3 2 1 1 1 1 2 2 3 8 8 q q w ",
"6 3 7 8 0 q q q q q 6 > > 7 w w w 8 6 3 2 2 3 7 7 8 8 q q w w w w w w w w w w w ",
"q 7 3 6 7 7 6 6 6 7 3 > > 6 8 8 7 3 3 6 8 q w w w w w w w w w w w w w w w w w w ",
"2 , , 3 q q q w w w 7 > > 2 1 2 3 3 3 3 6 6 7 7 7 7 7 7 7 7 8 8 8 q q q q q q q ",
"w q q q q q q q q q 3 > > 2 6 7 6 6 6 6 6 7 7 7 7 7 7 7 3 2 2 2 2 2 2 2 3 2 2 q ",
"7 6 7 7 7 7 8 7 8 8 3 > > 3 q w w w w q q q q q q q q q 8 6 6 6 3 3 3 6 6 3 3 q ",
"q 7 6 6 6 7 q q w q 7 > % 3 0 w w w w w q q q q q q q q q q q q w w w w w w w 8 ",
"w w w w w w w w w q 8 > % 6 6 w w w w w w w w w w w w w w w w w w w w w w w w 8 ",
"q q q q q q q q q 8 7 % % > > 7 q q q w w w q q q q q q 8 8 8 8 8 7 6 8 8 7 3 > ",
"% % % % % % % % % % % % > % % % % % % % % % % % % % % % % % % % % % * * % % % % ",
", > 1 1 1 1 2 3 3 3 3 2 q 2 2 3 3 6 7 8 8 8 0 0 q q q q q 8 8 7 7 8 8 8 q q > * ",
"> > > > > 2 2 3 3 3 6 7 8 0 q 0 q q q q q q q w w w w w w w w w w w w w w w 3 % ",
"> > > > > 1 1 1 2 2 3 7 0 q w w w w w q q q q q q q q q q q q 8 8 8 8 7 6 3 , % ",
"6 8 w w w w w w w w w w w w w w w w w q q 8 8 8 8 8 8 8 7 7 6 6 3 3 3 3 > * % % ",
"6 8 w w q q q q q q q q q q q q 7 7 3 2 2 2 3 7 q w w w w w w w 6 2 2 1 > 3 1 % ",
"> > > > 3 6 6 7 7 8 8 8 8 8 8 q q q q 0 8 8 q q w w w w w w w w w w w w w w q % ",
"% % % * * > 2 2 2 2 2 2 2 3 6 7 8 0 q q q q q q w w w w w w w w w w w q w w q % ",
"> 1 8 q w w w q q 8 8 7 3 3 2 2 2 2 2 3 8 q w w w q q q q q 7 7 6 6 3 3 2 2 , % ",
"> * * > 3 8 8 7 7 6 3 3 3 3 3 1 , > > > > , 2 3 3 3 6 7 8 8 7 6 3 3 2 2 2 1 1 % ",
"* * > > 2 2 3 3 3 3 3 2 2 2 2 1 1 1 1 1 1 1 1 1 1 2 3 7 0 q 0 q q q q w w w 3 > ",
"6 7 q q 0 8 8 8 8 8 8 8 8 q q q e s c v U U U v k e w w w w w w w w w w w q 2 > ",
"8 7 0 q q q 8 8 8 0 9 c U D H J L R L H J L J H H H H H F c e w w q q q w q 2 > ",
"6 3 3 3 3 2 1 4 P H H T ( ` ' ' / R ^ ) ~ L J H H H H H H H H D x 1 q q q 7 3 % ",
"* % % % % % M H K [ ..o. .} W H H J L J H H H H H H H H H H H H H H d * * % % % ",
"2 2 1 > > C H ( o.o.| ~ L A H H H H H H H H H H H Y H H H H H H H H H z 2 1 > > ",
"q q q w I H ) o.X.E H J +.X V H H H H H H H H H D @.. H H H H H L J H H a 8 8 8 ",
"q 0 8 w D H o...J H H H +   G H H H H H H A A A A p   H H H H H T { J H P q q w ",
"% % % i H ~ o.E H D H A . o m m n n n n n n n n n O O A m m m A J .._ H C w w 8 ",
", 1 2 h H !  .H m m m n b m m m n n n m m m m m m n n n n m m n Q O.( H S 8 3 1 ",
"w w w r H E ^ A m n n n n n n n n n n n n n n n n n n n n n m n ..O.[ H P 0 q q ",
"w w w w U H H H m n n n n n n n n n n n n n n n n n n n n n m m ] ..J H j w w q ",
"> * > 7 4 D H H Z m n n n n n n n n n n n n n n n n n n n m A A J L H x 7 3 > > ",
"w 8 8 4 = ; C H H H H A A A Z Z A A A A Z B B B B B Z A A H H H H N t $ $ 1 > 3 ",
"1 > > # $ $ $ y N D H H H H H H H H H H H H H H H H D D C M x : = = = = - q q w ",
"> % % * < & & & - - - 5 u d f l z g d u : ; ; = @ @ = = = = = = = = - < 3 3 3 8 ",
"7 q q w w w w w w w w w w w w w w w w w w w w 8 % % 8 8 8 8 8 8 7 7 7 7 7 7 7 8 "
};
