/* XPM */
static const char *sprite4[] = {
/* columns rows colors chars-per-pixel */
"40 40 100 2 ",
"   c #010101",
".  c #0A1622",
"X  c #101D29",
"o  c #292726",
"O  c #2D2927",
"+  c #332C25",
"@  c #3C2F22",
"#  c #332E2A",
"$  c #3F3023",
"%  c #36302B",
"&  c #3A322C",
"*  c #433325",
"=  c #483727",
"-  c #42362B",
";  c #493728",
":  c #44382D",
">  c #4C3A29",
",  c #523E2C",
"<  c #403730",
"1  c #443A31",
"2  c #4A3D31",
"3  c #3D4439",
"4  c #56412D",
"5  c #59432F",
"6  c #404337",
"7  c #534131",
"8  c #5D4631",
"9  c #524837",
"0  c #5E4A35",
"q  c #5C4E3E",
"w  c #5E523E",
"e  c #604731",
"r  c #644A33",
"t  c #684D35",
"y  c #645039",
"u  c #162C43",
"i  c #152E48",
"p  c #17324E",
"a  c #1A344F",
"s  c #384E5A",
"d  c #3F627B",
"f  c gray26",
"g  c #504B41",
"h  c #565047",
"j  c #56524A",
"k  c #5A554B",
"l  c #485356",
"z  c #49575C",
"x  c #4D585A",
"c  c #515553",
"v  c #555853",
"b  c #425A66",
"n  c #465F6D",
"m  c #436173",
"M  c #2C5887",
"N  c #2C5A8A",
"B  c #2E5E92",
"V  c #356284",
"C  c #3A6585",
"Z  c #36668D",
"A  c #386588",
"S  c #2E6096",
"D  c #2F639B",
"F  c #336693",
"G  c #31679B",
"H  c #31689E",
"J  c #2F66A0",
"K  c #3067A2",
"L  c #346AA5",
"P  c #3A6DA5",
"I  c #3C71AA",
"U  c #4075AD",
"Y  c #4877A9",
"T  c #4878AC",
"R  c #4679B1",
"E  c #4B7EB5",
"W  c #4F81B7",
"Q  c #5587BC",
"!  c #598ABF",
"~  c #5B8CC0",
"^  c #5C8DC1",
"/  c #6090C3",
"(  c #6695C8",
")  c #6998CA",
"_  c #72A0D0",
"`  c #76A2D3",
"'  c #79A6D5",
"]  c #7CA8D7",
"[  c #8D8D8D",
"{  c #B8B8B9",
"}  c #81ACDB",
"|  c #83AEDC",
" . c #84AFDD",
".. c #86B1DE",
"X. c #88B2DF",
"o. c #89B3E1",
"O. c #8AB4E1",
"+. c #DEDFE1",
"@. c #ECEDEF",
"#. c white",
/* pixels */
"@ $ * * @ @ @ @ @ @ $ @ @ @ @ @ @ @ @ $ $ $ $ $ * * * * $ $ $ $ $ $ * * $ $ * * ",
"t t t t t t t t 5 , > * * ; 4 4 5 5 5 5 8 e r t t t t t t t t t t t t t t t t t ",
"t r r e e 8 8 e e 8 8 = @ = 5 e e e e e 8 8 8 8 8 e t t t t t t r r r r r r e t ",
"$ @ @ * = = = > , 4 5 = @ , 5 5 5 8 e r r r e e 8 8 8 8 8 5 5 > * = = = = = = t ",
"= = > t t t t t t t r = @ > 5 8 r e e 8 8 5 , > > , , > ; ; ; ; > > , 8 8 e r t ",
"4 , 5 8 e e e e e e 4 * * 5 t t t 8 4 , > > , 5 5 8 8 e r t t t t t t t t t t t ",
"e 5 , 4 5 5 4 4 4 5 , * * 4 8 8 5 , , 4 8 r t t t t t t t t t t t t t t t t t t ",
"> = = , e r r t t t 5 * * > ; > , , , , 4 4 5 5 5 5 5 5 5 5 8 8 8 e e e r r r r ",
"t r r r r r r e e e , * * > 4 5 4 4 4 4 4 5 5 5 5 5 5 5 , > > > > > > > , > > r ",
"5 4 5 5 5 5 8 5 8 8 , * * , e t t v d F G G C j r r r r 8 4 4 4 , , , 4 4 , , e ",
"r 5 4 4 4 5 e r t e 5 = @ , e y C L E ~ _ ^ U K F q e e e r r r t t t t t t t 8 ",
"t t t t t t t t t e 8 * @ 4 9 G E ..o.o.] ! R K K K k t t t t t t t t t t t t 8 ",
"e e e e e e e r r 8 5 @ @ - G / o.O.o.} L K K K K K K e 8 8 8 8 8 5 4 8 8 5 , = ",
"@ @ @ @ @ @ @ @ @ @ @ @ * V W X.O.o.` I K K K K K K K F @ @ @ @ @ @ $ $ @ @ @ @ ",
"= = ; ; ; ; > , , , , > x I ' X.` E K K K K K K K K K K c 8 8 5 5 8 8 8 e e * $ ",
"= = = = = > > , , , 4 5 Z Q | ! K K K K K K K K K K K K Z t t t t t t t t t , @ ",
"* = = = = ; ; ; > > , g K Q ` K K K K K K K K K K K K K K q e 8 8 8 8 5 4 , = @ ",
"4 8 t t t t t t t t t n K / W @.X D K K K K K P +.. K K K b 4 4 , , , , * $ @ @ ",
"4 8 t t r r r e e e e C K ^ L #.f S K K K K K L #.o K K K C t t 4 > > ; = , ; @ ",
"* * * = , 4 4 5 5 8 8 G L R K {   J K K D D K J [   K K K Z t t t t t t t t e @ ",
"@ @ @ $ $ = > > > > > K K K K     S B N M N B D     K E R F t t t t t r t t e @ ",
"* ; 8 e t t t r e 8 8 K K K K i a N M M M M N N u p K ( ! F 5 5 4 4 , , > > = @ ",
"* $ $ = , 8 8 5 5 4 , G K K K B N M M M M M M N N D L  .) F 5 4 , , > > > ; ; @ ",
"$ $ = = > > , , , , , Z K K K N M M M M M M M M N N P o.( A e e r r r t t t , * ",
"4 5 e e e 8 8 8 8 8 8 z K K S M M M M M M M M M M N P } L m t t t t t t t r > * ",
"8 5 e e e e 8 8 8 e e e K K B N M M M M M M M M M N Y ( K w t t t r r r t r > * ",
"4 , , , , > ; ; ; > , 4 K K S N M M M M M M M M M N T U F 5 , > = ; e e r 5 , @ ",
"$ @ @ @ @ @ @ @ @ @ * * s K K N M M M M M M M M M B K K 3 @ $ $ * * * $ $ @ @ @ ",
"> > ; = = = ; , , , > > ; G K D N M M M M M M M N K K V ; 4 5 5 5 , , , > ; = = ",
"e r r t t t t t r r r t t k K K K B N M M N N D K K Z 0 t t t t t r e e e 8 8 8 ",
"r e 8 t t t t r r t t r 5 5 l H K K K K K K K K K V 8 t t t t t t t t t r r r t ",
"@ @ @ > ; ; ; ; ; > , 5 5 5 8 0 d K K K K K K V 6 = 8 e e t r r r e t t t t t 8 ",
"= ; > 4 5 5 5 5 5 5 5 5 5 5 5 8 8 8 q j j h e , * @ * * = , , , , , 5 8 8 5 , ; ",
"t t t t t t t t r e e 8 8 8 8 8 8 8 8 8 8 8 8 > * @ ; ; ; > , , 4 5 8 8 8 e e r ",
"t t t t t t t t t t t t t t t t t t t t t r t 4 * * e t r t t t t t t t t t t r ",
"* $ = 5 5 5 5 5 5 5 5 5 5 8 8 8 7 2 2 2 2 2 1 : + + 8 e e e e 8 8 8 8 8 5 , = = ",
"t 8 8 e r r r r r r r r e 8 2 < < < < < < < < & O O - : - > > , , , , > > ; = , ",
"; * * * ; ; ; ; ; ; ; > - & & & & % # # # # # O o o % 2 8 e t t t t t t t r r t ",
"* @ @ $ > > , , > > > ; = = * * - : 2 2 2 2 2 : + + > 4 4 4 4 4 4 4 4 4 4 , , 8 ",
"5 e r t t t t t t t t t t t t t t t t t t t t 8 @ @ 8 8 8 8 8 8 5 5 5 5 5 5 5 8 "
};
