/* XPM */
static const char *sprite5[] = {
/* columns rows colors chars-per-pixel */
"80 80 242 2 ",
"   c #684D35",
".  c #473627",
"X  c #483728",
"o  c #543F2D",
"O  c #59432F",
"+  c #634933",
"@  c #644A33",
"#  c #654B34",
"$  c #664C34",
"%  c #674C35",
"&  c #664B34",
"*  c #644B33",
"=  c #624932",
"-  c #614832",
";  c #463527",
":  c #463627",
">  c #4D3A29",
",  c #543F2C",
"<  c #59422F",
"1  c #5A432F",
"2  c #5B442F",
"3  c #5F4731",
"4  c #604731",
"5  c #624933",
"6  c #674C34",
"7  c #674D35",
"8  c #4A3828",
"9  c #4A3829",
"0  c #4B3929",
"q  c #4C3A29",
"w  c #4F3C2B",
"e  c #533E2C",
"r  c #57412E",
"t  c #5B4430",
"y  c #493728",
"u  c #5C4530",
"i  c #5D4530",
"p  c #5E4631",
"a  c #503C2B",
"s  c #4D3B2A",
"d  c #4E3B2A",
"f  c #4F3B2A",
"g  c #58422E",
"h  c #4D3A2A",
"j  c #604832",
"k  c #55402D",
"l  c #523E2C",
"z  c #56412D",
"x  c #513D2B",
"c  c #4F3C2A",
"v  c #56402D",
"b  c #634A33",
"n  c #57412F",
"m  c #523D2C",
"M  c #59422E",
"N  c #5C4430",
"B  c #604732",
"V  c #453526",
"C  c #42546B",
"Z  c #31649C",
"A  c #3067A2",
"S  c #31659D",
"D  c #45576E",
"F  c #664D37",
"G  c #3D5473",
"H  c #356BA5",
"J  c #3269A3",
"K  c #366CA6",
"L  c #43556C",
"P  c #5D4630",
"I  c #453426",
"U  c #504133",
"Y  c #5083B9",
"T  c #6796C8",
"R  c #6393C6",
"E  c #5385BA",
"W  c #376DA7",
"Q  c #4B4645",
"!  c #56412E",
"~  c #3E414A",
"^  c #6D9CCD",
"/  c #85B0DE",
"(  c #87B2DF",
")  c #85AFDD",
"_  c #7CA8D7",
"`  c #4B7EB5",
"'  c #445062",
"]  c #533F2C",
"[  c #584A42",
"{  c #7BA7D7",
"}  c #8AB4E1",
"|  c #83AEDC",
" . c #5284BA",
".. c #386EA8",
"X. c #5F4834",
"o. c #30669F",
"O. c #75A2D2",
"+. c #5F8FC3",
"@. c #3A6FA9",
"#. c #435E7C",
"$. c #565252",
"%. c #4679B1",
"&. c #88B2E0",
"*. c #5E8FC2",
"=. c #3B71AA",
"-. c #654C36",
";. c #553F2D",
":. c #483727",
">. c #483627",
",. c #355782",
"<. c #6494C7",
"1. c #3D72AB",
"2. c #DFE1E2",
"3. c #19232C",
"4. c #EDEDEE",
"5. c #0A121B",
"6. c #464446",
"7. c #493828",
"8. c #335F92",
"9. c #6695C8",
"0. c #4C7FB6",
"q. c #396FA8",
"w. c gainsboro",
"e. c #0A0B0B",
"r. c #3066A1",
"t. c gray82",
"y. c black",
"u. c #356CA6",
"i. c #5688BD",
"p. c #455870",
"a. c #385E8C",
"s. c #5485BB",
"d. c #3B70AA",
"f. c #020304",
"g. c #2F649C",
"h. c #2F639B",
"j. c #2F639A",
"k. c #030608",
"l. c #010304",
"z. c #6E9CCD",
"x. c #80ACDA",
"c. c #4D5867",
"v. c #485160",
"b. c #3269A4",
"n. c #30659F",
"m. c #142437",
"M. c #122030",
"N. c #2C5989",
"B. c #2C5887",
"V. c #2C5988",
"C. c #16283A",
"Z. c #132334",
"A. c #2E5E91",
"S. c #2F629A",
"D. c #89B3E1",
"F. c #59514F",
"G. c #634A35",
"H. c #2E5E92",
"J. c #2C5A8A",
"K. c #2C5786",
"L. c #2D5A8A",
"P. c #2D5B8C",
"I. c #3D71A7",
"U. c #88B2DF",
"Y. c #3C5C83",
"T. c #2D5C8D",
"R. c #4E7EB1",
"E. c #7EAAD9",
"W. c #5385BB",
"Q. c #3F5776",
"!. c #5584B6",
"~. c #4F81B7",
"^. c #4A505D",
"/. c #3067A1",
"(. c #4377AE",
"). c #615042",
"_. c #316399",
"`. c #3167A1",
"'. c #346BA5",
"]. c #565457",
"[. c #524337",
"{. c #2D5C8F",
"}. c #2D5D91",
"|. c #3066A0",
" X c #4D5765",
".X c #4B4647",
"XX c #2E5F93",
"oX c #2E6095",
"OX c #2F659E",
"+X c #4C525C",
"@X c #514135",
"#X c #31639B",
"$X c #504238",
"%X c #5A514D",
"&X c #475B73",
"*X c #435A78",
"=X c #674D36",
"-X c #644E3B",
";X c #5D5048",
":X c #644E3C",
">X c #4C3929",
",X c #5A4431",
"<X c #584330",
"1X c #554130",
"2X c #524030",
"3X c #4F3E30",
"4X c #4C3D30",
"5X c #4E3D30",
"6X c #4D3D30",
"7X c #4A3C2F",
"8X c #44382D",
"9X c #3B3028",
"0X c #513E2E",
"qX c #58422F",
"wX c #654B35",
"eX c #5C4634",
"rX c #554333",
"tX c #4F3F32",
"yX c #4B3D32",
"uX c #483C31",
"iX c #493C32",
"pX c #42372E",
"aX c #352E28",
"sX c #524133",
"dX c #644B35",
"fX c #594431",
"gX c #524031",
"hX c #4F3F31",
"jX c #483C30",
"kX c #473B31",
"lX c #4A3D32",
"zX c #44382E",
"xX c #362E28",
"cX c #5B4531",
"vX c #5F4833",
"bX c #584433",
"nX c #544232",
"mX c #514032",
"MX c #503F31",
"NX c #4C3D31",
"BX c #493A2D",
"VX c #3E3228",
/* pixels */
"                                            . . X X o o o o O O + + @ @ # # $ $                                                                                 ",
"                                            . . X X o o o o O O + + @ @ # # $ $                                                                                 ",
"    % % & & * * + + = = # # # # @ @ * * - - ; ; : : > > , , < < 1 1 2 2 3 3 3 3 4 4 4 4 3 3 4 4 - - 5 5 & &                         6 6 7 7     % % 6 6 6 6 $ $ ",
"    % % & & * * + + = = # # # # @ @ * * - - ; ; : : > > , , < < 1 1 2 2 3 3 3 3 4 4 4 4 3 3 4 4 - - 5 5 & &                         6 6 7 7     % % 6 6 6 6 $ $ ",
"X X . . 8 8 9 9 0 0 q q w w e e r r t t 2 2 ; ; y y 2 2 2 2 u u i i p p @ @ # # # # # # # # @ @ - - + + = = - - - - - - 3 3 p p a a s s d d f f d d d d d d d d ",
"X X . . 8 8 9 9 0 0 q q w w e e r r t t 2 2 ; ; y y 2 2 2 2 u u i i p p @ @ # # # # # # # # @ @ - - + + = = - - - - - - 3 3 p p a a s s d d f f d d d d d d d d ",
"o o g g % %                             - - ; ; h h g g 1 1 j j + + + + + + = = - - 4 4 1 1 k k l l z z z z e e x x a a f f d d d d s s c c v v t t i i 4 4 = = ",
"o o g g % %                             - - ; ; h h g g 1 1 j j + + + + + + = = - - 4 4 1 1 k k l l z z z z e e x x a a f f d d d d s s c c v v t t i i 4 4 = = ",
"b b - - - - b b # # & & $ $ 6 6 & & @ @ 1 1 ; ; l l * *             + + i i n n e e m m e e v v M M 1 1 N N p p B B - - @ @ & & 6 6                             ",
"b b - - - - b b # # & & $ $ 6 6 & & @ @ 1 1 ; ; l l * *             + + i i n n e e m m e e v v M M 1 1 N N p p B B - - @ @ & & 6 6                             ",
"b b = = j j p p N N 2 2 1 1 1 1 1 1 2 2 k k V V k k @ @ # # = = C C Z Z A A A A A A A A A A S S D D F F                                                         ",
"b b = = j j p p N N 2 2 1 1 1 1 1 1 2 2 k k V V k k @ @ # # = = C C Z Z A A A A A A A A A A S S D D F F                                                         ",
"3 3 B B - - - - - - - - = = @ @ $ $     i i V V v v g g G G A A A A H H J J H H K K A A A A A A A A A A A A L L - - = = @ @ # # # # # # & & $ $ % %             ",
"3 3 B B - - - - - - - - = = @ @ $ $     i i V V v v g g G G A A A A H H J J H H K K A A A A A A A A A A A A L L - - = = @ @ # # # # # # & & $ $ % %             ",
"# # # # & & $ $ 6 6 % %                 P P I I U U A A A A Y Y T T T T R R E E W W A A A A A A A A A A A A A A A A Q Q k k ! ! g g O O 2 2 N N u u i i N N u u ",
"# # # # & & $ $ 6 6 % %                 P P I I U U A A A A Y Y T T T T R R E E W W A A A A A A A A A A A A A A A A Q Q k k ! ! g g O O 2 2 N N u u i i N N u u ",
"5 5 = = - - - - 4 4 3 3 p p i i u u u u g g ~ ~ A A W W ^ ^ / / ( ( ) ) _ _ ` ` A A A A A A A A A A A A A A A A A A A A ' ' ! ! k k ] ] l l x x m m m m s s a a ",
"5 5 = = - - - - 4 4 3 3 p p i i u u u u g g ~ ~ A A W W ^ ^ / / ( ( ) ) _ _ ` ` A A A A A A A A A A A A A A A A A A A A ' ' ! ! k k ] ] l l x x m m m m s s a a ",
"B B 4 4 4 4 4 4 j j - - = = @ @ # #     [ [ A A A A { { } } } } | |  . .....A A A A A A A A A A A A A A A A A A A A A A A A X.X.- - - - b b # # 6 6 6 6 6 6 6 6 ",
"B B 4 4 4 4 4 4 j j - - = = @ @ # #     [ [ A A A A { { } } } } | |  . .....A A A A A A A A A A A A A A A A A A A A A A A A X.X.- - - - b b # # 6 6 6 6 6 6 6 6 ",
"                                        o.o.J J O.O.} } ( ( +.+.@.@.A A A A A A A A A A A A A A A A A A A A A A A A A A A A #.#.                                ",
"                                        o.o.J J O.O.} } ( ( +.+.@.@.A A A A A A A A A A A A A A A A A A A A A A A A A A A A #.#.                                ",
"                                    $.$.A A %.%.} } &.&.*.*.=.=.A A A A A A A A A A A A A A A A A A A A A A A A A A A A A A A A -.-.# # @ @ + + = = = = = = @ @ ",
"                                    $.$.A A %.%.} } &.&.*.*.=.=.A A A A A A A A A A A A A A A A A A A A A A A A A A A A A A A A -.-.# # @ @ + + = = = = = = @ @ ",
"7 7 $ $ p p M M ;.;.x x q q :.:.>.>.,.,.A A +.+.| | <.<.1.1.2.2.3.3.A A A A A A A A A A A A A A 4.4.5.5.A A A A A A A A A A A A 6.6.h h s s d d d d h h X X : : ",
"7 7 $ $ p p M M ;.;.x x q q :.:.>.>.,.,.A A +.+.| | <.<.1.1.2.2.3.3.A A A A A A A A A A A A A A 4.4.5.5.A A A A A A A A A A A A 6.6.h h s s d d d d h h X X : : ",
"q q 0 0 :.:.. . . . X X 7.7.0 0 a a 8.8.A A 9.9.0.0.q.q.A A w.w.e.e.r.r.A A A A A A A A A A A A t.t.y.y.A A A A A A u.u.i.i.A A p.p.- - - - = = = = + + , , . . ",
"q q 0 0 :.:.. . . . X X 7.7.0 0 a a 8.8.A A 9.9.0.0.q.q.A A w.w.e.e.r.r.A A A A A A A A A A A A t.t.y.y.A A A A A A u.u.i.i.A A p.p.- - - - = = = = + + , , . . ",
"= = & &                             a.a.A A s.s.d.d.A A A A y.y.f.f.g.g.h.h.h.h.j.j.j.j.j.j.h.h.k.k.l.l.o.o.A A A A z.z.x.x.A A c.c.                    - - :.:.",
"= = & &                             a.a.A A s.s.d.d.A A A A y.y.f.f.g.g.h.h.h.h.j.j.j.j.j.j.h.h.k.k.l.l.o.o.A A A A z.z.x.x.A A c.c.                    - - :.:.",
"= = p p i i i i i i u u u u u u i i v.v.A A K K b.b.A A n.n.m.m.M.M.N.N.B.B.B.B.B.B.V.V.V.V.B.B.C.C.Z.Z.A.A.S.S.A A D.D.D.D.A A F.F.                    = = >.>.",
"= = p p i i i i i i u u u u u u i i v.v.A A K K b.b.A A n.n.m.m.M.M.N.N.B.B.B.B.B.B.V.V.V.V.B.B.C.C.Z.Z.A.A.S.S.A A D.D.D.D.A A F.F.                    = = >.>.",
"$ $ * * b b 5 5 = = = = = = + + @ @ G.G.A A A A A A n.n.H.H.J.J.K.K.B.B.B.B.B.B.B.B.B.B.B.B.B.B.V.V.N.N.L.L.P.P.I.I.D.D.U.U.A A p p u u t t 1 1 O O g g o o ; ; ",
"$ $ * * b b 5 5 = = = = = = + + @ @ G.G.A A A A A A n.n.H.H.J.J.K.K.B.B.B.B.B.B.B.B.B.B.B.B.B.B.V.V.N.N.L.L.P.P.I.I.D.D.U.U.A A p p u u t t 1 1 O O g g o o ; ; ",
"                                        Y.Y.A A A A h.h.T.T.B.B.B.B.B.B.B.B.B.B.B.B.B.B.B.B.B.B.B.B.B.B.B.B.B.B.R.R.E.E.W.W.Q.Q.1 1 z z v v v v v v z z , , : : ",
"                                        Y.Y.A A A A h.h.T.T.B.B.B.B.B.B.B.B.B.B.B.B.B.B.B.B.B.B.B.B.B.B.B.B.B.B.R.R.E.E.W.W.Q.Q.1 1 z z v v v v v v z z , , : : ",
"7 7 6 6 $ $ # # * * @ @ @ @ + + + + 5 5 5 5 A A A A g.g.N.N.B.B.B.B.B.B.B.B.B.B.B.B.B.B.B.B.B.B.B.B.B.B.B.B.L.L.!.!.~.~.A A     @ @ z z e e e e e e l l f f ; ; ",
"7 7 6 6 $ $ # # * * @ @ @ @ + + + + 5 5 5 5 A A A A g.g.N.N.B.B.B.B.B.B.B.B.B.B.B.B.B.B.B.B.B.B.B.B.B.B.B.B.L.L.!.!.~.~.A A     @ @ z z e e e e e e l l f f ; ; ",
"p p p p u u 1 1 O O 1 1 2 2 t t i i p p B B ^.^.A A /./.N.N.B.B.B.B.B.B.B.B.B.B.B.B.B.B.B.B.B.B.B.B.B.B.B.B.V.V.(.(.A A ).).                            3 3 :.:.",
"p p p p u u 1 1 O O 1 1 2 2 t t i i p p B B ^.^.A A /./.N.N.B.B.B.B.B.B.B.B.B.B.B.B.B.B.B.B.B.B.B.B.B.B.B.B.V.V.(.(.A A ).).                            3 3 :.:.",
"! ! M M M M v v ] ] l l l l l l l l l l e e , , _._.A A h.h.N.N.B.B.B.B.B.B.B.B.B.B.B.B.B.B.B.B.B.B.B.B.L.L.`.`.'.'.].].                % % 6 6 $ $ & & 1 1 >.>.",
"! ! M M M M v v ] ] l l l l l l l l l l e e , , _._.A A h.h.N.N.B.B.B.B.B.B.B.B.B.B.B.B.B.B.B.B.B.B.B.B.L.L.`.`.'.'.].].                % % 6 6 $ $ & & 1 1 >.>.",
"# # # # $ $ 7 7         & & @ @ = = 4 4 p p 1 1 [.[.A A A A r.r.{.{.B.B.B.B.B.B.B.B.B.B.B.B.B.B.V.V.}.}.|.|.A A  X X@ @ @ @ + + 5 5 5 5 5 5 + + + + b b r r :.:.",
"# # # # $ $ 7 7         & & @ @ = = 4 4 p p 1 1 [.[.A A A A r.r.{.{.B.B.B.B.B.B.B.B.B.B.B.B.B.B.V.V.}.}.|.|.A A  X X@ @ @ @ + + 5 5 5 5 5 5 + + + + b b r r :.:.",
"- - - - - - - - B B 3 3 p p u u t t 1 1 ! ! k k ;.;..X.XA A A A A A g.g.XXXXT.T.T.T.oXoXh.h.OXOXA A A A A A +X+Xp p 4 4 3 3 p p i i u u 3 3 3 3 3 3 3 3 e e :.:.",
"- - - - - - - - B B 3 3 p p u u t t 1 1 ! ! k k ;.;..X.XA A A A A A g.g.XXXXT.T.T.T.oXoXh.h.OXOXA A A A A A +X+Xp p 4 4 3 3 p p i i u u 3 3 3 3 3 3 3 3 e e :.:.",
"P P p p p p p p p p 3 3 4 4 3 3 4 4 4 4 u u O O g g r r @X@X#X#XA A A A A A A A A A A A A A A A A A n.n.$X$XO O p p - - 3 3 j j - - @ @ * * # # # # & & , , y y ",
"P P p p p p p p p p 3 3 4 4 3 3 4 4 4 4 u u O O g g r r @X@X#X#XA A A A A A A A A A A A A A A A A A n.n.$X$XO O p p - - 3 3 j j - - @ @ * * # # # # & & , , y y ",
"                                                                %X%X&X&X`.`.A A A A A A A A *X*X=X=X                                                    e e y y ",
"                                                                %X%X&X&X`.`.A A A A A A A A *X*X=X=X                                                    e e y y ",
"@ @ # # $ $ 6 6 % % $ $ $ $ 6 6 % %                                         -X-X;X;X:X:X                                                                x x 7.7.",
"@ @ # # $ $ 6 6 % % $ $ $ $ 6 6 % %                                         -X-X;X;X:X:X                                                                x x 7.7.",
"p p P P i i i i P P 1 1 g g r r r r r r r r r r g g < < O O 1 1 1 1 2 2 2 2 t t u u p p - - @ @ * * & & 6 6 7 7     # # + + + + = = = = = = - - - - j j h h y y ",
"p p P P i i i i P P 1 1 g g r r r r r r r r r r g g < < O O 1 1 1 1 2 2 2 2 t t u u p p - - @ @ * * & & 6 6 7 7     # # + + + + = = = = = = - - - - j j h h y y ",
"5 5 = = 5 5 = = = = 5 5 5 5 + + @ @ * * # # # # # # * * @ @ = = - - - - j j - - - - 5 5 @ @ # # @ @ z z ! ! 2 2 + + b b - - 3 3 - - @ @ # # # # $ $ 6 6 , , a a ",
"5 5 = = 5 5 = = = = 5 5 5 5 + + @ @ * * # # # # # # * * @ @ = = - - - - j j - - - - 5 5 @ @ # # @ @ z z ! ! 2 2 + + b b - - 3 3 - - @ @ # # # # $ $ 6 6 , , a a ",
"X X . . : : 8 8 0 0 h h a a d d d d h h h h h h h h > > q q q q q q q q >X>X>X>XX X . . : : ; ; I I I I I I . . 9 9 d d f f a a f f q q 0 0 9 9 y y :.:.: : V V ",
"X X . . : : 8 8 0 0 h h a a d d d d h h h h h h h h > > q q q q q q q q >X>X>X>XX X . . : : ; ; I I I I I I . . 9 9 d d f f a a f f q q 0 0 9 9 y y :.:.: : V V ",
"y y . . V V ; ; : : X X c c w w a a m m , , r r 1 1 u u i i P P p p B B p p p p 1 1 o o k k o o :.:.I I d d ;.;.] ] l l m m x x h h . . ; ; ; ; I I V V . . >.>.",
"y y . . V V ; ; : : X X c c w w a a m m , , r r 1 1 u u i i P P p p B B p p p p 1 1 o o k k o o :.:.I I d d ;.;.] ] l l m m x x h h . . ; ; ; ; I I V V . . >.>.",
"- - @ @ # # # # * * * * * * # # & & 6 6                                                         O O . . + + $ $ 6 6                 6 6 $ $ & & - - i i t t t t ",
"- - @ @ # # # # * * * * * * # # & & 6 6                                                         O O . . + + $ $ 6 6                 6 6 $ $ & & - - i i t t t t ",
"b b - - - - B B 3 3 3 3 p p p p 3 3 j j * *                                                     1 1 . . & & $ $ @ @ + + = = = = 5 5 b b @ @ # # $ $ % %         ",
"b b - - - - B B 3 3 3 3 p p p p 3 3 j j * *                                                     1 1 . . & & $ $ @ @ + + = = = = 5 5 b b @ @ # # $ $ % %         ",
"x x c c c c d d d d h h h h d d a a l l z z 2 2 t t u u p p - - @ @ $ $                         1 1 . . i i i i t t @ @ # # * * @ @ = = 5 5         7 7 % % 6 6 ",
"x x c c c c d d d d h h h h d d a a l l z z 2 2 t t u u p p - - @ @ $ $                         1 1 . . i i i i t t @ @ # # * * @ @ = = 5 5         7 7 % % 6 6 ",
"                    7 7 6 6 & & @ @ = = - - B B 4 4 3 3 3 3 3 3 3 3 3 3 B B j j B B 4 4 3 3 B B v v ; ; . . V V ; ; >X>Xa a x x x x l l ! ! N N t t t t t t u u ",
"                    7 7 6 6 & & @ @ = = - - B B 4 4 3 3 3 3 3 3 3 3 3 3 B B j j B B 4 4 3 3 B B v v ; ; . . V V ; ; >X>Xa a x x x x l l ! ! N N t t t t t t u u ",
"                        6 6 & & @ @ + + = = - - - - j j p p ,X,X<X<X1X1X2X2X3X3X4X4X5X5X6X6X7X7X8X8X9X9X0X0XqXqXz z O O N N i i p p - - + + @ @ @ @ # # $ $ % % ",
"                        6 6 & & @ @ + + = = - - - - j j p p ,X,X<X<X1X1X2X2X3X3X4X4X5X5X6X6X7X7X8X8X9X9X0X0XqXqXz z O O N N i i p p - - + + @ @ @ @ # # $ $ % % ",
"6 6 % %                                             wXwXeXeXrXrXtXtXyXyXuXuXuXuXuXuXuXuXuXuXiXiXpXpXaXaXsXsXeXeXdXdX                                            ",
"6 6 % %                                             wXwXeXeXrXrXtXtXyXyXuXuXuXuXuXuXuXuXuXuXiXiXpXpXaXaXsXsXeXeXdXdX                                            ",
"u u t t 2 2 1 1 1 1 1 1 1 1 1 1 1 1 2 2 t t u u i i fXfXgXgXhXhX4X4XjXjXkXkXkXkXkXkXuXuXlXlXyXyXzXzXxXxX4X4XgXgXcXcXp p p p p p p p P P i i t t 2 2 1 1 O O 1 1 ",
"u u t t 2 2 1 1 1 1 1 1 1 1 1 1 1 1 2 2 t t u u i i fXfXgXgXhXhX4X4XjXjXkXkXkXkXkXkXuXuXlXlXyXyXzXzXxXxX4X4XgXgXcXcXp p p p p p p p P P i i t t 2 2 1 1 O O 1 1 ",
"                    7 7 6 6 6 6 6 6 6 6 6 6 6 6 $ $ $ $ & & vXvXbXbXnXnXmXmXMXMXNXNXNXNXhXhXmXmXBXBXVXVX1X1XcXcXg g g g g g g g g g M M O O < < ;.;., , ;.;.z z ",
"                    7 7 6 6 6 6 6 6 6 6 6 6 6 6 $ $ $ $ & & vXvXbXbXnXnXmXmXMXMXNXNXNXNXhXhXmXmXBXBXVXVX1X1XcXcXg g g g g g g g g g M M O O < < ;.;., , ;.;.z z ",
"p p p p j j - - = = + + @ @ # # $ $ 7 7                                         7 7 dXdXdXdXwXwXe e >.>.@ @                                             7 7 6 6 ",
"p p p p j j - - = = + + @ @ # # $ $ 7 7                                         7 7 dXdXdXdXwXwXe e >.>.@ @                                             7 7 6 6 ",
"! ! e e e e ] ] o o ;.;.;.;.;.;.o o , , l l c c f f f f a a z z 3 3 @ @ $ $                     x x y y + +                                 $ $ @ @ @ @ + + = = ",
"! ! e e e e ] ] o o ;.;.;.;.;.;.o o , , l l c c f f f f a a z z 3 3 @ @ $ $                     x x y y + +                                 $ $ @ @ @ @ + + = = "
};
