/* XPM */
static const char *sprite6[] = {
/* columns rows colors chars-per-pixel */
"80 80 98 2 ",
"   c #000001",
".  c gray6",
"X  c #050A11",
"o  c #080F18",
"O  c #08111A",
"+  c #111519",
"@  c #352D27",
"#  c #3C2F22",
"$  c #3C2F2B",
"%  c #3F3023",
"&  c #3C3234",
"*  c #3A3B3C",
"=  c #443426",
"-  c #483727",
";  c #44372D",
":  c #493728",
">  c #45392F",
",  c #4C3A29",
"<  c #523E2C",
"1  c #473A30",
"2  c #4D3E31",
"3  c #513F32",
"4  c #503E39",
"5  c #56412D",
"6  c #59432F",
"7  c #534132",
"8  c #5D4531",
"9  c #564438",
"0  c #5C4A3E",
"q  c #604732",
"w  c #644A33",
"e  c #684D35",
"r  c #644B39",
"t  c #3A4A6A",
"y  c #385575",
"u  c #39517B",
"i  c #434343",
"p  c #4D4749",
"a  c #524642",
"s  c #5D4C43",
"d  c #53494A",
"f  c #584C49",
"g  c #4C4852",
"h  c #544D54",
"j  c #535052",
"k  c #604D42",
"l  c #605045",
"z  c #474C62",
"x  c #4D4E60",
"c  c #4A5067",
"v  c #425376",
"b  c #425479",
"n  c #2C5887",
"m  c #2D5A8B",
"M  c #3B5581",
"N  c #3C5885",
"B  c #2E5E92",
"V  c #355D92",
"C  c #315F99",
"Z  c #2E6196",
"A  c #2F639B",
"S  c #336097",
"D  c #32639C",
"F  c #3067A2",
"G  c #356BA5",
"H  c #386EA7",
"J  c #396FA8",
"K  c #3B71AA",
"L  c #3B70A9",
"P  c #3C71AA",
"I  c #3C72AB",
"U  c #3E73AC",
"Y  c #4276AF",
"T  c #467AB1",
"R  c #487BB3",
"E  c #497DB3",
"W  c #4B7EB5",
"Q  c #4F82B8",
"!  c #5284B9",
"~  c #598ABF",
"^  c #5C8DC1",
"/  c #6695C7",
"(  c #6695C8",
")  c #6897C9",
"_  c #6B99CB",
"`  c #6D9BCC",
"'  c #719ECF",
"]  c #75A2D2",
"[  c #77A3D2",
"{  c #80ABDA",
"}  c #83AEDC",
"|  c #84AFDD",
" . c #86B1DF",
".. c #88B2E0",
"X. c #89B3E1",
"o. c #8AB4E1",
"O. c #D9DADC",
"+. c #F1F1F1",
/* pixels */
"# # % % = = = = # # # # # # # # # # # # % % # # # # # # # # # # # # # # # # % % % % % % % % % % = = = = = = = = % % % % % % % % % % % % = = % % % % % % = = = = ",
"# # % % = = = = # # # # # # # # # # # # % % # # # # # # # # # # # # # # # # % % % % % % % % % % = = = = = = = = % % % # % % % % % % % % = = = = % % % % = = = = ",
"e e e e e e e e e e e e e e e e 6 6 < < , , = = = = : : 5 5 5 5 5 5 8 8 9 9 a a d d d d f f s s r r e e e e e e e e e e e e e e e e e e e e e e e e e e e e e e ",
"e e e e e e e e e e e e e e e e 6 6 < < , , = = = = : : 5 5 5 5 5 5 8 8 9 9 a a d d d d f f s s r r e e e e e e e e e e e e e e e e e e e e e e e e e e e e e e ",
"e e w w w w w w q q 8 8 8 8 w w w 8 8 8 8 8 - - & & t t S S F F F F F F G G F F F F F F F F F F F F D D V V b b h h e e e e e e w w w w w w w w w w w w w w e e ",
"e e w w w w w w q q 8 8 8 8 w w w w 8 8 8 8 - - & & t t S S F F F F F F G G F F F F F F F F F F F F D D V V b b h h e e e e e e w w w w w w w w w w w w w w e e ",
"% % # # # # = = - - - - - - , , < < 5 5 8 8 y y F F F F H H ` ` ] ] ' ' R R F F F F F F F F F F F F F F F F F F F F S S g g , , = = - - - - - - - - - - - - e e ",
"% % # # # # = = - - - - - - , , < < 5 5 8 8 y y F F F F H H ` ` ] ] ' ' R R F F F F F F F F F F F F F F F F F F F F S S g g , , = = - - - - - - - - - - - - e e ",
"- - - - , , e e e e e e e e e e e e l l S S L L ) ) } } ....} } ~ ~ J J F F F F F F F F F F F F F F F F F F F F F F F F F F u u , , , , < < 8 8 8 8 w w w w e e ",
"- - - - , , e e e e e e e e e e e e l l S S J J ) ) } } ....} } ~ ~ J J F F F F F F F F F F F F F F F F F F F F F F F F F F u u , , , , < < 8 8 8 8 w w w w e e ",
"5 5 < < 5 5 8 8 q q w q w w w w j j F F ^ ^ o.o.o.o.} } E E A A F F F F F F F F F F F F F F F F F F D D F F F F F F F F F F F F V V r r e e e e e e e e e e e e ",
"5 5 < < 5 5 8 8 q q w w w w w w j j F F ^ ^ o.o.o.o.} } E E A A F F F F F F F F F F F F F F F F F F D D F F F F F F F F F F F F V V r r e e e e e e e e e e e e ",
"w w 5 5 < < 5 5 5 5 5 5 5 5 p p F F ( ( o.o.o.o._ _ F F O.O.. . F F F F F F F F F F F F F F F F F F +.+.+ + F F F F F F F F F F F F V V r r e e e e e e e e e e ",
"w w 5 5 < < 5 5 5 5 5 5 5 5 p p F F ( ( o.o.o.o._ _ F F O.O.. . F F F F F F F F F F F F F F F F F F +.+.+ + F F F F F F F F F F F F V V r r e e e e e e e e e e ",
", , - - - - < < w w w w r r F F F F ....| | L L F F F F * *     F F F F F F F F F F F F F F F F F F i i     F F F F F F F F F F F F F F v v w w w w w w w w w w ",
", , - - - - < < w w w w r r F F F F ....| | L L F F F F * *     F F F F F F F F F F F F F F F F F F i i     F F F F F F F F F F F F F F v v w w w w w w w w w w ",
"e e w w w w w w w w w w x x F F L L  . .P P F F F F F F o o o o F F A A A A F F F F F F F F F F F F X X O O F F F F F F F F F F Q Q U U C C , , < < , , , , w w ",
"e e w w w w w w w w w w x x F F L L  . .P P F F F F F F o o o o F F A A A A F F F F F F F F F F F F X X O O F F F F F F F F F F Q Q U U C C , , < < , , , , w w ",
"6 6 5 5 5 5 5 5 6 6 6 6 z z F F F F F F F F F F A A A A B B n n n n n n n n n n m m B B Z Z A A A A A A Z Z B B A A F F A A F F { { ! ! S S 3 3 5 5 < < < < w w ",
"6 6 5 5 5 5 5 5 6 6 6 6 z z F F F F F F F F F F A A A A B B n n n n n n n n n n m m B B Z Z A A A A A A Z Z B B A A F F A A F F { { ! ! S S 3 3 5 5 < < < < w w ",
"w w 6 6 5 5 5 5 5 5 5 5 h h F F F F F F F F A A m m n n n n n n n n n n n n n n n n n n n n n n n n n n n n m m m m Z Z A A / / | | Y Y C C r r e e e e e e 8 8 ",
"w w 6 6 5 5 5 5 5 5 5 5 h h F F F F F F F F A A m m n n n n n n n n n n n n n n n n n n n n n n n n n n n n m m m n Z Z A A / / | | Y Y C C r r e e e e e e 8 8 ",
"e e e e e e e e e e e e e e V V F F F F F F n n n n n n n n n n n n n n n n n n n n n n n n n n n n n n n n n n n n n n A A ] ] ....E E N N e e e e e e e e 8 8 ",
"e e e e e e e e e e e e e e V V F F F F F F n n n n n n n n n n n n n n n n n n n n n n n n n n n n n n n n n n n n n n A A ] ] ....E E N N e e e e e e e e 8 8 ",
"w w w w w w w w w w w w w w r r D D F F F F B B n n n n n n n n n n n n n n n n n n n n n n n n n n n n n n n n n n n n A A P P T T S S 4 4 8 8 8 8 5 5 < < - - ",
"w w w w w w w w w w w w w w r r D D F F F F B B n n n n n n n n n n n n n n n n n n n n n n n n n n n n n n n n n n n n A A P P T T S S 4 4 8 8 8 8 5 5 < < - - ",
"# # # # # # # # # # # # # # # # $ $ F F F F F F m m n n n n n n n n n n n n n n n n n n n n n n n n n n n n n n n n m m A A F F C C & & % % % % # # # # # # # # ",
"# # # # # # # # # # # # # # # # $ $ F F F F F F m m n n n n n n n n n n n n n n n n n n n n n n n n n n n n n n n n m m A A F F C C & & % % % % # # # # # # # # ",
"- - - - : : : : : : : : , , < < < < < < V V F F F F A A Z Z m m n n n n n n n n n n n n n n n n n n n n n n m m A A F F F F M M 9 9 8 8 8 8 8 8 w w w w = = % % ",
"- - - - : : : : : : : : , , < < < < < < V V F F F F A A Z Z m m n n n n n n n n n n n n n n n n n n n n n n m m A A F F F F M M 9 9 8 8 8 8 8 8 w w w w = = % % ",
"- - - - - - = = = - , , , , < < < < < < 5 5 g g D D F F F F F F F F F F F F F F A A A A Z Z Z Z A A A A F F F F D D v v k k e e e e e e e e e e e e e e < < # # ",
"- - - - - - = = = - , , , , < < < < < < 5 5 g g D D F F F F F F F F F F F F F F A A A A Z Z Z Z A A A A F F F F D D v v k k e e e e e e e e e e e e e e < < # # ",
"= = = = - - - - - - : : : : : : , , , , < < 5 5 q q f f b b D D F F F F F F F F F F F F F F F F F F V V c c s s w w w w w w 8 8 8 8 8 8 8 8 5 5 5 5 < < - - # # ",
"= = = = - - - - - - : : : : : : , , , , < < 5 5 q q f f b b D D F F F F F F F F F F F F F F F F F F V V c c s s w w w w w w 8 8 8 8 8 8 8 8 5 5 5 5 < < - - # # ",
"5 5 8 8 e e e e e e e e e e e e e e e e e e e e e e e e e e e e e e r r r r s s 0 0 8 8 8 8 8 8 8 8 8 8 8 8 8 8 5 5 5 5 5 5 5 5 < < < < < < < < = = % % # # # # ",
"5 5 8 8 e e e e e e e e e e e e e e e e e e e e e e e e e e e e e e r r r r s s 0 0 8 8 8 8 8 8 8 8 8 8 8 8 8 8 5 5 5 5 5 5 5 5 < < < < < < < < = = % % # # # # ",
"5 5 8 8 e e e e w w w w w w w w w w w w w w w w w w w w w w w w 6 6 5 5 < < , , , , , , < < 5 5 w w e e e e e e e e e e e e e e 5 5 , , , , : : - - < < : : # # ",
"5 5 8 8 e e e e w w w w w w w w w w w w w w w w w w w w w w w w 6 6 5 5 < < , , , , , , < < 5 5 w w e e e e e e e e e e e e e e 5 5 , , , , : : - - < < : : # # ",
"= = = = = = - - < < 5 5 5 5 5 5 5 5 8 8 8 8 8 8 8 8 8 8 8 8 w w w w w w w w q q 8 8 8 8 w w w w e e e e e e e e e e e e e e e e e e e e e e e e e e e e w w # # ",
"= = = = = = - - < < 5 5 5 5 5 5 5 5 8 8 8 8 8 8 8 8 8 8 8 8 w w w w w w w w 8 q 8 8 8 8 w w w w e e e e e e e e e e e e e e e e e e e e e e e e e e e e w w # # ",
"# # # # # # % % % % - - , , , , , , , , , , , , , , < < 5 5 6 6 8 8 q q w w w w w w w w w w w w e e e e e e e e e e e e e e e e e e e e e e w w e e e e w w # # ",
"# # # # # # % % % % - - , , , , , , , , , , , , , , < < 5 5 6 6 8 8 q q w w w w w w w w w w w w e e e e e e e e e e e e e e e e e e e e e e w w e e e e w w # # ",
"= = : : 8 8 w w e e e e e e w w w w 8 8 8 8 5 5 < < < < , , , , , , , , < < < < 8 8 w w e e e e e e w w e w w w w w w w 6 6 5 5 5 5 5 5 < < < < , , , , - - # # ",
"= = : : 8 8 w w e e e e e e w w w w 8 8 8 8 5 5 < < < < , , , , , : , , , , < < 8 8 w w e e e e e e w w w w w w w w w w 6 6 5 5 5 5 5 5 < < < < , , , , - - # # ",
"= = % % % % - - < < 8 8 8 8 5 5 5 5 5 5 < < < < < < < < < < : : - - - - - - = = = = - - , , < < < < < < 5 5 5 5 8 8 8 8 5 5 5 5 < < < < , , , , , , : : : : # # ",
"= = % % % % - - < < 8 8 8 8 5 5 5 5 5 5 < < < < < < < < < < : : - - - - - - = = = = - - , , < < < < < < 5 5 5 5 8 8 8 8 5 5 5 5 < < < < , , , , , , : : : : # # ",
"% % % % - - - - , , , , < < < < < < < < < < , , , , , , , , : : : : : : , : : : : : : : : : : : : : , , < < 6 6 q q w w q q w w w w w w w w e e e e e e < < = = ",
"% % % % - - - - , , < , < < < < < < < < < < , , , , , , , , : : : : : : , : : : : : : : : : : : : : , , < < 6 5 8 q w w q q w w w w w w w w e e e e e e < < = = ",
"5 5 6 6 w w w q 8 8 8 8 8 8 8 8 8 8 8 8 8 8 8 8 8 8 8 8 w w w w w w e e e e e e e e e e e e e e e e e e e e e e e e e e e e e e e e e e e e e e e e w w , , = = ",
"5 5 6 6 w w w w q 8 8 8 8 8 8 8 8 8 8 8 8 8 8 8 8 8 8 8 w w w w w w e e e e e e e e e e e e e e e e e e e e e e e e e e e e e e e e e e e e e e e e w w , , = = ",
"8 8 5 5 q q w w w w w w 8 8 8 8 8 8 q q w w w w w w w w w w w w w w w w w w w w w w w w w w e e e e e e e e e e e e e e e e e e e e w w w w w w e e w w , , = = ",
"8 8 5 5 q q w w w w w w 8 8 8 8 8 8 q q w w w w w w w w w w w w w w w w w w w w w w w w w w e e e e e e e e e e e e e e e e e e e e w w w w w w e e w w , , = = ",
"5 5 < < < < < < < < , , : : : : : : , , < < 5 5 5 5 5 5 5 5 5 5 5 5 5 5 < < < < < < < < 5 5 5 5 5 5 5 5 w w w w w w 5 5 < < , , - - : : w w w w w w 5 5 < < # # ",
"5 5 < < < < < < < < , , : : : : : : , , < < 5 5 5 5 5 5 5 5 5 5 5 5 5 5 < < < < < < < < 5 5 5 5 5 5 5 5 w w w w w w 5 5 < < , , - - : : w w w w w w 5 5 < < # # ",
"% % # # # # # # # # # # % % % % # # # # = = = = % % % % % % % % # # # # % % # # # # # # # # # # # # # # % % = = = = # # % % % % % % = = = = % % % % # # # # # # ",
"% % # # # # # # # # # # # % % % # # # # = = = = % % % % % % % % # # # # % % # # # # # # # # # # # # # # % % = = = = # # % % % % % % = = = = % % % % # # # # # # ",
", , , , : : - - - - - - : : < < < < < < , , , , : : - - = = % % # # # # = = : : , , , , = = # # # # # # # # = = : : 5 5 5 5 6 6 5 5 < < < < < < , , : : - - - - ",
", , , , : : - - - - - - : : < < < < < < , , , , : : - - = = % % # # # # = = , : , , , , = = # # # # # # # # = = : : 5 5 5 5 6 6 5 5 < < < < < < , , : : - - - - ",
"w w w w w w e e e e e e e e e e w w w w w w e e e e e e w w e e e e e e e e e e e e e e 5 5 : : = = = = 5 5 w w e e e e e e e e e e w w w w w w w w 8 8 8 8 8 8 ",
"w w w w w w e e e e e e e e e e w w w w w w e e e e e e w w e e e e e e e e e e e e e e 5 5 : : = = = = 5 5 w q e e e e e e e e e e w w w w w w w w 8 8 8 8 8 8 ",
"w w q q 8 8 e e e e e e e e w w w w e e e e e e 5 5 5 5 5 5 6 6 8 8 w w e e e e e e e e w w : : - - - - 8 8 e e e e e e e e e e e e e e e e e e w w w w w w e e ",
"w w q q 8 8 e e e e e e e e w w w w e e e e e e 5 5 5 5 5 5 6 6 8 8 w w e e e e e e e e w w : : - - - - 8 8 e e e e e e e e e e e e e e e e e e w w w w w w e e ",
"# # # # # # , , : : : : : : : : : : , , < < 6 6 5 5 5 5 8 8 8 8 w w e e e e e e e e e e e e , , = = - - 8 8 w w w w e e w w w w w w w w e e e e e e e e e e 8 8 ",
"# # # # # # , , : : : : : : : : : : , , < < 6 6 5 5 5 5 8 8 8 8 w w e e e e e e e e e e e e , , = = - - 8 8 w w w w e e w w w w w w w w e e e e e e e e e e 8 8 ",
"- - : : , , 5 5 6 6 6 6 5 5 6 6 5 5 5 5 5 5 5 5 5 5 6 6 6 6 8 8 8 8 8 8 w w w w q q w w w w < < = = # # = = = = - - < < < < < < < < < < 6 6 8 8 8 8 6 6 < < : : ",
"- - : : , , 5 5 6 6 6 6 5 5 6 6 5 5 5 5 5 5 5 5 5 5 6 6 6 6 8 8 8 8 8 8 w w w w q q w w w w < < = = # # = = = = - - < < < < < < < < < < 6 6 8 8 8 8 6 6 < < : : ",
"e e e e e e e e e e e e e e e e w w w w w w q q 8 8 8 8 8 8 8 8 8 8 8 8 8 8 8 8 8 8 8 8 8 8 , , = = # # : : : : : - , , < < < < 5 5 5 5 8 8 8 8 8 8 q q w w w w ",
"e e e e e e e e e e e e e e e e w w w w w w w 8 8 8 8 8 8 8 8 8 8 8 8 8 8 8 8 8 8 8 8 8 8 8 , , = = # # : : : : : : , , < < < < 5 5 5 5 8 8 8 8 q q q q w w w w ",
"e e e e e e e e e e e e e e e e e e e e e e e e w w 8 8 7 7 7 7 7 7 7 7 7 7 7 7 7 7 7 7 7 7 ; ; @ @ @ @ 7 7 8 8 w w e e e e e e e e e e e e e e e e e e e e w w ",
"e e e e e e e e e e e e e e e e e e e e e e e e w w 8 8 7 7 7 7 7 7 7 7 7 7 7 7 7 7 7 7 7 7 ; ; @ @ @ @ 7 7 8 8 w w e e e e e e e e e e e e e e e e e e e e w w ",
"= = % % - - 5 5 5 5 5 5 5 5 5 5 5 5 5 5 5 5 5 5 > > > > > > 1 1 1 1 2 2 2 2 2 2 2 2 2 2 2 2 ; ; @ @ @ @ 2 2 2 2 7 7 8 8 q q 8 8 8 8 8 8 8 8 8 8 5 5 < < - - - - ",
"= = % % - - 5 5 5 5 5 5 5 5 5 5 5 5 5 5 5 5 5 5 > > > > > > 1 1 1 1 2 2 2 2 2 2 2 2 2 2 2 2 ; ; @ @ @ @ 2 2 2 2 7 7 8 8 q q 8 8 8 8 8 8 8 8 8 8 5 5 < < - - - - ",
"e e 8 8 8 8 w w w w w w w w w w w w w w w w w w w w w w 8 8 7 7 2 2 2 2 7 7 3 3 3 3 7 7 7 7 , , @ @ @ @ < < < < < < < < < < < < < < < < < < , , , , : : - - < < ",
"e e 8 8 8 8 w w w w w w w w w w w w w w w w w w w w w w 8 8 7 7 2 2 2 2 7 7 3 3 7 3 7 7 7 7 , , @ @ @ @ < < < < < < < < < < < < < < < < < < , , , , , : - - < < ",
": : = = = = = = : : : : : : : : : : : : : : , , , , < < 5 5 5 5 5 5 < < < < , , , , : : : : - - # # # # < < w w e e e e e e e e e e e e e e e e e e e e w w e e ",
": : = = = = = = : : : : : : : : : : : : : : , , , , < < 5 5 5 5 5 5 < < < < , , , , : : : : - - # # # # < < w w e e e e e e e e e e e e e e e e e e e e w w e e ",
"= = # # # # % % , , , , < < < < , , , , , , : : - - - - - - : : 5 5 8 8 w w e e e e e e e e 5 5 # # # # 5 5 5 5 5 5 5 5 5 5 5 5 5 5 5 5 5 5 5 5 5 5 < < < < 8 8 ",
"= = # # # # % % , , , , < < < < , , , , , , : : - - - - - - : : 5 5 8 8 w w e e e e e e e e 5 5 # # # # 5 5 5 5 5 5 5 5 5 5 5 5 5 5 5 5 5 5 5 5 5 5 < < < < 8 8 ",
"5 5 w w w w e e e e e e e e e e e e e e e e e e e e e e e e e e e e e e e e e e e e e e e e q q # # # # 8 8 8 8 8 8 8 8 8 8 8 8 6 6 5 5 5 6 6 5 5 5 5 5 6 6 8 8 ",
"5 5 w w w w e e e e e e e e e e e e e e e e e e e e e e e e e e e e e e e e e e e e e e e e q q # # # # 8 8 8 8 8 8 8 8 8 8 8 8 6 6 5 5 5 5 6 5 5 5 5 5 6 6 8 8 "
};
