/* XPM */
static const char *sprite_p6[] = {
/* columns rows colors chars-per-pixel */
"80 80 129 2 ",
"   c #000001",
".  c gray6",
"X  c #1B140E",
"o  c #050A11",
"O  c #080F18",
"+  c #08111A",
"@  c #111519",
"#  c #241A12",
"$  c #2A1F14",
"%  c #2E2116",
"&  c #27221E",
"*  c #2B241D",
"=  c #312417",
"-  c #34261A",
";  c #36281C",
":  c #3B2C1E",
">  c #2B2520",
",  c #362721",
"<  c #342A22",
"1  c #3C2E22",
"2  c #342A2C",
"3  c #3F3124",
"4  c #38302E",
"5  c #312F34",
"6  c #3B3434",
"7  c #323039",
"8  c #3A3B3C",
"9  c #402F1F",
"0  c #453117",
"q  c #46331C",
"w  c #4A361D",
"e  c #412F21",
"r  c #443324",
"t  c #493626",
"y  c #4C3927",
"u  c #40342E",
"i  c #493728",
"p  c #4D3A29",
"a  c #523D2B",
"s  c #483734",
"d  c #4E3E30",
"f  c #513F32",
"g  c #5A411E",
"h  c #64481C",
"j  c #6D4F1C",
"k  c #70521E",
"l  c #7B571E",
"z  c #7E5B1F",
"x  c #56412D",
"c  c #5A432E",
"v  c #4E403B",
"b  c #534036",
"n  c #5E4630",
"m  c #57473D",
"M  c #654B25",
"N  c #60472F",
"B  c #6C5122",
"V  c #6F542A",
"C  c #604731",
"Z  c #644A33",
"A  c #684D35",
"S  c #654B38",
"D  c #7C6134",
"F  c #384969",
"G  c #3B4F76",
"H  c #3B5375",
"J  c #39517B",
"K  c #434343",
"L  c #4D4749",
"P  c #4E4A52",
"I  c #564E53",
"U  c #535052",
"Y  c #605045",
"T  c #454B63",
"R  c #4D4E60",
"E  c #425376",
"W  c #88631E",
"Q  c #B17F1C",
"!  c #815F23",
"~  c #836124",
"^  c #9D752C",
"/  c #927036",
"(  c #9D7834",
")  c #A77F33",
"_  c #836641",
"`  c #B48C45",
"'  c #A88852",
"]  c #2C5887",
"[  c #2D5A8B",
"{  c #3B5682",
"}  c #32598E",
"|  c #2E5E92",
" . c #355D93",
".. c #315F98",
"X. c #2E6196",
"o. c #2F639B",
"O. c #336097",
"+. c #32639C",
"@. c #3067A2",
"#. c #356BA5",
"$. c #386EA7",
"%. c #396FA8",
"&. c #3C72AB",
"*. c #3E73AC",
"=. c #3B71AA",
"-. c #4276AF",
";. c #467AB1",
":. c #487BB3",
">. c #497DB3",
",. c #4B7EB5",
"<. c #4F82B8",
"1. c #5284B9",
"2. c #598ABF",
"3. c #5C8DC1",
"4. c #6695C7",
"5. c #6695C8",
"6. c #6897C9",
"7. c #6B99CB",
"8. c #6D9BCC",
"9. c #719ECF",
"0. c #76A3D2",
"q. c #80ABDA",
"w. c #83AEDC",
"e. c #84AFDD",
"r. c #86B1DF",
"t. c #89B3E1",
"y. c #8AB4E1",
"u. c #D9DADC",
"i. c #F1F1F1",
/* pixels */
"1 1 3 3 r r r r 1 1 1 1 1 1 1 1 1 1 1 1 3 3 1 1 1 1 1 1 1 1 1 1 1 1 1 1 1 1 1 1 1 1 1 1 1 1 1 1 r r r r r r r r 3 3 3 3 3 3 3 3 3 3 3 3 r r 3 3 3 3 3 3 r r r r ",
"1 1 3 3 r r r r 1 1 1 1 1 1 1 1 1 1 1 1 3 3 1 1 1 1 1 1 1 1 1 1 1 1 1 1 1 1 1 1 1 1 1 1 1 1 1 1 r r r r r r r r 3 3 3 3 3 3 3 3 3 3 3 3 r r 3 r 3 3 3 3 r r r r ",
"A A A A A A A A A A A A A A A A c c a a p p r r r r i i x x p y - - - - < < 5 5 5 5 7 7 5 5 2 2 - - a a A A A A A A A A A A A A A A A A A A A A A A A A A A A A ",
"A A A A A A A A A A A A A A A A c c a a p p r r r r i i x x p y - - - - < < 5 5 5 5 7 7 5 5 2 2 - - a a A A A A A A A A A A A A A A A A A A A A A A A A A A A A ",
"A A Z Z Z Z Z Z C C n n n n Z Z n n n n n n t t 6 6 F F ....@.@.@.@.@.@.#.#.@.@.@.@.@.@.@.@.@.@.@.@.+.+.} } H H I I A A A A A A Z Z Z Z Z Z Z Z Z Z Z Z Z Z A A ",
"A A Z Z Z Z Z Z C C n n n n Z Z Z Z n n n n t t 6 6 F F ....@.@.@.@.@.@.#.#.@.@.@.@.@.@.@.@.@.@.@.@.+.+.} } H H I I A A A A A A Z Z Z Z Z Z Z Z Z Z Z Z Z Z A A ",
"3 3 1 1 1 1 r r t t t t i i p p a a x x n n H H @.@.@.@.$.$.8.8.0.0.9.9.:.:.@.@.@.@.@.@.@.@.@.@.@.@.@.@.@.@.@.@.@.@.O.O.P P p p r r t t t t t t t t t t t t A A ",
"3 3 1 1 1 1 r r t t t t i i p p a a x x n n H H @.@.@.@.$.$.8.8.0.0.9.9.:.:.@.@.@.@.@.@.@.@.@.@.@.@.@.@.@.@.@.@.@.@.O.O.P P p p r r t t t t t t t t t t t t A A ",
"t t t t p p A A A A A A A A A A A A Y Y O.O.=.=.6.6.w.w.t.t.w.w.2.2.%.%.@.@.@.@.@.@.@.@.@.@.@.@.@.@.@.@.@.@.@.@.@.@.@.@.@.@.J J p p p p a a n n n n Z Z Z Z A A ",
"t t t t p p A A A A A A A A A A A A Y Y O.O.%.%.6.6.w.w.t.t.w.w.2.2.%.%.@.@.@.@.@.@.@.@.@.@.@.@.@.@.@.@.@.@.@.@.@.@.@.@.@.@.J J p p p p a a n n n n Z Z Z Z A A ",
"x x a a x x n n C C Z Z Z Z Z Z U U @.@.3.3.y.y.y.y.w.w.>.>.o.o.@.@.@.@.@.@.@.@.@.@.@.@.@.@.@.@.@.@.+.+.@.@.@.@.@.@.@.@.@.@.@.@. . .S S A A A A A A A A A A A A ",
"x x a a x x n n C C Z Z Z Z Z Z U U @.@.3.3.y.y.y.y.w.w.>.>.o.o.@.@.@.@.@.@.@.@.@.@.@.@.@.@.@.@.@.@.+.+.@.@.@.@.@.@.@.@.@.@.@.@. . .S S A A A A A A A A A A A A ",
"Z Z x x a a x x x x x x x x L L @.@.5.5.y.y.y.y.7.7.@.@.u.u.. . @.@.@.@.@.@.@.@.@.@.@.@.@.@.@.@.@.@.i.i.@ @ @.@.@.@.@.@.@.@.@.@.@.@. . .S S A A A A A A A A A A ",
"Z Z x x a a x x x x x x x x L L @.@.5.5.y.y.y.y.7.7.@.@.u.u.. . @.@.@.@.@.@.@.@.@.@.@.@.@.@.@.@.@.@.i.i.@ @ @.@.@.@.@.@.@.@.@.@.@.@. . .S S A A A A A A A A A A ",
"p p i i i i a a Z Z Z Z S S @.@.@.@.t.t.e.e.=.=.@.@.@.@.8 8     @.@.@.@.@.@.@.@.@.@.@.@.@.@.@.@.@.@.K K     @.@.@.@.@.@.@.@.@.@.@.@.@.@.E E Z Z Z Z Z Z Z Z Z Z ",
"p p i i i i a a Z Z Z Z S S @.@.@.@.t.t.e.e.=.=.@.@.@.@.8 8     @.@.@.@.@.@.@.@.@.@.@.@.@.@.@.@.@.@.K K     @.@.@.@.@.@.@.@.@.@.@.@.@.@.E E Z Z Z Z Z Z Z Z Z Z ",
"A A Z Z Z Z Z Z Z Z Z Z R R @.@.=.=.r.r.=.=.@.@.@.@.@.@.O O O O @.@.o.o.o.o.@.@.@.@.@.@.@.@.@.@.@.@.o o + + @.@.@.@.@.@.@.@.@.@.<.<.*.*.....p p a a p p p p Z Z ",
"A A Z Z Z Z Z Z Z Z Z Z R R @.@.=.=.r.r.=.=.@.@.@.@.@.@.O O O O @.@.o.o.o.o.@.@.@.@.@.@.@.@.@.@.@.@.o o + + @.@.@.@.@.@.@.@.@.@.<.<.*.*.....p p a a p p p p Z Z ",
"c c x x x x x x c c c c T T @.@.@.@.@.@.@.@.@.@.o.o.o.o.| | ] ] ] ] ] ] ] ] ] ] [ [ | | X.X.o.o.o.o.o.o.X.X.| | o.o.@.@.o.o.@.@.q.q.1.1.O.O.f f x x a a a a Z Z ",
"c c x x x x x x c c c c T T @.@.@.@.@.@.@.@.@.@.o.o.o.o.| | ] ] ] ] ] ] ] ] ] ] [ [ | | X.X.o.o.o.o.o.o.X.X.| | o.o.@.@.o.o.@.@.q.q.1.1.O.O.f f x x a a a a Z Z ",
"Z Z c c x x x x x x x x P P @.@.@.@.@.@.@.@.o.o.[ [ ] ] ] ] ] ] ] ] ] ] ] ] ] ] ] ] ] ] ] ] ] ] ] ] ] ] ] ] [ [ [ [ X.X.o.o.4.4.e.e.-.-.....S S A A A A A A n n ",
"Z Z c c x x x x x x x x P P @.@.@.@.@.@.@.@.o.o.[ [ ] ] ] ] ] ] ] ] ] ] ] ] ] ] ] ] ] ] ] ] ] ] ] ] ] ] ] ] [ [ [ ] X.X.o.o.4.4.e.e.-.-.....S S A A A A A A n n ",
"A A A A A A A A A A A A a a } } @.@.@.@.@.@.] ] ] ] ] ] ] ] ] ] ] ] ] ] ] ] ] ] ] ] ] ] ] ] ] ] ] ] ] ] ] ] ] ] ] ] ] ] o.o.0.0.t.t.>.>.{ { A A A A A A A A n n ",
"A A A A A A A A A A A A a a } } @.@.@.@.@.@.] ] ] ] ] ] ] ] ] ] ] ] ] ] ] ] ] ] ] ] ] ] ] ] ] ] ] ] ] ] ] ] ] ] ] ] ] ] o.o.0.0.t.t.>.>.{ { A A A A A A A A n n ",
"Z Z Z Z Z Z Z Z Z Z n n ; ; , , +.+.@.@.@.@.| | ] ] ] ] ] ] ] ] ] ] ] ] ] ] ] ] ] ] ] ] ] ] ] ] ] ] ] ] ] ] ] ] ] ] ] ] o.o.=.=.;.;.....s s n n n n x x a a t t ",
"Z Z Z Z Z Z Z Z Z Z n n ; ; , , +.+.@.@.@.@.| | ] ] ] ] ] ] ] ] ] ] ] ] ] ] ] ] ] ] ] ] ] ] ] ] ] ] ] ] ] ] ] ] ] ] ] ] o.o.=.=.;.;.....s s n n n n x x a a t t ",
"1 1 1 1 1 1 1 1 1 1 : : $ $ ; ; b b @.@.@.@.@.@.[ [ ] ] ] ] ] ] ] ] ] ] ] ] ] ] ] ] ] ] ] ] ] ] ] ] ] ] ] ] ] ] ] ] [ [ o.o.@.@.O.O.2 2 % % 1 1 1 1 1 1 1 1 1 1 ",
"1 1 1 1 1 1 1 1 1 1 : : $ $ ; ; b b @.@.@.@.@.@.[ [ ] ] ] ] ] ] ] ] ] ] ] ] ] ] ] ] ] ] ] ] ] ] ] ] ] ] ] ] ] ] ] ] [ [ o.o.@.@.O.O.2 2 % % 1 1 1 1 1 1 1 1 1 1 ",
"t t t t i i i i i i ; ; = = r r a a x x  . .@.@.@.@.o.o.X.X.[ [ ] ] ] ] ] ] ] ] ] ] ] ] ] ] ] ] ] ] ] ] ] ] [ [ o.o.@.@.@.@.{ { b b : : - - x x Z Z Z Z r r 3 3 ",
"t t t t i i i i i i ; ; = = r r a a x x  . .@.@.@.@.o.o.X.X.[ [ ] ] ] ] ] ] ] ] ] ] ] ] ] ] ] ] ] ] ] ] ] ] [ [ o.o.@.@.@.@.{ { b b : : - - x x Z Z Z Z r r 3 3 ",
"t t t t t t r r r r = = ; ; i i p p x x c c I I +.+.@.@.@.@.@.@.@.@.@.@.@.@.@.@.o.o.o.o.X.X.X.X.o.o.o.o.@.@.@.@.+.+.E E m m x x a a y y ; ; a a A A A A a a 1 1 ",
"t t t t t t r r r r = = ; ; i i p p x x c c I I +.+.@.@.@.@.@.@.@.@.@.@.@.@.@.@.o.o.o.o.X.X.X.X.o.o.o.o.@.@.@.@.+.+.E E m m x x a a y y ; ; a a A A A A a a 1 1 ",
"r r r r t t t t 1 1 = = : : y y p p x x c c n n a a 6 6 G G +.+.@.@.@.@.@.@.@.@.@.@.@.@.@.@.@.@.@.@. . .T T 4 4 r r Z Z c c x x p p n n ; ; ; ; x x a a i i 1 1 ",
"r r r r t t t t 1 1 = = : : y y p p x x c c n n a a 6 6 G G +.+.@.@.@.@.@.@.@.@.@.@.@.@.@.@.@.@.@.@. . .T T 4 4 r r Z Z c c x x p p n n ; ; ; ; x x a a i i 1 1 ",
"x x n n A A A A t t ; ; r r a a a a n n c c n n a a : : a a Z Z n n p p b b v v u u p p n n n n a a x x a a ; ; r r Z Z c c x x p p Z Z : : = = 3 3 3 3 1 1 1 1 ",
"x x n n A A A A t t ; ; r r a a a a n n c c n n a a : : a a Z Z n n p p b b v v u u p p n n n n a a x x a a ; ; r r Z Z c c x x p p Z Z : : = = 3 3 3 3 1 1 1 1 ",
"x x n n A A Z Z ; : ; ; i i x x x x n n c c n n x x r r a a Z Z c c p p c c x x i i a a C C n n a a n n a a ; ; r r Z Z c c x a i i Z Z r r = = t t a a i i 1 1 ",
"x x n n A A Z Z : : ; ; i i x x x x n n c c n n x x r r a a Z Z c c p a c c x x i i a a C C n n a a n n a a ; ; r r Z Z c c a a i i Z Z r r = = t t a a i i 1 1 ",
"r r r r r r r r = = : : a a x x x x n n n n c n x x r r a a Z Z x x p a Z Z c c a a a a n n n n a a C C a a ; ; t t Z Z C C x x r r Z Z p p ; ; x x A A Z Z 1 1 ",
"r r r r r r r r = = : : a a x x x x n n c c c n x x r r a a Z Z x x p p Z Z c c a a a a n n n n a a C C a a ; ; t t Z Z C Z x x r r Z Z p p ; ; x x A A Z Z 1 1 ",
"1 1 1 1 1 1 : : % % r r Z Z a a a a n n c c n n x x t t x x Z Z x x a a Z Z Z Z x x x x n n n n a a Z Z a a ; ; r r _ _ ' ' D D V V Z Z n n ; ; r r Z Z Z Z 1 1 ",
"1 1 1 1 1 1 : : % % r r Z Z a a a a n n c c n n x x t t x x Z Z x x a a Z Z Z Z x x x x n n n n a a Z Z a a ; ; r r _ _ ' ' D D V V Z Z n n ; ; r r Z Z Z Z 1 1 ",
"r r i i n n p p ; ; y y Z Z a a p p c c x x n n x x i p x x Z Z a a a a Z Z Z Z n n x x n n n n a a Z Z a a 1 1 t t / / ` ` ( ( ^ ^ M M C N ; ; = = i i i i 1 1 ",
"r r i i n n p p ; ; y y Z Z a a p p c c x x n n x x i p x x Z Z a a a a Z Z Z Z n n x x n n n n a a Z Z a a 1 1 t t / / ` ` ( ( ^ ^ M M N N ; ; = = i i i i 1 1 ",
"r r 3 3 3 3 & & % % a a Z Z a a p p c c x x n n x x p p n n Z Z a a a a Z Z Z Z Z Z x x c c C C x x Z Z a a ; ; g g z z ^ ^ ) ) ~ ~ g g Z Z ; ; = = i i i i 1 1 ",
"r r 3 3 3 3 & & % % a a Z Z a a p p c c x x n n x x p p n n Z Z a a a a Z Z Z Z Z Z x x c c C C x x Z Z a a ; ; g g z z ^ ^ ) ) ~ ~ g g Z Z ; ; = = i i i i 1 1 ",
"3 3 3 3 t t B B M M r r Z Z x x y y x x c c C C x x p p n n Z Z a a a a Z Z Z Z Z Z x x c c Z Z c c Z Z a a = = q q k k ~ ~ Q Q h h q q Z Z : : ; ; Z Z a a r r ",
"3 3 3 3 t t B B M M r r Z Z x x y y x x c c C C x x p p n n Z Z a a a a Z Z Z Z Z Z x x c c Z Z c c Z Z a a = = q q k k ~ ~ Q Q h h q q Z Z : : ; ; Z Z a a r 3 ",
"x x c c Z Z ^ ^ ! ! : : n n x x i i x x c c Z Z x x p p c c Z Z a a a a Z Z Z Z Z Z x x x x Z Z C C Z Z a a ; ; = = q q g g l l w w t t Z Z : : - - Z Z p p r r ",
"x x c c Z Z ^ ^ ! ! : : n n x x i i x x c c Z Z x x p p c c Z Z a a a a Z Z Z Z Z Z x x x x Z Z C C Z Z a a ; ; = = q q g g l l w w t t Z Z : : - - Z Z p p r r ",
"n n x x c c W W j j 1 1 n n c c t t x x c c Z Z x x p p x x c c p p a a Z Z Z Z Z Z x x x x Z Z Z Z Z Z p a : : - - ; ; r r ; ; : : x x Z Z r r - - c n p p r r ",
"n n x x c c W W j j 1 1 n n x c t t x x c c Z Z x x p p x x c c p y a a Z Z Z Z Z Z x x x x Z Z Z Z Z Z p p : : - - ; ; r r ; ; : : x x Z Z r r - - n n p p r r ",
"x x a a p p 0 0 q q r r C C x x r r a a n n Z Z x x i i x x c c y y y y C C Z Z Z Z x x x x Z Z Z Z Z Z y y 1 1 i i y y % % X X : : n n Z Z i i = = a a a a 1 1 ",
"x x a a p p 0 0 q q r r C C x x r r a a n n Z Z x x i i x x c c y y y y C C Z Z Z Z x x x x Z Z Z Z Z Z y y 1 1 i i y y % % X X : : n n Z Z i i = = a a a a 1 1 ",
"3 3 1 1 1 1 $ $ 1 1 p p C C x x : : a a x x Z Z x x t t a a x x i i y y n n Z Z Z Z x x x x C C Z Z Z Z i i 1 1 a a x x # # X X 1 1 n n Z Z i i $ $ 1 1 1 1 1 1 ",
"3 3 1 1 1 1 $ $ 1 1 p p C C x x : : a a x x Z Z x x t t a a x x i i y y n n Z Z Z Z x x x x C C Z Z Z Z i i 1 1 a a x x # # X X 1 1 n n Z Z i i $ $ 1 1 1 1 1 1 ",
"p p p p r r = = r r c c c c a a ; ; y y a a Z Z x x r r a a a a i i y y c c Z Z Z Z x x a a n n Z Z Z Z i i r e p p a a $ $ X X : : n n Z Z i i % % r r t t t t ",
"p p p p r r = = r r c c c c a a ; : y y a a Z Z x x r r a a a a i i y y c c Z Z Z Z x x a a n n Z Z Z Z i i r e p p a a $ $ X X : : n n Z Z i i % % r r t t t t ",
"Z Z Z Z c c - - r r Z Z n n i i ; ; t t a a Z Z x x r r p p a a i i y y C C Z Z Z Z x x a a n n Z Z Z Z t t 1 : i i y y a a r r r r x x Z Z i i = = i i n n n n ",
"Z Z Z Z c c - - r r Z Z n n i i ; ; t t a a Z Z x x r r p p a a i i y y C C Z Z Z Z x x a a n n Z Z Z Z t t 1 1 i i y y a a r r r r x x Z Z i i = = i i n n n n ",
"Z Z C C x x - - r r Z Z n c r r - - r r p p Z Z c c r r y y p p i i p p n n Z Z Z Z x x a a c c Z Z Z Z t t : : t t y y x x p p r r a a Z Z i i - - p p Z Z A A ",
"Z Z C C x x - - r r Z Z n n r r - - r r p y Z Z c c r r y y p p i i p p n n Z Z Z Z x x a a c c Z Z Z Z t t : : t t y y x x y y r r a a Z Z i i - - p p Z Z A A ",
"1 1 1 1 1 1 = = e e Z Z n n r r - - r r p p Z Z c c r r t t y y i i a a n n Z Z Z Z x x a a c c Z Z Z Z i i : : i t a a x x y y t t a a Z Z r r ; ; p p A A n n ",
"1 1 1 1 1 1 = = e e Z Z n n r r - - r r p p Z Z c c r r t t y y i i a a n n Z Z Z Z x x a a c c Z Z Z Z i i : : t t a a x x y y t t a a Z Z r r ; ; p p A A n n ",
"i i i i i i = = : : Z Z n n r r = = r r p p Z Z x x : : r r a a p p a a n n Z Z Z Z x x a a x x Z Z Z Z i i : : t t a a x x y y i i x x Z Z ; ; - - p p a a i i ",
"i i i i i i = = : : Z Z n n r r = = r r p p Z Z x x : : r r a a p p a a n n Z Z Z Z x x a a x x Z Z Z Z i i : : t t a a x x i i i i x x Z Z ; ; - - p p a a i i ",
"A A A A Z Z : : ; ; c c Z Z i i = = : : x x Z Z c c : : r r a a c c n n Z Z Z Z Z Z n n x x n n Z Z Z Z y y : : i i a a c c y y a a c c 9 9 - - : : n n Z Z Z Z ",
"A A A A A Z : : ; ; c x Z Z i i = = : : x a Z Z c c : : r r a a c x n n Z Z Z Z Z Z n n x x n n Z Z Z Z y y : : i i a a c c y y a a c c 9 9 - - : : n n Z Z Z Z ",
"A A A A A A 1 1 ; ; : : r r r r : : e e : : e r 1 1 % % * * * * * * * * < < < < < < < < < < < < < < < < < < < < ; : : : ; ; ; ; ; ; ; ; - - - - < < a a A A Z Z ",
"A A A A A A : : ; ; : : r r r r : : e e : : e e 1 1 % % * * * * * * * * < < < < < < < < < < < < < < < < < < < < ; ; : : ; ; ; ; ; ; ; ; - - - - < < a a A A Z Z ",
"r r 3 3 t t r r - - : : ; ; ; ; ; ; - - = = % % & & & & & & & & & & & & > > > > * * * * & & & & & & & & & & * * * * ; ; : : ; ; 1 1 - - : : : : r r a a t t t t ",
"r r 3 3 t t t r - - : : ; ; ; ; ; ; - - = = % % & & & & & & & & & & & & > > > > * * * * & & & & & & & & & & * * * * ; ; : : ; ; 1 1 - - : : : : t t a a t t t t ",
"A A n n n n C C Z Z Z Z Z Z Z Z Z Z Z Z Z Z Z Z C C Z Z n n d d d d d d f f d d d d d d f f p p 1 1 1 1 a a a a p p a a a a a a a a a a a a p p p p i i t t a a ",
"A A n n n n C C Z Z Z Z Z Z Z Z Z Z Z Z Z Z Z Z Z C Z Z n n d d d d d d f f d d f d d d f f p p 1 1 1 1 a a a a p p a a a p a a a a a a a a p p p p i i t t a a ",
"i i r r r r r r i i i i i i i i i i i i i i p p p p a a x x x x x x a a a p p p p p i i i i t t 1 1 1 1 a a Z Z A A A A A A A A A A A A A A A A A A Z Z Z Z A A ",
"i i r r r r r r i i i i i i i i i i i i i i p p p p a a x a x x x x a a p p p p p p i i i i t t 1 1 1 1 a a Z Z A A A A A A A A A A A A A A A A A A Z Z Z Z A A ",
"r r 1 1 1 1 3 3 p p p p a a a a p p p p p p i i t t t t t t i i x x n n Z Z A A A A A A A A x x 1 1 1 1 x x x x x x x x x x x x x x x x x x x x x x a a a a n n ",
"r r 1 1 1 1 3 3 p p p p a a a a p p p p i i i i t t t t t t i i x x n n Z Z A A A A A A A A x x 1 1 1 1 x x x x x x x x x x x x x x x x x x x x x x a a x a n n ",
"x x Z Z Z Z A A A A A A A A A A A A A A A A A A A A A A A A A A A A A A A A A A A A A A A A n n 1 1 1 1 n n n n n n n n n n n n c c x x x c c x x x x x c c n n ",
"x x Z Z Z Z A A A A A A A A A A A A A A A A A A A A A A A A A A A A A A A A A A A A A A A A n n 1 1 1 1 n n n n n n n n n n n n c c x x x x c x x x x x c c n n "
};
