/* XPM */
static const char *sprite6[] = {
/* columns rows colors chars-per-pixel */
"80 80 95 2 ",
"   c white",
".  c #FEFEFE",
"X  c #F6F5F8",
"o  c #EBEAF1",
"O  c #E4E3EC",
"+  c #E2E1EB",
"@  c #E6E5ED",
"#  c #F0F0F4",
"$  c #FBFBFC",
"%  c #E9E8EF",
"&  c #9E9AB9",
"*  c #666192",
"=  c #49437D",
"-  c #3F3976",
";  c #3C3574",
":  c #3B3473",
">  c #3C3573",
",  c #3F3875",
"<  c #46407B",
"1  c #5A5489",
"2  c #79759F",
"3  c #A9A6C2",
"4  c #DCDBE6",
"5  c #B6B3CA",
"6  c #4F4981",
"7  c #3A3372",
"8  c #6B6595",
"9  c #D9D8E4",
"0  c #656091",
"q  c #3A3371",
"w  c #38316D",
"e  c #393270",
"r  c #3E3775",
"t  c #9F9CBA",
"y  c #FAF9FB",
"u  c #615B8E",
"i  c #342E66",
"p  c #131024",
"a  c #201C3D",
"s  c #242047",
"d  c #040408",
"f  c #312C61",
"g  c #79749F",
"h  c #F5F5F8",
"j  c #9B98B8",
"k  c #010102",
"l  c #050509",
"z  c #1D1A39",
"x  c #393271",
"c  c #1E1B3C",
"v  c black",
"b  c #030305",
"n  c #78739E",
"m  c #E5E4EC",
"M  c #534D84",
"N  c #000001",
"B  c #0B0915",
"V  c #37306B",
"C  c #423B78",
"Z  c #ABA8C3",
"A  c #CAC9D9",
"S  c #080710",
"D  c #231F45",
"F  c #090711",
"G  c #201C3F",
"H  c #736E9B",
"J  c #F3F2F6",
"K  c #C6C4D6",
"L  c #625D8F",
"P  c #4E4880",
"I  c #6F6998",
"U  c #7D79A2",
"Y  c #938FB2",
"T  c #686293",
"R  c #DDDCE7",
"E  c #E8E7EE",
"W  c #544E85",
"Q  c #CECDDC",
"!  c #FDFDFD",
"~  c #7B76A0",
"^  c #49427D",
"/  c #9895B5",
"(  c #EAE9F0",
")  c #5F598D",
"_  c #585288",
"`  c #ACA9C4",
"'  c #A6A3BF",
"]  c #5C568A",
"[  c #433C78",
"{  c #4D467F",
"}  c #C1BFD3",
"|  c #F0EFF4",
" . c #E7E6EE",
".. c #F3F3F7",
"X. c #FDFDFE",
/* pixels */
"                                                                                                                                                                ",
"                                                                                                                                                                ",
"                                                                    . . X X o o O O + + @ @ # # $ $                                                             ",
"                                                                    . . X X o o O O + + @ @ # # $ $                                                             ",
"                                                % % & & * * = = - - ; ; : : : : : : : : > > , , < < 1 1 2 2 3 3 4 4                                             ",
"                                                % % & & * * = = - - ; ; : : : : : : : : > > , , < < 1 1 2 2 3 3 4 4                                             ",
"                                        5 5 6 6 > > 7 7 7 7 7 7 7 7 7 7 7 7 7 7 7 7 7 7 7 7 7 7 7 7 7 7 7 7 7 7 , , 8 8 9 9                                     ",
"                                        5 5 6 6 > > 7 7 7 7 7 7 7 7 7 7 7 7 7 7 7 7 7 7 7 7 7 7 7 7 7 7 7 7 7 7 , , 8 8 9 9                                     ",
"                                    0 0 : : 7 7 7 7 7 7 7 7 q q q q 7 7 7 7 7 7 7 7 7 7 7 7 w w e e 7 7 7 7 7 7 7 7 7 7 r r t t                                 ",
"                                    0 0 : : 7 7 7 7 7 7 7 7 q q q q 7 7 7 7 7 7 7 7 7 7 7 7 w w e e 7 7 7 7 7 7 7 7 7 7 r r t t                                 ",
"                            y y u u 7 7 7 7 7 7 7 7 7 7 i i p p a a 7 7 7 7 7 7 7 7 7 7 7 7 7 7 e e s s d d f f 7 7 7 7 7 7 7 7 g g h h                         ",
"                            y y u u 7 7 7 7 7 7 7 7 7 7 i i p p a a 7 7 7 7 7 7 7 7 7 7 7 7 7 7 e e s s d d f f 7 7 7 7 7 7 7 7 g g h h                         ",
"                            j j : : 7 7 7 7 7 7 7 7 7 7 k k l l z z x x 7 7 7 7 7 7 7 7 7 7 7 7 e e c c v v b b 7 7 7 7 7 7 7 7 : : n n X X                     ",
"                            j j : : 7 7 7 7 7 7 7 7 7 7 k k l l z z x x 7 7 7 7 7 7 7 7 7 7 7 7 e e c c v v b b 7 7 7 7 7 7 7 7 : : n n X X                     ",
"                        m m M M 7 7 7 7 7 7 7 7 7 7 7 7 N N B B 7 7 7 7 7 7 7 7 7 7 7 7 7 7 q q 7 7 V V v v k k 7 7 7 7 7 7 7 7 7 7 C C Z Z                     ",
"                        m m M M 7 7 7 7 7 7 7 7 7 7 7 7 N N B B 7 7 7 7 7 7 7 7 7 7 7 7 7 7 q q 7 7 V V v v k k 7 7 7 7 7 7 7 7 7 7 C C Z Z                     ",
"                        A A C C 7 7 7 7 7 7 7 7 7 7 7 7 S S D D 7 7 7 7 7 7 7 7 7 7 7 7 7 7 7 7 7 7 7 7 F F G G 7 7 7 7 7 7 7 7 7 7 7 7 H H J J                 ",
"                        A A C C 7 7 7 7 7 7 7 7 7 7 7 7 S S D D 7 7 7 7 7 7 7 7 7 7 7 7 7 7 7 7 7 7 7 7 F F G G 7 7 7 7 7 7 7 7 7 7 7 7 H H J J                 ",
"                        K K C C 7 7 7 7 7 7 7 7 7 7 7 7 7 7 7 7 7 7 7 7 7 7 7 7 7 7 7 7 7 7 7 7 7 7 7 7 7 7 7 7 7 7 7 7 7 7 7 7 7 7 7 7 L L % %                 ",
"                        K K C C 7 7 7 7 7 7 7 7 7 7 7 7 7 7 7 7 7 7 7 7 7 7 7 7 7 7 7 7 7 7 7 7 7 7 7 7 7 7 7 7 7 7 7 7 7 7 7 7 7 7 7 7 L L % %                 ",
"                        9 9 P P 7 7 7 7 7 7 7 7 7 7 7 7 7 7 7 7 7 7 7 7 7 7 7 7 7 7 7 7 7 7 7 7 7 7 7 7 7 7 7 7 7 7 7 7 7 7 7 7 7 7 7 7 I I J J                 ",
"                        9 9 P P 7 7 7 7 7 7 7 7 7 7 7 7 7 7 7 7 7 7 7 7 7 7 7 7 7 7 7 7 7 7 7 7 7 7 7 7 7 7 7 7 7 7 7 7 7 7 7 7 7 7 7 7 I I J J                 ",
"                            U U : : 7 7 7 7 7 7 7 7 7 7 7 7 7 7 7 7 7 7 7 7 7 7 7 7 7 7 7 7 7 7 7 7 7 7 7 7 7 7 7 7 7 7 7 7 7 7 7 7 , , Y Y                     ",
"                            U U : : 7 7 7 7 7 7 7 7 7 7 7 7 7 7 7 7 7 7 7 7 7 7 7 7 7 7 7 7 7 7 7 7 7 7 7 7 7 7 7 7 7 7 7 7 7 7 7 7 , , Y Y                     ",
"                            o o 1 1 7 7 7 7 7 7 7 7 7 7 7 7 7 7 7 7 7 7 7 7 7 7 7 7 7 7 7 7 7 7 7 7 7 7 7 7 7 7 7 7 7 7 7 7 7 7 : : T T R R                     ",
"                            o o 1 1 7 7 7 7 7 7 7 7 7 7 7 7 7 7 7 7 7 7 7 7 7 7 7 7 7 7 7 7 7 7 7 7 7 7 7 7 7 7 7 7 7 7 7 7 7 7 : : T T R R                     ",
"                                E E W W 7 7 7 7 7 7 7 7 7 7 7 7 7 7 7 7 7 7 7 7 7 7 7 7 7 7 7 7 7 7 7 7 7 7 7 7 7 7 7 7 7 7 > > T T Q Q                         ",
"                                E E W W 7 7 7 7 7 7 7 7 7 7 7 7 7 7 7 7 7 7 7 7 7 7 7 7 7 7 7 7 7 7 7 7 7 7 7 7 7 7 7 7 7 7 > > T T Q Q                         ",
"                                    ! ! ~ ~ ; ; 7 7 7 7 7 7 7 7 7 7 7 7 7 7 7 7 7 7 7 7 7 7 7 7 7 7 7 7 7 7 7 7 7 7 7 7 ^ ^ / / ( (                             ",
"                                    ! ! ~ ~ ; ; 7 7 7 7 7 7 7 7 7 7 7 7 7 7 7 7 7 7 7 7 7 7 7 7 7 7 7 7 7 7 7 7 7 7 7 7 ^ ^ / / ( (                             ",
"                                            9 9 ) ) ; ; 7 7 7 7 7 7 7 7 7 7 7 7 7 7 7 7 7 7 7 7 7 7 7 7 7 7 ; ; _ _ ` ` # #                                     ",
"                                            9 9 ) ) ; ; 7 7 7 7 7 7 7 7 7 7 7 7 7 7 7 7 7 7 7 7 7 7 7 7 7 7 ; ; _ _ ` ` # #                                     ",
"                                                    ( ( ' ' ] ] [ [ ; ; : : 7 7 7 7 7 7 > > , , { { ~ ~ } } | |                                                 ",
"                                                    ( ( ' ' ] ] [ [ ; ; : : 7 7 7 7 7 7 > > , , { { ~ ~ } } | |                                                 ",
"                                                                    $ $ J J @ @  . .....X.X.                                                                    ",
"                                                                    $ $ J J @ @  . .....X.X.                                                                    ",
"                                                                                                                                                                ",
"                                                                                                                                                                ",
"                                                                                                                                                                ",
"                                                                                                                                                                ",
"                                                                                                                                                                ",
"                                                                                                                                                                ",
"                                                                                                                                                                ",
"                                                                                                                                                                ",
"                                                                                                                                                                ",
"                                                                                                                                                                ",
"                                                                                                                                                                ",
"                                                                                                                                                                ",
"                                                                                                                                                                ",
"                                                                                                                                                                ",
"                                                                                                                                                                ",
"                                                                                                                                                                ",
"                                                                                                                                                                ",
"                                                                                                                                                                ",
"                                                                                                                                                                ",
"                                                                                                                                                                ",
"                                                                                                                                                                ",
"                                                                                                                                                                ",
"                                                                                                                                                                ",
"                                                                                                                                                                ",
"                                                                                                                                                                ",
"                                                                                                                                                                ",
"                                                                                                                                                                ",
"                                                                                                                                                                ",
"                                                                                                                                                                ",
"                                                                                                                                                                ",
"                                                                                                                                                                ",
"                                                                                                                                                                ",
"                                                                                                                                                                ",
"                                                                                                                                                                ",
"                                                                                                                                                                ",
"                                                                                                                                                                ",
"                                                                                                                                                                ",
"                                                                                                                                                                ",
"                                                                                                                                                                ",
"                                                                                                                                                                ",
"                                                                                                                                                                ",
"                                                                                                                                                                ",
"                                                                                                                                                                ",
"                                                                                                                                                                "
};
