/* XPM */
static const char *sprite_p2[] = {
/* columns rows colors chars-per-pixel */
"80 80 179 2 ",
"   c #000001",
".  c #0A121B",
"X  c #191919",
"o  c #2C1D0E",
"O  c #2E1F10",
"+  c #291F18",
"@  c #241A17",
"#  c #331F18",
"$  c #3D2B0E",
"%  c #2F201F",
"&  c #2E2217",
"*  c #352414",
"=  c #382616",
"-  c #3A2916",
";  c #3C2B1B",
":  c #30231A",
">  c #0D1C2C",
",  c #0C1724",
"<  c #1F2020",
"1  c #282726",
"2  c #2B2A2A",
"3  c #2D2927",
"4  c #3C2F22",
"5  c #342E2B",
"6  c #382B28",
"7  c #3F3024",
"8  c #36312D",
"9  c #3A322D",
"0  c #3D3533",
"q  c #37313E",
"w  c #3D393D",
"e  c #402F17",
"r  c #412E1C",
"t  c #45311E",
"y  c #49341F",
"u  c #423015",
"i  c #583F1A",
"p  c #533C16",
"a  c #443325",
"s  c #4A3623",
"d  c #4E3925",
"f  c #42362C",
"g  c #493728",
"h  c #4D3A29",
"j  c #4F3C2A",
"k  c #4B3929",
"l  c #503A26",
"z  c #513A25",
"x  c #523C27",
"c  c #513C27",
"v  c #523B26",
"b  c #533C28",
"n  c #513D2B",
"m  c #543D29",
"M  c #553E29",
"N  c #563F2A",
"B  c #563E29",
"V  c #533E2C",
"C  c #543E2A",
"Z  c #5A3F25",
"A  c #403739",
"S  c #4E3D30",
"D  c #503C30",
"F  c #584018",
"G  c #644818",
"H  c #735315",
"J  c #57402B",
"K  c #55402D",
"L  c #57412E",
"P  c #56412D",
"I  c #56402C",
"U  c #59402B",
"Y  c #5B432D",
"T  c #5A432F",
"R  c #59422D",
"E  c #5C432D",
"W  c #5B442F",
"Q  c #5C442E",
"!  c #5E452F",
"~  c #5F462E",
"^  c #5B432D",
"/  c #5B4026",
"(  c #5F4631",
")  c #5D4530",
"_  c #5D4531",
"`  c #5E473A",
"'  c #60462F",
"]  c #634A2F",
"[  c #664B22",
"{  c #735827",
"}  c #795A21",
"|  c #604731",
" . c #604732",
".. c #604731",
"X. c #614832",
"o. c #634932",
"O. c #624831",
"+. c #644A33",
"@. c #644B33",
"#. c #654B34",
"$. c #674C34",
"%. c #644A33",
"&. c #684D35",
"*. c #684D35",
"=. c #624B3C",
"-. c #3D3644",
";. c #353440",
":. c #373A53",
">. c #433E4A",
",. c #4C3F43",
"<. c #3B4163",
"1. c #3E466A",
"2. c #3D4F7C",
"3. c #3F507E",
"4. c #4C4C4D",
"5. c #454156",
"6. c #49475F",
"7. c #47455C",
"8. c #544C5C",
"9. c #494760",
"0. c #484A67",
"q. c #574E60",
"w. c #524F68",
"e. c #52506A",
"r. c #4B547C",
"t. c #42517D",
"y. c #835B16",
"u. c #886217",
"i. c #8E681C",
"p. c #966D17",
"a. c #8F6A21",
"s. c #856935",
"d. c #A37E37",
"f. c #8F7146",
"g. c #B3862B",
"h. c #B28427",
"j. c #B28934",
"k. c #CE9214",
"l. c #C09233",
"z. c #C29F5E",
"x. c #D1A44B",
"c. c #2C5887",
"v. c #2C5989",
"b. c #2D5684",
"n. c #3B588D",
"m. c #3D5587",
"M. c #2E5E92",
"N. c #355F97",
"B. c #3A5D94",
"V. c #2E6096",
"C. c #2F639B",
"Z. c #33639D",
"A. c #2F66A0",
"S. c #3067A2",
"D. c #346AA4",
"F. c #386EA8",
"G. c #3C72AB",
"H. c #415686",
"J. c #455887",
"K. c #42598A",
"L. c #416B9B",
"P. c #4277AF",
"I. c #4478B0",
"U. c #497CB4",
"Y. c #4F81B7",
"T. c #5385BA",
"R. c #598ABF",
"E. c #5887B8",
"W. c #5F8FC3",
"Q. c #6292C4",
"!. c #6C9ACB",
"~. c #709DCE",
"^. c #79A5D5",
"/. c #84AFDD",
"(. c #86B1DE",
"). c #88B2DF",
"_. c #89B3E0",
"`. c gray95",
"'. c #CED0D1",
/* pixels */
"4 4 7 7 a a a a 4 4 4 4 4 4 4 4 4 4 4 4 7 7 4 4 4 4 4 4 4 4 4 4 4 4 4 4 4 4 7 7 7 7 7 7 7 7 7 7 a a a a a a a a 7 7 7 7 7 7 7 7 7 7 7 7 a a 7 7 7 7 7 7 a a a a ",
"4 4 7 7 a a a a 4 4 4 4 4 4 4 4 4 4 4 4 7 7 4 4 4 4 4 4 4 4 4 4 4 4 4 4 4 4 7 7 7 7 7 7 7 7 7 7 a a a a a a a a 7 7 7 7 7 7 7 7 7 7 7 7 a a a a 7 7 7 7 a a a a ",
"$.$.&.&.&.&.&.&.&.$.$.$.&.&.$.$.W W n n k k a a a a g g L L n n ; ; * * * * * * * * * * * * * * * * N N &.&.&.&.&.$.$.$.&.&.&.&.&.&.$.$.&.&.&.&.&.&.&.&.&.&.&.&.",
"$.$.&.&.&.&.&.&.$.$.$.$.&.&.$.$.W W n n k k a a a a g g L L n n ; ; * * * * * * * * * * * * * * * * n n &.&.&.&.$.$.$.$.&.&.&.&.&.&.$.$.&.&.&.&.&.&.&.&.&.$.&.&.",
"&.&.#.#.+.+.o.o. . .( ( ( ( o.o.o.o.( ( ( ( g g 4 4 g g a a * * * * * * * * * * * * * * * * * * * * * * * * $.$.$.&.&.&.&.&.$.$.o.o.o.o.#.#.+.+.+.+.+.+.o.o.&.&.",
"&.&.#.#.+.+.o.o. . .( ( ( ( o.o.o.o.( ( ( ( g g 4 4 g g a a * * * * * * * * * * * * * * * * * * * * * * * * $.$.$.&.&.&.&.&.$.$.o.o.o.o.#.#.+.+.+.+.+.+.o.o.&.&.",
"7 7 4 4 4 4 a a g g g g g g k k n n L L R R g g 4 4 * * * * * * t t s s r r x x s s d d o.o.+.+.N N ; ; * * ; ; ) ) R R R R k k a a g g g g g g g g g g g g &.&.",
"7 7 4 4 4 4 a a g g g g g g k k n n L L R R g g 4 4 * * * * * * t t s s r r x x s s d d o.o.+.+.N N ; ; * * ; ; ) ) R R R R k k a a g a g g g g g g g g g g &.&.",
"g g g g j j &.&.$.$.$.&.&.&.&.&.&.&.&.&.+.+.g g O O O O = = s s n n s t ; ; d d a s l l +.+.o.o.J J ~ ~ r r o o = = g g g g g g k k k k V V ( ( ( ( o.o.#.#.&.&.",
"g g g g j j &.&.$.$.$.$.&.&.&.&.&.&.&.&.+.+.g g O O O O = = s s n n t t ; ; d d a a l l +.+.o.o.J J ~ ~ r r o o = = g g g g g g k k k k V V ( ( ( ( o.o.#.#.&.&.",
"L L V V L R ( (  . .o. .o.o.o.o.o.o.o.o.L L O O o o * * ; ; l l d d t t ; ; d d s s N N o.o.o.o.l l ( ( s s O O o o t t &.&.&.&.&.&.&.&.&.&.&.&.&.&.&.&.&.&.&.&.",
"L L V V R R ( (  . .o.o.o.o.o.o.o.o.o.o.L L O O o o * * ; ; l l d d t t ; ; d d s s N N o.o.o.o.l l ( ( s s O O o o t t &.&.&.&.&.&.&.&.&.&.&.&.&.&.&.&.&.&.&.&.",
"o.o.R R V V L L R R R R L L L L L L W W * * o o * * * * r r N N s s s s ; ; d d d d N N o.o.o.o.l l R R s s * * r r o o N N &.&.&.&.&.&.&.&.&.&.&.&.&.&.&.&.&.&.",
"o.o.R R V V L L R R R R L L L L L L W W * * o o * * * * r r N N s s s s ; ; d d d d N N o.o.o.o.l l R R s s * * r r o o N N &.&.&.&.&.&.&.&.&.&.&.&.&.&.&.&.&.&.",
"k k g g g g n n o.o.+.+.#.#.$.$.$.$.t t o o t t J J * * t t U R s s s s r ; d d d d x x o.o.o.o.d d N N n n * * ~ ~ r r o o ( ( ( ( o.o.o.o.o.o.+.+.+.+.+.+.#.#.",
"k k g g g g n n o.o.+.+.#.#.$.$.&.&.t t o o t t J J * * t r U R s s s s r r d d d d x x o.o.o.o.d d N N n n * * ~ ~ r r o o ( ( ( ( o.o.o.o.o.o.+.+.+.+.+.+.#.#.",
"&.&.+.+.+.+.+.+.+.+.+.+.+.+.o.o.x x o o ; ; o.o.R R * * t t  . .d d s s r r l l d d n n  . .o.o.d d l l N N * * x x +.+.* * O O k k j j j j j j n n k k k k o.+.",
"&.&.+.+.+.+.+.+.+.+.+.+.+.+.o.o.x x o o ; ; o.o.R R * * t t  . .d d s s r r l l d d n n  . .o.o.d d l l N N * * x x +.+.* * O O k k j j j j j j n n k k k k +.+.",
"W W L L R R R R W W W W ) ) n n o o * * J J  . .J J * * s s +.+.l l s s t t n n d d n n  . .o.o.d d d d R R = = s s +.+.x x o o r r V V V V L L L L V V V V o.o.",
"W W L L R R R R W W W W ) ) n n o o * * J J  . .J J * * s s +.+.l l s s t t x x l d n n  . .o.o.d d d d R R = = s s +.+.x x o o r r V V V V L L L L V V V V o.o.",
"+.+.W W L L L L L L R R  .( o o o o ; ; ~  .( ( N N * * t t +.+.N N d d r r n n d d l l ( ( o.o.d d d d R R = = t t o.o.+.+.* * o o #.#.&.&.&.&.&.&.&.&.&.&.( ( ",
"+.+.W W L L L L L L R R  .( o o o o ; ; ' ' ( ( N N * * t t +.+.N N d d r r n n d d l l ( ( o.o.d d d d R R = = t t o.o.+.+.* * o o #.#.&.&.&.$.&.&.&.&.&.&.( ( ",
"&.&.&.&.&.&.&.&.&.&.$.$.l l o o * * d d ~ ~ ( ( N N * * t t +.+.R R d d r r N N t t s s ~ ~  . .s s d d J J * * r r o.o. . .l l o o t t &.&.$.$.&.&.&.&.&.&.( ( ",
"&.&.&.&.&.&.&.&.&.&.$.$.l l o o * * d d ~ ~ ( ( N N * * t t +.+.R R l l r r N N t t s s ~ ~  . .s s d d J J * * r r o.o. . .l l o o t t &.&.$.$.&.&.&.&.&.&.( ( ",
"o.o.o.o.o.o.o.o.o.o.( ( * * o o r r d d R R  . .x x * * y y +.+.~ ~ l l r r N N ; ; r r ( (  . .d d d d N N * * = =  . . . .N N * * o o L L ( ( ( ( R R V V g g ",
"o.o.o.o.o.o.o.o.o.o.( ( * * o o r r d d R R  . .x x * * y y +.+.~ ~ l l r r N N ; ; r r ( (  . .d d d d N N * * = =  . . . .N N * * o o L L ( ( ( ( R R V V g g ",
"4 4 4 4 4 4 4 4 4 4 ; ; * * * * s s d d R R ( ( l l * * s s +.+.'  .x x r r l l ; ; r r '  . .( d d n n N N * * * * ( ( ( ( E E t t o o ; ; 4 4 4 4 4 4 4 4 4 4 ",
"4 4 4 4 4 4 4 4 4 4 ; ; * * * * d s d d R R ( ( l l * * s s +.+. . .x x r r l l ; ; r r '  . .( d d n n N N * * * * ( ( ( ( E E t t o o ; ; 4 4 4 4 4 4 4 4 4 4 ",
"g g g g g g g g g g ; ; * * ; ; a a l l U U ~ ~ l l * * s s +.+.o.o.m m r ; s s = = r r ( ( ~ ~ d d N N N N * * * *  . .~ ~ ~ ~ d d * * * * ( ( o.o.o.o.a a 7 7 ",
"g g g g g g g g g g ; ; * * ; ; a a l l U U ~ ~ l l * * s s +.+.o.o.m m r r d d = = r r ( ( ~ ~ d d N N N N * * * *  . .~ ~ ~ ~ d d * * * * ( ( o.o.o.o.a a 7 7 ",
"g g g g g g a a a a * * * * t t r r l l N N ~ ~ z z * * s s +.+.+.+.n n r r s s * * r r ~ ~ R R d d J J N N * * * * ( ( R R ~ ~ d d r r o o o.o.&.&.&.&.n n 4 4 ",
"g g g g g g a a a a * * * * t t r r l l N N ~ ~ z z * * s s +.+.+.+.x x r r s s * * r r ~ ~ R R d d J J N N * * * * ( ( R R ~ ~ d d r r o o o.o.&.&.&.&.n n 4 4 ",
"a a a a g g g g a a * * = = s s t t m m N N E E l l * * s s +.+.o.o.d d t t s s = = t t ~ ~ R R d d R R x x * * * * ( ( R R R R N N R R = = = = L R n n g g 4 4 ",
"a a a a g g g g a a * * = = s s t t m m N N E E l l * * s s +.+.o.o.d d t t s s = = t t ~ ~ R R d d R R x x * * * * ( ( R R R R N m R R = = = = L R V V g g 4 4 ",
"L L ( ~ &.&.$.$.s s * * ; ; d d g g ~ ~ R R ~ ~ l l * * s s +.+.~ ~ s s s s d d = = t t ~ ~ R R d d ~ ~ x x * * * *  .( R R N N a a o.o.m m o o a a 7 7 4 4 4 4 ",
"L L ( ( &.&.#.#.s s * * ; ; d d g g ~ ~ R R ~ ~ l l * * s s +.+.~ ~ s s s s d d = = t t ~ ~ R R d d ~ ~ x x * * * *  .( R R N N a a o.o.m m o o a a 7 7 4 4 4 4 ",
"L L ( ( $.$.+.+.* * * * t t n n x x  . .R R ' ' l l = = s s +.+.R R t t n x N N r r s s E E U U d d ' ' N N * * * * ( ( L L x x a a +.+.U / * * g g n n g g 4 4 ",
"L L ( ( $.$.+.+.* * * * t t n n x x  . .R E ' ' l l = = s s +.+.R R t t x x N N r r s s E E U U d d  . .N N * * * * ( ( L L x x a a +.+.U / * * g g n n g g 4 4 ",
"a a a a a a g g * * * * d d N N J J  . .~ ~  . .l l = = d d +.+.U U s s E E E E d d l l R R U U d d o. .N m * * ; ; o.o.~ ~ N N 6 6 o.o.~ ~ * * U J $.$.o.o.4 4 ",
"a a a a a a g g * * * * d d N N J J '  .~ ~  . .l l = = d d +.+.U U s s E E E E d d l l R R U U d d o. .N N * * ; ; o.o.~ ~ N N 6 6 o.o.~ ~ * * U U $.$.o.o.4 4 ",
"4 4 4 4 4 4 ; ; & & * *  . .l l N N ' ' ~ ~ ~ ~ l l ; ; l l +.+.N N s s ( ( o.o.U U l l R R R R d d o.o.m m * * r r f.f.z.z.s.s.{ { ] ] R R * * r r $.$.o.o.4 4 ",
"4 4 4 4 4 4 ; ; & & * *  . .l l N N ' ' ~ ~ ~ ~ l l ; ; l l +.+.N N s s ( ( o.o.U U l l R R R R d d o.o.m m * = r r f.f.z.z.s.s.{ { ] ] R R * * r r $.$.o.o.4 4 ",
"a a g g ) ) g g * * * * +.+.d d N N ~ ~ R R R R l l ; ; N N +.+.n n s s  . .+.+.( ( l l U U R R l l o.o.m m r r y y d.d.x.x.j.j.g.g.[ [ ~ ~ * * * * k k g g 4 4 ",
"a a g g ) ) g g * * * * +.+.d d N N ~ ~ R R R R l l ; ; N N +.+.x n s s  . .+.+.( ( l l U U R R l l o.o.m m r r y y d.d.x.x.j.j.g.g.[ [ ~ ~ * * * * k k g g 4 4 ",
"a a 7 7 7 7 @ @ ; ; ; ;  . .N N U U ~ ~ J U R R l l r r N N +.+.l l s s o.o.+.+.o.o.n n N N ~ ~ N N o.o.x x z z i i u.u.h.h.l.l.a.a.p p ] ] = = * * g g g g 4 4 ",
"a a 7 7 7 7 @ @ ; ; ; ;  . .N N U U ~ ~ J U R R l l r r N N +.+.l l s s o.o.+.+.o.o.n n N N ~ ~ N N o.o.x x z z i i u.u.h.h.l.l.a.a.p p ] ] = = * * g g g g 4 4 ",
"7 7 7 7 g g } } G G ; ; o.o.R R U U ~ ~ R R ~ ~ d d r r N N +.+.l l s s  . .+.+.o.o.N N N N ~ ~ U U o.o.l l Z Z y y H H i.i.k.k.G G = = o.o.; ; * * $.$.n n a a ",
"7 7 7 7 g g } } G G ; ; o.o.R R U U ~ ~ R R ~ ~ d d r r N N +.+.l l s s  . .+.+.o.o.N N N N ~ ~ U U o.o.l l Z Z y y H H i.i.k.k.G G = = o.o.; ; * * $.$.n n a a ",
"L L W W o.o.h.h.i.i.@ @ ~ ~ ~ ~ N N J J E E  . .d d r r n n  .o.D D ,.,.w.w.r.r.J.J.K.K.H.H.r.r.8.8.=.=.d d / / * * - - F F y.y.u u ; ; +.+.; ; * * #.#.k k a a ",
"L L W W o.o.h.h.i.i.@ @ ~ ~ ~ ~ N N J J E E  . .d d r r n n  . .D D ,.,.w.w.r.r.J.J.K.K.H.H.r.r.8.8.=.=.d d / / * * - - F F y.y.u u ; ; +.+.; ; * * #.#.k k a a ",
") ) L L ~ ~ p.p.H H : : ( ( ' ' m m N N _ _ e.e.H.H.Z.Z.S.S.D.D.G.G.I.I.G.G.S.S.D.D.G.G.D.D.S.S.S.S.S.S.S.S.S.S.N.N.<.<.6 6 + + & & n n +.+.r r * * +.+.k k a a ",
") ) R L ~ ~ p.p.H H : : ( ( ' ' m m N N _ _ e.e.H.H.Z.Z.S.S.D.D.G.G.I.I.G.G.S.S.D.D.G.G.D.D.S.S.S.S.S.S.S.S.S.S.N.N.<.<.6 6 + + & & n n +.+.r r * * +.+.k k a a ",
"L L n n g g $ $ e e ; ; (  .` ` H.H.S.S.S.S.P.P.R.R.Q.Q.!.!.!.!.R.R.I.I.T.T.W.W.T.T.G.G.D.D.S.S.S.S.S.S.S.S.S.S.S.S.S.S.S.S.Z.Z.1.1.) ) +.+.t t * * R R n n 4 4 ",
"L L n n g g $ $ e e ; ;  . .` ` H.H.S.S.S.S.P.P.R.R.Q.Q.!.!.!.!.R.R.I.I.T.T.W.W.T.T.G.G.D.D.S.S.S.S.S.S.S.S.S.S.S.S.S.S.S.S.Z.Z.1.1.) ) +.+.t t * * R R n n 4 4 ",
"7 7 4 4 4 4 y y m m ~ ~ J.J.S.S.F.F.!.!.(.(._._././.^.^.Y.Y.A.S.S.S.D.D.G.G.D.D.S.S.S.S.S.S.S.S.S.S.S.S.S.S.S.S.S.S.S.S.S.S.S.S.S.S.S.S.q.q.s s * * 4 4 4 4 4 4 ",
"7 7 4 4 4 4 y y m m ~ ~ J.J.S.S.F.F.!.!.(.(._._././.^.^.Y.Y.A.S.S.S.D.D.G.G.D.D.S.S.S.S.S.S.S.S.S.S.S.S.S.S.S.S.S.S.S.S.S.S.S.S.S.S.S.A.8.q.s s * * 4 4 4 4 4 4 ",
"k k k k g g r r s s B.B.A.S.R.R._._._._.^.^.T.T.G.G.C.C.S.S.S.S.A.S.S.S.S.S.S.S.S.S.S.S.S.S.S.S.S.S.L.L.S.S.S.S.S.S.S.S.S.S.S.S.S.S.S.S.S.S.6.6.* * g g g g g g ",
"k k k k g g r r s s B.B.S.S.R.R._._._._.^.^.T.T.G.G.C.C.S.S.S.S.S.S.S.S.S.S.S.S.S.S.S.S.S.S.S.S.S.S.L.L.S.S.S.S.S.S.S.S.S.S.S.S.S.S.S.S.S.S.6.6.* * g g g g g g ",
"o.o.+.+.R R ; ; t.t.S.S.W.W._._.).).U.U.S.S.D.D.'.'.X X N.N.S.S.S.S.A.S.S.S.S.S.S.S.S.S.S.S.S.S.Z.Z.`.`.. . S.S.S.S.S.S.S.S.S.S.G.G.D.D.S.S.S.S.8 8 ( ( ( ( ( ( ",
"o.o.+.+.R R ; - t.t.S.S.W.W._._.).).U.U.S.S.D.D.'.'.X X N.N.S.S.S.S.S.S.S.S.S.S.S.S.S.S.S.S.S.S.Z.Z.`.`.. . S.S.S.S.S.S.S.S.S.S.G.G.D.D.S.S.S.S.8 8 ( ( ( ( ( ( ",
"+.+. . .R R * * Z.Z.S.S._._.(.(.D.D.S.S.S.S.S.S.< <     A.A.S.S.S.S.S.S.S.S.S.S.S.S.C.C.C.C.C.C.C.C.4.4.    S.S.S.S.S.S.S.S.S.S.P.P.~.~.D.D.S.S.3.3.+.+.+.+.&.&.",
"+.+. . .R R * * Z.Z.S.S._._.(.(.D.D.S.S.S.S.S.S.< <     A.A.S.S.S.S.S.S.S.S.S.S.S.S.C.C.C.C.C.C.C.C.4.4.    S.S.S.S.S.S.S.S.S.S.P.P.~.~.D.D.S.S.3.3.+.+.+.+.&.&.",
"4 4 4 4 4 4 -.-.S.S.T.T._._.U.U.S.S.Z.Z.S.S.C.C.. . , , v.v.v.v.c.c.c.c.c.c.c.c.c.c.c.c.c.c.c.c.c.c.> > > > C.C.v.v.v.v.v.v.C.C.D.D.(.(.Q.Q.S.S.N.N.&.&.&.&.( ( ",
"4 4 4 4 4 4 -.-.S.S.T.T._._.U.U.S.S.Z.Z.S.S.C.C.. . , , v.v.v.v.c.c.c.c.c.c.c.c.c.c.c.c.c.c.c.c.c.c.> > > > C.C.v.v.v.v.v.v.C.C.D.D.(.(.Q.Q.S.S.N.N.&.&.&.&.( ( ",
"g g g g d d -.-.S.S.T.T././.S.S.v.v.v.v.v.v.c.c.b.b.v.v.v.v.v.v.c.c.c.c.c.c.v.v.v.v.v.v.v.v.v.v.v.v.c.c.c.c.c.c.c.c.v.v.v.v.c.c.E.E._._.R.R.S.S.N.N.( ( V V g g ",
"g g g g d d -.-.S.S.T.T././.S.A.v.v.v.v.v.v.c.c.b.b.v.v.v.v.v.v.c.c.c.c.c.c.v.v.v.v.v.v.v.v.v.v.v.v.c.c.c.c.c.c.c.c.v.v.v.v.c.c.E.E._._.R.R.S.S.N.N.( ( V V g g ",
"&.&.&.&.+.+.# # S.S.U.U.T.T.C.C.v.v.v.v.c.c.c.c.c.c.c.c.c.c.c.c.c.c.c.c.c.c.c.c.c.c.c.c.c.c.c.c.c.c.c.c.c.c.c.c.c.c.c.c.v.v.c.c.(.(._._.!.!.S.S.2.2. . .o.o.#.#.",
"&.&.&.&.#.+.# # S.S.U.U.T.T.C.C.v.v.v.v.c.c.c.c.c.c.c.c.c.c.c.c.c.c.c.c.c.c.c.c.c.c.c.c.c.c.c.c.c.c.c.c.c.c.c.c.c.c.c.c.v.v.c.c.(.(._._.!.!.S.S.2.2. . .o.o.#.#.",
"$.$.$.$.$.$.* * m.m.S.S.S.S.S.S.v.v.c.c.c.c.c.c.c.c.c.c.c.c.c.c.c.c.c.c.c.c.c.c.c.c.c.c.c.c.c.c.c.c.c.c.c.c.c.c.c.c.c.c.v.v.v.v.!.!.(.(.D.D.S.S.q q $.&.$.$.o.+.",
"$.$.$.$.$.$.* * m.m.S.S.S.S.S.S.v.v.c.c.c.c.c.c.c.c.c.c.c.c.c.c.c.c.c.c.c.c.c.c.c.c.c.c.c.c.c.c.c.c.c.c.c.c.c.c.c.c.c.c.v.v.v.v.!.!.(.(.D.D.S.S.q q $.&.&.$.o.+.",
"a a 7 7 g g t t % % Z.Z.S.S.S.S.V.V.v.v.c.c.c.c.c.c.c.c.c.c.c.c.c.c.c.c.c.c.c.c.c.c.c.c.c.c.c.c.c.c.c.c.c.c.c.c.c.c.v.v.C.C.C.C.D.D.G.G.D.D.<.<.r r V V g g g g ",
"a a 7 7 g g t t % % Z.Z.S.S.S.S.V.V.v.v.c.c.c.c.c.c.c.c.c.c.c.c.c.c.c.c.c.c.c.c.c.c.c.c.c.c.c.c.c.c.c.c.c.c.c.c.c.c.v.v.C.C.C.C.D.D.G.G.D.D.<.<.r r V V g g g g ",
"$.$.( ( ( ( S S 8 8 0 0 N.N.S.S.S.S.S.S.S.S.C.C.C.C.C.C.V.V.V.V.C.C.C.C.C.C.C.C.V.V.M.M.M.M.M.M.M.M.M.M.V.V.Z.Z.Z.C.S.S.S.S.S.A.S.S.n.n.;.;.2 2 2 2 g g g g n n ",
"$.$.( ( ( ( S S 8 8 0 0 N.N.S.S.S.S.S.S.S.S.Z.C.C.C.C.C.V.V.V.V.C.C.C.C.C.C.C.C.V.V.M.M.M.M.M.M.M.M.M.M.V.V.Z.Z.C.C.S.S.S.S.S.S.S.S.n.n.;.;.2 2 2 2 g g g g n n ",
"g g a a a a 3 3 2 2 2 2 2 2 :.:.n.n.Z.Z.S.S.S.S.S.S.S.S.S.S.S.S.S.S.S.S.S.S.S.S.S.S.S.S.S.S.S.S.S.S.S.S.Z.Z.Z.Z.B.B.m.m.0.0.w w 8 8 8 8 0 0 9 9 9 9 #.#.#.#.&.&.",
"g g a a a a 3 3 2 2 2 2 2 2 :.:.n.n.Z.Z.S.S.S.S.S.S.S.S.S.S.S.S.S.S.S.S.S.S.S.S.S.S.S.S.S.S.S.S.S.S.S.S.Z.Z.Z.Z.B.B.m.m.0.0.w w 8 8 8 8 0 0 0 9 9 9 #.#.#.#.&.&.",
"a a 4 4 4 4 7 7 f f 5 5 5 5 5 5 9 9 9 9 9 9 A A >.>.5.5.7.7.9.9.w.w.6.6.5.5.>.>.w w 0 0 0 0 8 8 1 1 1 1 8 8 8 8 8 8 8 8 8 8 8 8 8 8 8 8 9 9 f f V V V V V V ) ) ",
"a a 4 4 4 4 7 7 f f 5 5 5 5 5 5 9 9 9 9 9 9 A A >.>.5.5.7.7.9.9.w.w.6.6.5.5.>.>.w w 0 0 0 0 8 8 1 1 1 1 8 8 8 8 8 8 8 8 8 8 8 8 8 8 8 8 9 9 f f V V V V V V ) ) ",
"R R o.o.#.#.&.&.&.&.&.&.&.&.&.&.&.&.&.&.&.&.&.&.&.&.&.&.&.&.&.&.&.&.&.&.&.&.&.&.&.&.&.&.&.&.( ( 4 4 4 4 ( ( ( ( ( ( ~ ( ( ( ) ) W W W W R R R R R R R R W W ( ( ",
"R R o.o.#.#.&.&.&.&.&.&.&.&.&.&.&.&.&.&.&.&.&.&.&.&.&.&.&.&.&.&.&.&.&.&.&.&.&.&.&.&.&.&.&.&.( ( 4 4 4 4 ( ( ( ( ( ( ~ ~ ( ( ) ) W W W W R R R R R R R R W W ( ( "
};
