/* XPM */
static const char *sprite2[] = {
/* columns rows colors chars-per-pixel */
"80 80 108 2 ",
"   c #000101",
".  c gray5",
"X  c #142434",
"o  c #14273C",
"O  c #332E2C",
"+  c #36312D",
"@  c #3A332F",
"#  c #2A333B",
"$  c #3C3530",
"%  c #353837",
"&  c #32393B",
"*  c #463527",
"=  c #483727",
"-  c #43372E",
";  c #493728",
":  c #4C3A29",
">  c #533E2C",
",  c #403731",
"<  c #433931",
"1  c #4C3E32",
"2  c #56412D",
"3  c #59432F",
"4  c #564333",
"5  c #5D4630",
"6  c #5C4832",
"7  c #5D4D3C",
"8  c #5F523D",
"9  c #604731",
"0  c #644A33",
"q  c #684D35",
"w  c #624D39",
"e  c #635037",
"r  c #343F42",
"t  c #354143",
"y  c #364548",
"u  c #2E4F5D",
"i  c #324A53",
"p  c #3F5B65",
"a  c #34596B",
"s  c #345E75",
"d  c #3B5F71",
"f  c #35627C",
"g  c #3A657F",
"h  c #414C4A",
"j  c #554F41",
"k  c #5D5343",
"l  c #52564E",
"z  c #47595B",
"x  c #495A5B",
"c  c #425C64",
"v  c #415F6A",
"b  c #41616E",
"n  c #2B5682",
"m  c #2C5887",
"M  c #2D5A8B",
"N  c #2E5E92",
"B  c #2F618E",
"V  c #346484",
"C  c #396681",
"Z  c #32658B",
"A  c #2E6195",
"S  c #2F639B",
"D  c #316595",
"F  c #396493",
"G  c #31679C",
"H  c #31689B",
"J  c #3067A2",
"K  c #336AA4",
"L  c #396FA9",
"P  c #3C71AA",
"I  c #416D9B",
"U  c #45709F",
"Y  c #4175AD",
"T  c #497DB4",
"R  c #5486BB",
"E  c #5688BD",
"W  c #5A8ABE",
"Q  c #5D8DC2",
"!  c #6291C5",
"~  c #6D98C6",
"^  c #6695C8",
"/  c #6897C9",
"(  c #6D9BCC",
")  c #6F9DCE",
"_  c #709ECF",
"`  c #729FD0",
"'  c #74A1D2",
"]  c #77A3D3",
"[  c #77A4D4",
"{  c #78A5D5",
"}  c #7BA7D7",
"|  c #B1B8BF",
" . c #BCBCBC",
".. c #80ABD8",
"X. c #82ADDB",
"o. c #83AEDC",
"O. c #84AEDC",
"+. c #85AFDD",
"@. c #85B0DE",
"#. c #86B1DF",
"$. c #87B2DF",
"%. c #88B2DF",
"&. c #88B2E0",
"*. c #89B3E0",
"=. c #89B3E1",
"-. c #8AB4E1",
";. c LightGray",
":. c #D8DADE",
/* pixels */
"q q q q q q q q q q q q q q q q q q q q q q = = ; = > > > > 3 3 0 0 0 0 0 0 q q q q q q q q q q q q q q q q q q q q q q q q q q q q q q q q q q q q q q q q q q ",
"q q q q q q q q q q q q q q q q q q q q q q = = ; = > > > > 3 3 0 0 0 0 0 0 q q q q q q q q q q q q q q q q q q q q q q q q q q q q q q q q q q q q q q q q q q ",
"q q q q 0 0 0 0 0 0 0 0 0 0 0 0 0 0 0 0 0 0 = = = = : : > > 3 3 3 3 3 3 5 5 5 5 9 9 9 9 5 5 9 9 0 0 0 0 0 0 q q q q q q q q q q q q q q q q q q q q q q q q q q ",
"q q q q 0 0 0 0 0 0 0 0 0 0 0 0 0 0 0 0 0 0 = = = = : : > > 3 3 3 3 3 3 5 5 5 5 9 9 9 9 5 5 9 9 0 0 0 0 0 0 q q q q q q q q q q q q q q q q q q q q q q q q q q ",
"; ; = = ; ; ; ; ; ; : : : : > > 2 2 5 5 3 3 = = ; ; 3 3 3 3 5 5 5 5 5 5 0 0 0 0 0 0 0 0 0 0 0 0 0 0 0 0 0 0 0 0 0 0 0 0 5 5 5 5 > > : : : : : : : : : : : : : : ",
"; ; = = ; ; ; ; ; ; : : : : > > 2 2 5 5 3 3 = = ; ; 3 3 3 3 5 5 5 5 5 5 0 0 0 0 0 0 0 0 0 0 0 0 0 0 0 0 0 0 0 0 0 0 0 0 5 5 5 5 > > : : : : : : : : : : : : : : ",
"> > 3 3 q q q q q q q q q q q q q q q q 9 9 = = : : 3 3 3 3 0 0 0 0 0 0 0 0 0 0 0 0 9 9 3 3 2 2 > > 2 2 2 2 > > > > > > : : : : : : : : : : 2 2 5 5 5 5 9 9 0 0 ",
"> > 3 3 q q q q q q q q q q q q q q q q 9 9 = = : : 3 3 3 3 0 0 0 0 0 0 0 0 0 0 0 0 9 9 3 3 2 2 > > 2 2 2 2 > > > > > > : : : : : : : : : : 2 2 5 5 5 5 9 9 0 0 ",
"0 0 0 0 9 9 0 0 0 0 0 0 q q q q 0 0 0 0 3 3 = = > > 0 0 q q q q q q 0 0 5 5 2 2 > > > > > > > 2 3 3 3 3 5 5 5 5 5 5 0 0 0 0 0 0 q q q q q q q q q q q q q q q q ",
"0 0 0 0 0 9 0 0 0 0 0 0 q q q q 0 0 0 0 3 3 = = > > 0 0 q q q q q q 0 0 5 5 2 2 > > > > > > 2 2 3 3 3 3 5 5 5 5 5 5 0 0 0 0 0 0 q q q q q q q q q q q q q q q q ",
"0 0 0 0 5 0 5 5 5 5 3 3 3 3 3 3 3 3 3 3 2 2 = = 2 2 0 0 0 0 0 0 5 5 > > 2 2 3 3 5 5 0 0 0 0 q q q q q q q q q q q q q q q q q q q q q q q q q q q q q q q q q q ",
"0 0 0 0 0 0 5 5 5 5 3 3 3 3 3 3 3 3 3 3 2 2 = = 2 2 0 0 0 0 0 0 5 5 > > 2 2 3 3 5 5 0 0 0 0 q q q q q q q q q q q q q q q q q q q q q q q q q q q q q q q q q q ",
"5 5 5 5 0 0 0 0 0 0 0 0 0 0 0 0 q q q q 5 5 = = 2 2 3 3 2 2 3 3 3 3 3 3 3 3 3 3 5 5 5 5 5 5 0 0 0 0 0 0 0 0 0 0 0 0 0 0 0 0 0 0 0 0 0 0 0 0 q q q q q q q q q q ",
"5 5 5 5 0 9 0 0 0 0 0 0 0 0 0 0 q q q q 5 5 = = 2 2 3 3 2 2 3 3 3 3 3 3 3 3 3 3 5 5 5 5 9 5 0 0 0 0 0 0 0 0 0 0 0 0 0 0 0 0 0 0 0 0 0 0 0 0 q q q q q q q q q q ",
"0 0 0 0 0 0 0 0 q q q q q q q q q q q q 5 5 = = > > 2 2 > > 2 2 > > 2 2 2 2 2 2 3 3 3 3 3 3 3 3 2 2 2 2 2 2 2 2 3 3 > > 2 2 2 2 3 3 3 3 3 3 5 5 5 5 5 5 5 5 5 5 ",
"0 0 0 0 0 0 0 0 q q q q q q q q q q q q 5 5 = = > > 2 2 > > 2 2 > > 2 2 2 2 2 2 3 3 3 3 3 3 3 3 2 2 2 2 2 2 2 2 3 3 > > 2 2 2 2 3 3 3 3 3 3 5 5 5 5 5 5 5 5 5 5 ",
"0 0 0 0 0 0 0 0 9 9 5 5 5 5 5 5 5 5 5 5 3 3 = = 2 2 q q q q q q q q 0 0 0 0 0 0 0 0 0 0 0 0 0 0 0 0 0 0 0 0 0 0 0 0 3 3 3 2 2 2 2 2 > > > > > > > > > > : : > > ",
"0 0 0 0 0 0 0 0 9 9 5 5 5 5 5 5 5 5 5 5 3 3 = = 2 3 q q q q q q q q 0 0 0 0 0 0 0 0 0 0 0 0 0 0 0 0 0 0 0 0 0 0 0 0 3 3 3 3 2 2 2 2 > > > > > > > > > > : : > > ",
"9 9 9 9 5 5 9 9 0 0 0 0 0 0 0 0 0 0 q q 5 5 = = 2 2 q q q q q q q q q q q q q q 0 0 0 0 0 0 0 0 0 0 0 0 0 0 0 0 0 0 0 0 0 0 5 5 0 0 0 0 0 0 0 0 q q q q q q q q ",
"9 9 9 9 5 5 5 5 0 0 0 0 0 0 0 0 0 0 q q 5 5 = = 2 2 q q q q q q q q q q q q q q 0 0 0 0 0 0 0 0 0 0 0 0 0 0 0 0 0 0 0 0 0 0 0 0 0 0 0 0 0 0 0 0 q q q q q q q q ",
"q q q q q q q q q q q q q q q q q q q q 5 5 * * ; ; q q q q q q q q q q q q q q 0 0 0 0 0 0 0 0 0 0 0 0 q q q q q q q q q q q q q q q q q q q q q q q q q q q q ",
"q q q q q q q q q q q q q q q q q q q q 5 5 * * ; ; q q q q q q q q q q q q q q 0 0 0 0 0 0 0 0 0 0 0 0 q q q q q q q q q q q q q q q q q q q q q q q q q q q q ",
"q q q q q q q q q q q q q q q q q q q q 2 2 = = ; ; q q q q q q q q q q q q q q q q q q q q q q q q q q q q q q q q q q q q q q q q 0 0 0 0 0 0 0 0 0 0 0 0 0 0 ",
"q q q q q q q q q q q q q q q q q q q q 2 2 = = ; ; q q q q q q q q q q q q q q q q q q q q q q q q q q q q q q q q q q q q q q q q 0 0 0 0 0 0 0 0 0 0 0 0 0 0 ",
"q q q q 5 5 3 3 > > > > : : = = = = = = = = = = ; ; ; ; ; ; : : : : : : : : : : ; ; ; ; : ; ; ; ; ; ; ; ; ; ; ; ; ; ; ; : : ; ; : : : : : : : : : : : : = = = = ",
"q q q q 5 5 3 3 > > > > : : = = = = = = = = = = ; ; ; ; ; ; : : : : : : : : : : ; ; ; ; ; ; ; ; ; ; ; ; ; ; ; ; ; ; ; ; : : : : : : : : : : : : : : : : = = = = ",
": : ; ; = = = = = = ; ; ; ; ; ; > > : : : : ; ; : : > > 3 3 3 3 5 5 5 5 5 5 5 5 5 5 5 5 0 0 0 0 0 0 0 0 0 0 0 0 0 0 0 0 0 0 0 0 0 0 0 0 0 0 0 0 0 0 0 0 > > = = ",
": : ; ; = = = = = = ; ; ; ; ; ; > > : : : : ; ; : : > > 3 3 3 3 5 5 5 5 5 5 5 5 5 5 5 5 0 0 0 0 0 0 0 0 0 0 0 0 0 0 0 0 0 0 0 0 0 0 0 0 0 0 0 0 0 0 0 0 > > = = ",
"0 0 0 0 q q q q q q q q q q q q q q q q q q 0 0 q q q q q q q q 0 q q q q q q q q q q q q q q q q q q q q q q q q q q q q q q q q q q q q q q q q q q q 0 0 = = ",
"0 0 0 0 q q q q q q q q q q q q q q q 0 q q 0 0 q q q q q q q q 0 q q q q q q q q q q q q q q q q q q q q q q q q q q q q q q q q q q q q q q q q q q q 0 0 = = ",
"0 0 5 5 5 5 5 5 5 5 5 5 5 5 5 5 5 5 5 5 0 0 0 0 0 0 0 0 0 0 0 0 0 0 0 0 0 0 0 0 0 0 0 0 0 0 0 0 q q q q q q q q q q q q q q q q q q q q q q q q q q q q 0 0 = = ",
"0 0 5 5 5 5 5 5 5 5 5 5 5 5 5 5 5 5 5 5 0 0 0 0 0 0 0 0 0 0 0 0 0 0 0 0 0 0 0 0 0 0 0 0 0 0 0 0 q q q q q q q q q q q q q q q q q q q q q q q q q q q q 0 0 = = ",
"q q 0 0 0 0 0 0 0 0 0 0 0 0 0 0 0 0 0 0 0 0 0 0 0 0 q q q q q q q q q q q q 8 8 k k w w 0 0 0 0 0 0 q 0 0 0 0 0 0 0 0 0 0 0 5 5 5 5 5 5 5 5 3 3 3 3 3 3 > > = = ",
"q q 0 0 0 0 0 0 0 0 0 0 0 0 0 0 0 0 0 0 0 0 0 0 0 0 q q q q q q q q q q q q 8 8 k k w w 0 0 0 0 0 0 0 0 0 0 0 0 0 0 0 0 0 0 5 5 5 5 5 5 5 5 3 3 3 3 3 3 > > = = ",
"q q q q q q q q q q q q q q q q q q q q q q q q q q q q q q q q k k V V J J J J J J J J D D v v j j 5 5 5 5 5 5 5 5 5 5 5 5 3 3 3 3 2 2 2 2 2 2 2 2 2 2 > > = = ",
"q q q q q q q q q q q q q q q q q q q q q q q q q q q q q q q q k k V V J J J J J J J J D D v v j j 5 5 5 5 5 5 5 5 5 5 5 5 3 3 3 3 2 2 2 2 2 2 2 2 2 2 > > = = ",
"q q q q q q 0 0 0 0 0 0 0 0 0 0 0 0 0 0 0 0 0 0 0 0 0 0 7 7 J J J J J J J J J J J J J J J J J J J J b b q q q q q q q q q q q q 0 0 2 2 > > > > > > > > : : = = ",
"q q q q q q 0 0 0 0 0 0 0 0 0 0 0 0 0 0 0 0 0 0 0 0 0 0 7 7 J J J J J J J J J J J J J J J J J J J J b b q q q q q q q q q q q q 0 0 2 2 > > > > > > > > : : = = ",
"5 5 5 5 5 5 3 3 3 3 3 3 3 3 5 5 5 5 5 5 9 9 9 9 5 5 z z J J J J L L ! ! [ [ { { ' ' ^ ^ W W P P J J J J g g e e q q q q q q q q q q q q q q q q q q q q 5 5 = = ",
"5 5 5 5 5 5 3 3 3 3 3 3 3 3 5 5 5 5 5 5 9 9 9 9 5 5 z z J J J J L L ! ! [ [ { { ' ' ^ ^ W W P P J J J J g g e e q q q q q q q q q q q q q q q q q q q q 5 5 = = ",
"2 2 3 3 3 3 2 2 > > > > > > > > > > > > > > 2 2 p p J J J J / / =.=.-.-.$.$.$.$.o.o.W W P P K K J J J J J J Z Z 8 8 q q q q q q q q q q q q q q q q 0 0 3 3 = = ",
"2 2 3 3 3 3 2 2 > > > > > > > > > > > > > > 2 2 p p J J J J / / =.=.-.-.$.$.$.$.o.o.W W P P K K J J J J J J Z Z 8 8 q q q q q q q q q q q q q q q q 0 0 3 3 = = ",
"0 0 0 0 q q q q q q q q 0 0 0 0 0 0 9 9 5 5 c c J J K K $.$.-.-.=.=.X.X.' ' E E J J J J J J J J J J J J J J J J H H x x 0 0 0 0 0 0 0 0 0 0 0 0 0 0 0 0 2 2 = = ",
"0 0 0 0 q q q q q q q q 0 0 0 0 0 0 9 9 5 5 c c J J K K $.$.-.-.=.=.X.X.' ' E E J J J J J J J J J J J J J J J J H H x x 0 0 0 0 0 0 0 0 0 0 0 0 0 0 0 0 2 2 = = ",
"0 0 0 0 0 0 0 0 9 9 5 5 5 5 5 5 5 5 3 3 p p J J Y Y =.=.-.-.+.+.[ [ T T J J J J J J J J J J J J J J J J J J J J J J J J v v 5 5 5 5 5 5 9 9 9 9 5 5 5 5 > > = = ",
"0 0 0 0 0 0 0 0 9 9 5 5 5 5 5 5 5 5 3 3 p p J J Y Y =.=.-.-.+.+.[ [ T T J J J J J J J J J J J J J J J J J J J J J J J J v v 5 5 5 5 5 5 5 9 9 9 5 5 5 5 > > = = ",
"5 5 5 5 5 5 5 5 5 5 5 5 9 9 5 5 9 9 x x J J L L $.$.=.=.! ! P P J J J J J J J J J J J J J J J J J J J J J J J J J J J J J J c c 0 0 0 0 0 0 0 0 0 0 0 0 > > ; ; ",
"5 5 5 5 5 5 5 5 5 5 5 5 9 9 5 5 9 9 x x J J L L $.$.=.=.! ! P P J J J J J J J J J J J J J J J J J J J J J J J J J J J J J J c c 0 0 0 0 0 0 0 0 0 0 0 0 > > ; ; ",
"q q q q q q q q q q q q q q q q k k J J J J ` ` { { J J J J J J G G S S S S A A N N S S S S J J J J J J J J J J J J J J J J J J k k q q q q q q q q q q > > ; ; ",
"q q q q q q q q q q q q q q q q k k J J J J ` ` { { J J J J J J G G S S S S A A N N S S S S J J J J J J J J J J J J J J J J J J k k q q q q q q q q q q > > ; ; ",
"0 0 0 0 q q q q q q q q q q q q G G J J Q Q ) ) J J J J S S S S N N N N N N A A A A A A A A A A S S S S J J J J J J J J J J J J C C q q q q q q q q q q > > ; ; ",
"0 0 0 0 q q q q q q q q q q q q G G J J Q Q ) ) J J J J S S S S N N N N N N A A A A A A A A A A S S S S J J J J J J J J J J J J C C q q q q q q q q q q > > ; ; ",
"5 5 5 5 5 5 5 5 5 5 3 3 3 3 f f J J Y Y _ _ K K G G S S :.:.# # N N N N M M m m m m m m m m m m | | X X M M S S S S J J J J J J J J l l 0 0 0 0 0 0 5 5 : : ; ; ",
"5 5 5 5 5 5 5 5 5 5 3 3 3 3 f f J J Y Y _ _ K K S S S S :.:.# # N N N N M M m m m m m m m m m m | | X X M M D D S S J J J J J J J J l l 0 0 0 0 0 0 0 0 : : ; ; ",
"0 0 0 0 0 0 0 0 0 0 0 0 7 7 J J J J Q Q T T S S S S N N ;.;.. . n n m m m m m m m m m m m m m m  . .    m m m m M M S S J J J J J J C C q q 0 0 q q q q > > > > ",
"0 0 0 0 0 0 0 0 0 0 0 0 7 7 J J J J Q Q T T S S S S N N ;.;.. . n n m m m m m m m m m m m m m m  . .    m m m m M M S S J J J J J J C C q q 0 0 q q q q > > > > ",
"= = = = = = ; ; ; ; : : f f J J P P R R S S N N N N m m         m m m m m m m m m m m m m m m m         m m m m m m m m N N J J J J J J h h ; ; ; ; = = = = = = ",
"= = = = = = ; ; ; ; : : f f J J P P R R S S N N N N m m         m m m m m m m m m m m m m m m m         m m m m m m m m N N J J J J J J h h ; ; ; ; = = = = = = ",
"; ; = = = = = = = = ; ; H H J J Y Y P P N N N N m m m m X X X X m m m m m m m m m m m m m m m m X X o o m m m m m m m m m m D D J J J J s s = = = = = = = = = = ",
"; ; = = = = = = = = ; ; H H J J Y Y P P N N N N m m m m X X X X m m m m m m m m m m m m m m m m X X o o m m m m m m m m m m D D J J J J s s = = = = = = = = = = ",
"0 0 0 0 0 0 0 0 0 0 0 0 J J J J K K S S M M m m m m m m m m m m m m m m m m m m m m m m m m m m m m m m m m m m m m m m m m W W P P J J H H 0 0 9 0 5 5 5 5 5 5 ",
"0 0 0 0 0 0 0 0 0 0 0 0 J J J J K K S S M M m m m m m m m m m m m m m m m m m m m m m m m m m m m m m m m m m m m m m m m m W W P P J J H H 0 0 0 0 5 5 5 5 5 5 ",
"0 0 0 0 0 0 9 9 5 5 5 5 G G J J J J S S m m m m m m m m m m m m m m m m m m m m m m m m m m m m m m m m m m m m m m m m F F ....Y Y J J J J w w 0 0 q 0 q q q q ",
"0 0 0 0 0 0 9 9 5 5 5 5 G G J J J J S S m m m m m m m m m m m m m m m m m m m m m m m m m m m m m m m m m m m m m m m m F F ....Y Y J J J J w w q 0 0 0 q q q q ",
"> > : : : : : : : : : : V V J J J J J J M M m m m m m m m m m m m m m m m m m m m m m m m m m m m m m m m m m m m m m m %.%.=.=.J J J J G G q q q q q q q q q q ",
"> > : : : : : : : : : : V V J J J J J J M M m m m m m m m m m m m m m m m m m m m m m m m m m m m m m m m m m m m m m m %.%.=.=.J J J J G G q q q q q q q q q q ",
"q q q q q q q q q q q q l l J J J J S S S S M M m m m m m m m m m m m m m m m m m m m m m m m m m m m m m m m m I I =.=.-.-.( ( J J J J d d 5 5 5 5 5 5 5 5 5 5 ",
"q q q q q q q q q q q q l l J J J J S S S S M M m m m m m m m m m m m m m m m m m m m m m m m m m m m m m m m m I I =.=.-.-.( ( J J J J d d 5 5 5 5 5 5 5 5 5 5 ",
"q q q q q q q q q q q q 1 1 V V J J J J S S N N M M m m m m m m m m m m m m m m m m m m m m m m m m m m m m U U ~ ~ +.+.W W J J J J J J t t 0 0 0 0 0 0 q q q q ",
"q q q q q q q q q q q q 1 1 V V J J J J S S N N M M m m m m m m m m m m m m m m m m m m m m m m m m m m m m U U ~ ~ +.+.W W J J J J J J t t 0 0 0 0 0 0 q q q q ",
"q q q q q q q q q q < < $ $ $ $ V V J J J J J J S S N N N N M M M M m M m m m m m m m m M M N N N N N N A A S S J J J J J J J J J J a a $ $ 1 1 0 0 q q q q q q ",
"q q q q q q q q q q < < $ $ $ $ V V J J J J J J S S N N N N M M M M m M m m m m m m m m M M N N N N N N A A S S J J J J J J J J J J a a $ $ 1 1 0 0 q q q q q q ",
"5 5 5 5 3 3 3 3 3 3 O O O O O O O O i i Z Z J J J J J J S S S S A A A A A A A A A A S S S S S S S S J J J J J J J J J J J J V V r r + + + + + + - - 3 3 3 3 3 3 ",
"5 5 5 5 3 3 3 3 3 3 O O O O O O O O i i Z Z J J J J J J S S S S A A A A A A A A A A A S S S S S S S J J J J J J J J J J J J V V r r + + + + + + - - 3 3 3 3 3 3 ",
"q q q q q q q q q q 0 0 < < @ @ @ @ @ @ @ @ @ @ y y a a f f Z Z A A A A B B B B B B D D Z Z V V s s u u r r % % t t & & O O O O O O O O O O @ @ : : > > > > 2 2 ",
"q q q q q q q q q q 0 0 < < @ @ @ @ @ @ @ @ @ @ y y a a f f Z Z A A A A B B B B B B D D Z Z V V s s u u r r % % t t & & O O O O O O O O O O @ @ : : > > > > 2 2 ",
"5 5 5 5 0 0 0 0 0 0 0 0 0 0 5 5 1 1 < < , , $ $ $ $ $ $ @ @ < < 1 1 1 1 < < < < < < < < < < < < + + O O < < < < 1 1 1 1 1 1 1 1 1 1 4 4 0 0 q q q q q q q q q q ",
"5 5 5 5 0 0 0 0 0 0 0 0 0 0 5 5 1 1 < < , , $ $ $ $ $ $ @ @ < < 1 1 1 1 < < < < < < < < < < < < + + O O < < < < 1 1 1 1 1 1 1 1 1 1 4 4 0 0 q q q q q q q q q q ",
"2 2 > > > > > > > > > > > > > > > > > > > > : : : : > : > > 2 2 5 5 0 0 q q q q q q q q q q q q > > ; ; 0 0 q q q q q q q q q q q q q q q q q q 0 0 0 0 0 0 0 0 ",
"2 2 > > > > > > > > > > > > > > > > > > > > : : : : > > > > 2 2 5 5 0 0 q q q q q q q q q q q q > > ; ; 0 0 q q q q q q q q q q q q q q q q q q 0 0 0 0 0 0 0 0 "
};
