/* XPM */
static const char *sprite4[] = {
/* columns rows colors chars-per-pixel */
"80 80 101 2 ",
"   c #010101",
".  c #0A1622",
"X  c #101D29",
"o  c #282828",
"O  c #302C29",
"+  c #3C332C",
"@  c #463527",
"#  c #483727",
"$  c #41362E",
"%  c #493728",
"&  c #42382F",
"*  c #4D3A2A",
"=  c #533E2C",
"-  c #413730",
";  c #433930",
":  c #4C3E32",
">  c #56412D",
",  c #5A432F",
"<  c #4F4032",
"1  c #544131",
"2  c #5D4631",
"3  c #514E3E",
"4  c #5E4E3E",
"5  c #5F533F",
"6  c #604731",
"7  c #644A33",
"8  c #684D35",
"9  c #644F39",
"0  c #62513B",
"q  c #162C43",
"w  c #152E48",
"e  c #17324E",
"r  c #1A344F",
"t  c #3F637B",
"y  c gray26",
"u  c #5F4F40",
"i  c #565444",
"p  c #5A5246",
"a  c #54514A",
"s  c #5A554B",
"d  c #4F5A5D",
"f  c #555854",
"g  c #51595A",
"h  c #615141",
"j  c #445A66",
"k  c #4B5B62",
"l  c #465F6D",
"z  c #436173",
"x  c #2C5887",
"c  c #2C5A8A",
"v  c #2E5E92",
"b  c #356283",
"n  c #3A6585",
"m  c #36668D",
"M  c #386588",
"N  c #2E6096",
"B  c #2F639B",
"V  c #346793",
"C  c #31679B",
"Z  c #31689E",
"A  c #2F66A0",
"S  c #3067A2",
"D  c #346AA5",
"F  c #3A6DA5",
"G  c #3C71AA",
"H  c #4075AD",
"J  c #4877A9",
"K  c #4878AC",
"L  c #4679B1",
"P  c #4B7EB5",
"I  c #4F81B7",
"U  c #5587BC",
"Y  c #5A8BBF",
"T  c #598ABF",
"R  c #5B8CC0",
"E  c #5C8DC1",
"W  c #6090C3",
"Q  c #6695C8",
"!  c #6796C9",
"~  c #6998CA",
"^  c #72A0D0",
"/  c #74A1D2",
"(  c #75A2D2",
")  c #76A2D3",
"_  c #79A6D5",
"`  c #7CA8D7",
"'  c #8D8D8D",
"]  c #B8B8B9",
"[  c #80ACDA",
"{  c #81ACDB",
"}  c #83AEDC",
"|  c #84AFDD",
" . c #86B1DE",
".. c #88B2DF",
"X. c #88B2E0",
"o. c #89B3E0",
"O. c #89B3E1",
"+. c #8AB4E1",
"@. c #DEDFE1",
"#. c #ECEDEF",
"$. c white",
/* pixels */
"8 8 8 8 8 8 8 8 8 8 8 8 8 8 8 8 8 8 8 8 8 8 # # % # = = = = , , 7 7 7 7 7 7 8 8 8 8 8 8 8 8 8 8 8 8 8 8 8 8 8 8 8 8 8 8 8 8 8 8 8 8 8 8 8 8 8 8 8 8 8 8 8 8 8 8 ",
"8 8 8 8 8 8 8 8 8 8 8 8 8 8 8 8 8 8 8 8 8 8 # # % # = = = = , , 7 7 7 7 7 7 8 8 8 8 8 8 8 8 8 8 8 8 8 8 8 8 8 8 8 8 8 8 8 8 8 8 8 8 8 8 8 8 8 8 8 8 8 8 8 8 8 8 ",
"8 8 8 8 7 7 7 7 7 7 7 7 7 7 7 7 7 7 7 7 7 7 # # # # * * = = , , , , , , 2 2 2 2 6 6 6 6 2 2 6 6 7 7 7 7 7 7 8 8 8 8 8 8 8 8 8 8 8 8 8 8 8 8 8 8 8 8 8 8 8 8 8 8 ",
"8 8 8 8 7 7 7 7 7 7 7 7 7 7 7 7 7 7 7 7 7 7 # # # # * * = = , , , , , , 2 2 2 2 6 6 6 6 2 2 6 6 7 7 7 7 7 7 8 8 8 8 8 8 8 8 8 8 8 8 8 8 8 8 8 8 8 8 8 8 8 8 8 8 ",
"% % # # % % % % % % * * * * = = > > 2 2 , , # # % % , , , , 2 2 2 2 2 2 7 7 7 7 7 7 7 7 7 7 7 7 7 7 7 7 7 7 7 7 7 7 7 7 2 2 2 2 = = * * * * * * * * * * * * * * ",
"% % # # % % % % % % * * * * = = > > 2 2 , , # # % % , , , , 2 2 2 2 2 2 7 7 7 7 7 7 7 7 7 7 7 7 7 7 7 7 7 7 7 7 7 7 7 7 2 2 2 2 = = * * * * * * * * * * * * * * ",
"= = , , 8 8 8 8 8 8 8 8 8 8 8 8 8 8 8 8 6 6 # # * * , , , , 7 7 7 7 7 7 7 7 7 7 7 7 6 6 , , > > = = > > > > = = = = = = * * * * * * * * * * > > 2 2 2 2 6 6 7 7 ",
"= = , , 8 8 8 8 8 8 8 8 8 8 8 8 8 8 8 8 6 6 # # * * , , , , 7 7 7 7 7 7 7 7 7 7 7 7 6 6 , , > > = = > > > > = = = = = = * * * * * * * * * * > > 2 2 2 2 6 6 7 7 ",
"7 7 7 7 6 6 7 7 7 7 7 7 8 8 8 8 7 7 7 7 , , # # = = 7 7 8 8 8 8 8 8 7 7 2 2 > > = = = = = = = > , , , , 2 2 2 2 2 2 7 7 7 7 7 7 8 8 8 8 8 8 8 8 8 8 8 8 8 8 8 8 ",
"7 7 7 7 7 7 7 7 7 7 7 7 8 8 8 8 7 7 7 7 , , # # = = 7 7 8 8 8 8 8 8 7 7 2 2 > > = = = = = = > > , , , , 2 2 2 2 2 2 7 7 7 7 7 7 8 8 8 8 8 8 8 8 8 8 8 8 8 8 8 8 ",
"7 7 7 7 2 7 2 2 2 2 , , , , , , , , , , > > # # > > 7 7 7 7 7 7 2 2 = = > > , , 2 2 7 7 7 7 8 8 8 8 8 8 8 8 8 8 8 8 8 8 8 8 8 8 8 8 8 8 8 8 8 8 8 8 8 8 8 8 8 8 ",
"7 7 7 7 7 7 2 2 2 2 , , , , , , , , , , > > # # > > 7 7 7 7 7 7 2 2 = = > > , , 2 2 7 7 7 7 8 8 8 8 8 8 8 8 8 8 8 8 8 8 8 8 8 8 8 8 8 8 8 8 8 8 8 8 8 8 8 8 8 8 ",
"2 2 2 2 7 7 7 7 7 7 7 7 7 7 7 7 8 8 8 8 2 2 # # > > , , > > , , , , , , , , , , 2 2 2 2 2 2 7 7 7 7 7 7 7 7 7 7 7 7 7 7 7 7 7 7 7 7 7 7 7 7 8 8 8 8 8 8 8 8 8 8 ",
"2 2 2 2 7 6 7 7 7 7 7 7 7 7 7 7 8 8 8 8 2 2 # # > > , , > > , , , , , , , , , , 2 2 2 2 6 2 7 7 7 7 7 7 7 7 7 7 7 7 7 7 7 7 7 7 7 7 7 7 7 7 8 8 8 8 8 8 8 8 8 8 ",
"7 7 7 7 7 7 7 7 8 8 8 8 8 8 8 8 8 8 8 8 2 2 # # = = > > = = > > = = > > > > > > , , , , , , , , > > > > > > > > , , = = > > > > , , , , , , 2 2 2 2 2 2 2 2 2 2 ",
"7 7 7 7 7 7 7 7 8 8 8 8 8 8 8 8 8 8 8 8 2 2 # # = = > > = = > > = = > > > > > > , , , , , , , , > > > > > > > > , , = = > > > > , , , , , , 2 2 2 2 2 2 2 2 2 2 ",
"7 7 7 7 7 7 7 7 6 6 2 2 2 2 2 2 2 2 2 2 , , # # > > 8 8 8 8 8 8 8 8 7 7 7 7 7 7 7 7 7 7 7 7 7 7 7 7 7 7 7 7 7 7 7 7 , , , > > > > > = = = = = = = = = = * * = = ",
"7 7 7 7 7 7 7 7 6 6 2 2 2 2 2 2 2 2 2 2 , , # # > > 8 8 8 8 8 8 8 8 7 7 7 7 7 7 7 7 7 7 7 7 7 7 7 7 7 7 7 7 7 7 7 7 , , , , > > > > = = = = = = = = = = * * = = ",
"6 6 6 6 2 2 6 6 7 7 7 7 7 7 7 7 7 7 8 8 2 2 # # > > 8 8 8 8 8 8 8 8 f f t t V V C C C C n n a a 7 7 7 7 7 7 7 7 7 7 7 7 7 7 2 2 7 7 7 7 7 7 7 7 8 8 8 8 8 8 8 8 ",
"6 6 6 6 2 2 2 2 7 7 7 7 7 7 7 7 7 7 8 8 2 2 # # > > 8 8 8 8 8 8 8 8 f f t t V V C C C C n n a a 7 7 7 7 7 7 7 7 7 7 7 7 7 7 7 7 7 7 7 7 7 7 7 7 8 8 8 8 8 8 8 8 ",
"8 8 8 8 8 8 8 8 8 8 8 8 8 8 8 8 8 8 8 8 2 2 @ @ % % 8 8 8 8 0 0 n n D D P P R R ^ ^ R R H H S S V V u u 8 8 8 8 8 8 8 8 8 8 8 8 8 8 8 8 8 8 8 8 8 8 8 8 8 8 8 8 ",
"8 8 8 8 8 8 8 8 8 8 8 8 8 8 8 8 8 8 8 8 2 2 @ @ % % 8 8 8 8 0 0 n n D D P P R R ^ ^ R R H H S S V V u u 8 8 8 8 8 8 8 8 8 8 8 8 8 8 8 8 8 8 8 8 8 8 8 8 8 8 8 8 ",
"8 8 8 8 8 8 8 8 8 8 8 8 8 8 8 8 8 8 8 8 > > # # % % 8 8 0 0 C C P P  . .O.O.O.O.` ` T T L L S S S S A A s s 8 8 8 8 8 8 8 8 8 8 8 8 7 7 7 7 7 7 7 7 7 7 7 7 7 7 ",
"8 8 8 8 8 8 8 8 8 8 8 8 8 8 8 8 8 8 8 8 > > # # % % 8 8 0 0 C C P P  . .O.O.O.O.` ` T T L L S S S S A A s s 8 8 8 8 8 8 8 8 8 8 8 8 7 7 7 7 7 7 7 7 7 7 7 7 7 7 ",
"8 8 8 8 2 2 , , = = = = * * # # # # # # # # # # % % * * C C W W O.O.+.+.O.O.{ { D D S S S S S S S S S S S S % % % % % % * * % % * * * * * * * * * * * * # # # # ",
"8 8 8 8 2 2 , , = = = = * * # # # # # # # # # # % % * * C C W W O.O.+.+.O.O.{ { D D S S S S S S S S S S S S % % % % % % * * * * * * * * * * * * * * * * % # # # ",
"* * % % # # # # # # % % % % % % = = * * * * % % * * M M I I ....+.+.O.O.) ) G G S S S S S S S S S S S S S S V V 7 7 7 7 7 7 7 7 7 7 7 7 7 7 7 7 7 7 7 7 = = # # ",
"* * % % # # # # # # % % % % % % = = * * * * % % * * M M I I ....+.+.O.O.) ) G G S S S S S S S S S S S S S S V V 7 7 7 7 7 7 7 7 7 7 7 7 7 7 7 7 7 7 7 7 = = # # ",
"7 7 7 7 8 8 8 8 8 8 8 8 8 8 8 8 8 8 8 8 8 8 7 7 d d G G _ _ ....) ) P P S S S S S S S S S S S S S S S S S S S S f f 8 8 8 8 8 8 8 8 8 8 8 8 8 8 8 8 8 8 7 7 # # ",
"7 7 7 7 8 8 8 8 8 8 8 8 8 8 8 8 8 8 8 7 8 8 7 7 d d G G _ _ ....) ) P P S S S S S S S S S S S S S S S S S S S S f f 8 8 8 8 8 8 8 8 8 8 8 8 8 8 8 8 8 8 7 7 # # ",
"7 7 2 2 2 2 2 2 2 2 2 2 2 2 2 2 2 2 2 2 7 7 7 7 m m U U } } T T S S S S S S S S S S S S S S S S S S S S S S S S m m 8 8 8 8 8 8 8 8 8 8 8 8 8 8 8 8 8 8 7 7 # # ",
"7 7 2 2 2 2 2 2 2 2 2 2 2 2 2 2 2 2 2 2 7 7 7 7 m m U U } } T T S S S S S S S S S S S S S S S S S S S S S S S S m m 8 8 8 8 8 8 8 8 8 8 8 8 8 8 8 8 8 8 7 7 # # ",
"8 8 7 7 7 7 7 7 7 7 7 7 7 7 7 7 7 7 7 7 7 7 p p S S U U ) ) S S S S S S S S S S S S S S S S S S S S S S S S S S S S 4 4 7 7 2 2 2 2 2 2 2 2 , , , , , , = = # # ",
"8 8 7 7 7 7 7 7 7 7 7 7 7 7 7 7 7 7 7 7 7 7 p p S S U U ) ) S S S S S S S S S S S S S S S S S S S S S S S S S S S S 4 4 7 7 2 2 2 2 2 2 2 2 , , , , , , = = # # ",
"8 8 8 8 8 8 8 8 8 8 8 8 8 8 8 8 8 8 8 8 8 8 l l S S W W I I #.#.X X B B S S S S S S S S S S F F @.@.. . S S S S S S j j 2 2 , , , , > > > > > > > > > > = = # # ",
"8 8 8 8 8 8 8 8 8 8 8 8 8 8 8 8 8 8 8 8 8 8 l l S S W W I I #.#.X X B B S S S S S S S S S S F F @.@.. . S S S S S S j j 2 2 , , , , > > > > > > > > > > = = # # ",
"8 8 8 8 8 8 7 7 7 7 7 7 7 7 7 7 7 7 7 7 7 7 n n S S E E D D $.$.y y N N S S S S S S S S S S D D $.$.o o S S S S S S n n 8 8 8 8 7 7 > > = = = = = = = = * * # # ",
"8 8 8 8 8 8 7 7 7 7 7 7 7 7 7 7 7 7 7 7 7 7 n n S S E E D D $.$.y y N N S S S S S S S S S S D D $.$.o o S S S S S S n n 8 8 8 8 7 7 > > = = = = = = = = * * # # ",
"2 2 2 2 2 2 , , , , , , , , 2 2 2 2 2 2 6 6 C C D D L L S S ] ]     A A S S S S B B B B S S A A ' '     S S S S S S m m 8 8 8 8 8 8 8 8 8 8 8 8 8 8 8 8 2 2 # # ",
"2 2 2 2 2 2 , , , , , , , , 2 2 2 2 2 2 6 6 C C D D L L S S ] ]     A A S S S S B B B B S S A A ' '     S S S S S S m m 8 8 8 8 8 8 8 8 8 8 8 8 8 8 8 8 2 2 # # ",
"> > , , , , > > = = = = = = = = = = = = = = S S S S S S S S         N N v v c c x x c c v v B B         S S P P L L V V 8 8 8 8 8 8 8 8 8 8 8 8 8 8 7 7 , , # # ",
"> > , , , , > > = = = = = = = = = = = = = = S S S S S S S S         N N v v c c x x c c v v B B         S S P P L L V V 8 8 8 8 8 8 8 8 8 8 8 8 8 8 7 7 , , # # ",
"7 7 7 7 8 8 8 8 8 8 8 8 7 7 7 7 7 7 6 6 2 2 S S S S S S S S w w r r c c x x x x x x x x c c c c q q e e S S Q Q T T V V 7 7 7 7 7 7 7 7 7 7 7 7 7 7 7 7 > > # # ",
"7 7 7 7 8 8 8 8 8 8 8 8 7 7 7 7 7 7 6 6 2 2 S S S S S S S S w w r r c c x x x x x x x x c c c c q q e e S S Q Q T T V V 7 7 7 7 7 7 7 7 7 7 7 7 7 7 7 7 > > # # ",
"7 7 7 7 7 7 7 7 6 6 2 2 2 2 2 2 2 2 , , > > C C S S S S S S v v c c x x x x x x x x x x x x c c c c B B D D | | ~ ~ V V 2 2 2 2 2 2 2 2 6 6 6 6 2 2 2 2 = = # # ",
"7 7 7 7 7 7 7 7 6 6 2 2 2 2 2 2 2 , , 2 > > C C S S S S S S v v c c x x x x x x x x x x x x c c c c B B D D | | ~ ~ V V 2 2 2 2 2 2 2 2 2 6 6 6 2 2 2 2 = = # # ",
"2 2 2 2 2 2 2 2 2 2 2 2 6 6 2 2 6 6 6 6 2 2 V V S S S S S S c c x x x x x x x x x x x x x x x x c c c c F F O.O.Q Q M M 2 2 7 7 7 7 7 7 7 7 7 7 7 7 7 7 = = % % ",
"2 2 2 2 2 2 2 2 2 2 2 2 6 6 2 2 6 6 6 6 2 2 V V S S S S S S c c x x x x x x x x x x x x x x x x c c c c F F O.O.Q Q M M 2 2 7 7 7 7 7 7 7 7 7 7 7 7 7 7 = = % % ",
"8 8 8 8 8 8 8 8 8 8 8 8 8 8 8 8 8 8 8 8 8 8 d d S S S S N N x x x x x x x x x x x x x x x x x x x x c c F F { { D D z z 8 8 8 8 8 8 8 8 8 8 8 8 8 8 8 8 = = % % ",
"8 8 8 8 8 8 8 8 8 8 8 8 8 8 8 8 8 8 8 8 8 8 d d S S S S N N x x x x x x x x x x x x x x x x x x x x c c F F { { D D z z 8 8 8 8 8 8 8 8 8 8 8 8 8 8 8 8 = = % % ",
"7 7 7 7 8 8 8 8 8 8 8 8 8 8 8 8 8 8 8 8 8 8 8 8 S S S S v v c c x x x x x x x x x x x x x x x x x x c c J J Q Q S S 5 5 8 8 8 8 8 8 8 8 8 8 8 8 8 8 8 8 = = % % ",
"7 7 7 7 8 8 8 8 8 8 8 8 8 8 8 8 8 8 8 8 8 8 8 8 S S S S v v c c x x x x x x x x x x x x x x x x x x c c J J Q Q S S 5 5 8 8 8 8 8 8 8 8 8 8 8 8 8 8 8 8 = = % % ",
"2 2 2 2 2 2 2 2 2 2 , , , , > > > > > > > > > > S S S S N N c c x x x x x x x x x x x x x x x x x x c c K K H H V V 7 7 7 7 7 7 7 7 7 7 7 7 7 7 7 7 2 2 * * % % ",
"2 2 2 2 2 2 2 2 2 2 , , , , > > > > > > > > > > S S S S N N c c x x x x x x x x x x x x x x x x c x c c K K H H V V 7 7 7 7 7 7 7 7 7 7 7 7 7 7 7 7 7 7 * * % % ",
"7 7 7 7 7 7 7 7 7 7 7 7 7 7 7 7 7 7 7 7 7 7 7 7 k k S S S S c c x x x x x x x x x x x x x x x x c c v v S S S S i i 7 7 7 7 2 2 7 7 7 7 7 7 7 7 8 8 8 8 = = = = ",
"7 7 7 7 7 7 7 7 7 7 7 7 7 7 7 7 7 7 7 7 7 7 7 7 k k S S S S c c x x x x x x x x x x x x x x x x c c v v S S S S i i 7 7 7 7 2 2 7 6 7 7 7 7 7 7 8 8 8 8 = = = = ",
"# # # # # # % % % % * * = = * * * * * * * * * * * * C C S S B B c c x x x x x x x x x x x x x x c c S S A A b b % % * * * * = = * * * * % % % % % % # # # # # # ",
"# # # # # # % % % % * * = = * * * * * * * * * * * * C C S S B B c c x x x x x x x x x x x x x x c c S S A A b b % % * * * * = = * * * * % % % % % % # # # # # # ",
"% % # # # # # # # # % % * * * * = = = = = = > > , , a a S S S S S S v v c c x x x x c c c c B B S S S S m m 1 1 = = = = = = = = * * # # # # # # # # # # # # # # ",
"% % # # # # # # # # % % * * * * = = = = = = > > , , a a S S S S S S v v c c x x x x c c c c B B S S S S m m 1 1 = = = = = = = = * * # # # # # # # # # # # # # # ",
"7 7 7 7 7 7 7 7 7 7 7 7 7 7 7 7 7 7 8 8 8 8 8 8 8 8 8 8 g g Z Z S S S S S S S S S S S S S S S S S S b b 7 7 8 8 8 8 8 8 8 8 8 8 8 8 8 8 8 8 7 7 6 7 2 2 2 2 2 2 ",
"7 7 7 7 7 7 7 7 7 7 7 7 7 7 7 7 7 7 8 8 8 8 8 8 8 8 8 8 g g Z Z S S S S S S S S S S S S S S S S S S b b 7 7 8 8 8 8 8 8 8 8 8 8 8 8 8 8 8 8 7 7 7 7 2 2 2 2 2 2 ",
"7 7 7 7 7 7 6 6 6 6 2 2 2 2 2 2 2 2 7 7 7 7 8 8 8 8 8 8 8 8 9 9 t t S S S S S S S S S S S S n n 3 3 # # 7 7 8 8 7 7 7 7 7 7 7 7 7 7 7 7 7 7 7 7 7 7 8 7 8 8 8 8 ",
"7 7 7 7 7 7 6 7 7 6 2 2 2 2 2 2 2 2 7 7 7 7 8 8 8 8 8 8 8 8 9 9 t t S S S S S S S S S S S S n n 3 3 # # 7 7 8 8 7 7 7 7 7 7 7 7 7 7 7 7 7 7 7 7 8 7 7 7 8 8 8 8 ",
"= = * * * * * * * * * * * * * * = = = = > > , , 2 2 2 2 2 2 7 7 7 7 8 8 h h s s s s s s 8 8 8 8 , , # # 2 2 2 2 2 2 7 7 7 7 7 7 7 7 7 7 7 7 8 8 8 8 8 8 8 8 8 8 ",
"= = * * * * * * * * * * * * * * = = = = > > , , 2 2 2 2 2 2 7 7 7 7 8 8 h h s s s s s s 8 8 8 8 , , # # 2 2 2 2 2 2 7 7 7 7 7 7 7 7 7 7 7 7 8 8 8 8 8 8 8 8 8 8 ",
"8 8 8 8 8 8 8 8 8 8 8 8 8 8 7 7 7 7 7 7 7 7 6 6 2 6 2 2 2 2 2 2 2 2 2 2 6 6 7 7 6 6 2 2 6 6 6 6 > > # # # # # # # # * * * = = = = = = = > > 2 2 2 2 2 2 2 2 2 2 ",
"8 8 8 8 8 8 8 8 8 8 8 8 8 8 7 7 7 7 7 7 7 7 6 6 2 6 2 2 2 2 2 2 2 2 2 2 6 6 7 7 6 6 6 2 6 7 6 6 > > # # # # # # # # * * * * = = = = = = > > 2 2 2 2 2 2 2 2 2 2 ",
"8 8 8 8 8 8 8 8 8 8 8 8 8 8 7 7 7 7 7 7 7 7 7 7 7 7 7 7 6 6 6 6 6 6 2 2 6 6 6 6 6 6 6 6 6 6 6 6 > > # # , , , , > > , , 2 2 2 2 2 2 7 7 7 7 7 7 7 7 7 7 8 8 8 8 ",
"8 8 8 8 8 8 8 8 8 8 8 8 8 8 7 7 7 7 7 7 7 7 7 7 7 7 7 7 6 6 6 6 6 6 2 2 6 6 6 6 6 6 6 6 6 6 6 6 > > # # , , , , > > , , 2 2 2 2 2 2 7 7 7 7 7 7 7 7 7 7 8 8 8 8 ",
"8 8 8 8 8 8 8 8 8 8 8 8 8 8 8 8 8 8 8 8 8 8 8 8 8 8 8 8 8 8 7 7 2 2 : : : : : : : : : : ; ; : : & & + + 7 7 8 8 8 8 8 8 8 8 8 8 8 8 8 8 8 8 8 8 8 8 8 8 8 8 8 8 ",
"8 8 8 8 8 8 8 8 8 8 8 8 8 8 8 8 8 8 8 8 8 8 8 8 8 8 8 8 8 8 7 7 2 2 : : : : : : : : : : ; ; : : & & + + 7 7 8 8 8 8 8 8 8 8 8 8 8 8 8 8 8 8 8 8 8 8 8 8 8 8 8 8 ",
"2 2 2 2 , , , , , , , , , , , , , , , , 2 2 2 2 2 2 1 1 ; ; + + $ $ ; ; ; ; ; ; ; ; ; ; ; ; ; ; + + O O & & : : 1 1 1 1 2 2 2 2 2 2 2 2 2 2 2 2 , , , , , , , , ",
"2 2 2 2 , , , , , , , , , , , , , , , , 2 2 2 2 2 2 1 1 ; ; $ + + + ; ; ; ; ; ; ; ; ; ; ; ; ; ; + + O O & & : : 1 1 1 1 2 2 2 2 2 2 2 2 2 2 2 2 , , , , , , , , ",
"8 8 8 8 8 8 8 8 8 8 8 8 8 8 8 8 8 8 8 8 8 8 8 8 2 2 : : ; ; ; ; ; ; ; ; ; ; - - ; ; - - - - ; ; + + O O + + & & * * > > > > , , , , , , , , , , = = = = = = > > ",
"8 8 8 8 8 8 8 8 8 8 8 8 8 8 8 8 8 8 8 8 8 8 8 8 2 2 : : ; ; ; ; ; ; ; ; ; ; - - ; ; - - - - ; ; + + O O + + & & * * > > > > , , , , , , , , , , = = = = = = > > ",
"2 2 2 2 7 7 7 7 7 7 7 7 7 7 7 7 8 8 8 8 8 8 8 8 8 8 8 8 7 7 2 2 1 1 : : : : : : : : : : : : < < $ $ + + 2 2 8 8 8 8 8 8 8 8 8 8 8 8 8 8 8 8 8 8 8 8 8 8 8 8 8 8 ",
"2 2 2 2 7 7 7 7 7 7 7 7 7 7 7 7 8 8 8 8 8 8 8 8 8 8 8 8 7 7 2 2 1 1 : : : : : : : : : : : : < < $ $ + + 2 2 8 8 8 8 8 8 8 8 8 8 8 8 8 8 8 8 8 8 8 8 8 8 8 8 8 8 ",
"> > = = = = = = = = = = = = = = = = = = = = * * * * * * = = > > 2 2 7 7 8 8 8 8 8 8 8 8 8 8 8 8 = = % % 7 7 8 8 8 8 8 8 8 8 8 8 8 8 8 8 8 8 8 8 7 7 7 7 7 7 7 7 ",
"> > = = = = = = = = = = = = = = = = = = = = * * * * * * = = > > 2 2 7 7 8 8 8 8 8 8 8 8 8 8 8 8 = = % % 7 7 8 8 8 8 8 8 8 8 8 8 8 8 8 8 8 8 8 8 7 7 7 7 7 7 7 7 "
};
