/* XPM */
static const char *sprite0[] = {
/* columns rows colors chars-per-pixel */
"80 80 81 1 ",
"  c white",
". c #E1D3D8",
"X c #BC9DA7",
"o c #9D7180",
"O c #8F5D6D",
"+ c #8D5A6B",
"@ c #976978",
"# c #B4929D",
"$ c #E8DEE2",
"% c #CCB5BD",
"& c #8D596A",
"* c #74354A",
"= c #723348",
"- c #793D51",
"; c #B3919C",
": c #F9F6F7",
"> c #EAE1E4",
", c #783B4F",
"< c #C8AFB7",
"1 c #DDCED3",
"2 c #A8818E",
"3 c #E9DFE2",
"4 c #75384C",
"5 c #A27886",
"6 c #7A3F53",
"7 c #C1A5AE",
"8 c #733449",
"9 c #F2ECEE",
"0 c #E7DDE0",
"q c #854E60",
"w c #7C4155",
"e c #2A131B",
"r c #0D0508",
"t c #592838",
"y c #713347",
"u c #070304",
"i c #411D28",
"p c #E0D2D7",
"a c #BEA1AA",
"s c #030202",
"d c black",
"f c #622C3E",
"g c #6F3146",
"h c #010001",
"j c #80475A",
"k c #682F42",
"l c #713348",
"z c #733549",
"x c #FDFCFC",
"c c #2B131B",
"v c #0B0506",
"b c #703246",
"n c #1C0D12",
"m c #0C0507",
"M c #703247",
"N c #773A4E",
"B c #E7DCDF",
"V c #834B5E",
"C c #FBF9FA",
"Z c #BD9FA9",
"A c #8C596A",
"S c #8E5C6D",
"D c #74364B",
"F c #F8F5F6",
"G c #FEFDFE",
"H c #81495B",
"J c #D6C4CA",
"K c #8A5668",
"L c #D7C5CB",
"P c #D5C2C8",
"I c #80485B",
"U c #956676",
"Y c #C1A5AF",
"T c #F3EDEF",
"R c #E4D8DC",
"E c #A57D8B",
"W c #885264",
"Q c #76394E",
"! c #7E4457",
"~ c #A57D8A",
"^ c #CCB5BC",
/* pixels */
"                                                                                ",
"                                                                                ",
"                                                                                ",
"                                                                                ",
"                                                                                ",
"                                                                                ",
"                                                                                ",
"                                                                                ",
"                                                                                ",
"                                                                                ",
"                                                                                ",
"                                                                                ",
"                                                                                ",
"                                                                                ",
"                                                                                ",
"                                                                                ",
"                                                                                ",
"                                                                                ",
"                                                                                ",
"                                                                                ",
"                                                                                ",
"                                                                                ",
"                                                                                ",
"                                                                                ",
"                                                                                ",
"                                                                                ",
"                                                                                ",
"                                                                                ",
"                                                                                ",
"                                                                                ",
"                                                                                ",
"                                                                                ",
"                                                                                ",
"                                                                                ",
"                                                                                ",
"                                                                                ",
"                                ..XXooOO++@@##$$                                ",
"                                ..XXooOO++@@##$$                                ",
"                            %%&&**==============--;;::                          ",
"                            %%&&**==============--;;::                          ",
"                        >>@@========================,,<<                        ",
"                        >>@@========================,,<<                        ",
"                      11--==============================22                      ",
"                      11--==============================22                      ",
"                    3344==================================55                    ",
"                    3344==================================55                    ",
"                    66======================================77                  ",
"                    66======================================77                  ",
"                  OO========================================8899                ",
"                  OO========================================8899                ",
"                00============================================qq                ",
"                00============================================qq                ",
"                ww==========eerrttyy============uuii============pp              ",
"                ww==========eerrttyy============uuii============pp              ",
"              aa88==========ssddff============ggddhh============@@              ",
"              aa88==========ssddff============ggddhh============@@              ",
"              jj============ddddkk==============ddddll==========zz              ",
"              jj============ddddkk==============ddddll==========zz              ",
"            xx,,88==========ccvvbb==============nnmmMM============33            ",
"            xx,,88==========ccvvbb==============nnmmMM============33            ",
"              NN============MM====================================BB            ",
"              NN============MM====================================BB            ",
"              VV88==============================================88CC            ",
"              VV88==============================================88CC            ",
"              ZZzz==============================================AA              ",
"              ZZzz==============================================AA              ",
"                SS============================================DDFF              ",
"                SS============================================DDFF              ",
"                GGHH========================================**JJ                ",
"                GGHH========================================**JJ                ",
"                    KK==================================**@@LL                  ",
"                    KK==================================**@@LL                  ",
"                      PPII========================88--UUYYTT                    ",
"                      PPII========================88--UUYYTT                    ",
"                          RREEWWwwQQ4444,,!!AA~~^^$$FF                          ",
"                          RREEWWwwQQ4444,,!!AA~~^^$$FF                          ",
"                                                                                ",
"                                                                                ",
"                                                                                ",
"                                                                                "
};
