/* XPM */
static const char *sprite0[] = {
/* columns rows colors chars-per-pixel */
"80 80 113 2 ",
"   c black",
".  c #090B0D",
"X  c #0E1722",
"o  c #0F1924",
"O  c #18222F",
"+  c #152637",
"@  c #1C2530",
"#  c #152639",
"$  c #17293D",
"%  c #182A3E",
"&  c #2F2A25",
"*  c #2B2A2A",
"=  c #3C2F22",
"-  c #312E2C",
";  c #3F3023",
":  c #36312F",
">  c #39322E",
",  c #313033",
"<  c #3E3630",
"1  c #433425",
"2  c #483727",
"3  c #41362C",
"4  c #493728",
"5  c #45382E",
"6  c #4D3A29",
"7  c #523E2C",
"8  c #453931",
"9  c #4A3D32",
"0  c #56412D",
"q  c #59432F",
"w  c #544232",
"e  c #5D4631",
"r  c #604732",
"t  c #644A33",
"y  c #684D35",
"u  c #664D3B",
"i  c #303341",
"p  c #383949",
"a  c #3F4258",
"s  c #394360",
"d  c #3E4A6C",
"f  c #4D4142",
"g  c #49424B",
"h  c #534646",
"j  c #544A4F",
"k  c #5C4C4A",
"l  c #40445A",
"z  c #524952",
"x  c #524D5C",
"c  c #634E42",
"v  c #424D6D",
"b  c #504F63",
"n  c #4D526E",
"m  c #525369",
"M  c #495372",
"N  c #445478",
"B  c #48577B",
"V  c #2C5887",
"C  c #2D5A8A",
"Z  c #3C5785",
"A  c #325E8D",
"S  c #3E5C8A",
"D  c #2E5E92",
"F  c #395E91",
"G  c #2E6196",
"H  c #2F639A",
"J  c #376197",
"K  c #34639B",
"L  c #35689E",
"P  c #3067A2",
"I  c #3369A4",
"U  c #396FA8",
"Y  c #3D72AB",
"T  c #425A83",
"R  c #4773A1",
"E  c #467AB1",
"W  c #4A7DB4",
"Q  c #4F82B8",
"!  c #5784B4",
"~  c #5E89B7",
"^  c #5385BB",
"/  c #5788BD",
"(  c #5E8EC2",
")  c #6291C5",
"_  c #6E99C7",
"`  c #6897C9",
"'  c #6D9BCD",
"]  c #6C9ACC",
"[  c #6B99CB",
"{  c #78A2CF",
"}  c #73A0D1",
"|  c #75A2D2",
" . c #77A4D4",
".. c #78A4D3",
"X. c #7AA6D6",
"o. c #7BA7D6",
"O. c #7CA8D7",
"+. c #7EA9D6",
"@. c #7DA9D8",
"#. c #7EAAD9",
"$. c #B9BABC",
"%. c #81ACDB",
"&. c #82ADDB",
"*. c #86B1DF",
"=. c #87B1DF",
"-. c #88B2DF",
";. c #88B2E0",
":. c #89B3E0",
">. c #89B3E1",
",. c #8AB4E1",
"<. c #CDCDCD",
"1. c #E1E3E4",
"2. c #EAEBEC",
/* pixels */
"= = ; ; 1 1 1 1 = = = = = = = = = = = = ; ; = = = = = = = = = = = = = = = = ; ; ; ; ; ; ; ; ; ; 1 1 1 1 1 1 1 1 ; ; ; ; ; ; ; ; ; ; ; ; 1 1 ; ; ; ; ; ; 1 1 1 1 ",
"= = ; ; 1 1 1 1 = = = = = = = = = = = = ; ; = = = = = = = = = = = = = = = = ; ; ; ; ; ; ; ; ; ; 1 1 1 1 1 ; 1 1 ; ; ; = ; ; ; ; ; ; ; ; 1 1 1 1 ; ; ; ; 1 1 1 1 ",
"y y y y y y y y y y y y y y y y q q 7 7 6 6 1 1 1 1 4 4 0 0 0 0 q q q q q q q q e e r r t t y y y y y y y y y y y y y y y y y y y y y y y y y y y y y y y y y y ",
"y y y y y y y y y y y y y y y y q q 7 7 6 6 1 1 1 1 4 4 0 0 0 0 q q q q q q q q e e r r t t y y y y y y y y y y y y y y y y y y y y y y y y y y y y y y y y y y ",
"y y t t t t t t r r e e e e t t t t e e e e 2 2 = = 2 2 q q r r t t t t t t r r e e e e e e e e e e t t y y y y y y y y y y y y t t t t t t t t t t t t t t y y ",
"y y t t t t t t r r e e e e t t t t e e e e 2 2 = = 2 1 q q e r t t t t t t r r e e e e e e e e e e t t y y y y y y y y y y y y t t t t t t t t t t t t t t y y ",
"; ; = = = = 1 1 2 2 2 2 2 2 6 6 7 7 0 0 q q 2 2 = = 7 6 q q q q q q e e t t t t t t t t t t r r e e e e e e e e e e q q q q 6 6 1 1 2 2 2 2 2 2 2 2 2 2 2 2 y y ",
"; ; = = = = 1 1 2 2 2 2 2 2 6 6 7 7 0 0 q q 2 2 = = 7 7 q q q q q q e e t t t t t t t t t t r r e e e e e e e e e e q q q q 6 6 1 1 2 2 2 2 2 2 2 2 2 2 2 2 y y ",
"2 2 2 2 6 6 y y y y y y y y y y y y y y t t 2 2 = = 6 6 q q e e t t t t r r e e e e q q 7 7 6 6 6 6 7 7 7 7 6 6 4 4 4 4 4 4 4 4 6 6 6 6 7 7 e e e e t t t t y y ",
"2 2 2 2 6 6 y y y y y y y y y y y y y y t t 2 2 = = 6 6 q q e e t t t t r r e e e e q q 7 7 6 6 6 4 7 7 7 7 6 6 4 4 4 4 4 4 4 4 6 6 6 6 7 7 e e e e t t t t y y ",
"0 0 7 7 q q e e r r t r t t t t t t t t 0 0 1 1 1 1 q q y y y y y y e e 0 0 7 7 6 6 6 6 7 7 q q q q e e e e t t t t y y y y y y y y y y y y y y y y y y y y y y ",
"0 0 7 7 q q e e r r t r t t t t t t t t 0 0 1 1 1 1 q q y y y y y y e e q q 7 7 6 6 6 6 7 7 q q q q e e e e t t t t y y y y y y y y y y y y y y y y y y y y y y ",
"t t q q 7 7 0 0 q q q q 0 0 0 0 0 0 q q 7 7 1 1 1 1 0 0 e e e e q q 7 7 7 7 0 0 e e t t y y y y y y y y y y y y y y y y y y y y y y y y y y y y y y y y y y y y ",
"t t q q 7 7 0 0 q q q q 0 0 0 0 0 0 q q 7 7 1 1 1 1 0 0 e e e e q q 7 7 7 7 0 0 e e t t y y y y y y y y y y y y y y y y y y y y y y y y y y y y y y y y y y y y ",
"6 6 2 2 2 2 7 7 t t t t t t t y y y y y q q 1 1 1 1 6 6 4 4 6 6 7 7 7 7 7 7 7 7 0 0 q 0 q q q q q q q q q q q q q q q q e e e e e e t t t t t t t t t t t t t t ",
"6 6 2 2 2 2 7 7 t t t t t t y y y y y y q q 1 1 1 1 6 6 4 4 6 6 7 7 7 7 7 7 7 7 0 0 q 0 q q q q q q q q q q q q q q q q e e e e e e t t t t t t t t t t t t t t ",
"y y t t t t t t t t t t t t t t t t t t 7 7 1 1 1 1 6 6 0 0 q q 0 0 0 0 0 0 0 0 0 0 q q 0 0 q q q q q q q q q q 7 7 6 6 6 6 6 6 6 6 6 6 7 7 6 6 7 7 6 6 6 6 t t ",
"y y t t t t t t t t t t t t t t t t t t 7 7 1 1 1 1 6 6 0 0 q q 0 0 0 0 0 0 0 0 0 0 q q 0 0 0 q q q q q q q q q 7 7 6 6 6 6 6 6 6 6 6 6 7 7 6 6 7 7 6 6 6 6 t t ",
"q q 0 0 q q q q q q q q e e q q e e e e 7 7 1 1 1 1 7 7 t t y y y y y y y y t t t t t t t t t t t t t t t t t t e e 0 0 0 0 0 0 7 7 7 7 7 7 0 0 0 0 7 7 7 7 t t ",
"q q 0 0 q q q q q q q q e e q q e e e e 7 7 1 1 1 1 7 7 t t y y y y y y y y t t t t t t t t t t t t t t t t t t e e 0 0 0 0 0 0 7 7 7 7 7 7 0 0 0 0 7 7 7 7 t t ",
"t t q q 0 0 0 0 0 0 q q t t t t y y t t q q 2 2 = = 7 7 r r y y y y y y y y y y t t t t t t t t t t t t t t t t t t t t t t t t y y y y y y y y y y y y y y e e ",
"t t q q 0 0 0 0 0 0 q q t t t t y y t t q q 2 2 = = 7 7 r r y y y y y y y y y y t t t t t t t t t t t t t t t t t t t t t t t t y y y y y y y y y y y y y y e e ",
"y y y y y y y y y y y y y y y y y y t e e e 1 1 = = 0 0 0 0 y y y y y y y y y y y y y y y y y y y y y y y y y y y y y y y y y y y y y y y y y y y y y y y y e e ",
"y y y y y y y y y y y y y y y y y y t t e e 1 1 = = 0 0 0 0 y y y y y y y y y y y y y y y y y y y y y y y y y y y y y y y y y y y y y y y y y y y y y y y y e e ",
"t t t t t t t t t t t t t t t t t t e e q q = = = = 2 2 1 1 q q t t t t t t y y y y y y t t t t t t t t t t t t e e e e e e e e e e q q 0 0 e e e e q q 7 7 2 2 ",
"t t t t t t t t t t t t t t t t t t e e q q = = = = 2 2 1 1 q q t t t t t t y y y y y y t t t t t t t t t t t t e e e e e e e e e e q q 0 0 e e e e q q 7 7 2 2 ",
"= = = = = = = = = = = = = = = = = = = = = = = = 1 1 = = = = = = = = = = = = = = = = = = = = = = = = = = = = = = = = = = = = = = = = = = ; ; ; ; = = = = = = = = ",
"= = = = = = = = = = = = = = = = = = = = = = = = 1 1 = = = = = = = = = = = = = = = = = = = = = = = = = = = = = = = = = = = = = = = = = = ; ; ; ; = = = = = = = = ",
"2 2 2 2 4 4 4 4 4 4 4 4 6 6 7 7 7 7 7 7 7 7 6 6 t t 6 6 6 6 7 7 7 7 0 0 q q e e e e e e r r r r e e r r t t t t t t e e e e q q q q e e e e e e t t t t 1 1 ; ; ",
"2 2 2 2 4 4 4 4 4 4 4 4 6 6 7 7 7 7 7 7 7 7 6 6 t t 6 6 6 6 7 7 7 7 0 0 q q e e e e e e r r r r e e t r t t t t t t e e e e q q q q e e e e e e t t t t 1 1 ; ; ",
"2 2 2 2 2 2 1 1 2 2 6 6 6 6 7 7 7 7 7 7 0 0 q q e e r r t t r r e e t t t t t t t t t t t t y y y y y y y y y y y y y y y y y y y y y y y y y y y y y y 7 7 = = ",
"2 2 2 2 2 2 1 1 2 2 6 6 6 6 7 7 7 7 7 7 0 0 q q e e r r t t r r e e t t t t t t t t t t t t y y y y y y y y y y y y y y y y y y y y y y y y y y y y y y 7 7 = = ",
"1 1 1 1 2 2 2 2 2 2 4 4 4 4 4 4 6 6 6 6 7 7 q q r r t t t t y y y y y y y y t t t t t t t t t t t t t t t t t t t t t t t t e e e e e e e e q q 0 0 7 7 2 2 = = ",
"1 1 1 1 2 2 2 2 2 2 4 4 4 4 4 4 6 6 6 6 7 7 0 q r r t t t t y y y y y y y y t t t t t t t t t t t t t t t t t t t t t t t t e e e e e e e e q q 0 0 7 7 2 2 = = ",
"0 0 e e y y y y y y y y y y y y y y y y y y y y y y y y y y y y y y y y y y t t t t r r e e e e e e e e e e e e q q q q 0 0 0 0 7 7 7 7 7 7 7 7 1 1 ; ; = = = = ",
"0 0 e e y y y y y y y y y y y y y y y y y y y y y y y y y y y y y y y y y y t t t t r r e e e e e e e e e e e e q q q q 0 0 0 0 7 7 7 7 7 7 7 7 1 1 ; ; = = = = ",
"0 0 e e y y y y t t t t t t t t t t t t t t t t t t t t t t t t j j M M S S J J K K F F N N h h t t y y y y y y y y y y y y y y 0 0 6 6 6 6 4 4 2 2 7 7 4 4 = = ",
"0 0 e e y y y y t t t t t t t t t t t t t t t t t t t t t t t t j j M M S S J J K K F F N N h h t t y y y y y y y y y y y y y y 0 0 6 6 6 6 4 4 2 2 7 7 4 4 = = ",
"1 1 1 1 1 1 2 2 7 7 0 0 0 0 q q q q e e e e e e e e e e b b K K P P P P P P P P I I P P P P P P P P B B u u y y y y y y y y y y y y y y y y y y y y y y t t = = ",
"1 1 1 1 1 1 2 2 7 7 0 0 0 0 q q q q e e e e e e e e e e b b K K P P P P P P P P I I P P P P P P P P B B u u y y y y y y y y y y y y y y y y y y y y y y t t = = ",
"= = = = = = ; ; ; ; 2 2 6 6 6 6 6 6 6 6 6 6 6 6 f f F F P P P P ^ ^ ) ) ' ' X.X.} } ( ( W W U U P P P P P P m m y y y y y y y y y y y y y y t t y y y y t t = = ",
"= = = = = = ; ; ; ; 2 2 6 6 6 6 6 6 6 6 6 6 6 6 f f F F P P P P ^ ^ ) ) ' ' X.X.} } ( ( W W U U P P P P P P m m y y y y y y y y y y y y y y t t y y y y t t = = ",
"1 1 4 4 e e t t y y y y y y t t t t e e e e z z P P P P / / *.*.;.;.;.;.#.#.) ) Y Y U U I I P P P P P P P P P P T T t t q q q q 0 0 0 0 7 7 7 7 6 6 6 6 2 2 = = ",
"1 1 4 4 e e t t y y y y y y t t t t e e e e z z P P P P / / *.*.;.;.;.;.#.#.) ) Y Y U U I I P P P P P P P P P P T T t t q q q q 0 0 0 0 7 7 7 7 6 6 6 6 2 2 = = ",
"1 1 ; ; ; ; 2 2 7 7 e e e e q q q q 0 0 h h P P P P O.O.,.,.;.;.*.*.` ` I I P P P P P P P P P P P P P P P P P P P P S S q q 0 0 7 7 7 7 6 6 6 6 6 6 4 4 4 4 = = ",
"1 1 ; ; ; ; 2 2 7 7 e e e e q q q q 0 0 h h P P P P O.O.,.,.;.;.*.*.` ` I I P P P P P P P P P P P P P P P P P P P P S S q q 0 0 7 7 7 7 6 6 6 6 6 6 4 4 4 4 = = ",
"; ; ; ; 2 2 2 2 6 4 6 6 7 7 7 7 7 7 7 7 P P P P &.&.,.,.-.-.) ) P P P P P P P P P P P P P P P P P P P P P P P P P P P P n n t t t t t t t t y y y y y y 7 7 1 1 ",
"; ; ; ; 2 2 2 2 6 6 6 6 7 7 7 7 7 7 7 7 P P P P &.&.,.,.-.-.) ) P P P P P P P P P P P P P P P P P P P P P P P P P P P P n n t t t t t t t t y y y y y y 7 7 1 ; ",
"0 0 q q t t t r e e e e e e e e e e K K P P X.X.;.;.X.X.U U P P P P P P P P P P P P P P P P P P P P P P P P P P P P P P P P c c y y y y y y y y y y t t 6 6 1 1 ",
"0 0 q q t t t t r e e e e e e e e e K K P P X.X.;.;.X.X.U U P P P P P P P P P P P P P P P P P P P P P P P P P P P P P P P P c c y y y y y y y y y y t t 6 6 1 1 ",
"e e 0 0 r r t t t t t t e e e e k k P P Q Q ;.-.) ) P P P P P P H H G G D D D D G G H H P P P P P P P P P P P P P P P P P P L L y y t t t t t t y y t t 6 6 1 1 ",
"e e q q r r t t t t t t e e e e k k P P Q Q ;.-.) ) P P P P P P H H G G D D D D G G H H P P P P P P P P P P P P P P P P P P L L y y t t t t t t y y t t 6 6 1 1 ",
"0 0 7 7 7 7 7 7 7 7 6 6 4 4 4 4 P P P P &.&.| | P P P P 1.1.O O P P G G H H H H H G H H L L P P 2.2.@ @ P P P P P P U U P P P P g g 4 4 t t t t t t q q 7 7 = = ",
"0 0 7 7 7 7 7 7 7 7 6 6 4 4 4 4 P P P P &.&.| | P P P P 1.1.O O P P G G H H H H G G H H L L P P 2.2.@ @ P P P P P P U U P P P P g g 4 4 t t t t t t q q 7 7 = = ",
"; ; = = = = = = = = = = ; ; v v P P ( ( #.#.Y Y P P P P <.<.. . G H D D C C C C C C C C C C G G $.$.    P P P P P P ^ ^ Y Y P P F F 1 1 1 1 ; ; ; ; = = = = = = ",
"; ; = = = = = = = = = = = ; v v P P ( ( #.#.Y Y P P P P <.<.. . G H D D C C C C C C C C C C G G $.$.    P P P P P P ^ ^ Y Y P P F F 1 1 1 1 ; ; ; ; = = = = = = ",
"6 6 6 6 4 4 2 2 2 2 2 2 4 4 P P P P [ [ ^ ^ P P P P G G X X X X C C C V C C C C C C C C C C V V o o o o C C H H P P ' '  . .I I P P 7 7 7 7 7 7 6 6 4 4 2 2 2 2 ",
"6 6 6 6 4 4 2 2 2 2 2 2 4 4 P P P P [ [ ^ ^ P P P P G G X X X X C C C V C C C C C C C C C C V V o o o o C C H H P P ' '  . .I I P P 7 7 7 7 7 7 6 6 4 4 2 2 2 2 ",
"t t t t t t y y y y y y y y P P U U ^ ^ P P P P C C V V + + $ $ C C C V C C C C C C C C C C C C % % # # V V V V C C ....;.;.W W P P k k t t t t t t e e e e e e ",
"t t t t t t y y y y y y y y P P U U ^ ^ P P P P C C V V + + $ $ C C V V C C C C C C C C C C C C % % # # V V V V C C ....;.;.W W P P k k t t t t t t e e e e e e ",
"t t r r e e y y y y y y y y P P U U U U L L C C V V C C C C V V C C C C V V V V V V V V V V V V V V V V V V V V A A ;.;.,.,./ / P P k k y y y y t t t t t t y y ",
"t t r r e e y y y y y y y y P P U U U U L L C C V V C C C C V V C C C C V V V V V V V V V V V V V V V V V V V V A A ;.;.,.,./ / P P k k y y y y t t t t t t y y ",
"= = = = = = 6 6 4 4 4 4 4 4 P P P P P P D D C C C C C C V V V V V V V V V V V V V V V V V V V V V V V V V V V V R R ,.,.,.,.E E P P t t y y y y y y y y y y e e ",
"= = = = = = 6 6 4 4 4 4 4 4 P P P P P P D D C C C C C C V V V V V V V V V V V V V V V V V V V V V V V V V V V V R R ,.,.,.,.E E P P t t y y y y y y y y y y e e ",
"2 2 4 4 6 6 0 0 q q q q q q M M P P P P C C V V V V V V V V V V V V V V V V V V V V V V V V V V V V V V V V C C _ _ ,.,.O.O.P P K K 7 7 q q e e e e q q 7 7 4 4 ",
"2 2 4 4 6 6 0 0 q q q q q q M M P P P P C C V V V V V V V V V V V V V V V V V V V V V V V V V V V V V V V V C C _ _ ,.,.O.O.P P K K 7 7 q q e e e e q q 7 7 4 4 ",
"y y y y y y y y y y y y y y y y K K P P G G V V V C C V V V V V V V V V V V V V V V V V V V V V V V V V V V R R { { ! ! H H P P w w q q e e e e e e r r t t t t ",
"y y y y y y y y y y y y y y y y K K P P G G V V V V C V V V V V V V V V V V V V V V V V V V V V V V V V V V R R { { ! ! H H P P w w q q e e e e e e r r t t t t ",
"y y y y y y y y y y y y y y y y 9 9 P P P P D D V V V V V V V V V V V V V V V V V V V V V V V V V V V V A A ~ ~ R R H H P P x x y y y y y y y y y y y y y y t t ",
"y y y y y y y y y y y y y y y y 9 9 P P P P D D V V V V V V V V V V V V V V V V V V V V V V V V V V V V A A ~ ~ R R H H P P x x y y y y y y y y y y y y y y t t ",
"1 1 ; ; 2 2 q q q q q q q q 3 3 - - - - K K P P H H C C V V V V V V V V V V V V V V V V V V V V C V V V C C L L P P F F a a : : > > w w e e e e q q 7 7 2 2 2 2 ",
"1 1 ; ; 2 2 q q q q q q q q 3 3 - - - - K K P P H H C C V V V V V V V V V V V V V V V V V V V V V V V V C C L L P P F F a a : : > > w w e e e e q q 7 7 2 2 2 2 ",
"y y e e e e t t t t t t t t > > > > > > > > l l P P P P H H D D C C V C C C C C C C D D D D G G H H P P P P F F d d - - * * * * - - 5 5 7 7 6 6 6 6 4 4 2 2 7 7 ",
"y y e e e e t t t t t t t t > > > > > > > > l l P P P P H H D D C C C C C C C C C C D D D D G G H H P P P P F F d d - - * * * * - - 5 5 7 7 6 6 6 6 4 4 2 2 7 7 ",
"4 4 1 1 1 1 1 1 4 4 4 4 4 4 1 1 * * * * * * * * * * p p Z Z L L P P P P P P P P P P P P K K Z Z s s i i , , > > > > > > > > < < 9 9 w w t t y y y y t t t t y y ",
"4 4 1 1 1 1 1 1 4 4 4 4 4 4 1 1 * * * * * * * * * * p p Z Z L L P P P P P P P P P P P P K K Z Z s s i i , , > > > > > > > > < < 9 9 w w t t y y y y t t t t y y ",
"1 1 = = = = ; ; 6 6 6 6 7 7 7 7 4 4 3 3 > > * * * * * * * * * * - - > > 8 8 8 8 9 9 9 9 9 9 5 5 & & & & 3 3 3 3 3 3 3 3 5 5 7 7 0 0 0 0 0 0 0 0 0 0 7 7 7 7 e e ",
"1 1 = = = = ; ; 6 6 6 6 7 7 7 7 4 4 3 3 > > * * * * * * * * * * - - > > 8 8 8 8 9 9 9 9 9 9 5 5 & & & & 3 3 3 3 3 3 3 3 5 5 7 7 q 0 0 0 0 0 0 0 0 0 7 7 7 7 e e ",
"q q t t t t y y y y y y y y y y y y y y y y y y y y y y t t y y y y y y y y y y y y y y y y e e = = = = e e e e e e e e e e e e q q q q q q q q q q q q q q e e ",
"q q t t t t y y y y y y y y y y y y y y y y y y y y t t t t y y y y y y y y y y y y y y y y e e = = = = e e e e e e e e e e e e q q q q q q q q q q q q q q e e "
};
