/* XPM */
static const char *sprite6[] = {
/* columns rows colors chars-per-pixel */
"40 40 123 2 ",
"   c #000001",
".  c gray6",
"X  c #050A11",
"o  c #080F18",
"O  c #08111A",
"+  c #111519",
"@  c #372F28",
"#  c #392F28",
"$  c #3E3228",
"%  c #3A3B3C",
"&  c #473627",
"*  c #483727",
"=  c #47372F",
"-  c #483728",
";  c #44382C",
":  c #4A3828",
">  c #4C3A29",
",  c #4F3C2B",
"<  c #4B3B2D",
"1  c #4F3E2F",
"2  c #513D2B",
"3  c #533E2C",
"4  c #543F2D",
"5  c #463A35",
"6  c #4D3B33",
"7  c #4F3E30",
"8  c #4A3A36",
"9  c #503F31",
"0  c #57412E",
"q  c #58422E",
"w  c #5B442F",
"e  c #504032",
"r  c #564331",
"t  c #5B4430",
"y  c #5C4430",
"u  c #5B4634",
"i  c #5F4836",
"p  c #5B483A",
"a  c #59483F",
"s  c #5E4B3E",
"d  c #604732",
"f  c #634933",
"g  c #644B33",
"h  c #604835",
"j  c #664B34",
"k  c #674C35",
"l  c #684D35",
"z  c #604938",
"x  c #654B39",
"c  c #664D39",
"v  c #624D3F",
"b  c #3F5175",
"n  c #385575",
"m  c #3F557D",
"M  c #434343",
"N  c #45434E",
"B  c #574342",
"V  c #564944",
"C  c #5C4E43",
"Z  c #5C4D47",
"A  c #544A4B",
"S  c #574E4D",
"D  c #4E4C50",
"F  c #4A4C5F",
"G  c #524B51",
"H  c #524C54",
"J  c #554F55",
"K  c #604D42",
"L  c #4A4F63",
"P  c #4A5067",
"I  c #42506D",
"U  c #405377",
"Y  c #425479",
"T  c #2C5887",
"R  c #2C5988",
"E  c #2D5B8C",
"W  c #2D5C8D",
"Q  c #3E5782",
"!  c #3C5785",
"~  c #2E5E91",
"^  c #375C90",
"/  c #325F97",
"(  c #345F96",
")  c #2E6096",
"_  c #2F6299",
"`  c #2F649D",
"'  c #336097",
"]  c #336099",
"[  c #346498",
"{  c #31639F",
"}  c #32649F",
"|  c #3066A1",
" . c #3067A2",
".. c #356BA5",
"X. c #386EA7",
"o. c #396FA8",
"O. c #3B70A9",
"+. c #3C71AA",
"@. c #3E73AC",
"#. c #4276AF",
"$. c #467AB1",
"%. c #487BB3",
"&. c #497DB3",
"*. c #4B7EB5",
"=. c #4F82B8",
"-. c #5284B9",
";. c #598ABF",
":. c #5C8DC1",
">. c #6695C7",
",. c #6695C8",
"<. c #6897C9",
"1. c #6B99CB",
"2. c #6D9BCC",
"3. c #719ECF",
"4. c #75A2D2",
"5. c #80ABDA",
"6. c #83AEDC",
"7. c #84AFDD",
"8. c #86B1DF",
"9. c #88B2E0",
"0. c #8AB4E1",
"q. c #D9DADC",
"w. c #F1F1F1",
/* pixels */
"l l l l l l l l l l l & - 4 4 q f g j k l l l l l l l l l l l l l l l l l l l l ",
"l k j g f f j j g g f & & > 4 q q t p V A A A a i f j l l l l l l k k l k k k k ",
"- & : : : > , 3 0 t w & 5 I ' | | | ..| | | | | | } ^ U G f y y 2 > > > > > > > ",
"4 q k l l l l l l l h n | | X.2.4.3.%.| | | | | | | | | | / N > > > , 0 t y d f ",
"f f f f j j k k j C [ o.<.6.9.6.;.o.| | | | | | | | | | | | | m k l l l l l l l ",
"f f f y y w q q D | :.0.0.6.&.` | | | | | | | | | } | | | | | | ^ c l l l l l l ",
"y d f f f f f S | ,.0.0.1.| q.. | | | | | | | | | w.+ | | | | | | ^ j k k l l l ",
"j j j k k k x | | 9.7.O.| | %   | | | | | | | | | M   | | | | | | | b y y y y y ",
"f f f f d y F | O.8.+.| | | o o | ` ` | | | | | | X O | | | | | =.@.( 3 3 3 > 2 ",
"d d d d f f L | | | | | ` _ ~ R R R R R E ~ ) _ _ _ ) ~ _ | ` | 5.-.] z k k k k ",
"l l l l l l J | | | | _ W R T T T T T T T T T T T R R E R ) ` >.6.#.( x l l l l ",
"l l l l l l l ^ | | | R T T T T T T T T T T T T T T T T T R ` 4.9.*.! f f f f g ",
"k k y q 4 2 > = { | | ~ T T T T T T T T T T T T T T T T T T _ +.$.] 8 > > > - & ",
"> : * & & - : : 6 | | | W T T T T T T T T T T T T T T T T E ` | ] B f f f f 4 & ",
"f j l l l l l l l k ^ | | ` ) W R R T T T T T T T T R W _ | | Q z l l l l l f * ",
"f y y y y y y y y y f H { | | | | | | | ` _ ) ) _ ` | | } U K l l l l l l l f * ",
"k g f f f f f f g g j j j Z Y } | | | | | | | | | ^ P C g g f y y y t q q q 4 & ",
"l l l l l l l l l l l l l l l l l c v C s z h f y y y y y y y w q 0 0 0 0 0 4 & ",
"k k k j g g g f f f f f f f f f y t y y y y f f g k l l l l l l g 0 3 3 3 3 > & ",
"y y y q q q w t y y d d y y f f f f f f f f f g k l l l l l l l l l l l l l y * ",
"0 q q 0 3 3 3 3 3 3 3 4 4 q t y f f f f g g g g k l l l l l l l l l k k k j q * ",
"j j k k l l j g f d y q 0 0 4 3 3 4 0 q f k l l l k k k j g g f f f f f f f 0 * ",
"f f f f d y y y t q 0 0 4 4 4 2 , > > > > 2 0 q q w y y y d y y y y y y y y 3 * ",
"y y y y y y d y d d y q q 0 4 2 > > > > : : : > > 2 4 q y f y f f g g j j j 4 - ",
"l l l l l l l l l l l l l l l l l l l l l l l l l l l l l l l l l l l l l l 3 - ",
"g j k k k k k k k l l l l l l l l l l l l l l l l l l l l l l l l l l l l l 2 : ",
"y y y y y q q 0 0 0 0 0 q q q q q w w t y y f g g j k k l j f f f f f f f f > - ",
"f f f f f f f f g g j j j g g f f f f f f f g j g 0 0 w f f f y f g j j k k 4 2 ",
"- & & : : > 2 > > > > > > > > > > > > > - & & & & & & & : > > 2 > > : : - * & & ",
"- & & & & - , , 2 3 4 0 q y y y y d y y q 4 0 4 * & > 4 3 3 3 2 > & & & & & & * ",
"f g j j g g g j j k l l l l l l l l l l l l l l q & f k k l l l l k k j f y t t ",
"f f f d y y y y y f g l l l l l l l l l l l l l q & j k g f f f f f g j k k l l ",
"2 , , > > > > > 2 3 0 w t y y f g k l l l l l l q & y y t g j g g f f l l k k k ",
"l l l l l k k j g f f d d y y y y y d f d d y d 0 & & & & > 2 2 2 3 0 y t t t y ",
"l l l l l l k j g f f f t r 7 7 7 7 7 7 7 7 7 7 ; # < 3 3 q y y y f f g g j k k ",
"k k l l l l l l l l l h e 7 7 7 7 7 7 7 7 7 7 7 ; @ e e u j l l l l l l l l l l ",
"y t w q q q q q q w t y y y r 9 7 7 e e r r r t 1 $ r t y y y y y y y t w q q q ",
"l l l l l k k k k k k k k k j j j j j g g g g k q & y y q q q q q q q q 4 4 4 0 ",
"y y f f f f g j k k l l l l l l l l l l l l l l 3 * g l l l l l l l l l l l k k ",
"0 3 3 3 4 4 4 4 4 4 3 , > > 2 0 y g k l l l l l 2 - f l l l l l l l l k g g f f "
};
