/* XPM */
static const char *sprite_p4[] = {
/* columns rows colors chars-per-pixel */
"80 80 145 2 ",
"   c #010101",
".  c #1B140E",
"X  c #241A12",
"o  c #2A1F14",
"O  c #2E2116",
"+  c #27231F",
"@  c #2B231C",
"#  c #312417",
"$  c #332619",
"%  c #36281B",
"&  c #3B2C1E",
"*  c #0A1622",
"=  c #101D29",
"-  c #262220",
";  c #292624",
":  c #2D2926",
">  c #2C2A28",
",  c #342B23",
"<  c #3C2E22",
"1  c #332E2A",
"2  c #3F3123",
"3  c #36302B",
"4  c #3D342D",
"5  c #402F1F",
"6  c #453117",
"7  c #46331D",
"8  c #4B371E",
"9  c #412F20",
"0  c #443324",
"q  c #493626",
"w  c #4D3927",
"e  c #42362B",
"r  c #493728",
"t  c #443A2E",
"y  c #4D3A29",
"u  c #523D2B",
"i  c #4A3D31",
"p  c #5A411F",
"a  c #64481C",
"s  c #6D4F1C",
"d  c #7B571E",
"f  c #56412D",
"g  c #5A432E",
"h  c #4D4236",
"j  c #494B3E",
"k  c #5D4630",
"l  c #5A4C3D",
"z  c #654B25",
"x  c #60472F",
"c  c #6C5122",
"v  c #6F542A",
"b  c #604731",
"n  c #654B34",
"m  c #674C35",
"M  c #634A33",
"N  c #684D35",
"B  c #684D35",
"V  c #7C6134",
"C  c #162C43",
"Z  c #152E48",
"A  c #17324E",
"S  c #1A344F",
"D  c #3E4241",
"F  c #3F484A",
"G  c #38596B",
"H  c #375D78",
"J  c #3A5E78",
"K  c gray26",
"L  c #4F4C43",
"P  c #474E4C",
"I  c #564E43",
"U  c #575341",
"Y  c #56534A",
"T  c #414E52",
"R  c #455257",
"E  c #44565F",
"W  c #4B595D",
"Q  c #465C67",
"!  c #425D6B",
"~  c #88631E",
"^  c #B17F1C",
"/  c #815F23",
"(  c #836124",
")  c #9D752C",
"_  c #9D7834",
"`  c #A77F33",
"'  c #B48C45",
"]  c #A88852",
"[  c #2C5887",
"{  c #2C5A8A",
"}  c #2E5E92",
"|  c #346284",
" . c #396485",
".. c #3A6583",
"X. c #32648E",
"o. c #34658D",
"O. c #37688F",
"+. c #2E6096",
"@. c #2F639B",
"#. c #326796",
"$. c #356690",
"%. c #356995",
"&. c #316799",
"*. c #31679C",
"=. c #30679D",
"-. c #2F66A0",
";. c #3067A2",
":. c #3067A2",
">. c #346AA5",
",. c #3A6DA5",
"<. c #3C71AA",
"1. c #4074AD",
"2. c #4075AD",
"3. c #4877A9",
"4. c #4878AC",
"5. c #4679B1",
"6. c #4C7FB5",
"7. c #4C7FB6",
"8. c #497CB3",
"9. c #4F81B7",
"0. c #5587BC",
"q. c #598ABF",
"w. c #5A8BBF",
"e. c #5B8CC0",
"r. c #5C8DC1",
"t. c #6090C3",
"y. c #6090C3",
"u. c #6796C9",
"i. c #6998CA",
"p. c #76A2D3",
"a. c #73A1D1",
"s. c #79A6D5",
"d. c #7CA8D7",
"f. c #8D8D8D",
"g. c #B8B8B9",
"h. c #81ACDB",
"j. c #82AEDC",
"k. c #86B1DE",
"l. c #88B2DF",
"z. c #89B3E1",
"x. c #8AB4E1",
"c. c #88B2E0",
"v. c #DEDFE1",
"b. c #ECEDEF",
"n. c white",
/* pixels */
"< < 2 2 0 0 0 0 < < < < < < < < < < < < 2 2 < < < < < < < < < < < < < < < < < < < < < < < < < < 0 0 0 0 0 0 0 0 2 2 2 2 2 2 2 2 2 2 2 2 0 0 2 2 2 2 2 2 0 0 0 0 ",
"< < 2 2 0 0 0 0 < < < < < < < < < < < < 2 2 < < < < < < < < < < < < < < < < < < < < < < < < < < 0 0 0 0 0 0 0 0 2 2 2 2 2 2 2 2 2 2 2 2 0 0 0 0 2 2 2 2 0 0 0 0 ",
"m m N N N N N N N m m m N N m m g g u u y y 0 0 0 0 r r f f y y $ $ # # # # # # # # # # # # # # # # u u m m N N N m m m N N N N N N m m N N N N N N N N N N N N ",
"m m N N N N N N m m m m N N m m g g u u y y 0 0 0 0 r r f f y y $ $ # # # $ # # # # # # # # # # # # u u m m N N m m m m N N N N N N m m N N N N N N N N N N N N ",
"N N n n M M M M b b k k k k M M M M b k k k q q < < 0 0 % % # # $ $ & & 2 2 r r & & & & q q % % # # # # # # f f N N N N N N m m M M M M n n M M M M M M M M N N ",
"N N n n M M M M b b k k k k M M M M k k k k q q < < 2 2 % % # # $ $ & & 2 2 r r & & & & q q % % # # # # # # f f N N N N N N m m M M M M n n M M M M M M M M N N ",
"2 2 < < < < 0 0 q q q q r r y y u u f f f f q q , , # # # O & % r r u u r r f f 0 0 w w M M M M f f & & $ $ # # r r f f f f y y 0 0 q q q q q q q q q q q q N N ",
"2 2 < < < < 0 0 q q q q r r y y u u f f f f q q , , # # O O % % r r u u r r f f 0 0 w w M M M M f f & & $ $ # # r r f f f f y y 0 0 q q q q q q q q q q q q N N ",
"q q q q y y N N m m m N N N N N N m m m M M < < O O O O % % u u f f r r q q u u 0 0 w w M M M M f f g g 0 0 $ $ O O < < r r r r y y y y u u k k k k M M n n N N ",
"q q q q y y N N N N m m N N N N N N m m M M < < O O O O % % u u f f r r q q u u 0 0 w w M M M M f f g g 0 0 $ $ O O < < r r r r y y y y u u k k k k M M n n N N ",
"f f u u f f k k b b M M M M M M M M M M r r O O O O % % 9 9 u u u u r r q q u u q q u u M M M M u u b b u u & & % % % % f f N N N N N N N N N N N N N N N N N N ",
"f f u u f f k k b b M M M M M M M M M M r r O O O O % % 9 9 u u u u r r q q u u q q u u M M M M u u b b u u & & % % % % f f N N N N N m N N N N N N N N N N N N ",
"M M f f u u f f f f f f f f f f f f u u O O # # 0 0 % % 0 0 f f u u w w q q u u r r u u M M M M u u g g u u < < w r & & % % M M N N m m N N N N N N N N N N N N ",
"M M f f u u f f f f f f f f f f f f u u O O # # 0 0 % % 0 0 f f u u w w q q u u r r u u M M M M u u g g u u < < w r & & % % b b N N m m N N N N N N N N N N N N ",
"y y r r r r u u M M M M n n m m M M & & $ # w w f f % % 0 0 g g u u w y r r u u w w u u M M M M u u f f f f & & b b y y $ $ r r k k M M M M M M M M M M M M n n ",
"y y r r r r u u M M M M n n m m M M & & # # w w f f % % 0 0 g g u u w w r r u u w w u u M M M M u u f f f f & & k b y u $ $ r r k k M M M M M M M M M M M M n n ",
"N N M M M M M M M M M M M M M M r r $ $ 0 0 m m g g & & 0 0 M M u u u u y y f f u u u u M M M M u u u u f f & & u u M M 0 0 # # q q y y y y u u u u y y y y M M ",
"N N M M M M M M M M M M M M M M r r $ $ 0 0 m m g g & & 0 0 M M u u u u y y f f u u u u M M M M u u u u f f & & f f M M 0 0 # # q q y y y y u u u u y y y y M M ",
"g g f f f f f f g g g g k k y y # # % % M M M M f f % % 0 0 M M u u P P J J #.#.*.*.&.&. . .Y Y u u u u f f 9 9 u u M M f f % % $ $ u u u u f f f f u u u u M M ",
"g g f f f f f f g g g g k k y y # # % % M M M M f f % % 0 0 M M u u P P J J #.#.*.*.&.&. . .Y Y u u u u f f < 9 u u M M f f % % $ % u u u u f f f f u u u u M M ",
"M M g g f f f f f f f f k k % % $ $ y y M M M M f f % % 0 0 n n  . .>.>.6.6.e.e.a.a.r.r.1.1.;.;.#.#.h h f f & & y u M M M M 0 0 % % f f N N N N N N N N N N k k ",
"M M g g f f f f f f f f k k % % $ $ y y M M M M f f % % 0 0 n n  . .>.>.6.6.e.e.a.a.r.r.1.1.;.;.#.#.h h f f & & y u M M M M 0 0 % % f f N N N N N N N N N N k k ",
"N N N N N N N N N N m m u u $ $ & & k k k k M M f f % % t t &.&.6.6.k.k.z.z.z.z.d.d.q.q.5.5.;.;.;.;.;.;.L L & & y y M M b b f f % % % % M M N N N N N N N N k k ",
"N N N N N N N N N N m m u u $ $ & & k k k k M M f f & % t t &.&.6.6.k.k.z.z.z.z.d.d.q.q.5.5.;.;.;.;.;.;.L L & & y y M M b b f f % % % % M M N N N N N N N N k k ",
"M M M M M M M M M M k k % % $ $ y u f f k k M M f f < < &.&.y.y.z.z.x.x.z.z.h.h.>.>.;.;.;.;.;.;.;.;.;.;.;.;.& & r r M M k k k k 0 0 $ $ r r k b k k f f u u q q ",
"M M M M M M M M M M k k % % $ $ y u f f k k M M f f < < &.&.y.y.z.z.x.x.z.z.h.h.>.>.;.;.;.;.;.;.;.;.;.;.;.;.& & r r M M k k k k 0 0 $ $ r r k k k k f f u u q q ",
"< < < < < < < < < < & & o o % % f f f f k k M M u u | | 9.9.l.l.x.x.z.z.p.p.<.<.;.;.;.;.;.;.;.;.;.;.;.;.;.;.$.$.r r M M k k f f u u $ $ O O < < < < < < < < < < ",
"< < < < < < < < < < & & o o % % f f f f k k M M u u | | 9.9.l.l.x.x.z.z.p.p.<.<.;.;.;.;.;.;.;.;.;.;.;.;.;.;.$.$.r r M M k k f f u u $ $ O O < < < < < < < < < < ",
"q q q q r r r r r r % % # # 0 0 u u f f k k b b R R <.<.s.s.l.l.p.p.6.6.;.;.;.;.;.;.;.;.;.;.;.;.;.;.;.;.-.;.;.;.P P M M k k f f f f & & $ $ f f M M n n 0 0 2 2 ",
"q q q q r r r r r r % % # # 0 0 u u f f k k b b R R <.<.s.s.l.l.p.p.6.6.;.;.;.;.;.;.;.;.;.;.;.;.;.;.;.;.-.-.;.;.F P M M k k f f f f & & $ $ f f M M M M 0 0 2 2 ",
"q q q q q q 0 0 0 0 # # % % r r y y f f g g b k o.o.0.0.j.j.q.q.;.;.;.;.;.;.;.;.;.;.;.;.;.;.;.;.;.;.;.;.-.-.-.-.o.o.M M g g f f u u r r % % u u m m N N u u < < ",
"q q q q q q 0 0 0 0 # # % % r r y y f f g g b b o.o.0.0.j.j.q.q.;.;.;.;.;.;.;.;.;.;.;.;.;.;.;.;.;.;.;.;.-.-.-.-.o.o.M M g g f f u u r r % % u u m m N N u u < < ",
"0 0 0 0 q q q q < < # # & & w w y y f f g g I I ;.;.0.0.p.p.;.;.;.;.;.;.;.;.;.;.;.;.;.;.;.;.;.;.;.;.;.;.;.;.;.;.;.;.l l g g f f y y k k % % % % f f u u r r < < ",
"0 0 0 0 q q q q < < # # & & w w y y f f g g I I ;.;.0.0.p.p.;.;.;.;.;.;.;.;.;.;.;.;.;.;.;.;.;.;.;.;.;.;.;.;.;.;.;.;.l l g g f f y y k k % % % % f f u u r r < < ",
"f f k k N N m m q q % % 0 0 u u u u k k g g ! ! ;.;.y.y.9.9.b.b.= = @.@.;.;.;.;.;.;.;.;.;.;.,.,.v.v.* * ;.;.;.;.;.;.Q Q g g f f y y n n & & # # 2 2 2 2 < < < < ",
"f f k k N N m m q q % % 0 0 u u u u k k g g ! ! ;.;.y.y.9.9.b.b.= = @.@.;.;.;.;.;.;.;.;.;.;.,.,.v.v.* * ;.;.;.;.;.;.Q Q g g f f y y n n & & # # 2 2 2 2 < < < < ",
"f f k k m m M M & & % % r r f f f f k k g g  . .;.;.r.r.>.>.n.n.K K +.+.;.;.;.;.;.;.;.;.;.;.>.>.n.n.> > ;.;.;.;.;.;.....g g f f r r M M 0 0 # # q q u u r r < < ",
"f f k k m m M M & & % % r r f f f f k k g g  . .;.;.r.r.>.>.n.n.K K +.+.;.;.;.;.;.;.;.;.;.;.>.>.n.n.> > ;.;.-.-.;.;.....g g f f r r M M 0 0 # # q q u u r r < < ",
"0 0 0 0 0 0 0 0 # # & & u u f f f f k k k k &.&.>.>.5.5.;.;.g.g.    -.-.;.;.;.;.@.@.@.@.;.;.-.-.f.f.    ;.;.-.-.;.;.o.o.b b f f 0 0 M M y y % % f f m m M M < < ",
"0 0 0 0 0 0 0 0 # # % & u u f f f f k k k k &.&.>.>.5.5.;.;.g.g.    -.-.;.;.;.;.@.@.@.@.;.;.-.-.f.f.    ;.;.-.-.;.;.o.o.b M f f 0 0 M M y y % % f f m m M M < < ",
"< < < < < < & & O O 0 0 M M u u u u k k g g ;.;.;.;.;.;.;.;.        +.+.} } { { [ [ { { } } @.@.        ;.;.8.8.8.8.%.%.] ] V V v v M M k k % % 0 0 M M M M < < ",
"< < < < < < & & O O 0 0 M M u u u u k k g g ;.;.;.;.;.;.;.;.        +.+.} } { { [ [ { { } } @.@.        ;.;.8.8.8.8.%.%.] ] V V v v M M k k % % 0 0 M M M M < < ",
"0 0 r r k k y y % % w w M M u u y y g g f f ;.;.;.;.;.;.;.;.Z Z S S { { [ [ [ [ [ [ [ [ { { { { C C A A ;.;.u.u.q.q.%.%.' ' _ _ ) ) z z b x % % # # r r r r < < ",
"0 0 r r k k y y % % w w M M u u y y g g f f ;.;.;.;.;.;.;.;.Z Z S S { { [ [ [ [ [ [ [ [ { { { { C C A A ;.;.u.u.q.q.%.%.' ' _ _ ) ) z z x x % % # # r r r r < < ",
"0 0 2 2 2 2 @ @ O O u u M M u u y y g g f f *.*.;.;.;.;.;.;.} } { { [ [ [ [ [ [ [ [ [ [ [ [ { { { { @.@.>.>.j.j.i.i.O.O.) ) ` ` ( ( p p M M % % # # r r r r < < ",
"0 0 2 2 2 2 @ @ O O u u M M u u y y g k f f *.*.;.;.;.;.;.;.} } { { [ [ [ [ [ [ [ [ [ [ [ [ { { { { @.@.>.>.j.j.i.i.O.O.) ) ` ` ( ( p p M M % % # # r r r r < < ",
"2 2 2 2 q q c c z z 0 0 M M f f r r k k g g $.$.;.;.;.;.;.;.{ { [ [ [ [ [ [ [ [ [ [ [ [ [ [ [ [ { { { { ,.,.z.z.u.u. . .( ( ^ ^ a a 7 7 M M & & % % M M u u 0 0 ",
"2 2 2 2 q q c c z z 0 0 M M f f r r k k g g $.$.;.;.;.;.;.;.{ { [ [ [ [ [ [ [ [ [ [ [ [ [ [ [ [ { { { { ,.,.z.z.u.u. . .( ( ^ ^ a a 7 7 M M & & % % M M u u 0 2 ",
"f f g g M M ) ) / / & & k k f f r r f f g g W W ;.;.;.;.+.+.[ [ [ [ [ [ [ [ [ [ [ [ [ [ [ [ [ [ [ [ { { ,.,.h.h.>.>.G G p p d d 8 8 0 0 M M 5 & $ $ M M y y 0 0 ",
"f f g g M M ) ) / / & & k k f f r r f f g g W W ;.;.;.;.+.+.[ [ [ [ [ [ [ [ [ [ [ [ [ [ [ [ [ [ [ [ { { ,.,.h.h.>.>.G G p p d d 8 8 0 0 M M 5 5 $ $ M M y y 0 0 ",
"k k f f g g ~ ~ s s < < k k g g q q f f g g M M ;.;.;.;.} } { { [ [ [ [ [ [ [ [ [ [ [ [ [ [ [ [ [ [ { { 3.3.u.u.;.*.4 4 0 0 & & & & f f M M 0 0 $ $ g k y y 0 0 ",
"k k f f g g ~ ~ s s < < k k f g q q f f g g M M ;.;.;.;.} } { { [ [ [ [ [ [ [ [ [ [ [ [ [ [ [ [ [ [ { { 3.3.u.u.*.*.4 4 0 0 % % & & f f M M 0 0 $ $ k k y y 0 0 ",
"f f u u y y 6 6 8 8 0 0 b b f f 0 0 u u k k M M ;.;.;.;.+.+.{ { [ [ [ [ [ [ [ [ [ [ [ [ [ [ [ [ [ [ { { 4.4.1.1.o.o.w w O O . . & & k k M M r r $ $ u u u u < < ",
"f f u u y y 6 6 8 8 0 0 b b f f 0 0 u u k k M M ;.;.;.;.+.+.{ { [ [ [ [ [ [ [ [ [ [ [ [ [ [ [ [ { [ { { 4.4.1.1.o.o.w w O O . . & & k k M M r r $ $ u u u u < < ",
"2 2 < < , , o o < < w w b b f f & & u u f f M M E E ;.;.;.;.{ { [ [ [ [ [ [ [ [ [ [ [ [ [ [ [ [ { { } } ;.;.;.;.j j f f X X . . < < k k M M r r o o < < < < < < ",
"2 2 < < , , o o < < w w b b f f & & u u f f M M E E ;.;.;.;.{ { [ [ [ [ [ [ [ [ [ [ [ [ [ [ [ [ { { } } ;.;.;.;.j j f f X X . . < < k k M M r r o o < < < < < < ",
"y y y y 0 0 $ $ 0 0 g g g g u u & & y y u u M M f f &.&.;.;.@.@.{ { [ [ [ [ [ [ [ [ [ [ [ [ [ [ { { ;.;.;.-.| | y y u u o o . . & & k k M M r r O O 0 0 q q q q ",
"y y y y 0 0 $ $ 0 0 g g g g u u & & y y u u M M f f &.&.;.;.@.@.{ { [ [ [ [ [ [ [ [ [ [ [ [ [ [ { { ;.;.;.-.| | y y u u o o . . & & k k M M r r O O 0 0 q q q q ",
"M M M M g g $ $ 0 0 M M k k r r % % 0 0 u u M M f f D D ;.;.-.-.;.;.} } { { [ [ [ [ { { { { @.@.;.;.;.;.o.o.2 2 r r w w u u 0 0 0 0 f f M M r r $ $ r r k k k k ",
"M M M M g g $ $ 0 0 M M k k r r % % 0 0 u u M M f f D D ;.;.;.;.;.;.} } { { [ [ [ [ { { { { @.@.;.;.-.-.o.o.2 2 r r w w u u 0 0 0 0 f f M M r r $ $ r r k k k k ",
"M M b b f f $ $ 0 0 M M k g 0 0 $ $ 0 0 y y M M g k 0 0 T T *.*.;.;.;.;.;.;.;.;.;.;.;.;.;.;.;.;.;.;.....q q & & r r w w f f y y 0 0 u u M M r r $ $ y y M M N N ",
"M M b b f f $ $ 0 0 M M k k 0 0 $ $ 0 0 y y M M g g 0 0 T T *.*.;.;.;.;.;.;.;.;.;.;.;.;.;.;.;.;.;.;.....q q & & r r w w f f w y 0 0 u u M M r r $ $ y y M M N N ",
"< < < < < < # # 9 9 M M k k 0 0 $ $ 0 0 y y M M g g 0 0 q q y y H H ;.;.;.;.;.;.;.;.;.;.;.;. . .U U n n r r & & r q u u f f r r 0 q u u M M 0 0 % % y y m m k k ",
"< < < < < < # # 9 9 M M k k 0 0 $ $ 0 0 y y M M g g 0 0 q q y y H H ;.;.;.;.;.;.;.;.;.;.;.;. . .U U M M r r & & q q u u f f r r 0 0 u u M M 0 0 % % y y m m k k ",
"r r r r r r # # & & M M k k 0 0 $ $ 0 0 y y M M f f & & 0 0 u u y y u u l l Y Y Y Y L L u u k f M M M M q r & & r r u u f f r w r r f f M M % % $ $ y y u u r r ",
"r r r r r r # # & & M M k k 0 0 $ $ 0 0 y y M M f f & & 0 0 u u y y u u l l Y Y Y Y L L u u k f M M M M r r & & r q u u f f r r r r f f M M % % $ $ y y u u r r ",
"N N N N n n & & % % g g M M r r $ $ & & u u M M g g & & 0 0 u u f f k k M M M M M M k k f f k k n M M M r r & & r r u u g g w w u u g g 5 5 $ $ & & k k M M n n ",
"N N N N m n & & % % k g M M r r # $ & & u u M M g g & & 0 0 u u k k k k M M M M M M k k f f k k n M M M r r & & r r u u g g w w u u g g 5 5 $ $ & & k k M M n n ",
"m m m m m m < < % % & & 0 0 0 0 & & < < & & 9 9 & & $ $ $ $ $ $ % % % % & & 9 9 < < & & & & & & < < 0 0 < < % % & % % & % % % % % % % % $ $ $ $ , , u u m m M M ",
"m m m m m m & & % % & & 0 0 0 0 & & < < & & 9 9 & < $ $ $ $ $ $ % % % % & & 9 9 < < & & < & & & < < 0 0 < < % % & & % & % % % % % % % % $ $ $ $ , , u u m m M M ",
"0 0 2 2 q q 0 0 $ $ & & % % % % & % $ $ $ $ $ $ # # $ $ # # # # O O @ @ ; ; ; ; @ @ + + - - @ @ @ @ @ @ $ $ $ $ % % & & & & % % < < $ $ & & & & q q u u q q q q ",
"0 0 2 2 q q q 0 $ $ & & % % % % % % $ $ $ $ $ $ # # $ $ # # # # O O @ @ ; ; ; ; @ @ + + - - @ @ @ @ @ @ $ $ $ $ % % & & & & % % < < $ $ & & & & q q u u q q q q ",
"m m k k k k b b M M M M M M M M M M M M M M M M k k k k t t 4 4 4 4 4 4 e e 4 4 4 4 4 4 4 4 4 4 : : : : 4 4 t t e e r r y y u u u u u u u u y y y y r r q q u u ",
"m m k k k k b b M M M M M M M M M M M M M M M M k k k k t t 4 4 4 4 4 4 e e 4 4 4 4 4 4 4 4 4 4 : : : : 4 4 t t e e r r y y u u u u u u u u y y y y r r q q u u ",
"r r 0 0 0 0 0 0 r r r r r r r r r r r r r r y y e e 4 4 4 4 4 4 4 4 3 3 1 1 1 1 1 1 1 1 1 1 : : ; ; ; ; 3 3 i i k k n n m m m m m m m m m m m m m m n n n n N N ",
"r r 0 0 0 0 0 0 r r r r r r r r r r r r r r y y e e 4 4 4 4 4 4 4 4 3 3 1 1 1 1 1 1 1 1 1 1 : : ; ; ; ; 3 3 i i k k M n m m m m m m m m m m m m m m n n n n N N ",
"0 0 < < < < 2 2 y y y y u u u u y y y y y y r r q q q q 0 0 e e e e t t i i i i i i i i i i t t , , , , y y f f f f f f f f f f f f f f f f f f f f u u u u k k ",
"0 0 < < < < 2 2 y y y y u u u u y y y y y r r r q q q q 0 0 e e e e t t i i i i i i i i i i t t , , , , y y f f f f f f f f f f f f f f f f f f f f u u u u k k ",
"f f M M n n N N N N N N N N N N N N N N m m m m N N N N m m m m N N N N N N N N N N N N N N k k < < < < k k k k k k k k k k k k g g f f f g g f f f f f g g k k ",
"f f M M n n N N N N N N N N N N N N N N m m m N N N N N m m m m N N N N N N N N N N N N N N k b < < < < k k k k k k k k k k k k g g f f f g g f f f f f g g k k "
};
