/* XPM */
static const char *sprite_p4[] = {
/* columns rows colors chars-per-pixel */
"80 80 150 2 ",
"   c #010101",
".  c #0C0905",
"X  c #120D09",
"o  c #16100A",
"O  c #2C1D0E",
"+  c #301F0F",
"@  c #2E1F10",
"#  c #211A1A",
"$  c #291F18",
"%  c #261B14",
"&  c #30200F",
"*  c #3D2B0E",
"=  c #2E2217",
"-  c #27221D",
";  c #2B231B",
":  c #342414",
">  c #382716",
",  c #372917",
"<  c #392817",
"1  c #32251A",
"2  c #35281A",
"3  c #3C2B1A",
"4  c #0A1622",
"5  c #101D29",
"6  c #292726",
"7  c #2D2B25",
"8  c #2C2A28",
"9  c #332A23",
"0  c #3C2F22",
"q  c #332E2A",
"w  c #3F3024",
"e  c #36302B",
"r  c #3D342E",
"t  c #303534",
"y  c #343D3F",
"u  c #402F17",
"i  c #412E1C",
"p  c #423015",
"a  c #45311F",
"s  c #48331F",
"d  c #533C16",
"f  c #443324",
"g  c #4A3624",
"h  c #4E3925",
"j  c #43362B",
"k  c #493728",
"l  c #44392D",
"z  c #4C3A29",
"x  c #523B27",
"c  c #533E2A",
"v  c #4A3D31",
"b  c #584018",
"n  c #644713",
"m  c #63491D",
"M  c #705113",
"N  c #56412D",
"B  c #5B432E",
"V  c #4A463E",
"C  c #474A3B",
"Z  c #5E4630",
"A  c #574A3B",
"S  c #594C3C",
"D  c #664B22",
"F  c #60462F",
"G  c #634A2F",
"H  c #735827",
"J  c #795A21",
"K  c #604731",
"L  c #644A33",
"P  c #684D35",
"I  c #152E48",
"U  c #162C43",
"Y  c #17324E",
"T  c #1A344F",
"R  c #3B474B",
"E  c #345668",
"W  c #365C76",
"Q  c gray26",
"!  c #414847",
"~  c #4E4A41",
"^  c #544B40",
"/  c #555140",
"(  c #56524A",
")  c #444F53",
"_  c #4A585C",
"`  c #41535B",
"'  c #455B67",
"]  c #425C6A",
"[  c #835B16",
"{  c #8C671D",
"}  c #8F691A",
"|  c #966D17",
" . c #8F6A21",
".. c #856935",
"X. c #B28427",
"o. c #B3862B",
"O. c #B28934",
"+. c #CE9214",
"@. c #C09233",
"#. c #C29F5E",
"$. c #D1A44B",
"%. c #2C5887",
"&. c #2C5A8A",
"*. c #325F80",
"=. c #2E5E92",
"-. c #356284",
";. c #3A6483",
":. c #33648D",
">. c #38688F",
",. c #2E6096",
"<. c #2F639B",
"1. c #336694",
"2. c #366A95",
"3. c #316799",
"4. c #30679C",
"5. c #2F66A0",
"6. c #3067A2",
"7. c #3067A2",
"8. c #346AA5",
"9. c #3A6DA5",
"0. c #3C71AA",
"q. c #4075AD",
"w. c #4877A9",
"e. c #4878AC",
"r. c #4679B1",
"t. c #4C7FB5",
"y. c #497CB3",
"u. c #4F81B7",
"i. c #5587BC",
"p. c #598ABF",
"a. c #5A8BBF",
"s. c #5C8DC1",
"d. c #6090C3",
"f. c #6090C3",
"g. c #6796C9",
"h. c #6998CA",
"j. c #75A2D2",
"k. c #72A0D0",
"l. c #79A6D5",
"z. c #7CA8D7",
"x. c #8D8D8D",
"c. c #B8B8B9",
"v. c #82ADDC",
"b. c #86B1DE",
"n. c #88B2DF",
"m. c #89B3E1",
"M. c #89B3E1",
"N. c #DEDFE1",
"B. c #ECEDEF",
"V. c white",
/* pixels */
"0 0 w w f f f f 0 0 0 0 0 0 0 0 0 0 0 0 w w 0 0 0 0 0 0 0 0 0 0 0 0 0 0 0 0 w w w w w w w w w w f f f f f f f f w w w w w w w w w w w w f f w w w w w w f f f f ",
"0 0 w w f f f f 0 0 0 0 0 0 0 0 0 0 0 0 w w 0 0 0 0 0 0 0 0 0 0 0 0 0 0 0 0 w w w w w w w w w w f f f f f f f f w w w w w w w w w w w w f f w f w w w w f f f f ",
"P P P P P P P P P P P P P P P P B B c c z z f f f f k k N N c c 3 3 : : : : : : : : : : : : : : : : c c P P P P P P P P P P P P P P P P P P P P P P P P P P P P ",
"P P P P P P P P P P P P P P P P B B c c z z f f f f k k N N c c 3 3 : : : : : : : : : : : : : : : : c c P P P P P P P P P P P P P P P P P P P P P P P P P P P P ",
"P P L L L L L L K K Z Z Z Z L L L L Z Z Z Z k k 0 0 k k f f : : : : : : : : : : : : : : : : : : : : : : : > P P P P P P P P P P L L L L L L L L L L L L L L P P ",
"P P L L L L L L K K Z Z Z Z L L L L Z Z Z Z k k 0 0 k k f f : : : : : : : : : : : : : : : : : : : : : : > > P P P P P P P P P P L L L L L L L L L L L L L L P P ",
"w w 0 0 0 0 f f k k k k k k z z c c N N N N k k 0 0 : : : : : : a a g g i i x x f f h h L L L L c c 3 3 : : 3 3 Z Z N N N N z z f f k k k k k k k k k k k k P P ",
"w w 0 0 0 0 f f k k k k k k z z c c N N N N k k 0 0 : : : : : : a a g g i i x x f f h h L L L L c c 3 3 : : 3 3 Z Z N N N N z z f f k k k k k k k k k k k k P P ",
"k k k k z z P P P P P P P P P P P P P P L L k k @ @ @ @ > > g g c c a a 3 3 h h f g x x L L L L N N B B i i O O > > k k k k k k z z z z c c Z Z Z Z L L L L P P ",
"k k k k z z P P P P P P P P P P P P P P L L k k @ @ @ @ > > g g c c a a 3 3 h h f g x x L L L L N N B B i i O O > > k k k k k k z z z z c c Z Z Z Z L L L L P P ",
"N N c c N N Z Z K K L K L L L L L L L L N N @ @ O O : : 3 3 x x h h a a 3 3 h h g g c c L L L L x x Z Z g g @ @ O O a a P P P P P P P P P P P P P P P P P P P P ",
"N N c c N N Z Z K K L K L L L L L L L L N N @ @ O O : : 3 3 x x h h a a 3 3 h h g g c c L L L L x x Z Z g g @ @ O O a a P P P P P P P P P P P P P P P P P P P P ",
"L L N N c c N N N N N N N N N N N N B B : : O O : : : : i i c c g g f f 3 3 x x h h c c L L L L x x N N g g : : i i O O c c P P P P P P P P P P P P P P P P P P ",
"L L N N c c N N N N N N N N N N N N B B : : O O : : : : i i c c g g f f 3 3 x x h h c c L L L L x x N N g g : : i i O O c c P P P P P P P P P P P P P P P P P P ",
"z z k k k k c c L L L L L L P P P P a a O O a a N N : : a a N N g g g g i i h h g g x x L L L L h h c c c c : : B B i i O O Z Z Z Z L L L L L L L L L L L L L L ",
"z z k k k k c c L L L L L L P P P P a a O O a a N N : : a a N N g g g g i i h h g g x x L L L L h h c c c c : : B B i i O O Z Z Z Z L L L L L L L L L L L L L L ",
"P P L L L L L L L L L L L L L L x x O O 3 3 L L N N : : a a K K h h g g i i x x h h c c K K L L h h x x c c : : x x L L : : O @ z z c z z z c c c c z z z z L L ",
"P P L L L L L L L L L L L L L L x x O O 3 3 L L N N : : a a K K h h g g i i x x h h c c K K L L h h x x c c : : x x L L : : @ @ z z c z z z c z c c z z z z L L ",
"B B N N N N N N B B B B Z Z c c O O : : N N K K N N : : s g L L x x ! ! W W 1.1.4.4.3.3.;.;.( ( h h h h N N > > g g L L x x O O i i c c c c N N N N c c c c L L ",
"B B N N N N N N B B B B Z Z c c O O : : c N K K N N : : s s L L x x ! ! W W 1.1.4.4.3.3.;.;.( ( h h h h N N > > g g L L x x O O i i c c c c N N N N c c c c L L ",
"L L B B N N N N N N N N K Z O O O O 3 3 B K Z Z c c : : a a L L -.-.8.8.t.t.s.s.k.k.s.s.q.q.6.6.1.1.v v N N , , a a L L L L : : O O L L P P P P P P P P P P Z Z ",
"L L B B N N N N N N N N K Z O O O O 3 3 B B Z Z c c : : a a L L -.-.8.8.t.t.s.s.k.k.s.s.q.q.6.6.1.1.v v N N , , a a L L L L : : O O L L P P P P P P P P P P Z Z ",
"P P P P P P P P P P P P x x O O : : h h B B Z Z c c : : l l 3.3.t.t.b.b.m.m.m.m.z.z.p.p.r.r.6.6.6.6.6.6.~ ~ : : i i L L K K x x O O a a P P P P P P P P P P Z Z ",
"P P P P P P P P P P P P x x O O : : h h B B K K c c : : l l 3.3.t.t.b.b.m.m.m.m.z.z.p.p.r.r.6.6.6.6.6.6.~ ~ : : i i L L K K x x O O a a P P P P P P P P P P Z Z ",
"L L L L L L L L L L Z Z : : O O i i h h N N K K x x , , 3.3.f.f.m.m.M.M.m.m.v.v.8.8.6.6.6.6.6.6.6.6.6.6.6.6.: : , , K K K K c c : : O O N N Z Z Z Z N N c c k k ",
"L L L L L L L L L L Z Z : : O O i i h h N N K K x x , , 3.3.f.f.m.m.M.M.m.m.v.v.8.8.6.6.6.6.6.6.6.6.6.6.6.6.: : , , K K K K c c : : O O N N Z Z Z Z N N c c k k ",
"0 0 0 0 0 0 0 0 0 0 3 3 : : : : g g h h N N K K x x -.-.u.u.n.n.M.M.m.m.j.j.0.0.6.6.6.6.6.6.6.6.6.6.6.6.6.6.:.:.: : Z Z Z Z B B a a O O 3 3 0 w 0 0 0 0 0 0 0 0 ",
"0 0 0 0 0 0 0 0 0 0 3 3 : : : : h g h h N N K F x x -.-.u.u.n.n.M.M.m.m.j.j.0.0.6.6.6.6.6.6.6.6.6.6.6.6.6.6.:.:.: : Z Z Z Z B B a a O O 3 3 0 0 0 0 0 0 0 0 0 0 ",
"k k k k k k k k k k 3 3 : : 3 3 f f x x N N B B ) ) 0.0.l.l.n.n.j.j.t.t.6.6.6.6.6.6.6.6.6.6.6.6.6.6.6.6.6.6.6.6.y y K K B B F F h h : : : : Z Z L L L L f f w w ",
"k k k k k k k k k k 3 3 : : 3 3 f f x x N N B B ) ) 0.0.l.l.n.n.j.j.t.t.6.6.6.6.6.6.6.6.6.6.6.6.6.6.6.6.6.6.6.6.y y K K B B F F h h : : : : Z Z L L L L f f w w ",
"k k k k k k f f f f : : : : a a i i x x c c B B :.:.i.i.v.v.p.p.6.6.6.6.6.6.6.6.6.6.6.6.6.6.6.6.6.6.6.6.6.6.6.6.:.:.K K N N B B g g i i O O L L P P P P c c 0 0 ",
"k k k k k k f f f f : : : : a a i i x x c c B B :.:.i.i.v.v.p.p.6.6.6.6.6.6.6.6.6.6.6.6.6.6.6.6.6.6.6.6.6.6.6.6.:.:.K K B N B B h h i i O O L L P P P P c c 0 0 ",
"f f f f k k k k f f : : , , g g a a x x c c ^ ^ 6.6.i.i.j.j.6.6.6.6.6.6.6.6.6.6.6.6.6.6.6.6.6.6.6.6.6.6.6.6.6.6.6.6.S S N N N N c c N N > > > > N N c c k k 0 0 ",
"f f f f k k k k f f : : , , g g a a x x c c ^ ^ 6.6.i.i.j.j.6.6.6.6.6.6.6.6.6.6.6.6.6.6.6.6.6.6.6.6.6.6.6.6.6.6.6.6.S S N N N N c x N N > > > > N N c c k k 0 0 ",
"N N B B P P P P g g : : 3 3 h h h h F F N N ] ] 6.6.f.f.u.u.B.B.5 5 <.<.6.6.6.6.6.6.6.6.6.6.9.9.N.N.4 4 6.6.6.6.6.6.' ' N N c c f f L L x x O O f f w w 0 0 0 0 ",
"N N Z Z P P L L g g : : 3 3 h h h h F B N N ] ] 6.6.f.f.u.u.B.B.5 5 <.<.6.6.6.6.6.6.6.6.6.6.9.9.N.N.4 4 6.6.6.6.6.6.' ' N N c c f f L L x x O O f f w w 0 0 0 0 ",
"N N Z Z P P L L : : : : a a c c c c K K N N ;.;.6.6.s.s.8.8.V.V.Q Q ,.,.6.6.6.6.6.6.6.6.6.6.8.8.V.V.6 6 6.6.6.6.8.8.;.;.N N c c f f L L N B : : k k c c k k 0 0 ",
"N N Z Z P P L L : : : : a a c c c c K K N N ;.;.6.6.s.s.8.8.V.V.Q Q ,.,.6.6.6.6.6.6.6.6.6.6.8.8.V.V.6 6 6.6.6.6.8.8.;.;.N N c c f f L L N B : : k k c c k k 0 0 ",
"f f f f f f k k : : : : h h c c N c K K B B 3.3.8.8.r.r.6.6.c.c.. . 5.5.6.6.6.6.<.<.<.<.6.6.5.5.x.x.    6.6.6.6.8.6.:.:.B B c c 9 9 L L B B : : N N P P L L 0 0 ",
"f f f f f f k k : : : : h h c c N c K K B B 3.3.8.8.r.r.6.6.c.c.. . 5.5.6.6.6.6.<.<.<.<.6.6.5.5.x.x.    6.6.6.6.6.6.:.:.B B c c 9 9 L L B B : : N N P P L L 0 0 ",
"0 0 0 0 0 0 3 3 = = : : K K x x c c F F B B 8.8.6.6.6.6.6.6.        ,.,.=.=.%.%.%.%.%.%.,.,.<.<.        6.8.y.y.y.y.2.2.#.#.....H H G G N N : : i i P P L L 0 0 ",
"0 0 0 0 0 0 3 3 = = : : K K x x c c F F B B 8.8.6.6.6.6.6.6.        ,.,.=.=.%.%.%.%.%.%.=.=.<.<.        6.8.y.y.y.y.2.2.#.#.....H H G G N N : : i i P P L L 0 0 ",
"f f k k Z Z k k : : : : L L h h c c B F N N 8.6.6.6.6.6.6.6.I I T T &.&.%.%.%.%.%.%.%.%.%.%.&.&.U U Y Y 6.6.g.g.p.p.2.2.$.$.O.O.o.o.D D B B : > : : z z k k 0 0 ",
"f f k k Z Z k k : : : : L L h h c c B B N N 6.6.6.6.6.6.6.6.I I T T &.&.%.%.%.%.%.%.%.%.%.%.&.&.U U Y Y 6.6.g.g.p.p.2.2.$.$.O.O.o.o.D D B B : : : : z z k k 0 0 ",
"f f w w w w # # 3 3 3 3 K K c c B B B B N N 4.4.6.6.6.6.6.6.=.=.%.%.%.%.%.%.%.%.%.%.%.%.%.%.%.%.%.%.<.<.8.8.v.v.h.h.>.>.X.X.@.@. . .d d G G > > : : k k k k 0 0 ",
"f f w w w w # # 3 3 3 3 K K c c B B B B N N 4.4.6.6.6.6.6.6.=.=.%.%.%.%.%.%.%.%.%.%.%.%.%.%.%.%.%.%.<.<.8.8.v.v.h.h.>.>.X.X.@.@. . .d d G G > > : : k k k k 0 0 ",
"w w w w k k J J m m 3 3 L L N N N N B B N N 1.1.6.6.6.6.6.6.%.%.%.%.%.%.%.%.%.%.%.%.%.%.%.%.%.%.%.%.&.&.9.9.m.m.g.g.;.;.} } +.+.n n , , L L 3 3 : : P P c c f f ",
"w w w w k k J J m m 3 3 L L N N N N B B N N 1.1.6.6.6.6.6.6.%.%.%.%.%.%.%.%.%.%.%.%.%.%.%.%.%.%.%.%.&.&.9.9.m.m.g.g.;.;.} } +.+.n n , , L L 3 3 : : P P c c f w ",
"N N B B L L X.X.{ { % % B B B B c c N N B B _ _ 6.6.6.6.,.,.%.%.%.%.%.%.%.%.%.%.%.%.%.%.%.%.%.%.%.%.&.&.9.9.v.v.8.8.E E b b [ [ p p 3 3 L L 3 3 : : L L z z f f ",
"N N B B L L X.X.{ { % % B B B B c c N N B B _ _ 6.6.6.6.,.,.%.%.%.%.%.%.%.%.%.%.%.%.%.%.%.%.%.%.%.%.&.&.9.9.v.v.8.8.E E b b [ [ p p 3 3 L L 3 3 : : L L z z f f ",
"Z Z N N B B | | M M 1 1 Z Z F F x x c c B B L L 6.6.6.6.=.=.%.%.%.%.%.%.%.%.%.%.%.%.%.%.%.%.%.%.%.%.&.&.w.w.g.g.6.4.7 7 2 2 ; ; = = c c L L i i : : L L z z f f ",
"Z Z N N B B | | M M 1 1 Z Z F F x x c c B B L L 6.6.6.6.=.=.%.%.%.%.%.%.%.%.%.%.%.%.%.%.%.%.%.%.%.%.&.&.w.w.g.g.6.4.7 7 2 2 $ $ = = c c L L i i : : L L z z f f ",
"N N c c k k * * u u i i L K F F a a x x B B L L 6.6.6.6.,.,.%.%.%.%.%.%.%.%.%.%.%.%.%.%.%.%.%.%.%.%.%.%.e.e.q.q.:.:.f f o o     = = B B L L a a : : N N c c 0 0 ",
"N N c c k k * * u u i 3 K K F F a a x x B B L L 6.6.6.6.,.,.%.%.%.%.%.%.%.%.%.%.%.%.%.%.%.%.%.%.%.%.%.%.e.e.q.q.:.:.f f o o     = = B B L L a a : : N N c c 0 0 ",
"w w 0 0 0 0 s s x x B B L L B B 3 3 h h N N L L ` ` 6.6.6.6.%.%.%.%.%.%.%.%.%.%.%.%.%.%.%.%.%.%.%.%.=.=.6.6.6.6.C C c c . .     1 1 B B L L f f : : 0 0 0 0 0 w ",
"w w 0 0 0 0 s s x x B B L L B B 3 3 h h N N L L ` ` 6.6.6.6.%.%.%.%.%.%.%.%.%.%.%.%.%.%.%.%.%.%.%.%.=.=.6.6.6.6.C C c c . .     1 1 Z B L L f f : : 0 0 0 0 0 0 ",
"z z z z k h i i f f B B B B x x , , g g x x L L c c 3.3.6.6.<.<.%.%.%.%.%.%.%.%.%.%.%.%.%.%.%.%.&.&.5.5.8.8.-.*.a a h h X X     = = N N L L f f : : k k k k k k ",
"z z z z k h i i f f B B B B x x , 3 g g x x L L c c 3.3.6.6.<.<.%.%.%.%.%.%.%.%.%.%.%.%.%.%.%.%.&.&.5.6.6.8.-.*.a a h h X X     = = N N L L g g : : k k k k k k ",
"L L L L N N 3 3 i i L L B B g g , , a a h h L L N N t t 6.6.8.6.6.6.=.=.%.%.%.%.%.%.%.%.%.%.<.<.6.6.6.6.:.:.2 2 i i f f k k 2 2 1 1 c c L L a a : : Z Z Z Z Z Z ",
"L L L L N N 3 3 i i L L B B g g , , a a h h L L N N t t 5.6.8.8.6.6.=.=.%.%.%.%.%.%.%.%.%.%.<.<.6.6.6.6.:.:.2 2 i i f f k k 2 2 1 1 c c L L a a : : Z Z Z Z Z Z ",
"L L K K N N : : i i L L B B i i : : i i g g L L N N : : R R 4.4.6.6.6.6.6.6.6.6.6.6.6.6.6.6.6.6.6.6.;.;.3 3 : : i i g g N N k k 3 3 h h L L a a : : L L L L P P ",
"L L K K N N : : i i L L B B i i : : i i g g L L N N : : R R 4.4.6.6.6.6.6.6.6.6.6.6.6.6.6.6.6.6.6.6.;.;.3 3 : : i i g g N N k k 3 3 h h L L a a : : L L L L P P ",
"0 0 0 0 0 0 : : 3 3 L L B B i i : : 3 3 g g L L N N O O > > k k W W 6.6.6.6.6.6.6.6.6.6.6.6.-.-./ / L L i i : : i i g g c c f f 3 3 g g L L 3 3 : : P P P P Z Z ",
"0 0 0 0 0 0 : : 3 3 L L B B i i : : 3 3 g g L L N N O O > > k k W W 6.6.6.6.6.6.6.6.6.6.6.6.-.-./ / L L i i : : i i g g c c f f 3 3 g g L L 3 3 : : P P P P Z Z ",
"k k k k h h : : : : L L B B a a : : 3 3 h h L L N N O O : : h h g g x x A A ( ( ( ( V V f f x x K K L L i i : : i i h h N N f f i i h h Z Z : : O O B B c c k k ",
"k k k k h h : : : : L L B B a a : : 3 3 h h L L N N O O : : h h g g x x A A ( ( ( ( V V f f x x K K L L i i : : i i h h N N f f i i x x Z Z : : O O B B c c k k ",
"P P P P L L O O O O i i L L a a : : 3 3 x x L L N N O O : : x x N N N N L L L L L L c c g g N N L L L L f f : : i i x x N N g g a a x x > > O O O O K K L L L L ",
"P P P P L L O O O O i i L L a a : : 3 3 x x L L N N O O : : x x N N N N L L L L L L c c g g N N L L L L f f : : i i x x N N g g a a x x > > O O O O K K L L L L ",
"P P P P P P : : O O O O : : : : , , 3 3 3 3 i i i 3 O O & & , , 3 3 3 3 3 3 i i 3 3 3 3 3 3 3 3 3 3 3 i 3 3 : : : : > 3 3 3 : : @ @ O O O O O O O O P P P P L L ",
"P P P P P P : : O O O O : = : : , , 3 3 3 3 i i i 3 O O & & , , 3 3 3 3 3 3 i i 3 3 3 3 3 3 3 3 3 3 3 i 3 3 : : : : > > 3 3 : : @ O O O O O O O O O P P P P L L ",
"f f w w k k a a O O O O O O O O : : : : : : : : : : + + O O : : = = ; ; - - - - - - - - - - ; ; = = = = : : > > > > 3 3 3 3 : : : : O O O O : : i i c c k k k k ",
"f f w w k k a a O O O O O O O O : : : : : : : : : : + + O O : : = = ; ; - - - - - - - - - - ; ; = = = = 1 : > > > > , 3 3 3 : : : : O O O O : : i i c c k k k k ",
"P P Z Z Z Z K K K K L L L L Z K K K L L L L L L Z Z Z Z l l r r r r r r r r j j r r r r r r r r 7 7 7 7 r r l l j j k k z z c c c c c c c c z z z z k k k k c c ",
"P P Z Z Z Z K K K K L L L L K K K K L L L L L L Z Z Z Z l l r r r r r r r r j j r r r r r r r r 7 7 7 7 r r l l j j k k z z c c c c c c c c z z z z k k k k c c ",
"k k f f f f f f k k k k k k k k k k k k k k z z j j r r r r r r r r e e q q q q q q q q q q 7 7 6 6 6 6 e e v v Z Z L L P P P P P P P P P P P P P P L L L L P P ",
"k k f f f f f f k k k k k k k k k k k k k k z z j j r r r r r r r r e e q q q q q q q q q q 7 7 6 6 6 6 e e v v Z Z L L P P P P P P P P P P P P P P L L L L P P ",
"f f 0 0 0 0 w w z z z z c c c c z z z z z z k k k k k k f f j j j j l l v v v v v v v v v v l l 9 9 9 9 z z N N N N N N N N N N N N N N N N N N N N c c c c Z Z ",
"f f 0 0 0 0 w w z z z z c c c c z z z z k k k k k k k k f f j j j j l l v v v v v v v v v v l l 9 9 9 9 z z N N N N N N N N N N N N N N N N N N N N c c c c Z Z ",
"N N L L L L P P P P P P P P P P P P P P P P P P P P P P P P P P P P P P P P P P P P P P P P K K 0 0 0 0 Z Z Z Z Z Z Z Z Z Z Z Z B B N N N Z Z N N N N N B Z Z Z ",
"N N L L L L P P P P P P P P P P P P P P P P P P P P P P P P P P P P P P P P P P P P P P P P K K 0 0 0 0 Z Z Z Z Z Z Z Z Z Z Z Z B B N N N N N N N N N N B B Z Z "
};
