/* XPM */
static const char *sprite3[] = {
/* columns rows colors chars-per-pixel */
"80 80 109 2 ",
"   c #000001",
".  c #0A121C",
"X  c #191919",
"o  c #0C1724",
"O  c #0E1C2C",
"+  c #1F2020",
"@  c #282726",
"#  c #2D2927",
"$  c #2C2A2A",
"%  c #3C2F22",
"&  c #342E2B",
"*  c #3F3023",
"=  c #37312E",
"-  c #3A322D",
";  c #3D3533",
":  c #3D393D",
">  c #443426",
",  c #483727",
"<  c #42362C",
"1  c #493728",
"2  c #4D3A29",
"3  c #523E2C",
"4  c #4C3B33",
"5  c #403739",
"6  c #56412D",
"7  c #59432F",
"8  c #5D4631",
"9  c #5F493A",
"0  c #604732",
"q  c #644A33",
"w  c #684D35",
"e  c #644C3D",
"r  c #694A3B",
"t  c #353441",
"y  c #373A53",
"u  c #433E4A",
"i  c #4C424D",
"p  c #4C4C4D",
"a  c #5D4A45",
"s  c #5F4E4F",
"d  c #454156",
"f  c #46445A",
"g  c #49475F",
"h  c #514857",
"j  c #5D4F57",
"k  c #59505F",
"l  c #494760",
"z  c #4E4B63",
"x  c #43496C",
"c  c #53516C",
"v  c #4C557C",
"b  c #2D5684",
"n  c #2C5887",
"m  c #2C5989",
"M  c #3F5485",
"N  c #3B588D",
"B  c #2E5E92",
"V  c #325F97",
"C  c #3B5D94",
"Z  c #2E6096",
"A  c #2F639B",
"S  c #3A6097",
"D  c #33649D",
"F  c #3A6098",
"G  c #2F66A0",
"H  c #3067A2",
"J  c #346AA4",
"K  c #386EA8",
"L  c #3C72AB",
"P  c #455785",
"I  c #495681",
"U  c #43598A",
"Y  c #416B9B",
"T  c #4277AF",
"R  c #4478B0",
"E  c #497CB4",
"W  c #4F81B7",
"Q  c #5984B3",
"!  c #5485BB",
"~  c #5587BC",
"^  c #5687BC",
"/  c #5284B9",
"(  c #5789BD",
")  c #598ABE",
"_  c #598ABF",
"`  c #5A8BBF",
"'  c #5E8EC2",
"]  c #5F8FC3",
"[  c #6090C3",
"{  c #6493C6",
"}  c #6998CA",
"|  c #6D99C8",
" . c #6E9CCD",
".. c #6F9CCD",
"X. c #709DCE",
"o. c #75A2D2",
"O. c #7DA9D8",
"+. c #84AFDD",
"@. c #86B0DD",
"#. c #86B0DE",
"$. c #86B1DE",
"%. c #86B1DF",
"&. c #88B2DF",
"*. c #88B2E0",
"=. c #89B3E0",
"-. c #89B3E1",
";. c #8AB4E1",
":. c #CED0D1",
">. c gray95",
/* pixels */
"% % * * > > > > % % % % % % % % % % % % * * % % % % % % % % % % % % % % % % * * * * * * * * * * > > > > > > > > * * * * * * * * * * * * > > * * * * * * > > > > ",
"% % * * > > > > % % % % % % % % % % % % * * % % % % % % % % % % % % % % % % * * * * * * * * * * > > > > * * > > * * * % * * * * * * * * > > > > * * * * > > > > ",
"w w w w w w w w w w w w w w w w 7 7 3 3 2 2 > > > > 1 1 6 6 6 6 7 7 7 7 7 7 7 7 8 8 0 0 q q w w w w w w w w w w w w w w w w w w w w w w w w w w w w w w w w w w ",
"w w w w w w w w w w w w w w w w 7 7 3 3 2 2 > > > > 1 1 6 6 6 6 7 7 7 7 7 7 7 7 8 8 0 0 q q w w w w w w w w w w w w w w w w w w w w w w w w w w w w w w w w w w ",
"w w q q q q q q 0 0 8 8 8 8 q q q q 8 8 8 8 , , % % , , 7 7 0 0 q q q q q q 0 0 8 8 8 8 8 8 8 8 8 8 q q w w w w w w w w w w w w q q q q q q q q q q q q q q w w ",
"w w q q q q q q 0 0 8 8 8 8 q q q q 8 8 8 8 , , % % , > 7 7 8 0 q q q q q q 0 0 8 8 8 8 8 8 8 8 8 8 q q w w w w w w w w w w w w q q q q q q q q q q q q q q w w ",
"* * % % % % > > , , , , , , 2 2 3 3 6 6 7 7 , , % % 3 2 7 7 7 7 7 7 8 8 q q q q q q q q q q 0 0 8 8 8 8 8 8 8 8 8 8 7 7 7 7 2 2 > > , , , , , , , , , , , , w w ",
"* * % % % % > > , , , , , , 2 2 3 3 6 6 7 7 , , % % 3 3 7 7 7 7 7 7 8 8 q q q q q q q q q q 0 0 8 8 8 8 8 8 8 8 8 8 7 7 7 7 2 2 > > , , , , , , , , , , , , w w ",
", , , , 2 2 w w w w w w w w w w w w w w q q , , % % 2 2 7 7 8 8 q q q q 0 0 8 8 8 8 7 7 3 3 2 2 2 2 3 3 3 3 2 2 1 1 1 1 1 1 1 1 2 2 2 2 3 3 8 8 8 8 q q q q w w ",
", , , , 2 2 w w w w w w w w w w w w w w q q , , % % 2 2 7 7 8 8 q q q q 0 0 8 8 8 8 7 7 3 3 2 2 2 1 3 3 3 3 2 2 1 1 1 1 1 1 1 1 2 2 2 2 3 3 8 8 8 8 q q q q w w ",
"6 6 3 3 7 7 8 8 0 0 q 0 q q q q q q q q 6 6 > > > > 7 7 w w w w w w 8 8 7 6 3 3 2 2 2 2 3 3 7 7 7 7 8 8 8 8 q q q q w w w w w w w w w w w w w w w w w w w w w w ",
"6 6 3 3 7 7 8 8 0 0 q q q q q q q q q q 6 6 > > > > 7 7 w w w w w w 8 8 7 7 3 3 2 2 2 2 3 3 7 7 7 7 8 8 8 8 q q q q w w w w w w w w w w w w w w w w w w w w w w ",
"q q 7 7 3 3 6 6 7 7 7 7 6 6 6 6 6 6 7 7 3 3 > > > > 6 6 8 8 8 8 7 7 3 3 3 3 6 6 8 8 q q w w w w w w w w w w w w w w w w w w w w w w w w w w w w w w w w w w w w ",
"q q 7 7 3 3 6 6 7 7 7 7 6 6 6 6 6 6 7 7 3 3 > > > > 6 6 8 8 8 8 7 7 3 3 3 3 6 6 8 8 q q w w w w w w w w w w w w w w w w w w w w w w w w w w w w w w w w w w w w ",
"2 2 , , , , 3 3 q q q q q q q w w w w w 7 7 > > > > 2 2 1 1 2 2 3 3 3 3 3 3 3 3 6 6 7 6 7 7 7 7 7 7 7 7 7 7 7 7 7 7 7 7 8 8 8 8 8 8 q q q q q q q q q q q q q q ",
"2 2 , , , , 3 3 q q q q q q w w w w w w 7 7 > > > > 2 2 1 1 2 2 3 3 3 3 3 3 3 3 6 6 7 6 7 7 7 7 7 7 7 7 7 7 7 7 7 7 7 7 8 8 8 8 8 8 q q q q q q q q q q q q q q ",
"w w q q q q q q q q q q q q q q q q q q 3 3 > > > > 2 2 6 6 7 7 6 6 6 6 6 6 6 6 6 6 7 7 6 6 7 7 7 7 7 7 7 7 7 7 3 3 2 2 2 2 2 2 2 2 2 2 3 3 2 2 3 3 2 2 2 2 q q ",
"w w q q q q q q q q q q q q q q q q q q 3 3 > > > > 2 2 6 6 7 7 6 6 6 6 6 6 6 6 6 6 7 7 6 6 6 7 7 7 7 7 7 7 7 7 3 3 2 2 2 2 2 2 2 2 2 2 3 3 2 2 3 3 2 2 2 2 q q ",
"7 7 6 6 7 7 7 7 7 7 7 7 8 8 7 7 8 8 8 8 3 3 > > > > 3 3 q q w w w w w w w w q q q q q q q q q q q q q q q q q q 8 8 6 6 6 6 6 6 3 3 3 3 3 3 6 6 6 6 3 3 3 3 q q ",
"7 7 6 6 7 7 7 7 7 7 7 7 8 8 7 7 8 8 8 8 3 3 > > > > 3 3 q q w w w w w w w w q q q q q q q q q q q q q q q q q q 8 8 6 6 6 6 6 6 3 3 3 3 3 3 6 6 6 6 3 3 3 3 q q ",
"q q 7 7 6 6 6 6 6 6 7 7 q q q q w w q q 7 7 , , % % 3 3 0 0 w w w w w w w w w w q q q q q q q q q q q q q q q q q q q q q q q q w w w w w w w w w w w w w w 8 8 ",
"q q 7 7 6 6 6 6 6 6 7 7 q q q q w w q q 7 7 , , % % 3 3 0 0 w w w w w w w w w w q q q q q q q q q q q q q q q q q q q q q q q q w w w w w w w w w w w w w w 8 8 ",
"w w w w w w w w w w w w w w w w w w q 8 8 8 > > % % 6 6 6 6 w w w w w w w w w w w w w w w w w w w w w w w w w w w w w w w w w w w w w w w w w w w w w w w w 8 8 ",
"w w w w w w w w w w w w w w w w w w q q 8 8 > > % % 6 6 6 6 w w w w w w w w w w w w w w w w w w w w w w w w w w w w w w w w w w w w w w w w w w w w w w w w 8 8 ",
"q q q q q q q q q q q q q q q q q q 8 8 7 7 % % % % , , > > 7 7 q q q q q q w w w w w w q q q q q q q q q q q q 8 8 8 8 8 8 8 8 8 8 7 7 6 6 8 8 8 8 7 7 3 3 , , ",
"q q q q q q q q q q q q q q q q q q 8 8 7 7 % % % % , , > > 7 7 q q q q q q w w w w w w q q q q q q q q q q q q 8 8 8 8 8 8 8 8 8 8 7 7 6 6 8 8 8 8 7 7 3 3 , , ",
"% % % % % % % % % % % % % % % % % % % % % % % % > > % % % % % % % % % % % % % % % % % % % % % % % % % % % % % % % % % % % % % % % % % % * * * * % % % % % % % % ",
"% % % % % % % % % % % % % % % % % % % % % % % % > > % % % % % % % % % % % % % % % % % % % % % % % % % % % % % % % % % % % % % % % % % % * * * * % % % % % % % % ",
", , , , 1 1 1 1 1 1 1 1 2 2 3 3 3 3 3 3 3 3 2 2 q q 2 2 2 2 3 3 3 3 6 6 7 7 8 8 8 8 8 8 0 0 0 0 8 8 0 0 q q q q q q 8 8 8 8 7 7 7 7 8 8 8 8 8 8 q q q q > > * * ",
", , , , 1 1 1 1 1 1 1 1 2 2 3 3 3 3 3 3 3 3 2 2 q q 2 2 2 2 3 3 3 3 6 6 7 7 8 8 8 8 8 8 0 0 0 0 8 8 q 0 q q q q q q 8 8 8 8 7 7 7 7 8 8 8 8 8 8 q q q q > > * * ",
", , , , , , > > , , 2 2 2 2 3 3 3 3 3 3 6 6 7 7 8 8 0 0 q q 0 0 8 8 q q q q q q q q q q q q w w w w w w w w w w w w w w w w w w w w w w w w w w w w w w 3 3 % % ",
", , , , , , > > , , 2 2 2 2 3 3 3 3 3 3 6 6 7 7 8 8 0 0 q q 0 0 8 8 q q q q q q q q q q q q w w w w w w w w w w w w w w w w w w w w w w w w w w w w w w 3 3 % % ",
"> > > > , , , , , , 1 1 1 1 1 1 2 2 2 2 3 3 7 7 0 0 q q q w w w w w w w w w q q q q q q q q q q q q q q q q q q q q q q q q 8 8 8 8 8 8 8 8 7 7 6 6 3 3 , , % % ",
"> > > > , , , , , , 1 1 1 1 1 1 2 2 2 2 3 3 6 7 0 0 q q q w w w w w w w w w q q q q q q q q q q q q q q q q q q q q q q q q 8 8 8 8 8 8 8 8 7 7 6 6 3 3 , , % % ",
"6 6 8 8 w w w w w w w w w w w w w w w w w w w w w w w w w w w w w w w w w w q q q q 8 8 8 8 8 8 8 8 8 8 8 8 8 8 7 7 7 7 6 6 6 6 3 3 3 3 3 3 3 3 > > * * % % % % ",
"6 6 8 8 w w w w w w w w w w w w w w w w w w w w w w w w w w w w w w w w w w q q q q 8 8 8 8 8 8 8 8 8 8 8 8 8 8 7 7 7 7 6 6 6 6 3 3 3 3 3 3 3 3 > > * * % % % % ",
"6 6 8 8 w w w w q q q q q q q q q q q q q q q q q q q q q q q q 7 7 7 7 3 3 2 2 2 2 2 2 3 3 7 7 q q w w w w w w w w w w w w w w 6 6 2 2 2 2 1 1 , , 3 3 1 1 % % ",
"6 6 8 8 w w w w q q q q q q q q q q q q q q q q q q q q q q q q 7 7 7 7 3 3 2 2 2 2 2 2 3 3 7 7 q q w w w w w w w w w w w w w w 6 6 2 2 2 2 1 1 , , 3 3 1 1 % % ",
"> > > > > > , , 3 3 6 6 6 6 7 7 7 7 8 8 8 8 8 8 8 8 8 8 8 8 q q q q q q q q 0 0 8 8 8 8 q q q q w w w w w w w w w w w w w w w w w w w w w w w w w w w w q q % % ",
"> > > > > > , , 3 3 6 6 6 6 7 7 7 7 8 8 8 8 8 8 8 8 8 8 8 8 q q q q q q q q 0 0 8 8 8 8 q q q q w w w w w w w w w w w w w w w w w w w w w w w w w w w w q q % % ",
"% % % % % % * * * * , , 2 2 2 2 2 2 2 2 2 2 2 2 2 2 3 3 6 6 7 7 8 8 0 0 q q q q q q q q q q q q w w w w w w w w w w w w w w w w w w w w w w q q w w w w q q % % ",
"% % % % % % * * * * , , 2 2 2 2 2 2 2 2 2 2 2 2 2 2 3 3 6 6 7 7 8 8 0 0 q q q q q q q q q q q q w w w w w w w w w w w w w w w w w w w w w w q q w w w w q q % % ",
"> > 1 1 8 8 q q w w w w w w q q q q 8 8 8 8 7 7 3 3 3 3 2 2 2 2 2 1 2 2 3 2 3 3 8 8 q q w w w w w w q q q q q q q q q q 7 7 7 7 6 6 6 6 3 3 3 3 2 2 2 2 , , % % ",
"> > 1 1 8 8 q q w w w w w w q q q q 8 8 8 8 7 7 3 3 3 3 2 2 2 2 2 1 2 2 3 3 3 3 8 8 q q w w w w w w q q q q q q q q q q 7 7 7 7 6 6 6 6 3 3 3 3 2 2 2 2 , , % % ",
"> > * * * * , , 3 3 8 8 8 8 7 7 7 7 6 6 3 3 3 3 3 3 3 3 3 3 1 1 , , , , , , > > > > , , 2 2 3 3 3 3 3 3 6 6 7 7 8 8 8 8 7 7 6 6 3 3 3 3 2 2 2 2 2 2 1 1 1 1 % % ",
"> > * * * * , , 3 3 8 8 8 8 7 7 7 7 6 6 3 3 3 3 3 3 3 3 3 3 1 1 , , , , , , > > > > , , 2 2 3 3 3 3 3 3 6 6 7 7 8 8 8 8 7 7 6 6 3 3 3 3 2 2 2 2 2 2 1 1 1 1 % % ",
"* * * * , , , , 2 1 2 2 3 3 3 3 3 3 3 3 3 3 2 2 2 2 2 2 2 2 1 1 1 1 1 1 1 1 1 1 1 1 1 1 1 1 1 1 1 1 2 2 3 3 7 7 0 0 q q 0 0 q q q q q q q q w w w w w w 3 3 > > ",
"* * * * , , , , 2 2 2 2 3 3 3 3 3 3 3 3 3 3 2 2 2 2 2 2 2 2 1 1 1 1 1 1 1 1 1 1 1 1 1 1 1 1 1 1 1 1 2 2 3 3 7 7 8 8 q q 0 0 q q q q q q q q w w w w w w 3 3 > * ",
"6 6 7 7 q q q q 8 8 8 8 8 8 8 8 8 8 8 8 8 8 8 8 8 8 q q q q q q e e s s c c v v U U U U U U v v k k e e w w w w w w w w w w w w w w w w w w w w w w q q 2 2 > > ",
"6 6 7 7 q q q q 0 8 8 8 8 8 8 8 8 8 8 8 8 8 8 8 8 8 q q q q q q e e s s c c v v U U U U U U v v k k e e w w w w w w w w w w w w w w w w w w w w w w q q 2 2 > > ",
"8 8 6 6 0 0 q q q q q q 8 8 8 8 8 8 0 0 9 9 c c U U D D H H H H L L R R L L H H J J L L J J H H H H H H H H H H F F c c e e w w w w q q q q q q w w q q 2 2 > > ",
"8 8 7 6 0 0 q q q q q q 8 8 8 8 8 8 0 0 9 9 c c U U D D H H H H L L R R L L H H J J L L J J H H H H H H H H H H F F c c e e w w w w q q q q q q w w q q 2 2 > > ",
"6 6 3 3 3 3 3 3 3 3 2 2 1 1 4 4 P P H H H H T T ) ) { { } } } } ( ( R R ~ ~ ] ] / / L L H H H H H H H H H H H H H H H H H H D D x x 1 1 q q q q q q 7 7 3 3 % % ",
"6 6 3 3 3 3 3 3 3 3 2 2 1 1 4 4 P P H H H H T T ) ) { { } } } } ( ( R R ~ ~ ] ] / / L L H H H H H H H H H H H H H H H H H H D D x x 1 1 q q q q q q 7 7 3 3 % % ",
"* * % % % % % % % % % % M M H H K K  . .%.%.*.*.+.+.o.o.W W H H H H H H L L J J H H H H H H H H H H H H H H H H H H H H H H H H H H H H d d * * > * % % % % % % ",
"* * % % % % % % % % % % M M H H K K  . .%.%.*.*.+.+.o.o.W W H H H H H H L L J J H H H H H H H H H H H H H H H H H H H H H H H H H H H H d d * * * * % % % % % % ",
"2 2 2 2 1 1 , , , , C C H H ) ) *.*.*.*.O.O./ / L L A A H H H H H H H H H H H H H H H H H H H H H H Y Y H H H H H H H H H H H H H H H H H H z z 2 2 1 1 , , , , ",
"2 2 2 2 1 1 , , , , C C H H ) ) *.*.*.*.O.O./ / L L A A H H H H H H H H H H H H H H H H H H H H H H Y Y H H H H H H H H H H H H H H H H H H z z 2 2 1 1 , , , , ",
"q q q q q q w w I I H H ] ] *.*.&.&.E E H H J J :.:.X X V V H H H H H H H H H H H H H H H H H H D D >.>.. . H H H H H H H H H H L L J J H H H H a a 8 8 8 8 8 8 ",
"q q q q q q w w I I H H ] ] *.*.&.&.E E H H J J :.:.X X V V H H H H H H H H H H H H H H H H H H D D >.>.. . H H H H H H H H H H L L J J H H H H a a 8 8 8 8 8 8 ",
"q q 0 0 8 8 w w D D H H *.*.%.%.J J H G H H H H + +     G G H H H H H H H H H H H H A A A A A A A A p p     H H H H H H H H H H T T X.X.H H H H P P q q q q w w ",
"q q 0 0 8 8 w w D D H H *.*.%.%.J J H H H H H H + +     G G H H H H H H H H H H H H A A A A A A A A p p     H H H H H H H H H H T T X.X.H H H H P P q q q q w w ",
"% % % % % % i i H H ! ! *.*.E E H H D D H H A A . . o o m m m m n n n n n n n n n n n n n n n n n n O O O O A A m m m m m m A A J J %.%.[ [ H H C C w w w w 8 8 ",
"% % % % % % i i H H ! ! *.*.E E H H D D H H A A . . o o m m m m n n n n n n n n n n n n n n n n n n O O O O A A m m m m m m A A J J %.%.[ [ H H C C w w w w 8 8 ",
", , 1 1 2 2 h h H H / / +.+.H H m m m m m m n n b b m m m m m m n n n n n n m m m m m m m m m m m m n n n n n n n n m m m m n n Q Q ;.;.) ) H H S S 8 8 3 3 1 1 ",
", , 1 1 2 2 h h H H / / +.+.H H m m m m m m n n b b m m m m m m n n n n n n m m m m m m m m m m m m n n n n n n n n m m m m n n Q Q ;.;.) ) H H S S 8 8 3 3 1 1 ",
"w w w w w w r r H H E E ~ ~ A A m m m m n n n n n n n n n n n n n n n n n n n n n n n n n n n n n n n n n n n n n n n n m m n n %.%.;.;. . .H H P P 0 0 q q q q ",
"w w w w w w r r H H E E ~ ~ A A m m m m n n n n n n n n n n n n n n n n n n n n n n n n n n n n n n n n n n n n n n n n m m n n %.%.;.;. . .H H P P 0 0 q q q q ",
"w w w w w w w w U U H H H H H H m m n n n n n n n n n n n n n n n n n n n n n n n n n n n n n n n n n n n n n n n n n n m m m m | | %.%.J J H H j j w w w w q q ",
"w w w w w w w w U U H H H H H H m m n n n n n n n n n n n n n n n n n n n n n n n n n n n n n n n n n n n n n n n n n n m m m m | | %.%.J J H H j j w w w w q q ",
"> > * * , , 7 7 4 4 D D H H H H Z Z m m n n n n n n n n n n n n n n n n n n n n n n n n n n n n n n n n n n n n n n m m A A A A J J L L H H x x 7 7 3 3 , , , , ",
"> > * * , , 7 7 4 4 D D H H H H Z Z m m n n n n n n n n n n n n n n n n n n n n n n n n n n n n n n n n n n n n n n m m A A A A J J L L H H x x 7 7 3 3 , , , , ",
"w w 8 8 8 8 4 4 = = ; ; C C H H H H H H H H A A A A A A Z Z Z Z A A A A A A A A Z Z B B B B B B B B B B Z Z D D D A H H H H H H H H N N t t $ $ $ $ 1 1 , , 3 3 ",
"w w 8 8 8 8 4 4 = = ; ; C C H H H H H H H H D A A A A A Z Z Z Z A A A A A A A A Z Z B B B B B B B B B B Z Z D D A A H H H H H H H H N N t t $ $ $ $ 1 1 , , 3 3 ",
"1 1 > > > > # # $ $ $ $ $ $ y y N N D D H H H H H H H H H H H H H H H H H H H H H H H H H H H H H H H H D D D D C C M M x x : : = = = = = = = = - - q q q q w w ",
"1 1 > > > > # # $ $ $ $ $ $ y y N N D D H H H H H H H H H H H H H H H H H H H H H H H H H H H H H H H H D D D D C C M M x x : : = = = = = = = - - - q q q q w w ",
"> > % % % % * * < < & & & & & & - - - - - - 5 5 u u d d f f l l z z g g d d u u : : ; ; ; ; = = @ @ @ @ = = = = = = = = = = = = = = = = - - < < 3 3 3 3 3 3 8 8 ",
"> > % % % % * * < < & & & & & & - - - - - - 5 5 u u d d f f l l z z g g d d u u : : ; ; ; ; = = @ @ @ @ = = = = = = = = = = = = = = = = - - < < 3 3 3 3 3 3 8 8 ",
"7 7 q q q q w w w w w w w w w w w w w w w w w w w w w w w w w w w w w w w w w w w w w w w w 8 8 % % % % 8 8 8 8 8 8 8 8 8 8 8 8 7 7 7 7 7 7 7 7 7 7 7 7 7 7 8 8 ",
"7 7 q q q q w w w w w w w w w w w w w w w w w w w w w w w w w w w w w w w w w w w w w w w w 8 8 % % % % 8 8 8 8 8 8 8 8 8 8 8 8 7 7 7 7 7 7 7 7 7 7 7 7 7 7 8 8 "
};
