/* XPM */
static const char *sprite2[] = {
/* columns rows colors chars-per-pixel */
"80 80 115 2 ",
"   c white",
".  c #FEFEFE",
"X  c #F1F5F2",
"o  c #ECF2EE",
"O  c #F8FAF9",
"+  c #FDFEFE",
"@  c #EBF1EE",
"#  c #7DA58D",
"$  c #48805F",
"%  c #3D7955",
"&  c #3B7854",
"*  c #3D7956",
"=  c #5F9073",
"-  c #AEC7B8",
";  c #E9F0EC",
":  c #427D5A",
">  c #33724D",
",  c #A8C3B3",
"<  c #F9FBFA",
"1  c #C5D7CC",
"2  c #35734E",
"3  c #8BAF9A",
"4  c #EDF3F0",
"5  c #FDFDFD",
"6  c #B4CBBD",
"7  c #759F86",
"8  c #D8E4DD",
"9  c #B3CABD",
"0  c #5C8E71",
"q  c #C2D5CA",
"w  c #3E7A57",
"e  c #ACC5B6",
"r  c #C7D8CE",
"t  c #BBD0C4",
"y  c #E6EEE9",
"u  c #387551",
"i  c #33714C",
"p  c #377550",
"a  c #EEF3F0",
"s  c #FCFDFC",
"d  c #518768",
"f  c #306B48",
"g  c #2F6947",
"h  c #88AD97",
"j  c #8CAF9A",
"k  c #183524",
"l  c #0A160F",
"z  c #2F6946",
"x  c #132A1D",
"c  c #173323",
"v  c #397652",
"b  c #D9E5DE",
"n  c #F5F8F7",
"m  c #316E4A",
"M  c #040905",
"N  c #000101",
"B  c #306B49",
"V  c black",
"C  c #33714D",
"Z  c #82A992",
"A  c #FBFCFC",
"S  c #92B4A0",
"D  c #2E6745",
"F  c #010302",
"G  c #010201",
"H  c #306C49",
"J  c #397653",
"K  c #D5E2DB",
"L  c #598C6E",
"P  c #2C6242",
"I  c #163121",
"U  c #0C1A12",
"Y  c #030604",
"T  c #316D4A",
"R  c #99B8A6",
"E  c #4A8261",
"W  c #32704C",
"Q  c #2E6645",
"!  c #32714C",
"~  c #2D6645",
"^  c #558A6B",
"/  c #F4F7F5",
"(  c #528868",
")  c #34734E",
"_  c #7FA78F",
"`  c #4F8565",
"'  c #D9E4DD",
"]  c #3A7753",
"[  c #A1BEAD",
"{  c #85AB95",
"}  c #3C7855",
"|  c #B1C9BB",
" . c #CDDCD3",
".. c #77A188",
"X. c #407B58",
"o. c #437D5B",
"O. c #417C5A",
"+. c #4D8464",
"@. c #E5EDE9",
"#. c #DDE8E2",
"$. c #A5C1B1",
"%. c #75A087",
"&. c #649478",
"*. c #5D8F71",
"=. c #629376",
"-. c #619275",
";. c #639377",
":. c #6C997F",
">. c #7DA58E",
",. c #97B7A4",
"<. c #BCD1C4",
"1. c #E5EDE8",
"2. c #F3F7F5",
"3. c #E1EBE5",
"4. c #EDF2EF",
/* pixels */
"                                                                                                                                                                ",
"                                                                                                                                                                ",
"                                                                                                                                                                ",
"                                                                                                                                                                ",
"                                                                                                                                                                ",
"                                                                                                                                                                ",
"                                                                                                                                                                ",
"                                                                                                                                                                ",
"                                                                                                                                                                ",
"                                                                                                                                                                ",
"                                                                                                                                                                ",
"                                                                                                                                                                ",
"                                                                                                                                                                ",
"                                                                                                                                                                ",
"                                                                                                                                                                ",
"                                                                                                                                                                ",
"                                                                                                                                                                ",
"                                                                                                                                                                ",
"                                                                                                                                                                ",
"                                                                                                                                                                ",
"                                                                                                                                                                ",
"                                                                                                                                                                ",
"                                                                                                                                                                ",
"                                                                                                                                                                ",
"                                                                                                                                                                ",
"                                                                                                                                                                ",
"                                                                                                                                                                ",
"                                                                                                                                                                ",
"                                                                                                                                                                ",
"                                                                                                                                                                ",
"                                                                                                                                                                ",
"                                                                                                                                                                ",
"                                                                        . . X X o o O O + +                                                                     ",
"                                                                        . . X X o o O O + +                                                                     ",
"                                                                @ @ # # $ $ % % & & * * = = - - ; ; . .                                                         ",
"                                                                @ @ # # $ $ % % & & * * = = - - ; ; . .                                                         ",
"                                                        X X : : > > > > > > > > > > > > > > > > > > , , < <                                                     ",
"                                                        X X : : > > > > > > > > > > > > > > > > > > , , < <                                                     ",
"                                                + + 1 1 2 2 > > > > > > > > > > > > > > > > > > > > > > 3 3 4 4                                                 ",
"                                                + + 1 1 2 2 > > > > > > > > > > > > > > > > > > > > > > 3 3 4 4                                                 ",
"                                            5 5 6 6 > > > > > > > > > > > > > > > > > > > > > > > > > > > > 7 7 8 8 + +                                         ",
"                                            5 5 6 6 > > > > > > > > > > > > > > > > > > > > > > > > > > > > 7 7 8 8 + +                                         ",
"                                        + + 9 9 > > > > > > > > > > > > > > > > > > > > > > > > > > > > > > > > 0 0 q q < <                                     ",
"                                        + + 9 9 > > > > > > > > > > > > > > > > > > > > > > > > > > > > > > > > 0 0 q q < <                                     ",
"                                    . . 6 6 > > > > > > > > > > > > > > > > > > > > > > > > > > > > > > > > > > > > w w e e O O                                 ",
"                                    . . 6 6 > > > > > > > > > > > > > > > > > > > > > > > > > > > > > > > > > > > > w w e e O O                                 ",
"                                    r r > > > > > > > > > > > > > > > > > > > > > > > > > > > > > > > > > > > > > > > > > > t t . .                             ",
"                                    r r > > > > > > > > > > > > > > > > > > > > > > > > > > > > > > > > > > > > > > > > > > t t . .                             ",
"                                y y u u > > > > > > > > > > > > i i > > > > > > > > > > > > > > > > > > > > > > > > > > > > p p a a                             ",
"                                y y u u > > > > > > > > > > > > i i > > > > > > > > > > > > > > > > > > > > > > > > > > > > p p a a                             ",
"                            s s d d > > > > > > > > > > > > f f g g > > > > > > > > > > > > > > > > > > > > > > > > > > > > > > h h 5 5                         ",
"                            s s d d > > > > > > > > > > > > f f g g > > > > > > > > > > > > > > > > > > > > > > > > > > > > > > h h 5 5                         ",
"                            j j > > > > > > > > > > > > k k l l z z > > > > > > > > > > > > > > x x c c > > > > > > > > > > > > v v b b                         ",
"                            j j > > > > > > > > > > > > k k l l z z > > > > > > > > > > > > > > x x c c > > > > > > > > > > > > v v b b                         ",
"                        n n v v > > > > > > > > > > m m M M N N > > > > > > > > > > > > > > B B V V N N C C > > > > > > > > > > > > Z Z A A                     ",
"                        n n v v > > > > > > > > > > m m M M N N > > > > > > > > > > > > > > B B V V N N C C > > > > > > > > > > > > Z Z A A                     ",
"                        S S > > > > > > > > > > > > D D N N F F > > > > > > > > > > > > > > > > G G V V H H > > > > > > > > > > > > J J K K                     ",
"                        S S > > > > > > > > > > > > D D N N F F > > > > > > > > > > > > > > > > G G V V H H > > > > > > > > > > > > J J K K                     ",
"                        L L > > > > > > > > > > > > P P G G I I > > > > > > > > > > > > > > > > U U Y Y T T > > > > > > > > > > > > > > R R 5 5                 ",
"                        L L > > > > > > > > > > > > P P G G I I > > > > > > > > > > > > > > > > U U Y Y T T > > > > > > > > > > > > > > R R 5 5                 ",
"                        E E > > > > > > > > > > > > W W Q Q > > > > > > > > > > > > > > > > > > ! ! ~ ~ C C ! ! > > > > > > > > > > > > ^ ^ / /                 ",
"                        E E > > > > > > > > > > > > W W Q Q > > > > > > > > > > > > > > > > > > ! ! ~ ~ C C ! ! > > > > > > > > > > > > ^ ^ / /                 ",
"                        ( ( > > > > > > > > > > > > > > > > > > > > > > > > > > > > > > > > > > > > W W W W > > > > > > > > > > > > > > ) ) < <                 ",
"                        ( ( > > > > > > > > > > > > > > > > > > > > > > > > > > > > > > > > > > > > W W W W > > > > > > > > > > > > > > ) ) < <                 ",
"                        _ _ > > > > > > > > > > > > > > C C > > > > > > > > > > > > > > > > > > > > > > > > > > > > > > > > > > > > > > ` ` . .                 ",
"                        _ _ > > > > > > > > > > > > > > C C > > > > > > > > > > > > > > > > > > > > > > > > > > > > > > > > > > > > > > ` ` . .                 ",
"                        ' ' ] ] > > > > > > > > > > > > > > > > > > > > > > > > > > > > > > > > > > > > > > > > > > > > > > > > > > > > [ [                     ",
"                        ' ' ] ] > > > > > > > > > > > > > > > > > > > > > > > > > > > > > > > > > > > > > > > > > > > > > > > > > > > > [ [                     ",
"                            { { 2 2 > > > > > > > > > > > > > > > > > > > > > > > > > > > > > > > > > > > > > > > > > > > > > > > > } } y y                     ",
"                            { { 2 2 > > > > > > > > > > > > > > > > > > > > > > > > > > > > > > > > > > > > > > > > > > > > > > > > } } y y                     ",
"                                Z Z v v > > > > > > > > > > > > > > > > > > > > > > > > > > > > > > > > > > > > > > > > > > ) ) : : | |                         ",
"                                Z Z v v > > > > > > > > > > > > > > > > > > > > > > > > > > > > > > > > > > > > > > > > > > ) ) : : | |                         ",
"                                     . .....: : p p ) ) > > > > > > > > > > > > > > > > ) ) 2 2 p p ] ] X.X.o.o.O.O.O.O.+.+.{ { @.@.                            ",
"                                     . .....: : p p ) ) > > > > > > > > > > > > > > > > ) ) 2 2 p p ] ] X.X.o.o.O.O.O.O.+.+.{ { @.@.                            ",
"                                                #.#.$.$.3 3 %.%.&.&.*.*.*.*.=.=.-.-.;.;.:.:.>.>.,.,.<.<.1.1.2.2.3.3.4.4.                                        ",
"                                                #.#.$.$.3 3 %.%.&.&.*.*.*.*.=.=.-.-.;.;.:.:.>.>.,.,.<.<.1.1.2.2.3.3.4.4.                                        ",
"                                                                                                                                                                ",
"                                                                                                                                                                ",
"                                                                                                                                                                ",
"                                                                                                                                                                "
};
