/* XPM */
static const char *sprite3[] = {
/* columns rows colors chars-per-pixel */
"80 80 108 2 ",
"   c white",
".  c #F8F5F8",
"X  c #E9DFE8",
"o  c #D0BBCF",
"O  c #B99AB8",
"+  c #AB85A9",
"@  c #A57DA4",
"#  c #AC86AA",
"$  c #BEA1BC",
"%  c #DBCADA",
"&  c #F9F6F9",
"*  c #CEB9CD",
"=  c #AC87AA",
"-  c #8D598A",
";  c #7B4179",
":  c #743671",
">  c #72336F",
",  c #733470",
"<  c #783C75",
"1  c #946592",
"2  c #CAB3C9",
"3  c #F7F3F7",
"4  c #7E447B",
"5  c #743571",
"6  c #854F83",
"7  c #C5ABC4",
"8  c #FDFDFD",
"9  c #AD89AB",
"0  c #793D76",
"q  c #7F467D",
"w  c #D9C8D8",
"e  c #9D719B",
"r  c #090408",
"t  c #3C1B3B",
"y  c #50244E",
"u  c #1A0B19",
"i  c #572755",
"p  c #753872",
"a  c #D2BED1",
"s  c #B594B3",
"d  c #2F152E",
"f  c black",
"g  c #3E1C3D",
"h  c #311630",
"j  c #0A0409",
"k  c #7A3F77",
"l  c #F0E9F0",
"z  c #FCFBFC",
"x  c #865184",
"c  c #020102",
"v  c #010101",
"b  c #652D63",
"n  c #B290B1",
"m  c #E4D8E3",
"M  c #7A3E77",
"N  c #71326E",
"B  c #010001",
"V  c #060306",
"C  c #030103",
"Z  c #71336E",
"A  c #976995",
"S  c #DED0DE",
"D  c #431E41",
"F  c #562654",
"G  c #5B2958",
"H  c #956593",
"J  c #FBF9FB",
"K  c #F1EBF1",
"L  c #81497E",
"P  c #A47BA2",
"I  c #733570",
"U  c #6F326D",
"Y  c #80477D",
"T  c #E2D5E2",
"R  c #8E5B8B",
"E  c #71336F",
"W  c #7E457B",
"Q  c #CEB8CD",
"!  c #EEE6ED",
"~  c #996C97",
"^  c #783B75",
"/  c #7C4179",
"(  c #A57DA3",
")  c #F0E9EF",
"_  c #E0D2DF",
"`  c #A47CA2",
"'  c #763973",
"]  c #753772",
"[  c #763974",
"{  c #7D437A",
"}  c #80487E",
"|  c #865083",
" . c #8E5C8C",
".. c #9B6E99",
"X. c #B08DAE",
"o. c #CCB5CB",
"O. c #F3EDF3",
"+. c #F4EFF4",
"@. c #E6DAE5",
"#. c #DECFDD",
"$. c #D6C4D5",
"%. c #D4C1D3",
"&. c #D4C1D4",
"*. c #D8C6D7",
"=. c #DFD1DF",
"-. c #EBE1EA",
";. c #F7F4F7",
":. c #FEFDFE",
/* pixels */
"                                                                                                                                                                ",
"                                                                                                                                                                ",
"                                                                                                                                                                ",
"                                                                                                                                                                ",
"                                                                                                                                                                ",
"                                                                                                                                                                ",
"                                                                                                                                                                ",
"                                                                                                                                                                ",
"                                                                                                                                                                ",
"                                                                                                                                                                ",
"                                                                                                                                                                ",
"                                                                                                                                                                ",
"                                                                                                                                                                ",
"                                                                                                                                                                ",
"                                                                                                                                                                ",
"                                                                                                                                                                ",
"                                                                                                                                                                ",
"                                                                                                                                                                ",
"                                                                                                                                                                ",
"                                                                                                                                                                ",
"                                                                                                                                                                ",
"                                                                                                                                                                ",
"                                                                                                                                                                ",
"                                                                                                                                                                ",
"                                                                                                                                                                ",
"                                                                                                                                                                ",
"                                                                                                                                                                ",
"                                                                                                                                                                ",
"                                                                                                                                                                ",
"                                                                                                                                                                ",
"                                                                                                                                                                ",
"                                                                                                                                                                ",
"                                                                                                                                                                ",
"                                                                                                                                                                ",
"                                                                                                                                                                ",
"                                                                                                                                                                ",
"                                                                                                                                                                ",
"                                                                                                                                                                ",
"                                                                                                                                                                ",
"                                                                                                                                                                ",
"                                                                                                                                                                ",
"                                                                                                                                                                ",
"                                                                                                                                                                ",
"                                                                                                                                                                ",
"                                                                                                                                                                ",
"                                                                                                                                                                ",
"                                                                                                                                                                ",
"                                                                                                                                                                ",
"                                                                . . X X o o O O + + @ @ # # $ $ % % . .                                                         ",
"                                                                . . X X o o O O + + @ @ # # $ $ % % . .                                                         ",
"                                        & & * * = = - - ; ; : : > > > > > > > > > > > > > > > > > > > > , , < < 1 1 2 2 . .                                     ",
"                                        & & * * = = - - ; ; : : > > > > > > > > > > > > > > > > > > > > , , < < 1 1 2 2 . .                                     ",
"                            3 3 + + 4 4 5 5 > > > > > > > > > > > > > > > > > > > > > > > > > > > > > > > > > > > > > > : : 6 6 7 7 8 8                         ",
"                            3 3 + + 4 4 5 5 > > > > > > > > > > > > > > > > > > > > > > > > > > > > > > > > > > > > > > : : 6 6 7 7 8 8                         ",
"                        9 9 0 0 > > > > > > > > > > > > > > > > > > > > > > > > > > > > > > > > > > > > > > > > > > > > > > > > > > q q w w                     ",
"                        9 9 0 0 > > > > > > > > > > > > > > > > > > > > > > > > > > > > > > > > > > > > > > > > > > > > > > > > > > q q w w                     ",
"                    e e 5 5 > > > > > > > > > > > > r r t t > > > > > > > > > > > > > > > > > > y y u u i i > > > > > > > > > > > > > > p p a a                 ",
"                    e e 5 5 > > > > > > > > > > > > r r t t > > > > > > > > > > > > > > > > > > y y u u i i > > > > > > > > > > > > > > p p a a                 ",
"                s s p p > > > > > > > > > > > > d d f f g g > > > > > > > > > > > > > > > > > > h h f f j j > > > > > > > > > > > > > > > > k k l l             ",
"                s s p p > > > > > > > > > > > > d d f f g g > > > > > > > > > > > > > > > > > > h h f f j j > > > > > > > > > > > > > > > > k k l l             ",
"            z z x x > > > > > > > > > > > > > > c c v v > > > > > > > > > > > > > > > > > > > > b b f f v v > > > > > > > > > > > > > > > > > > n n             ",
"            z z x x > > > > > > > > > > > > > > c c v v > > > > > > > > > > > > > > > > > > > > b b f f v v > > > > > > > > > > > > > > > > > > n n             ",
"            m m M M > > > > > > > > > > > > N N B B V V > > > > > > > > > > > > > > > > > > > > > > C C C C Z Z > > > > > > > > > > > > > > > > A A             ",
"            m m M M > > > > > > > > > > > > N N B B V V > > > > > > > > > > > > > > > > > > > > > > C C C C Z Z > > > > > > > > > > > > > > > > A A             ",
"            S S 0 0 > > > > > > > > > > > > > > D D F F > > > > > > > > > > > > > > > > > > > > > > G G G G Z Z Z Z > > > > > > > > > > > > > > H H J J         ",
"            S S 0 0 > > > > > > > > > > > > > > D D F F > > > > > > > > > > > > > > > > > > > > > > G G G G Z Z Z Z > > > > > > > > > > > > > > H H J J         ",
"            K K L L > > > > > > > > > > > > > > > > > > > > > > > > > > > > > > > > > > > > > > > > > > N N Z Z N N > > > > > > > > > > > > , , n n             ",
"            K K L L > > > > > > > > > > > > > > > > > > > > > > > > > > > > > > > > > > > > > > > > > > N N Z Z N N > > > > > > > > > > > > , , n n             ",
"                P P I I > > > > > > > > > > Z Z Z Z > > > > > > > > > > > > > > > > > > > > > > > > > > N N U U > > > > > > > > > > > > > > Y Y T T             ",
"                P P I I > > > > > > > > > > Z Z Z Z > > > > > > > > > > > > > > > > > > > > > > > > > > N N U U > > > > > > > > > > > > > > Y Y T T             ",
"                l l R R , , > > > > > > > > > > Z Z E E > > > > > > > > > > > > > > > > > > > > > > > > > > > > > > > > > > > > > > > > W W Q Q                 ",
"                l l R R , , > > > > > > > > > > Z Z E E > > > > > > > > > > > > > > > > > > > > > > > > > > > > > > > > > > > > > > > > W W Q Q                 ",
"                    ! ! ~ ~ ^ ^ > > > > > > > > > > > > > > > > > > > > > > > > > > > > > > > > > > > > > > > > > > > > > > 5 5 / / ( ( ) )                     ",
"                    ! ! ~ ~ ^ ^ > > > > > > > > > > > > > > > > > > > > > > > > > > > > > > > > > > > > > > > > > > > > > > 5 5 / / ( ( ) )                     ",
"                            _ _ ` ` 6 6 M M ' ' : : 5 5 5 5 : : ] ] p p p p p p p p [ [ 0 0 k k { { } } | |  . .....X.X.o.o.O.O.                                ",
"                            _ _ ` ` 6 6 M M ' ' : : 5 5 5 5 : : ] ] p p p p p p p p [ [ 0 0 k k { { } } | |  . .....X.X.o.o.O.O.                                ",
"                                            +.+.@.@.#.#.$.$.%.%.&.&.*.*.=.=.-.-.;.;.:.:.                                                                        ",
"                                            +.+.@.@.#.#.$.$.%.%.&.&.*.*.=.=.-.-.;.;.:.:.                                                                        ",
"                                                                                                                                                                ",
"                                                                                                                                                                "
};
