/* XPM */
static const char *sprite1[] = {
/* columns rows colors chars-per-pixel */
"80 80 108 2 ",
"   c black",
".  c #090B0D",
"X  c #0E1722",
"o  c #0F1924",
"O  c #18222F",
"+  c #152637",
"@  c #1C2530",
"#  c #152639",
"$  c #17293D",
"%  c #182A3E",
"&  c #322F2D",
"*  c #382F28",
"=  c #36312E",
"-  c #3B342E",
";  c #382F30",
":  c #363335",
">  c #3A3430",
",  c #463527",
"<  c #483727",
"1  c #40352C",
"2  c #493728",
"3  c #4C3A2A",
"4  c #533E2C",
"5  c #443A31",
"6  c #4C3E32",
"7  c #513F33",
"8  c #56412D",
"9  c #5A432F",
"0  c #544233",
"q  c #5D4631",
"w  c #604731",
"e  c #644A33",
"r  c #684D35",
"t  c #664D3B",
"y  c #343543",
"u  c #3E3E4B",
"i  c #483E41",
"p  c #3E4359",
"a  c #3E4662",
"s  c #534545",
"d  c #5D4D4B",
"f  c #414359",
"g  c #4D4A59",
"h  c #544A51",
"j  c #584D51",
"k  c #634E42",
"l  c #404C6D",
"z  c #46516F",
"x  c #4C526E",
"c  c #515064",
"v  c #525369",
"b  c #4A5472",
"n  c #475679",
"m  c #48577B",
"M  c #2C5887",
"N  c #2D5A8A",
"B  c #3D5886",
"V  c #325E8D",
"C  c #3E5C8A",
"Z  c #2E5E92",
"A  c #3A5F91",
"S  c #2E6196",
"D  c #2F639A",
"F  c #34639B",
"G  c #35689E",
"H  c #3067A2",
"J  c #3369A4",
"K  c #396FA8",
"L  c #3D72AB",
"P  c #435A83",
"I  c #4773A1",
"U  c #467AB1",
"Y  c #4A7DB4",
"T  c #4F82B8",
"R  c #5784B4",
"E  c #5E89B7",
"W  c #5385BB",
"Q  c #5788BD",
"!  c #5E8EC2",
"~  c #6291C5",
"^  c #6E99C7",
"/  c #6897C9",
"(  c #6D9BCD",
")  c #6B99CB",
"_  c #78A2CF",
"`  c #73A0D1",
"'  c #75A2D2",
"]  c #77A4D4",
"[  c #78A4D3",
"{  c #7AA6D6",
"}  c #7BA7D6",
"|  c #7CA8D7",
" . c #7EA9D6",
".. c #7DA9D8",
"X. c #7EAAD9",
"o. c #B9BABC",
"O. c #81ACDB",
"+. c #82ADDB",
"@. c #86B1DF",
"#. c #87B1DF",
"$. c #88B2DF",
"%. c #88B2E0",
"&. c #89B3E0",
"*. c #89B3E1",
"=. c #8AB4E1",
"-. c #CDCDCD",
";. c #E1E3E4",
":. c #EAEBEC",
/* pixels */
"r r r r r r r r r r r r r r r r r r r r r r < < 2 < 4 4 4 4 9 9 e e e e e e r r r r r r r r r r r r r r r r r r r r r r r r r r r r r r r r r r r r r r r r r r ",
"r r r r r r r r r r r r r r r r r r r r r r < < 2 < 4 4 4 4 9 9 e e e e e e r r r r r r r r r r r r r r r r r r r r r r r r r r r r r r r r r r r r r r r r r r ",
"r r r r e e e e e e e e e e e e e e e e e e < < < < 3 3 4 4 9 9 9 9 9 9 q q q q w w w w q q w w e e e e e e r r r r r r r r r r r r r r r r r r r r r r r r r r ",
"r r r r e e e e e e e e e e e e e e e e e e < < < < 3 3 4 4 9 9 9 9 9 9 q q q q w w w w q q w w e e e e e e r r r r r r r r r r r r r r r r r r r r r r r r r r ",
"2 2 < < 2 2 2 2 2 2 3 3 3 3 4 4 8 8 q q 9 9 < < 2 2 9 9 9 9 q q q q q q e e e e e e e e e e e e e e e e e e e e e e e e q q q q 4 4 3 3 3 3 3 3 3 3 3 3 3 3 3 3 ",
"2 2 < < 2 2 2 2 2 2 3 3 3 3 4 4 8 8 q q 9 9 < < 2 2 9 9 9 9 q q q q q q e e e e e e e e e e e e e e e e e e e e e e e e q q q q 4 4 3 3 3 3 3 3 3 3 3 3 3 3 3 3 ",
"4 4 9 9 r r r r r r r r r r r r r r r r w w < < 3 3 9 9 9 9 e e e e e e e e e e e e w w 9 9 8 8 4 4 8 8 8 8 4 4 4 4 4 4 3 3 3 3 3 3 3 3 3 3 8 8 q q q q w w e e ",
"4 4 9 9 r r r r r r r r r r r r r r r r w w < < 3 3 9 9 9 9 e e e e e e e e e e e e w w 9 9 8 8 4 4 8 8 8 8 4 4 4 4 4 4 3 3 3 3 3 3 3 3 3 3 8 8 q q q q w w e e ",
"e e e e w w e e e e e e r r r r e e e e 9 9 < < 4 4 e e r r r r r r e e q q 8 8 4 4 4 4 4 4 4 8 9 9 9 9 q q q q q q e e e e e e r r r r r r r r r r r r r r r r ",
"e e e e w e e e e e e e r r r r e e e e 9 9 < < 4 4 e e r r r r r r e e q q 8 8 4 4 4 4 4 4 8 8 9 9 9 9 q q q q q q e e e e e e r r r r r r r r r r r r r r r r ",
"e e e e q e q q q q 9 9 9 9 9 9 9 9 9 9 8 8 < < 8 8 e e e e e e q q 4 4 8 8 9 9 q q e e e e r r r r r r r r r r r r r r r r r r r r r r r r r r r r r r r r r r ",
"e e e e e e q q q q 9 9 9 9 9 9 9 9 9 9 8 8 < < 8 8 e e e e e e q q 4 4 8 8 9 9 q q e e e e r r r r r r r r r r r r r r r r r r r r r r r r r r r r r r r r r r ",
"q q q q e e e e e e e e e e e e r r r r q q < < 8 8 9 9 8 8 9 9 9 9 9 9 9 9 9 9 q q q q q q e e e e e e e e e e e e e e e e e e e e e e e e r r r r r r r r r r ",
"q q q q e w e e e e e e e e e e r r r r q q < < 8 8 9 9 8 8 9 9 9 9 9 9 9 9 9 9 q q q q q q e e e e e e e e e e e e e e e e e e e e e e e e r r r r r r r r r r ",
"e e e e e e e e r r r r r r r r r r r r q q < < 4 4 8 8 4 4 8 8 4 4 8 8 8 8 8 8 9 9 9 9 9 9 9 9 8 8 8 8 8 8 8 8 9 9 4 4 8 8 8 8 9 9 9 9 9 9 q q q q q q q q q q ",
"e e e e e e e e r r r r r r r r r r r r q q < < 4 4 8 8 4 4 8 8 4 4 8 8 8 8 8 8 9 9 9 9 9 9 9 9 8 8 8 8 8 8 8 8 9 9 4 4 8 8 8 8 9 9 9 9 9 9 q q q q q q q q q q ",
"e e e e e e e e w w q q q q q q q q q q 9 9 < < 8 8 r r r r r r r r e e e e e e e e e e e e e e e e e e e e e e e e 9 9 9 8 8 8 8 8 4 4 4 4 4 4 4 4 4 4 3 3 4 4 ",
"e e e e e e e e w w q q q q q q q q q q 9 9 < < 8 9 r r r r r r r r e e e e e e e e e e e e e e e e e e e e e e e e 9 9 9 9 8 8 8 8 4 4 4 4 4 4 4 4 4 4 3 3 4 4 ",
"w w w w q q w w e e e e e e e e e e r r q q < < 8 8 r r r r r r r r r r r r r r e e e e e e e e e e e e e e e e e e e e e e q q e e e e e e e e r r r r r r r r ",
"w w w w q q q q e e e e e e e e e e r r q q < < 8 8 r r r r r r r r r r r r r r e e e e e e e e e e e e e e e e e e e e e e e e e e e e e e e e r r r r r r r r ",
"r r r r r r r r r r r r r r r r r r r r q q , , 2 2 r r r r r r r r r r r r r r e e e e e e e e e e e e r r r r r r r r r r r r r r r r r r r r r r r r r r r r ",
"r r r r r r r r r r r r r r r r r r r r q q , , 2 2 r r r r r r r r r r r r r r e e e e e e e e e e e e r r r r r r r r r r r r r r r r r r r r r r r r r r r r ",
"r r r r r r r r r r r r r r r r r r r r 8 8 < < 2 2 r r r r r r r r r r r r r r r r r r r r r r r r r r r r r r r r r r r r r r r r e e e e e e e e e e e e e e ",
"r r r r r r r r r r r r r r r r r r r r 8 8 < < 2 2 r r r r r r r r r r r r r r r r r r r r r r r r r r r r r r r r r r r r r r r r e e e e e e e e e e e e e e ",
"r r r r q q 9 9 4 4 4 4 3 3 < < < < < < < < < < 2 2 2 2 2 2 3 3 3 3 3 3 3 3 3 3 2 2 2 2 3 2 2 2 2 2 2 2 2 2 2 2 2 2 2 2 3 3 2 2 3 3 3 3 3 3 3 3 3 3 3 3 < < < < ",
"r r r r q q 9 9 4 4 4 4 3 3 < < < < < < < < < < 2 2 2 2 2 2 3 3 3 3 3 3 3 3 3 3 2 2 2 2 2 2 2 2 2 2 2 2 2 2 2 2 2 2 2 2 3 3 3 3 3 3 3 3 3 3 3 3 3 3 3 3 < < < < ",
"3 3 2 2 < < < < < < 2 2 2 2 2 2 4 4 3 3 3 3 2 2 3 3 4 4 9 9 9 9 q q q q q q q q q q q q e e e e e e e e e e e e e e e e e e e e e e e e e e e e e e e e 4 4 < < ",
"3 3 2 2 < < < < < < 2 2 2 2 2 2 4 4 3 3 3 3 2 2 3 3 4 4 9 9 9 9 q q q q q q q q q q q q e e e e e e e e e e e e e e e e e e e e e e e e e e e e e e e e 4 4 < < ",
"e e e e r r r r r r r r r r r r r r r r r r e e r r r r r r r r r r r r r r r r r r r r r r r r r r r r r r r r r r r r r r r r r r r r r r r r r r r r e e < < ",
"e e e e r r r r r r r r r r r r r r r e r r e e r r r r r r r r e r r r r r r r r r r r r r r r r r r r r r r r r r r r r r r r r r r r r r r r r r r r e e < < ",
"e e q q q q q q q q q q q q q q q q q q e e e e e e e e e e e e e e e e e e e e e e e e e e e e r r r r r r r r r r r r r r r r r r r r r r r r r r r r e e < < ",
"e e q q q q q q q q q q q q q q q q q q e e e e e e e e e e e e e e e e e e e e e e e e e e e e r r r r r r r r r r r r r r r r r r r r r r r r r r r r e e < < ",
"r r e e e e e e e e e e e e e e e e e e e e e e e e r r r r r r r r r r r r r r r r e e e e e e e e e e e e e e e e e e e e q q q q q q q q 9 9 9 9 9 9 4 4 < < ",
"r r e e e e e e e e e e e e e e e e e e e e e e e e r r r r r r r r r r r r r r r r e e e e e e e e e e e e e e e e e e e e q q q q q q q q 9 9 9 9 9 9 4 4 < < ",
"r r r r r r r r r r r r r r r r r r r r r r r r r r r r r r r r r r r r r r r r e e e e e e e e q q q q q q q q q q q q q q 9 9 9 9 8 8 8 8 8 8 8 8 8 8 4 4 < < ",
"r r r r r r r r r r r r r r r r r r r r r r r r r r r r r r r r r r r r r r r r e e e e e e e e q q q q q q q q q q q q q q 9 9 9 9 8 8 8 8 8 8 8 8 8 8 4 4 < < ",
"r r r r r r e e e e e e e e e e e e e e e e e e e e e e e e e e h h b b C C F F F F A A n n d d e e r r r r r r r r r r r r r r e e 8 8 4 4 4 4 4 4 4 4 3 3 < < ",
"r r r r r r e e e e e e e e e e e e e e e e e e e e e e e e e e h h b b C C F F F F A A n n d d e e r r r r r r r r r r r r r r e e 8 8 4 4 4 4 4 4 4 4 3 3 < < ",
"q q q q q q 9 9 9 9 9 9 9 9 q q q q q q w w w w q q q q c c F F H H H H H H H H J J H H H H H H H H m m t t r r r r r r r r r r r r r r r r r r r r r r q q < < ",
"q q q q q q 9 9 9 9 9 9 9 9 q q q q q q w w w w q q q q c c F F H H H H H H H H J J H H H H H H H H m m t t r r r r r r r r r r r r r r r r r r r r r r q q < < ",
"8 8 9 9 9 9 8 8 4 4 4 4 4 4 4 4 4 4 4 4 4 4 4 4 s s A A H H H H W W ~ ~ ( ( { { ` ` ! ! Y Y K K H H H H H H v v r r r r r r r r r r r r r r r r r r e e 9 9 < < ",
"8 8 9 9 9 9 8 8 4 4 4 4 4 4 4 4 4 4 4 4 4 4 4 4 s s A A H H H H W W ~ ~ ( ( { { ` ` ! ! Y Y K K H H H H H H v v r r r r r r r r r r r r r r r r r r e e 9 9 < < ",
"e e e e r r r r r r r r e e e e e e w w q q h h H H H H Q Q @.@.%.%.%.%.X.X.~ ~ L L K K J J H H H H H H H H H H P P e e e e e e e e e e e e e e e e e e 8 8 < < ",
"e e e e r r r r r r r r e e e e e e w w q q h h H H H H Q Q @.@.%.%.%.%.X.X.~ ~ L L K K J J H H H H H H H H H H P P e e e e e e e e e e e e e e e e e e 8 8 < < ",
"e e e e e e e e w w q q q q q q q q 9 9 s s H H H H | | =.=.%.%.@.@./ / J J H H H H H H H H H H H H H H H H H H H H C C q q q q q q q q w w w w q q q q 4 4 < < ",
"e e e e e e e e w w q q q q q q q q 9 9 s s H H H H | | =.=.%.%.@.@./ / J J H H H H H H H H H H H H H H H H H H H H C C q q q q q q q q q w w w q q q q 4 4 < < ",
"q q q q q q q q q q q q w w q q w w w w H H H H +.+.=.=.$.$.~ ~ H H H H H H H H H H H H H H H H H H H H H H H H H H H H x x e e e e e e e e e e e e e e 4 4 2 2 ",
"q q q q q q q q q q q q w w q q w w w w H H H H +.+.=.=.$.$.~ ~ H H H H H H H H H H H H H H H H H H H H H H H H H H H H x x e e e e e e e e e e e e e e 4 4 2 2 ",
"r r r r r r r r r r r r r r r r r r F F H H { { %.%.{ { K K H H H H H H H H H H H H H H H H H H H H H H H H H H H H H H H H k k r r r r r r r r r r r r 4 4 2 2 ",
"r r r r r r r r r r r r r r r r r r F F H H { } %.%.{ { K K H H H H H H H H H H H H H H H H H H H H H H H H H H H H H H H H k k r r r r r r r r r r r r 4 4 2 2 ",
"e e e e r r r r r r r r r r r r d d H H T T %.%.~ ~ H H H H H H D D S S Z Z Z Z S S D D H H H H H H H H H H H H H H H H H H G G r r r r r r r r r r r r 4 4 2 2 ",
"e e e e r r r r r r r r r r r r d d H H T T %.%.~ ~ H H H H H H D D S S Z Z Z Z S S D D H H H H H H H H H H H H H H H H H H G G r r r r r r r r r r r r 4 4 2 2 ",
"q q q q q q q q q q 9 9 9 9 8 8 H H H H +.+.' ' H H H H ;.;.O O H H S S D D D D D S D D G G H H :.:.@ @ H H H H H H K K H H H H j j e e e e e e e e q q 3 3 2 2 ",
"q q q q q q q q q q 9 9 9 9 8 8 H H H H +.+.' ' H H H H ;.;.O O H H S S D D D D S S D D G G H H :.:.@ @ H H H H H H K K H H H H j j e e e e e e e e e e 3 3 2 2 ",
"e e e e e e e e e e e e e e b b H H ! ! X.X.L L H H H H -.-.. . S D Z Z N N N N N N N N N N S S o.o.    H H H H H H W W L L H H A A e e e e e e r r r r 4 4 4 4 ",
"e e e e e e e e e e e e e e b b H H ! ! X.X.L L H H H H -.-.. . S D Z Z N N N N N N N N N N S S o.o.    H H H H H H W W L L H H A A e e e e e e r r r r 4 4 4 4 ",
"< < < < < < 2 2 2 2 3 3 4 4 H H H H ) ) W W H H H H S S X X X X N N N M N N N N N N N N N N M M o o o o N N D D H H ( ( ] ] J J H H 3 3 2 2 2 2 2 2 < < < < < < ",
"< < < < < < 2 2 2 2 3 3 4 4 H H H H ) ) W W H H H H S S X X X X N N N M N N N N N N N N N N M M o o o o N N D D H H ( ( ] ] J J H H 3 3 2 2 2 2 2 2 < < < < < < ",
"2 2 < < < < < < < < 2 2 3 3 H H K K W W H H H H N N M M + + $ $ N N N M N N N N N N N N N N N N % % # # M M M M N N [ [ %.%.Y Y H H i i < < < < < < < < < < < < ",
"2 2 < < < < < < < < 2 2 3 3 H H K K W W H H H H N N M M + + $ $ N N M M N N N N N N N N N N N N % % # # M M M M N N [ [ %.%.Y Y H H i i < < < < < < < < < < < < ",
"e e e e e e e e e e e e e e H H K K K K G G N N M M N N N N M M N N N N M M M M M M M M M M M M M M M M M M M M V V %.%.=.=.Q Q H H d d r r e e w e q q q q q q ",
"e e e e e e e e e e e e e e H H K K K K G G N N M M N N N N M M N N N N M M M M M M M M M M M M M M M M M M M M V V %.%.=.=.Q Q H H d d r r e e e e q q q q q q ",
"e e e e e e w w q q q q q q H H H H H H Z Z N N N N N N M M M M M M M M M M M M M M M M M M M M M M M M M M M M I I =.=.=.=.U U H H e e e e e e e e r e r r r r ",
"e e e e e e w w q q q q q q H H H H H H Z Z N N N N N N M M M M M M M M M M M M M M M M M M M M M M M M M M M M I I =.=.=.=.U U H H e e e e e e r e e e r r r r ",
"4 4 3 3 3 3 3 3 3 3 3 3 3 3 z z H H H H N N M M M M M M M M M M M M M M M M M M M M M M M M M M M M M M M M N N ^ ^ =.=.| | H H F F e e e e r r r r r r r r r r ",
"4 4 3 3 3 3 3 3 3 3 3 3 3 3 z z H H H H N N M M M M M M M M M M M M M M M M M M M M M M M M M M M M M M M M N N ^ ^ =.=.| | H H F F e e e e r r r r r r r r r r ",
"r r r r r r r r r r r r r r e e F F H H S S M M M N N M M M M M M M M M M M M M M M M M M M M M M M M M M M I I _ _ R R D D H H 7 7 4 4 8 8 q q q q q q q q q q ",
"r r r r r r r r r r r r r r e e F F H H S S M M M M N M M M M M M M M M M M M M M M M M M M M M M M M M M M I I _ _ R R D D H H 7 7 4 4 8 8 q q q q q q q q q q ",
"r r r r r r r r r r r r r r e e 5 5 H H H H Z Z M M M M M M M M M M M M M M M M M M M M M M M M M M M M V V E E I I D D H H g g q q e e e e e e e e e e r r r r ",
"r r r r r r r r r r r r r r e e 5 5 H H H H Z Z M M M M M M M M M M M M M M M M M M M M M M M M M M M M V V E E I I D D H H g g q q e e e e e e e e e e r r r r ",
"r r r r r r r r r r r r r r 6 6 > > > - F F H H D D N N M M M M M M M M M M M M M M M M M M M M N M M M N N G G H H A A f f > > 5 5 e e r r r r r r r r r r r r ",
"r r r r r r r r r r r r r r 6 6 > > > > F F H H D D N N M M M M M M M M M M M M M M M M M M M M M M M M N N G G H H A A f f > > 5 5 e e r r r r r r r r r r r r ",
"q q q q 9 9 9 9 9 9 9 9 8 8 & & & & & & & & p p H H H H D D Z Z N N N N N N N N N N Z Z Z Z S S D D H H H H A A a l ; ; & & & & = = 4 8 q q q q 9 9 9 9 9 9 9 9 ",
"q q q q 9 9 9 9 9 9 9 9 8 8 & & & & & & & & p p H H H H D D Z Z N N N N N N N N N N Z Z Z Z S S D D H H H H A A l l ; ; & & & & = = 8 8 q q q q 9 9 9 9 9 9 9 9 ",
"r r r r r r r r r r r r r r q q - - = = = = = = = = u u B B G G H H H H H H H H H H H H F F B B a a y y : : = = & & & & & & = = - - 2 2 8 8 9 9 4 4 4 4 4 4 8 8 ",
"r r r r r r r r r r r r r r q q - - = = = = = - = = u u B B G G H H H H H H H H H H H H F F B B a a y y : : = = & & & & & & = = - - 5 5 8 8 9 9 4 4 4 4 4 4 8 8 ",
"q q q q e e e e e e e e e e e e e e 0 0 6 6 5 5 > > > > > > > > > > > > 5 5 5 5 6 6 6 6 6 6 0 0 1 1 * * 6 6 6 6 6 6 6 6 0 0 e e r r r r r r r r r r r r r r r r ",
"q q q q e e e e e e e e e e e e e e 0 0 6 6 5 5 > > > > > > > > > > > > 5 5 5 5 6 6 6 6 6 6 0 0 1 1 * * 6 6 6 6 6 6 6 6 0 0 e e r r r r r r r r r r r r r r r r ",
"8 8 4 4 4 4 4 4 4 4 4 4 4 4 4 4 4 4 4 4 4 4 3 3 3 3 3 3 3 3 8 8 w q e e r r r r r r r r r r r r 4 4 2 2 e e r r r r r r r r r r r r r r r r r r e e e e e e e e ",
"8 8 4 4 4 4 4 4 4 4 4 4 4 4 4 4 4 4 4 4 4 4 3 3 3 3 3 3 3 3 8 8 w w e e r r r r r r r r r r r r 4 4 2 2 e e r r r r r r r r r r r r r r r r r r e e e e e e e e "
};
