/* XPM */
static const char *sprite5[] = {
/* columns rows colors chars-per-pixel */
"80 80 99 2 ",
"   c #010202",
".  c #030608",
"X  c #0A0B0B",
"o  c #0A121B",
"O  c #19232C",
"+  c #132234",
"@  c #16283A",
"#  c #332C26",
"$  c #3C2F23",
"%  c #3F3023",
"&  c #3C332B",
"*  c #433425",
"=  c #483727",
"-  c #42362C",
";  c #493728",
":  c #4C3A29",
">  c #523E2C",
",  c #463A30",
"<  c #4A3C31",
"1  c #56412E",
"2  c #5A432F",
"3  c #4C433D",
"4  c #534132",
"5  c #5D4531",
"6  c #514238",
"7  c #604731",
"8  c #644A33",
"9  c #684D35",
"0  c #604B3A",
"q  c #3B4049",
"w  c #3F4C60",
"e  c #354E69",
"r  c #3E5675",
"t  c #484445",
"y  c #504947",
"u  c #594E46",
"i  c #514D4B",
"p  c #59514E",
"a  c #424C5D",
"s  c #514E50",
"d  c #49505C",
"f  c #565457",
"g  c #615042",
"h  c #465364",
"j  c #4C5665",
"k  c #44566D",
"l  c #465B73",
"z  c #435C7A",
"x  c #2C5786",
"c  c #2C5887",
"v  c #2C5A8A",
"b  c #3B5B83",
"n  c #355C8B",
"m  c #2E5E92",
"M  c #325E91",
"N  c #2E6095",
"B  c #2F639B",
"V  c #30659D",
"C  c #3067A2",
"Z  c #356BA5",
"A  c #396FA8",
"S  c #3D71A7",
"D  c #3C71AA",
"F  c #4377AE",
"G  c #4679B1",
"H  c #4C7EB4",
"J  c #4F81B7",
"K  c #5584B6",
"L  c #5083B9",
"P  c #5284BA",
"I  c #5385BA",
"U  c #5385BB",
"Y  c #5485BB",
"T  c #5688BD",
"R  c #5E8FC2",
"E  c #5F8FC3",
"W  c #6393C6",
"Q  c #6494C7",
"!  c #6695C8",
"~  c #6796C8",
"^  c #6D9CCD",
"/  c #6E9CCD",
"(  c #75A2D2",
")  c #7BA7D7",
"_  c #7CA8D7",
"`  c #7EAAD9",
"'  c #80ACDA",
"]  c #83AEDC",
"[  c #85AFDD",
"{  c #85B0DE",
"}  c #87B2DF",
"|  c #88B2DF",
" . c #88B2E0",
".. c #89B3E1",
"X. c #8AB4E1",
"o. c gray82",
"O. c gainsboro",
"+. c #DFE1E2",
"@. c #EDEDEE",
/* pixels */
"$ $ % % * * * * $ $ $ $ $ $ $ $ $ $ $ $ % % $ $ $ $ $ $ $ $ $ $ $ $ $ $ $ $ % % % % % % % % % % * * * * * * * * % % % % % % % % % % % % * * % % % % % % * * * * ",
"$ $ % % * * * * $ $ $ $ $ $ $ $ $ $ $ $ % % $ $ $ $ $ $ $ $ $ $ $ $ $ $ $ $ % % % % % % % % % % * * * * * * * * % % % $ % % % % % % % % * * * * % % % % * * * * ",
"9 9 9 9 9 9 9 9 9 9 9 9 9 9 9 9 2 2 > > : : * * * * ; ; 1 1 1 1 2 2 2 2 2 2 2 2 5 5 7 7 8 8 9 9 9 9 9 9 9 9 9 9 9 9 9 9 9 9 9 9 9 9 9 9 9 9 9 9 9 9 9 9 9 9 9 9 ",
"9 9 9 9 9 9 9 9 9 9 9 9 9 9 9 9 2 2 > > : : * * * * ; ; 1 1 1 1 2 2 2 2 2 2 2 2 5 5 7 7 8 8 9 9 9 9 9 9 9 9 9 9 9 9 9 9 9 9 9 9 9 9 9 9 9 9 9 9 9 9 9 9 9 9 9 9 ",
"9 9 8 8 8 8 8 8 7 7 5 5 5 5 8 8 8 8 5 5 5 5 = = $ $ = = 2 2 7 7 8 8 8 8 8 8 7 7 5 5 5 5 5 5 5 5 5 5 8 8 9 9 9 9 9 9 9 9 9 9 9 9 8 8 8 8 8 8 8 8 8 8 8 8 8 8 9 9 ",
"9 9 8 8 8 8 8 8 7 7 5 5 5 5 8 8 8 8 5 5 5 5 = = $ $ = * 2 2 5 7 8 8 8 8 8 8 7 7 5 5 5 5 5 5 5 5 5 5 8 8 9 9 9 9 9 9 9 9 9 9 9 9 8 8 8 8 8 8 8 8 8 8 8 8 8 8 9 9 ",
"% % $ $ $ $ * * = = = = = = : : > > 1 1 2 2 = = $ $ > : 2 2 2 2 2 2 5 5 8 8 8 8 8 8 8 8 8 8 7 7 5 5 5 5 5 5 5 5 5 5 2 2 2 2 : : * * = = = = = = = = = = = = 9 9 ",
"% % $ $ $ $ * * = = = = = = : : > > 1 1 2 2 = = $ $ > > 2 2 2 2 2 2 5 5 8 8 8 8 8 8 8 8 8 8 7 7 5 5 5 5 5 5 5 5 5 5 2 2 2 2 : : * * = = = = = = = = = = = = 9 9 ",
"= = = = : : 9 9 9 9 9 9 9 9 9 9 9 9 9 9 8 8 = = $ $ : : 2 2 5 5 8 8 8 8 7 7 5 5 5 5 2 2 > > : : : : > > > > : : ; ; ; ; ; ; ; ; : : : : > > 5 5 5 5 8 8 8 8 9 9 ",
"= = = = : : 9 9 9 9 9 9 9 9 9 9 9 9 9 9 8 8 = = $ $ : : 2 2 5 5 8 8 8 8 7 7 5 5 5 5 2 2 > > : : : : > > > > : : ; ; ; ; ; ; ; ; : : : : > > 5 5 5 5 8 8 8 8 9 9 ",
"1 1 > > 2 2 5 5 7 7 8 7 8 8 8 8 8 8 8 8 1 1 * * * * 2 2 9 9 9 9 k k V V C C C C C C C C C C V V k k 5 5 5 5 8 8 8 8 9 9 9 9 9 9 9 9 9 9 9 9 9 9 9 9 9 9 9 9 9 9 ",
"1 1 > > 2 2 5 5 7 7 8 7 8 8 8 8 8 8 8 8 1 1 * * * * 2 2 9 9 9 9 k k V V C C C C C C C C C C V V k k 5 5 5 5 8 8 8 8 9 9 9 9 9 9 9 9 9 9 9 9 9 9 9 9 9 9 9 9 9 9 ",
"8 8 2 2 > > 1 1 2 2 2 2 1 1 1 1 1 1 2 2 > > * * * * 1 1 r r C C C C Z Z C C Z Z Z Z C C C C C C C C C C C C k k 9 9 9 9 9 9 9 9 9 9 9 9 9 9 9 9 9 9 9 9 9 9 9 9 ",
"8 8 2 2 > > 1 1 2 2 2 2 1 1 1 1 1 1 2 2 > > * * * * 1 1 r r C C C C Z Z C C Z Z Z Z C C C C C C C C C C C C k k 9 9 9 9 9 9 9 9 9 9 9 9 9 9 9 9 9 9 9 9 9 9 9 9 ",
": : = = = = > > 8 8 8 8 8 8 8 8 9 9 9 9 2 2 * * - - C C C C L L ! ! ! ! W W I I Z Z C C C C C C C C C C C C C C C C y y 5 5 5 5 5 5 8 8 8 8 8 8 8 8 8 8 8 8 8 8 ",
": : = = = = > > 8 8 8 8 8 8 9 9 9 9 9 9 2 2 * * - - C C C C L L ! ! ! ! W W I I Z Z C C C C C C C C C C C C C C C C y y 5 5 5 5 5 5 8 8 8 8 8 8 8 8 8 8 8 8 8 8 ",
"9 9 8 8 8 8 8 8 8 8 8 8 8 8 8 8 8 8 8 8 > > q q C C Z Z ^ ^ } } } } [ [ _ _ H H C C C C C C C C C C C C C C C C C C C C w w : : : : : : > > : : > > : : : : 8 8 ",
"9 9 8 8 8 8 8 8 8 8 8 8 8 8 8 8 8 8 8 8 > > q q C C Z Z ^ ^ } } } } [ [ _ _ H H C C C C C C C C C C C C C C C C C C C C w w : : : : : : > > : : > > : : : : 8 8 ",
"2 2 1 1 2 2 2 2 2 2 2 2 5 5 2 2 5 5 5 5 3 3 C C C C ) ) X.X.X.X.] ] I I A A C C C C C C C C C C C C C C C C C C C C C C C C 1 1 > > > > > > 1 1 1 1 > > > > 8 8 ",
"2 2 1 1 2 2 2 2 2 2 2 2 5 5 2 2 5 5 5 5 3 3 C C C C ) ) X.X.X.X.] ] I I A A C C C C C C C C C C C C C C C C C C C C C C C C 1 1 > > > > > > 1 1 1 1 > > > > 8 8 ",
"8 8 2 2 1 1 1 1 1 1 2 2 8 8 8 8 9 9 8 8 V V C C ( ( X.X.} } E E A A C C C C C C C C C C C C C C C C C C C C C C C C C C C C z z 9 9 9 9 9 9 9 9 9 9 9 9 9 9 5 5 ",
"8 8 2 2 1 1 1 1 1 1 2 2 8 8 8 8 9 9 8 8 V V C C ( ( X.X.} } E E A A C C C C C C C C C C C C C C C C C C C C C C C C C C C C z z 9 9 9 9 9 9 9 9 9 9 9 9 9 9 5 5 ",
"9 9 9 9 9 9 9 9 9 9 9 9 9 9 9 9 9 9 s s C C G G X.X. . .E E D D C C C C C C C C C C C C C C C C C C C C C C C C C C C C C C C C 9 9 9 9 9 9 9 9 9 9 9 9 9 9 5 5 ",
"9 9 9 9 9 9 9 9 9 9 9 9 9 9 9 9 9 9 s s C C G G X.X. . .E E D D C C C C C C C C C C C C C C C C C C C C C C C C C C C C C C C C 9 9 9 9 9 9 9 9 9 9 9 9 9 9 5 5 ",
"8 8 8 8 8 8 8 8 8 8 8 8 8 8 8 8 8 8 b b C C E E ] ] Q Q D D +.+.O O C C C C C C C C C C C C C C @.@.o o C C C C C C C C C C C C i i 2 2 1 1 5 5 5 5 2 2 > > = = ",
"8 8 8 8 8 8 8 8 8 8 8 8 8 8 8 8 8 8 b b C C E E ] ] Q Q D D +.+.O O C C C C C C C C C C C C C C @.@.o o C C C C C C C C C C C C i i 2 2 1 1 5 5 5 5 2 2 > > = = ",
"$ $ $ $ $ $ $ $ $ $ $ $ $ $ $ $ $ $ M M C C ! ! H H A A C C O.O.X X C C C C C C C C C C C C C C o.o.    C C C C C C Z Z T T C C e e $ $ % % % % $ $ $ $ $ $ $ $ ",
"$ $ $ $ $ $ $ $ $ $ $ $ $ $ $ $ $ $ M M C C ! ! H H A A C C O.O.X X C C C C C C C C C C C C C C o.o.    C C C C C C Z Z T T C C e e $ $ % % % % $ $ $ $ $ $ $ $ ",
"= = = = ; ; ; ; ; ; ; ; : : > > > > n n C C Y Y D D C C C C         B B B B B B B B B B B B B B . .     V V C C C C ^ ^ ' ' C C h h 5 5 5 5 5 5 8 8 8 8 * * % % ",
"= = = = ; ; ; ; ; ; ; ; : : > > > > n n C C Y Y D D C C C C         B B B B B B B B B B B B B B . .     V V C C C C ^ ^ ' ' C C h h 5 5 5 5 5 5 8 8 8 8 * * % % ",
"= = = = = = * * * = : : : : > > > > a a C C Z Z Z Z C C B V + + + + c c c c c c c c c c c c c c @ @ + + m m B B C C  . . . .C C p p 9 9 9 9 9 9 9 9 9 9 > > $ $ ",
"= = = = = = * * * = : : : : > > > > a a C C Z Z Z Z C C V V + + + + c c c c c c c c c c c c c c @ @ + + m m B B C C  . . . .C C p p 9 9 9 9 9 9 9 9 9 9 > > $ $ ",
"* * * * = = = = = = ; ; ; ; ; ; : : : : C C C C C C C C m m c c x x c c c c c c c c c c c c c c c c c c c c v v S S  . .| | C C 5 5 5 5 5 5 2 2 1 1 > > = = $ $ ",
"* * * * = = = = = = ; ; ; ; ; ; : : : : C C C C C C C C m m c c x x c c c c c c c c c c c c c c c c c c c c v v S S  . .| | C C 5 5 5 5 5 5 2 2 1 1 > > = = $ $ ",
"1 1 5 5 9 9 9 9 9 9 9 9 9 9 9 9 9 9 9 9 b b C C C C B B v v c c c c c c c c c c c c c c c c c c c c c c c c c c H H ` ` I I r r > > > > > > > > * * % % $ $ $ $ ",
"1 1 5 5 9 9 9 9 9 9 9 9 9 9 9 9 9 9 9 9 b b C C C C B B v v c c c c c c c c c c c c c c c c c c c c c c c c c c H H ` ` I I r r > > > > > > > > * * % % $ $ $ $ ",
"1 1 5 5 9 9 9 9 8 8 8 8 8 8 8 8 8 8 8 8 8 8 C C C C B B c c c c c c c c c c c c c c c c c c c c c c c c c c c c K K J J C C 9 9 1 1 : : : : ; ; = = > > ; ; $ $ ",
"1 1 5 5 9 9 9 9 8 8 8 8 8 8 8 8 8 8 8 8 8 8 C C C C B B c c c c c c c c c c c c c c c c c c c c c c c c c c c c K K J J C C 9 9 1 1 : : : : ; ; = = > > ; ; $ $ ",
"* * * * * * = = > > 1 1 1 1 2 2 2 2 5 5 5 5 d d C C C C c c c c c c c c c c c c c c c c c c c c c c c c c c c c F F C C g g 9 9 9 9 9 9 9 9 9 9 9 9 9 9 8 8 $ $ ",
"* * * * * * = = > > 1 1 1 1 2 2 2 2 5 5 5 5 d d C C C C c c c c c c c c c c c c c c c c c c c c c c c c c c c c F F C C g g 9 9 9 9 9 9 9 9 9 9 9 9 9 9 8 8 $ $ ",
"$ $ $ $ $ $ % % % % = = : : : : : : : : : : : : V V C C B B c c c c c c c c c c c c c c c c c c c c c c c c C C Z Z f f 9 9 9 9 9 9 9 9 9 9 8 8 9 9 9 9 8 8 $ $ ",
"$ $ $ $ $ $ % % % % = = : : : : : : : : : : : : V V C C B B c c c c c c c c c c c c c c c c c c c c c c c c C C Z Z f f 9 9 9 9 9 9 9 9 9 9 8 8 9 9 9 9 8 8 $ $ ",
"* * ; ; 5 5 8 8 9 9 9 9 9 9 8 8 8 8 5 5 5 5 2 2 6 6 C C C C C C v v c c c c c c c c c c c c c c c c m m C C C C j j 8 8 2 2 2 2 1 1 1 1 > > > > : : : : = = $ $ ",
"* * ; ; 5 5 8 8 9 9 9 9 9 9 8 8 8 8 5 5 5 5 2 2 6 6 C C C C C C v v c c c c c c c c c c c c c c c c m m C C C C j j 8 8 2 2 2 2 1 1 1 1 > > > > : : : : = = $ $ ",
"* * % % % % = = > > 5 5 5 5 2 2 2 2 1 1 > > > > > > t t C C C C C C B B m m v v v v N N B B B B C C C C C C d d 5 5 5 5 2 2 1 1 > > > > : : : : : : ; ; ; ; $ $ ",
"* * % % % % = = > > 5 5 5 5 2 2 2 2 1 1 > > > > > > t t C C C C C C B B m m v v v v N N B B B B C C C C C C d d 5 5 5 5 2 2 1 1 > > > > : : : : : : ; ; ; ; $ $ ",
"% % % % = = = = : : : : > > > > > > > > > > : : : : : : < < V V C C C C C C C C C C C C C C C C C C V V 6 6 2 2 7 7 8 8 7 7 8 8 8 8 8 8 8 8 9 9 9 9 9 9 > > * * ",
"% % % % = = = = : : : : > > > > > > > > > > : : : : : : < < V V C C C C C C C C C C C C C C C C C C V V 6 6 2 2 5 5 8 8 7 7 8 8 8 8 8 8 8 8 9 9 9 9 9 9 > > * * ",
"1 1 2 2 8 8 8 7 5 5 5 5 5 5 5 5 5 5 5 5 5 5 5 5 5 5 5 5 8 8 8 8 p p l l C C C C C C C C C C z z 9 9 9 9 9 9 9 9 9 9 9 9 9 9 9 9 9 9 9 9 9 9 9 9 9 9 8 8 : : * * ",
"1 1 2 2 8 8 8 8 7 5 5 5 5 5 5 5 5 5 5 5 5 5 5 5 5 5 5 5 8 8 8 8 p p l l C C C C C C C C C C z z 9 9 9 9 9 9 9 9 9 9 9 9 9 9 9 9 9 9 9 9 9 9 9 9 9 9 8 8 : : * * ",
"5 5 1 1 7 7 8 8 8 8 8 8 5 5 5 5 5 5 7 7 8 8 8 8 8 8 8 8 8 8 8 8 8 8 8 8 8 8 0 0 u u 0 0 8 8 9 9 9 9 9 9 9 9 9 9 9 9 9 9 9 9 9 9 9 9 8 8 8 8 8 8 9 9 8 8 : : * * ",
"5 5 2 2 7 7 8 8 8 8 8 8 5 5 5 5 5 5 7 7 8 8 8 8 8 8 8 8 8 8 8 8 8 8 8 8 8 8 0 0 u u 0 0 8 8 9 9 9 9 9 9 9 9 9 9 9 9 9 9 9 9 9 9 9 9 8 8 8 8 8 8 9 9 8 8 : : * * ",
"1 1 > > > > > > > > : : ; ; ; ; ; ; : : > > 1 1 2 2 2 2 2 2 2 2 1 1 1 1 > > > > > > > > 1 1 1 1 1 1 2 2 8 8 8 8 8 8 2 2 > > : : = = ; ; 8 8 8 8 8 8 2 2 > > $ $ ",
"1 1 > > > > > > > > : : ; ; ; ; ; ; : : > > 1 1 2 2 2 2 2 2 2 2 1 1 1 1 > > > > > > > > 1 1 1 1 1 1 2 2 8 8 8 8 8 8 2 2 > > : : = = ; ; 8 8 8 8 8 8 2 2 > > $ $ ",
"% % $ $ $ $ $ $ $ $ $ $ % % % % $ $ $ $ * * * * % % $ % % % % % $ $ $ $ % % $ $ $ $ $ $ $ $ $ $ $ $ $ $ % % * * * * $ $ % % % % % % * * * * % % % % $ $ $ $ $ $ ",
"% % $ $ $ $ $ $ $ $ $ $ $ % % % $ $ $ $ * * * * % % $ % % % % % $ $ $ $ % % $ $ $ $ $ $ $ $ $ $ $ $ $ $ % % * * * * $ $ % % % % % % * * * * % % % % $ $ $ $ $ $ ",
": : : : ; ; = = = = = = ; ; > > > > > > : : : : ; ; = = * * % % $ $ $ $ * * ; ; : : : : * * $ $ $ $ $ $ $ $ * * ; ; 1 1 2 2 2 2 2 2 > > > > > > : : ; ; = = = = ",
": : : : ; ; = = = = = = ; ; > > > > > > : : : : ; ; = = * * % % $ $ $ $ * * : ; : : : : * * $ $ $ $ $ $ $ $ * * ; ; 1 1 2 2 2 2 2 2 > > > > > > : : ; ; = = = = ",
"8 8 8 8 8 8 9 9 9 9 9 9 9 9 9 9 8 8 8 8 8 8 9 9 9 9 9 9 8 8 9 9 9 9 9 9 9 9 9 9 9 9 9 9 2 2 ; ; * * * * 1 1 8 8 8 8 9 9 9 9 9 9 9 9 8 8 8 8 8 8 8 8 5 5 5 5 5 5 ",
"8 8 8 8 8 8 9 9 9 9 9 9 9 9 9 9 8 8 8 8 8 8 9 9 9 9 9 9 8 8 9 9 9 9 9 9 9 9 9 9 9 9 9 9 2 2 ; ; * * * * 1 1 8 7 8 8 9 9 9 9 9 9 9 9 8 8 8 8 8 8 8 8 5 5 5 5 5 5 ",
"8 8 7 7 5 5 9 9 9 9 9 9 9 9 8 8 8 8 9 9 9 9 8 8 2 2 2 2 2 2 2 2 5 5 8 8 9 9 9 9 9 9 9 9 8 8 ; ; = = = = 5 5 9 9 9 9 9 9 9 9 9 9 9 9 9 9 9 9 9 9 8 8 8 8 8 8 9 9 ",
"8 8 7 7 5 5 9 9 9 9 9 9 9 9 8 8 8 8 9 9 9 9 8 8 2 2 2 2 2 2 2 2 5 5 8 8 9 9 9 9 9 9 9 9 8 8 ; ; = = = = 5 5 9 9 9 9 9 9 9 9 9 9 9 9 9 9 9 9 9 9 8 8 8 8 8 8 9 9 ",
"$ $ $ $ $ $ : : ; ; ; ; ; ; ; ; ; ; : : > > 2 2 2 2 2 2 5 5 5 5 8 8 9 9 9 9 9 9 9 9 9 9 9 9 : : * * = = 5 5 8 8 8 8 9 9 8 8 8 8 8 8 8 8 9 9 9 9 9 9 9 9 9 9 5 5 ",
"$ $ $ $ $ $ : : ; ; ; ; ; ; ; ; ; ; : : > > 2 2 2 2 2 2 5 5 5 5 8 8 9 9 9 9 9 9 9 9 9 9 9 9 : : * = = = 5 5 8 8 8 8 9 9 8 8 8 8 8 8 8 8 9 9 9 9 9 9 9 9 9 9 5 5 ",
"= = ; ; : : 1 1 2 2 2 2 2 2 2 2 2 2 2 2 2 2 2 2 2 2 2 2 2 2 5 5 5 5 5 5 8 8 8 8 7 7 7 7 8 8 > > * * $ $ * * * * = = > > > > > > > > > > 2 2 5 5 5 5 2 2 > > ; ; ",
"= = ; ; : : 1 1 2 2 2 2 2 2 2 2 2 2 2 2 2 2 2 2 2 2 2 2 2 2 5 5 5 5 5 5 8 8 8 8 7 7 8 8 8 8 > > * * $ $ * * * * = = > > > > > > > > > > 2 2 5 5 5 5 2 2 > > ; ; ",
"9 9 9 9 9 9 9 9 9 9 9 9 9 9 9 9 8 8 8 8 8 8 5 5 5 5 5 5 5 5 5 5 5 5 5 5 5 5 5 5 5 5 5 5 5 5 : : * * $ $ ; ; ; ; ; ; : : > > > > 1 1 2 2 5 5 5 5 5 5 7 7 8 8 8 8 ",
"9 9 9 9 9 9 9 9 9 9 9 9 9 9 9 9 8 8 8 8 8 8 5 5 5 5 5 5 5 5 5 5 5 5 5 5 5 5 5 5 5 5 5 5 5 5 : : * * $ $ ; ; ; ; ; ; : : > > > > 1 1 2 2 5 5 5 5 5 5 7 7 8 8 8 8 ",
"9 9 9 9 9 9 9 9 9 9 9 9 9 9 9 9 9 9 9 9 9 9 9 9 9 9 9 9 8 8 8 8 7 5 5 5 4 4 4 4 4 4 4 4 4 4 - - # # $ $ 5 5 8 8 8 8 9 9 9 9 9 9 9 9 9 9 9 9 9 9 9 9 9 9 9 9 8 8 ",
"9 9 9 9 9 9 9 9 9 9 9 9 9 9 9 9 9 9 9 9 9 9 9 9 9 9 9 9 8 8 8 8 8 8 5 5 4 4 4 4 4 4 4 4 4 4 - - # # $ $ 5 5 8 8 8 8 9 9 9 9 9 9 9 9 9 9 9 9 9 9 9 9 9 9 9 9 8 8 ",
"* * % % = = 2 2 2 2 2 2 2 2 2 2 2 2 2 2 2 2 2 2 2 2 5 5 4 4 < < < < , < , , , , , , , , < < & & # # # # < < 4 4 5 5 7 7 7 7 5 5 5 5 5 5 5 5 5 5 2 2 > > = = = = ",
"* * % % = = 2 2 2 2 2 2 2 2 2 2 2 2 2 2 2 2 2 2 2 2 5 5 4 4 < < < < , < , , , , , , , , < < & & # # # # < < 4 4 5 5 7 7 7 7 5 5 5 5 5 5 5 5 5 5 2 2 > > = = = = ",
"9 9 5 5 5 5 8 8 8 8 8 8 8 8 8 8 8 8 8 8 8 8 8 8 8 8 5 5 4 4 4 4 < < , , , , , , , , , , , , - - # # # # : : : : : : > > > > > > > > > > > > : : : : ; ; = = > > ",
"9 9 5 5 5 5 8 8 8 8 8 8 8 8 8 8 8 8 8 8 8 8 8 8 8 8 5 5 4 4 4 4 < < , , , , , , , , , , , , - - # # # # : : : : : : > > > > > > > > > > > > : : : : ; ; = = > > ",
"; ; * * * * * * ; ; ; ; ; ; ; ; ; ; ; ; ; ; : : : : > > 1 1 1 1 : : - - - - - & & & & & & & $ $ # # # # ; ; 5 5 9 9 9 9 9 9 9 9 9 9 9 9 9 9 9 9 9 9 8 8 8 8 9 9 ",
"; ; * * * * * * ; ; ; ; ; ; ; ; ; ; ; ; ; ; : : : : > > 1 1 1 1 : : - - - - - & & & & & & & $ $ # # # # ; ; 5 5 9 9 9 9 9 9 9 9 9 9 9 9 9 9 9 9 9 9 8 8 8 8 9 9 ",
"* * $ $ $ $ % % : : : : > > > > : : : : : : ; ; = = = = = = ; ; 1 1 5 5 8 8 9 9 9 9 8 8 8 8 1 1 $ $ $ $ 1 1 1 1 1 1 1 1 1 1 1 1 1 1 1 1 1 1 1 1 1 1 > > > > 5 5 ",
"* * $ $ $ $ % % : : : : > > > > : : : : : : ; ; = = = = = = ; ; 1 1 5 5 8 8 9 9 9 9 8 8 8 8 1 1 $ $ $ $ 1 1 1 1 1 1 1 1 1 1 1 1 1 1 1 1 1 1 1 1 1 1 > > > > 5 5 ",
"2 2 8 8 8 8 9 9 9 9 9 9 9 9 9 9 9 9 9 9 9 9 9 9 9 9 9 9 9 9 9 9 9 9 9 9 9 9 9 9 9 9 9 9 9 9 7 7 $ $ $ $ 5 5 5 5 5 5 5 5 5 5 5 5 2 2 2 2 2 2 2 2 2 2 2 2 2 2 5 5 ",
"2 2 8 8 8 8 9 9 9 9 9 9 9 9 9 9 9 9 9 9 9 9 9 9 9 9 9 9 9 9 9 9 9 9 9 9 9 9 9 9 9 9 9 9 9 9 7 7 $ $ $ $ 5 5 5 5 5 5 5 5 5 5 5 5 2 2 2 2 2 2 2 2 2 2 2 2 2 2 5 5 "
};
