/* XPM */
static const char *sprite6[] = {
/* columns rows colors chars-per-pixel */
"40 40 94 2 ",
"   c #000001",
".  c gray6",
"X  c #050A11",
"o  c #080F18",
"O  c #08111A",
"+  c #111519",
"@  c #352D27",
"#  c #3C2F22",
"$  c #3C2F2B",
"%  c #3F3023",
"&  c #3C3234",
"*  c #3A3B3C",
"=  c #443426",
"-  c #483727",
";  c #44372D",
":  c #493728",
">  c #45392F",
",  c #4C3A29",
"<  c #523E2C",
"1  c #473A30",
"2  c #4D3E31",
"3  c #513F32",
"4  c #503E39",
"5  c #56412D",
"6  c #59432F",
"7  c #534132",
"8  c #5D4531",
"9  c #564438",
"0  c #5C4A3E",
"q  c #604732",
"w  c #644A33",
"e  c #684D35",
"r  c #644B39",
"t  c #3A4A6A",
"y  c #385575",
"u  c #39517B",
"i  c #434343",
"p  c #4D4749",
"a  c #524642",
"s  c #5D4C43",
"d  c #53494A",
"f  c #584C49",
"g  c #4C4852",
"h  c #544D54",
"j  c #535052",
"k  c #604D42",
"l  c #605045",
"z  c #474C62",
"x  c #4D4E60",
"c  c #4A5067",
"v  c #425376",
"b  c #425479",
"n  c #2C5887",
"m  c #2D5A8B",
"M  c #3B5581",
"N  c #3C5885",
"B  c #2E5E92",
"V  c #355D92",
"C  c #315F99",
"Z  c #2E6196",
"A  c #2F639B",
"S  c #336097",
"D  c #32639C",
"F  c #3067A2",
"G  c #356BA5",
"H  c #386EA7",
"J  c #396FA8",
"K  c #3B70A9",
"L  c #3C71AA",
"P  c #3E73AC",
"I  c #4276AF",
"U  c #467AB1",
"Y  c #487BB3",
"T  c #497DB3",
"R  c #4B7EB5",
"E  c #4F82B8",
"W  c #5284B9",
"Q  c #598ABF",
"!  c #5C8DC1",
"~  c #6695C7",
"^  c #6695C8",
"/  c #6897C9",
"(  c #6B99CB",
")  c #6D9BCC",
"_  c #719ECF",
"`  c #75A2D2",
"'  c #80ABDA",
"]  c #83AEDC",
"[  c #84AFDD",
"{  c #86B1DF",
"}  c #88B2E0",
"|  c #8AB4E1",
" . c #D9DADC",
".. c #F1F1F1",
/* pixels */
"# % = = # # # # # # % # # # # # # # # % % % % % = = = = % % % % % % = = % % = = ",
"e e e e e e e e 6 < , = = : 5 5 6 8 9 a d d f s r e e e e e e e e e e e e e e e ",
"e w w q q 8 8 q q 8 8 = & t S F F F G F F F F F F D V b h e e e w w w w w w q e ",
"% # # = = = - , < 5 8 y F F H ) ` _ Y F F F F F F F F F F S g , = = = = = = = e ",
"= = , e e e e e e l S J / ] } ] Q J F F F F F F F F F F F F F u , , < 8 8 q w e ",
"5 < 6 8 q q q q j F ! | | ] T A F F F F F F F F F D F F F F F F V r e e e e e e ",
"q 6 < 5 6 6 5 p F ^ | | ( F  .. F F F F F F F F F ..+ F F F F F F V r e e e e e ",
", - - < q w r F F } [ K F F *   F F F F F F F F F i   F F F F F F F v q w w w w ",
"e w w w w w x F K { L F F F o o F A A F F F F F F X O F F F F F E P C , < , , w ",
"6 5 6 6 6 6 z F F F F F A A B n n n n n m B Z A A A Z B A F A F ' W S 3 5 < < q ",
"w 6 5 5 5 6 h F F F F A m n n n n n n n n n n n n n n m n Z A ~ ] I C r e e e 8 ",
"e e e e e e e V F F F n n n n n n n n n n n n n n n n n n n A ` } R N e e e e 8 ",
"q q q q q q w r D F F B n n n n n n n n n n n n n n n n n n A L U S 4 8 8 6 < = ",
"# # # # # # # # $ F F F m n n n n n n n n n n n n n n n n m A F C & % % # # # # ",
"- = : : : : , < < < V F F A Z m n n n n n n n n n n n m A F F M 9 8 8 8 q q = % ",
"= = = = = , , < < < 5 g D F F F F F F F A A Z Z A A F F D v k e e e e e e e < # ",
"= = = = = : : : , , < 6 q s b D F F F F F F F F F V c s w w q 8 8 8 8 6 5 < - # ",
"5 8 e e e e e e e e e e e e e e e r r s 0 8 8 8 8 8 8 8 6 6 5 5 < < < < = % # # ",
"5 8 e e w w w q w q q q q q q q 6 6 < , , , < 6 q e e e e e e e 5 , , : = < : # ",
"= = = = < 5 5 6 6 8 8 8 8 8 8 q q q q q 8 8 q w e e e e e e e e e e e e e e q # ",
"# # # % % = , , , , , , , < 5 6 8 q q q q q w w e e e e e e e e e e e w e e q # ",
"= : 8 q e e e w q 8 8 6 < < , , , , , < 8 w e e e w w w q q 6 6 5 5 < < , , - # ",
"= % % = < 8 8 6 6 5 < < < < < : - = = = = - , < < < 5 6 8 8 6 5 < < , , , : : # ",
"% % = = , , < < < < < , , , , : : : : : : : : : : , < 6 q q q q w w w e e e < = ",
"5 6 q q q 8 8 8 8 8 8 8 8 q q w w e e e e e e e e e e e e e e e e e e e e w , = ",
"8 6 q q q q 8 8 8 q q q q q q q q q q q w w w e e e e e e e e e e w w w e w , = ",
"5 < < < < , : : : , < 5 6 6 6 6 6 5 < < < < 5 5 5 6 q w q 6 < , - : q q w 6 < # ",
"% # # # # # # # # # = = % % % % # # % # # # # # # # % = = # % % = = = % % # # # ",
", , : = = = : < < < , , : = = % # # = , , , = # # # # = : 5 6 6 6 < < < , : = = ",
"q w w e e e e e w w w e e e w e e e e e e e 6 : = = 5 q e e e e e w q q q 8 8 8 ",
"w q 8 e e e e w w e e w 6 6 6 6 8 q e e e e w : = = 8 e e e e e e e e e w w w e ",
"# # # , : : : : : , < 6 6 6 8 q w e e e e e e < = = 8 q q e w w w q e e e e e 8 ",
"- : , 5 6 6 6 6 6 6 6 6 6 6 6 8 8 8 q q q q q < = # = = = < < < < < 6 8 8 6 < : ",
"e e e e e e e e w q q 8 8 8 8 8 8 8 8 8 8 8 8 , = # : : : , < < 5 6 8 8 8 q q w ",
"e e e e e e e e e e e e q 8 7 7 7 7 7 7 7 7 7 ; @ @ 7 8 q e e e e e e e e e e w ",
"= % = 6 6 6 6 6 6 6 6 5 > > > 1 1 2 2 2 2 2 2 ; @ @ 2 2 7 8 q 8 8 8 8 8 6 < = = ",
"e 8 8 q w w w w w w w w q w 8 7 2 2 7 3 3 7 7 , @ @ < < < < < < < < < , , : = < ",
": = = = : : : : : : : , , < 5 6 5 < < , , : : = # # < q e e e e e e e e e w w e ",
"= # # % , , < < , , , : = = = : 5 8 q e e e e 6 # # 5 5 5 5 5 5 5 5 5 5 5 < < 8 ",
"6 q w e e e e e e e e e e e e e e e e e e e e 8 # # 8 8 8 8 8 8 6 6 6 6 6 6 6 8 "
};
