/* XPM */
static const char *sprite_p5[] = {
/* columns rows colors chars-per-pixel */
"80 80 138 2 ",
"   c #010202",
".  c #030608",
"X  c #0A0B0B",
"o  c #1B140E",
"O  c #0A121B",
"+  c #241A12",
"@  c #2A1F14",
"#  c #2E2116",
"$  c #26231F",
"%  c #2C231B",
"&  c #312417",
"*  c #332619",
"=  c #36281C",
"-  c #3B2C1E",
";  c #19232C",
":  c #132234",
">  c #16283A",
",  c #282421",
"<  c #332A23",
"1  c #3C2E22",
"2  c #3F3123",
"3  c #3C332A",
"4  c #402F1F",
"5  c #453117",
"6  c #46331C",
"7  c #4A361D",
"8  c #412F21",
"9  c #443324",
"0  c #493626",
"q  c #4C3927",
"w  c #42362B",
"e  c #493728",
"r  c #44392F",
"t  c #4D3A29",
"y  c #523D2B",
"u  c #443830",
"i  c #4F3F30",
"p  c #5A411E",
"a  c #64481C",
"s  c #6D4F1C",
"d  c #70521E",
"f  c #7B571E",
"g  c #7E5B1F",
"h  c #56412D",
"j  c #5A432F",
"k  c #4F4136",
"l  c #544334",
"z  c #5D4631",
"x  c #594738",
"c  c #594A3E",
"v  c #654B25",
"b  c #60472F",
"n  c #6C5122",
"m  c #6F542A",
"M  c #604731",
"N  c #644A33",
"B  c #684D35",
"V  c #614B39",
"C  c #7C6134",
"Z  c #3D3E40",
"A  c #333F51",
"S  c #3C4B5B",
"D  c #364B66",
"F  c #374F6F",
"G  c #3E526C",
"H  c #375576",
"J  c #3E5675",
"K  c #474344",
"L  c #4A4646",
"P  c #4D4B4E",
"I  c #594C44",
"U  c #454F5F",
"Y  c #494F5C",
"T  c #545154",
"R  c #68655F",
"E  c #445264",
"W  c #415977",
"Q  c #88631E",
"!  c #B17F1C",
"~  c #815F23",
"^  c #836124",
"/  c #9D752C",
"(  c #927036",
")  c #9D7834",
"_  c #A77F33",
"`  c #B48C45",
"'  c #A88852",
"]  c #2C5786",
"[  c #2C5887",
"{  c #2C5A8A",
"}  c #395A82",
"|  c #365C8B",
" . c #2E5E92",
".. c #345F92",
"X. c #2E6095",
"o. c #2F639B",
"O. c #31659D",
"+. c #3067A2",
"@. c #366CA6",
"#. c #346AA4",
"$. c #396FA8",
"%. c #3A6FA9",
"&. c #3D71A7",
"*. c #3B71AA",
"=. c #3D72AB",
"-. c #4377AE",
";. c #4679B1",
":. c #4C7FB6",
">. c #4D7EB3",
",. c #4F81B7",
"<. c #5584B6",
"1. c #5083B9",
"2. c #5385BA",
"3. c #5485BB",
"4. c #5385BB",
"5. c #5688BD",
"6. c #5F8FC3",
"7. c #6393C6",
"8. c #6494C7",
"9. c #6796C8",
"0. c #6E9CCD",
"q. c #75A2D2",
"w. c #7BA7D7",
"e. c #7CA8D7",
"r. c #7EAAD9",
"t. c #80ACDA",
"y. c #83AEDC",
"u. c #85AFDD",
"i. c #87B2DF",
"p. c #85B0DE",
"a. c #88B2DF",
"s. c #89B3E1",
"d. c #8AB4E1",
"f. c #89B3E1",
"g. c gray82",
"h. c gainsboro",
"j. c #DFE1E2",
"k. c #EDEDEE",
/* pixels */
"1 1 2 2 9 9 9 9 1 1 1 1 1 1 1 1 1 1 1 1 2 2 1 1 1 1 1 1 1 1 1 1 1 1 1 1 1 1 1 1 1 1 1 1 1 1 1 1 9 9 9 9 9 9 9 9 2 2 2 2 2 2 2 2 2 2 2 2 9 9 2 2 2 2 2 2 9 9 9 9 ",
"1 1 2 2 9 9 9 9 1 1 1 1 1 1 1 1 1 1 1 1 2 2 1 1 1 1 1 1 1 1 1 1 1 1 1 1 1 1 1 1 1 1 1 1 1 1 1 1 9 9 9 9 9 9 9 9 2 2 2 2 2 2 2 2 2 2 2 2 9 9 2 9 2 2 2 2 9 9 9 9 ",
"B B B B B B B B B B B B B B B B j j y y t t 9 9 9 9 e e h h t t * * & & & * & & & & & & & & & & & & y y B B B B B B B B B B B B B B B B B B B B B B B B B B B B ",
"B B B B B B B B B B B B B B B B j j y y t t 9 9 9 9 e e h h t t * * & & & * & & & & & & & & & & & & y y B B B B B B B B B B B B B B B B B B B B B B B B B B B B ",
"B B N N N N N N M M z z z z N N N N M z z z 0 0 1 1 9 9 = = & & * * - - 2 2 e e - - - - 0 0 = = & & & & & & h h B B B B B B B B N N N N N N N N N N N N N N B B ",
"B B N N N N N N M M z z z z N N N N z z z z 0 0 1 1 9 2 = = & & * * - - 2 2 e e - - - - 0 0 = = & & & & & & h h B B B B B B B B N N N N N N N N N N N N N N B B ",
"2 2 1 1 1 1 9 9 0 0 0 0 e e t t y y h h h h 0 0 < < & & & # = = e e y y e e h h 9 9 q q N N N N h h - - & & & & e e h h h h t t 9 9 0 0 0 0 0 0 0 0 0 0 0 0 B B ",
"2 2 1 1 1 1 9 9 0 0 0 0 e e t t y y h h h h 0 0 < < & & # # = = e e y y e e h h 9 9 q q N N N N h h - - & & & & e e h h h h t t 9 9 0 0 0 0 0 0 0 0 0 0 0 0 B B ",
"0 0 0 0 t t B B B B B B B B B B B B B B N N 1 1 # # # # = = y y h h e e 0 0 y y 9 9 q q N N N N h h j j 9 9 * * # # 1 1 e e e e t t t t y y z z z z N N N N B B ",
"0 0 0 0 t t B B B B B B B B B B B B B B N N 1 1 # # & # = = y y h h e e 0 0 y y 9 9 q q N N N N h h j j 9 9 * * # # 1 1 e e e e t t t t y y z z z z N N N N B B ",
"h h y y h h z z M M N N N N N N N N N N e e # # & & = = 1 1 y y G G O.O.+.+.+.+.+.+.+.+.+.+.O.O.G G z z y y - - = = = = h h B B B B B B B B B B B B B B B B B B ",
"h h y y h h z z M M N N N N N N N N N N e e # # # & = = 1 1 y y G G O.O.+.+.+.+.+.+.+.+.+.+.O.O.G G z M y y - - = = = = h h B B B B B B B B B B B B B B B B B B ",
"N N h h y y h h h h h h h h h h h h y y # # # # 9 9 = = F F +.+.+.+.#.#.#.#.#.#.@.@.+.+.+.+.+.+.+.+.+.+.+.+.D D q e - - = = N N B B B B B B B B B B B B B B B B ",
"N N h h y y h h h h h h h h h h h h y y # # # & 9 9 = = F F +.+.+.+.#.#.#.#.#.#.@.@.+.+.+.+.+.+.+.+.+.+.+.+.D D q e - - = = M M B B B B B B B B B B B B B B B B ",
"t t e e e e y y N N N N N N B B N N - - & & q q x x +.+.+.+.1.1.8.8.8.8.8.7.3.2.@.@.+.+.+.+.+.+.+.+.+.+.+.+.+.+.+.+.K K * * e e z z N N N N N N N N N N N N N N ",
"t t e e e e y y N N N N N N B B N N - - & & q q x x +.+.+.+.1.1.8.8.8.8.7.7.3.3.@.@.+.+.+.+.+.+.+.+.+.+.+.+.+.+.+.+.K K * * e e z z N N N N N N N N N N N N N N ",
"B B N N N N N N N N N N N N N N e e & & 9 9 T T +.+.@.@.0.0.i.i.i.i.u.u.e.e.:.:.+.+.+.+.+.+.+.+.+.+.+.+.+.+.+.+.+.+.+.+.S S & & 9 0 t t t t y y y y t t t t N N ",
"B B N N N N N N N N N N N N N N e e & & 9 9 T T +.+.@.@.0.0.i.i.i.i.u.u.e.e.:.:.+.+.+.+.+.+.+.+.+.+.+.+.+.+.+.+.+.+.+.+.S S & & 9 9 t t t t y y y y t t t t N N ",
"j j h h h h h h j j j j z z t t & & = = I I +.+.+.+.w.w.d.d.d.d.y.y.2.2.$.$.+.+.+.+.+.+.+.+.+.+.+.+.+.+.+.+.+.+.+.+.+.+.+.+.= = * * y y y y h h h h y y y y N N ",
"j j h h h h h h j j j j z z t t & & = = I I +.+.+.+.w.w.d.d.d.d.y.y.2.2.$.$.+.+.+.+.+.+.+.+.+.+.+.+.+.+.+.+.+.+.+.+.+.+.+.+.= = * * y y y y h h h h y y y y N N ",
"N N j j h h h h h h h h z z = = & & t t O.O.#.#.q.q.d.d.i.i.6.6.$.$.+.+.+.+.+.+.+.+.+.+.+.+.+.+.+.+.+.+.+.+.+.+.+.+.+.+.+.+.H H = = h h B B B B B B B B B B z z ",
"N N j j h h h h h h h h z z = = & & t t O.O.#.#.q.q.d.d.i.i.6.6.$.$.+.+.+.+.+.+.+.+.+.+.+.+.+.+.+.+.+.+.+.+.+.+.+.+.+.+.+.+.H H = = h h B B B B B B B B B B z z ",
"B B B B B B B B B B B B y y & & - - P P +.+.;.;.d.d.s.s.6.6.*.*.+.+.+.+.+.+.+.+.+.+.+.+.+.+.+.+.+.+.+.+.+.+.+.+.+.+.+.+.+.+.+.+.1 1 = = N N B B B B B B B B z z ",
"B B B B B B B B B B B B y y * * - - P P +.+.;.;.d.d.s.s.6.6.*.*.+.+.+.+.+.+.+.+.+.+.+.+.+.+.+.+.+.+.+.+.+.+.+.+.+.+.+.+.+.+.+.+.1 1 = = N N B B B B B B B B z z ",
"N N N N N N N N N N z z = = * * y y } } +.+.6.6.y.y.8.8.=.=.j.j.; ; +.+.+.+.+.+.+.+.+.+.+.+.+.+.k.k.O O +.+.+.+.+.+.+.+.+.+.+.+.Z Z * * e e M M z z h h y y 0 0 ",
"N N N N N N N N N N z z = = * * y y } } +.+.6.6.y.y.8.8.=.=.j.j.; ; +.+.+.+.+.+.+.+.+.+.+.+.+.+.k.k.O O +.+.+.+.+.+.+.+.+.+.+.+.Z Z * * e e M M z z h h y y 0 0 ",
"1 1 1 1 1 1 1 1 1 1 = = @ @ = = h h ....+.+.9.9.:.:.$.$.+.+.h.h.X X +.+.+.+.+.+.+.+.+.+.+.+.+.+.g.g.    +.+.+.+.+.+.@.@.5.5.+.+.G G * * % % 1 1 1 1 1 1 1 1 1 1 ",
"1 1 1 1 1 1 1 1 1 1 = = @ @ = = h h ....+.+.9.9.:.:.$.$.+.+.h.h.X X +.+.+.+.+.+.+.+.+.+.+.+.+.+.g.g.    +.+.+.+.+.+.@.@.5.5.+.+.G G * * % % 1 1 1 1 1 1 1 1 1 1 ",
"0 0 0 0 e e e e e e = = & & 9 9 y y | | +.+.3.3.*.*.+.+.+.+.        o.o.o.o.o.o.o.o.o.o.o.o.o.o.. .     O.O.+.+.+.+.0.0.t.t.+.+.E E - - * * h h N N N N 9 9 2 2 ",
"0 0 0 0 e e e e e e = = & & 9 9 y y | | +.+.3.3.*.*.+.+.+.+.        o.o.o.o.o.o.o.o.o.o.o.o.o.o.. .     O.O.+.+.+.+.0.0.t.t.+.+.E E - - * * h h N N N N 9 9 2 2 ",
"0 0 0 0 0 0 9 9 9 9 & & = = e e t t U U +.+.@.@.#.#.+.+.O.O.: : : : [ [ [ [ [ [ [ [ [ [ [ [ [ [ > > : :  . .o.o.+.+.s.s.s.s.+.+.L L e e = = y y B B B B y y 1 1 ",
"0 0 0 0 0 0 9 9 9 9 & & = = e e t t U U +.+.@.@.#.#.+.+.O.O.: : : : [ [ [ [ [ [ [ [ [ [ [ [ [ [ > > : :  . .o.o.+.+.s.s.s.s.+.+.L L e e = = y y B B B B y y 1 1 ",
"9 9 9 9 0 0 0 0 1 1 & & - - q q t t l l +.+.+.+.+.+.+.+. . .[ [ ] ] [ [ [ [ [ [ [ [ [ [ [ [ [ [ [ [ [ [ [ [ { { &.&.s.s.a.a.+.+.t t z z = = = = h h y y e e 1 1 ",
"9 9 9 9 0 0 0 0 1 1 & & - - q q t t l l +.+.+.+.+.+.+.+. . .[ [ ] ] [ [ [ [ [ [ [ [ [ [ [ [ [ [ [ [ [ [ [ [ { { &.&.s.s.a.a.+.+.t t z z = = = = h h y y e e 1 1 ",
"h h z z B B B B 0 0 = = 9 9 y y y y z z } } +.+.+.+.o.o.{ { [ [ [ [ [ [ [ [ [ [ [ [ [ [ [ [ [ [ [ [ [ [ [ [ [ [ >.>.r.r.2.2.J J t t N N - - & & 2 2 2 2 1 1 1 1 ",
"h h z z B B B B 0 0 = = 9 9 y y y y z z } } +.+.+.+.o.o.{ { [ [ [ [ [ [ [ [ [ [ [ [ [ [ [ [ [ [ [ [ [ [ [ [ [ [ >.>.r.r.2.2.J J t t N N - - & & 2 2 2 2 1 1 1 1 ",
"h h z z B B N N = = = = e e h h h h z z j j +.+.+.+.o.o.[ [ [ [ [ [ [ [ [ [ [ [ [ [ [ [ [ [ [ [ [ [ [ [ [ [ [ [ <.<.1.1.+.+.y y e e N N 9 9 & & 0 0 y y e e 1 1 ",
"h h z z B B N N = = = = e e h h h h z z j j +.+.+.+.o.o.[ [ [ [ [ [ [ [ [ [ [ [ [ [ [ [ [ [ [ [ [ [ [ [ [ [ [ [ <.<.1.1.+.+.y y e e N N 9 9 & & 0 0 y y e e 1 1 ",
"9 9 9 9 9 9 9 9 & & - - y y h h h h z z z z Y Y +.+.+.+.[ [ [ [ [ [ [ [ [ [ [ [ [ [ [ [ [ [ [ [ [ [ [ [ [ [ [ [ -.-.+.+.c c h h 9 9 N N y t = = h h B B N N 1 1 ",
"9 9 9 9 9 9 9 9 & & - - y y h h h h z z z z Y Y +.+.+.+.[ [ [ [ [ [ [ [ [ [ [ [ [ [ [ [ [ [ [ [ [ [ [ [ [ [ [ [ -.-.+.+.c c h h 9 9 N N t t = = h h B B N N 1 1 ",
"1 1 1 1 1 1 = = # # 9 9 N N y y y y z z j j z z O.O.+.+.o.o.[ [ [ [ [ [ [ [ [ [ [ [ [ [ [ [ [ [ [ [ [ [ [ [ +.+.#.#.R R ' ' C C m m N N l l = = 9 9 N N N N 1 1 ",
"1 1 1 1 1 1 = = # # 9 9 N N y y y y z z j j z z O.O.+.+.o.o.[ [ [ [ [ [ [ [ [ [ [ [ [ [ [ [ [ [ [ [ [ [ [ [ +.+.#.#.R R ' ' C C m m N N h l = = 9 9 N N N N 1 1 ",
"9 9 e e z z t t = = q q N N y y t t j j h h z z l l +.+.+.+.+.+.{ { [ [ [ [ [ [ [ [ [ [ [ [ [ [ [ [  . .+.+.+.+.S S ( ( ` ` ) ) / / v v b b = = & & e e e e 1 1 ",
"9 9 e e z z t t = = q q N N y y t t j j h h z z l l +.+.+.+.+.+.{ { [ [ [ [ [ [ [ [ [ [ [ [ [ [ [ [  . .+.+.+.+.S S ( ( ` ` ) ) / / v v b b = = & & e e e e 1 1 ",
"9 9 2 2 2 2 $ $ # # y y N N y y t t j j h h z z h h K K +.+.+.+.+.+.o.o. . .{ { { { X.X.o.o.o.o.+.+.+.+.+.+.A A p p g g / / _ _ ^ ^ p p N N = = & & e e e e 1 1 ",
"9 9 2 2 2 2 $ $ # # y y N N y y t t j j h h z z h h K K +.+.+.+.+.+.o.o. . .{ { { { X.X.o.o.o.o.+.+.+.+.+.+.A A p p g g / / _ _ ^ ^ p p N N = = & & e e e e 1 1 ",
"2 2 2 2 0 0 n n v v 9 9 N N h h q q h h j j M M h h t t x x O.O.+.+.+.+.+.+.+.+.+.+.+.+.+.+.+.+.+.+.O.O.k k & & 6 6 d d ^ ^ ! ! a a 6 6 N N - - = = N N y y 9 9 ",
"2 2 2 2 0 0 n n v v 9 9 N N h h q q h h j j M M h h t t x x O.O.+.+.+.+.+.+.+.+.+.+.+.+.+.+.+.+.+.+.O.O.k k & & 6 6 d d ^ ^ ! ! a a 6 6 N N - - = = N N y y 9 2 ",
"h h j j N N / / ~ ~ = = z z h h e e h h j j N N h h t t j j N N L L G G +.+.+.+.+.+.+.+.+.+.W W z z N N y y = * & & 6 6 p p f f 7 7 9 9 N N 4 - * * N N t t 9 9 ",
"h h j j N N / / ~ ~ = = z z h h e e h h j j N N h h t t j j N N L L G G +.+.+.+.+.+.+.+.+.+.W W z z N N y y * * & & 6 6 p p f f 7 7 9 9 N N 4 4 * * N N t t 9 9 ",
"z z h h j j Q Q s s 1 1 M M j j 0 0 h h j j N N h h t t h h j j t t y y N N V V I I l l h h N N N N N N t y - - * * - - 9 9 = = - - h h N N 9 9 * * j z t t 9 9 ",
"z z h h j j Q Q s s 1 1 M M j j 0 0 h h j j N N h h t t h h j j y t y y N N V V I I l l h h N N N N N N t q - - * * - - 9 9 = = - - h h N N 9 9 * * z z t t 9 9 ",
"h h y y t t 5 5 6 6 9 9 M M h h 9 9 y y z z N N h h e e h h j j q q q q M M N N N N h h h h N N N N N N e e 8 8 e e q q # # o o - - z z N N e e & & y y y y 1 1 ",
"h h y y t t 5 5 6 6 9 9 M M h h 9 9 y y z z N N h h e e h h j j q q q q M M N N N N h h h h N N N N N N e e 1 1 e e q q # # o o - - z z N N e e & & y y y y 1 1 ",
"2 2 1 1 < < @ @ 1 1 t t z z h h - - y y h h N N h h 0 0 y y h h e e q q z z N N N N h h h h M M N N N N e e 1 1 y y h h + + o o 1 1 z z N N e e @ @ 1 1 1 1 1 1 ",
"2 2 1 1 < < @ @ 1 1 t t M z h h - - y y h h N N h h 0 0 y y h h e e q q z z N N N N h h h h M M N N N N e e 1 1 y y h h + + o o 1 1 z z N N e e @ @ 1 1 1 1 1 1 ",
"t t t t 9 9 & & 9 9 j j j j y y - - q t y y N N h h 9 9 y y y y e e q q j j N N N N h h y y z z N N N N e e 8 8 t t y y @ @ o o - - z z N N e e # # 9 9 0 0 0 0 ",
"t t t t 9 9 & & 9 9 j j j j y y - - q t y y N N h h 9 9 y y y y e e q q j j N N N N h h y y z z N N N N e e 9 8 t t y y @ @ o o - - z z N N e e # # 9 9 0 0 0 0 ",
"N N N N j j * * 9 9 N N z z e e = = 9 9 y y N N h h 9 9 t t y y e e q q M M N N N N h h y y z z N N N N 0 0 1 - e e q q y y 9 9 9 9 h h N N e e & & e e z z z z ",
"N N N N j j * * 9 9 N N z z e e = = 9 9 y y N N h h 9 9 t t y y e e q q M z N N N N h h y y z z N N N N 0 0 1 1 e e q q y y 9 9 9 9 h h N N e e & & e e z z z z ",
"N N M M h h * * 9 9 N N z j 9 9 * * 9 9 t t N N j j 9 9 q q t t e e t t z z N N N N h h y y j j N N N N 0 0 - - e e q q h h t t 9 9 y y N N e e * * t t N N B B ",
"N N M M h h * * 9 9 N N z z 9 9 * * 9 9 t q N N j j 9 9 q q t t e e t t z z N N N N h h y y j j N N N N 0 0 - - e e q q h h q q 9 9 y y N N e e * * t t N N B B ",
"1 1 1 1 1 1 & & 8 8 N N z z 9 9 * * 9 9 t t N N j j 9 9 0 0 q q e e y y z z N N N N h h y y j j N N N N e e - - e 0 y y h h e e 9 0 y y N N 9 9 = = t t B B z z ",
"1 1 1 1 1 1 & & 8 8 N N z z 9 9 * * 9 9 t t N N j j 9 9 0 0 q q e e y y z z N N N N h h y y j j N N N N e e - - 0 0 y y h h e e 9 9 y y N N 9 9 = = t t B B z z ",
"e e e e e e & & - - N N z z 9 9 & & 9 9 t t N N h h - - 9 9 y y t t y y z z N N N N h h y y h h N N N N 0 e - - 0 0 y y h h q q e e h h N N = = * * t t y y e e ",
"e e e e e e & & - - N N z z 9 9 & & 9 9 t t N N h h - - 9 9 y y t t y y z z N N N N h h y y h h N N N N e e - - 0 0 y y h h e e e e h h N N = = * * t t y y e e ",
"B B B B B N = = = = z z N N e e & & - - y y N N j j - - 9 9 y y h l z z N N N N N N z z h h z z N N N N e e - - e e y y j j q q y y j j 4 4 * * = = z z N N N N ",
"B B B B B N = = = = z z N N e e & & - - y y N N j j - - 9 9 y y h h z z N N N N N N z z h h z z N N N N e e - - e e y y j j q q y y j j 4 4 * * = = z z N N N N ",
"B B B B B B 1 1 = = - - 9 9 9 9 - - 8 8 - - 8 8 - - * * * * & & * * * * < < < < < < < < < < < < < < 1 1 1 1 = = - - - - = = = = = = = = * * * * < < y y B B N N ",
"B N B B B B 1 1 = = - - 9 9 9 9 - - 1 1 1 - 8 8 - - * * * * & & * & * * < < < < < < < < < < < < < < 1 1 1 1 = = - - - - = = = = = = = = * * * * < < y y B B N N ",
"9 9 2 2 0 0 0 0 * * = = = = = = = = * * & & & & & & & & % % $ $ $ $ $ $ , , , , $ $ $ $ $ $ $ $ $ $ $ , % % % % = = = = = = = = 1 1 * * = = = = 9 9 y y 0 0 0 0 ",
"9 9 2 2 0 0 0 0 * * = = = = = = = = * * & & & & & & & & % % $ $ $ $ $ $ , , , , $ $ $ $ $ $ $ $ $ $ $ $ % % % % * * = = = = = = 1 1 * * = = = = 0 0 y y 0 0 0 0 ",
"B B z z z z M M N N N N N N N N N N N N N N N N N N z z l l i i r r r r u u u u r r r r u u 3 3 < < < < t t t t e e y y y y y y y y y y y y t t t t e e 0 0 y y ",
"B B z z z z M M N N N N N N N N N N N N N N N N N N z z l l i i r r r r u u u u r r r r u u 3 3 < < < < t t t t e e t t y t y y y y y y y y t t t t e e 0 0 y y ",
"e e 9 9 9 9 9 9 e e e e e e e e e e e e e e t t t t y y h h h h t t w w w w w 3 3 3 3 3 3 3 1 1 < < < < e e z z B B B B B B B B B B B B B B B B B B N N N N B B ",
"e e 9 9 9 9 9 9 e e e e e e e e e e e e e e t t t t y y h h h h t t w w w w w w 3 3 3 3 3 3 1 1 < < < < e e z z B B B B B B B B B B B B B B B B B B N N N N B B ",
"9 9 1 1 1 1 2 2 t t t t y y y y t t t t t t e e 0 0 0 0 0 0 e e h h z z N N B B B B N N N N h h 1 1 1 1 h h h h h h h h h h h h h h h h h h h h h h y y y y z z ",
"9 9 1 1 1 1 2 2 t t t t y y y y t t t t e e e e 0 0 0 0 0 0 e e h h z z N N B B B B N N N N h h 1 1 1 1 h h h h h h h h h h h h h h h h h h h h h h y y y y z z ",
"h h N N N N B B B B B B B B B B B B B B B B B B B B B B B B B B B B B B B B B B B B B B B B z z 1 1 2 1 z z z z z z z z z z z z j j h h h j j h h h h h j j z z ",
"h h N N N N B B B B B B B B B B B B B B B B B B B B B B B B B B B B B B B B B B B B B B B B z z 1 1 1 1 z z z z z z z z z z z z j j h h h h j h h h h h j j z z "
};
