/* XPM */
static const char *sprite5[] = {
/* columns rows colors chars-per-pixel */
"40 40 92 1 ",
"  c #010202",
". c #030608",
"X c #0A0B0B",
"o c #0A121B",
"O c #19232C",
"+ c #132234",
"@ c #16283A",
"# c #332C26",
"$ c #3C2F23",
"% c #3F3023",
"& c #3C332B",
"* c #433425",
"= c #483727",
"- c #42362C",
"; c #493728",
": c #4C3A29",
"> c #523E2C",
", c #463A30",
"< c #4A3C31",
"1 c #56412E",
"2 c #5A432F",
"3 c #4C433D",
"4 c #534132",
"5 c #5D4531",
"6 c #514238",
"7 c #604731",
"8 c #644A33",
"9 c #684D35",
"0 c #604B3A",
"q c #3B4049",
"w c #3F4C60",
"e c #354E69",
"r c #3E5675",
"t c #484445",
"y c #504947",
"u c #594E46",
"i c #514D4B",
"p c #59514E",
"a c #424C5D",
"s c #514E50",
"d c #49505C",
"f c #565457",
"g c #615042",
"h c #465364",
"j c #4C5665",
"k c #44566D",
"l c #465B73",
"z c #435C7A",
"x c #2C5786",
"c c #2C5887",
"v c #2C5A8A",
"b c #3B5B83",
"n c #355C8B",
"m c #2E5E92",
"M c #325E91",
"N c #2E6095",
"B c #2F639B",
"V c #30659D",
"C c #3067A2",
"Z c #356BA5",
"A c #396FA8",
"S c #3D71A7",
"D c #3C71AA",
"F c #4377AE",
"G c #4679B1",
"H c #4C7EB4",
"J c #4F81B7",
"K c #5584B6",
"L c #5083B9",
"P c #5385BA",
"I c #5485BB",
"U c #5688BD",
"Y c #5F8FC3",
"T c #6393C6",
"R c #6494C7",
"E c #6695C8",
"W c #6D9CCD",
"Q c #75A2D2",
"! c #7BA7D7",
"~ c #7CA8D7",
"^ c #7EAAD9",
"/ c #80ACDA",
"( c #83AEDC",
") c #85AFDD",
"_ c #87B2DF",
"` c #88B2DF",
"' c #88B2E0",
"] c #8AB4E1",
"[ c gray82",
"{ c gainsboro",
"} c #DFE1E2",
"| c #EDEDEE",
/* pixels */
"$%**$$$$$$%$$$$$$$$%%%%%****%%%%%%**%%**",
"999999992>:**;11222257899999999999999999",
"98877557755*$*27777755555799999988888879",
"%$$***=:>12*$>22257888775555522:*******9",
"**:99999998*$:25877552>::>>:;;;;::>55789",
"1>257777771**299kVCCCCCVk557899999999999",
"72>1221112>**1rCCZCZZCCCCCCk999999999999",
":==>7889992*-CCLEETPZCCCCCCCCy5557778888",
"9888888777>qCZW__)~HCCCCCCCCCCw:::::>::8",
"21222252553CC!]](PACCCCCCCCCCCC1>>>11>>7",
"8211127897VCQ]_YACCCCCCCCCCCCCCz99999995",
"999999999sCG]'YDCCCCCCCCCCCCCCCC99999995",
"777777888bCY(RD}OCCCCCCC|oCCCCCCi21552>*",
"$$$$$$$$$MCEHAC{XCCCCCCC[ CCCZUCe$%%$$$$",
"=*;;;;:>>nCIDCC  BBBBBBB. VCCW/Ch55577*%",
"*****::>>aCZCCV++ccccccc@+mBC''Cp99999>$",
"*****;;;::CCCVmcxccccccccccvS'`C55521>=$",
"1599999999bCCBvcccccccccccccH^Pr>>>>*%$$",
"15998887777CCBccccccccccccccKJC91::;*>;$",
"****>112255dCCccccccccccccccFCg99999997$",
"$$$%%*::::::VCBccccccccccccCZf999998997$",
"*;57999875526CCCvccccccccmCCj72211>>::=$",
"*%%*>55221>>>tCCCBmvvNBBCCCd5521>>:::;;$",
"%%**::>>>>>:::<VCCCCCCCCCV627777888999>*",
"1277755555555778plCCCCCz99999999999998:*",
"52777755577777777770u08999999999988898:*",
"1>>>>:;;;:>1222211>>>>11127872>:=;7782>$",
"%$$$$$$$$$**%%%%$$%$$$$$$$%**$%%***%%$$$",
"::;***;>>>::;**%$$*:::*$$$$*;1222>>>:;**",
"78899999888999899999992;**17999998777555",
"87599998899822225799998;**59999999998889",
"$$$:;;;;;:>222578999999>**57798887999995",
"=;:12222222222255577777>*$***>>>>>2552>;",
"99999999877555555555555:*$;;;:>>12555778",
"99999999999999875544444-#$58899999999998",
"*%*222222222254<<<,,<<<&##<4577555552>**",
"9557888888888544<,,,,,<-##:::>>>>>>::;*>",
";***;;;;;;;::>11:--&&&&$##;5999999999889",
"*$$%::>>:::;***;15799881$$11111111111>>5",
"278999999999999999999995$$55555522222225"
};
