/* XPM */
static const char *sprite6[] = {
/* columns rows colors chars-per-pixel */
"80 80 240 2 ",
"   c #684D35",
".  c #473627",
"X  c #483728",
"o  c #543F2D",
"O  c #59432F",
"+  c #634933",
"@  c #644A33",
"#  c #654B34",
"$  c #664C34",
"%  c #674C35",
"&  c #664B34",
"*  c #644B33",
"=  c #624932",
"-  c #614832",
";  c #463527",
":  c #463627",
">  c #4D3A29",
",  c #543F2C",
"<  c #59422F",
"1  c #5A432F",
"2  c #5B4430",
"3  c #5B483A",
"4  c #564944",
"5  c #544A4A",
"6  c #544A4B",
"7  c #544948",
"8  c #59483F",
"9  c #5F4836",
"0  c #624933",
"q  c #674C34",
"w  c #674D35",
"e  c #4A3828",
"r  c #4A3829",
"t  c #4B3929",
"y  c #4C3A29",
"u  c #4F3C2B",
"i  c #533E2C",
"p  c #57412E",
"a  c #5B442F",
"s  c #463A35",
"d  c #42506D",
"f  c #336097",
"g  c #3067A2",
"h  c #356BA5",
"j  c #32649F",
"k  c #365C91",
"l  c #405377",
"z  c #524B51",
"x  c #5F4731",
"c  c #5E4631",
"v  c #503C2B",
"b  c #4D3B2A",
"n  c #4E3B2A",
"m  c #4F3B2A",
"M  c #58422E",
"N  c #604835",
"B  c #385575",
"V  c #3067A1",
"C  c #386EA7",
"Z  c #6D9BCC",
"A  c #75A2D2",
"S  c #719ECF",
"D  c #487BB3",
"F  c #325F97",
"G  c #45434E",
"H  c #4F3C2A",
"J  c #56402D",
"K  c #5D4530",
"L  c #604731",
"P  c #634A33",
"I  c #5C4E43",
"U  c #346498",
"Y  c #396FA8",
"T  c #6897C9",
"R  c #83AEDC",
"E  c #88B2E0",
"W  c #598ABF",
"Q  c #3167A1",
"!  c #3F557D",
"~  c #604832",
"^  c #5C4430",
"/  c #4E4C50",
"(  c #5C8DC1",
")  c #8AB4E1",
"_  c #497DB3",
"`  c #2F659E",
"'  c #32669E",
"]  c #365D92",
"[  c #664C38",
"{  c #604732",
"}  c #574E4D",
"|  c #6695C8",
" . c #6B99CB",
".. c #D9DADC",
"X. c gray6",
"o. c #3267A2",
"O. c #F1F1F1",
"+. c #111519",
"@. c #644A37",
"#. c #654B39",
"$. c #3066A1",
"%. c #89B3E1",
"&. c #84AFDD",
"*. c #3B71AA",
"=. c #3A3B3C",
"-. c #000001",
";. c #434343",
":. c black",
">. c #3F5175",
",. c #5C4530",
"<. c #4A4C5F",
"1. c #3B70A9",
"2. c #86B1DF",
"3. c #3C71AA",
"4. c #080F18",
"5. c #080F19",
"6. c #3066A0",
"7. c #050A11",
"8. c #08111A",
"9. c #4F82B8",
"0. c #3E73AC",
"q. c #345D94",
"w. c #503C2F",
"e. c #523D2C",
"r. c #4A4F63",
"t. c #2F649C",
"y. c #2F6198",
"u. c #2E5E91",
"i. c #2D5A8B",
"p. c #2C5989",
"a. c #2D5A8A",
"s. c #2D5B8D",
"d. c #2D5D91",
"f. c #2E6096",
"g. c #2F6298",
"h. c #2F6299",
"j. c #2E6095",
"k. c #2E5F93",
"l. c #2F639A",
"z. c #80ABDA",
"x. c #5284B9",
"c. c #32619B",
"v. c #60483B",
"b. c #554F55",
"n. c #2D5C8E",
"m. c #2C5988",
"M. c #2C5887",
"N. c #2D5886",
"B. c #2D5B8C",
"V. c #2E6197",
"C. c #6695C7",
"Z. c #4276AF",
"A. c #345F96",
"S. c #375C90",
"D. c #2F649D",
"F. c #77A3D2",
"G. c #4B7EB5",
"H. c #3C5785",
"J. c #59422E",
"K. c #553F2D",
"L. c #513D2B",
"P. c #47372F",
"I. c #31639F",
"U. c #3C72AB",
"Y. c #467AB1",
"T. c #326099",
"R. c #4A3A36",
"E. c #4D3A2A",
"W. c #483727",
"Q. c #493828",
"!. c #4D3B33",
"~. c #2D5C8D",
"^. c #336099",
"/. c #574342",
"(. c #664C35",
"). c #365C90",
"_. c #2D5D8F",
"`. c #3E5782",
"'. c #634A3B",
"]. c #524C54",
"[. c #32639C",
"{. c #31659F",
"}. c #435376",
"|. c #604D42",
" X c #483627",
".X c #5C4D47",
"XX c #425479",
"oX c #32649D",
"OX c #4A5067",
"+X c #5C4C41",
"@X c #664D39",
"#X c #624D3F",
"$X c #5D4D43",
"%X c #5E4B3E",
"&X c #604938",
"*X c #604834",
"=X c #56412D",
"-X c #523E2C",
";X c #56412E",
":X c #533F2C",
">X c #55402D",
",X c #5D4630",
"<X c #4C3929",
"1X c #493728",
"2X c #453426",
"3X c #453526",
"4X c #5A4431",
"5X c #564331",
"6X c #4F3E30",
"7X c #4E3D30",
"8X c #4D3D30",
"9X c #4C3C30",
"0X c #44382C",
"qX c #392F28",
"wX c #4B3B2D",
"eX c #503E2E",
"rX c #523F2D",
"tX c #634A34",
"yX c #504032",
"uX c #4E3F32",
"iX c #4D3E32",
"pX c #4C3E32",
"aX c #45382F",
"sX c #372F28",
"dX c #534133",
"fX c #5B4634",
"gX c #644B35",
"hX c #574231",
"jX c #503F31",
"kX c #4E3E30",
"lX c #4F3F31",
"zX c #534132",
"xX c #544233",
"cX c #554333",
"vX c #564333",
"bX c #584433",
"nX c #4F3E2F",
"mX c #3E3228",
"MX c #554230",
"NX c #5A4531",
/* pixels */
"                                            . . X X o o o o O O + + @ @ # # $ $                                                                                 ",
"                                            . . X X o o o o O O + + @ @ # # $ $                                                                                 ",
"    % % & & * * + + = = # # # # @ @ * * - - ; ; : : > > , , < < 1 1 2 2 3 3 4 4 5 5 6 6 7 7 8 8 9 9 0 0 & &                         q q w w     % % q q q q $ $ ",
"    % % & & * * + + = = # # # # @ @ * * - - ; ; : : > > , , < < 1 1 2 2 3 3 4 4 5 5 6 6 7 7 8 8 9 9 0 0 & &                         q q w w     % % q q q q $ $ ",
"X X . . e e r r t t y y u u i i p p 2 2 a a ; ; s s d d f f g g g g g g h h g g g g g g g g g g g g j j k k l l z z - - x x c c v v b b n n m m n n n n n n n n ",
"X X . . e e r r t t y y u u i i p p 2 2 a a ; ; s s d d f f g g g g g g h h g g g g g g g g g g g g j j k k l l z z - - x x c c v v b b n n m m n n n n n n n n ",
"o o M M % %                             N N B B V V g g C C Z Z A A S S D D g g g g g g g g g g g g g g g g g g g g F F G G n n n n b b H H J J 2 2 K K L L = = ",
"o o M M % %                             N N B B V V g g C C Z Z A A S S D D g g g g g g g g g g g g g g g g g g g g F F G G n n n n b b H H J J 2 2 K K L L = = ",
"P P - - - - P P # # & & $ $ q q & & I I U U Y Y T T R R E E R R W W Y Y g g g g g g g g g g g g g g g g g g g g Q Q g g g g ! ! q q                             ",
"P P - - - - P P # # & & $ $ q q & & I I U U Y Y T T R R E E R R W W Y Y g g g g g g g g g g g g g g g g g g g g Q Q g g g g ! ! q q                             ",
"P P = = ~ ~ c c ^ ^ a a 1 1 1 1 / / g g ( ( ) ) ) ) R R _ _ ` ` g g g g g g g g g g g g g g g g V V ' ' g g g g g g g g g g g g ] ] [ [                         ",
"P P = = ~ ~ c c ^ ^ a a 1 1 1 1 / / g g ( ( ) ) ) ) R R _ _ ` ` g g g g g g g g g g g g g g g g V V ' ' g g g g g g g g g g g g ] ] [ [                         ",
"x x { { - - - - - - - - = = } } g g | | ) ) ) )  . .g g ....X.X.g g g g g g g g g g g g g g g g o.o.O.O.+.+.g g g g g g g g g g g g ] ] @.@.$ $ % %             ",
"x x { { - - - - - - - - = = } } g g | | ) ) ) )  . .g g ....X.X.g g g g g g g g g g g g g g g g o.o.O.O.+.+.g g g g g g g g g g g g ] ] @.@.$ $ % %             ",
"# # # # & & $ $ q q % % #.#.$.$.g g %.%.&.&.*.*.g g g g =.=.-.-.g g g g g g g g g g g g g g g g g g ;.;.:.:.g g g g g g g g g g g g g g >.>.^ ^ ,.,.K K ^ ^ ,.,.",
"# # # # & & $ $ q q % % #.#.$.$.g g %.%.&.&.*.*.g g g g =.=.-.-.g g g g g g g g g g g g g g g g g g ;.;.:.:.g g g g g g g g g g g g g g >.>.^ ^ ,.,.K K ^ ^ ,.,.",
"0 0 = = - - - - L L x x <.<.g g 1.1.2.2.3.3.g g g g $.$.4.4.5.5.6.6.` ` ` ` 6.6.V V g g g g g g g g 7.7.8.8.g g g g g g g g g g 9.9.0.0.q.q.w.w.e.e.e.e.b b v v ",
"0 0 = = - - - - L L x x <.<.g g 1.1.2.2.3.3.g g g g $.$.4.4.5.5.6.6.` ` ` ` 6.6.V V g g g g g g g g 7.7.8.8.g g g g g g g g g g 9.9.0.0.q.q.w.w.e.e.e.e.b b v v ",
"{ { L L L L L L ~ ~ - - r.r.g g g g g g g g g g t.t.y.y.u.u.i.i.p.p.p.p.p.p.a.a.s.s.d.d.f.f.g.g.h.h.g.g.j.j.k.k.l.l.$.$.t.t.g g z.z.x.x.c.c.v.v.q q q q q q q q ",
"{ { L L L L L L ~ ~ - - r.r.g g g g g g g g g g t.t.y.y.u.u.i.i.p.p.p.p.p.p.a.a.s.s.d.d.f.f.g.g.h.h.g.g.j.j.k.k.l.l.$.$.t.t.g g z.z.x.x.c.c.v.v.q q q q q q q q ",
"                        b.b.g g g g g g g g h.h.n.n.m.m.M.M.M.M.M.M.M.M.M.M.M.M.M.M.M.M.M.M.M.M.N.N.m.m.a.a.B.B.i.i.V.V.` ` C.C.R R Z.Z.A.A.#.#.                ",
"                        b.b.g g g g g g g g h.h.n.n.m.m.M.M.M.M.M.M.M.M.M.M.M.M.M.M.M.M.M.M.M.M.N.N.m.m.a.a.B.B.i.i.V.V.` ` C.C.R R Z.Z.A.A.#.#.                ",
"                            S.S.g g g g g g m.m.M.M.M.M.M.M.M.M.M.M.M.M.M.M.M.M.M.M.M.M.M.M.M.M.M.M.M.M.M.M.M.M.M.M.a.a.D.D.F.F.%.%.G.G.H.H.+ + = = = = = = @ @ ",
"                            S.S.g g g g g g m.m.M.M.M.M.M.M.M.M.M.M.M.M.M.M.M.M.M.M.M.M.M.M.M.M.M.M.M.M.M.M.M.M.M.M.a.a.D.D.F.F.%.%.G.G.H.H.+ + = = = = = = @ @ ",
"w w $ $ c c J.J.K.K.L.L.y y P.P.I.I.g g g g u.u.M.M.M.M.M.M.M.M.M.M.M.M.M.M.M.M.M.M.M.M.M.M.M.M.M.M.M.M.M.M.M.M.M.M.M.M.l.l.U.U.Y.Y.T.T.R.R.n n n n E.E.X X : : ",
"w w $ $ c c J.J.K.K.L.L.y y P.P.I.I.g g g g u.u.M.M.M.M.M.M.M.M.M.M.M.M.M.M.M.M.M.M.M.M.M.M.M.M.M.M.M.M.M.M.M.M.M.M.M.M.l.l.U.U.Y.Y.T.T.R.R.n n n n E.E.X X : : ",
"y y t t W.W.. . . . X X Q.Q.t t !.!.6.6.g g 6.6.~.~.M.M.M.M.M.M.M.M.M.M.M.M.M.M.M.M.M.M.M.M.M.M.M.M.M.M.M.M.M.M.M.M.B.B.D.D.g g ^.^././.- - = = = = + + , , . . ",
"y y t t W.W.. . . . X X Q.Q.t t !.!.6.6.g g 6.6.~.~.M.M.M.M.M.M.M.M.M.M.M.M.M.M.M.M.M.M.M.M.M.M.M.M.M.M.M.M.M.M.M.M.B.B.D.D.g g ^.^././.- - = = = = + + , , . . ",
"= = & &                             (.(.).).g g g g D.D.f.f._._.i.i.p.p.M.M.M.M.M.M.M.M.M.M.M.M.M.M.M.M.p.p.n.n.h.h.g g g g `.`.'.'.                    - - W.W.",
"= = & &                             (.(.).).g g g g D.D.f.f._._.i.i.p.p.M.M.M.M.M.M.M.M.M.M.M.M.M.M.M.M.p.p.n.n.h.h.g g g g `.`.'.'.                    - - W.W.",
"= = c c K K K K K K ,.,.,.,.,.,.K K c c = = ].].[.[.g g g g g g g g g g g g $.$.` ` h.h.V.V.V.V.h.h.D.D.$.$.g g {.{.}.}.|.|.                            = =  X X",
"= = c c K K K K K K ,.,.,.,.,.,.K K c c = = ].].[.[.g g g g g g g g g g g g $.$.` ` h.h.V.V.V.V.h.h.D.D.$.$.g g {.{.}.}.|.|.                            = =  X X",
"$ $ * * P P 0 0 = = = = = = + + @ @ @ @ # # # # & & .X.XXXXXoXoXg g g g g g g g g g g g g g g g g g ).).OXOX+X+X@ @ @ @ = = x x c c ,.,.2 2 1 1 O O M M o o ; ; ",
"$ $ * * P P 0 0 = = = = = = + + @ @ @ @ # # # # & & .X.XXXXXoXoXg g g g g g g g g g g g g g g g g g ).).OXOX+X+X@ @ @ @ = = x x c c ,.,.2 2 1 1 O O M M o o ; ; ",
"                                                                    @X@X#X#X$X$X%X%X&X&X*X*X~ ~ x x x x x x c c c c K K ,.,.a a 1 1 =X=XJ J J J J J =X=X, , : : ",
"                                                                    @X@X#X#X$X$X%X%X&X&X*X*X~ ~ x x x x x x c c c c K K ,.,.a a 1 1 =X=XJ J J J J J =X=X, , : : ",
"w w q q $ $ # # * * @ @ @ @ + + + + 0 0 0 0 0 0 0 0 + + + + - - ,.,.2 2 ,.,.K K c c x x ~ ~ = = @ @ q q                         @ @ =X=Xi i i i i i -X-Xm m ; ; ",
"w w q q $ $ # # * * @ @ @ @ + + + + 0 0 0 0 0 0 0 0 + + + + - - ,.,.2 2 ,.,.K K c c x x ~ ~ = = @ @ q q                         @ @ =X=Xi i i i i i -X-Xm m ; ; ",
"c c c c ,.,.1 1 O O 1 1 a a 2 2 K K c c { { L L x x x x - - P P P P P P + + = = - - - - 0 0 @ @ q q                                                     x x W.W.",
"c c c c ,.,.1 1 O O 1 1 a a 2 2 K K c c { { L L x x x x - - P P P P P P + + = = - - - - 0 0 @ @ q q                                                     x x W.W.",
";X;XJ.J.J.J.J J :X:X-X-X-X-X-X-X-X-X-X-Xi i , , o o M M 2 2 c c ~ ~ = = + + P P @ @ @ @ @ @ * * $ $                                     % % q q $ $ & & 1 1  X X",
";X;XJ.J.J.J.J J :X:X-X-X-X-X-X-X-X-X-X-Xi i , , o o M M 2 2 c c ~ ~ = = + + P P @ @ @ @ @ @ * * $ $                                     % % q q $ $ & & 1 1  X X",
"# # # # $ $ w w         & & @ @ = = L L c c 1 1 ;X;X>X>X, , i i :X:Xo o ;X;X1 1 - - $ $             % % q q $ $ # # @ @ @ @ + + 0 0 0 0 0 0 + + + + P P p p W.W.",
"# # # # $ $ w w         & & @ @ = = L L c c 1 1 ;X;X>X>X, , i i :X:Xo o ;X;X1 1 - - $ $             % % q q $ $ # # @ @ @ @ + + 0 0 0 0 0 0 + + + + P P p p W.W.",
"- - - - - - - - { { x x c c ,.,.2 2 1 1 ;X;X>X>XK.K.K.K.o o v v H H n n E.E.> > b b L.L.>X>XM M 1 1 a a ,.,.c c c c L L x x c c K K ,.,.x x x x x x x x i i W.W.",
"- - - - - - - - { { x x c c ,.,.2 2 1 1 ;X;X>X>XK.K.K.K.o o v v H H n n E.E.> > b b L.L.>X>XM M 1 1 a a ,.,.c c c c L L x x c c K K ,.,.x x x x x x x x i i W.W.",
",X,Xc c c c c c c c x x L L x x L L L L ,.,.O O M M p p o o v v n n E.E.y y <X<Xt t t t t t <X<Xb b v v o o O O c c - - x x ~ ~ - - @ @ * * # # # # & & , , 1X1X",
",X,Xc c c c c c c c x x L L x x L L L L ,.,.O O M M p p o o v v n n E.E.y y <X<Xt t t t t t <X<Xb b v v o o O O c c - - x x ~ ~ - - @ @ * * # # # # & & , , 1X1X",
"                                                                                                                                                        i i 1X1X",
"                                                                                                                                                        i i 1X1X",
"@ @ # # $ $ q q % % $ $ $ $ q q % %                                                                                                                     L.L.Q.Q.",
"@ @ # # $ $ q q % % $ $ $ $ q q % %                                                                                                                     L.L.Q.Q.",
"c c ,X,XK K K K ,X,X1 1 M M p p p p p p p p p p M M < < O O 1 1 1 1 a a a a 2 2 ,.,.c c - - @ @ * * & & q q w w     # # + + + + = = = = = = - - - - ~ ~ E.E.1X1X",
"c c ,X,XK K K K ,X,X1 1 M M p p p p p p p p p p M M < < O O 1 1 1 1 a a a a 2 2 ,.,.c c - - @ @ * * & & q q w w     # # + + + + = = = = = = - - - - ~ ~ E.E.1X1X",
"0 0 = = 0 0 = = = = 0 0 0 0 + + @ @ * * # # # # # # * * @ @ = = - - - - ~ ~ - - - - 0 0 @ @ # # @ @ =X=X;X;Xa a + + P P - - x x - - @ @ # # # # $ $ q q , , v v ",
"0 0 = = 0 0 = = = = 0 0 0 0 + + @ @ * * # # # # # # * * @ @ = = - - - - ~ ~ - - - - 0 0 @ @ # # @ @ =X=X;X;Xa a + + P P - - x x - - @ @ # # # # $ $ q q , , v v ",
"X X . . : : e e t t E.E.v v n n n n E.E.E.E.E.E.E.E.> > y y y y y y y y <X<X<X<XX X . . : : ; ; 2X2X2X2X2X2X. . r r n n m m v v m m y y t t r r 1X1XW.W.: : 3X3X",
"X X . . : : e e t t E.E.v v n n n n E.E.E.E.E.E.E.E.> > y y y y y y y y <X<X<X<XX X . . : : ; ; 2X2X2X2X2X2X. . r r n n m m v v m m y y t t r r 1X1XW.W.: : 3X3X",
"1X1X. . 3X3X; ; : : X X H H u u v v e.e., , p p 1 1 ,.,.K K ,X,Xc c { { c c c c 1 1 o o >X>Xo o W.W.2X2Xn n K.K.:X:X-X-Xe.e.L.L.E.E.. . ; ; ; ; 2X2X3X3X. .  X X",
"1X1X. . 3X3X; ; : : X X H H u u v v e.e., , p p 1 1 ,.,.K K ,X,Xc c { { c c c c 1 1 o o >X>Xo o W.W.2X2Xn n K.K.:X:X-X-Xe.e.L.L.E.E.. . ; ; ; ; 2X2X3X3X. .  X X",
"- - @ @ # # # # * * * * * * # # & & q q                                                         O O . . + + $ $ q q                 q q $ $ & & - - K K 2 2 2 2 ",
"- - @ @ # # # # * * * * * * # # & & q q                                                         O O . . + + $ $ q q                 q q $ $ & & - - K K 2 2 2 2 ",
"P P - - - - { { x x x x c c c c x x ~ ~ * *                                                     1 1 . . & & $ $ @ @ + + = = = = 0 0 P P @ @ # # $ $ % %         ",
"P P - - - - { { x x x x c c c c x x ~ ~ * *                                                     1 1 . . & & $ $ @ @ + + = = = = 0 0 P P @ @ # # $ $ % %         ",
"L.L.H H H H n n n n E.E.E.E.n n v v -X-X=X=Xa a 2 2 ,.,.c c - - @ @ $ $                         1 1 . . K K K K 2 2 @ @ # # * * @ @ = = 0 0         w w % % q q ",
"L.L.H H H H n n n n E.E.E.E.n n v v -X-X=X=Xa a 2 2 ,.,.c c - - @ @ $ $                         1 1 . . K K K K 2 2 @ @ # # * * @ @ = = 0 0         w w % % q q ",
"                    w w q q & & @ @ = = - - { { L L x x x x x x x x x x { { ~ ~ { { L L x x { { J J ; ; . . 3X3X; ; <X<Xv v L.L.L.L.-X-X;X;X^ ^ 2 2 2 2 2 2 ,.,.",
"                    w w q q & & @ @ = = - - { { L L x x x x x x x x x x { { ~ ~ { { L L x x { { J J ; ; . . 3X3X; ; <X<Xv v L.L.L.L.-X-X;X;X^ ^ 2 2 2 2 2 2 ,.,.",
"                        q q & & @ @ + + = = - - 4X4X5X5X6X6X7X7X6X6X6X6X6X6X8X8X8X8X8X8X8X8X9X9X0X0XqXqXwXwXeXeXrXrXO O ^ ^ K K c c - - + + @ @ @ @ # # $ $ % % ",
"                        q q & & @ @ + + = = - - 4X4X5X5X6X6X7X7X6X6X6X6X6X6X8X8X8X8X8X8X8X8X9X9X0X0XqXqXwXwXeXeXrXrXO O ^ ^ K K c c - - + + @ @ @ @ # # $ $ % % ",
"q q % %                                     tXtXyXyXuXuXiXiXpXpXiXiXiXiXuXuXuXuXuXuXuXuXuXuXuXuXaXaXsXsXyXyXdXdXfXfXgXgX                                        ",
"q q % %                                     tXtXyXyXuXuXiXiXpXpXiXiXiXiXuXuXuXuXuXuXuXuXuXuXuXuXaXaXsXsXyXyXdXdXfXfXgXgX                                        ",
",.,.2 2 a a 1 1 1 1 1 1 1 1 1 1 1 1 a a 2 2 ,.,.,.,.c c hXhXjXjXkXkXlXlXzXzXzXzXxXxXcXcXvXvXbXbXnXnXmXmXMXMXNXNXx x c c c c c c c c ,X,XK K 2 2 a a 1 1 O O 1 1 ",
",.,.2 2 a a 1 1 1 1 1 1 1 1 1 1 1 1 a a 2 2 ,.,.,.,.c c hXhXjXjXkXkXlXlXzXzXzXzXxXxXcXcXvXvXbXbXnXnXmXmXMXMXNXNXx x c c c c c c c c ,X,XK K 2 2 a a 1 1 O O 1 1 ",
"                    w w q q q q q q q q q q q q $ $ $ $ & & # # # # # # # # @ @ @ @ @ @ @ @ $ $ M M . . c c x x M M M M M M M M M M J.J.O O < < K.K., , K.K.=X=X",
"                    w w q q q q q q q q q q q q $ $ $ $ & & # # # # # # # # @ @ @ @ @ @ @ @ $ $ M M . . c c x x M M M M M M M M M M J.J.O O < < K.K., , K.K.=X=X",
"c c c c ~ ~ - - = = + + @ @ # # $ $ w w                                                         i i  X X@ @                                             w w q q ",
"c c c c ~ ~ - - = = + + @ @ # # $ $ w w                                                         i i  X X@ @                                             w w q q ",
";X;Xi i i i :X:Xo o K.K.K.K.K.K.o o , , -X-XH H m m m m v v =X=Xx x @ @ $ $                     L.L.1X1X+ +                                 $ $ @ @ @ @ + + = = ",
";X;Xi i i i :X:Xo o K.K.K.K.K.K.o o , , -X-XH H m m m m v v =X=Xx x @ @ $ $                     L.L.1X1X+ +                                 $ $ @ @ @ @ + + = = "
};
