/* XPM */
static const char *sprite1[] = {
/* columns rows colors chars-per-pixel */
"40 40 100 2 ",
"   c black",
".  c #090B0D",
"X  c #0E1722",
"o  c #0F1924",
"O  c #18222F",
"+  c #152637",
"@  c #1C2530",
"#  c #152639",
"$  c #17293D",
"%  c #182A3E",
"&  c #322F2D",
"*  c #382F28",
"=  c #36312E",
"-  c #3B342E",
";  c #382F30",
":  c #363335",
">  c #3A3430",
",  c #483727",
"<  c #40352C",
"1  c #493728",
"2  c #4C3A2A",
"3  c #533E2C",
"4  c #443A31",
"5  c #4C3E32",
"6  c #513F33",
"7  c #56412D",
"8  c #5A432F",
"9  c #544233",
"0  c #5D4631",
"q  c #604731",
"w  c #644A33",
"e  c #684D35",
"r  c #664D3B",
"t  c #343543",
"y  c #3E3E4B",
"u  c #483E41",
"i  c #3E4359",
"p  c #3E4662",
"a  c #534545",
"s  c #5D4D4B",
"d  c #414359",
"f  c #4D4A59",
"g  c #544A51",
"h  c #584D51",
"j  c #634E42",
"k  c #404C6D",
"l  c #46516F",
"z  c #4C526E",
"x  c #515064",
"c  c #525369",
"v  c #4A5472",
"b  c #475679",
"n  c #48577B",
"m  c #2C5887",
"M  c #2D5A8A",
"N  c #3D5886",
"B  c #325E8D",
"V  c #3E5C8A",
"C  c #2E5E92",
"Z  c #3A5F91",
"A  c #2E6196",
"S  c #2F639A",
"D  c #34639B",
"F  c #35689E",
"G  c #3067A2",
"H  c #3369A4",
"J  c #396FA8",
"K  c #3D72AB",
"L  c #435A83",
"P  c #4773A1",
"I  c #467AB1",
"U  c #4A7DB4",
"Y  c #4F82B8",
"T  c #5784B4",
"R  c #5E89B7",
"E  c #5385BB",
"W  c #5788BD",
"Q  c #5E8EC2",
"!  c #6291C5",
"~  c #6E99C7",
"^  c #6897C9",
"/  c #6B99CB",
"(  c #6D9BCD",
")  c #78A2CF",
"_  c #73A0D1",
"`  c #75A2D2",
"'  c #77A4D4",
"]  c #78A4D3",
"[  c #7AA6D6",
"{  c #7CA8D7",
"}  c #7EAAD9",
"|  c #B9BABC",
" . c #82ADDB",
".. c #86B1DF",
"X. c #88B2DF",
"o. c #88B2E0",
"O. c #8AB4E1",
"+. c #CDCDCD",
"@. c #E1E3E4",
"#. c #EAEBEC",
/* pixels */
"e e e e e e e e e e e , 1 3 3 8 w w w e e e e e e e e e e e e e e e e e e e e e ",
"e e w w w w w w w w w , , 2 3 8 8 8 0 0 q q 0 q w w w e e e e e e e e e e e e e ",
"1 , 1 1 1 2 2 3 7 0 8 , 1 8 8 0 0 0 w w w w w w w w w w w w 0 0 3 2 2 2 2 2 2 2 ",
"3 8 e e e e e e e e w , 2 8 8 w w w w w w q 8 7 3 7 7 3 3 3 2 2 2 2 2 7 0 0 q w ",
"w w w w w w e e w w 8 , 3 w e e e w 0 7 3 3 3 7 8 8 0 0 q w w w e e e e e e e e ",
"w w w 0 0 8 8 8 8 8 7 , 7 w w w 0 3 7 8 0 w w e e e e e e e e e e e e e e e e e ",
"0 0 w w w w w w e e 0 , 7 8 7 8 8 8 8 8 0 0 q w w w w w w w w w w w w e e e e e ",
"w w w e e e e e e e 0 , 3 7 3 7 3 7 7 7 8 8 8 8 8 7 8 7 8 3 7 7 8 8 8 0 0 0 0 0 ",
"w w w w q 0 0 0 0 0 8 , 7 e e e e w w w w w w w w w w w w 8 8 7 7 3 3 3 3 3 2 3 ",
"q 0 0 0 w w w w w e q , 7 e e e e e e e w w w w w w w w w w w w w w w w e e e e ",
"e e e e e e e e e e q , 1 e e e e e e e w w w w w w e e e e e e e e e e e e e e ",
"e e e e e e e e e e 7 , 1 e e e e e e e e e e e e e e e e e e e e w w w w w w w ",
"e e 0 8 3 3 2 , , , , , 1 1 1 2 2 2 2 2 1 1 1 1 1 1 1 1 1 1 1 2 2 2 2 2 2 2 1 , ",
"2 1 , , , 1 1 1 2 1 2 1 2 3 8 8 0 0 0 0 0 0 w w w w w w w w w w w w w w w w 3 , ",
"w w e e e e e e e e e w e e e e e e e e e e e e e e e e e e e e e e e e e e w , ",
"w 0 0 0 0 0 0 0 0 0 w w w w w w w w w w w w w w e e e e e e e e e e e e e e w , ",
"e w w w w w w w w w w w w e e e e e e e e w w w w w w w w w w 0 0 0 0 8 8 8 3 , ",
"e e e e e e e e e e e e e e e e e e e e w w w w 0 0 0 0 0 0 0 8 8 7 7 7 7 7 3 , ",
"e e e w w w w w w w w w w w w w g v V D D Z b s w e e e e e e e w 7 3 3 3 3 2 , ",
"0 0 0 8 8 8 8 0 0 0 q q 0 0 x D G G G G H G G G G n r e e e e e e e e e e e 0 , ",
"7 8 8 7 3 3 3 3 3 3 3 3 a Z G G E ! ( [ _ Q U J G G G c e e e e e e e e e w 8 , ",
"w w e e e e w w w q 0 g G G W ..o.o.} ! K J H G G G G G L w w w w w w w w w 7 , ",
"w w w w q 0 0 0 0 8 a G G { O.o...^ H G G G G G G G G G G V 0 0 0 0 0 0 0 0 3 , ",
"0 0 0 0 0 0 q 0 q q G G  .O.X.! G G G G G G G G G G G G G G z w w w w w w w 3 1 ",
"e e e e e e e e e D G [ o.[ J G G G G G G G G G G G G G G G G j e e e e e e 3 1 ",
"w w e e e e e e s G Y o.! G G G S A C C A S G G G G G G G G G F e e e e e e 3 1 ",
"0 0 0 0 0 8 8 7 G G  .` G G @.O G A S S A S F G #.@ G G G J G G h w w w w w 2 1 ",
"w w w w w w w v G Q } K G G +.. A C M M M M M A |   G G G E K G Z w w w e e 3 3 ",
"1 , , 1 1 2 3 G G / E G G A X o M M M M M M M m o o M S G ( ' H G 1 1 1 1 , , , ",
"1 , , , , 1 2 G J E G G M m + $ M M M M M M M M % # m m M ] o.U G u , , , , , , ",
"w w w w w w w G J J F M m M M m M M m m m m m m m m m m B o.O.W G s e w w 0 0 0 ",
"w w w q 0 0 0 G G G C M M M m m m m m m m m m m m m m m P O.O.I G w w w e e e e ",
"3 2 2 2 2 2 2 l G G M m m m m m m m m m m m m m m m m M ~ O.{ G D w w e e e e e ",
"e e e e e e e w D G A m m m m m m m m m m m m m m m m P ) T S G 6 3 7 0 0 0 0 0 ",
"e e e e e e e w 4 G G C m m m m m m m m m m m m m m B R P S G f 0 w w w w w e e ",
"e e e e e e e 5 > > D G S M m m m m m m m m m m m m M F G Z d > 4 w e e e e e e ",
"0 0 8 8 8 8 7 & & & & i G G S C M M M M M C C A S G G Z k ; & & = 7 0 0 8 8 8 8 ",
"e e e e e e e 0 - = = = = y N F G G G G G G D N p t : = & & & = - 1 7 8 3 3 3 7 ",
"0 0 w w w w w w w 9 5 4 > > > > > > 4 4 5 5 5 9 < * 5 5 5 5 9 w e e e e e e e e ",
"7 3 3 3 3 3 3 3 3 3 3 2 2 2 2 7 0 w e e e e e e 3 1 w e e e e e e e e e w w w w "
};
