/* XPM */
static const char *sprite2[] = {
/* columns rows colors chars-per-pixel */
"80 80 117 2 ",
"   c #000101",
".  c gray5",
"X  c #142434",
"o  c #14273C",
"O  c #292726",
"+  c #2B2825",
"@  c #2C2A2A",
"#  c #3C2F22",
"$  c #322E2B",
"%  c #3F3023",
"&  c #36312E",
"*  c #3A332D",
"=  c #2A333B",
"-  c #363937",
";  c #383D3D",
":  c #433426",
">  c #483727",
",  c #42362C",
"<  c #493728",
"1  c #45382F",
"2  c #4D3A29",
"3  c #523E2C",
"4  c #413731",
"5  c #423831",
"6  c #4D3E32",
"7  c #56412D",
"8  c #59432F",
"9  c #5D4631",
"0  c #5E4831",
"q  c #5C4E3E",
"w  c #5E523D",
"e  c #604732",
"r  c #644A33",
"t  c #684D35",
"y  c #634E3A",
"u  c #635037",
"i  c #303D40",
"p  c #2E4045",
"a  c #364346",
"s  c #394243",
"d  c #2B4D5C",
"f  c #344C54",
"g  c #335767",
"h  c #3D5A64",
"j  c #30586D",
"k  c #3E5E6A",
"l  c #2E5B75",
"z  c #3D6275",
"x  c #34617C",
"c  c #3A657F",
"v  c #414A47",
"b  c #534E42",
"n  c #47504D",
"m  c #5D5242",
"M  c #54584F",
"N  c #425456",
"B  c #46595A",
"V  c #485B5D",
"C  c #425C64",
"Z  c #405F69",
"A  c #41616E",
"S  c #2B5682",
"D  c #2C5887",
"F  c #2D5A8B",
"G  c #2E5E92",
"H  c #2F618E",
"J  c #336384",
"K  c #396681",
"L  c #32658B",
"P  c #2E6195",
"I  c #2F639B",
"U  c #316595",
"Y  c #396493",
"T  c #30679C",
"R  c #31689B",
"E  c #3067A2",
"W  c #336AA4",
"Q  c #396FA9",
"!  c #3C71AA",
"~  c #416D9B",
"^  c #45709F",
"/  c #4175AD",
"(  c #497DB4",
")  c #5486BB",
"_  c #5688BD",
"`  c #5A8ABE",
"'  c #5D8DC2",
"]  c #6291C5",
"[  c #6D98C6",
"{  c #6695C8",
"}  c #6897C9",
"|  c #6D9BCC",
" . c #6F9DCE",
".. c #709ECF",
"X. c #729FD0",
"o. c #74A1D2",
"O. c #77A3D3",
"+. c #77A4D4",
"@. c #78A5D5",
"#. c #7BA7D7",
"$. c #B1B8BF",
"%. c #BCBCBC",
"&. c #80ABD8",
"*. c #82ADDB",
"=. c #83AEDC",
"-. c #84AEDC",
";. c #85AFDD",
":. c #85B0DE",
">. c #86B1DF",
",. c #87B2DF",
"<. c #88B2DF",
"1. c #88B2E0",
"2. c #89B3E0",
"3. c #89B3E1",
"4. c #8AB4E1",
"5. c LightGray",
"6. c #D8DADE",
/* pixels */
"# # % % : : : : # # # # # # # # # # # # % % # # # # # # # # # # # # # # # # % % # # # % % % % % : : : : : : : : % % % % % % % % % % % % : : : % % % % % : : : : ",
"# # % % : : : : # # # # # # # # # # # # % % # # # # # # # # # # # # # # # # % % # # # % # % % % : : : : % % : : % % % # % % % % % % % % : : : : % % % % : : : : ",
"t t t t t t t t t t t t t t t t 8 8 3 3 2 2 : : : : < < 7 7 7 7 8 8 8 8 8 8 8 8 0 0 e e r r t t t t t t t t t t t t t t t t t t t t t t t t t t t t t t t t t t ",
"t t t t t t t t t t t t t t t t 8 8 3 3 2 2 : : : : < < 7 7 7 7 8 8 8 8 8 8 8 8 0 0 e e r r t t t t t t t t t t t t t t t t t t t t t t t t t t t t t t t t t t ",
"t t r r r r r r e e 0 0 0 0 r r r r 0 0 0 0 : : # # : : 8 8 e e r r r r r r e e 0 0 0 0 0 0 0 0 0 0 r r r r t t t t t t t t t t r r r r r r r r r r r r r r t t ",
"t t r r r r r r e e 0 0 0 0 r r r r 0 0 0 0 : : # # : : 8 8 e e e r r r r r e e 0 0 0 0 0 0 0 0 0 0 r r r r t t t t t t t t t t r r r r r r r r r r r r r r t t ",
"% % # # # # : : : : : : > > 2 2 3 3 8 8 8 8 : : # # 3 2 8 8 8 8 8 8 0 0 r r r r r r r r r r e e 0 0 0 0 0 0 0 0 9 9 8 8 8 8 2 2 : : : : : : : : : : : : > > t t ",
"% % # # # # : : : : : : > > 2 2 3 3 8 8 8 8 : : # # 3 3 8 8 8 8 8 8 0 9 r r r r r r r r r r e e 0 0 0 0 0 0 0 0 9 9 8 8 8 8 2 2 : : : : : : : : : : : : > > t t ",
": : : : 2 2 t t t t t t t t t t t t t t r r : : # # 2 2 8 8 0 0 r r r r e e 0 0 9 9 8 8 3 3 2 2 2 < 3 3 3 3 2 2 < < < < < < < < 2 2 2 2 3 3 0 0 0 0 r r r r t t ",
": : : : 2 2 t t t t t t t t t t t t t t r r : : # # 2 2 8 8 0 0 r r r r e e 0 0 9 9 8 8 3 3 2 2 2 < 3 3 3 3 2 2 < < < < < < < < 2 2 2 2 3 3 0 0 0 0 r r r r t t ",
"7 7 3 3 8 8 0 0 e e r r r r r r r r r r 7 7 : : : : 8 8 r r t t t t 0 0 8 7 3 3 2 2 2 2 3 3 8 8 8 8 9 9 0 0 r r r r t t t t t t t t t t t t t t t t t t t t t t ",
"7 7 3 3 8 8 0 0 e e r r r r r r r r r r 7 7 : : : : 8 8 t t t t t t 0 0 8 8 3 3 2 2 2 2 3 3 8 8 8 8 9 9 0 0 r r r r t t t t t t t t t t t t t t t t t t t t t t ",
"r r 8 8 3 3 7 7 8 8 8 8 7 7 7 7 7 7 8 8 3 3 : : : : 7 7 0 0 0 0 8 8 3 3 3 3 7 7 0 0 r r r r t t t t t t t t t t t t t t t t t t t t t t t t t t t t t t t t t t ",
"r r 8 8 3 3 7 7 8 8 8 8 7 7 7 7 7 7 8 8 3 3 : : : : 7 7 0 0 0 0 8 8 3 3 3 3 7 7 0 0 r r t t t t t t t t t t t t t t t t t t t t t t t t t t t t t t t t t t t t ",
"2 2 > > > > 3 3 r r r r r r r r t t t t 8 8 : : : : 2 2 < < 2 2 3 3 3 3 3 3 3 3 7 7 8 7 8 8 8 8 8 8 8 8 8 8 8 8 8 8 8 8 0 0 0 0 0 0 r r r r r r r r r r r r r r ",
"2 2 > > > > 3 3 r r r r r r t t t t t t 8 8 : : : : 2 2 < < 2 2 3 3 3 3 3 3 3 3 7 7 7 7 8 8 8 8 8 8 8 8 8 8 8 8 8 8 8 8 0 0 0 0 0 0 r r r r r r r r r r r r r r ",
"t t r r r r r r r r r r r r r r r r r r 3 3 : : : : 2 2 7 7 8 8 7 7 7 7 7 7 7 7 7 7 8 8 7 7 8 8 8 8 8 8 8 8 8 8 3 3 2 2 2 2 2 2 2 2 2 2 3 3 2 2 3 3 2 2 2 2 r r ",
"t t r r r r r r r r r r r r r r r r r r 3 3 : : : : 2 2 7 7 8 8 7 7 7 7 7 7 7 7 7 7 8 8 7 7 7 8 8 8 8 8 8 8 8 8 3 3 2 2 2 2 2 2 2 2 2 2 3 3 2 2 3 3 2 2 2 2 r r ",
"8 8 7 7 8 8 8 8 8 8 8 8 9 9 8 8 9 9 9 9 3 3 : : : : 3 3 r r t t t t t t t t r r r r r r r r r r r r r r r r r r 0 0 7 7 7 7 7 7 3 3 3 3 3 3 7 7 7 7 3 3 3 3 r r ",
"8 8 7 7 8 8 8 8 8 8 8 8 9 9 8 8 9 9 9 9 3 3 : : : : 3 3 r r t t t t t t t t r r r r r r r r r r r r r r r r r r 0 0 7 7 7 7 7 7 3 3 3 3 3 3 7 7 7 7 3 3 3 3 r r ",
"r r 8 8 7 7 7 7 7 7 8 8 r r r r t t r r 8 8 : : # # 3 3 e e t t t t t t t t t t r r r r r r r r r r r r r r r r r r r r r r r r t t t t t t t t t t t t t t 0 0 ",
"r r 8 8 7 7 7 7 7 7 8 8 r r r r t t r r 8 8 : : # # 3 3 e e t t t t t t t t t t r r r r r r r r r r r r r r r r r r r r r r r r t t t t t t t t t t t t t t 0 0 ",
"t t t t t t t t t t t t t t t t t t r r 0 0 : : # # 7 7 7 7 t t t t t t t t t t t t t t t t t t t t t t t t t t t t t t t t t t t t t t t t t t t t t t t t 0 0 ",
"t t t t t t t t t t t t t t t t t t r r 0 0 : : # # 7 7 7 7 t t t t t t t t t t t t t t t t t t t t t t t t t t t t t t t t t t t t t t t t t t t t t t t t 0 0 ",
"r r r r r r r r r r r r r r r r r r 0 0 8 8 # # # # : : : : 8 8 r r r r r r t t t t t t r r r r r r r r r r r r 0 0 0 0 0 0 0 0 0 0 8 8 7 7 0 0 0 0 8 8 3 3 : : ",
"r r r r r r r r r r r r r r r r r r 0 0 8 8 # # # # : : : : 8 8 r r r r r r t t t t t t r r r r r r r r r r r r 0 0 0 0 0 0 0 0 0 0 8 8 7 7 0 0 0 0 8 8 3 3 : : ",
"# # # # # # # # # # # # # # # # # # # # # # # # : : # # # # # # # # # # # # # # # # # # # # # # # # # # # # # # # # # # # # # # # # # # % # # % # # # # # # # # ",
"# # # # # # # # # # # # # # # # # # # # # # # # : : # # # # # # # # # # # # # # # # # # # # # # # # # # # # # # # # # # # # # # # # # # % % # # # # # # # # # # ",
": : : : < < < < < < < < 2 2 3 3 3 3 3 3 3 3 2 2 r r 2 2 2 2 3 3 3 3 3 3 8 8 0 0 0 0 0 0 e e e e 0 0 e e r r r r r r 0 0 0 0 8 8 8 8 0 0 0 0 0 0 r r r r : : % % ",
": : : : < < < < < < < < 2 2 3 3 3 3 3 3 3 3 2 2 r r 2 2 2 2 3 3 3 3 7 3 8 8 0 0 0 0 0 0 e e e e 0 0 e e r r r r r r 0 0 0 0 8 8 8 8 0 0 0 0 0 0 r r r r : : % % ",
": : : : : : : : : : 2 2 2 2 3 3 3 3 3 3 7 7 8 8 0 0 e e r r e e r r r r r r r r r r r r r r t t t t t t t t t t t t t t t t t t t t t t t t t t t t t t 3 3 # # ",
": : : : : : : : : : 2 2 2 2 3 3 3 3 3 3 7 7 8 8 0 0 e e r r e e r r r r r r r r r r r r r r t t t t t t t t t t t t t t t t t t t t t t t t t t t t t t 3 3 # # ",
": : : : : : : : : : < < < < < < 2 2 2 2 3 3 8 8 e e r r t t t t t t t t t t w w m m y y r r r r r r t r r r r r r r r r r r 0 0 0 0 0 0 9 9 8 8 7 7 3 3 > > # # ",
": : : : : : : : : : < < < < < < 2 2 2 2 3 3 7 8 e e r r t t t t t t t r t t m m m m y y r r r r r r r r r r r r r r r r r r 0 0 0 0 0 0 9 9 8 8 7 7 3 3 > > # # ",
"7 7 0 0 t t t t t t t t t t t t t t t t t t t t t t t t t t t t m m J J E E E E E E E E U U k Z b b 0 0 0 0 9 9 8 8 8 8 7 7 7 7 3 3 3 3 3 3 3 3 : : % % # # # # ",
"7 7 0 0 t t t t t t t t t t t t t t t t t t t t t t t t t t t t m m J J E E E E E E E E U U Z Z b b 0 0 0 0 9 9 8 8 8 8 7 7 7 7 3 3 3 3 3 3 3 3 : : % % # # # # ",
"7 7 0 0 t t t t r r r r r r r r r r r r r r r r r r r r q q E E E E E E E E E E E E E E E E E E E E A A t t t t t t t t t t t t 7 7 2 2 2 2 < < : : 3 3 2 < # # ",
"7 7 0 0 t t t t r r r r r r r r r r r r r r r r r r r r q q E E E E E E E E E E E E E E E E E E E E A A t t t t t t t t t t t t 7 7 2 2 2 2 < < : : 3 3 < < # # ",
": : : : : : : : 3 3 7 7 7 7 8 8 8 8 9 9 0 0 0 0 0 0 B B E E E E Q Q ] ] +.+.@.@.o.o.{ { ` ` ! ! E E E E c c u u t t t t t t t t t t t t t t t t t t t t r r # # ",
": : : : : : : : 3 3 7 7 7 7 8 8 8 8 9 9 0 0 0 0 0 0 B B E E E E Q Q ] ] +.+.@.@.o.o.{ { ` ` ! ! E E E E c c u u t t t t t t t t t t t t t t t t t t t t r r # # ",
"# # # # # # # % % % : : 2 2 2 2 2 2 2 2 2 2 2 2 h h E E E E } } 3.3.4.4.,.,.,.,.=.=.` ` ! ! W W E E E E E E L L w w t t t t t t t t t t t t r r t t t t r r # # ",
"# # # # # # % % % % : : 2 2 2 2 2 2 2 2 2 2 2 2 h h E E E E } } 3.3.4.4.,.,.,.,.=.=.` ` ! ! W W E E E E E E L L w w t t t t t t t t t t t t r r t t t t r r # # ",
": : < < 0 0 r r t t t t t t r r r r 0 0 0 0 C C E E W W ,.,.4.4.3.3.*.*.o.o._ _ E E E E E E E E E E E E E E E E R R V V 9 9 8 8 7 7 7 7 3 3 3 3 2 2 2 2 > > # # ",
": : < < 0 0 r r t t t t t t r r r r 0 0 0 0 C C E E W W ,.,.4.4.3.3.*.*.o.o._ _ E E E E E E E E E E E E E E E E R R V V 9 9 8 8 7 7 7 7 3 3 3 3 2 2 2 2 > > # # ",
": : : : % % : : 3 3 0 0 9 9 8 8 8 8 7 7 h h E E / / 3.3.4.4.;.;.+.+.( ( E E E E E E E E E E E E E E E E E E E E E E E E k k 7 7 3 3 3 3 2 2 2 2 2 2 < < < < # # ",
": : : : % % : : 3 3 0 0 9 9 8 8 8 8 7 7 h h E E / / 3.3.4.4.;.;.+.+.( ( E E E E E E E E E E E E E E E E E E E E E E E E k k 7 7 3 3 3 3 2 2 2 2 2 2 < < < < # # ",
"% % % % : : : : 2 < 2 2 3 3 3 3 3 3 N N E E Q Q ,.,.3.3.] ] ! ! E E E E E E E E E E E E E E E E E E E E E E E E E E E E E E C C r r r r r r t t t t t t 3 3 : : ",
"% % % % : : : : 2 2 2 2 3 3 3 3 3 3 N N E E Q Q ,.,.3.3.] ] ! ! E E E E E E E E E E E E E E E E E E E E E E E E E E E E E E C C r r r r r r t t t t t t 3 3 : % ",
"7 7 8 8 r r r e 0 0 0 0 0 0 0 0 b b E E E E X.X.@.@.E E E E E E T T I I I I P P G G I I I I E E E E E E E E E E E E E E E E E E m m t t t t t t t t r r 2 2 : : ",
"7 7 8 8 r r r r e 0 0 0 0 0 0 0 b b E E E E X.X.@.@.E E E E E E T T I I I I P P G G I I I I E E E E E E E E E E E E E E E E E E m m t t t t t t t t r r 2 2 : : ",
"9 9 8 8 e e r r r r r r 0 0 0 0 T T E E ' '  . .E E E E I I I I G G G G G G P P P P P P P P P P I I I I E E E E E E E E E E E E K K r r r r r r t t r r 2 2 : : ",
"9 9 8 8 e e r r r r r r 0 0 0 0 T T E E ' '  . .E E E E I I I I G G G G G G P P P P P P P P P P I I I I E E E E E E E E E E E E K K r r r r r r t t r r 2 2 : : ",
"7 7 3 3 3 3 3 3 3 3 2 2 < < x x E E / / ....W W T T I I 6.6.= = G G G G F F D D D D D D D D D D $.$.X X F F I I I I E E E E E E E E v v r r r r r r 8 8 3 3 # # ",
"7 7 3 3 3 3 3 3 3 3 2 2 < < x x E E / / ....W W I T I I 6.6.= = G G G G F F D D D D D D D D D D $.$.X X F F U U I I E E E E E E E E v v r r r r r r 8 8 3 3 # # ",
"% % # # # # # # # # # # * * E E E E ' ' ( ( I I I I G G 5.5.. . S S D D D D D D D D D D D D D D %.%.    D D D D F F I I E E E E E E J J : : % % : % # # # # # # ",
"% % # # # # # # # # # # * * E E E E ' ' ( ( I I I I G G 5.5.. . S S D D D D D D D D D D D D D D %.%.    D D D D F F I I E E E E E E J J : : % % % % # # # # # # ",
"2 2 2 2 < < : : : : : : x x E E ! ! ) ) I I G G G G D D         D D D D D D D D D D D D D D D D         D D D D D D D D G G E E E E E E n n 3 3 2 2 < < : : : : ",
"2 2 2 2 < < : : : : : : x x E E ! ! ) ) I I G G G G D D         D D D D D D D D D D D D D D D D         D D D D D D D D G G E E E E E E n n 3 3 2 2 < < : : : : ",
"r r r r r r t t t t t t R R E E / / ! ! G G G G D D D D X X X X D D D D D D D D D D D D D D D D X X o o D D D D D D D D D D U U E E E E z z r r e e 0 0 0 0 0 0 ",
"r r r r r r t t t t t t R R E E / / ! ! G G G G D D D D X X X X D D D D D D D D D D D D D D D D X X o o D D D D D D D D D D U U E E E E z z r r r r 0 0 0 0 0 0 ",
"r r e e 0 0 t t t t t t E E E E W W I I F F D D D D D D D D D D D D D D D D D D D D D D D D D D D D D D D D D D D D D D D D ` ` ! ! E E R R t t r r r r r r t t ",
"r r e e 0 0 t t t t t t E E E E W W I I F F D D D D D D D D D D D D D D D D D D D D D D D D D D D D D D D D D D D D D D D D ` ` ! ! E E R R t t r r r r r r t t ",
"# # # # # # 2 2 < < < < T T E E E E I I D D D D D D D D D D D D D D D D D D D D D D D D D D D D D D D D D D D D D D D D Y Y &.&./ / E E E E y y t t t t t t 0 0 ",
"# # # # # # 2 2 < < < < T T E E E E I I D D D D D D D D D D D D D D D D D D D D D D D D D D D D D D D D D D D D D D D D Y Y &.&./ / E E E E y y t t t t t t 0 0 ",
"> > < < 2 2 7 7 8 8 8 8 J J E E E E E E F F D D D D D D D D D D D D D D D D D D D D D D D D D D D D D D D D D D D D D D <.<.3.3.E E E E T T 0 0 9 9 8 8 3 3 < < ",
"> > < < 2 2 7 7 8 8 8 8 J J E E E E E E F F D D D D D D D D D D D D D D D D D D D D D D D D D D D D D D D D D D D D D D <.<.3.3.E E E E T T 0 0 9 9 8 8 3 3 < < ",
"t t t t t t t t t t t t M M E E E E I I I I F F D D D D D D D D D D D D D D D D D D D D D D D D D D D D D D D D ~ ~ 3.3.4.4.| | E E E E z z 0 0 0 0 e e r r r r ",
"t t t t t t t t t t t t M M E E E E I I I I F F D D D D D D D D D D D D D D D D D D D D D D D D D D D D D D D D ~ ~ 3.3.4.4.| | E E E E z z 0 0 0 0 e e r r r r ",
"t t t t t t t t t t t t 6 6 J J E E E E I I G G F F D D D D D D D D D D D D D D D D D D D D D D D D D D D D ^ ^ [ [ ;.;.` ` E E E E E E s s t t t t t t t t r r ",
"t t t t t t t t t t t t 6 6 J J E E E E I I G G F F D D D D D D D D D D D D D D D D D D D D D D D D D D D D ^ ^ [ [ ;.;.` ` E E E E E E s s t t t t t t t t r r ",
": : % % : : 8 8 8 8 & & $ $ $ $ J J E E E E E E I I G G G G F F F F D F D D D D D D D D F F G G G G G G P P I I E E E E E E E E E E g g & & 1 1 7 7 3 3 : : : : ",
": : % % : : 8 8 8 8 & & $ $ $ $ J J E E E E E E I I G G G G F F F F D F D D D D D D D D F F G G G G G G P P I I E E E E E E E E E E g g & & 1 1 7 7 3 3 : : : : ",
"t t 0 0 0 0 r e r r & & & & & & & & f f L L E E E E E E I I P P P P P P P P P P P P P I I I I I I I E E E E E E E E E E E E J J i i $ $ $ $ @ @ * * < < : : 3 3 ",
"t t 0 0 0 0 r r r r & & & & & & & & f f L L E E E E E E I I P P P P P P P P P P P P P I I I I I I I E E E E E E E E E E E E J J i i $ $ $ $ @ @ * * < < : : 3 3 ",
"< < : : : : : : < < > > $ $ @ @ @ @ @ @ @ @ @ @ p p j j x x L L P P P P H H H H H H U U L L J J l l d d i i - - a a ; ; & & & & & & & & * * 5 5 9 9 r r r r t t ",
"< < : : : : : : < < > > $ $ @ @ @ @ @ @ @ @ @ @ p p j j x x L L P P P P H H H H H H U P L L J J l l d d i i - - a a ; ; & & & & & & & & * * 5 5 9 9 r r r r t t ",
": : # # # # % % 2 2 2 2 3 3 < < * * $ $ $ $ @ @ @ @ @ @ @ @ $ $ , , , , 5 5 5 5 5 5 5 5 4 4 & & O O + + & & * * * * , , , , * * , , 2 2 3 3 7 7 7 7 3 3 3 3 9 9 ",
": : # # # # % % 2 2 2 2 3 3 < < * * $ $ $ $ @ @ @ @ @ @ @ @ $ $ , , , , 5 5 5 5 5 5 5 5 4 4 & & O O + + & & * * * * * * , , , , , , 2 2 3 3 7 7 7 7 3 3 3 3 9 9 ",
"8 8 r r r r t t t t t t t t t t t t t t t t t t t t t t t t t t t t t t t t t t t t t t t t e e # # # # 0 0 0 0 0 0 0 0 0 0 9 9 8 8 8 8 8 8 9 9 8 8 8 7 8 8 0 0 ",
"8 8 r r r r t t t t t t t t t t t t t t t t t t t t t t t t t t t t t t t t t t t t t t t t e e # # # # 0 0 0 0 0 0 0 0 0 0 9 9 8 8 8 8 8 8 9 9 8 8 8 7 8 8 0 0 "
};
