/* XPM */
static const char *sprite2[] = {
/* columns rows colors chars-per-pixel */
"40 40 110 2 ",
"   c #000101",
".  c gray5",
"X  c #142434",
"o  c #14273C",
"O  c #292726",
"+  c #2B2825",
"@  c #2C2A2A",
"#  c #3C2F22",
"$  c #322E2B",
"%  c #3F3023",
"&  c #36312E",
"*  c #3A332D",
"=  c #2A333B",
"-  c #363937",
";  c #383D3D",
":  c #433426",
">  c #483727",
",  c #42362C",
"<  c #493728",
"1  c #45382F",
"2  c #4D3A29",
"3  c #523E2C",
"4  c #413731",
"5  c #423831",
"6  c #4D3E32",
"7  c #56412D",
"8  c #59432F",
"9  c #5D4631",
"0  c #5E4831",
"q  c #5C4E3E",
"w  c #5E523D",
"e  c #604732",
"r  c #644A33",
"t  c #684D35",
"y  c #634E3A",
"u  c #635037",
"i  c #303D40",
"p  c #2E4045",
"a  c #364346",
"s  c #394243",
"d  c #2B4D5C",
"f  c #344C54",
"g  c #335767",
"h  c #3D5A64",
"j  c #30586D",
"k  c #3E5E6A",
"l  c #2E5B75",
"z  c #3D6275",
"x  c #34617C",
"c  c #3A657F",
"v  c #414A47",
"b  c #534E42",
"n  c #47504D",
"m  c #5D5242",
"M  c #54584F",
"N  c #425456",
"B  c #46595A",
"V  c #485B5D",
"C  c #425C64",
"Z  c #405F69",
"A  c #41616E",
"S  c #2B5682",
"D  c #2C5887",
"F  c #2D5A8B",
"G  c #2E5E92",
"H  c #2F618E",
"J  c #336384",
"K  c #396681",
"L  c #32658B",
"P  c #2E6195",
"I  c #2F639B",
"U  c #316595",
"Y  c #396493",
"T  c #30679C",
"R  c #31689B",
"E  c #3067A2",
"W  c #336AA4",
"Q  c #396FA9",
"!  c #3C71AA",
"~  c #416D9B",
"^  c #45709F",
"/  c #4175AD",
"(  c #497DB4",
")  c #5486BB",
"_  c #5688BD",
"`  c #5A8ABE",
"'  c #5D8DC2",
"]  c #6291C5",
"[  c #6D98C6",
"{  c #6695C8",
"}  c #6897C9",
"|  c #6D9BCC",
" . c #6F9DCE",
".. c #709ECF",
"X. c #729FD0",
"o. c #74A1D2",
"O. c #77A4D4",
"+. c #78A5D5",
"@. c #B1B8BF",
"#. c #BCBCBC",
"$. c #80ABD8",
"%. c #82ADDB",
"&. c #83AEDC",
"*. c #85AFDD",
"=. c #87B2DF",
"-. c #88B2DF",
";. c #89B3E1",
":. c #8AB4E1",
">. c LightGray",
",. c #D8DADE",
/* pixels */
"# % : : # # # # # # % # # # # # # # # % % % % % : : : : % # # % % % : : % % : : ",
"t t t t t t t t 8 3 2 : : < 7 7 8 8 8 8 0 e r t t t t t t t t t t t t t t t t t ",
"t r r r e 0 0 r r 0 0 : # : 8 e r r r e 0 0 0 0 0 r t t t t t r r r r r r r r t ",
"% # # : : : > 2 3 7 8 : # 3 8 8 8 0 r r r r r e 0 0 0 0 9 8 8 2 : : : : : : : t ",
": : 2 t t t t t t t r : # 2 8 0 r r e 0 9 8 3 2 2 3 3 2 < < < < 2 2 3 0 0 r r t ",
"7 3 8 0 e r r r r r 7 : : 8 t t t 0 7 3 2 2 3 8 8 0 0 r r t t t t t t t t t t t ",
"r 8 3 7 8 8 7 7 7 8 3 : : 7 0 0 8 3 3 7 0 r t t t t t t t t t t t t t t t t t t ",
"2 > > 3 r r r t t t 8 : : 2 < 2 3 3 3 3 7 7 8 8 8 8 8 8 8 8 0 0 0 r r r r r r r ",
"t r r r r r r r r r 3 : : 2 7 8 7 7 7 7 7 8 8 8 8 8 8 8 3 2 2 2 2 2 2 2 3 2 2 r ",
"8 7 8 8 8 8 9 8 9 9 3 : : 3 r t t t t r r r r r r r r r 0 7 7 7 3 3 3 7 7 3 3 r ",
"r 8 7 7 7 8 r r t r 8 : # 3 e t t t t t r r r r r r r r r r r r t t t t t t t 0 ",
"t t t t t t t t t r 0 : # 7 7 t t t t t t t t t t t t t t t t t t t t t t t t 0 ",
"r r r r r r r r r 0 8 # # : : 8 r r r t t t r r r r r r 0 0 0 0 0 8 7 0 0 8 3 : ",
"# # # # # # # # # # # # : # # # # # # # # # # # # # # # # # # # # # % % # # # # ",
"> : < < < < 2 3 3 3 3 2 r 2 2 3 3 7 8 0 0 0 e e r r r r r 0 0 8 8 0 0 0 r r : % ",
": : : : : 2 2 3 3 3 7 8 0 e r e r r r r r r r t t t t t t t t t t t t t t t 3 # ",
": : : : : < < < 2 2 3 8 e r t t t t t w m y r r r r r r r r r 0 0 0 9 8 7 3 > # ",
"7 0 t t t t t t t t t t t t t t m J E E E E U Z b 0 0 9 8 8 7 7 3 3 3 3 : % # # ",
"7 0 t t r r r r r r r r r r q E E E E E E E E E E A t t t t t t 7 2 2 < : 3 < # ",
": : : : 3 7 7 8 8 9 0 0 0 B E E Q ] O.+.o.{ ` ! E E c u t t t t t t t t t t r # ",
"# # # % % : 2 2 2 2 2 2 h E E } ;.:.=.=.&.` ! W E E E L w t t t t t t r t t r # ",
": < 0 r t t t r r 0 0 C E W =.:.;.%.o._ E E E E E E E E R V 9 8 7 7 3 3 2 2 > # ",
": % % : 3 0 9 8 8 7 h E / ;.:.*.O.( E E E E E E E E E E E E k 7 3 3 2 2 2 < < # ",
"% % : : 2 2 3 3 3 N E Q =.;.] ! E E E E E E E E E E E E E E E C r r r t t t 3 : ",
"7 8 r r e 0 0 0 b E E X.+.E E E T I I P G I I E E E E E E E E E m t t t t r 2 : ",
"9 8 e r r r 0 0 T E '  .E E I I G G G P P P P P I I E E E E E E K r r r t r 2 : ",
"7 3 3 3 3 2 < x E / ..W I I ,.= G G F D D D D D @.X F I I E E E E v r r r 8 3 # ",
"% # # # # # * E E ' ( I I G >.. S D D D D D D D #.  D D F I E E E J : % % # # # ",
"2 2 < : : : x E ! ) I G G D     D D D D D D D D     D D D D G E E E n 3 2 < : : ",
"r r r t t t R E / ! G G D D X X D D D D D D D D X o D D D D D U E E z r r 0 0 0 ",
"r e 0 t t t E E W I F D D D D D D D D D D D D D D D D D D D D ` ! E R t r r r t ",
"# # # 2 < < T E E I D D D D D D D D D D D D D D D D D D D D Y $./ E E y t t t 0 ",
"> < 2 7 8 8 J E E E F D D D D D D D D D D D D D D D D D D D -.;.E E T 0 9 8 3 < ",
"t t t t t t M E E I I F D D D D D D D D D D D D D D D D ~ ;.:.| E E z 0 0 e r r ",
"t t t t t t 6 J E E I G F D D D D D D D D D D D D D D ^ [ *.` E E E s t t t t r ",
": % : 8 8 & $ $ J E E E I G G F F D D D D D F G G G P I E E E E E g & 1 7 3 : : ",
"t 0 0 r r & & & & f L E E E I P P P P P P P I I I E E E E E E J i $ $ @ * < : 3 ",
"< : : : < > $ @ @ @ @ @ p j x L P P H H H U L J l d i - a ; & & & & * 5 9 r r t ",
": # # % 2 2 3 < * $ $ @ @ @ @ $ , , 5 5 5 5 4 & O + & * * * , , , 1 3 7 7 3 3 9 ",
"8 r r t t t t t t t t t t t t t t t t t t t t 0 # # 0 0 0 0 0 9 8 8 8 8 8 8 8 0 "
};
