/* XPM */
static const char *sprite5[] = {
/* columns rows colors chars-per-pixel */
"40 40 130 2 ",
"   c black",
".  c #010304",
"X  c #030608",
"o  c #0A0B0B",
"O  c #0A121B",
"+  c #19232C",
"@  c #122030",
"#  c #132334",
"$  c #142437",
"%  c #16283A",
"&  c #352E28",
"*  c #3B3028",
"=  c #3E3228",
"-  c #473627",
";  c #483727",
":  c #42372E",
">  c #483728",
",  c #44382D",
"<  c #4A3828",
"1  c #4C3A29",
"2  c #4F3C2B",
"3  c #493A2D",
"4  c #4A3C2F",
"5  c #513D2B",
"6  c #533E2C",
"7  c #543F2D",
"8  c #473B31",
"9  c #4B3D32",
"0  c #4F3F31",
"q  c #503F31",
"w  c #55402D",
"e  c #58422E",
"r  c #5B442F",
"t  c #504133",
"y  c #554333",
"u  c #514135",
"i  c #584330",
"p  c #5B4430",
"a  c #5C4430",
"s  c #5C4634",
"d  c #5F4833",
"f  c #5F4834",
"g  c #504238",
"h  c #604732",
"j  c #634933",
"k  c #644B33",
"l  c #634A35",
"z  c #664B34",
"x  c #674C35",
"c  c #684D35",
"v  c #644E3B",
"b  c #644E3C",
"n  c #3E414A",
"m  c #3D5473",
"M  c #3F5776",
"N  c #464446",
"B  c #4B4645",
"V  c #584A42",
"C  c #5D5048",
"Z  c #5A514D",
"A  c #4A505D",
"S  c #4C525C",
"D  c #565252",
"F  c #565457",
"G  c #615042",
"H  c #445062",
"J  c #485160",
"K  c #4D5765",
"L  c #4D5867",
"P  c #42546B",
"I  c #43556C",
"U  c #45576E",
"Y  c #475B73",
"T  c #435A78",
"R  c #435E7C",
"E  c #2C5786",
"W  c #2C5887",
"Q  c #2C5988",
"!  c #2D5B8C",
"~  c #2D5C8F",
"^  c #355782",
"/  c #3C5C83",
"(  c #385E8C",
")  c #2E5E91",
"_  c #335F92",
"`  c #2E6095",
"'  c #2F629A",
"]  c #2F649C",
"[  c #31639B",
"{  c #30669F",
"}  c #3067A2",
"|  c #3269A3",
" . c #3269A4",
".. c #356BA5",
"X. c #366CA6",
"o. c #396FA8",
"O. c #3D71A7",
"+. c #3B70AA",
"@. c #3D72AB",
"#. c #4377AE",
"$. c #4679B1",
"%. c #4E7EB1",
"&. c #4B7EB5",
"*. c #4C7FB6",
"=. c #4F81B7",
"-. c #5584B6",
";. c #5083B9",
":. c #5385BA",
">. c #5485BB",
",. c #5688BD",
"<. c #5F8FC3",
"1. c #6393C6",
"2. c #6494C7",
"3. c #6695C8",
"4. c #6D9CCD",
"5. c #75A2D2",
"6. c #7BA7D7",
"7. c #7CA8D7",
"8. c #7EAAD9",
"9. c #80ACDA",
"0. c #83AEDC",
"q. c #85AFDD",
"w. c #87B2DF",
"e. c #88B2DF",
"r. c #88B2E0",
"t. c #8AB4E1",
"y. c gray82",
"u. c gainsboro",
"i. c #DFE1E2",
"p. c #EDEDEE",
/* pixels */
"c c c c c c c c c c c - > 7 7 e j k z x c c c c c c c c c c c c c c c c c c c c ",
"c x z k j j z z k k j - - 1 7 e e r a a h h a h j j z c c c c c c x x c x x x x ",
"> - < < < 1 2 6 w p r - > r r a a a k z z z z k j j j j j j a a 5 1 1 1 1 1 1 1 ",
"7 e x c c c c c c c j - 1 e e j j j j j j h e w 6 w w 6 5 5 1 1 1 1 2 w p a h j ",
"j j j j z z x x z k e - 6 k c c c j a w 6 6 6 w e e a a h j k z x c c c c c c c ",
"j j j a a r e e e r w - w k z j P { } } } } } { U x c c c c c c c c c c c c c c ",
"a h j j j j j k x c a - w e m } } ..| ..X.} } } } } } I j j k z z z z x x c c c ",
"z z z x x x c c c c a - t } } ;.3.3.1.:.X.} } } } } } } } B w w e e r a a a a a ",
"j j j j h a a a a a e n } X.4.w.w.q.7.&.} } } } } } } } } } H w w 6 6 5 6 6 1 5 ",
"h h h h j j j k z c V } } 6.t.t.0.:.o.} } } } } } } } } } } } f j j j z x x x x ",
"c c c c c c c c c c { | 5.t.w.<.o.} } } } } } } } } } } } } } R c c c c c c c c ",
"c c c c c c c c c D } $.t.r.<.+.} } } } } } } } } } } } } } } } x z k j j j j k ",
"x x a e 7 5 1 ; ; ^ } <.0.2.@.i.+ } } } } } } } p.O } } } } } } N 1 1 1 1 1 > - ",
"1 < ; - - > < < 5 _ } 3.*.o.} u.o } } } } } } } y.  } } } X.,.} Y j j j j j 7 - ",
"j z c c c c c c c ( } >.+.} }   . ] ' ' ' ' ' ' X . { } } 4.9.} L c c c c c j ; ",
"j a a a a a a a a J } X. .} { $ @ Q W W W Q Q W % # ) ' } r.r.} Z c c c c c j ; ",
"x k j j j j j j k l } } } { ) Q E W W W W W W W Q Q Q ! O.r.e.} a a p e e e 7 - ",
"c c c c c c c c c c / } } ' ~ W W W W W W W W W W W W W %.8.:.M e w w w w w 7 - ",
"x x x z k k k j j j j } } ] Q W W W W W W W W W W W W Q -.=.} c k w 6 6 6 6 1 - ",
"a a a e e e r a a a h A } } Q W W W W W W W W W W W W Q #.} G c c c c c c c a ; ",
"w e e w 6 6 6 6 6 6 6 7 [ } ' Q W W W W W W W W W W Q } ..F c c c c x x x z e ; ",
"z z x x c c z k j h a e u } } } ~ W W W W W W W Q ) } } K k k j j j j j j j w ; ",
"j j j j h a a a p e w w 7 B } } } ] ) ~ ~ ` ' ] } } } S a h a a a a a a a a 6 ; ",
"a a a a a a h a h h a e e w u [ } } } } } } } } } { g e a j a j j k k z z z 7 > ",
"c c c c c c c c c c c c c c c c Z Y } } } } } T x c c c c c c c c c c c c c 6 > ",
"k z x x x x x x x c c c c c c c c c c v C b c c c c c c c c c c c c c c c c 5 < ",
"a a a a a e e w w w w w e e e e e r r p a a j k k z x x c z j j j j j j j j 1 > ",
"j j j j j j j j k k z z z k k j j j j j j j k z k w w r j j j a j k z z x x 7 5 ",
"> - - < < 1 5 1 1 1 1 1 1 1 1 1 1 1 1 1 > - - - - - - - < 1 1 5 1 1 < < > ; - - ",
"> - - - - > 2 2 5 6 7 w e a a a a h a a e 7 w 7 ; - 1 7 6 6 6 5 1 - - - - - - ; ",
"j k z z k k k z z x c c c c c c c c c c c c c c e - j x x c c c c x x z j a p p ",
"j j j h a a a a a j k c c c c c c c c c c c c c e - z x k j j j j j k z x x c c ",
"5 2 2 1 1 1 1 1 5 6 w r p a a j k x c c c c c c e - a a p k z k k j j c c x x x ",
"c c c c c x x z k j j h h a a a a a h j h h a h w - - - - 1 5 5 5 6 w a p p p a ",
"c c c c c c x z k j j j j j a p i y t 0 0 0 0 4 , * 6 e w e a a a j j k k z x x ",
"x x c c c c c c c c c c c z s y 0 9 9 9 9 9 9 9 : & t s z c c c c c c c c c c c ",
"a p r e e e e e e r p a a p t 0 0 9 8 8 8 9 9 9 , & 0 t p a a a a a a p r e e e ",
"c c c c c x x x x x x x x x z d p t t q 0 0 0 t 3 = y p e e e e e e e e 7 7 7 w ",
"a a j j j j k z x x c c c c c c c c c c x z z z 6 ; k c c c c c c c c c c c x x ",
"w 6 6 6 7 7 7 7 7 7 6 2 1 1 5 w a k x c c c c c 5 > j c c c c c c c c x k k j j "
};
