/* XPM */
static const char *sprite4[] = {
/* columns rows colors chars-per-pixel */
"80 80 94 2 ",
"   c white",
".  c #DBE6E6",
"X  c #A1BEBC",
"o  c #699795",
"O  c #598C8A",
"+  c #5F908E",
"@  c #8FB2B0",
"#  c #E5EDED",
"$  c #F1F5F5",
"%  c #8BAFAD",
"&  c #3D7976",
"*  c #33726F",
"=  c #367471",
"-  c #6A9896",
";  c #F1F6F5",
":  c #E3ECEB",
">  c #619290",
",  c #48807E",
"<  c #E7EEEE",
"1  c #F3F7F7",
"2  c #639391",
"3  c #49817F",
"4  c #86ACAA",
"5  c #749F9D",
"6  c #CFDEDD",
"7  c #377572",
"8  c #D9E5E4",
"9  c #7CA4A2",
"0  c #EAF1F0",
"q  c #397674",
"w  c #467F7D",
"e  c #F2F6F6",
"r  c #B6CDCC",
"t  c #102322",
"y  c #33716E",
"u  c #2E6663",
"i  c #0A1717",
"p  c #316E6B",
"a  c #357471",
"s  c #BDD2D1",
"d  c #234E4C",
"f  c black",
"g  c #285956",
"h  c #010202",
"j  c #16312F",
"k  c #93B4B3",
"l  c #112625",
"z  c #2D6562",
"x  c #357370",
"c  c #000101",
"v  c #163130",
"b  c #7AA3A1",
"n  c #1C403E",
"m  c #2F6967",
"M  c #020505",
"N  c #214B49",
"B  c #6E9B99",
"V  c #457F7C",
"C  c #1E4341",
"Z  c #183534",
"A  c #2E6764",
"S  c #6C9997",
"D  c #518684",
"F  c #77A19F",
"G  c #347370",
"H  c #CBDBDA",
"J  c #3B7875",
"K  c #ABC5C4",
"L  c #FDFEFE",
"P  c #4D8482",
"I  c #DDE8E7",
"U  c #4C8381",
"Y  c #C6D8D7",
"T  c #4B8380",
"R  c #5C8E8C",
"E  c #3C7875",
"W  c #8DB0AE",
"Q  c #E1EBEA",
"!  c #437D7A",
"~  c #7EA6A4",
"^  c #F7F9F9",
"/  c #D2E0DF",
"(  c #548986",
")  c #49817E",
"_  c #92B4B2",
"`  c #F9FBFA",
"'  c #9DBCBA",
"]  c #4D8481",
"[  c #387572",
"{  c #4E8582",
"}  c #89AEAC",
"|  c #CEDDDD",
" . c #E5EDEC",
".. c #E2EBEB",
/* pixels */
"                                                                                                                                                                ",
"                                                                                                                                                                ",
"                                                                                                                                                                ",
"                                                                                                                                                                ",
"                                                                                                                                                                ",
"                                                                                                                                                                ",
"                                                                                                                                                                ",
"                                                                                                                                                                ",
"                                                                                                                                                                ",
"                                                                                                                                                                ",
"                                                                                                                                                                ",
"                                                                                                                                                                ",
"                                                                                                                                                                ",
"                                                                                                                                                                ",
"                                                                                                                                                                ",
"                                                                                                                                                                ",
"                                                                                                                                                                ",
"                                                                                                                                                                ",
"                                                                    . . X X o o O O + + @ @ # #                                                                 ",
"                                                                    . . X X o o O O + + @ @ # #                                                                 ",
"                                                            $ $ % % & & * * * * * * * * * * = = - - ; ;                                                         ",
"                                                            $ $ % % & & * * * * * * * * * * = = - - ; ;                                                         ",
"                                                        : : > > * * * * * * * * * * * * * * * * * * , , < <                                                     ",
"                                                        : : > > * * * * * * * * * * * * * * * * * * , , < <                                                     ",
"                                                    1 1 2 2 * * * * * * * * * * * * * * * * * * * * * * 3 3                                                     ",
"                                                    1 1 2 2 * * * * * * * * * * * * * * * * * * * * * * 3 3                                                     ",
"                                                    4 4 * * * * * * * * * * * * * * * * * * * * * * * * * * 5 5                                                 ",
"                                                    4 4 * * * * * * * * * * * * * * * * * * * * * * * * * * 5 5                                                 ",
"                                                6 6 7 7 * * * * * * * * * * * * * * * * * * * * * * * * * * 7 7 8 8                                             ",
"                                                6 6 7 7 * * * * * * * * * * * * * * * * * * * * * * * * * * 7 7 8 8                                             ",
"                                                9 9 * * * * * * * * * * * * * * * * * * * * * * * * * * * * * * 9 9                                             ",
"                                                9 9 * * * * * * * * * * * * * * * * * * * * * * * * * * * * * * 9 9                                             ",
"                                            0 0 q q * * * * * * * * * * * * * * * * * * * * * * * * * * * * * * w w e e                                         ",
"                                            0 0 q q * * * * * * * * * * * * * * * * * * * * * * * * * * * * * * w w e e                                         ",
"                                            r r * * * * * * * * t t y y * * * * * * * * * * u u i i p p * * * * a a s s                                         ",
"                                            r r * * * * * * * * t t y y * * * * * * * * * * u u i i p p * * * * a a s s                                         ",
"                                            % % * * * * * * d d f f g g * * * * * * * * * * * * h h j j * * * * * * k k                                         ",
"                                            % % * * * * * * d d f f g g * * * * * * * * * * * * h h j j * * * * * * k k                                         ",
"                                            + + * * * * * * l l f f z z * * * * x x * * * * * * c c v v * * * * * * b b                                         ",
"                                            + + * * * * * * l l f f z z * * * * x x * * * * * * c c v v * * * * * * b b                                         ",
"                                            3 3 * * * * * * n n f f m m * * * * q q * * * * * * M M N N * * * * * * B B                                         ",
"                                            3 3 * * * * * * n n f f m m * * * * q q * * * * * * M M N N * * * * * * B B                                         ",
"                                            V V * * * * * * * * C C * * * * * * x x * * * * * * Z Z A A * * * * * * S S                                         ",
"                                            V V * * * * * * * * C C * * * * * * x x * * * * * * Z Z A A * * * * * * S S                                         ",
"                                            D D * * * * * * * * * * * * * * * * * * * * * * * * * * * * * * * * * * 5 5                                         ",
"                                            D D * * * * * * * * * * * * * * * * * * * * * * * * * * * * * * * * * * 5 5                                         ",
"                                            F F * * * * * * * * * * * * * * * * * * * * * * * * * * * * * * * * G G 4 4                                         ",
"                                            F F * * * * * * * * * * * * * * * * * * * * * * * * * * * * * * * * G G 4 4                                         ",
"                                            H H * * * * * * * * * * * * * * * * * * * * * * * * * * * * * * * * J J K K                                         ",
"                                            H H * * * * * * * * * * * * * * * * * * * * * * * * * * * * * * * * J J K K                                         ",
"                                            L L * * * * * * * * * * * * * * * * * * * * * * * * * * * * * * * * P P I I                                         ",
"                                            L L * * * * * * * * * * * * * * * * * * * * * * * * * * * * * * * * P P I I                                         ",
"                                                U U * * * * * * * * * * * * * * * * * * * * * * * * * * * * x x F F                                             ",
"                                                U U * * * * * * * * * * * * * * * * * * * * * * * * * * * * x x F F                                             ",
"                                                Y Y * * * * * * * * * * * * * * * * * * * * * * * * * * * * T T Y Y                                             ",
"                                                Y Y * * * * * * * * * * * * * * * * * * * * * * * * * * * * T T Y Y                                             ",
"                                                    R R * * * * * * * * * * * * * * * * * * * * * * * * E E W W                                                 ",
"                                                    R R * * * * * * * * * * * * * * * * * * * * * * * * E E W W                                                 ",
"                                                    Q Q ! ! * * * * * * * * * * * * * * * * * * * * q q ~ ~ ^ ^                                                 ",
"                                                    Q Q ! ! * * * * * * * * * * * * * * * * * * * * q q ~ ~ ^ ^                                                 ",
"                                                        / / ( ( * * * * * * * * * * * * * * * * ) ) _ _ ` `                                                     ",
"                                                        / / ( ( * * * * * * * * * * * * * * * * ) ) _ _ ` `                                                     ",
"                                                            ; ; ' ' ] ] = = G G G G [ [ { { } } | |                                                             ",
"                                                            ; ; ' ' ] ] = = G G G G [ [ { { } } | |                                                             ",
"                                                                        ; ;  . .....< < ` `                                                                     ",
"                                                                        ; ;  . .....< < ` `                                                                     ",
"                                                                                                                                                                ",
"                                                                                                                                                                ",
"                                                                                                                                                                ",
"                                                                                                                                                                ",
"                                                                                                                                                                ",
"                                                                                                                                                                ",
"                                                                                                                                                                ",
"                                                                                                                                                                ",
"                                                                                                                                                                ",
"                                                                                                                                                                ",
"                                                                                                                                                                ",
"                                                                                                                                                                ",
"                                                                                                                                                                ",
"                                                                                                                                                                "
};
