/* XPM */
static const char *sprite0[] = {
/* columns rows colors chars-per-pixel */
"40 40 105 2 ",
"   c black",
".  c #090B0D",
"X  c #0E1722",
"o  c #0F1924",
"O  c #18222F",
"+  c #152637",
"@  c #1C2530",
"#  c #152639",
"$  c #17293D",
"%  c #182A3E",
"&  c #2F2A25",
"*  c #2B2A2A",
"=  c #3C2F22",
"-  c #312E2C",
";  c #3F3023",
":  c #36312F",
">  c #39322E",
",  c #313033",
"<  c #3E3630",
"1  c #433425",
"2  c #483727",
"3  c #41362C",
"4  c #493728",
"5  c #45382E",
"6  c #4D3A29",
"7  c #523E2C",
"8  c #453931",
"9  c #4A3D32",
"0  c #56412D",
"q  c #59432F",
"w  c #544232",
"e  c #5D4631",
"r  c #604732",
"t  c #644A33",
"y  c #684D35",
"u  c #664D3B",
"i  c #303341",
"p  c #383949",
"a  c #3F4258",
"s  c #394360",
"d  c #3E4A6C",
"f  c #4D4142",
"g  c #49424B",
"h  c #534646",
"j  c #544A4F",
"k  c #5C4C4A",
"l  c #40445A",
"z  c #524952",
"x  c #524D5C",
"c  c #634E42",
"v  c #424D6D",
"b  c #504F63",
"n  c #4D526E",
"m  c #525369",
"M  c #495372",
"N  c #445478",
"B  c #48577B",
"V  c #2C5887",
"C  c #2D5A8A",
"Z  c #3C5785",
"A  c #325E8D",
"S  c #3E5C8A",
"D  c #2E5E92",
"F  c #395E91",
"G  c #2E6196",
"H  c #2F639A",
"J  c #376197",
"K  c #34639B",
"L  c #35689E",
"P  c #3067A2",
"I  c #3369A4",
"U  c #396FA8",
"Y  c #3D72AB",
"T  c #425A83",
"R  c #4773A1",
"E  c #467AB1",
"W  c #4A7DB4",
"Q  c #4F82B8",
"!  c #5784B4",
"~  c #5E89B7",
"^  c #5385BB",
"/  c #5788BD",
"(  c #5E8EC2",
")  c #6291C5",
"_  c #6E99C7",
"`  c #6897C9",
"'  c #6B99CB",
"]  c #6D9BCD",
"[  c #78A2CF",
"{  c #73A0D1",
"}  c #75A2D2",
"|  c #77A4D4",
" . c #78A4D3",
".. c #7AA6D6",
"X. c #7CA8D7",
"o. c #7EAAD9",
"O. c #B9BABC",
"+. c #82ADDB",
"@. c #86B1DF",
"#. c #88B2DF",
"$. c #88B2E0",
"%. c #8AB4E1",
"&. c #CDCDCD",
"*. c #E1E3E4",
"=. c #EAEBEC",
/* pixels */
"= ; 1 1 = = = = = = ; = = = = = = = = ; ; ; ; ; 1 1 1 1 ; ; ; ; ; ; 1 1 ; ; 1 1 ",
"y y y y y y y y q 7 6 1 1 4 0 0 q q q q e r t y y y y y y y y y y y y y y y y y ",
"y t t t r e e t t e e 1 = 1 q r t t t r e e e e e t y y y y y y t t t t t t t y ",
"; = = 1 1 1 2 6 7 0 q 1 = 7 q q q e t t t t t r e e e e e q q 6 1 1 1 1 1 1 1 y ",
"1 1 6 y y y y y y y t 1 = 6 q e t t r e e q 7 6 6 7 7 6 4 4 4 4 6 6 7 e e t t y ",
"0 7 q e r t t t t t 0 1 1 q y y y e 0 7 6 6 7 q q e e t t y y y y y y y y y y y ",
"t q 7 0 q q 0 0 0 q 7 1 1 0 e e q 7 7 0 e t y y y y y y y y y y y y y y y y y y ",
"6 2 2 7 t t t y y y q 1 1 6 4 6 7 7 7 7 0 0 q q q q q q q q e e e t t t t t t t ",
"y t t t t t t t t t 7 1 1 6 0 q 0 0 0 0 0 q q q q q q q 7 6 6 6 6 6 6 6 7 6 6 t ",
"q 0 q q q q e q e e 7 1 1 7 t y y y y t t t t t t t t t e 0 0 0 7 7 7 0 0 7 7 t ",
"t q 0 0 0 q t t y t q 1 = 7 r y y y y y t t t t t t t t t t t t y y y y y y y e ",
"y y y y y y y y y t e 1 = 0 0 y y y y y y y y y y y y y y y y y y y y y y y y e ",
"t t t t t t t t t e q = = 1 1 q t t t y y y t t t t t t e e e e e q 0 e e q 7 1 ",
"= = = = = = = = = = = = 1 = = = = = = = = = = = = = = = = = = = = = ; ; = = = = ",
"2 1 4 4 4 4 6 7 7 7 7 6 t 6 6 7 7 0 q e e e r r t t t t t e e q q e e e t t 1 ; ",
"1 1 1 1 1 6 6 7 7 7 0 q e r t r t t t t t t t y y y y y y y y y y y y y y y 7 = ",
"1 1 1 1 1 4 4 4 6 6 7 q r t y y y y y t t t t t t t t t t t t e e e e q 0 7 2 = ",
"0 e y y y y y y y y y y y y y y y y y t t e e e e e e e q q 0 0 7 7 7 7 1 ; = = ",
"0 e y y t t t t t t t t t t t t j M S J K F N h t y y y y y y y 0 6 6 4 1 7 4 = ",
"1 1 1 1 7 0 0 q q e e e e e b K P P P P I P P P P B u y y y y y y y y y y y t = ",
"= = = ; ; 1 6 6 6 6 6 6 f F P P ^ ) ] ..{ ( W U P P P m y y y y y y y t y y t = ",
"1 4 e t y y y t t e e z P P / @.$.$.o.) Y U I P P P P P T t q q 0 0 7 7 6 6 2 = ",
"1 ; ; 1 7 e e q q 0 h P P X.%.$.@.` I P P P P P P P P P P S q 0 7 7 6 6 6 4 4 = ",
"; ; 1 1 6 6 7 7 7 7 P P +.%.#.) P P P P P P P P P P P P P P n t t t t y y y 7 1 ",
"0 q t t r e e e e K P ..$...U P P P P P P P P P P P P P P P P c y y y y y t 6 1 ",
"e q r t t t e e k P Q $.) P P P H G D D G H P P P P P P P P P L y t t t y t 6 1 ",
"0 7 7 7 7 6 4 4 P P +.} P P *.O P G H H G H L P =.@ P P P U P P g 4 t t t q 7 = ",
"; = = = = = = v P ( o.Y P P &.. G D C C C C C G O.  P P P ^ Y P F 1 1 ; ; = = = ",
"6 6 4 1 1 1 4 P P ' ^ P P G X o C C C C C C C V o o C H P ] | I P 7 7 7 6 4 1 1 ",
"t t t y y y y P U ^ P P C V + $ C C C C C C C C % # V V C  .$.W P k t t t e e e ",
"t r e y y y y P U U L C V C C V C C V V V V V V V V V V A $.%./ P k y y t t t y ",
"= = = 6 4 4 4 P P P D C C C V V V V V V V V V V V V V V R %.%.E P t y y y y y e ",
"2 4 6 0 q q q M P P C V V V V V V V V V V V V V V V V C _ %.X.P K 7 q e e q 7 4 ",
"y y y y y y y y K P G V V V V V V V V V V V V V V V V R [ ! H P w q e e e r t t ",
"y y y y y y y y 9 P P D V V V V V V V V V V V V V V A ~ R H P x y y y y y y y t ",
"1 ; 1 q q q q 3 - - K P H C V V V V V V V V V V V V C L P F a : > w e e q 7 1 1 ",
"y e e t t t t > : : : l P P H D C C C C C D D G H P P F d - * * - 5 7 6 6 4 1 7 ",
"4 1 1 1 4 4 4 1 * * * * * p Z L P P P P P P K Z s i , : : > > < 9 w t y y t t y ",
"1 = = ; 6 6 7 7 6 3 > * * * * * - : 8 8 9 9 9 5 & & 3 3 3 3 5 7 0 0 0 0 0 7 7 e ",
"q t t y y y y y y y y y y y t y y y y y y y y e = = e e e e e e q q q q q q q e "
};
