/* XPM */
static const char *sprite_p1[] = {
/* columns rows colors chars-per-pixel */
"80 80 167 2 ",
"   c black",
".  c #090B0D",
"X  c #2B1F15",
"o  c #2E2216",
"O  c #2D221A",
"+  c #312417",
"@  c #332619",
"#  c #37281B",
"$  c #3B2B1D",
"%  c #0F1924",
"&  c #0E1722",
"*  c #18222F",
"=  c #182A3E",
"-  c #172737",
";  c #212225",
":  c #2A2624",
">  c #2F2924",
",  c #2B2A2A",
"<  c #372B20",
"1  c #3C2E22",
"2  c #322D2D",
"3  c #3F3123",
"4  c #35312E",
"5  c #38312D",
"6  c #313033",
"7  c #3E3630",
"8  c #402F1F",
"9  c #4B371E",
"0  c #46321A",
"q  c #402F20",
"w  c #443324",
"e  c #493626",
"r  c #4C3927",
"t  c #41362C",
"y  c #493728",
"u  c #45382E",
"i  c #4D3A29",
"p  c #4F3B29",
"a  c #4D3A29",
"s  c #4F3C2A",
"d  c #4C3929",
"f  c #503B29",
"g  c #503B2A",
"h  c #513C29",
"j  c #513C2A",
"k  c #523D2A",
"l  c #533E2B",
"z  c #523D29",
"x  c #543E2B",
"c  c #563F2B",
"v  c #533E2C",
"b  c #553F2C",
"n  c #523E2B",
"m  c #453931",
"M  c #4A3D32",
"N  c #513E31",
"B  c #58401E",
"V  c #694C1C",
"C  c #55402D",
"Z  c #56402C",
"A  c #57412E",
"S  c #57422E",
"D  c #56402D",
"F  c #59422E",
"G  c #5A432E",
"H  c #58412D",
"J  c #5B442F",
"K  c #5C442F",
"L  c #5A432F",
"P  c #534131",
"I  c #5B4430",
"U  c #5C4530",
"Y  c #5F4631",
"T  c #5D4630",
"R  c #5D4630",
"E  c #654B25",
"W  c #60472F",
"Q  c #6E5226",
"!  c #604731",
"~  c #604732",
"^  c #604731",
"/  c #614832",
"(  c #604832",
")  c #624932",
"_  c #634933",
"`  c #624932",
"'  c #634A33",
"]  c #644A33",
"[  c #644B33",
"{  c #654B34",
"}  c #664B34",
"|  c #674C35",
" . c #644A33",
".. c #684D35",
"X. c #684D35",
"o. c #725630",
"O. c #7C6134",
"+. c #303341",
"@. c #383949",
"#. c #393D52",
"$. c #483E41",
"%. c #423C46",
"&. c #3F435A",
"*. c #394360",
"=. c #3E4A6C",
"-. c #544646",
";. c #584948",
":. c #554A4F",
">. c #554C53",
",. c #424761",
"<. c #484E68",
"1. c #49526F",
"2. c #465170",
"3. c #47567A",
"4. c #575A69",
"5. c #88631E",
"6. c #B17F1C",
"7. c #815F23",
"8. c #836126",
"9. c #9D752C",
"0. c #987435",
"q. c #A77F33",
"w. c #836641",
"e. c #B48C45",
"r. c #A88852",
"t. c #2C5887",
"y. c #2D5A8A",
"u. c #3D5784",
"i. c #325E8D",
"p. c #3D5C8C",
"a. c #2E5E92",
"s. c #395E91",
"d. c #2E6196",
"f. c #2F639A",
"g. c #376197",
"h. c #33649C",
"j. c #35689E",
"k. c #3067A2",
"l. c #3369A4",
"z. c #396FA8",
"x. c #3D72AB",
"c. c #425D87",
"v. c #4773A1",
"b. c #4A7DB4",
"n. c #467AB1",
"m. c #4F82B8",
"M. c #5E89B7",
"N. c #5385BB",
"B. c #5788BD",
"V. c #5784B4",
"C. c #5E8EC2",
"Z. c #6291C5",
"A. c #6E99C7",
"S. c #6897C9",
"D. c #6C9ACC",
"F. c #78A2CF",
"G. c #75A2D2",
"H. c #7AA6D5",
"J. c #7DA9D7",
"K. c #7EAAD9",
"L. c #B9BABC",
"P. c #82ADDB",
"I. c #87B1DF",
"U. c #88B2DF",
"Y. c #89B3E1",
"T. c #E5E7E8",
"R. c #CDCDCD",
/* pixels */
"1 1 3 3 w w w w 1 1 1 1 1 1 1 1 1 1 1 1 3 3 1 1 1 1 1 1 1 1 1 1 1 1 1 1 1 1 1 1 1 1 1 1 1 1 1 1 w w w w w w w w 3 3 3 3 3 3 3 3 3 3 3 3 w w 3 3 3 3 3 3 w w w w ",
"1 1 3 3 w w w w 1 1 1 1 1 1 1 1 1 1 1 1 3 3 1 1 1 1 1 1 1 1 1 1 1 1 1 1 1 1 1 1 1 1 1 1 1 1 1 1 w w w w w w w w 3 3 3 3 3 3 3 3 3 3 3 3 w w w w 3 3 3 3 w w w w ",
"| | ..............| | | ....| | J J j j d d w w w w y y A A d d @ @ + + + @ + + o + + + + + + + + + j j | | ......| | | ............| | ........................",
"| | ............| | | | ....| | J J j j d d w w w w y y A A d d @ @ + + + @ + + o o + + + + + + + + j j | | ....| | | | ............| | ........................",
"....{ { ] ] ) ) ~ ~ Y Y Y Y ) ) ) ) Y Y Y Y e e 1 1 w w # # + + @ @ $ $ 3 3 y y $ $ $ $ e e # # + + + + + + A A | | ........| | ) ) ) ) { { ] ] ] ] ] ] ) ) ....",
"....{ { ] ] ) ) ~ ~ Y Y Y Y ) ) ) ) Y Y Y Y e e 1 1 3 3 # # + + @ @ $ $ 3 3 y y $ $ $ $ e e # # + + + + + + A A | | ........| | ) ) ) ) { { ] ] ] ] ] ] ) ) ....",
"3 3 1 1 1 1 w w e e e e y y d d j j A A F F e e < < + + o o # # y y f f y y A A e e r r ] ] ] ] A A $ $ + + + + y y F F F F d d w w e e e e e e e e e e e e ....",
"3 3 1 1 1 1 w w e e e e y y d d j j A A F F e e < < + + o o # # y y f f y y A A e e r r ] ] ] ] A A $ $ + + + + y y F F F F d d w w e e e e e e e e e e e e ....",
"e e e e s s ....| | | ..................] ] 1 1 o o o o $ # f f A A y y e e j j w w r r ] ] ) ) F F K K w w @ @ o o 1 1 y y y y d d d d v v Y Y Y Y ) ) { { ....",
"e e e e s s ......| | | ................] ] 1 1 o o + o $ # f f A A y y e e j j w w r r ] ] ) ) F F K K w w @ @ o o 1 1 y y y y d d d d v v Y Y Y Y ) ) { { ....",
"A A v v A F Y Y ~ ~ ) ) ) ) ) ) ) ) ) ) y y o o + + # # 1 1 x x j j y y e e j j e e h h ] ] ) ) x x ~ ~ f f $ $ $ $ # # F F ....................................",
"A A v v F F Y Y ~ ~ ) ) ) ) ) ) ) ) ) ) y y o o o o # # 1 1 x b j j y y e e j j e e j h ] ] ) ) x x ~ ) f f $ $ $ $ # # F F ....................................",
") ) F F b b A A F F F F A A A A A A j j o o o o w w $ $ w w F F f f r r e e x x y y j j ] ] ) ) j j K K j j 1 1 r y $ $ $ $ ~ ~ ................................",
") ) F F b b A A F F F F A A A A A A j j o o o o w w $ $ w w F F f f r r e e x x y y j j ] ] ) ) j j K K j j 1 1 r y $ $ $ $ ~ ~ ................................",
"d d e e y y j j ) ) ] ] { { | | ) ) $ $ + + r r F F $ $ w w K K f f r d y y b b r r j j ] ] ] ) j j A A A A $ $ ~ ~ d d @ @ y y Y Y ) ) ) ) ) ) ] ] ] ] ] ] { { ",
"d d y y y y j j ) ) ] ] { { | | ) ) $ $ + + r r F F $ $ w w K K f f d d y y b b r r j j ] ] ] ] j j A A A A $ $ ~ ~ d d @ @ y y Y Y ) ) ) ) ) ) ] ] ] ] ] ] { { ",
"....] ] ] ] ] ] ] ] ] ] ] ] ) ) y y + + w w | | F F $ $ w w ) ) j j j j d d F F j j x x ) ) ) ) j j x x F F $ $ x b ] ] w w + + e e s s s s s s j j d d d d ] ] ",
"....] ] ] ] ] ] ] ] ] ] ] ] ) ) y y + + w w | | F F $ $ w w ) ) j j j j d d F F j j x x ) ) ) ) j j x x F F $ $ b b ] ] w w + + e e s s s s s s j j d d d d ] ] ",
"J J A A F F F F J J J J I I d d + + $ $ ) ) ) ) F F $ $ w w ] ] b b j j v v F F j j x x ) ) ) ) j j j j G G 1 1 j j ] ] F F # # @ @ j j b v b A A A v v v v ) ) ",
"J J A A F F F F J J J J I I d d + + $ $ ) ) ) ) F F $ $ w w ] ] b b j j v v F F j j x x ) ) ) ) j j j j G F 1 1 j j ] ] F F # # @ @ j j b b A A A A v v v v ) ) ",
"] ] J J A A A A A A F F Y Y # # + + d d ) ) ) ) F F # # w w ] ] F F A A j j F F j j x x ~ ~ ) ) j j j j F F $ $ d d ] ] ] ] w w # # A F ....................Y Y ",
"] ] J J A A A A A A F F Y Y $ # + + d d ) ) ) ) F F # # w w ] ] F F A A j j F F j j x x ~ ~ ) ) j j j j F F $ $ d d ] ] ] ] w w # # F F ....................Y Y ",
"....................| | x x + + $ $ I I Y Y ) ) Z Z $ $ w w ] ] Y Y F F j j F F r r r r Y Y ) ) j j j j A A $ $ d d ] ] ~ ~ F F $ $ # # ) ) ................Y Y ",
"....................| | x x + + $ $ I I Y Y ) ) Z Z # $ w w ] ] Y Y F F j j F F r r r r Y Y ) ) j j j j A A $ $ d d ] ] ~ ~ F F $ $ # # ) ) ................Y Y ",
") ) ) ) ) ) ) ) ) ) Y Y # # @ @ j j F F Y Y ) ) A A $ $ e e ] ] ) ) F F f f F F w w e e ~ ~ ) ) j j j j A A $ $ y y ) ) Y Y Y Y w w @ @ y y ~ ~ Y Y F F v v e e ",
") ) ) ) ) ) ) ) ) ) Y Y # # @ @ j j F F Y Y ) ) A A $ $ e e ] ] ) ) F F f f F F w w e e ~ ~ ) ) j j j j A A $ $ y y ) ) Y Y Y Y w w @ @ y y ~ ~ Y Y F F v v e e ",
"1 1 1 1 1 1 1 1 1 1 $ $ X X $ $ A F A A Y Y ) ) b b $ $ y y ] ] ) ) F F d d A A w w e e ) ) ) ) j j x x A A $ $ y y ) ) Y Y F F j j @ @ O O 1 1 1 1 1 1 1 1 1 1 ",
"1 1 1 1 1 1 1 1 1 1 $ $ X X $ $ A F A A Y Y ) ) x b $ $ y y ] ] ) ) F F d d A A w w y e ) ) ) ) j j x x A A $ $ y y ) ) Y Y F F j j @ @ O O 1 1 1 1 1 1 1 1 1 1 ",
"y y e e y y y y y y $ $ + + w w j j F F Y Y ~ Y x x $ $ r r ] ] ] ] F G d d j j w w y e ) ) ~ ~ x x A A x x $ $ e e ) ) Y Y A A A A $ $ @ @ F F ) ) ) ) w w 3 3 ",
"y y e e y y y y y y $ $ + + w w j j F F Y Y ~ ~ b x $ $ r r ] ] ] ] F G d d j j w w y e ) ) ~ ~ x x A A x x $ $ e e ) ) Y Y A A A F $ $ @ @ F F ) ) ) ) w w 3 3 ",
"e e e e e e w w w w + + # # y y d d F F K K Y Y j x $ $ d d ] ] ] ] F F f f f f $ $ y y ) ) Y Y x x F F j j $ $ e e ) ) K K F F j j y y # # x x | | ....j j 1 1 ",
"e e e e e e w w w w + + # # y y d d F F K K Y Y j x $ $ d d ] ] ] ] F F f f f f $ $ y y ) ) Y Y x x F F j j $ $ e e ) ) K K F F j j y y # # x x | | ....j j 1 1 ",
"w w w w e e e e 1 1 + + $ $ r r d d F F J J Y Y x x $ $ f f ] ] ) ) x x j j f f 8 8 y y ) ) Y Y j j F F j x $ $ w w ) ) K K F F d d Y Y # # $ $ A A v v y y 1 1 ",
"w w w w e e e e 1 1 + + $ $ r r d d F F J J Y Y x x $ $ f f ] ] ) ) x x j j f f 8 8 y y ~ ) Y Y j j F F j j $ $ w w ) ) K K F F d d Y Y # # # # A A v v y y 1 1 ",
"A A Y Y ....| | e e # # w w j j j j Y Y J J Y Y b b $ $ f f ] ] Y Y f f b b j j w w r r ~ ~ Y Y j j F F j j $ $ w w ) ) K K F F d d { { $ $ + + 3 3 3 3 1 1 1 1 ",
"A A Y Y ....| | e e # # w w j j j j Y Y J J Y Y b b $ $ f f ] ] Y Y f f b b j j w w r r ~ ~ Y Y j j F F j j $ $ w w ) ) K K F F d d { { $ $ + + 3 3 3 3 1 1 1 1 ",
"A A Y Y | | ] ] # # # # y y A A A A Y Y J J Y Y A A w w j j ] ] :.:.2.2.p.p.g.g.g.g.s.s.3.3.;.;.j j Y Y j j $ $ w w ) ) F F b b y r ] ] w w + + e e j j y y 1 1 ",
"A A Y Y | | ] ] # # # # y y A A A A Y Y J J Y Y A A w w j j ] ] :.:.2.2.p.p.g.g.g.g.s.s.3.3.;.;.j j Y Y j j $ $ w w ) ) F F b b y y ] ] w w + + e e j j y y 1 1 ",
"w w w w w w w w + + $ $ j j A A A A Y Y K Y K K A A w w <.<.g.g.k.k.k.k.k.k.k.k.l.l.k.k.k.k.k.k.k.k.3.3.N N $ $ e e ) ) Y Y F F w w ) ) d d # # F F | | ) ) 1 1 ",
"w w w w w w w w + + $ $ j j A A A A Y Y K K K K Z A w w <.<.g.g.k.k.k.k.k.k.k.k.l.l.k.k.k.k.k.k.k.k.3.3.N N $ $ e e ) ) ~ Y F F w w ) ) d d # # F F | | ) ) 1 1 ",
"1 1 1 1 1 1 # # o o w w ) ) x x b b Y Y K K Y Y -.-.s.s.k.k.k.k.N.N.Z.Z.D.D.H.H.G.G.C.C.b.b.z.z.k.k.k.k.k.k.,.,.w w w.w.r.r.O.O.Q Q ] ] I I # # w w ] ] ) ) 1 1 ",
"1 1 1 1 1 1 # # o o w w ) ) x x b b Y Y K K Y Y -.-.s.s.k.k.k.k.N.N.Z.Z.D.D.H.H.G.G.C.C.b.b.z.z.k.k.k.k.k.k.,.,.w w w.w.r.r.O.O.Q Q ] ] I I # # w w ] ] ) ) 1 1 ",
"w w y y I I d d # # r r ] ] j j d d J J F F >.>.k.k.k.k.B.B.I.I.Y.Y.Y.Y.K.K.Z.Z.x.x.z.z.l.l.k.k.k.k.k.k.k.k.k.k.u.u.0.0.e.e.0.0.9.9.E E ~ ~ # # + + y y y y 1 1 ",
"w w y y I I d d # # r r ] ] j j d d J J F F >.>.k.k.k.k.B.B.I.I.Y.Y.Y.Y.K.K.Z.Z.x.x.z.z.l.l.k.k.k.k.k.k.k.k.k.k.u.u.0.0.e.e.0.0.9.9.E E ~ ~ # # + + y y y y 1 1 ",
"w w 3 3 3 3 O O o o j j ) ) x x d d J J -.-.k.k.k.k.J.J.Y.Y.Y.Y.I.I.S.S.l.l.k.k.k.k.k.k.k.k.k.k.k.k.k.k.k.k.k.k.k.k.c.c.9.9.q.q.8.8.B B ) ) $ $ + + y y y y 1 1 ",
"w w 3 3 3 3 O O o o j j ) ) x x d d J J -.-.k.k.k.k.J.J.Y.Y.Y.Y.I.I.S.S.l.l.k.k.k.k.k.k.k.k.k.k.k.k.k.k.k.k.k.k.k.k.c.c.9.9.q.q.8.8.B B ) ) $ $ + + y y y y 1 1 ",
"3 3 3 3 e e Q Q E E w w ) ) A A y y F F k.k.k.k.P.P.Y.Y.U.U.Z.Z.k.k.k.k.k.k.k.k.k.k.k.k.k.k.k.k.k.k.k.k.k.k.k.k.k.k.k.k.4.4.6.6.V V 0 0 ) ) $ $ # # ) ) j j w w ",
"3 3 3 3 e e Q Q E E w w ) ) A A y y F F k.k.k.k.P.P.Y.Y.U.U.Z.Z.k.k.k.k.k.k.k.k.k.k.k.k.k.k.k.k.k.k.k.k.k.k.k.k.k.k.k.k.4.4.6.6.V V 0 0 ) ) $ $ # # ) ) j j w w ",
"A A J J ) ) 9.9.7.7.# # ~ ~ J F y y g.g.k.k.H.H.Y.Y.H.H.z.z.k.k.k.k.k.k.k.k.k.k.k.k.k.k.k.k.k.k.k.k.k.k.k.k.k.k.k.k.k.k.k.k.o.o.9 9 e e ] ] $ $ @ @ ) ) d d w w ",
"A A J J ) ) 9.9.7.7.# # ~ ~ F F y y g.g.k.k.H.H.Y.Y.H.H.z.z.k.k.k.k.k.k.k.k.k.k.k.k.k.k.k.k.k.k.k.k.k.k.k.k.k.k.k.k.k.k.k.k.o.o.9 9 e e ] ] $ $ @ @ ) ) d d w w ",
"I I A A K K 5.5.V V 1 1 Y Y K J $.$.k.k.m.m.U.Y.Z.Z.k.k.k.k.k.k.f.f.d.d.a.a.a.a.d.d.f.f.k.k.k.k.k.k.k.k.k.k.k.k.k.k.k.k.k.k.j.j.$ $ A A ] ] w w @ @ Y Y d d w w ",
"I I A A K K 5.5.V V 1 1 Y Y J J $.$.k.k.m.m.Y.Y.Z.Z.k.k.k.k.k.k.f.f.d.d.a.a.a.a.d.d.f.f.k.k.k.k.k.k.k.k.k.k.k.k.k.k.k.k.k.k.j.j.$ $ A A ] ] w w @ @ Y Y d d w w ",
"A A j j d d 0 0 9 9 w w ~ ~ F F k.k.k.k.P.P.G.G.k.k.k.k.T.T.* * k.k.d.d.f.f.f.f.f.d.f.f.j.j.k.k.T.T.* * k.k.k.k.k.k.z.z.k.k.k.k.%.%.Y Y ] ] y y + + b b j j 1 1 ",
"A A j j d d 0 0 9 9 w w ~ ~ F F k.k.k.k.P.P.G.G.k.k.k.k.T.T.* * k.k.d.d.f.f.f.f.d.d.f.f.j.j.k.k.T.T.* * k.k.k.k.k.k.z.z.k.k.k.k.%.%.Y Y ] ] y y + + b b j j 1 1 ",
"3 3 1 1 < < X X 1 1 r r Y Y 1.1.k.k.C.C.K.K.x.x.k.k.k.k.R.R.. . d.f.a.a.y.y.y.y.y.y.y.y.y.y.d.d.L.L.    k.k.k.k.k.k.N.N.x.x.k.k.s.s.Y Y ] ] y y X X 1 1 1 1 1 1 ",
"3 3 1 1 < < X X 1 1 r r Y Y 1.1.k.k.C.C.K.K.x.x.k.k.k.k.R.R.. . d.f.a.a.y.y.y.y.y.y.y.y.y.y.d.d.L.L.    k.k.k.k.k.k.N.N.x.x.k.k.s.s.Y Y ] ] y y X X 1 1 1 1 1 1 ",
"d d d d w w + + w w K K K K k.k.k.k.D.D.N.N.k.k.k.k.d.d.& & & & y.y.y.t.y.y.y.y.y.y.y.y.y.y.t.t.% % % % y.y.f.f.k.k.D.D.G.G.l.l.k.k.Y Y ] ] y y o o w w e e e e ",
"d d d d w w + + w w K K K K k.k.k.k.D.D.N.N.k.k.k.k.d.d.& & & & y.y.y.t.y.y.y.y.y.y.y.y.y.y.t.t.% % % % y.y.f.f.k.k.D.D.G.G.l.l.k.k.Y Y ] ] y y o o w w e e e e ",
") ) ] ] K K @ @ w w ] ] Y Y k.k.z.z.N.N.k.k.k.k.y.y.t.t.- - = = y.y.y.t.y.y.y.y.y.y.y.y.y.y.y.y.= = - - t.t.t.t.y.y.H.H.Y.Y.b.b.k.k.-.-.] ] y e + + y y Y Y Y Y ",
") ) ] ] K K @ @ w w ] ] Y Y k.k.z.z.N.N.k.k.k.k.y.y.t.t.- - = = y.y.t.t.y.y.y.y.y.y.y.y.y.y.y.y.= = - - t.t.t.t.y.y.H.H.Y.Y.b.b.k.k.-.-.] ] y y + + y y I I Y Y ",
"] ] ~ ~ A A @ @ w w ] ] Y Y k.k.z.z.z.z.j.j.y.y.t.t.y.y.y.y.t.t.y.y.y.y.t.t.t.t.t.t.t.t.t.t.t.t.t.t.t.t.t.t.t.t.i.i.Y.Y.Y.Y.B.B.k.k.-.-.] ] y y @ @ d d ) ) ....",
"] ] ~ ~ A A @ @ w w ] ] Y Y k.k.z.z.z.z.j.j.y.y.t.t.y.y.y.y.t.t.y.y.y.y.t.t.t.t.t.t.t.t.t.t.t.t.t.t.t.t.t.t.t.t.i.i.Y.Y.Y.Y.B.B.k.k.-.-.] ] y y @ @ d d ) ) ....",
"1 1 1 1 1 1 + + q q ] ] Y Y k.k.k.k.k.k.a.a.y.y.y.y.y.y.t.t.t.t.t.t.t.t.t.t.t.t.t.t.t.t.t.t.t.t.t.t.t.t.t.t.t.t.v.v.Y.Y.Y.Y.n.n.k.k.C C ] ] w w # # d d | | Y Y ",
"1 1 1 1 1 1 + + q q ] ] Y Y k.k.k.k.k.k.a.a.y.y.y.y.y.y.t.t.t.t.t.t.t.t.t.t.t.t.t.t.t.t.t.t.t.t.t.t.t.t.t.t.t.t.v.v.Y.Y.Y.Y.n.n.k.k.C C ] ] w w # # d d | | Y Y ",
"y y y y y y + + $ $ ] ] Y Y 2.2.k.k.k.k.y.y.t.t.t.t.t.t.t.t.t.t.t.t.t.t.t.t.t.t.t.t.t.t.t.t.t.t.t.t.t.t.t.t.y.y.A.A.Y.Y.J.J.k.k.g.g.F F ) ) $ $ @ @ d d b b y y ",
"y y y y y y + + $ $ ] ] Y Y 2.2.k.k.k.k.y.y.t.t.t.t.t.t.t.t.t.t.t.t.t.t.t.t.t.t.t.t.t.t.t.t.t.t.t.t.t.t.t.t.y.y.A.A.Y.Y.J.J.k.k.g.g.F F ) ) $ $ @ @ d d b b y y ",
"........| { # # $ $ I I ) ) y y g.g.k.k.d.d.t.t.t.y.y.t.t.t.t.t.t.t.t.t.t.t.t.t.t.t.t.t.t.t.t.t.t.t.t.t.t.t.v.v.F.F.V.V.f.f.k.k.N N J J 8 8 @ @ # # Y Y ) ) { { ",
"........| { # # $ $ I I ) ) y y g.g.k.k.d.d.y.t.t.t.y.t.t.t.t.t.t.t.t.t.t.t.t.t.t.t.t.t.t.t.t.t.t.t.t.t.t.t.v.v.F.F.V.V.f.f.k.k.N N J J 8 8 @ @ # # Y Y ) ) { { ",
"| | | | | | 1 1 # # $ $ w w w w > > k.k.k.k.a.a.t.t.t.t.t.t.t.t.t.t.t.t.t.t.t.t.t.t.t.t.t.t.t.t.t.t.t.t.i.i.M.M.v.v.f.f.k.k.#.#.$ $ $ $ @ @ @ @ < < v v | | ] ] ",
"| | | | | | 1 1 # # $ $ w w w w > > k.k.k.k.a.a.t.t.t.t.t.t.t.t.t.t.t.t.t.t.t.t.t.t.t.t.t.t.t.t.t.t.t.t.i.i.M.M.v.v.f.f.k.k.#.#.$ $ $ $ @ @ @ @ < < v v | | ] ] ",
"w w 3 3 e e e e @ @ # # $ $ : : ; ; ; ; g.g.k.k.f.f.y.y.t.t.t.t.t.t.t.t.t.t.t.t.t.t.t.t.t.t.t.t.y.t.t.t.y.y.j.j.k.k.s.s.#.#.; ; : : @ @ # # # # e e j j e e e e ",
"w w 3 3 e e e e @ @ # # $ $ : : ; ; ; ; g.g.k.k.f.f.y.y.t.t.t.t.t.t.t.t.t.t.t.t.t.t.t.t.t.t.t.t.t.t.t.t.y.y.j.j.k.k.s.s.#.#.; ; : : @ @ # # # # e e j j e e e e ",
"| | Y Y Y Y ~ ~ ) ) ) ) Y Y 5 5 5 5 4 5 5 5 &.&.k.k.k.k.f.f.a.a.y.y.y.y.y.y.y.y.a.y.a.a.a.a.d.d.f.f.k.k.k.k.s.s.=.=.2 2 , , , , , , y y v v d d d d y y e e j j ",
"| | Y Y Y Y ~ ~ ) ) ) ) Y Y 5 5 5 5 4 5 5 5 &.&.k.k.k.k.f.f.a.a.y.y.y.y.y.y.y.y.a.y.a.a.a.a.d.d.f.f.k.k.k.k.s.s.=.=.2 2 , , , , , , y y v v d d d d y y e e j j ",
"y y w w w w w w y y y y y y t t , , , , , , , , , , @.@.u.u.j.j.k.k.k.k.k.k.k.k.k.k.k.k.g.g.u.u.*.*.+.+.6 6 5 5 5 5 5 5 5 5 7 7 M M P P ' ' | | | | { { { { ....",
"y y w w w w w w y y y y y y t t , , , , , , , , , , @.@.u.u.j.j.k.k.k.k.k.k.k.k.k.k.k.k.g.g.u.u.*.*.+.+.6 6 5 5 5 5 5 5 5 5 7 7 M M P P ' ' | | | | { { { { ....",
"w w 1 1 1 1 3 3 d d d d j j j j y y t t 5 5 , , , , , , , , , , 2 2 5 5 m m m m M M M M M M u u > > > > t t t t t t t t u u v v A A A A A A A A A A v v b b I I ",
"w w 1 1 1 1 3 3 d d d d j j j j y y t t 5 5 , , , , , , , , , , 2 2 5 5 m m m m M M M M M M u u > > > > t t t t t t t t u u v v A A A A A A A A A A v v b b I I ",
"F F ) ) { { ........................| | ............| | { { | | ............................Y Y 1 1 1 1 Y Y Y Y Y Y Y Y Y Y I I I J F F F F F F F F F F J J Y Y ",
"F F ) ) { { ..........................| ..| ........{ { { { | | ............................Y Y 1 1 1 1 Y Y Y Y Y Y Y Y Y Y I I I I F F F F F F F F F F J J Y Y "
};
