/* XPM */
static const char *sprite_p5[] = {
/* columns rows colors chars-per-pixel */
"80 80 146 2 ",
"   c #000101",
".  c #0C0905",
"X  c #030608",
"o  c #0A0B0B",
"O  c #120D09",
"+  c #16100A",
"@  c #0A121B",
"#  c #2C1D0E",
"$  c #2E1F10",
"%  c #211A1A",
"&  c #291F18",
"*  c #261B14",
"=  c #3D2B0E",
"-  c #2E2114",
";  c #27221D",
":  c #2B231C",
">  c #342414",
",  c #382716",
"<  c #3A2916",
"1  c #33261A",
"2  c #35291D",
"3  c #3C2B1A",
"4  c #19232C",
"5  c #132234",
"6  c #16283A",
"7  c #332B24",
"8  c #3C2F22",
"9  c #3F3024",
"0  c #3C332A",
"q  c #333336",
"w  c #3D393A",
"e  c #402F17",
"r  c #412E1D",
"t  c #423015",
"y  c #45311F",
"u  c #48331E",
"i  c #583F1A",
"p  c #533C16",
"a  c #443324",
"s  c #4A3624",
"d  c #4E3925",
"f  c #42362B",
"g  c #493728",
"h  c #44392F",
"j  c #4C3A2A",
"k  c #523B27",
"l  c #5A3F25",
"z  c #533D2A",
"x  c #4E3E31",
"c  c #584018",
"v  c #644713",
"b  c #63491D",
"n  c #735315",
"m  c #5B4026",
"M  c #56412D",
"N  c #5B432E",
"B  c #544132",
"V  c #5D4630",
"C  c #51443C",
"Z  c #57493D",
"A  c #664B22",
"S  c #60462F",
"D  c #634A2F",
"F  c #735827",
"G  c #795A21",
"H  c #604731",
"J  c #644A33",
"K  c #684D35",
"L  c #614B39",
"P  c #324055",
"I  c #3F4D5D",
"U  c #314661",
"Y  c #3B4F67",
"T  c #364E6E",
"R  c #3C516B",
"E  c #325071",
"W  c #3C5574",
"Q  c #464344",
"!  c #484342",
"~  c #584D45",
"^  c #414B5A",
"/  c #454B53",
"(  c #514F52",
")  c #4B505C",
"_  c #405876",
"`  c #706D62",
"'  c #835B16",
"]  c #886217",
"[  c #8C671D",
"{  c #8F691A",
"}  c #966D17",
"|  c #8F6A21",
" . c #856935",
".. c #A37E37",
"X. c #B28427",
"o. c #B3862B",
"O. c #B28934",
"+. c #CE9214",
"@. c #C09233",
"#. c #C29F5E",
"$. c #D1A44B",
"%. c #2C5786",
"&. c #2C5887",
"*. c #2C5A8A",
"=. c #365882",
"-. c #395981",
";. c #355B8A",
":. c #2E5E92",
">. c #335F91",
",. c #2E6095",
"<. c #2F639B",
"1. c #30659D",
"2. c #3067A2",
"3. c #356BA5",
"4. c #396FA8",
"5. c #3D71A7",
"6. c #3C71AA",
"7. c #4377AE",
"8. c #4679B1",
"9. c #4C7FB6",
"0. c #4D7EB3",
"q. c #4F81B7",
"w. c #5584B6",
"e. c #5385BA",
"r. c #5485BB",
"t. c #5184BA",
"y. c #5688BD",
"u. c #5F8FC3",
"i. c #6494C7",
"p. c #6393C6",
"a. c #6796C8",
"s. c #6E9CCD",
"d. c #7BA7D7",
"f. c #7CA8D7",
"g. c #7EAAD9",
"h. c #75A2D2",
"j. c #83AEDC",
"k. c #83AEDC",
"l. c #86B1DF",
"z. c #88B2DF",
"x. c #89B3E1",
"c. c #8AB4E1",
"v. c gray82",
"b. c gainsboro",
"n. c #DFE1E2",
"m. c #EDEDEE",
/* pixels */
"8 8 9 9 a a a a 8 8 8 8 8 8 8 8 8 8 8 8 9 9 8 8 8 8 8 8 8 8 8 8 8 8 8 8 8 8 9 9 9 9 9 9 9 9 9 9 a a a a a a a a 9 9 9 9 9 9 9 9 9 9 9 9 a a 9 9 9 9 9 9 a a a a ",
"8 8 9 9 a a a a 8 8 8 8 8 8 8 8 8 8 8 8 9 9 8 8 8 8 8 8 8 8 8 8 8 8 8 8 8 8 9 9 9 9 9 9 9 9 9 9 a a a a a a a a 9 9 9 9 9 9 9 9 9 9 9 9 a a 9 a 9 9 9 9 a a a a ",
"K K K K K K K K K K K K K K K K N N z z j j a a a a g g M M z z 3 3 > > > > > > > > > > > > > > > > z z K K K K K K K K K K K K K K K K K K K K K K K K K K K K ",
"K K K K K K K K K K K K K K K K N N z z j j a a a a g g M M z z 3 3 > > > > > > > > > > > > > > > > z z K K K K K K K K K K K K K K K K K K K K K K K K K K K K ",
"K K J J J J J J H H V V V V J J J J V V V V g g 8 8 g g a a > > > > > > > > > > > > > > > > > > > > > > , , K K K K K K K K K K J J J J J J J J J J J J J J K K ",
"K K J J J J J J H H V V V V J J J J V V V V g g 8 8 g g a a > > > > > > > > > > > > > > > > > > > > > > , , K K K K K K K K K K J J J J J J J J J J J J J J K K ",
"9 9 8 8 8 8 a a g g g g g g j j z z M M M M g g 8 8 > > > > > > y y s s r r k k a a d d J J J J z z 3 3 > > 3 3 V V M M M M j j a a g g g g g g g g g g g g K K ",
"9 9 8 8 8 8 a a g g g g g g j j z z M M M M g g 8 8 > > > > > > y y s s r r k k a a d d J J J J z z 3 3 > > 3 3 V V M M M M j j a a g g g g g g g g g g g g K K ",
"g g g g j j K K K K K K K K K K K K K K J J g g $ $ $ $ , , s s z z y y 3 3 d d a a k k J J J J M M N N r r # # , , g g g g g g j j j j z z V V V V J J J J K K ",
"g g g g j j K K K K K K K K K K K K K K J J g g $ $ $ $ , , s s z z y y 3 3 d d a a k k J J J J M M N N r r # # , , g g g g g g j j j j z z V V V V J J J J K K ",
"M M z z M M V V H H J H J J J J J J J J M M $ $ # # > > 3 3 k k Y Y 1.1.2.2.2.2.2.2.2.2.2.2.1.1.R R V V s s $ $ # # y y K K K K K K K K K K K K K K K K K K K K ",
"M M z z M M V V H H J H J J J J J J J J M M $ $ # # > > 3 3 k k Y Y 1.1.2.2.2.2.2.2.2.2.2.2.1.1.R R V V s s $ $ # # y y K K K K K K K K K K K K K K K K K K K K ",
"J J M M z z M M M M M M M M M M M M N N > > # # > > > > T T 2.2.2.2.3.3.2.2.3.3.3.3.2.2.2.2.2.2.2.2.2.2.2.2.U U r r # # z z K K K K K K K K K K K K K K K K K K ",
"J J M M z z M M M M M M M M M M M M N N > > # # > > > > T T 2.2.2.2.3.3.2.2.3.3.3.3.2.2.2.2.2.2.2.2.2.2.2.2.U U r r # # z z K K K K K K K K K K K K K K K K K K ",
"j j g g g g z z J J J J J J K K K K y y # # y y B B 2.2.2.2.t.t.a.a.a.a.p.p.e.e.3.3.2.2.2.2.2.2.2.2.2.2.2.2.2.2.2.2.w w # # V V V V J J J J J J J J J J J J J J ",
"j j g g g g z z J J J J J J K K K K y y # # y y B B 2.2.2.2.t.t.a.a.a.a.p.p.e.e.3.3.2.2.2.2.2.2.2.2.2.2.2.2.2.2.2.2.w w # # V V V V J J J J J J J J J J J J J J ",
"K K J J J J J J J J J J J J J J k k # # 3 3 ( ( 2.2.3.3.s.s.l.l.l.l.j.j.f.f.9.9.2.2.2.2.2.2.2.2.2.2.2.2.2.2.2.2.2.2.2.2.P P $ $ j j z j j j z z z z j j j j J J ",
"K K J J J J J J J J J J J J J J k k # # 3 3 ( ( 2.2.3.3.s.s.l.l.l.l.j.j.f.f.9.9.2.2.2.2.2.2.2.2.2.2.2.2.2.2.2.2.2.2.2.2.P P $ $ j j j j j j z z z z j j j j J J ",
"N N M M M M M M N N N N V V z z # # > > C C 2.2.2.2.d.d.c.c.c.c.j.j.e.e.4.4.2.2.2.2.2.2.2.2.2.2.2.2.2.2.2.2.2.2.2.2.2.2.2.2.$ $ r r z z z z M M M M z z z z J J ",
"N N M M M M M M N N N N V V z z # # > > C C 2.2.2.2.d.d.c.c.c.c.j.j.e.e.4.4.2.2.2.2.2.2.2.2.2.2.2.2.2.2.2.2.2.2.2.2.2.2.2.2.$ $ r r z z z z M M M M z z z z J J ",
"J J N N M M M M M M M M H H # # # # 3 3 <.1.2.2.h.h.c.c.l.l.u.u.4.4.2.2.2.2.2.2.2.2.2.2.2.2.2.2.2.2.2.2.2.2.2.2.2.2.2.2.2.2.E E # # J J K K K K K K K K K K V V ",
"J J N N M M M M M M M M H V # # # # 3 3 1.1.2.2.h.h.c.c.l.l.u.u.4.4.2.2.2.2.2.2.2.2.2.2.2.2.2.2.2.2.2.2.2.2.2.2.2.2.2.2.2.2.E E # # J J K K K K K K K K K K V V ",
"K K K K K K K K K K K K k k # # > > Q Q 2.2.8.8.c.c.x.x.u.u.6.6.2.2.2.2.2.2.2.2.2.2.2.2.2.2.2.2.2.2.2.2.2.2.2.2.2.2.2.2.2.2.2.2.$ $ y y K K K K K K K K K K V V ",
"K K K K K K K K K K K K k k # # > > Q Q 2.2.8.8.c.c.x.x.u.u.6.6.2.2.2.2.2.2.2.2.2.2.2.2.2.2.2.2.2.2.2.2.2.2.2.2.2.2.2.2.2.2.2.2.$ $ y y K K K K K K K K K K V V ",
"J J J J J J J J J J V V > > # # r r =.=.2.2.u.u.j.j.i.i.6.6.n.n.4 4 2.2.2.2.2.2.2.2.2.2.2.2.2.2.m.m.@ @ 2.2.2.2.2.2.2.2.2.2.2.2.q q # # M M V V V V M M z z g g ",
"J J J J J J J J J J V V > > # # r r =.=.2.2.u.u.j.j.i.i.6.6.n.n.4 4 2.2.2.2.2.2.2.2.2.2.2.2.2.2.m.m.@ @ 2.2.2.2.2.2.2.2.2.2.2.2.q q # # M M V V V V M M z z g g ",
"8 8 8 8 8 8 8 8 8 8 3 3 > > > > s g >.>.2.2.a.a.9.9.4.4.2.2.b.b.o o 2.2.2.2.2.2.2.2.2.2.2.2.2.2.v.v.    2.2.2.2.2.2.3.3.y.y.2.2.Y Y # # 3 3 9 9 8 8 8 8 8 8 8 8 ",
"8 8 8 8 8 8 8 8 8 8 3 3 > > > > s s >.>.2.2.a.a.9.9.4.4.2.2.b.b.o o 2.2.2.2.2.2.2.2.2.2.2.2.2.2.v.v.    2.2.2.2.2.2.3.3.y.y.2.2.Y Y # # 3 3 9 9 8 8 8 8 8 8 8 8 ",
"g g g g g g g g g g 3 3 > > 3 3 a a ;.;.2.2.r.r.6.6.2.2.2.2.        <.<.<.<.<.<.<.<.<.<.<.<.<.<.X X     1.1.2.2.2.2.s.s.k.k.2.2.I I > > > > V V J J J J a a 9 9 ",
"g g g g g g g g g g 3 3 > > 3 3 a a ;.;.2.2.r.r.6.6.2.2.2.2.        <.<.<.<.<.<.<.<.<.<.<.<.<.<.X X     1.1.2.2.2.2.s.s.k.k.2.2.I I > > > > V V J J J J a a 9 9 ",
"g g g g g g a a a a > > > > y y r r ^ ^ 2.2.3.3.2.2.2.2.1.1.5 5 5 5 &.&.&.&.&.&.&.&.&.&.&.&.&.&.6 6 5 5 :.:.<.<.2.2.x.x.x.x.2.2.! ! r r # # J J K K K K z z 8 8 ",
"g g g g g g a a a a > > > > y y r r ^ ^ 2.2.3.3.2.2.2.2.1.1.5 5 5 5 &.&.&.&.&.&.&.&.&.&.&.&.&.&.6 6 5 5 :.:.<.<.2.2.x.x.x.x.2.2.! ! r r # # J J K K K K z z 8 8 ",
"a a a a g g g g a a > > , , s s y y z z 2.2.2.2.2.2.2.2.:.:.&.&.%.%.&.&.&.&.&.&.&.&.&.&.&.&.&.&.&.&.&.&.&.&.*.*.5.5.x.x.z.z.2.2.z z M M , , , , M M z z g g 8 8 ",
"a a a a g g g g a a > > , , s s y y z z 2.2.2.2.2.2.2.2.:.:.&.&.%.%.&.&.&.&.&.&.&.&.&.&.&.&.&.&.&.&.&.&.&.&.*.*.5.5.x.x.z.z.2.2.k k M M , , , , M M z z g g 8 8 ",
"M M N N K K K K s s > > 3 3 d d g s N N -.-.2.2.2.2.<.<.*.*.&.&.&.&.&.&.&.&.&.&.&.&.&.&.&.&.&.&.&.&.&.&.&.&.&.&.0.0.g.g.e.e.W W a a J J k k # # a a 9 9 8 8 8 8 ",
"M M V V K K J J s s > > 3 3 d d s s N N -.-.2.2.2.2.<.<.*.*.&.&.&.&.&.&.&.&.&.&.&.&.&.&.&.&.&.&.&.&.&.&.&.&.&.&.0.0.g.g.e.e.W W a a J J k k # # a a 9 9 8 8 8 8 ",
"M M V V K K J J > > > > y y z z z z H H M M 2.2.2.2.<.<.&.&.&.&.&.&.&.&.&.&.&.&.&.&.&.&.&.&.&.&.&.&.&.&.&.&.&.&.w.w.q.q.2.2.z z a a J J N N > > g g z z g g 8 8 ",
"M M V V K K J J > > > > y y z z z z H H M M 2.2.2.2.<.<.&.&.&.&.&.&.&.&.&.&.&.&.&.&.&.&.&.&.&.&.&.&.&.&.&.&.&.&.w.w.q.q.2.2.z z a a J J M N > > g g z z g g 8 8 ",
"a a a a a a g g > > > > d d z z M M H H N N ) ) 2.2.2.2.&.&.&.&.&.&.&.&.&.&.&.&.&.&.&.&.&.&.&.&.&.&.&.&.&.&.&.&.7.7.2.2.Z Z z z 7 7 J J N N > > M M K K J J 8 8 ",
"a a a a a a g g > > > > d d z z M M H H N N ) ) 2.2.2.2.&.&.&.&.&.&.&.&.&.&.&.&.&.&.&.&.&.&.&.&.&.&.&.&.&.&.&.&.7.7.2.2.Z Z z z 7 7 J J N N > > M M K K J J 8 8 ",
"8 8 8 8 8 8 3 3 - - > > H H k k z z S S N N N N 1.1.2.2.<.<.&.&.&.&.&.&.&.&.&.&.&.&.&.&.&.&.&.&.&.&.&.&.&.&.2.2.3.3.` ` #.#. . .F F D D M M > > r r K K J J 8 8 ",
"8 8 8 8 8 8 3 3 - - > > J H k k z z S S N N N N 1.1.2.2.<.<.&.&.&.&.&.&.&.&.&.&.&.&.&.&.&.&.&.&.&.&.&.&.&.&.2.2.3.3.` ` #.#. . .F F D D M M > > r r K K J J 8 8 ",
"a a g g V V g g > > > > J J d d z z N N M M M M x x 2.2.2.2.2.2.*.*.&.&.&.&.&.&.&.&.&.&.&.&.&.&.&.&.:.:.2.2.2.2.I I ....$.$.O.O.o.o.A A N N > , > > j j g g 8 8 ",
"a a g g V V g g > > > > J J d d z z N N M M M M x x 2.2.2.2.2.2.*.*.&.&.&.&.&.&.&.&.&.&.&.&.&.&.&.&.:.:.2.2.2.2.I I ....$.$.O.O.o.o.A A N N > > > > j j g g 8 8 ",
"a a 9 9 9 9 % % 3 3 3 3 H H z z N N N N M M N N k k w w 2.2.2.2.2.2.<.<.:.:.*.*.*.*.,.,.<.<.<.<.2.2.2.2.2.2./ / i i ] ] X.X.@.@.| | p p D D , , > > g g g g 8 8 ",
"a a 9 9 9 9 % % 3 3 3 3 H H z z N N N N M M N N k k w w 2.2.2.2.2.2.<.<.:.:.*.*.*.*.,.,.<.<.<.<.2.2.2.2.2.2./ / i i ] ] X.X.@.@.| | p p D D , , > > g g g g 8 8 ",
"9 9 9 9 g g G G b b 3 3 J J M M M M N N M M N N d d r r B B 1.1.2.2.2.2.2.2.2.2.2.2.2.2.2.2.2.2.2.2.1.1.x x l l u u n n { { +.+.v v , , J J 3 3 > > K K z z a a ",
"9 9 9 9 g g G G b b 3 3 J J M M M M N N M M N N d d r r B B 1.1.2.2.2.2.2.2.2.2.2.2.2.2.2.2.2.2.2.2.1.1.x x l l u u n n { { +.+.v v , , J J 3 3 > > K K z z a 9 ",
"M M N N J J X.X.[ [ * * N N N N z z M M N N H H d d r r z z J J ! ! R R 2.2.2.2.2.2.2.2.2.2._ _ V V J J d d m m > > < < c c ' ' t t 3 3 J J 3 3 > > J J j j a a ",
"M M N N J J X.X.[ [ * * N N N N z z M M N N S S d d r r z z J J ! ! R R 2.2.2.2.2.2.2.2.2.2._ _ V V J J d d m m > > < < c c ' ' t t 3 3 J J 3 3 > > J J j j a a ",
"V V M M N N } } n n 1 1 V V N S k k z z N N J J d d 3 3 k k N N s s s s H H L L ~ ~ j j k k H H J J J J s s m m > > - - 1 1 & & - - z z J J r r > > J J j j a a ",
"V V M M N N } } n n 1 1 V V S S k k z z N N J J d d 3 3 k k N N s s s s H H L L ~ ~ j j k k H H J J J J s s m m > > - - 1 1 & & - - z z J J r r > > J J j j a a ",
"M M z z g g = = e e r r H H S S y y k k N N J J d d 3 3 d d N N y y y y V V J J J J d d k k H H J J J J y y m m s s a a + +     : : N N J J y y > > M M z z 8 8 ",
"M M z z g g = = e e r 3 H H S S y y k k N N J J d d 3 3 d d N N y y y y V V J J J J d d k k H H J J J J y y m m s s a a + +     : : N N J J y y > > M M z z 8 8 ",
"9 9 8 8 8 8 u u k k N N J J N N 3 3 d d M M J J k k > > s s M M r r y y N N J J J J d d s s N N J J J J y y u u d d z z . .     1 1 N N J J a a > > 8 8 8 8 8 9 ",
"9 9 8 8 8 8 u u k k N N J J N N 3 3 d d M M J J k k > > s s M M r r y y N N J J J J d d s s N N J J J J y y u u d d z z . .     1 1 V N J J a a > > 8 8 8 8 8 8 ",
"j j j j s s r r a a N N N N k k , , s s k k J J z z > > a a z z r r y y N N J J J J d d s s M M J J J J r r > > y y d d O O     : : M M J J a a > > g g g g g g ",
"j j j j g s r r a a N N N N k k , , s s k k J J z z > > a a z z r r y y N N J J J J d d s s M M J J J J r r > > y y d d O O     : : M M J J s s > > g g g g g g ",
"J J J J M M 3 3 r r J J N N s s , , y y d d J J z z > > y y k k r r s s N N J J J J d d a a M M J J J J 3 3 > > r r a a g g 2 2 1 1 z z J J y y > > V V V V V V ",
"J J J J M M 3 3 r r J J N N s s , , y y d d J J z z > > y y k k r r s s N N J J J J d d a a M M J J J J 3 3 > > r r a a g g 2 2 1 1 z z J J y y > > V V V V V V ",
"J J H H M M > > r r J J N N r r , , r r s s J J M M - - r r s s y y s s N N J J J J d d a a z z J J J J 3 3 > > r r s s M M a a 3 3 d d J J y y > > J J J J K K ",
"J J H H M M > > r r J J N N r r > > r r s s J J M M - - r r s s y y s s N N J J J J d d a a z z J J J J 3 3 > > r r s s M M a a 3 3 d d J J y y > > J J J J K K ",
"8 8 8 8 8 8 > > 3 3 J J N N r r > > 3 3 s s J J M M # # , , s s s s d d N N J J J J k k y y z z V V J J r r > > r r s s z z a a 3 3 s s J J 3 3 > > K K K K V V ",
"8 8 8 8 8 8 > > 3 3 J J N N r r > > 3 3 s s J J M M # # , , s s a s d d N N J J J J k k y y z z V V J J r r > > r r s s z z a a 3 3 s s J J 3 3 > > K K K K V V ",
"g g g g d d > > > > J J N N y y > > 3 3 s s J J M M # # > > d d s s k k N N J J J J k k y y z z H H J J r r > > r r d d M M a a r r d d V V > > # # N N z z g g ",
"g g g g d d > > > > J J N N y y > > 3 3 s s J J M M # # > > d d s s k k N N J J J J k k y y z z H H J J r r > > r r d d M M a a r r k k V V > > # # N N z z g g ",
"K K K K J J # # # # r r J J y y > > 3 3 k k J J M M # # > > k k M M M M J J J J J J z z s s M M J J J J a a > > r r k k M M s s y y k k , , # # # # H H J J J J ",
"K K K K J J # # # # r r J J y y > > 3 3 k k J J M M # # > > k k M M M M J J J J J J z z s s M M J J J J a a > > r r z k M M s s y y k k , , # # # # H H J J J J ",
"K K K K K K > > # # # # > - > > , , 3 3 3 3 r r 3 3 # # - - 1 1 2 2 1 1 2 2 2 2 2 2 1 1 1 1 : : 2 2 2 2 1 1 > > > > , 3 3 3 > > $ $ # # # # # # # # K K K K J J ",
"K K K K K K > > # # # # > - > > , , 3 3 3 3 r r 3 r # # - - > > 2 2 1 1 2 2 2 2 2 2 1 1 1 1 : : 2 2 2 2 1 1 > > > > , 3 3 3 > > $ # # # # # # # # # K K K K J J ",
"a a 9 9 g g y y # # # # # # # # > > > > > > > > > > $ $ $ $ : : : : ; ; ; ; ; ; ; ; ; ; ; ; ; ; ; ; ; ; : : 1 1 > > 3 3 3 3 > > > > # # # # > > r r z z g g g g ",
"a a 9 9 g g y y # # # # # # # # > > > > > > > > > > $ $ $ $ : : : : ; ; ; ; ; ; ; ; ; ; ; ; ; ; ; ; ; ; : : 1 1 > > , 3 3 3 > > > > # # # # > > r r z z g g g g ",
"K K V V V V H H H H J J J J H H H H J J J J J J J J V V B B x x j j h h h h h h h h h h h h 0 0 7 7 7 7 j j j j g g z z z z z z z z z z z z j j j j g g g g z z ",
"K K V V V V H H H H J J J J H H H H J J J J J J J J V V B B x x j j h h h h h h h h h h h h 0 0 7 7 7 7 j j j j g g j z z z z z z z z z z z j j j j g g g g z z ",
"g g a a a a a a g g g g g g g g g g g g g g j j j j z z M M M M j j f f f f 0 0 0 0 0 0 0 0 8 8 7 7 7 7 g g V V K K K K K K K K K K K K K K K K K K J J J J K K ",
"g g a a a a a a g g g g g g g g g g g g g g j j j j z z M M M M j j f f f f 0 0 0 0 0 0 0 0 8 8 7 7 7 7 g g V V K K K K K K K K K K K K K K K K K K J J J J K K ",
"a a 8 8 8 8 9 9 j j j j z z z z j j j j j j g g g g g g g g g g M M V V J J K K K K J J J J M M 8 8 8 8 M M M M M M M M M M M M M M M M M M M M M M z z z z V V ",
"a a 8 8 8 8 9 9 j j j j z z z z j j j j g g g g g g g g g g g g M M V V J J K K K K J J J J M M 8 8 8 8 M M M M M M M M M M M M M M M M M M M M M M z z z z V V ",
"M M J J J J K K K K K K K K K K K K K K K K K K K K K K K K K K K K K K K K K K K K K K K K H H 8 8 8 8 V V V V V V V V V V V V N N M M M M N M M M M M N N V V ",
"M M J J J J K K K K K K K K K K K K K K K K K K K K K K K K K K K K K K K K K K K K K K K K H H 8 8 8 8 V V V V V V V V V V V V N N M M M M N M M M M M N N V V "
};
