/* XPM */
static const char *wall[] = {
/* columns rows colors chars-per-pixel */
"40 40 52 1 ",
"  c #2F211D",
". c #33221E",
"X c #38241F",
"o c #2F2220",
"O c #322421",
"+ c #3A2620",
"@ c #362925",
"# c #3E2822",
"$ c #3D2D29",
"% c #3F302C",
"& c #432B25",
"* c #492F26",
"= c #442E29",
"- c #4C3027",
"; c #43312C",
": c #4B342C",
"> c #433632",
", c #4C3731",
"< c #453935",
"1 c #4B3831",
"2 c #4B3932",
"3 c #4D3933",
"4 c #4F3A34",
"5 c #4F3D37",
"6 c #473B38",
"7 c #473D39",
"8 c #4A3F3B",
"9 c #4F3E39",
"0 c #4A3F3C",
"q c #503C36",
"w c #503D37",
"e c #503E39",
"r c #4B403C",
"t c #4D413D",
"y c #4D423F",
"u c #50403A",
"i c #51433E",
"p c #53443F",
"a c #56443E",
"s c #494240",
"d c #4E4340",
"f c #4D4441",
"g c #4F4744",
"h c #534541",
"j c #544540",
"k c #504744",
"l c #594742",
"z c #534A47",
"x c #544A47",
"c c #584B46",
"v c #544B48",
"b c #564C48",
/* pixels */
"zzzzzzzzzzzzzzzzzzzzzzzzzzzzzzzzzzzzzzzx",
"::&&&&&&:xzzzi,:::::::3uzzzd;$$$$$;yzz4&",
"#########*xze-----------:zf%$$$$$$$$ku##",
"##########wz:-*--***-----98@$$$$$$$@s&##",
"+......X.+:z:X......+&#++>y@OOOOOOO@0###",
".        X,zp#......X++#-hh>OOOOOOO$g+..",
":&.....+&4zzzzw:;;;145hpzzzd>$$@@@$fzy@@",
"zkzzzfszzzzzzzzbjjjjjjiiiixzzzzzzzxhzzxz",
"::izy$$$%>rzzx3&##########&lzzze33:---*:",
"--:z%$$$$$$6x:#############&xzp:--------",
"--:z$$$$$$$$i&+#############wze&&*------",
"&&&z@ OOOOO$h&. ....+++X...+xzu#...X++##",
".X;z>O    O6z3#.      ....X:zzz3#X......",
":,zzz0<>><yzzze:;*&#===-,eexzzzziw:-$@@#",
"zzzzipjjjjhihhzzzzzzsrrrrrdfzzzxbvxjjaez",
"zz4:------::::3hzzd<$$$$$$$>fc:-&&&&&&+z",
"zu-------------4zz;$$$$$$$$$8:########.r",
"z:&*----*---*&&&yf$$$$$$$$$$9:#####+XX.6",
"z1+.X+#&++++++&:kh$  OOOOOO@d3X....XX+.0",
"zz:+..........+4zz8@O     O<zx.........f",
"zzzi51>;;;;;1euzzzzr88<>>8rzzz:+.....+#z",
"zzzzzzzzzzzzzzzzzzzzzzzzzzzzzzze3wweupxz",
"fyyfzzzz4:::::::::::3zzzzi35555544555yzz",
"$$$$$8x*#############:zz3-------------:z",
"$$$$$%:###############hh---------------i",
"@$$@$$&#++++++++++++++,9&#&&****-------z",
"OOOOO$,...  ....  . ..$7&....X....XXX+&h",
"@O OO>x&....      ..+-zzh:#+X....XX+#:uz",
"y9<7fzzzzu-##@@$-5phhxzzzhhhhhyrryfzzzzx",
"h,44izzzzxvzkkzzzzzzzzzzzzzzpiiihhpiue4*",
"#####-xzz8>>>;;%%;;;;;;yzzzw##########&&",
"######:zy$$$$$$$$$$$$$$$<zx&############",
"+#####&c>$$$$$$$$$$$$$$$$h4#############",
"...X..+w<OO@@@$$$@@@@@@@$fi+...X+++++XXX",
"...  .&xfO             O>zz:..          ",
"#O..+,xzz8$@OOOOOoOOO$<hzzzz3&#+O.OOO@@+",
"zzzxzzzzzzzz4,,,:,444ewehzzzzzzxzzzzzzzz",
"zze::-:3zzi##############wzz::::45555wzz",
"ze------:z,+..XX+++#####+9z4----------5z",
"z9&&&***,zy........  ....%0:#+XXXXXXX+#r"
};
