/* XPM */
static const char *wall[] = {
/* columns rows colors chars-per-pixel */
"80 80 142 2 ",
"   c #251511",
".  c #281713",
"X  c #261916",
"o  c #2B1915",
"O  c #271A18",
"+  c #2B1D1A",
"@  c #311D17",
"#  c #321E19",
"$  c #2E211E",
"%  c #34211C",
"&  c #3B241D",
"*  c #322421",
"=  c #3C2621",
"-  c #362825",
";  c #3E2923",
":  c #372C2A",
">  c #3C2D29",
",  c #3E312D",
"<  c #3E3431",
"1  c #40271F",
"2  c #422B24",
"3  c #492E25",
"4  c #442E29",
"5  c #482F28",
"6  c #4C3027",
"7  c #43322D",
"8  c #4C332B",
"9  c #52362C",
"0  c #55382F",
"q  c #443632",
"w  c #4A3631",
"e  c #433A37",
"r  c #443834",
"t  c #473934",
"y  c #453A36",
"u  c #443A37",
"i  c #453A37",
"p  c #473A36",
"a  c #463B37",
"s  c #463936",
"d  c #493833",
"f  c #4B3832",
"g  c #4A3833",
"h  c #4C3833",
"j  c #4F3832",
"k  c #4B3834",
"l  c #4B3935",
"z  c #483A37",
"x  c #483B37",
"c  c #4A3B36",
"v  c #4B3B36",
"b  c #4D3934",
"n  c #4C3A34",
"m  c #4D3A35",
"M  c #4E3A35",
"N  c #4D3B36",
"B  c #4F3B36",
"V  c #4B3C37",
"C  c #4F3C37",
"Z  c #4A3A35",
"A  c #443B38",
"S  c #453B38",
"D  c #463B38",
"F  c #473B38",
"G  c #453C39",
"H  c #463C38",
"J  c #473C38",
"K  c #463C39",
"L  c #473C39",
"P  c #473D39",
"I  c #473D3A",
"U  c #473E3B",
"Y  c #473F3C",
"T  c #463C39",
"R  c #483C38",
"E  c #483C39",
"W  c #483D39",
"Q  c #493D39",
"!  c #4A3C38",
"~  c #4A3D39",
"^  c #483D3A",
"/  c #493D3A",
"(  c #483E3A",
")  c #483E3B",
"_  c #493F3B",
"`  c #4B3E3A",
"'  c #4A3F3B",
"]  c #4C3D38",
"[  c #4D3D38",
"{  c #4F3F3A",
"}  c #483F3C",
"|  c #493F3C",
" . c #4C3F3C",
".. c #4D3F3C",
"X. c #483E3B",
"o. c #503730",
"O. c #503730",
"+. c #513831",
"@. c #523831",
"#. c #533932",
"$. c #503A33",
"%. c #513A33",
"&. c #563930",
"*. c #543A33",
"=. c #513A34",
"-. c #533A34",
";. c #543B35",
":. c #543D36",
">. c #563D36",
",. c #573D36",
"<. c #533A32",
"1. c #583B31",
"2. c #593C33",
"3. c #5A3C33",
"4. c #5A3D33",
"5. c #5B3E35",
"6. c #583E37",
"7. c #5A3E36",
"8. c #5B3E34",
"9. c #513D38",
"0. c #503E38",
"q. c #513E39",
"w. c #503F39",
"e. c #523E39",
"r. c #49403C",
"t. c #48403D",
"y. c #49403D",
"u. c #4B403C",
"i. c #4A403D",
"p. c #4B413E",
"a. c #49403D",
"s. c #5D4036",
"d. c #5F4137",
"f. c #53403A",
"g. c #55413B",
"h. c #5E4138",
"j. c #5F4239",
"k. c #5F4339",
"l. c #5F4138",
"z. c #61453B",
"x. c #62453B",
"c. c #614339",
/* pixels */
"y.y.y.y.} } } } } } } } } } } } _ _ _ _ _ _ _ _ _ _ _ _ _ _ _ _ _ _ _ _ _ _ _ _ _ _ _ _ _ _ _ _ _ _ _ _ _ _ _ _ _ _ _ _ _ _ } } } } } } _ _ _ _ _ _ _ _ _ _ P P ",
"y.y.y.y.} } } } } } } } } } _ _ _ _ _ _ _ _ _ _ _ _ _ _ _ _ _ _ _ _ _ _ _ _ _ _ _ _ _ _ _ _ _ _ _ _ _ _ _ _ _ _ P _ _ _ _ _ } } } } } } _ _ _ _ _ _ _ _ _ _ P P ",
"7 7 8 8 8 8 8 8 8 8 g g _ _ } } y.y.y.y.w.w.7.7.7.7.s.5.k.k.k.k.z.z.z.z.z.z.k.k.7.7.y.y.y.} } } } } y y M M M M C C w.w.w.w.w.w.w.w.] ] ....y.y.} } y.y.M M 8 8 ",
"7 7 8 8 8 8 8 8 8 8 g g _ _ } } y.y.y.y.w.w.7.7.7.7.5.5.k.k.k.k.z.z.z.z.z.z.k.k.7.7.y.y.y.} } } } } y y M M M M C C w.w.w.w.w.w.w.w.] ] ....y.y.} } y.y.M M 8 8 ",
"2 2 5 5 8 8 8 8 8 8 8 8 j j ] ] y.y.y.y.4.4.&.&.9 9 9 9 9 9 9 9 9 9 0 0 0 0 9 9 9 9 8 8 _ _ y.y.7 7 7 7 7 7 q q Z Z M M C C w.w.w.w.w.w.M M _ _ } } 7 7 2 2 2 2 ",
"2 2 5 5 8 8 8 8 8 8 8 8 j j ] ] y.y.y.y.4.4.&.1.9 9 9 9 9 9 9 9 9 9 0 0 0 0 9 9 9 9 8 8 _ _ y.y.7 7 7 7 7 7 q q Z Z M M C C w.w.w.w.w.w.M M _ _ } } 7 7 2 2 2 2 ",
"; ; ; 2 ; ; 2 ; 2 2 2 2 2 2 5 5 y.y.8 8 9 9 6 6 6 6 6 6 6 6 6 6 6 6 6 6 6 6 6 6 6 6 6 6 Z Z _ _ > > > > > > > > 7 7 7 7 q q g g g g g g w w q q } y.; ; = = = = ",
"; ; ; ; ; ; 2 2 2 2 2 2 2 2 5 5 y.y.8 8 6 9 6 6 6 6 6 6 6 6 6 6 6 6 6 6 6 6 6 6 6 6 6 6 Z Z _ _ > > > > > > > > 7 7 7 7 q q g g g g g g w w q q } y.; ; = = = = ",
"; ; & & & & & & & & & & % % % % y.y.2 2 1 1 & 1 2 2 & & & & & & & & & & & & & & & & & & q q y.y.* * * * * * * * * * * * * * * * $ $ * * $ $ $ $ y.y.# # # # # # ",
"; ; & & & & & & & & & & % % % % y.y.2 2 1 1 & & 2 2 & & & & & & & & & & & & & & & & & & q q y.y.* * * * * * * * * * * * * * * * * * * * $ $ $ $ y.y.# # # # # # ",
"& & % % % % % % % % # # # # 7 7 y.y.P P % % % % % % % % % % % % % % % % % % % % # % % % _ P } _ - - + + + + + + + + + + + + + + + + + + O + > > y.y.+ + o o o o ",
"& & % % % % % % % % # # # # 7 7 y.y.P P % % % % % % % % % % % % % % % % % % % % # % % % _ _ } _ - - + + + + + + + + + + + + + + + + + + O O > > y.y.+ + o o o o ",
"= = & & % % % % % % = = 7 7 } } y.y.} } q q % % % % % % % % % % # # # # # # # # # # q q _ _ _ _ P P * * + + + + + + + + O O O O + + * * > > P P y.y.P P - - o o ",
"= = & & % % % % % % = = 7 7 } } y.y.} } q q % % % % % % % % % % # # # # # # # # # # q 7 _ _ _ _ P P * * + + + + + + + + O O O O + + * * > > P P y.y.P P - - o o ",
"P P D D D D D D D D D D _ _ } _ } } y.y.y.y._ _ x x x x P P y y _ x x x x P P P _ _ _ _ _ _ Z Z y y P P P P e e y y e e e e e e D D P P P P y.y.y.y.y.y.t.t.P P ",
"P P D D D D D D D D D D _ _ _ _ } } y.y.y.y._ _ x x x x P P y y _ _ x x P P P P _ _ _ _ _ _ Z Z y y P P D D e D y y e e e e e e D D P P P P y.y.y.y.y.y.t.y.P P ",
"y.y.} } } } y.y.y.y._ _ _ _ _ _ _ _ _ _ } y.y.y.y.y.y.y.y.y.y.y._ _ _ _ y y y y q q q q q q q q 7 7 q q D D _ _ y.y.y.y.y.y.y.y.y.y.y.y.y.y.q q w w w w j j M M ",
"y.y.} } } } y.y.y.y._ _ _ _ _ _ _ _ _ _ } } y.y.y.y.y.y.y.y.y.y._ _ _ _ y y y y q q q q q q q q 7 7 q q D D _ _ y.y.y.y.y.y.y.y.y.y.y.y.y.y.q q w w w w j j M M ",
"8 8 8 8 g g y.y.Y Y , , 7 7 7 7 q q q q t t Z Z y.y.y.y.....M M j w j j j j #.#.=.=.=.=.,.,.,.,.,.,.,.,.,.,.=.=.j #.f.f.y.y.y.y.y.y.x x 9 9 9 9 0 0 1.1.4.4.4.4.",
"8 8 8 8 g g y.y.Y Y 7 , 7 7 7 7 q q q q t q Z Z y.y.y.y.....M M w w j j j j #.#.=.=.=.=.,.,.,.,.,.,.,.,.,.,.=.=.j #.f.f.y.y.y.y.y.y.x x 9 9 9 9 0 0 1.1.4.4.4.4.",
"6 6 6 6 6 6 _ _ , , > > > > > > > > > > > > > > q q y.y.6 6 2 2 2 2 5 5 8 8 8 8 o.o.#.#.#.#.&.&.;.&.#.#.#.#.8 8 8 8 5 5 ] ] y.y._ _ 6 6 6 6 6 6 6 6 6 6 6 6 9 9 ",
"6 6 6 6 6 6 _ _ 7 7 > > > > > > > > > > > > > > q q y.y.6 6 2 2 2 2 5 5 8 8 8 8 o.o.#.#.#.#.&.&.&.&.#.#.#.#.8 8 8 8 5 5 ] ] y.y._ _ 6 6 6 6 6 6 6 6 6 6 6 6 9 9 ",
"3 3 3 3 3 3 _ _ > > > > > > > > > > > > > > > > > > Z Z 2 2 = = ; ; ; ; ; ; ; ; 2 2 2 2 2 2 2 2 2 2 2 2 2 2 ; ; ; ; = = 8 8 y.y._ _ 6 6 6 6 6 6 6 6 6 6 6 6 6 6 ",
"3 3 3 3 3 3 _ _ > > > > > > > > > > > > > > > > > > Z Z 2 2 = = ; ; ; ; ; ; ; ; 2 2 2 2 2 2 2 2 2 2 2 2 2 2 ; ; ; ; = = 8 8 y.y._ _ 6 6 6 6 6 6 6 6 6 6 6 6 6 6 ",
"2 2 2 2 2 2 _ _ * * % % * * % $ % % % % % % % % * * q q % % # # # # # # # # % % % % % % % % % % % % % % % % % % # # # # q q y.y.y y & & & & & & & & & & & & 2 2 ",
"2 2 2 2 2 2 _ _ * * % % * * % % % % % % % % % % * * q q % % # # # # # # # # % % % % % % % % % % % % % % % % % % # # # # q q y.y.y y & & & & & & & & & & & & 2 2 ",
"2 2 2 2 ; ; _ _ % % $ $ $ $ $ $ + + + + + + + + $ $ Y Y = = o o o o o o o o o o o o o o o o o o . . . . . . . . . . o o D D y.y._ _ > > o o o o @ @ + + @ @ # # ",
"2 2 2 2 ; ; _ _ % % $ $ $ $ $ $ + + + + + + + + $ $ Y Y = = o o o o o o o o o o o o o o o o o o . . . . . . . . . . o o D D y.y._ _ > > o o o o @ @ + + @ @ # # ",
"3 3 2 2 t t y.y.r r * * $ $ $ $ + + $ $ * * : : r r y.y.y y - - + + + + o o o o o o o o + + + + + + + + % % * * * * q q y y y y y.y.P P , , % % @ # # # @ @ % % ",
"3 3 2 2 t t y.y.r r * * $ $ $ $ + + $ $ * * : : r r y.y.y y - - + + + + o o o o o o o o + + + + + + + + % % * * * * q q y y y y y.y.P P , , % % @ @ # # @ @ % % ",
"_ _ Z Z y.y.y.y.y.y.P P e e e e e e A A P P y.y.y.y.y.y.y.y._ _ r r q q q q 7 7 q q q q q q q q < < < < q q y y D D _ _ q q q q _ _ y.y.y.y.y.y.y.y.y.y._ _ _ _ ",
"_ _ Z Z y.y.y.y.y.y.P P e e e e e e A A P P y.y.y.y.y.y.y.y._ _ r r q q q q 7 7 q q q q q q 7 7 < < < < q q y y D D _ _ q q q q _ _ y.y.y.y.y.y.y.y.y.y._ _ _ _ ",
"q q y.y.y.y.y.y.y.y.w w 8 8 8 8 6 6 6 6 6 6 6 6 7 7 7 7 y y P P } _ y.y.y.y.y.y.y.y.< < : : : : > > : : > > > : > > : : 7 7 q q y y y.y.7 7 > > 7 7 7 7 q q q q ",
"q q y.y.y.y.y.y.y.y.w w 8 8 8 8 6 6 6 6 6 6 6 6 7 7 7 7 y y P P _ _ y.y.y.y.y.y.y.y.< < : : : : > > : : > > : : > > : : 7 7 q q y y y.y.7 7 > > 7 7 7 7 q q q q ",
"; ; P P y.y.y.y.j j 8 8 9 9 9 9 9 9 9 9 9 9 9 9 6 6 6 6 3 3 5 5 g g _ _ y.y.D D , , - - - - - - > > > > > > > > > > > > , , y y y y y y ; ; 2 2 2 2 8 8 8 8 o.o.",
"; ; P P y.y.y.y.j j 9 9 9 9 9 9 9 9 9 9 9 9 9 9 6 6 6 6 3 3 5 5 g g _ _ y.y.D D , , - - - - - - > > > > > > > > > > > > , , y y y y y y ; ; 2 2 2 2 8 8 8 8 o.o.",
"; ; 4 4 y.y.y.y.6 6 6 6 9 9 9 9 9 9 9 9 9 9 9 9 9 9 9 9 9 9 6 6 8 8 _ _ y.y.q q > > > > > > > > > > > > > > > 4 7 7 7 7 7 7 q q y y 2 2 ; ; ; ; ; ; 2 2 2 2 5 5 ",
"; ; 4 4 y.y.y.y.6 6 6 6 9 9 9 9 9 9 9 9 9 9 9 9 9 9 9 9 9 9 6 6 8 8 _ _ y.y.q q > > > > > > > > > > > > > > > > 7 7 7 7 7 7 q q y y 2 2 ; ; ; ; ; ; 2 2 2 2 5 5 ",
"= = = = y.y.y.y.6 6 3 3 6 6 6 6 6 6 8 8 6 6 6 6 6 6 6 6 6 6 6 6 6 6 x x y.y., , > > > > > > > > > > > > > > > > > > > > > > q q _ _ ; ; ; ; ; ; ; ; ; ; ; ; ; ; ",
"= = = = y.y.y.y.6 6 6 3 6 6 6 6 6 6 6 8 6 6 6 6 6 6 6 6 6 6 6 6 6 6 x x y.y., , > > > > > > > > > > > > > > > > > > > > > > q q _ _ ; ; ; ; ; ; ; ; ; ; ; ; ; ; ",
"& & & & y.y.F F 2 2 2 2 2 2 2 2 2 2 2 2 2 2 2 2 2 2 2 2 2 2 2 2 2 1 y y y.y.> > * * % % $ $ $ $ $ $ % % * * * * * * > > > > P P y.y.> > & & & & % % % % # # + + ",
"& & & & y.y.F F 2 2 2 2 2 2 2 2 2 2 2 2 2 2 2 2 2 2 2 2 2 2 2 2 2 1 y y y.y.> > * * % % $ $ $ $ $ $ $ % * * * * * * > > > > P P y.y.> > & & & & % % % % # # + + ",
"= = q q y.y.y y 4 4 & & & & & & & & % & % % % % % % % % % # # # > > y y } } e e $ $ + + + + + + + + + + + + + + + $ * * > : } } y.y.y y % % o o o o o o . . o o ",
"= = q q y.y.y y 4 4 & & & & & & & & % & % % % % % % % % % % # # > > y y } } e e $ $ + + + + + + + + + + + + + + + $ * * > : } } y.y.y y % % o o o o o o o . o o ",
"q q y.y.y.y._ _ Z Z 7 7 7 7 4 4 7 7 7 7 7 7 7 7 7 7 7 7 , , , 7 y y _ _ y.y.y.y.e e > > > > > > : : : : > > > > , , q q y.y.y.y.} } y.y.y y > > > > > > > > > > ",
"q q y.y.y.y._ _ Z Z 7 7 7 7 4 4 7 7 7 7 7 7 7 7 7 7 7 7 7 , , 7 Z Z _ _ y.y.y.y.e e > > > > > > : : > > > : > > , , q q y.y.y.y.} } y.y.y y > > > > > > > > > > ",
"y.y.y.y.y.y._ _ P _ } } } } y.y.y.y.y.y.y.y.y.y.y.y.y.y.} } } } y.y.y.y.y.y.y.y.y.y.y.y.y.y.y.y.y.y.y.y.y.y.y.y.y.y.y.y.y.y.y.y.y.y.y.y.y.y.y.y.y.y.y.y.y.y.y.y.",
"y.y.y.y.y.y._ _ P P } } } } y.y.y.y.y.y.y.y.y.y.y.} y.y.} } } } y.y.y.y.y.y.y.y.y.y.y.y.y.y.y.y.y.y.y.y.y.y.y.y.y.y.y.y.y.y.y.y.y.y.y.y.y.y.y.y.y.y.y.y.y.y.y.y.",
"Z Z Z Z w w 7 7 7 7 t t y.y.y.y.P Y r r q q q q r r q q q q D D y.y.y.y.y.y.e e , , q q q q q q q q q q y y Z Z Z Z Z Z Z Z y y y y P P t.y.y.y.y.y.Z Z q q Z Z ",
"Z Z Z Z w w 7 7 7 7 t t y.y.y.y.P P r r q q q q r r q q q q D D y.y.y.y.y.y.e e , , q q q q q q q q q q y y Z Z Z Z Z Z Z Z y y y y P P y.y.y.y.y.y.Z Z q q Z Z ",
"s.s.s.s.s.s.5.5.&.*.w w _ _ _ _ 7 7 > > > > > > > > > > > > , , y y y.y.P P 4 4 2 2 2 2 8 8 8 8 8 8 8 8 8 8 o.o.o.o.o.o.8 8 8 8 5 5 6 6 y y } y._ _ 6 6 6 6 6 6 ",
"s.s.s.s.s.s.5.5.&.*.w w _ _ _ _ 7 7 > > > > > > > > > > > > , , y y y.y.P P 4 4 2 2 2 2 8 8 8 8 8 8 8 8 8 8 o.o.o.o.o.o.8 8 8 8 5 5 6 6 y y } y._ _ 6 6 6 6 6 6 ",
"k.k.c.c.c.c.c.c.c.c.7.7.} } Z Z 7 7 4 4 > > > > > > > > > > > > > > y.y.4 4 ; ; ; ; ; ; 2 2 2 2 2 2 2 2 2 2 2 2 2 2 2 2 2 2 2 2 ; ; ; ; 2 2 y.y.8 8 6 6 6 6 6 6 ",
"c.k.c.c.c.c.c.c.c.c.7.7.} } Z Z 7 7 4 4 > > > > > > > > > > > > > > y.y.4 4 ; ; ; ; 2 2 2 2 2 2 2 2 2 2 2 2 5 5 2 2 2 2 2 2 2 2 ; ; ; ; 2 2 y.y.8 8 6 6 6 6 6 6 ",
"9 9 0 0 0 0 0 0 0 0 0 0 y.y.q q > > > > > > > > > > > > > > > > * * y.y.2 2 ; ; ; ; ; ; ; ; ; ; ; 2 2 ; ; ; ; 2 2 ; ; ; ; ; ; ; = = = = & & y.y.6 6 6 6 6 6 6 6 ",
"9 9 0 0 0 0 0 0 0 0 0 0 y.y.q q > > > > > > > > > > > > > > > > * * y.y.2 2 ; ; ; ; ; ; ; ; ; ; ; 2 2 2 ; ; ; ; ; ; ; ; ; ; ; ; = = = = & & y.y.6 6 6 6 6 6 6 6 ",
"3 2 3 3 3 3 3 3 3 3 3 3 y.y.- - $ $ $ $ * * * * * * $ $ + + O X X X y.y.* * % % % % % % # # # # # # # # + + + + + + o o o o o o . . . . % % y.y.2 2 6 6 6 6 6 6 ",
"3 2 3 3 3 3 3 3 3 3 3 3 y.y.- - $ $ $ $ * * * * * * $ $ + + O X X X y.y.* * % % % % % % # # # # # # # # + + + + + + o o o o o o . . . . % % y.y.2 2 6 6 6 8 6 6 ",
"& & & & % % & & & & 7 7 y.y.q q + + + + + + + + X X X X X X + + - - _ _ , , # # o o o o . . . . . . . . . . . . . . . . . . . . . . o o y y _ _ q q 8 8 6 6 6 6 ",
"& & & & % % & & & & 7 7 y.y.q q + + + + + + + + X X X X X X + + - - _ _ 7 , # # o o o o . . . . . . . . . . . . . . . . . . . . . . o o y y _ _ q q 8 8 6 6 6 6 ",
"; ; > > ; ; > > > > } } } } y.y.< < - - - - - - * * * * * * < < y.y.} } Z y > > * = % % % % + + + + $ $ % % % % $ $ % % * * * * * * , , q q q q q q q q 8 8 8 8 ",
"; ; > > ; ; > > > > } } } } y.y.< < - - - - - - * * * * * * < < y.y.} } Z y > > * * % % % % + + + + $ $ % % % % $ $ % % * * * * * * , , q q q q q q q q 8 8 8 8 ",
"P P } } _ _ _ _ y y _ _ y.y.y.y.y.y.y.y.y.y.y.y.y.y.y.y.y.y.y.y.y.y.y.y._ _ q q q q q q q q q q _ _ y.y.y.y.y.y._ _ _ _ _ _ y y Z Z Z Z q q 7 7 7 7 q q q q q q ",
"P P } } _ } _ _ y y _ _ y.y.y.y.y.y.y.y.y.y.y.y.y.y.y.y.y.y.y.y.y.y.y.y._ _ q q q q q q q q q q _ _ y.y.y.y.y.y._ _ _ _ _ P y y Z Z Z Z q q 7 7 7 7 q q q q q q ",
"7 7 7 7 _ _ _ _ y y _ _ } } } } } } } } P P P P P P P P P P P P P P P P } } Z Z y y y y y y _ P y.y.y.y.y.y.y.y.y.y.y.y.y.y.y.y.y.y.y.y.Z Z w w w w w w w w w w ",
"7 7 7 7 _ _ _ _ t t _ _ _ _ } } } } } } P P P P _ P P P P P P P P P P P } } Z Z y y y y y y _ _ y.y.y.y.y.y.y.y.y.y.y.y.y.y.y.y.y.y.y.y.Z Z w w w w w w w w w w ",
"= ; = = = = y y y t P P y D y y D D F F F F _ _ y y y y y y q q q q q q y y } } y.y.y.y.j j 9 9 9 9 9 9 #.#.#.#.#.#.#.#.y.y.y.y._ _ 2 2 2 2 2 2 2 2 2 2 2 2 5 5 ",
"; ; = = = = y y y y P P y D y y D D F F F F F _ y y y y y y r q q q q q y y } } y.y.y.y.j j 9 9 9 9 9 9 #.#.#.#.#.#.#.#.y.y.y.y._ _ 2 2 2 2 2 2 2 2 2 2 2 2 5 5 ",
"8 8 8 8 5 5 2 2 _ _ y y w w M M 9.9.w.w.g.g.g.g.g.g.g.g.w.w.C C M M q q 7 7 P P y.y.8 8 0 0 1.1.4.4.5.5.5.5.5.5.5.5.4.4.*.*.y.y.7 7 2 2 2 2 2 2 2 2 5 5 5 5 6 6 ",
"8 8 8 8 5 5 5 2 _ _ y y w w M M 9.9.w.w.g.g.g.g.g.g.g.g.w.w.C C M M q q 7 7 P P y.y.8 8 0 0 1.1.4.4.5.5.5.5.5.5.5.5.4.4.*.*.y.y.7 7 2 2 2 2 2 2 2 2 5 5 5 5 6 6 ",
";.;.#.#.8 8 2 2 y.y., , 7 7 7 7 q q w w M Z Z Z Z Z w w q q 7 7 7 7 > > > > > > } } 6 6 9 9 9 9 0 0 &.&.&.&.&.&.0 0 0 0 9 9 } } 2 2 ; ; ; ; ; ; ; ; ; ; 2 2 2 2 ",
"&.&.#.#.8 8 2 2 y.y., < 7 7 7 7 q q w w M Z Z Z Z Z w w q q 7 7 7 7 > > > > > > } } 6 6 9 9 9 9 0 0 &.&.&.&.&.&.0 0 0 0 9 9 } } 2 2 ; ; ; ; ; ; ; ; ; ; ; 2 2 2 ",
"8 8 8 8 2 2 % % P P > > $ $ $ $ * * > > > > > > > > > > > > > > > > > > > > > > } } 6 6 6 6 6 6 6 6 6 6 6 6 6 6 6 6 3 3 3 3 _ _ & & % % % % % % % % = = ; ; 2 ; ",
"8 8 8 8 2 2 % % P P > > $ $ $ $ * * > > > > > > > > > > > > > > > > > > > > > > } } 6 6 6 6 6 6 6 6 6 6 6 6 6 6 6 6 3 3 3 3 _ _ & & % % % % % % % % = = ; ; ; ; ",
"= = = = % % % % y.y.> > + + + + + + + + + + + + $ $ * * * * - - > > - - % * $ $ y.y.= = # # @ @ o o o o o o o o . . . . . . y.y.    .           . . o o % % = = ",
"= = = = % % % % y.y.> > + + + + + + + + + + + + $ $ * * * * - - > > - - % % $ $ y.y.= = # # @ @ o o o o o o o o . . . . . . y.y.                . . o o % % = = ",
"= = & & % % e e y.y.e e > > $ $ + + + + + + + + + + + + O O X X X X X X X X D D _ _ _ _ + + . . . . . . o o o o + + # # y y y.y.P P * * o o         . . o o % & ",
"= = & & % % e e y.y.e e > > $ $ + + + + + + + + + + O + O O X X X X X X X X y D _ _ _ _ + + . . . . . . o o o o + + # # y y y.y.P P * * o o . .     . . o o % % ",
"7 7 q q _ _ y.y.y.y.y.y.P P e e < < < < < < < < < < < < q q q q < < < < q r _ _ _ _ _ _ _ _ _ _ y y _ _ _ _ _ _ _ _ } } y.y.y.y.y.y.P P y D e e < < > > > > 7 7 ",
"7 7 q q _ _ y.y.y.y.y.y.P P e e < < < < < < < < < < < < q q < q < < < < r r _ _ _ _ _ _ _ _ _ _ y y _ _ _ _ _ _ _ _ } } y.y.y.y.y.y.P P y y e e < < > > > > 7 7 "
};
