/* XPM */
static const char *wall[] = {
/* columns rows colors chars-per-pixel */
"80 80 138 2 ",
"   c #2F211D",
".  c #33221E",
"X  c #38241F",
"o  c #2F2220",
"O  c #322421",
"+  c #3A2620",
"@  c #362925",
"#  c #3E2822",
"$  c #3D2D29",
"%  c #3F302C",
"&  c #432B25",
"*  c #492F26",
"=  c #442E29",
"-  c #4C3027",
";  c #43312C",
":  c #4B342C",
">  c #433632",
",  c #4C3731",
"<  c #453936",
"1  c #453935",
"2  c #453936",
"3  c #4B3831",
"4  c #4B3932",
"5  c #4E3830",
"6  c #4E3831",
"7  c #4D3933",
"8  c #4E3832",
"9  c #4E3932",
"0  c #4E3933",
"q  c #4E3A33",
"w  c #4F3A33",
"e  c #4E3A34",
"r  c #4F3A34",
"t  c #4F3B34",
"y  c #4F3B35",
"u  c #4F3C36",
"i  c #4F3D37",
"p  c #4E3B35",
"a  c #453B39",
"s  c #473B38",
"d  c #473D39",
"f  c #4A3F3B",
"g  c #4B3F3B",
"h  c #4F3E39",
"j  c #4D3F3B",
"k  c #483E3C",
"l  c #4A3F3C",
"z  c #4A3E3A",
"x  c #503C37",
"c  c #503D37",
"v  c #503C36",
"b  c #503E38",
"n  c #503E39",
"m  c #503F39",
"M  c #523E39",
"N  c #523F3A",
"B  c #503E39",
"V  c #4B403C",
"C  c #49403E",
"Z  c #49413E",
"A  c #4A423F",
"S  c #4B423F",
"D  c #4C413D",
"F  c #4D413D",
"G  c #4C413E",
"H  c #4C423E",
"J  c #4D423F",
"K  c #4C413E",
"L  c #50403A",
"P  c #50403B",
"I  c #51403B",
"U  c #50413C",
"Y  c #52413C",
"T  c #51423D",
"R  c #51433E",
"E  c #51433F",
"W  c #52423E",
"Q  c #52433E",
"!  c #52433F",
"~  c #51443F",
"^  c #53443F",
"/  c #56443E",
"(  c #51423D",
")  c #494240",
"_  c #4B4341",
"`  c #4C4340",
"'  c #4D4340",
"]  c #4E4340",
"[  c #4D4441",
"{  c #4E4441",
"}  c #4F4441",
"|  c #4E4542",
" . c #4F4744",
".. c #4F4542",
"X. c #514440",
"o. c #514541",
"O. c #534541",
"+. c #504643",
"@. c #524642",
"#. c #534642",
"$. c #524643",
"%. c #544540",
"&. c #544541",
"*. c #564540",
"=. c #544641",
"-. c #544642",
";. c #544743",
":. c #554743",
">. c #564742",
",. c #504744",
"<. c #534744",
"1. c #524642",
"2. c #594742",
"3. c #504845",
"4. c #514845",
"5. c #524844",
"6. c #534845",
"7. c #524946",
"8. c #534946",
"9. c #524947",
"0. c #534A46",
"q. c #534A47",
"w. c #544945",
"e. c #554945",
"r. c #574844",
"t. c #564944",
"y. c #564945",
"u. c #554946",
"i. c #544A46",
"p. c #544A47",
"a. c #564B47",
"s. c #534A47",
"d. c #584B46",
"f. c #584B46",
"g. c #564B48",
"h. c #564C48",
"j. c #564C49",
"k. c #544B48",
/* pixels */
"q.q.q.q.q.q.q.p.p.p.q.q.q.q.q.q.q.q.q.q.q.q.q.q.q.q.q.q.q.q.q.p.p.p.q.q.q.p.p.p.q.q.q.p.p.p.q.q.q.q.q.q.q.q.q.q.q.q.q.q.q.q.q.q.q.q.q.q.q.q.q.q.q.q.q.q.q.q.p.p.",
"q.q.q.q.q.q.p.p.p.p.q.q.q.q.q.q.q.q.q.q.q.q.q.q.q.q.q.q.q.q.q.q.q.p.q.q.q.q.p.p.q.q.q.q.q.q.q.q.q.q.q.q.q.p.q.q.q.q.q.q.q.q.q.q.q.q.q.q.q.q.q.q.q.q.q.q.q.q.p.p.",
": : : : & & & & & & & & & & & & : : p.p.q.q.q.q.q.q.R R , , : : : : : : : : : : : : : : 7 7 L L q.q.q.q.q.p.] ] ; ; $ $ $ $ $ $ $ $ $ $ ; ; J J q.q.q.q.r r & & ",
": : : : & & & & & & & & & & & & : : p.p.q.q.q.q.q.q.R R , , : : : : : : : : : : : : : : 7 7 L L q.q.q.q.q.q.] ] ; ; $ $ $ $ $ $ $ $ $ $ ; ; J J q.q.q.q.r r & & ",
"# # # # # # # # # # # # # # # # # # * * p.p.q.q.n n - - - - - - - - - - - - - - - - - - - - - - : : q.q.[ [ % ; $ $ $ $ $ $ $ $ $ $ $ $ $ $ $ $ ,.,.L L # # # # ",
"# # # # # # # # # # # # # # & & # # * * p.p.q.q.n n - - - - - - - - - - - - : - - - - - - - - - : : q.q.[ [ % % $ $ $ $ $ $ $ $ $ $ $ $ $ $ $ $ ,.,.L L # # # # ",
"# # # # # # # # # # # # # # & & # # # # c c q.q.: : - - * * - - - - * * * * * * - - - - - - - - - - h h f f @ @ $ $ $ $ $ $ $ $ $ $ $ $ $ $ @ @ ) ) & & # # # # ",
"# # # # # # # # # # # # # # # # # # # # c c q.q.: : - - * * - - - - * * * * * * - - - - - - - - - - h h f f @ @ $ $ $ $ $ $ $ $ $ $ $ $ $ $ @ $ ) ) & & # # # # ",
"+ + . . . . . . . . . . . . X X . . # # : : q.q.: : X X . . . . . . . . . . . . + + & & # # + + + + > > J J @ @ O O O O O O O O O O O O + + @ @ l l # # & & & & ",
"+ + . . . . . . . . . . . . X X . . # # : : q.q.: : X X . . . . . . . . . . . . + + & & # # + + + + > > J J @ @ O O O O O O O O O O O O + + @ @ l f # # & & & & ",
". .                       .         X X , , q.q.^ ^ # # . . . . . . . . . . . X X X + + # # # # ; ; O.O.O.O.> > O O O O O O O O O O O O O O $ $  . .# + . . . . ",
". .                       . . .     X X , , q.q.^ ^ # # . . . . . . . . . . . X X X + + # # # # ; ; O.O.O.O.> > O O O O O O O O O O O O O O $ $  . .# # . . . . ",
": : & & . . . . . . . . . . + + & & r r q.q.q.q.q.q.q.q.c c : : ; ; ; ; ; ; 3 3 r r i i O.O.^ ^ q.q.q.q.q.q.] ] > > $ $ $ $ @ @ @ @ @ @ $ $ [ [ q.q.J J @ @ @ @ ",
": : & & . . . . . . . . . . + + & & r r q.q.q.q.q.q.q.q.c c : : ; ; ; ; ; ; 7 7 r r i i O.O.^ ^ q.q.q.q.q.q.] ] > > $ $ $ $ @ @ @ @ @ @ $ $ [ [ q.q.J J @ @ @ @ ",
"q.q. . .q.q.q.q.q.q.[ [ ) ) q.q.q.q.q.q.q.q.q.q.q.q.q.q.q.q.h.h.%.%.%.%.%.%.%.%.%.%.%.%.R R R R R R R R p.p.q.q.q.q.q.q.q.q.q.q.q.q.q.q.p.p.O.O.q.q.q.q.p.p.q.q.",
"q.q. . .q.q.q.q.q.q.[ [ ) ) q.q.q.q.q.q.q.q.q.q.q.q.q.q.q.q.h.h.%.%.%.%.%.%.%.%.%.%.%.%.R R R R R R R R p.p.q.q.q.q.q.q.q.q.q.q.q.q.q.q.p.p.O.O.q.q.q.q.p.p.q.q.",
": : : : R R q.q.J J $ $ $ $ $ $ % % > > V V q.q.q.q.p.p.7 7 & & # # # # # # # # # # # # # # # # # # # # & & 2.2.q.q.q.q.q.q.n n 7 7 7 7 : : * * * - - - * * : : ",
": : : : R R q.q.J J $ $ $ $ $ $ % % > > V V q.q.q.q.p.p.7 7 & & # # # # # # # # # # # # # # # # # # # # & & 2.2.q.q.q.q.q.q.n n 7 7 7 7 : : * * * - - - * * : : ",
"- - - - : : q.q.% % $ $ $ $ $ $ $ $ $ $ $ $ s s p.p.: : # # # # # # # # # # # # # # # # # # # # # # # # # # & & p.p.q.q.^ ^ : : - - - - - - - - - - - - - - - - ",
"- - - - : : q.q.% % $ $ $ $ $ $ $ $ $ $ $ $ s s p.p.* : # # # # # # # # # # # # # # # # # # # # # # # # # & & & p.p.q.q.^ ^ : : - - - - - - - - - - - - - - - - ",
"- - - - : : q.q.$ $ $ $ $ $ $ $ $ $ $ $ $ $ $ $ R R & & # # # # # # # # # # # # # # # # # # # # # # # & & & # # c c q.p.n n & & & & * * - - - - - - - - - - - - ",
"- - - * : : ,.q.$ $ $ $ $ $ $ $ $ $ $ $ $ $ $ $ R R & & + # # # # # # # # # # # # # # # # # # # # # # # & & # # c c q.p.n n & & & & * * - - - - - - - - - - - - ",
"& & & & & & q.q.@ @     O O O O O O O O O O $ $ O.X.& & . .     . . . . . . . . + + + + + X X X . . . . . . + + p.p.p.p.L L # # . . . . . . X X + + + + # # # # ",
"& & & & & & q.q.@ @     O O O O O O O O O O $ $ O.O.& & . .     . . . . . . . . + + + + + + X X . . . . . . + + p.p.q.q.L L # # . . . . . . X X + + + + # # # # ",
". . X X ; ; q.q.> > O O                 O O s s q.q.7 7 # # . .                             . . . . . . X X : : q.q.q.q.q.q.7 7 # # X X . . . . . . . . . . . . ",
". . X X = = q.q.> > O O                 O O s s q.q.7 7 # # . .                             . . . . . . X X : : q.q.p.p.q.q.7 7 # # X X . . . . . . . . . . . . ",
": : , , q.q.q.q.q.q.l l 1 1 > > > > 1 1 J J q.q.q.q.q.q.n n : : ; ; * * & & # # = = = = = = ; ; , , n n n n p.p.q.q.q.p.q.q.q.q.R R c c : : ; ; & & @ # @ @ # @ ",
": : , , q.q.q.q.q.q.l l 1 1 > > > > 1 1 J J q.q.q.q.q.q.n n : : ; ; * * & & # # = = = = = = ; ; , , n n n n p.p.q.q.q.q.q.q.q.q.R R c i : : ; ; & & @ @ @ @ # # ",
"q.q.q.q.q.q.q.q.R R ^ ^ %.%.%.%.%.%.%.%.O.O.R R O.O.O.O.q.q.q.q.q.q.q.q.q.q.q.q.) ) V V V V V V V V V V ] ] [ [ q.p.p.q.q.q.p.p.h.h.k.k.p.p.%.%.%.%./ / n n q.q.",
"q.q.q.q.q.q.q.q.R R ^ ^ %.%.%.%.%.%.%.%.O.O.R R O.O.O.O.q.q.q.q.q.q.q.q.q.q.q.q.) ) V V V V V V V V V V ] ] [ [ q.p.p.q.q.q.p.p.h.h.k.k.p.p.%.%.%.%./ / n n q.q.",
"q.q.q.q.r r : : - - - - - - - - : - - - : : : : : : : : 7 7 O.O.q.q.q.q.] ] 1 1 $ $ $ $ $ $ $ $ $ $ $ $ $ $ > > [ [ d.d.: : ; ; & & & & & & & & & & & & # # q.q.",
"q.q.q.q.r r : : - - - - - - - - - - - - : : : : : : : : 7 7 O.O.q.q.q.q.] ] 1 1 $ $ $ $ $ $ $ $ $ $ $ $ $ $ > > [ [ d.d.: : ; ; & & & & & & & & & & & & # # q.q.",
"q.q.L L - - - - - - - - - - - - - - - - - - - - - - - - - - r r q.q.q.q.; ; $ $ $ $ $ $ $ $ $ $ $ $ $ $ $ $ $ $ l f : : # # # # # # # # # # # # # # # # . . V V ",
"q.q.L L - - - - - - - - - - - - - - - - - - - - - - - - - - r r q.q.q.q.; ; $ $ $ $ $ $ $ $ $ $ $ $ $ $ $ $ $ $ f f : : # # # # # # # # # # # # # # # # . . V V ",
"q.q.: : & & * * - - - - - - - - * * - - - - - - * * & & & & & & J J [ [ $ $ $ $ $ $ $ $ $ $ $ $ $ $ $ $ $ $ $ $ h h : : # # # # # # # # # # + + X X X X . . s s ",
"q.q.: : & & * * - - - - - - - - * * - - - - - - * * & & & & & & J J [ [ $ $ $ $ $ $ $ $ $ $ $ $ $ $ $ $ $ $ $ $ h h : : # # # # # # # # # # + + X X X X . . s s ",
"q.q.3 3 + + . . X X + + # # & & + + + + + + + + + + # # & & : : ,.,.O.O.$ $       o O O O O O O O O O O O O @ @ ] ] 7 7 X X . . . . . . . . X X X X + + . . k k ",
"q.q.3 3 + + . . X X + + # # & & + + + + + + + + + + # # & & : : ,.,.O.O.$ $         O O O O O O O O O O O O @ @ ] ] 7 7 X X . . . . . . . . X X X X + + . . k l ",
"q.q.q.q.: : + + . . . . . . . . . . . . . . . . . . . . # # r r q.q.q.q.f f @ @ O O                     O O 1 1 p.p.p.p.. . . . . . . .     . . . . . . . . [ [ ",
"q.q.q.q.: : + + . . . . . . . . . . . . . . . . . . . . # # r r q.q.q.q.f f @ @ O O                     O O 1 1 p.p.p.p.. . . . . . .       . . . . . . . . [ [ ",
"q.q.q.q.q.q.R R i i 4 4 > > ; ; ; ; ; ; ; ; ; ; 3 3 n n L L q.q.q.q.q.q.q.q.V V f f f f 1 1 > > > > f f V V q.q.q.q.q.q.: : + + . . . . . . . . . . + + # # q.q.",
"q.q.q.q.q.q.R R i i 4 4 > > ; ; ; ; ; ; ; ; ; ; 3 3 n n L L q.q.q.q.q.q.q.q.V V f f f f 1 1 > > > > f f V V q.q.q.q.q.q.: : + + . . . . . . . . . . + + # # q.q.",
"q.q.q.q.q.q.q.q.q.q.q.q.q.q.q.q.q.q.q.q.q.q.q.q.q.q.q.q.q.q.q.q.q.q.p.q.q.q.q.q.q.q.q.q.q.q.q.q.q.q.q.q.q.q.q.q.q.q.q.q.q.q.n n 7 7 v v c c n n L L ^ ^ p.p.q.q.",
"q.q.q.q.q.q.q.q.q.q.q.q.q.q.q.q.q.q.q.q.q.q.q.q.q.q.q.q.q.q.q.q.q.q.q.q.q.q.q.q.q.q.q.q.q.q.q.q.q.q.q.q.q.q.q.q.q.q.q.q.q.q.n n 7 7 v v c c n n L L ^ ^ p.p.q.q.",
"[ [ J J J J [ [ q.q.q.q.q.q.q.q.r r : : : : : : : : : : : : : : : : : : : : : : 7 7 q.q.q.q.q.q.q.q.R R 7 7 i i i i i i i i i i r r r r i i i i i i F F q.q.q.q.",
"[ [ J J J J [ [ q.q.q.q.q.q.q.q.r r : : : : : : : : : : : : : : : : : : : : : : 7 7 q.q.q.q.q.q.q.q.R R 7 7 i i i i i i i i i i r r r r i i i i i i F F q.q.q.q.",
"$ $ $ $ $ $ $ $ $ $ f f p.p.* * # # # # # # # # # # # # # # # # # # # # # # # # # # : : q.q.q.q.7 7 - - - - - - - - - - - - - - - - - - - - - - - - - - : : q.q.",
"$ $ $ $ $ $ $ $ $ $ f f q.p.* * # # # # # # # # # # # # # # # # # # # # # # # # # # : : q.q.q.q.7 7 - - - - - - - - - - - - - - - - - - - - - - - - - - : : q.q.",
"$ $ $ $ $ $ $ $ $ $ % % : : # # # # # # # # # # # # # # # # # # # # # # # # # # # # # # O.O.O.O.- - - - - - - - - - - - - - - - - - - - - - - - - - - - - - R R ",
"$ $ $ $ $ $ $ $ $ $ % % : : # # # # # # # # # # # # # # # # # # # # # # # # # # # # # # O.O.O.O.- - - - - - - - - - - - - - - - - - - - - - - - - - - - - - R R ",
"@ @ $ $ $ $ @ @ $ $ $ $ & & # # + + + + + + + + # # # # # # # # # # + + + + + + + + + + , , h h & & # # & & & & * * * * * * * * - - - - - - - - - - - - - - q.q.",
"@ @ $ $ $ $ @ @ $ $ $ $ & & # # + + + + + + + + # # # # # # # # # # + + + + + + + + + + , , h h & & # # & & & & * * * * * * * * - - - - - - - - - - - - - - q.q.",
"O O O O o o O O O O $ $ , , . .       .         . .         . . . . . . . .   . . . . . $ $ d d & & . . . . . . . . X X . . . . . . . . X X X X X X + + & & O.O.",
"O O O O o o O O O O $ $ , , . . . .             . .         . . . . . . . .   . . . . . $ $ d d & & . . . . . . . . X X . . . . . . . . X X X X X X + + & & O.O.",
"@ @ O O     o O O O > > q.q.& & . . . . . . . .                     .   . . . . + + ; ; q.q.q.q.O.O.: : # # X + X X . . . . . . . . X X X X + + # # : : L F q.q.",
"@ @ O O     o O O O > > q.q.# & . . . . . . . .                         . . . . + + ; ; q.q.q.q.O.O.: : # # X X X X . . . . . . . . X X X X + + # # : : L F q.q.",
"J J h h 1 1 d d [ [ q.q.q.q.q.q.,.q.L L ; ; # # # # # # @ @ $ $ * * i h O.^ O.O.O.O.q.p.q.q.q.q.q.q.O.O.O.O.O.O.O.O.O.O.J J V V V V J J [ [ q.q.q.q.q.q.q.q.p.p.",
"J J h h 1 1 d 1 [ [ q.q.q.q.q.q.,.,.L L ; ; # # # # # # @ @ $ $ * * i i O.^ O.O.O.O.q.p.q.q.q.q.q.q.O.O.O.O.O.O.O.O.[ [ J J V V V V J J [ [ q.q.q.q.q.q.q.q.p.p.",
"O.O., , r r r r R R q.q.q.q.q.q.q.q.p.p.k.k.p.q.,.,.O.O.q.q.q.q.,.,.q.q.q.q.,.,.q.q.q.q.q.q.q.q.q.q.q.q.q.q.q.q.^ ^ R R R R R R O.O.O.O.^ ^ R R L L n n r r * * ",
"O.O., , r r r r R R q.q.q.q.q.q.q.q.p.p.k.k.q.q.,.,.O.O.q.q.q.q.,.,.q.q.q.q.q.q.q.q.q.q.q.q.q.q.q.q.q.q.q.q.q.q.^ ^ R R R R R R O.O.O.O.^ ^ R R L L h h r r * * ",
"# # # # # # # # # # ; ; p.p.q.q.q.q.f f > > > > > > ; ; ; ; % % % % ; ; ; ; ; ; ; ; ; ; ; ; J J q.q.q.q.q.q.c v # # # # # # # # # # # # # # # # # # # # # # # # ",
"# # # # # # # # # # ; ; p.p.q.q.q.q.f f > > > > > > ; ; ; ; % % % % ; % ; ; % ; ; ; ; ; ; ; J J q.q.q.q.q.q.c c # # # # # # # # # # # # # # # # # # # # # # # # ",
"# # # # # # & & # # # # : : q.q.J J $ $ $ $ $ $ $ $ $ $ $ $ $ $ $ $ $ $ $ $ $ $ $ $ $ $ $ $ $ $ 1 1 q.q.p.p.& & # # # # # # # # # # # # # # # # # # # # # # # # ",
"# # # # & & & & # # # # : : q.q.J J $ $ $ $ $ $ $ $ $ $ $ $ $ $ $ $ $ $ $ $ $ $ $ $ $ $ $ $ $ $ 1 1 q.q.p.p.& & # # # # # # # # # # # # # # # # # # # # # # # # ",
"# # # # # # # # # # # # & & d.d.> > $ $ $ $ $ $ $ $ $ $ $ $ $ $ $ $ $ $ $ $ $ $ $ $ $ $ $ $ $ $ $ $ O.O.r r # # # # # # # # # # # # # # # # # # # # # # # # # # ",
"# # # # # # # # # # # # & & d.d.> > $ $ $ $ $ $ $ $ $ $ $ $ $ $ $ $ $ $ $ $ $ $ $ $ $ $ $ $ $ $ $ $ O.O.r r # # # # # # # # # # # # # # # # # # # # # # # # # # ",
". . . . . . X X . . . . # # c c 1 1 + + + + @ @ @ @ @ @ $ $ $ $ $ $ @ @ @ @ @ @ @ @ @ @ @ @ @ @ $ $ [ [ R R + + . . . . . . X X + + + + + + + + + + X X X X X X ",
". . . . . . X X . . . . # # c c 1 1 + + + + @ @ @ @ @ @ $ $ $ $ $ $ @ @ @ @ @ @ @ @ @ @ @ @ @ @ $ $ [ [ R R + + . . . . . . X X + + + + + + + + + + X X X X X X ",
". . . . . .         . . & & p.p.[ [ O O                                                 o o O O > > q.q.q.q.: : . . . .                         . . .           ",
". . . . . .         . . & & p.p.[ [ O O                                                     O O > > q.q.q.q.: : . . . .                         .   . .         ",
"# # + + . . . . + + , , p.p.q.q.q.q.d d $ $ @ @ + + O O O O O O O O o o O O O O O O $ $ 1 1 [ O.q.q.q.q.q.q.q.q.7 7 & & # # + + + + . . + + + + + + @ @ @ @ + + ",
"# # + O . . . . + + , , p.p.q.q.q.q.d d $ $ @ @ @ + O O O O O O O O o o O O O O O O $ $ 1 1 [ O.q.q.q.q.q.q.q.q.7 7 & & # # + + + + . . + + + + + + @ @ @ @ + + ",
"q.q.q.q.q.q.p.p.q.q.q.q.q.q.q.q.q.q.q.q.q.q.q.q.r r , , , , , , : : , , r r r r r r n n c c n n O.O.q.q.q.q.q.q.q.q.q.q.q.q.p.p.q.q.q.q.q.q.q.q.q.q.q.q.q.q.q.q.",
"q.q.q.q.q.q.p.p.q.q.q.q.q.q.q.q.q.q.q.q.q.q.q.q.r r , , , , , , : : , , r r r r r r n n c c n h O.O.q.q.q.q.q.q.q.q.q.q.q.q.p.p.q.q.q.q.q.q.q.q.q.q.q.q.q.q.q.q.",
"q.q.q.q.n n : : : : - - : : 7 7 q.q.q.q.R R # # # # # # # # # # # # # # # # # # # # # # # # # # # # c c q.q.q.q.: : : : : : : : r r i i i i i i i i c c q.q.q.q.",
"q.q.q.q.n n : : : : - - : : 7 7 q.q.q.q.R R # # # # # # # # # # # # # # # # # # # # # # # # # # # # c c q.q.q.q.: : : : : : : : r r i i i i i i i i c c q.q.q.q.",
"q.q.n n - - - - - - - - - - - - : : q.q., , + + . . . . X X X X X X + + # # # # # # # # # # # # # # h h q.q.r r - - - - - - - - - - - - - - - - - - - - i i q.q.",
"q.q.n n - - - - - - * * - - - - : : q.q., , + + . . . . X X X X X X + + # # # # # # # # # # # # # # h h q.q.r r - - - - - - - - - - - - - - - - - - - - i i q.q.",
"q.q.h h & & & & & & * * * * * * , , q.q.J J . . . . . . . . . .     . . . .         . . . . . . . . % % k k : : # # + + X X X X X X X X X X X X X X + + # # V V ",
"q.q.h h & & & & & & * * * * * * , , q.q.J J . . . . . . . . . .   . . . . .         . . . . . . . . % % k k : : # # + + X X X X X X X X X X X X X X + + # # V V "
};
